<svg width="10" height="7" viewBox="0 0 10 7" fill="none" xmlns="http://www.w3.org/2000/svg">
<path d="M9.22365 0.531399C9.26588 0.48495 9.31601 0.448104 9.37119 0.422966C9.42636 0.397827 9.4855 0.384888 9.54522 0.384888C9.60495 0.384888 9.66408 0.397827 9.71926 0.422966C9.77444 0.448104 9.82457 0.48495 9.8668 0.531399C9.90903 0.577849 9.94253 0.632994 9.96538 0.693683C9.98824 0.754373 10 0.81942 10 0.88511C10 0.9508 9.98824 1.01585 9.96538 1.07654C9.94253 1.13723 9.90903 1.19237 9.8668 1.23882L5.32157 6.23826C5.27936 6.28474 5.22923 6.32162 5.17405 6.34678C5.11888 6.37194 5.05973 6.38489 5 6.38489C4.94027 6.38489 4.88112 6.37194 4.82594 6.34678C4.77077 6.32162 4.72064 6.28474 4.67842 6.23826L0.133201 1.23882C0.0479136 1.14501 -2.37759e-09 1.01778 0 0.88511C2.37759e-09 0.752443 0.0479136 0.625209 0.133201 0.531399C0.218487 0.43759 0.334161 0.384888 0.454775 0.384888C0.575389 0.384888 0.691063 0.43759 0.77635 0.531399L5 5.17775L9.22365 0.531399Z" fill="black"/>
</svg>
