<svg width="160" height="37" viewBox="0 0 160 37" fill="none" xmlns="http://www.w3.org/2000/svg">
<rect y="0.128906" width="14.2" height="36" rx="4" fill="url(#paint0_linear_522_2569)"/>
<rect x="16.2002" y="0.128906" width="14.2" height="36" rx="4" fill="url(#paint1_linear_522_2569)"/>
<rect x="32.3999" y="0.128906" width="14.2" height="36" rx="4" fill="url(#paint2_linear_522_2569)"/>
<rect x="48.6001" y="0.128906" width="14.2" height="36" rx="4" fill="url(#paint3_linear_522_2569)"/>
<rect x="64.7998" y="0.128906" width="14.2" height="36" rx="4" fill="url(#paint4_linear_522_2569)"/>
<rect x="81" y="0.128906" width="14.2" height="36" rx="4" fill="#C9FFDD"/>
<rect x="97.2002" y="0.128906" width="14.2" height="36" rx="4" fill="#C9FFDD"/>
<rect x="113.4" y="0.128906" width="14.2" height="36" rx="4" fill="#C9FFDD"/>
<rect x="129.6" y="0.128906" width="14.2" height="36" rx="4" fill="#C9FFDD"/>
<rect x="145.8" y="0.128906" width="14.2" height="36" rx="4" fill="#C9FFDD"/>
<defs>
<linearGradient id="paint0_linear_522_2569" x1="0" y1="18.1289" x2="14.2" y2="18.1289" gradientUnits="userSpaceOnUse">
<stop stop-color="#0A8B3A"/>
<stop offset="1" stop-color="#00C749"/>
</linearGradient>
<linearGradient id="paint1_linear_522_2569" x1="16.2002" y1="18.1289" x2="30.4002" y2="18.1289" gradientUnits="userSpaceOnUse">
<stop stop-color="#0A8B3A"/>
<stop offset="1" stop-color="#00C749"/>
</linearGradient>
<linearGradient id="paint2_linear_522_2569" x1="32.3999" y1="18.1289" x2="46.5999" y2="18.1289" gradientUnits="userSpaceOnUse">
<stop stop-color="#0A8B3A"/>
<stop offset="1" stop-color="#00C749"/>
</linearGradient>
<linearGradient id="paint3_linear_522_2569" x1="48.6001" y1="18.1289" x2="62.8001" y2="18.1289" gradientUnits="userSpaceOnUse">
<stop stop-color="#0A8B3A"/>
<stop offset="1" stop-color="#00C749"/>
</linearGradient>
<linearGradient id="paint4_linear_522_2569" x1="64.7998" y1="18.1289" x2="78.9998" y2="18.1289" gradientUnits="userSpaceOnUse">
<stop stop-color="#0A8B3A"/>
<stop offset="1" stop-color="#00C749"/>
</linearGradient>
</defs>
</svg>
