<svg width="22" height="23" viewBox="0 0 22 23" fill="none" xmlns="http://www.w3.org/2000/svg">
<rect y="0.128418" width="22" height="22" rx="4" fill="#63C186"/>
<path d="M17.5 9.17274C17.5002 8.93443 17.4446 8.69941 17.3377 8.4866C17.2308 8.27379 17.0756 8.08915 16.8845 7.94756C16.6934 7.80596 16.4719 7.71137 16.2377 7.67141C16.0035 7.63144 15.7633 7.64722 15.5363 7.71747C15.3093 7.78772 15.102 7.91048 14.9309 8.07585C14.7599 8.24122 14.63 8.44459 14.5516 8.66956C14.4733 8.89454 14.4487 9.13483 14.4799 9.37108C14.511 9.60733 14.5971 9.83293 14.7311 10.0297L13.28 11.823L11.9752 8.81409C12.2131 8.61315 12.3838 8.34365 12.464 8.04214C12.5441 7.74062 12.5299 7.42166 12.4233 7.1285C12.3167 6.83534 12.1229 6.58216 11.868 6.40326C11.6131 6.22437 11.3096 6.12842 10.9986 6.12842C10.6875 6.12842 10.384 6.22437 10.1291 6.40326C9.87428 6.58216 9.68041 6.83534 9.5738 7.1285C9.4672 7.42166 9.45302 7.74062 9.53319 8.04214C9.61336 8.34365 9.784 8.61315 10.022 8.81409L8.72039 11.8213L7.26931 10.0281C7.45572 9.75406 7.54775 9.42643 7.53139 9.09508C7.51502 8.76374 7.39117 8.44684 7.17869 8.19264C6.9662 7.93845 6.67673 7.76089 6.35436 7.68702C6.03199 7.61314 5.69438 7.64699 5.39296 7.78341C5.09154 7.91983 4.84282 8.15135 4.68468 8.44271C4.52654 8.73406 4.46764 9.06928 4.51697 9.39732C4.56629 9.72536 4.72113 10.0282 4.9579 10.2598C5.19467 10.4914 5.5004 10.639 5.82852 10.6802L6.61283 15.4019C6.64655 15.6049 6.75095 15.7893 6.90745 15.9223C7.06396 16.0554 7.26243 16.1284 7.46756 16.1284H14.5328C14.738 16.1284 14.9364 16.0554 15.0929 15.9223C15.2494 15.7893 15.3538 15.6049 15.3876 15.4019L16.1713 10.6823C16.5381 10.6364 16.8756 10.4576 17.1202 10.1796C17.3649 9.90165 17.4999 9.54359 17.5 9.17274ZM11.0002 6.99909C11.1288 6.99909 11.2544 7.03734 11.3613 7.10899C11.4682 7.18065 11.5515 7.28249 11.6007 7.40164C11.6499 7.5208 11.6628 7.65191 11.6377 7.77841C11.6126 7.9049 11.5507 8.02109 11.4598 8.11229C11.3689 8.20349 11.2531 8.26559 11.127 8.29075C11.0009 8.31592 10.8702 8.303 10.7515 8.25365C10.6327 8.20429 10.5312 8.12071 10.4598 8.01347C10.3883 7.90624 10.3502 7.78016 10.3502 7.65119C10.3502 7.47824 10.4187 7.31238 10.5406 7.19009C10.6625 7.0678 10.8278 6.99909 11.0002 6.99909ZM5.36704 9.17274C5.36704 9.04377 5.40516 8.9177 5.47658 8.81046C5.548 8.70322 5.64951 8.61964 5.76828 8.57029C5.88705 8.52093 6.01774 8.50802 6.14382 8.53318C6.26991 8.55834 6.38572 8.62045 6.47662 8.71164C6.56752 8.80284 6.62943 8.91903 6.65451 9.04553C6.67959 9.17202 6.66672 9.30313 6.61752 9.42229C6.56832 9.54144 6.48502 9.64329 6.37813 9.71494C6.27124 9.78659 6.14557 9.82484 6.01702 9.82484C5.84463 9.82484 5.67931 9.75613 5.55741 9.63384C5.43552 9.51155 5.36704 9.34569 5.36704 9.17274ZM15.9834 9.82484C15.8548 9.82484 15.7292 9.78659 15.6223 9.71494C15.5154 9.64329 15.4321 9.54144 15.3829 9.42229C15.3337 9.30313 15.3208 9.17202 15.3459 9.04553C15.371 8.91903 15.4329 8.80284 15.5238 8.71164C15.6147 8.62045 15.7305 8.55834 15.8566 8.53318C15.9827 8.50802 16.1133 8.52093 16.2321 8.57029C16.3509 8.61964 16.4524 8.70322 16.5238 8.81046C16.5952 8.9177 16.6334 9.04377 16.6334 9.17274C16.6334 9.34569 16.5649 9.51155 16.443 9.63384C16.3211 9.75613 16.1558 9.82484 15.9834 9.82484Z" fill="white"/>
</svg>
