<svg width="22" height="23" viewBox="0 0 22 23" fill="none" xmlns="http://www.w3.org/2000/svg">
<rect y="0.128418" width="22" height="22" rx="4" fill="#94D5AC"/>
<path d="M15.6538 6.12842H6.34617C6.12175 6.12842 5.90653 6.21622 5.74785 6.3725C5.58916 6.52878 5.50002 6.74074 5.50002 6.96175V15.2951C5.49904 15.454 5.54469 15.6098 5.63147 15.7438C5.71825 15.8777 5.84247 15.9842 5.9892 16.0503C6.10101 16.1016 6.22283 16.1282 6.34617 16.1284C6.5448 16.128 6.73685 16.0582 6.88823 15.9315L6.89299 15.9279L8.6202 14.4618H15.6538C15.8783 14.4618 16.0935 14.374 16.2522 14.2177C16.4109 14.0614 16.5 13.8494 16.5 13.6284V6.96175C16.5 6.74074 16.4109 6.52878 16.2522 6.3725C16.0935 6.21622 15.8783 6.12842 15.6538 6.12842ZM8.67309 10.9201C8.54757 10.9201 8.42488 10.8834 8.32052 10.8148C8.21615 10.7461 8.13481 10.6485 8.08678 10.5343C8.03875 10.4201 8.02618 10.2944 8.05067 10.1732C8.07515 10.0519 8.1356 9.94055 8.22435 9.85314C8.3131 9.76573 8.42618 9.70621 8.54928 9.68209C8.67238 9.65798 8.79998 9.67036 8.91594 9.71766C9.0319 9.76496 9.13102 9.84507 9.20075 9.94785C9.27048 10.0506 9.3077 10.1715 9.3077 10.2951C9.3077 10.4608 9.24084 10.6198 9.12183 10.737C9.00281 10.8542 8.8414 10.9201 8.67309 10.9201ZM11 10.9201C10.8745 10.9201 10.7518 10.8834 10.6474 10.8148C10.5431 10.7461 10.4617 10.6485 10.4137 10.5343C10.3657 10.4201 10.3531 10.2944 10.3776 10.1732C10.4021 10.0519 10.4625 9.94055 10.5513 9.85314C10.64 9.76573 10.7531 9.70621 10.8762 9.68209C10.9993 9.65798 11.1269 9.67036 11.2429 9.71766C11.3588 9.76496 11.4579 9.84507 11.5277 9.94785C11.5974 10.0506 11.6346 10.1715 11.6346 10.2951C11.6346 10.4608 11.5678 10.6198 11.4487 10.737C11.3297 10.8542 11.1683 10.9201 11 10.9201ZM13.3269 10.9201C13.2014 10.9201 13.0787 10.8834 12.9744 10.8148C12.87 10.7461 12.7887 10.6485 12.7406 10.5343C12.6926 10.4201 12.68 10.2944 12.7045 10.1732C12.729 10.0519 12.7894 9.94055 12.8782 9.85314C12.9669 9.76573 13.08 9.70621 13.2031 9.68209C13.3262 9.65798 13.4538 9.67036 13.5698 9.71766C13.6857 9.76496 13.7849 9.84507 13.8546 9.94785C13.9243 10.0506 13.9615 10.1715 13.9615 10.2951C13.9615 10.4608 13.8947 10.6198 13.7757 10.737C13.6567 10.8542 13.4952 10.9201 13.3269 10.9201Z" fill="white"/>
</svg>
