<svg width="22" height="23" viewBox="0 0 22 23" fill="none" xmlns="http://www.w3.org/2000/svg">
<rect y="0.128418" width="22" height="22" rx="4" fill="#16A34A"/>
<path d="M15.4304 15.5127C15.4691 15.5698 15.4927 15.6378 15.4986 15.709C15.5044 15.7802 15.4923 15.8518 15.4635 15.9157C15.4347 15.9797 15.3905 16.0335 15.3357 16.071C15.281 16.1086 15.2179 16.1285 15.1535 16.1284H6.84614C6.78186 16.1284 6.71885 16.1085 6.66416 16.071C6.60948 16.0334 6.56529 15.9797 6.53654 15.9158C6.5078 15.852 6.49563 15.7805 6.5014 15.7093C6.50717 15.6382 6.53066 15.5703 6.56923 15.5131C6.87573 15.0566 7.28445 14.6972 7.75476 14.4705C7.49696 14.2091 7.31633 13.8672 7.23657 13.4897C7.1568 13.1122 7.18164 12.7168 7.30782 12.3552C7.434 11.9937 7.65562 11.683 7.9436 11.4639C8.23157 11.2448 8.57245 11.1276 8.92147 11.1276C9.2705 11.1276 9.61138 11.2448 9.89935 11.4639C10.1873 11.683 10.409 11.9937 10.5351 12.3552C10.6613 12.7168 10.6861 13.1122 10.6064 13.4897C10.5266 13.8672 10.346 14.2091 10.0882 14.4705C10.4275 14.6335 10.7358 14.8666 10.9968 15.1574C11.2578 14.8666 11.5661 14.6335 11.9054 14.4705C11.6476 14.2091 11.467 13.8672 11.3872 13.4897C11.3075 13.1122 11.3323 12.7168 11.4585 12.3552C11.5847 11.9937 11.8063 11.683 12.0943 11.4639C12.3822 11.2448 12.7231 11.1276 13.0721 11.1276C13.4212 11.1276 13.762 11.2448 14.05 11.4639C14.338 11.683 14.5596 11.9937 14.6858 12.3552C14.812 12.7168 14.8368 13.1122 14.7571 13.4897C14.6773 13.8672 14.4967 14.2091 14.2389 14.4705C14.7114 14.696 15.1223 15.0553 15.4304 15.5127ZM6.63846 11.0523C6.67482 11.0826 6.7162 11.1047 6.76024 11.1172C6.80427 11.1298 6.85009 11.1325 6.89509 11.1254C6.94009 11.1182 6.98338 11.1013 7.0225 11.0756C7.06161 11.0499 7.09578 11.0158 7.12305 10.9754C7.33263 10.665 7.60438 10.413 7.9168 10.2395C8.22921 10.0659 8.5737 9.9756 8.92299 9.9756C9.27228 9.9756 9.61677 10.0659 9.92918 10.2395C10.2416 10.413 10.5134 10.665 10.7229 10.9754C10.7552 11.0232 10.797 11.062 10.845 11.0887C10.8931 11.1154 10.9461 11.1293 10.9998 11.1293C11.0536 11.1293 11.1066 11.1154 11.1546 11.0887C11.2027 11.062 11.2445 11.0232 11.2768 10.9754C11.4863 10.665 11.7581 10.413 12.0705 10.2395C12.3829 10.0659 12.7274 9.9756 13.0767 9.9756C13.426 9.9756 13.7705 10.0659 14.0829 10.2395C14.3953 10.413 14.667 10.665 14.8766 10.9754C14.9039 11.0158 14.9381 11.0499 14.9773 11.0756C15.0164 11.1013 15.0597 11.1182 15.1047 11.1253C15.1498 11.1324 15.1956 11.1296 15.2396 11.1171C15.2837 11.1045 15.3251 11.0824 15.3614 11.0521C15.3978 11.0218 15.4284 10.9838 15.4516 10.9403C15.4747 10.8968 15.4899 10.8487 15.4963 10.7987C15.5028 10.7487 15.5002 10.6977 15.4889 10.6488C15.4776 10.5999 15.4577 10.5539 15.4304 10.5135C15.1239 10.0571 14.7152 9.6978 14.2449 9.47136C14.5027 9.20996 14.6833 8.86807 14.7631 8.49057C14.8429 8.11308 14.818 7.71761 14.6919 7.35607C14.5657 6.99454 14.3441 6.68384 14.0561 6.46475C13.7681 6.24566 13.4272 6.12842 13.0782 6.12842C12.7292 6.12842 12.3883 6.24566 12.1003 6.46475C11.8123 6.68384 11.5907 6.99454 11.4645 7.35607C11.3384 7.71761 11.3135 8.11308 11.3933 8.49057C11.4731 8.86807 11.6537 9.20996 11.9115 9.47136C11.5722 9.6343 11.2638 9.8674 11.0029 10.1583C10.7419 9.8674 10.4336 9.6343 10.0942 9.47136C10.352 9.20996 10.5327 8.86807 10.6124 8.49057C10.6922 8.11308 10.6674 7.71761 10.5412 7.35607C10.415 6.99454 10.1934 6.68384 9.90541 6.46475C9.61743 6.24566 9.27656 6.12842 8.92753 6.12842C8.5785 6.12842 8.23763 6.24566 7.94965 6.46475C7.66168 6.68384 7.44006 6.99454 7.31388 7.35607C7.1877 7.71761 7.16286 8.11308 7.24262 8.49057C7.32239 8.86807 7.50302 9.20996 7.76082 9.47136C7.2883 9.69699 6.8774 10.0565 6.56923 10.514C6.54195 10.5544 6.52211 10.6003 6.51083 10.6493C6.49955 10.6982 6.49705 10.7491 6.50348 10.7991C6.50991 10.8491 6.52514 10.8972 6.5483 10.9406C6.57146 10.9841 6.60209 11.022 6.63846 11.0523Z" fill="white"/>
</svg>
