<svg width="169" height="161" viewBox="0 0 169 161" fill="none" xmlns="http://www.w3.org/2000/svg">
<path d="M35.5498 32.088C35.5736 32.2658 35.5441 32.4466 35.4651 32.6077C35.3862 32.7687 35.2612 32.9028 35.1061 32.9928C34.951 33.0829 34.7726 33.1249 34.5936 33.1136C34.4146 33.1023 34.2429 33.0382 34.1003 32.9293C33.9578 32.8205 33.8506 32.6718 33.7925 32.5021C33.7344 32.3324 33.728 32.1493 33.7739 31.9759C33.8199 31.8025 33.9162 31.6467 34.0508 31.528C34.1853 31.4094 34.352 31.3333 34.5298 31.3094C34.7681 31.2784 35.0091 31.3428 35.2001 31.4886C35.3912 31.6345 35.5168 31.8499 35.5498 32.088Z" fill="#92E3A9"/>
<path d="M34.6425 47.9014C34.6663 48.0792 34.6369 48.2601 34.5579 48.4211C34.4789 48.5822 34.354 48.7162 34.1989 48.8063C34.0437 48.8963 33.8654 48.9384 33.6864 48.9271C33.5073 48.9158 33.3357 48.8517 33.1931 48.7428C33.0505 48.634 32.9434 48.4853 32.8853 48.3156C32.8272 48.1459 32.8207 47.9628 32.8667 47.7894C32.9127 47.616 33.009 47.4601 33.1436 47.3415C33.2781 47.2228 33.4448 47.1468 33.6226 47.1228C33.7407 47.107 33.8607 47.1145 33.9759 47.145C34.0911 47.1756 34.1992 47.2285 34.2939 47.3008C34.3886 47.3731 34.4681 47.4634 34.528 47.5664C34.5878 47.6695 34.6267 47.7833 34.6425 47.9014Z" fill="#BC4343"/>
<path d="M66.8537 67.1558C66.8614 67.2148 66.8574 67.2748 66.8419 67.3323C66.8263 67.3898 66.7997 67.4436 66.7633 67.4908C66.727 67.538 66.6817 67.5775 66.6301 67.6072C66.5785 67.6369 66.5215 67.6561 66.4625 67.6638C66.4034 67.6715 66.3435 67.6674 66.286 67.6519C66.2285 67.6364 66.1746 67.6097 66.1274 67.5734C66.0803 67.5371 66.0407 67.4918 66.011 67.4402C65.9814 67.3886 65.9621 67.3316 65.9545 67.2726C65.939 67.1533 65.9715 67.0328 66.0449 66.9375C66.1182 66.8422 66.2265 66.78 66.3457 66.7645C66.465 66.749 66.5855 66.7816 66.6808 66.8549C66.776 66.9283 66.8383 67.0365 66.8537 67.1558Z" fill="#92E3A9"/>
<path d="M50.9076 15.8267C50.92 15.9161 50.9055 16.0071 50.8661 16.0883C50.8266 16.1694 50.7639 16.237 50.686 16.2825C50.608 16.328 50.5183 16.3493 50.4283 16.3437C50.3382 16.3381 50.2518 16.3059 50.1801 16.2511C50.1084 16.1964 50.0545 16.1215 50.0254 16.0361C49.9962 15.9507 49.9931 15.8586 50.0164 15.7714C50.0397 15.6842 50.0884 15.606 50.1563 15.5465C50.2242 15.487 50.3082 15.4491 50.3977 15.4374C50.5168 15.4219 50.6373 15.4541 50.7328 15.527C50.8283 15.5999 50.8912 15.7077 50.9076 15.8267Z" fill="#92E3A9"/>
<path d="M107.243 5.63916C107.258 5.75841 107.226 5.87893 107.152 5.97421C107.079 6.06948 106.971 6.13171 106.852 6.1472C106.732 6.16268 106.612 6.13016 106.517 6.05679C106.421 5.98342 106.359 5.8752 106.344 5.75595C106.328 5.6367 106.361 5.51618 106.434 5.42091C106.507 5.32563 106.616 5.26341 106.735 5.24792C106.854 5.23243 106.975 5.26495 107.07 5.33832C107.165 5.4117 107.227 5.51991 107.243 5.63916Z" fill="#BC4343"/>
<path d="M56.0467 40.143C56.0607 40.2047 56.0616 40.2686 56.0495 40.3307C56.0374 40.3927 56.0125 40.4516 55.9765 40.5035C55.9404 40.5555 55.8939 40.5993 55.8399 40.6323C55.7859 40.6652 55.7257 40.6866 55.663 40.695C55.6004 40.7034 55.5366 40.6987 55.4759 40.6811C55.4151 40.6635 55.3587 40.6335 55.3102 40.5929C55.2617 40.5524 55.2222 40.5021 55.1942 40.4455C55.1661 40.3888 55.1502 40.3269 55.1474 40.2637C55.1424 40.15 55.1801 40.0386 55.2531 39.9513C55.3261 39.8641 55.4291 39.8073 55.5419 39.7921C55.6546 39.777 55.769 39.8046 55.8624 39.8696C55.9558 39.9345 56.0216 40.0321 56.0467 40.143Z" fill="#BC4343"/>
<path d="M97.8093 80.9058C97.817 80.9648 97.8129 81.0248 97.7974 81.0823C97.7819 81.1398 97.7552 81.1936 97.7189 81.2408C97.6826 81.288 97.6373 81.3275 97.5857 81.3572C97.5341 81.3869 97.4771 81.4061 97.4181 81.4138C97.359 81.4215 97.299 81.4174 97.2416 81.4019C97.1841 81.3864 97.1302 81.3597 97.083 81.3234C97.0358 81.2871 96.9963 81.2418 96.9666 81.1902C96.9369 81.1386 96.9177 81.0816 96.91 81.0226C96.8945 80.9033 96.9271 80.7828 97.0004 80.6875C97.0738 80.5922 97.182 80.53 97.3013 80.5145C97.4205 80.499 97.541 80.5316 97.6363 80.6049C97.7316 80.6783 97.7938 80.7865 97.8093 80.9058Z" fill="#455A64"/>
<path d="M33.4892 83.5259C33.5008 83.6145 33.4858 83.7045 33.4462 83.7845C33.4066 83.8646 33.3442 83.9311 33.2668 83.9757C33.1894 84.0203 33.1005 84.0409 33.0114 84.035C32.9223 84.029 32.8369 83.9968 32.7661 83.9423C32.6953 83.8879 32.6422 83.8136 32.6136 83.729C32.585 83.6444 32.5822 83.5532 32.6054 83.4669C32.6286 83.3807 32.6769 83.3033 32.7441 83.2445C32.8114 83.1857 32.8945 83.1481 32.9831 83.1366C33.042 83.1284 33.1019 83.132 33.1593 83.1472C33.2168 83.1624 33.2707 83.1889 33.3178 83.2252C33.3649 83.2614 33.4043 83.3067 33.4337 83.3583C33.4632 83.4099 33.482 83.4669 33.4892 83.5259Z" fill="#92E3A9"/>
<path d="M19.8261 66.4161C19.8499 66.5939 19.8205 66.7747 19.7415 66.9358C19.6625 67.0969 19.5376 67.2309 19.3825 67.3209C19.2273 67.411 19.049 67.453 18.87 67.4417C18.6909 67.4304 18.5193 67.3663 18.3767 67.2575C18.2341 67.1486 18.127 66.9999 18.0689 66.8302C18.0108 66.6605 18.0043 66.4774 18.0503 66.304C18.0963 66.1306 18.1926 65.9748 18.3272 65.8561C18.4617 65.7375 18.6284 65.6614 18.8062 65.6375C18.9243 65.6211 19.0446 65.6282 19.16 65.6586C19.2754 65.6889 19.3836 65.7418 19.4785 65.8142C19.5733 65.8866 19.6528 65.977 19.7125 66.0803C19.7722 66.1837 19.8108 66.2978 19.8261 66.4161Z" fill="#92E3A9"/>
<path d="M75.0981 5.57673C75.1219 5.75452 75.0925 5.93538 75.0135 6.09643C74.9345 6.25749 74.8096 6.39152 74.6544 6.48157C74.4993 6.57163 74.3209 6.61366 74.1419 6.60236C73.9629 6.59107 73.7913 6.52694 73.6487 6.4181C73.5061 6.30926 73.399 6.16059 73.3409 5.99088C73.2828 5.82117 73.2763 5.63805 73.3223 5.46466C73.3682 5.29128 73.4646 5.13541 73.5991 5.01677C73.7337 4.89813 73.9004 4.82205 74.0781 4.79814C74.1962 4.78225 74.3163 4.78979 74.4315 4.82033C74.5467 4.85086 74.6547 4.9038 74.7494 4.9761C74.8442 5.04841 74.9237 5.13867 74.9835 5.24172C75.0433 5.34478 75.0823 5.45862 75.0981 5.57673Z" fill="#92E3A9"/>
<path d="M136.691 96.801L137.975 96.3689C137.975 96.3689 137.099 95.9173 137.099 94.5119C137.099 93.1066 138.302 92.5655 137.785 91.2847L136.352 91.674C136.513 92.0082 136.602 92.3725 136.614 92.7433C136.625 93.1142 136.558 93.4833 136.418 93.8268C136.052 94.6287 135.694 95.5903 136.691 96.801Z" fill="#92E3A9"/>
<path d="M30.0526 93.7606L28.7835 93.2817C28.7835 93.2817 29.1728 94.1849 28.293 95.2749C27.4132 96.365 26.1246 96.0535 25.7275 97.3538L27.0784 97.9572C27.1646 97.5961 27.3255 97.2571 27.5508 96.962C27.7761 96.667 28.0608 96.4225 28.3864 96.2443C29.1923 95.8433 30.0604 95.3255 30.0526 93.7606Z" fill="#92E3A9"/>
<path d="M65.3153 33.9447L64.0306 33.4775C64.0306 33.4775 64.4199 34.3807 63.5401 35.4707C62.6603 36.5608 61.3717 36.2493 60.9746 37.5457L62.3255 38.153C62.411 37.7916 62.5716 37.4523 62.797 37.1572C63.0224 36.862 63.3074 36.6177 63.6335 36.4401C64.4549 36.0469 65.3231 35.5213 65.3153 33.9447Z" fill="#455A64"/>
<path d="M111.524 74.537L110.255 74.062C110.255 74.062 110.644 74.9652 109.765 76.0552C108.885 77.1452 107.596 76.8338 107.199 78.1302L108.55 78.7375C108.636 78.3761 108.796 78.0368 109.022 77.7416C109.247 77.4465 109.532 77.2022 109.858 77.0246C110.672 76.6314 111.544 76.1058 111.524 74.537Z" fill="#455A64"/>
<path d="M57.4125 62.566L57.5955 61.2268C57.5955 61.2268 56.8169 61.8107 55.5439 61.1879C54.2709 60.565 54.3215 59.2414 52.9512 59.144L52.6592 60.5961C53.028 60.602 53.3916 60.6846 53.7268 60.8387C54.0619 60.9929 54.3612 61.2152 54.6057 61.4915C55.1935 62.1922 55.902 62.9241 57.4125 62.566Z" fill="#92E3A9"/>
<path d="M118.439 89.0225L118.622 87.6794C118.622 87.6794 117.843 88.2634 116.57 87.6405C115.297 87.0176 115.348 85.694 113.978 85.5967L113.686 87.0488C114.055 87.0548 114.419 87.138 114.754 87.2928C115.089 87.4477 115.388 87.6709 115.632 87.948C116.197 88.6449 116.913 89.3768 118.439 89.0225Z" fill="#455A64"/>
<path d="M112.957 26.9727L113.14 25.6335C113.14 25.6335 112.362 26.2175 111.089 25.5946C109.816 24.9717 109.866 23.6481 108.496 23.5508L108.204 25.0029C108.573 25.0087 108.937 25.0913 109.272 25.2455C109.607 25.3997 109.906 25.622 110.151 25.8982C110.723 26.5951 111.431 27.327 112.957 26.9727Z" fill="#92E3A9"/>
<path d="M137.609 33.3997L136.184 32.6211C136.184 32.6211 135.016 34.3613 136.417 35.2411C136.413 35.245 136.125 34.1121 137.609 33.3997Z" fill="#92E3A9"/>
<path d="M136.44 37.3664L137.943 36.8097C137.943 36.8097 138.033 35.5211 136.405 35.2525C136.413 35.2447 137.433 36.4126 136.44 37.3664Z" fill="#92E3A9"/>
<path d="M61.5319 75.1404L60.1032 74.3618C60.1032 74.3618 58.9353 76.1059 60.3368 76.9818C60.3368 76.9857 60.0526 75.8567 61.5319 75.1404Z" fill="#455A64"/>
<path d="M60.3748 79.1036L61.8736 78.543C61.8736 78.543 61.9631 77.2583 60.3164 76.9858C60.3359 76.9858 61.3558 78.1537 60.3748 79.1036Z" fill="#455A64"/>
<path d="M117.221 23.7067C117.197 23.5287 117.226 23.3476 117.306 23.1864C117.385 23.0252 117.51 22.8911 117.665 22.801C117.82 22.711 117.999 22.6691 118.178 22.6806C118.357 22.6921 118.529 22.7566 118.672 22.8658C118.814 22.975 118.921 23.1241 118.979 23.2941C119.037 23.4641 119.043 23.6475 118.996 23.8209C118.949 23.9943 118.853 24.15 118.717 24.2683C118.582 24.3866 118.415 24.4621 118.237 24.4852C117.999 24.5162 117.759 24.4517 117.568 24.3058C117.378 24.1598 117.253 23.9444 117.221 23.7067Z" fill="#BC4343"/>
<path d="M131.559 45.7755C131.535 45.5977 131.564 45.4168 131.643 45.2558C131.722 45.0947 131.847 44.9607 132.002 44.8706C132.158 44.7806 132.336 44.7386 132.515 44.7498C132.694 44.7611 132.866 44.8253 133.008 44.9341C133.151 45.043 133.258 45.1916 133.316 45.3613C133.374 45.531 133.381 45.7142 133.335 45.8876C133.289 46.0609 133.192 46.2168 133.058 46.3354C132.923 46.4541 132.757 46.5302 132.579 46.5541C132.461 46.57 132.341 46.5624 132.225 46.5319C132.11 46.5014 132.002 46.4484 131.907 46.3761C131.813 46.3038 131.733 46.2135 131.673 46.1105C131.614 46.0074 131.575 45.8936 131.559 45.7755Z" fill="#92E3A9"/>
<path d="M127.799 78.4847C127.787 78.3961 127.802 78.3061 127.842 78.226C127.881 78.146 127.944 78.0794 128.021 78.0349C128.099 77.9903 128.187 77.9697 128.277 77.9756C128.366 77.9816 128.451 78.0138 128.522 78.0683C128.593 78.1227 128.646 78.197 128.674 78.2816C128.703 78.3662 128.706 78.4574 128.683 78.5436C128.659 78.6299 128.611 78.7073 128.544 78.7661C128.477 78.8249 128.393 78.8625 128.305 78.874C128.186 78.8895 128.066 78.8571 127.971 78.7841C127.876 78.7111 127.814 78.6034 127.799 78.4847Z" fill="#92E3A9"/>
<path d="M75.1805 63.9594L74.9937 65.3025C74.9937 65.3025 75.7722 64.7186 77.0452 65.3414C78.3182 65.9643 78.2715 67.2879 79.6419 67.3852L79.9299 65.9332C79.5611 65.9273 79.1975 65.8447 78.8624 65.6905C78.5272 65.5364 78.2279 65.3141 77.9835 65.0378C77.4112 64.337 76.7066 63.6052 75.1805 63.9594Z" fill="#455A64"/>
<path d="M149.804 79.2477L147.643 79.8589C147.643 79.8589 146.612 77.1572 148.757 76.3942C148.757 76.3786 148.025 77.8346 149.804 79.2477Z" fill="#455A64"/>
<path d="M149.451 73.5405L151.308 74.7512C151.308 74.7512 151.035 76.5148 148.758 76.3941C148.758 76.3785 150.486 75.1289 149.451 73.5405Z" fill="#455A64"/>
<path d="M111.136 57.4548L108.963 58.0816C108.963 58.0816 107.936 55.3798 110.077 54.6168C110.077 54.6013 109.349 56.0417 111.136 57.4548Z" fill="#BC4343"/>
<path d="M110.774 51.7476L112.631 52.9583C112.631 52.9583 112.358 54.7218 110.077 54.6011C110.077 54.6011 111.81 53.3359 110.774 51.7476Z" fill="#BC4343"/>
<path d="M37.3529 70.2159L35.1885 70.8271C35.1885 70.8271 34.1607 68.1253 36.3018 67.3623C36.3018 67.3623 35.57 68.8027 37.3529 70.2159Z" fill="#BC4343"/>
<path d="M36.9966 64.5083L38.8536 65.719C38.8536 65.719 38.5772 67.4825 36.2998 67.3619C36.2998 67.3619 38.0322 66.0966 36.9966 64.5083Z" fill="#BC4343"/>
<path d="M128.171 53.1065L129.6 53.8851C129.6 53.8851 130.768 52.1411 129.366 51.2651C129.366 51.2613 129.65 52.3902 128.171 53.1065Z" fill="#455A64"/>
<path d="M129.328 49.1279L127.825 49.6885C127.825 49.6885 127.739 50.9732 129.382 51.2457C129.367 51.2613 128.347 50.0934 129.328 49.1279Z" fill="#455A64"/>
<path d="M78.5005 46.2545L79.9292 47.0331C79.9292 47.0331 81.0971 45.2929 79.6956 44.4131C79.6956 44.4092 79.9915 45.5421 78.5005 46.2545Z" fill="#92E3A9"/>
<path d="M79.6577 42.2876L78.1551 42.8443C78.1551 42.8443 78.0694 44.1329 79.7123 44.4015C79.6967 44.4093 78.6767 43.2453 79.6577 42.2876Z" fill="#92E3A9"/>
<path d="M91.0176 97.7392L91.255 99.3431C91.255 99.3431 93.3417 99.2224 93.2015 97.5835C93.2288 97.5835 92.4774 98.4906 91.0176 97.7392Z" fill="#92E3A9"/>
<path d="M94.8812 96.2798L93.5342 95.4155C93.5342 95.4155 92.452 96.1163 93.2072 97.5839C93.2267 97.5839 93.5264 96.0695 94.8812 96.2798Z" fill="#92E3A9"/>
<path d="M0.325195 160.004L21.4095 159.91L42.4939 159.875L84.6626 159.809L126.831 159.875L147.916 159.91L169 160.004L147.916 160.101L126.831 160.132L84.6626 160.198L42.4939 160.132L21.4095 160.097L0.325195 160.004Z" fill="#BC4343"/>
<path d="M103.226 69.145C97.4491 72.8511 87.5298 75.2959 79.7867 74.6146C78.5686 74.525 77.3601 74.3336 76.174 74.0423C74.5818 73.653 73.0324 73.2131 71.5374 72.8043C61.587 70.0793 52.9991 67.7435 38.1902 71.7805C20.5045 76.6 16.5609 78.7878 16.2183 78.8346L18.8305 75.9888L15.3657 73.8282C15.4475 73.8282 19.4495 71.6209 36.8433 66.8792C52.9835 62.4841 62.6342 65.1196 72.8533 67.907C74.3326 68.2963 75.8587 68.7284 77.4081 69.1255C78.0088 69.2762 78.6169 69.3957 79.23 69.4836C86.5955 70.5425 97.2622 67.9264 101.665 64.4228C102.128 64.07 102.51 63.6228 102.786 63.1108L102.86 68.561C102.958 68.6428 103.059 68.8491 103.226 69.145Z" fill="#92E3A9"/>
<path opacity="0.2" d="M103.226 69.145C97.4491 72.8511 87.5298 75.2959 79.7867 74.6146C78.5686 74.525 77.3601 74.3336 76.174 74.0423C74.5818 73.653 73.0324 73.2131 71.5374 72.8043C61.587 70.0793 52.9991 67.7435 38.1902 71.7805C20.5045 76.6 16.5609 78.7878 16.2183 78.8346L18.8305 75.9888L15.3657 73.8282C15.4475 73.8282 19.4495 71.6209 36.8433 66.8792C52.9835 62.4841 62.6342 65.1196 72.8533 67.907C74.3326 68.2963 75.8587 68.7284 77.4081 69.1255C78.0088 69.2762 78.6169 69.3957 79.23 69.4836C86.5955 70.5425 97.2622 67.9264 101.665 64.4228C102.128 64.07 102.51 63.6228 102.786 63.1108L102.86 68.561C102.958 68.6428 103.059 68.8491 103.226 69.145Z" fill="black"/>
<path d="M102.07 61.2192C102.07 61.2192 102.159 74.3074 99.5979 77.1337C99.5979 77.1337 82.6985 108.242 73.5928 110.01C65.8808 111.509 37.8008 90.7163 37.8008 90.7163L46.6807 77.0364C46.6807 77.0364 51.5897 79.4267 58.2856 83.0822C63.8136 86.1031 68.5631 89.5251 68.7071 89.272C70.8015 85.5036 79.3427 74.794 79.1753 74.0894C77.3261 66.2529 82.9165 61.2426 82.9165 61.2426L102.07 61.2192Z" fill="#BC4343"/>
<path d="M99.5935 77.1338C99.5935 77.1338 95.4436 84.7796 90.1453 92.7057L79.171 74.0778C77.3296 66.2451 82.9199 61.231 82.9199 61.231H102.073C102.073 61.231 102.155 74.3075 99.5935 77.1338Z" fill="#37474F"/>
<path d="M12.3245 88.1739C12.5775 87.2279 27.3046 65.1314 28.4024 64.6486C28.8151 64.4579 46.6994 77.0361 46.6994 77.0361L37.8273 90.6615L26.4365 83.3193C26.4365 83.3193 17.2568 89.1082 15.9955 89.5131C14.7342 89.9179 12.0675 89.116 12.3245 88.1739Z" fill="#FBE0DA"/>
<path d="M12.3294 88.1744C12.5824 87.2284 27.3056 65.1319 28.3996 64.6491C28.5981 64.5557 34.239 68.3942 37.6064 70.7066L28.4852 84.6629L26.418 83.3354C26.418 83.3354 17.2579 89.1048 15.9965 89.5136C14.7352 89.9223 12.0685 89.1126 12.3294 88.1744Z" fill="#EBEBEB"/>
<path d="M12.2747 88.2754C12.5316 87.3372 27.2042 64.9565 28.2904 64.4699C28.703 64.283 32.0471 66.5254 35.5975 69.3244L26.3828 83.5649C26.3828 83.5649 17.1837 89.2019 15.9341 89.6146C14.6844 90.0272 12.0216 89.2253 12.2747 88.2754Z" fill="#92E3A9"/>
<path d="M13.365 88.5477C15.9149 84.9195 25.8419 70.0444 28.0843 66.2643C28.0843 66.2332 28.0843 66.2176 28.0609 66.2643C25.4604 69.8031 15.6501 84.7599 13.3066 88.5205C13.256 88.5867 13.3143 88.6217 13.365 88.5477Z" fill="#BC4343"/>
<path d="M17.6653 88.719C17.95 88.3163 18.1476 87.8588 18.2454 87.3755C18.3433 86.8922 18.3393 86.3938 18.2337 85.9121C18.0534 85.0432 17.5443 84.2774 16.8128 83.7749C16.8128 83.7749 16.766 83.7983 16.7855 83.8177C17.4331 84.4289 17.8646 85.234 18.0148 86.1117C18.1651 86.9894 18.026 87.8921 17.6186 88.6839C17.603 88.719 17.6459 88.7501 17.6653 88.719Z" fill="#BC4343"/>
<path d="M25.2409 84.472C26.2453 83.0121 26.8642 80.9683 26.2686 79.232C26.2453 79.1658 26.1518 79.197 26.144 79.2554C25.9608 80.9975 25.5915 82.7151 25.0423 84.3785C25.0373 84.4033 25.0407 84.4291 25.052 84.4517C25.0633 84.4744 25.082 84.4925 25.1049 84.5033C25.1278 84.5141 25.1536 84.5168 25.1783 84.5112C25.203 84.5055 25.225 84.4917 25.2409 84.472Z" fill="#BC4343"/>
<path d="M24.0392 85.332C25.0436 83.8721 25.6626 81.8283 25.067 80.0881C25.0436 80.0219 24.9502 80.057 24.9424 80.1154C24.7587 81.8575 24.3894 83.5749 23.8407 85.2385C23.8356 85.2633 23.839 85.2891 23.8503 85.3117C23.8617 85.3344 23.8803 85.3525 23.9032 85.3633C23.9261 85.3741 23.952 85.3769 23.9766 85.3712C24.0013 85.3655 24.0233 85.3517 24.0392 85.332Z" fill="#BC4343"/>
<path d="M22.8364 86.1615C23.8408 84.6978 24.4598 82.6579 23.8641 80.9177C23.8408 80.8515 23.7473 80.8866 23.7396 80.945C23.5558 82.6858 23.1865 84.402 22.6378 86.0642C22.6314 86.0894 22.6338 86.116 22.6446 86.1396C22.6555 86.1632 22.6742 86.1823 22.6975 86.1937C22.7208 86.2052 22.7474 86.2082 22.7727 86.2023C22.798 86.1965 22.8205 86.1821 22.8364 86.1615Z" fill="#BC4343"/>
<path d="M21.6333 87.0058C22.6376 85.542 23.2566 83.4826 22.661 81.7619C22.6376 81.6958 22.5442 81.7308 22.5364 81.7892C22.3527 83.53 21.9834 85.2462 21.4347 86.9085C21.4282 86.9336 21.4306 86.9602 21.4415 86.9838C21.4524 87.0074 21.471 87.0265 21.4944 87.038C21.5177 87.0494 21.5442 87.0524 21.5695 87.0466C21.5948 87.0407 21.6173 87.0263 21.6333 87.0058Z" fill="#BC4343"/>
<path d="M30.9609 69.5346C32.0587 67.8762 29.4816 66.1672 28.3838 67.8295C27.286 69.4918 29.8631 71.1969 30.9609 69.5346Z" fill="#BC4343"/>
<path d="M28.1183 88.6959C29.2395 88.3572 29.2589 87.0102 28.9241 86.1265C28.444 84.9269 27.7202 83.8399 26.7986 82.9343C26.674 82.8019 26.5416 82.6812 26.4093 82.545C26.3483 82.4988 26.2898 82.4494 26.2341 82.397L26.1835 82.3659L26.0394 82.2491C26.0335 82.2451 26.0267 82.2426 26.0197 82.2416C26.0126 82.2407 26.0054 82.2414 25.9987 82.2436C25.9919 82.2459 25.9857 82.2496 25.9807 82.2546C25.9756 82.2596 25.9717 82.2657 25.9694 82.2725C25.9281 82.258 25.8835 82.2555 25.8409 82.2651C25.7982 82.2748 25.7591 82.2962 25.728 82.327C25.71 82.343 25.6958 82.3629 25.6863 82.3851C25.6769 82.4073 25.6725 82.4313 25.6735 82.4554C25.6735 82.8798 25.6735 83.3158 25.6735 83.7518C25.6696 83.827 25.6696 83.9024 25.6735 83.9776C25.6182 85.0392 25.7419 86.1026 26.0394 87.1231C26.3275 88.0029 27.0633 89.0073 28.1183 88.6959ZM26.1718 84.8029C26.1718 84.437 26.1484 84.071 26.1368 83.709C26.1251 83.3469 26.1134 83.0939 26.0978 82.7863C26.0978 82.7435 26.0978 82.6968 26.0978 82.6579C26.0978 82.6189 26.0978 82.5761 26.0978 82.5411L26.1679 82.6267C26.3158 82.8253 26.4599 83.016 26.6117 83.2068C27.0136 83.723 27.3866 84.261 27.729 84.8185C27.9684 85.2034 28.1817 85.604 28.3674 86.0175C28.6399 86.6637 28.9047 88.9372 27.1995 88.0107C26.2652 87.5085 26.2263 85.6905 26.1913 84.7951L26.1718 84.8029Z" fill="#BC4343"/>
<path d="M25.9157 82.6421C25.9155 82.6493 25.917 82.6565 25.92 82.6631C25.923 82.6697 25.9276 82.6755 25.9332 82.6801C25.9389 82.6846 25.9456 82.6877 25.9527 82.6893C25.9598 82.6908 25.9671 82.6906 25.9741 82.6888C26.0208 82.6805 26.0664 82.6674 26.1104 82.6499C26.128 82.6564 26.1473 82.6564 26.1649 82.6499C26.2466 82.6384 26.3265 82.6162 26.4024 82.5837C26.6888 82.5027 26.9686 82.3998 27.2394 82.2761C28.3279 81.8196 29.319 81.1589 30.1591 80.3297C30.8287 79.6562 31.3503 78.4182 30.4627 77.6591C30.4306 77.6323 30.3968 77.6076 30.3615 77.5851C29.5401 76.9895 28.5162 77.5851 27.9206 78.2391C27.3259 78.9403 26.8415 79.7279 26.4841 80.5749C26.2233 81.1628 25.978 81.7428 25.7055 82.3306C25.6879 82.3648 25.6798 82.4031 25.682 82.4414C25.6843 82.4798 25.6968 82.5168 25.7183 82.5487C25.7398 82.5806 25.7695 82.606 25.8042 82.6225C25.839 82.6389 25.8775 82.6457 25.9157 82.6421ZM27.1303 80.4426C27.5196 79.6328 28.2982 77.99 29.3727 77.9004C29.619 77.867 29.8698 77.8978 30.1007 77.99C30.926 78.3793 30.0501 79.7924 29.6257 80.1934C29.2895 80.4998 28.9332 80.7833 28.5591 81.0421C28.2788 81.2406 27.9946 81.4314 27.6948 81.591C27.216 81.8791 26.7255 82.1399 26.2389 82.4163C26.2077 82.4163 26.1805 82.4552 26.1493 82.4669C26.1682 82.4395 26.1826 82.4093 26.1921 82.3774C26.2389 82.2995 26.2778 82.2294 26.3167 82.1477C26.5931 81.5871 26.8501 81.0109 27.1303 80.4426Z" fill="#BC4343"/>
<path d="M159.106 144.541C158.495 145.319 136.18 159.696 134.969 159.723C134.514 159.723 123.146 141.072 123.146 141.072L136.725 132.118L144.239 143.408C144.239 143.408 154.944 141.769 156.26 141.897C157.576 142.026 159.717 143.778 159.106 144.541Z" fill="#FBE0DA"/>
<path d="M159.102 144.541C158.495 145.319 136.176 159.696 134.966 159.723C134.748 159.723 131.108 153.958 128.939 150.493L142.872 141.333L144.235 143.377C144.235 143.377 154.937 141.738 156.256 141.866C157.576 141.995 159.717 143.782 159.102 144.541Z" fill="#EBEBEB"/>
<path d="M159.192 144.466C158.585 145.245 136.204 159.898 135.013 159.91C134.558 159.91 132.389 156.527 130.248 152.544L144.376 143.162C144.376 143.162 155.062 141.656 156.37 141.784C157.678 141.913 159.796 143.703 159.192 144.466Z" fill="#92E3A9"/>
<path d="M158.3 143.781C154.516 146.094 139.481 155.776 135.915 158.345C135.888 158.368 135.915 158.388 135.915 158.368C139.715 156.161 154.676 146.358 158.323 143.844C158.417 143.789 158.382 143.727 158.3 143.781Z" fill="#BC4343"/>
<path d="M154.426 141.909C154.006 142.164 153.644 142.503 153.361 142.905C153.078 143.307 152.882 143.763 152.784 144.245C152.604 145.112 152.765 146.016 153.235 146.767C153.235 146.791 153.29 146.767 153.278 146.74C152.928 145.922 152.852 145.012 153.063 144.147C153.273 143.283 153.759 142.509 154.446 141.944C154.485 141.932 154.454 141.889 154.426 141.909Z" fill="#BC4343"/>
<path d="M145.78 142.781C144.277 143.723 142.887 145.362 142.747 147.18C142.747 147.25 142.841 147.258 142.872 147.203C143.735 145.68 144.76 144.253 145.928 142.948C145.945 142.928 145.955 142.901 145.954 142.874C145.954 142.847 145.944 142.821 145.926 142.801C145.908 142.781 145.883 142.767 145.857 142.764C145.83 142.76 145.802 142.766 145.78 142.781Z" fill="#BC4343"/>
<path d="M147.225 142.485C145.718 143.427 144.333 145.07 144.192 146.884C144.192 146.954 144.286 146.962 144.317 146.911C145.179 145.387 146.202 143.959 147.369 142.652C147.385 142.632 147.393 142.607 147.392 142.581C147.391 142.555 147.382 142.53 147.365 142.51C147.348 142.491 147.325 142.478 147.299 142.473C147.274 142.468 147.248 142.473 147.225 142.485Z" fill="#BC4343"/>
<path d="M148.663 142.193C147.157 143.135 145.771 144.774 145.631 146.592C145.631 146.662 145.724 146.67 145.755 146.615C146.618 145.092 147.641 143.666 148.808 142.36C148.823 142.34 148.831 142.315 148.831 142.289C148.83 142.263 148.82 142.238 148.803 142.218C148.786 142.199 148.763 142.186 148.738 142.181C148.712 142.176 148.686 142.181 148.663 142.193Z" fill="#BC4343"/>
<path d="M150.105 141.897C148.598 142.839 147.212 144.482 147.072 146.296C147.072 146.366 147.166 146.374 147.197 146.323C148.059 144.798 149.082 143.371 150.249 142.064C150.265 142.043 150.273 142.018 150.272 141.992C150.271 141.966 150.262 141.942 150.245 141.922C150.228 141.902 150.205 141.889 150.179 141.885C150.154 141.88 150.128 141.884 150.105 141.897Z" fill="#BC4343"/>
<path d="M134.583 154.199C132.913 155.281 134.583 157.878 136.265 156.792C137.947 155.706 136.253 153.113 134.583 154.199Z" fill="#BC4343"/>
<path d="M144.83 137.763C143.662 137.623 143.113 138.853 143.066 139.799C143.029 141.089 143.259 142.373 143.74 143.571C143.802 143.743 143.876 143.906 143.95 144.066C143.989 144.132 144.02 144.202 144.051 144.268L144.086 144.319L144.172 144.482C144.176 144.488 144.182 144.492 144.188 144.496C144.195 144.499 144.202 144.5 144.209 144.5C144.216 144.5 144.223 144.499 144.23 144.496C144.236 144.492 144.242 144.488 144.246 144.482C144.278 144.513 144.318 144.534 144.362 144.542C144.405 144.55 144.45 144.546 144.491 144.529C144.514 144.521 144.534 144.509 144.552 144.493C144.569 144.477 144.583 144.457 144.592 144.435C144.752 144.046 144.931 143.657 145.106 143.244C145.141 143.178 145.169 143.112 145.2 143.042C145.673 142.089 145.984 141.064 146.118 140.009C146.196 139.114 145.924 137.888 144.83 137.763ZM145.044 142.107C144.912 142.45 144.771 142.789 144.655 143.124C144.538 143.458 144.429 143.7 144.32 143.988C144.32 144.027 144.289 144.073 144.277 144.108L144.238 144.217C144.238 144.182 144.219 144.147 144.211 144.112C144.152 143.875 144.102 143.641 144.04 143.404C143.872 142.771 143.742 142.129 143.65 141.481C143.586 141.032 143.551 140.579 143.545 140.126C143.545 139.425 144.215 137.237 145.406 138.763C146.048 139.589 145.367 141.274 145.044 142.107Z" fill="#BC4343"/>
<path d="M144.437 144.19C144.44 144.183 144.442 144.176 144.442 144.169C144.442 144.161 144.44 144.154 144.436 144.148C144.433 144.141 144.428 144.136 144.422 144.132C144.416 144.127 144.409 144.125 144.402 144.123C144.356 144.118 144.309 144.118 144.262 144.123C144.254 144.119 144.244 144.117 144.235 144.117C144.225 144.117 144.216 144.119 144.208 144.123C144.129 144.104 144.048 144.093 143.966 144.092C143.671 144.051 143.373 144.033 143.075 144.038C141.896 144.019 140.726 144.226 139.626 144.649C138.746 144.999 137.772 145.926 138.282 146.985C138.301 147.022 138.322 147.059 138.345 147.094C138.863 147.966 140.042 147.822 140.844 147.483C141.674 147.074 142.435 146.54 143.102 145.899C143.577 145.467 144.036 145.015 144.507 144.595C144.549 144.574 144.583 144.541 144.604 144.5C144.625 144.458 144.632 144.411 144.624 144.366C144.616 144.32 144.594 144.278 144.56 144.247C144.526 144.215 144.483 144.195 144.437 144.19ZM142.448 145.723C141.759 146.307 140.389 147.503 139.376 147.16C139.137 147.095 138.919 146.967 138.746 146.79C138.138 146.109 139.524 145.155 140.058 144.957C140.488 144.811 140.928 144.694 141.374 144.606C141.708 144.536 142.047 144.485 142.386 144.443C142.942 144.373 143.495 144.33 144.052 144.267H144.157C144.129 144.287 144.103 144.31 144.079 144.334C144.005 144.388 143.943 144.439 143.873 144.497C143.394 144.894 142.931 145.315 142.448 145.723Z" fill="#BC4343"/>
<path d="M137.137 132.538L123.157 141.051C123.157 141.051 108.905 126.091 105.639 113.174C104.654 109.281 88.0155 85.0277 82.4329 78.9507C75.0869 70.9507 82.4913 61.2065 82.4913 61.2065H102.782L102.883 68.5292C104.479 71.1181 137.137 132.538 137.137 132.538Z" fill="#BC4343"/>
<path d="M98.6748 65.0889C99.4608 65.5565 100.208 66.0864 100.909 66.6733C101.62 67.2497 102.283 67.881 102.895 68.5614C102.108 68.0937 101.361 67.5625 100.66 66.9731C99.95 66.398 99.2862 65.768 98.6748 65.0889Z" fill="#37474F"/>
<path d="M95.2266 23.562C94.9775 22.0048 94.6466 20.3659 92.3186 19.6106C87.3239 17.995 83.754 24.8039 77.9885 26.9839C71.0435 29.6234 68.2561 33.8161 71.0824 36.51C74.2396 39.5271 80.1024 37.8453 84.953 29.5027C87.9896 24.29 90.6952 22.9742 91.9409 22.9936C92.8402 22.9936 94.1015 24.8155 94.1015 24.8155L95.2266 23.562Z" fill="#413F3F"/>
<path d="M86.6961 26.6807C86.1549 27.4593 85.7072 28.3196 85.2323 29.1488C84.7574 29.978 84.298 30.815 83.8075 31.6286C83.3169 32.4423 82.7992 33.2442 82.2269 33.9995C81.67 34.7608 81.0388 35.465 80.3427 36.1017C79.6592 36.7434 78.8581 37.247 77.9836 37.5849C77.0862 37.8953 76.1418 38.0481 75.1923 38.0365C74.2319 38.0273 73.2864 37.7983 72.4283 37.3669C71.9944 37.1509 71.5901 36.8801 71.2254 36.561C71.0448 36.4006 70.8745 36.2289 70.7154 36.0472C70.5497 35.8682 70.4107 35.6663 70.3027 35.4476C70.4994 35.9009 70.7869 36.309 71.1475 36.6467C71.4957 36.9996 71.8883 37.3059 72.3154 37.5576C72.751 37.8069 73.215 38.003 73.6974 38.1416C74.181 38.2783 74.6786 38.3593 75.1806 38.3829C75.6786 38.4077 76.1778 38.3856 76.6716 38.3168L77.0415 38.2584L77.4035 38.1844C77.6486 38.1311 77.8904 38.0635 78.1276 37.982C79.059 37.631 79.9132 37.1021 80.6425 36.4248C82.0353 35.0775 83.2037 33.5162 84.1033 31.7999C84.5744 30.959 85.0026 30.1026 85.4192 29.2422C85.8357 28.3819 86.2445 27.5215 86.6961 26.6807Z" fill="#413F3F"/>
<path d="M95.2376 24.0139C95.1911 23.3511 95.0602 22.697 94.8483 22.0674C94.6334 21.4527 94.2812 20.8952 93.8184 20.4371C93.3557 19.9791 92.7945 19.6326 92.1777 19.424C91.8716 19.3199 91.5561 19.2456 91.2356 19.2021C90.9193 19.1496 90.5983 19.1301 90.278 19.1437C89.639 19.193 89.0134 19.3524 88.4288 19.6148C87.8392 19.8915 87.2795 20.2281 86.7587 20.6192C85.6998 21.3978 84.7188 22.3009 83.7027 23.1691C82.691 24.0588 81.6134 24.8709 80.4793 25.5983C79.3156 26.2773 78.1013 26.8656 76.8472 27.3579C75.6051 27.8257 74.3956 28.3758 73.2267 29.0047C72.6445 29.324 72.1055 29.7164 71.6228 30.1725L71.2725 30.519C71.1635 30.6475 71.0661 30.7798 70.961 30.9083L70.8053 31.103L70.6729 31.3132L70.4121 31.7414C70.9899 30.5142 71.923 29.4889 73.0905 28.7983C74.2489 28.1208 75.4505 27.52 76.6876 26.9998C77.9025 26.4761 79.0809 25.8714 80.2146 25.1895C81.3221 24.4678 82.3736 23.6636 83.3601 22.7837C84.3801 21.9272 85.3611 21.0163 86.4745 20.2338C87.0292 19.8319 87.6241 19.4888 88.2497 19.2099C88.8878 18.9342 89.5716 18.7798 90.2663 18.7545C90.614 18.7528 90.961 18.7867 91.3018 18.8557C91.6401 18.9171 91.9723 19.0083 92.2945 19.1282C92.9426 19.3639 93.5249 19.7512 93.9928 20.2578C94.4608 20.7643 94.8008 21.3754 94.9846 22.0401C95.162 22.6827 95.2472 23.3473 95.2376 24.0139Z" fill="#413F3F"/>
<path d="M96.8222 23.6518C96.7754 23.1691 96.355 22.5929 96.0436 22.5462C95.7321 22.4995 93.5443 23.7686 93.4158 24.3837C93.2873 24.9988 94.3774 25.3919 94.3774 25.3919L96.8222 23.6518Z" fill="#92E3A9"/>
<path d="M100.657 40.3759C103.464 34.1472 106.181 29.277 110.389 21.9037C112.577 18.0653 116.384 11.8832 117.362 10.2248C118.65 8.06033 127.853 16.4536 126.814 17.8161C126.136 18.7154 122.278 24.2979 118.553 28.2454C113.768 33.3063 110.237 38.009 104.896 43.2411C100.859 47.2081 98.8038 44.4908 100.657 40.3759Z" fill="#FBE0DA"/>
<path d="M124.225 20.4827C126.534 19.5874 133.537 14.6433 134.697 13.382C135.857 12.1206 138.937 8.18094 138.049 7.19212C137.162 6.20331 136.169 7.27777 136.169 7.27777C136.169 7.27777 137.337 5.25732 136.22 4.50208C135.332 3.90256 133.856 5.34296 133.856 5.34296C133.856 5.34296 135.024 3.06168 133.818 2.45438C132.724 1.89768 131.525 3.85585 131.525 3.85585C131.525 3.85585 132.303 1.84707 131.135 1.52006C129.746 1.13076 128.41 4.59551 127.009 5.91134C126.693 6.2111 117.833 11.56 117.833 11.56L124.225 20.4827Z" fill="#FBE0DA"/>
<path d="M131.47 3.75134C130.197 6.25063 129.597 7.25502 127.429 8.85114C127.386 8.88228 127.429 8.95236 127.468 8.92121C129.738 7.54699 130.536 6.41803 131.598 3.79416C131.649 3.6657 131.532 3.63455 131.47 3.75134Z" fill="#BC4343"/>
<path d="M133.829 5.33919C132.544 7.90076 131.59 8.87011 129.43 10.7154C129.398 10.7426 129.43 10.7932 129.472 10.7699C131.734 9.13873 132.976 8.08763 133.907 5.36254C133.961 5.23797 133.887 5.2224 133.829 5.33919Z" fill="#BC4343"/>
<path d="M136.047 7.37142C134.642 9.76171 133.657 10.9374 131.341 12.4634C131.332 12.4712 131.326 12.4818 131.324 12.4935C131.322 12.5052 131.324 12.5171 131.33 12.5273C131.336 12.5374 131.346 12.5452 131.357 12.5491C131.368 12.5531 131.38 12.5531 131.391 12.5491C133.906 11.2255 135.144 9.7695 136.117 7.42203C136.195 7.26242 136.148 7.2196 136.047 7.37142Z" fill="#BC4343"/>
<path d="M116.15 12.4519C116.15 12.4519 117.104 8.69522 120.67 7.31321C122.107 6.75262 124.119 2.48203 125.447 2.56768C126.93 2.665 125.867 6.53072 124.061 8.60957C124.061 8.60957 126.471 12.4403 124.84 14.5191C124.485 14.9707 121.896 16.3994 121.25 16.2671L116.15 12.4519Z" fill="#FBE0DA"/>
<path d="M123.952 8.88574C124.945 10.3456 125.634 12.5607 124.929 14.1724C124.924 14.1817 124.923 14.1927 124.926 14.2029C124.929 14.2131 124.936 14.2217 124.945 14.2269C124.954 14.2321 124.965 14.2333 124.975 14.2304C124.986 14.2275 124.994 14.2206 124.999 14.2113C125.992 12.588 125.213 10.0147 124.252 8.76117C124.065 8.5237 123.695 8.51202 123.952 8.88574Z" fill="#BC4343"/>
<path d="M103.377 58.0112L102.77 61.219H82.916C82.916 61.219 86.0304 44.9503 93.2908 40.123C96.9268 37.7094 100.244 38.7682 101.855 41.4778C102.264 42.1629 106.418 49.3416 106.301 52.7674C106.192 55.8195 103.377 58.0112 103.377 58.0112Z" fill="#FBE0DA"/>
<path d="M106.305 52.7831C106.2 55.6288 103.712 57.7388 103.405 57.9919L84.0488 56.6877C84.5004 55.1072 85.0844 53.2541 85.8279 51.3427C87.7511 51.4119 89.6766 51.3247 91.5856 51.0818C92.4304 50.9222 94.3107 48.1076 96.7166 48.3957C99.1224 48.6838 101.528 51.0818 101.528 51.0818C102.584 49.9515 103.953 49.1614 105.46 48.8122C105.974 50.2955 106.344 51.7242 106.305 52.7831Z" fill="#BC4343"/>
<path d="M101.86 41.474C101.757 41.2989 101.644 41.1299 101.521 40.9679C102.093 42.6263 103.176 46.2818 101.782 46.6439C100.252 47.0332 96.4018 41.0653 95.2105 39.1538C94.5352 39.3982 93.892 39.7237 93.2952 40.1232C87.7243 43.7631 83.0566 56.9097 82.4844 61.2075H102.775L103.378 57.9997C103.378 57.9997 106.193 55.8079 106.305 52.7714C106.422 49.3417 102.268 42.1631 101.86 41.474ZM94.2957 49.4351C93.2679 51.658 90.9282 53.3826 89.371 53.1724C88.098 52.9972 87.5024 51.2687 88.0085 49.0614C88.8805 45.3008 92.5905 39.7572 94.2801 39.8896C96.2188 40.0414 96.0008 45.7329 94.2957 49.4351Z" fill="#455A64"/>
<path d="M96.9589 55.3173C98.0454 55.5022 99.1136 55.7823 100.151 56.1543C100.669 56.349 101.171 56.5747 101.677 56.8083C101.926 56.929 102.179 57.0341 102.456 57.1392C102.716 57.2595 102.993 57.3408 103.277 57.3806C103.301 57.3806 103.297 57.4273 103.277 57.4273C103.009 57.4267 102.74 57.4046 102.475 57.3611C102.218 57.3057 101.966 57.2315 101.72 57.1392C101.194 56.9485 100.677 56.7266 100.163 56.528C99.1039 56.1387 98.0489 55.7494 96.9706 55.4224C96.8888 55.4107 96.9083 55.3056 96.9589 55.3173Z" fill="#BC4343"/>
<path d="M94.2029 56.3138C95.1037 56.2535 96.0076 56.2535 96.9085 56.3138C97.3601 56.3488 97.8039 56.415 98.2516 56.4929C98.4618 56.5318 98.6759 56.5746 98.8861 56.6213C99.0963 56.6681 99.3455 56.7615 99.5791 56.8082C99.6063 56.8082 99.6024 56.8588 99.5791 56.8549C99.3572 56.816 99.1275 56.8277 98.9056 56.8043L98.2321 56.742C97.7844 56.7031 97.3367 56.6681 96.8851 56.6213C95.9897 56.5279 95.0943 56.4501 94.1951 56.3956C94.1445 56.3994 94.1561 56.3138 94.2029 56.3138Z" fill="#BC4343"/>
<path d="M84.3481 54.519C86.2725 54.6234 88.201 54.6234 90.1253 54.519C93.8353 54.266 98.0203 53.5925 98.1059 53.647C98.2616 53.7482 105.573 53.5769 105.573 53.5769L106.137 53.8961L106.227 53.5068L105.724 53.2343C105.902 52.676 105.942 52.083 105.841 51.5058C105.67 50.591 104.284 46.8343 104.245 46.7292C104.206 46.6241 101.808 41.1934 101.777 41.1622C101.746 41.1311 101.52 40.9637 101.52 40.9637L103.91 46.7603C103.122 46.9344 102.322 47.0502 101.516 47.1068C100.533 47.0596 99.5537 46.9622 98.5809 46.8148C98.5809 46.8148 96.868 42.3145 96.5954 41.8513C96.3229 41.388 95.3964 39.0795 95.303 39.1262C95.2148 39.1555 95.1251 39.1802 95.0344 39.2002C95.0344 39.2002 96.4358 42.7038 96.6383 43.062C96.8407 43.4201 98.1487 47.0756 98.1487 47.0756C98.1487 47.0756 98.429 50.1277 98.4407 50.6766C98.3668 51.489 98.2446 52.2963 98.0748 53.0942C98.0748 53.0942 93.9093 53.7054 90.2304 54.0207C87.1628 54.2893 84.4766 54.2738 84.4377 54.2738C84.3988 54.2738 84.3481 54.519 84.3481 54.519Z" fill="white"/>
<path d="M100.461 48.6837L100.637 52.4365C100.637 52.635 100.539 52.7907 100.407 52.7985C100.275 52.8063 100.162 52.6584 100.154 52.4598L100.006 49.3455L99.8386 49.4973C99.8077 49.532 99.7643 49.553 99.7179 49.5557C99.6697 49.552 99.6236 49.5341 99.5855 49.5044C99.5474 49.4746 99.519 49.4342 99.5038 49.3883C99.465 49.311 99.4498 49.224 99.4602 49.1381C99.4706 49.0523 99.5061 48.9714 99.5622 48.9056L100.076 48.415C100.076 48.415 100.076 48.415 100.099 48.415H100.123C100.123 48.415 100.123 48.415 100.142 48.415C100.152 48.4111 100.163 48.4111 100.173 48.415H100.232C100.232 48.415 100.251 48.415 100.259 48.415H100.278C100.278 48.415 100.298 48.4345 100.306 48.4345C100.312 48.436 100.319 48.436 100.325 48.4345V48.454C100.325 48.454 100.325 48.454 100.345 48.4773C100.364 48.5007 100.345 48.4773 100.345 48.5046L100.364 48.5279C100.364 48.5279 100.364 48.5474 100.364 48.5591C100.364 48.5708 100.364 48.5863 100.364 48.5902C100.365 48.6006 100.365 48.611 100.364 48.6214C100.358 48.6364 100.358 48.653 100.364 48.6681L100.461 48.6837Z" fill="#BC4343"/>
<path d="M101.922 48.6137L102.101 52.3704C102.101 52.565 102.003 52.7246 101.871 52.7324C101.739 52.7402 101.626 52.5884 101.614 52.3899L101.47 49.2755L101.299 49.4312C101.284 49.4481 101.266 49.4617 101.246 49.4711C101.226 49.4805 101.204 49.4855 101.182 49.4857C101.133 49.4836 101.087 49.4664 101.048 49.4363C101.01 49.4063 100.982 49.3651 100.968 49.3183C100.928 49.2415 100.912 49.1546 100.922 49.0686C100.931 48.9827 100.966 48.9015 101.022 48.8356L101.54 48.3489C101.54 48.3489 101.54 48.3489 101.56 48.3489H101.587C101.597 48.3457 101.608 48.3457 101.618 48.3489H101.684C101.689 48.3471 101.693 48.3462 101.698 48.3462C101.703 48.3462 101.707 48.3471 101.711 48.3489C101.711 48.3489 101.731 48.3489 101.739 48.3489L101.758 48.3684L101.778 48.3957C101.779 48.4034 101.779 48.4113 101.778 48.419L101.797 48.4424C101.797 48.4424 101.797 48.4424 101.797 48.4618C101.799 48.4721 101.799 48.4827 101.797 48.493C101.798 48.5033 101.798 48.5138 101.797 48.5241C101.797 48.5241 101.797 48.5475 101.797 48.5553C101.794 48.5694 101.794 48.584 101.797 48.5981L101.922 48.6137Z" fill="#BC4343"/>
<path d="M104.441 48.6295L103.526 52.4447C103.495 52.577 103.413 52.6588 103.312 52.6627C103.28 52.6654 103.247 52.6586 103.219 52.6432C103.153 52.5901 103.104 52.5195 103.077 52.4395C103.05 52.3595 103.046 52.2735 103.067 52.1916L103.845 48.8826L102.72 48.9332C102.588 48.9332 102.471 48.7775 102.463 48.5867C102.456 48.396 102.557 48.2325 102.685 48.2286L104.184 48.1585C104.198 48.1549 104.213 48.1549 104.227 48.1585C104.261 48.1677 104.293 48.1836 104.32 48.2052V48.2247C104.323 48.2322 104.323 48.2405 104.32 48.248L104.34 48.2714V48.2986C104.34 48.309 104.34 48.3194 104.34 48.3298V48.3609C104.34 48.3609 104.34 48.3843 104.34 48.3921C104.338 48.4024 104.338 48.4129 104.34 48.4232C104.344 48.4698 104.344 48.5167 104.34 48.5634C104.445 48.5906 104.445 48.6101 104.441 48.6295Z" fill="#BC4343"/>
<path d="M96.6934 39.3957C96.7673 39.8356 98.6632 42.7865 100.656 42.8215C101.303 42.8215 101.517 39.2945 101.517 39.2945L101.591 39.0336L102.642 35.4287L98.5192 32.3883L97.9196 31.999C97.9196 31.999 97.6977 33.0034 97.433 34.2608C97.433 34.3192 97.4097 34.3776 97.3941 34.4399C97.3785 34.5022 97.363 34.5762 97.3513 34.6424C97.3085 34.8292 97.2656 35.0317 97.2267 35.2107C97.1878 35.3898 97.1683 35.4988 97.1449 35.6506C97.1216 35.8025 97.0904 35.9543 97.0593 36.11C96.8637 37.1958 96.7415 38.2935 96.6934 39.3957Z" fill="#FBE0DA"/>
<path d="M97.4336 34.2531C97.7381 35.3039 98.2677 36.2759 98.9857 37.1014C99.7037 37.927 100.593 38.5863 101.591 39.0336L102.642 35.4287L98.5197 32.3883L97.9202 31.999C97.9202 31.999 97.6983 32.9956 97.4336 34.2531Z" fill="#413F3F"/>
<path d="M105.702 26.9572C108.929 32.711 105.846 35.2921 104.604 35.985C103.479 36.6157 99.5429 38.6206 95.759 33.2327C91.975 27.8448 93.61 24.5241 96.1132 22.9474C98.6164 21.3708 102.474 21.2073 105.702 26.9572Z" fill="#FBE0DA"/>
<path d="M104.126 26.4865C103.985 26.5412 103.841 26.5868 103.694 26.6227C103.547 26.6927 103.381 26.7118 103.223 26.6772C103.175 26.6571 103.135 26.6217 103.11 26.5766C103.085 26.5315 103.075 26.4793 103.083 26.4281C103.114 26.3309 103.17 26.2437 103.246 26.1754C103.322 26.107 103.415 26.0599 103.515 26.0388C103.713 25.963 103.932 25.963 104.13 26.0388C104.172 26.0596 104.207 26.0918 104.231 26.1316C104.255 26.1714 104.268 26.2172 104.268 26.2638C104.267 26.3105 104.254 26.3561 104.229 26.3955C104.204 26.4348 104.168 26.4664 104.126 26.4865Z" fill="#413F3F"/>
<path d="M100.36 28.6312C100.484 28.5424 100.601 28.4449 100.711 28.3392C100.85 28.2559 100.957 28.1284 101.014 27.9772C101.024 27.9258 101.016 27.8727 100.991 27.8267C100.966 27.7807 100.926 27.7445 100.878 27.7241C100.779 27.6947 100.674 27.6929 100.573 27.719C100.473 27.7451 100.382 27.798 100.31 27.8721C100.136 27.9955 100.016 28.1808 99.975 28.3898C99.9684 28.4375 99.9757 28.486 99.996 28.5295C100.016 28.5731 100.049 28.6098 100.09 28.6353C100.13 28.6609 100.178 28.674 100.226 28.6733C100.274 28.6726 100.32 28.658 100.36 28.6312Z" fill="#413F3F"/>
<path d="M103.514 32.5119C103.652 32.5868 103.811 32.6116 103.965 32.5819C104.117 32.509 104.25 32.4025 104.355 32.2705C104.355 32.2705 104.386 32.2705 104.382 32.2705C104.365 32.3766 104.32 32.4761 104.251 32.559C104.183 32.6418 104.093 32.7048 103.993 32.7416C103.9 32.7595 103.803 32.7495 103.716 32.7128C103.629 32.6761 103.554 32.6143 103.502 32.5352C103.463 32.5274 103.49 32.5041 103.514 32.5119Z" fill="#413F3F"/>
<path d="M104.363 30.1806C104.363 30.1806 104.772 30.7217 104.923 30.9981C104.923 31.0214 104.881 31.0721 104.787 31.1304C104.573 31.3066 104.314 31.4202 104.039 31.4587C103.765 31.4972 103.484 31.459 103.23 31.3485C103.224 31.344 103.22 31.3381 103.218 31.3313C103.216 31.3246 103.216 31.3174 103.218 31.3107C103.221 31.3039 103.225 31.298 103.23 31.2936C103.236 31.2893 103.242 31.2867 103.249 31.2862C103.735 31.3315 104.223 31.2181 104.639 30.9631C104.616 30.8774 103.911 30.0599 103.954 30.0326C104.179 29.9324 104.416 29.863 104.659 29.8263C103.845 28.6584 102.852 27.6618 102.058 26.5056C102.051 26.4972 102.048 26.4865 102.049 26.4758C102.05 26.465 102.055 26.455 102.062 26.4476C102.07 26.4402 102.081 26.4361 102.091 26.436C102.102 26.436 102.113 26.4399 102.12 26.4472C103.218 27.4984 104.208 28.6565 105.075 29.9042C105.184 30.0521 104.515 30.165 104.363 30.1806Z" fill="#413F3F"/>
<path d="M104.465 31.2197C104.421 31.4763 104.312 31.7174 104.149 31.9205C104.056 32.0277 103.933 32.1038 103.795 32.1385C103.495 32.2085 103.359 31.9711 103.297 31.7492C103.262 31.6223 103.245 31.4913 103.246 31.3599C103.657 31.4457 104.084 31.3965 104.465 31.2197Z" fill="#BC4343"/>
<path d="M104.147 31.9132C104.055 32.0204 103.931 32.0965 103.793 32.1312C103.493 32.2013 103.357 31.9638 103.295 31.7419C103.436 31.6716 103.596 31.6503 103.751 31.6814C103.905 31.7124 104.045 31.7939 104.147 31.9132Z" fill="#FF9CBD"/>
<path d="M101.178 29.9541C101.177 30.0091 101.165 30.0634 101.143 30.1138C101.128 30.1557 101.105 30.1939 101.074 30.2256C101.043 30.2573 101.005 30.2816 100.964 30.2967C100.707 30.3979 100.469 30.1955 100.325 29.9541C100.325 29.9541 100.325 29.923 100.325 29.9308C100.493 30.0048 100.679 30.0748 100.808 29.9814C100.889 29.8988 100.944 29.7948 100.968 29.6816C101.028 29.7792 101.099 29.8705 101.178 29.9541Z" fill="#413F3F"/>
<path d="M101.011 29.9547C100.962 29.8311 100.949 29.6963 100.972 29.5654C100.988 29.4962 101.017 29.4309 101.059 29.3733C101.1 29.3158 101.153 29.2672 101.213 29.2306C101.278 29.1981 101.349 29.1812 101.422 29.1812C101.494 29.1812 101.565 29.1981 101.63 29.2306C101.744 29.2844 101.844 29.3644 101.922 29.4642C101.968 29.5231 102.01 29.5856 102.047 29.6511C102.127 29.7863 102.175 29.9381 102.187 30.0949C102.135 29.9945 102.074 29.8993 102.004 29.8107C101.939 29.7308 101.869 29.6554 101.794 29.5849C101.642 29.4447 101.459 29.3591 101.326 29.4447C101.252 29.4939 101.197 29.5671 101.17 29.6521C101.143 29.7371 101.146 29.8288 101.178 29.9119C101.228 30.1234 101.298 30.3294 101.389 30.527C101.219 30.369 101.09 30.1728 101.011 29.9547Z" fill="#413F3F"/>
<path d="M104.725 27.7475C104.773 27.7737 104.824 27.7933 104.877 27.8059C104.92 27.816 104.965 27.8167 105.009 27.808C105.053 27.7993 105.094 27.7813 105.13 27.7553C105.225 27.6627 105.284 27.539 105.295 27.4068C105.307 27.2745 105.27 27.1426 105.192 27.0351C105.192 27.0351 105.169 27.0078 105.165 27.0351C105.134 27.218 105.091 27.4244 104.943 27.4672C104.83 27.4914 104.712 27.4805 104.604 27.436C104.657 27.5348 104.697 27.6394 104.725 27.7475Z" fill="#413F3F"/>
<path d="M104.811 27.6109C104.734 27.5091 104.632 27.4286 104.515 27.3773C104.449 27.3525 104.378 27.3415 104.307 27.3448C104.236 27.3482 104.167 27.3659 104.103 27.3968C104.039 27.431 103.984 27.4793 103.943 27.5381C103.901 27.5968 103.873 27.6643 103.861 27.7355C103.842 27.8662 103.854 27.9996 103.896 28.1248C103.924 28.1949 103.955 28.2649 103.986 28.3311C104.057 28.4719 104.16 28.5945 104.286 28.6893C104.226 28.5916 104.179 28.487 104.146 28.3778C104.112 28.2814 104.086 28.1825 104.068 28.082C104.037 27.8756 104.068 27.6927 104.208 27.6148C104.29 27.5797 104.381 27.5736 104.467 27.5977C104.552 27.6218 104.627 27.6746 104.679 27.7472C104.826 27.9034 104.956 28.0743 105.068 28.2571C105.036 28.0242 104.948 27.8025 104.811 27.6109Z" fill="#413F3F"/>
<path d="M98.5737 23.4336C98.9673 23.8678 99.221 24.4104 99.3017 24.9908C99.364 26.6414 97.5927 27.1281 97.324 27.9339C97.0554 28.7398 97.7795 29.6118 97.5771 30.3437C97.2929 31.3558 96.6038 31.0989 96.7401 31.6089C96.8764 32.1189 97.3318 33.7305 96.8491 34.2211C96.3664 34.7116 88.6232 26.4351 96.3819 22.7679C96.3819 22.7679 97.2034 21.7246 99.2472 21.7597C102.179 21.8103 104.125 24.6015 104.125 24.6015C103.835 24.6797 103.531 24.6956 103.234 24.6482C102.7 24.5198 102.389 24.3718 102.011 24.3018C101.416 24.1967 101.279 24.5665 100.672 24.4769C99.7338 24.3329 98.5737 23.4336 98.5737 23.4336Z" fill="#413F3F"/>
<path d="M98.3321 23.1304C98.6493 23.4461 98.9289 23.7975 99.1652 24.1776C99.4178 24.5352 99.5673 24.9554 99.5973 25.3922C99.5676 25.83 99.3777 26.2416 99.064 26.5484C98.772 26.8715 98.3944 27.1168 98.0869 27.4788C97.9273 27.6637 97.821 27.8884 97.7793 28.1289C97.7604 28.3656 97.7881 28.6037 97.8611 28.8297C98.0211 29.2339 98.0668 29.6742 97.9934 30.1027C97.9398 30.3093 97.8426 30.5019 97.7083 30.6678C97.574 30.8337 97.4057 30.9688 97.2148 31.0643C96.8255 31.2667 96.3506 31.3796 96.0664 31.7455C96.3817 31.4029 96.845 31.3562 97.2577 31.1577C97.474 31.0661 97.6675 30.9279 97.8243 30.753C97.9811 30.578 98.0973 30.3706 98.1647 30.1455C98.2669 29.69 98.2317 29.2145 98.0635 28.7791C98.001 28.5777 97.9773 28.3664 97.9934 28.1562C98.0344 27.9536 98.1285 27.7655 98.2659 27.6112C98.5385 27.2803 98.9161 27.0233 99.2236 26.6769C99.3828 26.505 99.5141 26.3093 99.6129 26.0968C99.7213 25.8838 99.7735 25.6466 99.7647 25.4078C99.7159 24.9456 99.5393 24.5061 99.2548 24.1386C98.9889 23.7666 98.6792 23.4281 98.3321 23.1304Z" fill="#413F3F"/>
<path d="M98.6748 23.3984C98.9411 23.724 99.2501 24.0121 99.5935 24.2549C99.9427 24.5158 100.361 24.6675 100.796 24.6909C101.009 24.6886 101.22 24.6651 101.427 24.6208C101.615 24.5882 101.807 24.6084 101.984 24.6792C102.163 24.7891 102.352 24.8816 102.548 24.9556C102.754 25.013 102.969 25.0223 103.179 24.9829C102.975 24.9805 102.774 24.9368 102.587 24.8544C102.402 24.7662 102.226 24.6593 102.062 24.5352C101.86 24.4294 101.63 24.3899 101.404 24.4223C101.206 24.4599 101.005 24.4794 100.804 24.4807C100.405 24.449 100.02 24.3149 99.687 24.0914C99.3354 23.8819 98.9973 23.6505 98.6748 23.3984Z" fill="#413F3F"/>
<path d="M97.0793 32.9912C97.0793 32.9912 94.9849 31.6053 94.3075 32.4267C93.6301 33.2481 95.7284 35.6228 96.9002 35.5995C97.0503 35.6068 97.2003 35.5837 97.3412 35.5316C97.4821 35.4794 97.611 35.3993 97.7201 35.296C97.8293 35.1927 97.9163 35.0684 97.9761 34.9305C98.0359 34.7927 98.0672 34.6441 98.0681 34.4939L97.0793 32.9912Z" fill="#FBE0DA"/>
<path d="M94.9256 33.0926C94.9062 33.0926 94.9256 33.1237 94.9256 33.1237C95.7548 33.1237 96.3933 33.6454 96.9305 34.2254C96.8606 34.1702 96.7796 34.1308 96.693 34.1099C96.6064 34.0891 96.5163 34.0873 96.4289 34.1047C96.3415 34.1221 96.259 34.1583 96.187 34.2107C96.1149 34.2631 96.0552 34.3306 96.0118 34.4084C96.0118 34.4318 96.0118 34.4512 96.0468 34.4396C96.1556 34.3523 96.2885 34.3003 96.4276 34.2906C96.5667 34.2809 96.7055 34.3138 96.8254 34.3851C97.0273 34.51 97.2152 34.6562 97.386 34.8211C97.4444 34.8717 97.5456 34.7899 97.4911 34.7276C97.1524 33.7933 95.9495 32.7967 94.9256 33.0926Z" fill="#413F3F"/>
<path d="M106.461 28.5649C106.875 29.3946 107.126 30.2959 107.201 31.2199C107.24 31.6851 107.22 32.1534 107.142 32.6136C107.104 32.8449 107.052 33.0737 106.987 33.2988C106.913 33.5231 106.826 33.7428 106.726 33.9567C106.52 34.3793 106.258 34.7722 105.947 35.1246C105.628 35.4664 105.266 35.7648 104.869 36.0122C104.077 36.4987 103.177 36.7822 102.249 36.8375C102.698 36.756 103.137 36.6255 103.557 36.4482C104.395 36.1212 105.145 35.6041 105.749 34.9377C106.043 34.6047 106.289 34.2326 106.481 33.8321C106.865 33.0228 107.042 32.1303 106.995 31.2355C106.985 30.7842 106.934 30.3346 106.843 29.8924C106.751 29.4406 106.623 28.9968 106.461 28.5649Z" fill="#413F3F"/>
<path d="M91.9643 45.2658C91.8709 45.114 91.7774 44.9621 91.6801 44.8103C92.2874 45.4254 92.9181 46.0093 93.5721 46.5738C93.5721 46.5738 93.611 46.5738 93.5955 46.5505C92.9531 45.8108 92.2991 45.0867 91.6178 44.3821C91.2947 44.0512 90.9833 43.7086 90.6485 43.3855C90.3137 43.0624 89.8699 42.6809 89.5273 42.2993C89.4845 42.2526 89.4105 42.2993 89.4533 42.3577C89.792 42.7198 90.0957 43.113 90.4227 43.4906C90.7497 43.8682 91.0066 44.129 91.3103 44.4366C91.3677 44.5566 91.4314 44.6736 91.501 44.787C91.6178 44.9699 91.7346 45.149 91.8631 45.3242C92.12 45.6707 92.3925 46.0093 92.6417 46.348C92.4159 46.0132 92.1862 45.6239 91.9643 45.2658Z" fill="#BC4343"/>
<path d="M94.5565 39.8312C91.5783 33.2131 89.0829 28.4364 84.6177 20.6077C82.2819 16.5317 79.3466 11.6538 78.3072 9.89419C76.9408 7.59344 67.1694 16.485 68.275 17.9526C68.9913 18.9103 71.366 22.0013 75.5587 26.9688C80.3393 32.6253 84.388 37.3319 90.0601 42.891C94.3423 47.0838 96.5263 44.1991 94.5565 39.8312Z" fill="#FBE0DA"/>
<path d="M70.6909 20.1715C68.2384 19.2216 60.8067 13.9895 59.5726 12.6308C58.3385 11.2722 55.0723 7.11448 56.0144 6.06338C56.9565 5.01228 58.0115 6.15292 58.0115 6.15292C58.0115 6.15292 56.7736 4.00789 57.957 3.20594C58.8991 2.56749 60.4641 4.09743 60.4641 4.09743C60.4641 4.09743 59.2339 1.676 60.5069 1.02976C61.6748 0.441924 62.9439 2.51688 62.9439 2.51688C62.9439 2.51688 62.1186 0.387422 63.3332 0.0331611C64.8087 -0.38728 66.2374 3.30326 67.7128 4.70473C68.0476 5.02395 77.4453 10.6999 77.4453 10.6999L70.6909 20.1715Z" fill="#FBE0DA"/>
<path d="M62.9952 2.41183C64.3499 5.06684 64.9884 6.12573 67.2774 7.82696C67.3203 7.8581 67.2774 7.93207 67.2307 7.90093C64.821 6.44106 63.9762 5.24202 62.8472 2.45076C62.8083 2.3184 62.9329 2.28336 62.9952 2.41183Z" fill="#BC4343"/>
<path d="M60.4966 4.09365C61.8397 6.81874 62.8713 7.84259 65.1682 9.80076C65.1993 9.82801 65.1682 9.8864 65.1214 9.86304C62.7234 8.12678 61.3998 7.00949 60.4148 4.11701C60.3526 3.98854 60.4343 3.96908 60.4966 4.09365Z" fill="#BC4343"/>
<path d="M58.1253 6.25019C59.6163 8.78841 60.6635 10.0381 63.1239 11.6575C63.1344 11.6656 63.1417 11.6772 63.1442 11.6903C63.1468 11.7033 63.1446 11.7168 63.1379 11.7283C63.1312 11.7398 63.1205 11.7484 63.1079 11.7526C63.0953 11.7568 63.0816 11.7562 63.0694 11.751C60.3988 10.3456 59.0829 8.7962 58.0513 6.3008C57.9812 6.1334 58.0318 6.09058 58.1253 6.25019Z" fill="#BC4343"/>
<path d="M79.2636 11.6457C79.2636 11.6457 78.2514 7.65542 74.4674 6.19556C72.9375 5.60382 70.8003 1.06851 69.4066 1.15805C67.8494 1.26316 68.9589 5.36635 70.8781 7.57367C70.8781 7.57367 68.3165 11.6379 70.0606 13.8491C70.4499 14.328 73.175 15.8423 73.8679 15.7061L79.2636 11.6457Z" fill="#FBE0DA"/>
<path d="M70.9807 7.86186C69.9296 9.41905 69.1938 11.7548 69.9451 13.4716C69.9508 13.482 69.9522 13.4941 69.9489 13.5054C69.9456 13.5167 69.9379 13.5263 69.9276 13.532C69.9173 13.5377 69.9051 13.539 69.8938 13.5357C69.8825 13.5324 69.873 13.5248 69.8673 13.5145C68.8162 11.7899 69.6415 9.057 70.6653 7.7295C70.86 7.47256 71.2532 7.47256 70.9807 7.86186Z" fill="#BC4343"/>
<path d="M102.786 62.0874C98.0679 59.8412 84.5515 55.2514 75.3174 53.0207C67.0526 51.0314 58.5114 53.9005 50.2544 56.6723C45.0339 58.4241 40.1054 60.0787 35.3248 60.5186C16.5646 62.247 10.4371 48.9175 10.0205 48.3491L13.4853 49.2134L14.0965 45.3438C14.4468 45.8187 19.0327 56.937 34.8655 55.4655C39.0582 55.0762 43.7142 53.519 48.6466 51.8606C57.1683 48.9993 66.8268 45.7564 76.5047 48.0844C86.0775 50.3852 100.766 54.9594 104.203 57.2056L102.786 62.0874Z" fill="#92E3A9"/>
<path d="M37.2329 160.038L40.8689 159.365V159.392C40.0728 158.564 39.425 157.605 38.9536 156.558C38.717 156.03 38.5848 155.462 38.5643 154.884C38.5504 154.297 38.7311 153.722 39.0782 153.249C39.2489 153.015 39.4491 152.805 39.6738 152.622C39.8974 152.436 40.1417 152.277 40.4018 152.147C40.9247 151.897 41.496 151.764 42.0758 151.758C43.2354 151.761 44.3742 152.066 45.3809 152.642L45.2836 152.704C45.2236 151.829 45.2812 150.951 45.4549 150.092C45.6175 149.227 45.9425 148.402 46.4125 147.659C46.7729 147.101 47.2433 146.624 47.7949 146.255C48.3466 145.886 48.9677 145.634 49.6204 145.514C50.0612 145.441 50.512 145.454 50.9479 145.552C51.8112 145.768 52.6115 146.184 53.2836 146.767C53.9534 147.33 54.5627 147.962 55.1017 148.651C56.1713 150.031 57.0852 151.524 57.8267 153.105H57.6632C57.8861 152.587 58.2942 152.17 58.8078 151.937C59.3087 151.712 59.8552 151.606 60.4039 151.629C61.493 151.653 62.5555 151.971 63.4793 152.548C64.3871 153.128 65.2065 153.836 65.9125 154.65C66.6265 155.452 67.2663 156.318 67.8239 157.235L67.7733 157.204L136.761 160.011L67.7694 157.325H67.7383V157.298C67.1831 156.388 66.5445 155.531 65.8307 154.74C65.1315 153.939 64.3198 153.244 63.421 152.677C62.5187 152.116 61.4817 151.809 60.4195 151.789C59.8956 151.768 59.3741 151.871 58.8973 152.089C58.4274 152.303 58.0541 152.685 57.8501 153.159L57.7722 153.346L57.6866 153.167C56.9425 151.604 56.0286 150.127 54.9615 148.764C54.4344 148.083 53.8367 147.459 53.1785 146.903C52.5329 146.336 51.7637 145.929 50.9323 145.712C50.5031 145.613 50.0586 145.6 49.6242 145.673C49.2052 145.748 48.798 145.879 48.4135 146.062C47.6376 146.432 46.9798 147.01 46.5138 147.733C46.0526 148.46 45.733 149.269 45.5717 150.115C45.3981 150.96 45.3365 151.824 45.3887 152.684V152.805L45.2836 152.747C44.2994 152.179 43.1848 151.875 42.0485 151.867C41.4829 151.876 40.926 152.009 40.4174 152.256C39.9117 152.506 39.4707 152.87 39.1288 153.319C38.7968 153.769 38.6217 154.317 38.6305 154.876C38.6425 155.443 38.7642 156.002 38.9886 156.523C39.4474 157.568 40.0806 158.528 40.8612 159.361L40.8845 159.384H40.8534L37.2329 160.038Z" fill="#BC4343"/>
<path d="M83.2001 59.0037C81.2536 59.0816 79.3071 59.1205 77.3607 59.1516C75.4142 59.1828 73.4677 59.1828 71.5212 59.1984C69.5747 59.2139 67.6282 59.1984 65.6817 59.1516L62.7581 59.0971C61.7849 59.066 60.8116 59.0465 59.8384 59.0037C60.8116 58.9609 61.7849 58.9414 62.7581 58.9064L65.6817 58.8519C67.6282 58.8207 69.5747 58.8246 71.5212 58.8091C73.4677 58.7935 75.4142 58.8091 77.3607 58.8558C79.3071 58.9025 81.2497 58.922 83.2001 59.0037Z" fill="#BC4343"/>
<path d="M113.278 12.8605C111.331 12.9384 109.385 12.9773 107.438 13.0085C105.492 13.0396 103.545 13.0357 101.599 13.0513C99.6523 13.0669 97.7059 13.0513 95.7594 13.0085L92.8357 12.954C91.8625 12.9228 90.8892 12.9034 89.9121 12.8605C90.8892 12.8138 91.8586 12.7944 92.8357 12.7632L95.7594 12.7087C97.7059 12.6776 99.6523 12.6776 101.599 12.6659C103.545 12.6542 105.492 12.6659 107.438 12.7087C109.385 12.7515 111.327 12.7788 113.278 12.8605Z" fill="#BC4343"/>
<path d="M116.345 15.2197C115.068 15.3015 113.795 15.3365 112.518 15.3676C111.242 15.3988 109.969 15.4105 108.696 15.4144C107.423 15.4183 106.142 15.4144 104.869 15.3715L102.957 15.317C102.323 15.282 101.684 15.2664 101.046 15.2197C101.684 15.1769 102.323 15.1574 102.957 15.1263L104.873 15.0718C106.146 15.0367 107.423 15.029 108.699 15.0251C109.976 15.0212 111.249 15.0251 112.522 15.0718C113.795 15.1185 115.068 15.1419 116.345 15.2197Z" fill="#BC4343"/>
<path d="M32.9339 87.3563C31.2249 87.4341 29.512 87.473 27.803 87.5042C26.094 87.5353 24.381 87.5353 22.672 87.5509C20.963 87.5665 19.2501 87.5509 17.5372 87.5042L14.9756 87.4497C14.1192 87.4185 13.2627 87.3991 12.4102 87.3563C13.2627 87.3134 14.1192 87.294 14.9756 87.2589L17.5411 87.2044C19.254 87.1733 20.963 87.1772 22.6759 87.1616C24.3888 87.146 26.0979 87.1616 27.8069 87.2083C29.5159 87.255 31.2249 87.2784 32.9339 87.3563Z" fill="#BC4343"/>
<path d="M44.243 83.849C42.5301 83.9268 40.821 83.9658 39.1081 83.9969C37.3952 84.0281 35.6862 84.0281 33.9772 84.0436C32.2682 84.0592 30.5553 84.0436 28.8424 83.9969L26.2769 83.9424C25.4204 83.9113 24.5679 83.8918 23.7114 83.849C24.5679 83.8023 25.4204 83.7867 26.2769 83.7517L28.8424 83.6972C30.5553 83.666 32.2643 83.6699 33.9772 83.6543C35.6901 83.6388 37.3991 83.6543 39.1081 83.6972C40.8172 83.74 42.5301 83.775 44.243 83.849Z" fill="#BC4343"/>
<path d="M86.7088 64.0145C83.9838 64.0962 81.2587 64.1313 78.5336 64.1624L70.3583 64.2091L62.1831 64.1663L58.1033 64.1118C56.7407 64.0768 55.3782 64.0612 54.0195 64.0145C55.3821 63.9717 56.7446 63.9522 58.1033 63.921L62.1831 63.8665L70.3583 63.8198L78.5336 63.8665C81.2704 63.8977 83.9876 63.921 86.7088 64.0145Z" fill="#BC4343"/>
<path d="M128.483 153.031C126.513 153.113 124.543 153.148 122.573 153.179C120.603 153.21 118.63 153.21 116.66 153.226C114.69 153.241 112.72 153.226 110.75 153.179L107.792 153.124C106.807 153.093 105.822 153.074 104.837 153.031C105.822 152.988 106.807 152.969 107.792 152.934L110.75 152.879C112.72 152.852 114.69 152.852 116.66 152.836C118.63 152.821 120.603 152.836 122.573 152.883C124.543 152.93 126.513 152.949 128.483 153.031Z" fill="#BC4343"/>
<path d="M122.757 155.573C119.974 155.655 117.186 155.694 114.403 155.725L106.045 155.768L97.6903 155.725L93.5131 155.67C92.1194 155.639 90.7296 155.62 89.3359 155.573C90.7296 155.53 92.1194 155.511 93.5131 155.48L97.6903 155.425L106.045 155.378L114.403 155.425C117.186 155.456 119.974 155.495 122.757 155.573Z" fill="#BC4343"/>
<path d="M70.0123 60.9042C67.6766 60.982 65.3135 61.021 62.9661 61.0521C60.6186 61.0832 58.2672 61.0793 55.9198 61.0988C53.5723 61.1183 51.221 61.0988 48.8696 61.0521L45.3465 60.9976C44.1786 60.9665 43.0107 60.947 41.8428 60.9042C43.0107 60.8574 44.1786 60.838 45.3465 60.8068L48.8696 60.7523C51.2054 60.7212 53.5684 60.7251 55.9198 60.7095C58.2711 60.6939 60.6147 60.7095 62.9661 60.7523C65.3174 60.7952 67.6649 60.8068 70.0123 60.9042Z" fill="#BC4343"/>
</svg>
