<svg width="322" height="155" viewBox="0 0 322 155" fill="none" xmlns="http://www.w3.org/2000/svg">
<path d="M0 153.52L40.2501 153.4L80.4998 153.356L161 153.274L241.5 153.356L281.75 153.399L322 153.52L281.75 153.641L241.5 153.684L161 153.766L80.4998 153.684L40.2501 153.64L0 153.52Z" fill="#343826"/>
<path d="M147.193 60.3555C147.194 60.4735 147.37 60.4597 147.374 60.3447C147.537 54.7368 153.057 51.0041 152.871 45.2949C152.79 42.7879 151.782 40.3598 150.377 38.3113C149.444 36.9509 148.287 35.7771 147.188 34.5559C147.037 34.3491 146.886 34.1433 146.737 33.9369C145.789 32.6274 144.852 31.2917 144.151 29.8296C143.343 28.1424 142.995 26.3491 142.805 24.503C142.448 20.9905 142.324 17.4138 139.867 14.6308C137.818 12.3083 134.856 10.9534 131.888 10.2307C125.169 8.59487 117.175 9.7751 112.722 15.5311C111.933 16.5544 111.315 17.6704 110.875 18.8758C110.875 18.8758 106.964 21.7205 105.784 26.3003C104.746 30.3316 107.439 33.6373 107.19 35.6478C106.972 37.4199 105.89 38.9352 105.172 40.5345C104.435 41.8969 103.702 43.2677 103.181 44.7164C102.452 46.7462 102.524 48.9136 103.028 50.9883C103.479 52.8492 104.266 54.6701 105.549 56.112C106.789 57.5049 108.416 58.313 110.181 58.8377C110.603 58.9631 111.026 59.0776 111.449 59.1891C111.46 59.1956 111.47 59.202 111.482 59.2084C112.963 60.0233 114.566 60.6275 115.977 61.5688C117.573 62.6395 118.567 64.1312 119.099 65.9664C119.583 67.6264 119.744 69.3585 120.117 71.0437C120.465 72.6208 121.051 74.1086 121.967 75.4423C123.763 78.0649 126.504 79.9238 129.509 80.8943C133.014 82.0256 136.849 81.9925 140.437 81.2827C143.673 80.6474 146.726 79.2416 148.54 76.3742C150.1 73.9131 150.601 70.7555 149.755 67.9542C149.239 66.2493 148.197 64.7798 147.378 63.218C146.551 61.635 146.095 59.9769 146.328 58.1866C147.076 52.4059 152.647 47.9343 151.178 41.7454C150.8 40.1555 150.046 38.7141 149.16 37.3458C150.812 39.3657 152.066 41.7706 152.403 44.3798C152.78 47.2906 151.716 49.8539 150.288 52.3274C148.855 54.8093 147.15 57.3766 147.193 60.3555ZM110.453 58.6215C107.991 57.8426 105.967 56.5083 104.687 54.2165C103.378 51.8718 102.667 48.847 103.113 46.1825C103.336 44.8527 103.911 43.6295 104.48 42.4196C104.496 42.3866 104.511 42.3535 104.526 42.3204C104.289 43.164 104.134 44.0303 104.061 44.9045C103.828 47.7048 104.406 50.5539 105.658 53.0649C106.785 55.3256 108.459 57.27 110.562 58.6541C110.526 58.6432 110.489 58.6328 110.453 58.6215Z" fill="#343826"/>
<path d="M132.115 61.6795C144.805 83.8407 164.648 120.729 168.069 127.481C170.391 132.063 145.205 146.676 144.094 143.329C142.673 139.044 128.536 89.4501 124.982 66.5712C123.215 55.1924 128.291 55.0024 132.115 61.6795Z" fill="#D3766A"/>
<path d="M143.347 139.516C144.007 143.686 147.05 152.037 149.196 153.27C151.342 154.502 162.431 153.959 168.025 153.825C173.618 153.69 174.681 152.104 174.543 150.181C174.405 148.258 162.659 148.174 162.659 148.174C162.659 148.174 178.443 152.289 182.403 152.927C186.364 153.565 195.503 155.639 196.738 152.336C197.295 150.848 194.772 149.417 194.772 149.417C194.772 149.417 198.611 150.438 199.171 148.529C199.809 146.355 196.751 145.241 196.751 145.241C196.751 145.241 199.144 145.663 199.156 143.905C199.184 139.974 184.23 138.403 184.23 138.403C184.23 138.403 195.778 143.685 196.067 140.47C196.468 136.022 172.957 131.72 170.475 129.844C167.992 127.969 166.457 125.123 166.457 125.123L143.347 139.516Z" fill="#D3766A"/>
<path d="M174.483 151.159C174.537 150.572 174.327 150.028 173.915 149.675C173.521 149.31 173.039 149.044 172.531 148.824C171.511 148.389 170.408 148.106 169.301 147.861C167.083 147.354 164.814 147.014 162.55 146.486C164.872 146.395 167.192 146.597 169.476 147.097C170.61 147.365 171.752 147.689 172.803 148.278C173.327 148.565 173.827 148.938 174.207 149.427C174.584 149.922 174.718 150.617 174.483 151.159Z" fill="#343826"/>
<path d="M194.771 149.418C193.148 149.063 191.548 148.646 189.949 148.225C188.349 147.813 186.762 147.357 185.171 146.918L180.414 145.553C178.828 145.096 177.242 144.646 175.641 144.21C177.3 144.324 178.936 144.631 180.559 144.967C182.186 145.296 183.788 145.721 185.385 146.163C186.976 146.622 188.561 147.1 190.124 147.649C191.689 148.191 193.247 148.755 194.771 149.418Z" fill="#343826"/>
<path d="M179.333 140.204C180.858 140.247 182.371 140.456 183.871 140.72C185.374 140.974 186.856 141.338 188.322 141.752C189.785 142.18 191.235 142.656 192.641 143.248C194.056 143.814 195.431 144.481 196.751 145.241C195.297 144.778 193.88 144.259 192.435 143.815C190.995 143.363 189.557 142.912 188.105 142.506C186.661 142.077 185.201 141.698 183.742 141.307C182.28 140.924 180.812 140.567 179.333 140.204Z" fill="#343826"/>
<path d="M181.549 136.406C184.014 136.494 186.436 137.029 188.784 137.752C191.127 138.493 193.411 139.468 195.483 140.8C193.145 140.03 190.871 139.213 188.549 138.501C186.236 137.763 183.906 137.102 181.549 136.406Z" fill="#343826"/>
<path d="M102.642 111.953C102.642 111.953 103.388 120.368 104.492 132.545V132.551C104.526 132.902 104.559 133.258 104.592 133.615C105.133 139.595 105.751 146.405 106.403 153.538H144.651C141.909 132.104 139.541 113.635 139.34 112.064C139.329 111.991 139.323 111.952 139.323 111.952L102.642 111.953Z" fill="#0C5A29"/>
<path d="M77.891 153.539H116.312C116.323 153.383 116.334 153.26 116.34 153.16C116.351 152.998 116.362 152.915 116.362 152.915C116.563 152.803 116.763 152.692 116.97 152.586C119.099 151.427 120.966 150.524 122.504 149.839C122.766 149.722 123.017 149.61 123.261 149.499C123.958 149.198 124.582 148.941 125.101 148.741C126.432 148.211 127.174 147.977 127.174 147.977C127.218 147.866 127.257 147.76 127.296 147.649C132.54 134.301 135.7 113.959 135.996 112.064C136.007 111.964 136.012 111.919 136.012 111.919H84.3163C84.3163 111.919 72.631 135.02 77.891 153.539Z" fill="#0C5A29"/>
<path d="M84.3174 111.92L139.341 112.065L136.388 93.5799C136.388 93.5799 140.559 87.3505 139.865 80.7164C139.171 74.0896 124.617 55.822 123.473 54.8402C118.873 50.9042 113.926 51.4743 110.849 53.1462C92.6727 63.0243 84.3174 111.92 84.3174 111.92Z" fill="#0C5A29"/>
<path d="M124.545 91.3586C121.687 91.6775 118.82 92.0956 116.036 92.8345C114.652 93.2022 113.293 93.6317 111.937 94.0917C111.261 94.3208 110.582 94.5271 109.898 94.7295C109.196 94.9378 108.442 95.1328 107.707 95.1624C107.64 95.1653 107.643 95.2641 107.709 95.2651C108.425 95.2789 109.109 95.2892 109.823 95.2073C110.5 95.1293 111.174 94.9788 111.835 94.8099C113.242 94.4501 114.633 94.0256 116.037 93.6514C118.87 92.8967 121.701 92.1434 124.583 91.5946C124.715 91.5699 124.68 91.3438 124.545 91.3586Z" fill="#343826"/>
<path d="M131.66 93.8389C129.305 93.6197 126.904 93.5097 124.539 93.559C123.349 93.5837 122.17 93.677 120.987 93.8024C120.422 93.8621 119.859 93.9317 119.296 94.0087C118.677 94.0931 118.068 94.2609 117.448 94.336C117.384 94.3439 117.384 94.4446 117.451 94.4386C118.038 94.3853 118.636 94.4288 119.225 94.4095C119.817 94.3903 120.409 94.3661 121.001 94.3468C122.186 94.3078 123.371 94.2817 124.556 94.2313C126.929 94.1301 129.291 94.0536 131.665 94.0344C131.794 94.0329 131.782 93.8503 131.66 93.8389Z" fill="#343826"/>
<path d="M115.875 51.8689C112.248 52.2396 113.651 58.7824 117.22 64.1267C120.21 68.6043 126.784 75.1358 127.872 74.7004C128.961 74.265 128.505 61.4257 125.373 57.9778C122.241 54.5304 117.941 51.6576 115.875 51.8689Z" fill="#D3766A"/>
<path d="M115.139 54.8165C115.126 55.9345 118.491 64.0362 123.38 64.9948C124.973 65.3043 127.05 56.6858 127.05 56.6858L127.349 56.0846L131.524 47.666L122.708 38.3876L121.414 37.1284C121.414 37.1284 120.423 39.5071 119.219 42.4811C119.163 42.6189 119.106 42.7566 119.048 42.9047C118.975 43.071 118.904 43.2275 118.844 43.3859C118.659 43.8277 118.471 44.2799 118.293 44.7345C118.157 45.0795 118.022 45.4147 117.893 45.7819C117.752 46.1477 117.625 46.5046 117.484 46.8703C116.183 50.5033 115.151 54.3431 115.139 54.8165Z" fill="#D3766A"/>
<path d="M119.221 42.4816C120.034 50.1958 124.989 54.4744 127.35 56.0851L131.525 47.6665L122.709 38.3881L121.415 37.1289C121.415 37.1289 120.424 39.5076 119.221 42.4816Z" fill="#343826"/>
<path d="M146.964 34.4237C146.801 50.9148 136.906 52.68 133.349 52.641C130.121 52.6055 119.134 52.0748 117.591 35.6553C116.049 19.2353 123.768 14.0978 131.155 13.7878C138.543 13.4783 147.126 17.9327 146.964 34.4237Z" fill="#D3766A"/>
<path d="M144.456 31.4881C144.07 31.4388 143.722 31.3287 143.345 31.2398C142.919 31.1401 142.57 31.1041 142.259 30.7704C142.092 30.5917 142.11 30.2324 142.268 30.0542C142.638 29.639 143.19 29.6316 143.706 29.7308C144.268 29.8385 144.672 30.0655 145.039 30.5024C145.394 30.9264 144.966 31.5533 144.456 31.4881Z" fill="#343826"/>
<path d="M132.999 30.9547C133.387 30.9143 133.737 30.8126 134.116 30.7326C134.544 30.6428 134.894 30.6151 135.212 30.2889C135.383 30.1141 135.374 29.7543 135.22 29.5726C134.861 29.1486 134.309 29.1289 133.79 29.2157C133.226 29.31 132.816 29.5272 132.44 29.9557C132.075 30.3718 132.488 31.008 132.999 30.9547Z" fill="#343826"/>
<path d="M135.394 34.1552C135.385 34.1123 135.307 34.2095 135.309 34.2554C135.358 35.3774 135.225 36.6717 134.214 37.0562C134.182 37.068 134.186 37.1243 134.224 37.1189C135.461 36.9298 135.62 35.2111 135.394 34.1552Z" fill="#343826"/>
<path d="M134.378 32.9944C132.57 32.8784 132.471 36.502 134.146 36.6096C135.794 36.7153 135.893 33.0917 134.378 32.9944Z" fill="#343826"/>
<path d="M133.66 33.167C133.338 33.3635 133.018 33.7169 132.635 33.7441C132.193 33.7757 131.87 33.3872 131.591 33.0145C131.562 32.976 131.53 33.0066 131.528 33.0545C131.499 33.7485 131.746 34.4682 132.487 34.5921C133.164 34.7051 133.668 34.1039 133.86 33.4104C133.897 33.2815 133.79 33.0876 133.66 33.167Z" fill="#343826"/>
<path d="M142.084 33.7926C142.095 33.7501 142.17 33.8489 142.167 33.8948C142.092 35.0158 142.195 36.312 143.197 36.7207C143.228 36.7335 143.223 36.7898 143.185 36.7829C141.952 36.5647 141.833 34.8425 142.084 33.7926Z" fill="#343826"/>
<path d="M143.128 32.6559C144.938 32.5823 144.952 36.2074 143.276 36.2756C141.626 36.3427 141.611 32.7176 143.128 32.6559Z" fill="#343826"/>
<path d="M143.883 32.891C144.17 33.082 144.455 33.43 144.797 33.4512C145.193 33.4754 145.486 33.0825 145.737 32.7054C145.763 32.6664 145.792 32.6965 145.794 32.7444C145.815 33.4374 145.589 34.1596 144.924 34.2953C144.317 34.4192 143.869 33.8264 143.701 33.1368C143.67 33.009 143.768 32.814 143.883 32.891Z" fill="#343826"/>
<path d="M135.535 43.6361C135.784 43.918 136.026 44.2986 136.43 44.3623C136.817 44.4235 137.287 44.2808 137.654 44.1683C137.691 44.1574 137.724 44.1974 137.699 44.2295C137.377 44.6382 136.746 44.8623 136.233 44.734C135.732 44.6086 135.513 44.152 135.424 43.6791C135.411 43.613 135.499 43.5952 135.535 43.6361Z" fill="#343826"/>
<path d="M140.293 39.6515C140.293 39.6515 140.499 41.3323 140.487 42.123C140.485 42.1971 140.293 42.2292 140.025 42.241C140.012 42.245 140.004 42.2499 139.994 42.2415C138.594 42.4375 137.194 41.9335 136.364 40.7799C136.31 40.7019 136.412 40.6215 136.483 40.6723C137.514 41.4542 138.663 41.6699 139.901 41.7099C139.96 41.4917 139.453 38.8435 139.579 38.8361C140.012 38.806 140.859 39.1135 141.369 39.2709C141.042 35.7579 140.155 32.3258 139.882 28.8227C139.875 28.6973 140.055 28.6627 140.09 28.7748C141.274 32.3061 141.738 36.3409 142.169 39.96C142.227 40.4107 140.608 39.7907 140.293 39.6515Z" fill="#343826"/>
<path d="M118.008 35.5443C120.668 36.1189 121.959 29.9749 121.959 29.9749C121.959 29.9749 127.418 30.7365 130.291 23.13C130.291 23.13 129.674 26.7689 126.988 29.2932C126.988 29.2932 136.849 30.1807 142.004 22.6758C142.004 22.6758 139.826 26.5596 138.111 27.8124C138.111 27.8124 142.303 27.2368 144.72 24.2268C144.72 24.2268 145.771 29.1076 146.894 30.5697C146.894 30.5697 148.796 13.6674 132.943 13.3288C132.943 13.3288 123.082 12.6437 118.516 19.9003C113.951 27.1569 118.008 35.5443 118.008 35.5443Z" fill="#343826"/>
<path d="M117.183 34.5017C117.417 36.7817 113.893 25.8279 114.152 24.2513C114.412 22.6752 118.522 15.3446 125.59 12.9674C131.51 10.9761 138.065 13.8391 139.206 14.3529C141.364 15.3248 142.553 16.7983 142.553 16.7983C142.553 16.7983 133.973 13.0192 126.082 14.2098C122.278 14.7838 116.31 25.9627 117.183 34.5017Z" fill="#0C5A29"/>
<path d="M122.85 11.8708C122.85 11.8708 125.231 7.41738 129.555 6.65771C129.555 6.65771 129.648 10.9862 128.204 12.5031C127.487 13.2578 124.093 13.7633 123.659 13.2208C123.224 12.6783 122.85 11.8708 122.85 11.8708Z" fill="#0C5A29"/>
<path opacity="0.1" d="M122.851 11.8729C122.851 11.8729 123.227 12.6755 123.657 13.215C123.671 13.2368 123.695 13.2605 123.73 13.2767C123.753 13.3004 123.788 13.3167 123.831 13.335C123.859 13.3404 123.884 13.3552 123.92 13.3621C124.32 13.4895 125.051 13.4668 125.812 13.3454C125.682 12.7718 125.472 12.0309 125.229 11.5002C125.019 11.0427 124.433 10.67 123.855 10.3936C123.187 11.2322 122.851 11.8729 122.851 11.8729Z" fill="#050400"/>
<path d="M121.823 12.5281C121.823 12.5281 115.7 11.9644 112.863 13.4581C112.863 13.4581 114.647 16.5209 117.731 17.1172C119.113 17.3843 122.945 14.6684 122.686 13.968C122.427 13.2671 121.823 12.5281 121.823 12.5281Z" fill="#0C5A29"/>
<path opacity="0.1" d="M120.432 12.4453C120.355 13.0154 120.344 13.825 120.663 14.4459C120.839 14.7929 121.162 15.1128 121.521 15.3927C122.271 14.8067 122.781 14.2391 122.686 13.9646C122.429 13.2706 121.822 12.5263 121.822 12.5263C121.822 12.5263 121.276 12.473 120.432 12.4453Z" fill="#050400"/>
<path d="M121.273 13.941C121.84 14.8872 123.066 15.1948 124.013 14.6276C124.959 14.0604 125.267 12.8338 124.7 11.8876C124.133 10.9413 122.906 10.6338 121.96 11.2009C121.013 11.7676 120.706 12.9947 121.273 13.941Z" fill="#0C5A29"/>
<path d="M120.3 36.07C120.3 36.07 117.213 30.5993 114.764 31.6522C112.316 32.705 114.291 40.393 116.923 41.673C119.554 42.9529 120.787 40.5406 120.787 40.5406L120.3 36.07Z" fill="#D3766A"/>
<path d="M115.386 33.8421C115.342 33.8337 115.328 33.8949 115.364 33.9137C117.203 34.8742 118.039 36.746 118.567 38.6543C118.066 37.8912 117.329 37.4282 116.314 38.0136C116.261 38.0442 116.302 38.1271 116.356 38.1207C117.157 38.0289 117.709 38.2194 118.178 38.8987C118.51 39.3794 118.712 39.9663 118.931 40.5059C119.004 40.6855 119.322 40.6238 119.276 40.4205C119.272 40.4057 119.268 40.3899 119.264 40.3751C119.548 37.9391 117.982 34.3411 115.386 33.8421Z" fill="#343826"/>
<path d="M101.788 61.8248C89.1548 78.6496 78.6384 98.1749 81.1124 110.488C82.765 118.712 95.6626 113.329 96.7263 112.713C107.966 106.208 109.764 80.4459 112.058 65.5634C114.335 50.7882 106.441 55.628 101.788 61.8248Z" fill="#D3766A"/>
<path d="M82.5845 113.048C88.1416 118.349 99.2034 117.097 126.996 114.422C130.842 114.052 134.722 87.2568 130.594 87.4414C125.395 87.6734 105.272 89.7001 103.819 90.0343C91.5648 92.8519 79.1277 109.751 82.5845 113.048Z" fill="#D3766A"/>
<path d="M126.937 89.3759C126.937 89.3759 135.982 84.2863 141.562 83.0834C149.034 81.4727 156.148 83.1579 159.086 84.0444C165.22 85.8945 178.772 94.6087 176.943 98.9495C175.287 102.879 161.885 93.272 161.885 93.272C161.885 93.272 177.166 100.812 174.303 105.177C171.44 109.542 156.516 97.5052 156.516 97.5052C156.516 97.5052 172.043 105.605 168.379 109.639C165.609 112.688 151.478 102.547 151.478 102.547C151.478 102.547 164.776 109.601 162.063 112.859C159.065 116.459 145.434 107.917 145.434 107.917C137.143 115.037 130.283 115.037 125.403 114.455C124.222 114.314 126.937 89.3759 126.937 89.3759Z" fill="#D3766A"/>
<path d="M156.768 90.3255C158.595 91.1464 160.45 91.9648 162.197 92.9451C163.946 93.9255 165.661 94.968 167.309 96.1062C171.353 98.8991 173.449 101.28 173.303 101.147C169.863 98.0022 163.661 94.3959 161.912 93.4151C160.168 92.4367 158.473 91.3705 156.728 90.3907C156.684 90.366 156.724 90.3063 156.768 90.3255Z" fill="#343826"/>
<path d="M153.113 96.5724C155.401 97.7215 157.714 98.7783 159.952 100.029C162.179 101.273 164.182 102.648 166.317 104.043C166.481 104.15 166.37 104.203 166.2 104.102C164.011 102.794 161.886 101.754 159.682 100.471C157.486 99.1939 155.322 97.8207 153.081 96.6247C153.047 96.6059 153.079 96.5551 153.113 96.5724Z" fill="#343826"/>
<path d="M149.012 101.37C152.598 102.947 155.889 105.184 159.064 107.455C159.221 107.568 159.07 107.621 158.902 107.515C155.598 105.429 153.022 103.769 148.956 101.495C148.893 101.46 148.936 101.337 149.012 101.37Z" fill="#343826"/>
<path d="M108.319 89.312C106.25 89.9483 104.18 90.5456 102.134 91.1892C101.115 91.5209 100.094 91.8423 99.1098 92.2327C98.1123 92.6079 97.1991 93.0408 96.3283 93.64C95.4448 94.2077 94.5982 94.8533 93.7729 95.5251C92.9392 96.188 92.142 96.8983 91.3434 97.6091C89.7712 99.0589 88.244 100.562 86.8584 102.224C87.9098 100.324 89.3116 98.6334 90.8068 97.0583C92.3197 95.494 93.9491 94.0384 95.7893 92.8132C96.706 92.2016 97.7554 91.708 98.787 91.3566C99.8271 91.0036 100.87 90.6961 101.927 90.4483C104.035 89.9379 106.165 89.547 108.319 89.312Z" fill="#343826"/>
<path d="M131.264 87.1157C132.553 86.3298 133.9 85.6417 135.269 85.002C136.638 84.3588 138.047 83.8001 139.495 83.339C139.859 83.2304 140.221 83.1154 140.592 83.028C140.959 82.9288 141.33 82.841 141.709 82.7758C142.463 82.6307 143.231 82.5729 143.979 82.5394C145.485 82.4639 146.999 82.3819 148.507 82.5196C147.753 82.5468 147.003 82.6119 146.255 82.6904C145.506 82.7561 144.758 82.8326 144.01 82.918C143.258 83.0078 142.519 83.0661 141.799 83.2344C141.436 83.3069 141.074 83.3918 140.715 83.494C140.354 83.5829 139.999 83.7003 139.642 83.8094C138.215 84.2512 136.815 84.7922 135.42 85.3485C134.722 85.6279 134.028 85.9172 133.339 86.2187C132.642 86.506 131.957 86.8165 131.264 87.1157Z" fill="#343826"/>
<path d="M140.356 111.549C141.248 111.006 142.115 110.427 142.94 109.794C143.773 109.173 144.569 108.505 145.308 107.784L145.406 107.688L145.532 107.761C146.95 108.577 148.379 109.389 149.844 110.123C151.31 110.854 152.785 111.569 154.302 112.177C155.06 112.483 155.83 112.757 156.61 112.987C157.388 113.226 158.179 113.426 158.981 113.52C159.779 113.609 160.607 113.598 161.342 113.29C161.692 113.113 162.021 112.866 162.24 112.529C162.455 112.199 162.543 111.756 162.362 111.378C162.578 111.736 162.54 112.216 162.33 112.582C162.124 112.953 161.793 113.242 161.426 113.459C160.66 113.855 159.779 113.889 158.952 113.833C157.279 113.699 155.68 113.19 154.138 112.596C152.593 112.002 151.089 111.313 149.629 110.54C148.17 109.767 146.726 108.973 145.337 108.073L145.561 108.051C144.775 108.753 143.946 109.401 143.074 109.983C142.198 110.557 141.3 111.099 140.356 111.549Z" fill="#343826"/>
<path d="M202.855 153.541H243.461C244.245 145.008 244.993 136.819 245.627 129.746V129.74C245.663 129.366 245.699 128.992 245.734 128.613V128.607C245.93 126.417 246.114 124.352 246.286 122.418C246.327 122.032 246.363 121.646 246.393 121.267C246.422 120.964 246.452 120.667 246.475 120.371C247.223 112.069 247.686 106.8 247.686 106.8H208.842C208.842 106.8 208.837 106.841 208.831 106.912C208.807 107.114 208.742 107.571 208.658 108.253H208.652C208.611 108.633 208.552 109.078 208.486 109.595C208.474 109.695 208.456 109.808 208.445 109.921C208.433 109.974 208.433 110.028 208.421 110.087C208.415 110.146 208.409 110.212 208.397 110.277C208.397 110.283 208.391 110.289 208.391 110.295C208.095 112.627 207.661 116.021 207.121 120.205C207.103 120.371 207.08 120.531 207.056 120.697C207.038 120.852 207.021 121.006 207.003 121.166C206.991 121.243 206.979 121.327 206.967 121.41C206.795 122.798 206.605 124.264 206.404 125.795C206.338 126.335 206.267 126.875 206.202 127.427C206.148 127.818 206.095 128.216 206.047 128.614C206.041 128.661 206.029 128.714 206.029 128.768C206.012 128.881 206 128.994 205.982 129.1C205.852 130.115 205.721 131.147 205.585 132.204C205.567 132.363 205.543 132.536 205.519 132.702C205.46 133.177 205.395 133.657 205.335 134.15C204.754 138.701 204.125 143.608 203.472 148.706C203.436 148.991 203.401 149.282 203.359 149.572C203.194 150.882 203.028 152.206 202.855 153.541Z" fill="#343826"/>
<path d="M237.581 153.541H238.174C239.189 143.951 240.079 134.351 240.928 124.743C240.946 124.494 240.969 124.239 240.993 123.996C240.993 123.996 240.993 123.99 240.993 123.984C240.993 123.984 240.993 123.984 240.993 123.978C241.005 123.806 241.023 123.634 241.034 123.462C241.1 122.731 241.165 122.002 241.23 121.266V121.26C241.254 120.981 241.278 120.702 241.295 120.423C241.539 117.587 241.782 114.745 242.02 111.902C242.026 111.807 241.877 111.807 241.865 111.902C241.58 114.661 241.295 117.409 241.017 120.168V120.198C241.011 120.275 241.005 120.346 240.993 120.423C240.904 121.355 240.809 122.275 240.72 123.212C240.708 123.343 240.69 123.473 240.684 123.604C240.637 124.037 240.596 124.464 240.548 124.897C239.587 134.457 238.626 143.999 237.581 153.541Z" fill="#37474F"/>
<path d="M214.45 106.799L214.492 107.043L214.498 107.108L214.652 108.087L214.67 108.254V108.259L214.949 110.064L216.527 120.472L216.86 122.667L217.019 123.718L217.767 128.631L217.809 128.928L218.284 132.025L219.025 136.933L219.684 141.253V141.259L219.862 142.422V142.434L220.331 145.531V145.543L220.367 145.757L220.491 146.593V146.599L221.411 152.646L221.547 153.542H248.879C250.184 146.142 251.448 138.998 252.581 132.619C252.623 132.369 252.665 132.138 252.706 131.9V131.895C253.466 127.599 254.16 123.664 254.771 120.246C254.883 119.582 255.002 118.929 255.115 118.3C255.174 117.938 255.24 117.582 255.299 117.238C256.444 110.764 257.151 106.8 257.151 106.8H214.45V106.799Z" fill="#37474F"/>
<path d="M208.806 106.764C208.806 106.764 208.812 106.812 208.829 106.913C208.859 107.132 208.93 107.595 209.037 108.254H209.043C209.079 108.509 209.126 108.8 209.18 109.126C209.204 109.256 209.227 109.405 209.251 109.547C209.263 109.589 209.269 109.63 209.275 109.678C209.275 109.696 209.281 109.713 209.286 109.737C209.31 109.898 209.34 110.063 209.369 110.242C209.791 112.704 210.438 116.277 211.292 120.383C211.435 121.066 211.583 121.766 211.737 122.472C211.915 123.297 212.099 124.139 212.295 124.988C212.592 126.276 212.9 127.593 213.232 128.922C213.292 129.177 213.357 129.432 213.422 129.688C213.707 130.815 213.998 131.948 214.312 133.082C215.404 137.105 216.657 141.086 218.039 144.605V144.611C218.08 144.73 218.122 144.837 218.169 144.955C218.169 144.955 218.709 145.122 219.694 145.495C219.896 145.572 220.122 145.662 220.365 145.757C220.798 145.923 221.296 146.13 221.848 146.362C221.996 146.427 222.15 146.492 222.311 146.558C222.572 146.683 222.833 146.801 223.112 146.925H223.118C224.75 147.655 226.726 148.611 228.981 149.833C229.194 149.946 229.408 150.065 229.621 150.183C229.621 150.183 229.627 150.272 229.639 150.438V150.444C229.675 150.913 229.758 151.981 229.876 153.542H268.269C266.993 140.677 265.783 128.649 264.905 120.015C264.655 117.523 264.43 115.315 264.24 113.446C264.234 113.411 264.228 113.369 264.228 113.334C264.223 113.268 264.217 113.203 264.205 113.138C264.181 112.912 264.163 112.687 264.14 112.473C263.772 108.848 263.558 106.765 263.558 106.765H208.806V106.764Z" fill="#343826"/>
<path d="M259.213 112.757C259.278 113.558 259.338 114.359 259.397 115.161C259.421 115.457 259.445 115.76 259.468 116.062C259.569 117.421 259.67 118.786 259.777 120.151C260.62 131.283 261.45 142.415 262.34 153.541H262.862C261.925 142.409 261.023 131.272 260.127 120.139C260.014 118.727 259.901 117.309 259.783 115.891C259.759 115.594 259.735 115.291 259.718 114.989C259.652 114.247 259.599 113.506 259.539 112.764C259.522 112.556 259.202 112.556 259.213 112.757Z" fill="#37474F"/>
<path d="M216.212 143.939C220.855 145.537 225.335 147.805 229.62 150.184C229.788 150.277 229.677 150.537 229.495 150.459C224.978 148.52 220.373 146.664 215.968 144.478C215.623 144.307 215.856 143.817 216.212 143.939Z" fill="#37474F"/>
<path d="M214.777 112.947C214.789 112.791 215.064 112.756 215.062 112.925C215.026 118.287 215.368 123.005 215.819 128.016C216.029 130.342 217.901 143.199 221.935 142.262C222.61 142.105 222.955 141.44 223.061 140.422C223.189 139.198 222.728 137.696 222.526 136.479C222.078 133.788 221.718 131.088 221.488 128.368C221.056 123.293 221.034 118.218 221.651 113.159C221.672 112.992 221.912 113.005 221.912 113.173C221.906 120.199 222.089 127.211 223.14 134.17C223.645 137.513 225.329 142.548 221.832 143.063C218.268 143.587 215.965 135.154 215.53 132.847C214.316 126.41 214.268 119.461 214.777 112.947Z" fill="#37474F"/>
<path d="M221.827 142.608C222.192 143.471 222.485 144.37 222.735 145.273C222.928 145.974 223.192 146.732 223.112 147.464C223.096 147.605 222.908 147.62 222.832 147.523C222.359 146.923 222.159 146.103 221.895 145.391C221.588 144.568 221.263 143.749 220.98 142.916C220.792 142.364 221.602 142.075 221.827 142.608Z" fill="#37474F"/>
<path d="M240.082 117.154C240.126 116.602 240.08 116.014 240.254 115.484C240.281 115.402 240.391 115.411 240.416 115.488C240.57 115.946 240.556 116.451 240.605 116.93C240.662 117.483 240.734 118.035 240.794 118.589C240.915 119.718 241.108 120.847 241.385 121.948C241.913 124.044 242.943 125.945 244.465 127.483C245.949 128.984 247.738 130.093 249.675 130.914C251.842 131.832 254.122 132.174 256.36 132.831C256.454 132.859 256.427 132.994 256.333 132.997C253.924 133.071 251.333 132.433 249.095 131.572C247.088 130.8 245.178 129.638 243.661 128.105C242.088 126.517 241.026 124.581 240.493 122.411C240.222 121.306 240.106 120.179 240.06 119.042C240.032 118.408 240.031 117.785 240.082 117.154Z" fill="#37474F"/>
<path d="M227.114 52.0172C225.285 61.4022 213.867 94.1183 203.487 102.32C196.496 107.843 177.156 106.476 170.395 106.828C167.106 107 166.773 81.1388 170.194 80.3041C173.915 79.3963 190.588 79.7512 192.847 78.4002C195.108 77.0492 208.425 60.4303 217.179 50.0205C222.423 43.7847 228.143 46.7355 227.114 52.0172Z" fill="#F7A9A0"/>
<path d="M174.108 80.2318C164.18 78.7924 153.317 78.6394 144.037 83.5014C142.217 84.4551 141.648 85.9162 141.648 85.9162C137.45 88.0214 137.184 90.6356 137.184 90.6356C133.874 93.7937 133.969 96.5051 133.969 96.5051C133.969 96.5051 129.368 98.4214 130.403 101.637C131.552 105.247 137.91 101.604 143.002 101.504C154.669 101.276 171.318 104.214 174.689 104.483L174.108 80.2318Z" fill="#F7A9A0"/>
<path d="M155.062 92.6726C151.629 92.8084 148.255 92.8518 144.858 93.4516C141.132 94.1096 137.657 95.3678 134.087 96.5603C133.976 96.5974 133.913 96.4468 134.017 96.3925C140.137 93.2107 148.206 91.8493 155.058 92.5167C155.223 92.5325 155.234 92.6657 155.062 92.6726Z" fill="#343826"/>
<path d="M155.948 85.6096C152.615 85.9265 146.762 86.5218 137.229 90.7378C137.198 90.7516 137.165 90.7032 137.197 90.6835C143.022 87.1226 149.162 85.5257 155.932 85.4512C156.143 85.4487 156.169 85.5884 155.948 85.6096Z" fill="#343826"/>
<path d="M156.352 81.8063C150.706 82.5615 147.242 83.7521 141.679 85.9299C141.647 85.9422 141.617 85.8909 141.65 85.8736C147.713 82.7347 150.269 82.2831 156.353 81.6083C156.562 81.5856 156.572 81.7766 156.352 81.8063Z" fill="#343826"/>
<path d="M157.078 102.119C158.609 102.691 158.319 103.499 155.551 104.381C152.752 105.281 141.076 106.41 141.821 110.459C142.561 114.525 159.059 112.655 163.555 110.832C168.058 109.019 174.688 104.483 174.688 104.483C171.406 104.201 163.51 102.756 157.078 102.119Z" fill="#F7A9A0"/>
<path d="M171.895 77.2459L173.008 107.487C173.008 107.487 183.218 110.911 190.26 110.845C199.706 110.756 205.117 105.975 207.904 102.169C213.874 94.0164 222.268 71.2574 227.043 54.7545C231.482 39.413 219.838 46.1123 216.408 50.1481C214.491 52.4034 193.068 76.4798 192.052 76.9788C191.52 77.2405 190.316 77.3012 183.642 77.2997C177.577 77.2987 171.895 77.2459 171.895 77.2459Z" fill="#DE3529"/>
<path d="M179.567 79.8904C179.65 80.7503 179.799 81.5998 179.864 82.4621C179.927 83.2983 179.988 84.1345 180.033 84.9716C180.123 86.6736 180.199 88.3756 180.275 90.0781C180.428 93.4855 180.563 96.8983 180.598 100.309C180.608 101.279 180.614 102.248 180.629 103.218C180.643 104.13 180.693 105.093 180.57 105.997C180.562 106.063 180.474 106.052 180.461 105.995C180.28 105.165 180.248 104.266 180.19 103.42C180.134 102.583 180.074 101.748 180.014 100.911C179.893 99.2119 179.797 97.5128 179.716 95.8114C179.556 92.4563 179.411 89.0997 179.316 85.7422C179.288 84.7732 179.273 83.8057 179.264 82.8363C179.256 81.8599 179.334 80.8905 179.348 79.9151C179.35 79.7774 179.553 79.7448 179.567 79.8904Z" fill="#343826"/>
<path d="M227.044 54.7548C222.27 71.2563 213.876 94.0153 207.904 102.17C205.245 105.799 200.205 110.315 191.553 110.802L222.637 45.7133C226.422 44.2207 229.771 45.3194 227.044 54.7548Z" fill="#37474F"/>
<path d="M206.018 119.983C206.998 121.031 267.396 120.251 267.713 119.857C268.574 118.784 251.182 56.9393 236.92 45.8528C233.852 43.4687 221.66 43.4094 218.984 48.8969C207.536 72.3711 205.165 119.064 206.018 119.983Z" fill="#DE3529"/>
<path d="M232.479 55.9396C237.198 63.6479 252.948 88.7599 253.995 90.7195C253.995 90.7195 279.385 100.933 280.4 86.4221C281.083 76.6466 254.86 53.9494 240.326 47.3088C233.423 44.1551 225.794 45.0199 232.479 55.9396Z" fill="#DE3529"/>
<path d="M250.971 85.7297C249.834 84.0939 248.743 82.4294 247.66 80.7605C246.575 79.0921 245.528 77.4005 244.461 75.7222C243.427 74.0222 242.376 72.3336 241.359 70.6232L239.843 68.0525C239.352 67.1862 238.848 66.3283 238.37 65.4541C238.943 66.2695 239.488 67.1013 240.048 67.9246L241.681 70.4228C242.765 72.0917 243.813 73.7823 244.879 75.4616C245.912 77.1621 246.965 78.8498 247.98 80.5611C248.998 82.2715 250.007 83.9863 250.971 85.7297Z" fill="#343826"/>
<path d="M238.595 67.562C239.065 68.0028 239.493 68.4703 239.923 68.9372C240.348 69.4086 240.772 69.8746 241.193 70.3618C240.918 70.1935 240.667 69.9906 240.425 69.7793C240.182 69.5681 239.959 69.338 239.74 69.1031C239.314 68.6258 238.915 68.1223 238.595 67.562Z" fill="#343826"/>
<path d="M233.165 96.7885C230.753 99.4057 236.495 123.314 241.378 121.42C264.342 112.517 277.501 95.7164 279.563 91.3035C282.267 85.5203 277.74 78.9533 273.745 77.7321C267.953 75.9616 235.554 94.1971 233.165 96.7885Z" fill="#F7A9A0"/>
<path d="M234.671 96.7236C234.671 96.7236 224.296 97.0237 218.895 98.8684C211.662 101.339 206.434 106.45 204.373 108.723C200.069 113.47 192.947 127.922 196.751 130.699C200.195 133.214 206.73 118.073 206.73 118.073C206.73 118.073 197.52 132.411 202.223 134.676C206.927 136.941 213.512 118.934 213.512 118.934C213.512 118.934 204.38 133.877 209.6 135.446C213.544 136.631 220.427 120.658 220.427 120.658C220.427 120.658 212.667 133.557 216.671 134.95C221.096 136.491 228.375 122.145 228.375 122.145C239.149 123.974 245.028 120.438 248.91 117.425C249.85 116.695 234.671 96.7236 234.671 96.7236Z" fill="#F7A9A0"/>
<path d="M209.597 112.91C208.454 114.555 207.286 116.212 206.293 117.953C205.301 119.694 204.368 121.471 203.542 123.297C201.516 127.774 200.947 130.895 201.004 130.706C202.331 126.238 205.787 119.95 206.78 118.208C207.771 116.471 208.674 114.684 209.664 112.945C209.689 112.902 209.624 112.871 209.597 112.91Z" fill="#343826"/>
<path d="M215.948 116.38C214.58 118.544 213.143 120.642 211.869 122.867C210.602 125.081 209.594 127.292 208.483 129.588C208.397 129.764 208.52 129.752 208.614 129.578C209.816 127.329 211.1 125.343 212.328 123.108C213.552 120.881 214.698 118.589 216.002 116.409C216.023 116.375 215.969 116.348 215.948 116.38Z" fill="#343826"/>
<path d="M221.934 118.378C219.674 121.578 218.006 125.191 216.455 128.773C216.378 128.951 216.535 128.918 216.625 128.741C218.381 125.251 219.734 122.5 222.045 118.456C222.081 118.393 221.982 118.311 221.934 118.378Z" fill="#343826"/>
<path d="M237.832 92.8726L245.826 122.403C245.826 122.403 254.335 124 261.874 118.354C270.705 111.741 278.872 97.2514 280.483 89.5703C281.54 84.5325 277.605 77.1856 271.948 77.5188C261.738 78.1195 237.832 92.8726 237.832 92.8726Z" fill="#DE3529"/>
<path d="M245.239 91.1891C245.541 92.0711 245.908 92.9261 246.193 93.8151C246.469 94.6774 246.744 95.5398 247.002 96.4085C247.525 98.1732 248.034 99.9423 248.543 101.711C249.563 105.252 250.566 108.803 251.466 112.377C251.722 113.393 251.974 114.41 252.235 115.424C252.481 116.379 252.776 117.378 252.881 118.359C252.888 118.43 252.796 118.441 252.769 118.384C252.375 117.559 252.113 116.623 251.841 115.748C251.571 114.884 251.298 114.021 251.025 113.158C250.471 111.403 249.943 109.643 249.428 107.876C248.415 104.392 247.417 100.903 246.468 97.4002C246.194 96.3893 245.932 95.3769 245.678 94.3605C245.422 93.3368 245.256 92.2987 245.022 91.271C244.989 91.1254 245.188 91.0395 245.239 91.1891Z" fill="#343826"/>
<path d="M261.463 80.5879C248.46 85.0448 237.85 92.7733 237.825 92.7851C237.615 92.8853 237.781 93.104 237.899 93.0487C240.072 92.0289 249.884 85.803 261.527 80.9246C261.604 80.893 261.542 80.5613 261.463 80.5879Z" fill="#343826"/>
<path d="M223.824 59.0869C227.7 59.0988 232.697 52.0139 234.126 46.8833C234.222 46.5309 232.977 43.355 231.647 39.4239C230.85 37.0348 230.018 34.3565 229.435 31.8573C229.318 31.3434 214.648 39.3202 214.648 39.3202C214.648 39.3202 217.411 44.1996 218.4 48.5626C218.479 48.9284 218.522 49.2754 218.532 49.6135C218.538 49.6619 218.537 49.7221 218.548 49.7887C218.686 51.8106 220.077 59.0726 223.824 59.0869Z" fill="#F7A9A0"/>
<path d="M228.487 32.1465C228.745 36.5411 228.497 47.3621 220.178 49.5014C219.599 49.6515 219.057 49.7467 218.554 49.7887C218.533 49.7196 218.538 49.6643 218.534 49.612C218.519 49.2724 218.482 48.9288 218.406 48.564C217.414 44.1936 214.648 39.3157 214.648 39.3157C214.648 39.3157 225.23 33.5617 228.487 32.1465Z" fill="#343826"/>
<path d="M229.114 13.7124C231.578 19.1944 230.655 36.0498 227.065 40.2371C221.86 46.308 212.298 48.0376 206.878 41.5432C201.623 35.2482 203.214 13.3027 207.321 9.39028C213.37 3.62786 225.475 5.61464 229.114 13.7124Z" fill="#F7A9A0"/>
<path opacity="0.3" d="M203.599 29.1428C203.833 34.3178 204.838 39.1059 206.877 41.5418C212.297 48.0393 221.858 46.3082 227.062 40.2348C228.551 38.4968 229.585 34.576 230.103 30.1863L226.671 24.5103C226.671 24.5103 224.391 29.8931 223.114 31.2826C221.484 33.0552 217.627 34.6653 211.706 31.9026L209.835 32.1588C209.835 32.1588 206.43 35.6392 204.25 31.7229C203.767 30.8537 203.629 29.3269 203.599 29.1428Z" fill="#343826"/>
<path d="M214.259 26.498C214.27 26.4556 214.345 26.5562 214.342 26.6026C214.249 27.7365 214.334 29.0505 215.343 29.4784C215.374 29.4918 215.368 29.5485 215.33 29.5416C214.085 29.3027 213.99 27.5573 214.259 26.498Z" fill="#343826"/>
<path d="M215.332 25.3628C217.165 25.3149 217.125 28.9854 215.427 29.0298C213.755 29.0728 213.794 25.4028 215.332 25.3628Z" fill="#343826"/>
<path d="M207.801 26.1824C207.793 26.1389 207.712 26.2352 207.713 26.2816C207.736 27.4189 207.572 28.7255 206.54 29.0917C206.508 29.1031 206.51 29.1603 206.549 29.1554C207.806 28.992 208.006 27.2555 207.801 26.1824Z" fill="#343826"/>
<path d="M206.798 24.9835C204.971 24.8251 204.789 28.4911 206.481 28.6377C208.147 28.7823 208.33 25.1163 206.798 24.9835Z" fill="#343826"/>
<path d="M216.799 23.7006C216.3 23.5693 215.862 23.3654 215.383 23.1843C214.841 22.9804 214.389 22.8738 214.038 22.3826C213.85 22.1195 213.935 21.6511 214.174 21.4443C214.729 20.963 215.454 21.0479 216.116 21.2666C216.833 21.504 217.326 21.8708 217.731 22.507C218.125 23.1246 217.456 23.8734 216.799 23.7006Z" fill="#343826"/>
<path d="M205.398 23.1202C205.908 23.0427 206.365 22.8863 206.861 22.7574C207.421 22.6123 207.881 22.5541 208.282 22.1029C208.497 21.861 208.463 21.3867 208.247 21.1557C207.746 20.6181 207.016 20.6255 206.335 20.7731C205.596 20.933 205.067 21.2455 204.597 21.8354C204.14 22.407 204.725 23.2224 205.398 23.1202Z" fill="#343826"/>
<path d="M215.628 36.6007C215.352 36.8638 215.077 37.2276 214.664 37.2577C214.268 37.2868 213.806 37.1032 213.445 36.9586C213.409 36.9442 213.372 36.9818 213.395 37.0163C213.685 37.4556 214.303 37.7355 214.832 37.6491C215.347 37.5647 215.607 37.1229 215.736 36.653C215.755 36.5874 215.668 36.5622 215.628 36.6007Z" fill="#343826"/>
<path d="M214.469 33.1828C213.822 34.1627 212.88 34.6923 211.866 34.8774C211.414 34.9633 210.938 34.9737 210.473 34.9263C210.381 34.9233 210.29 34.912 210.207 34.8927C210.125 34.8819 210.049 34.871 209.959 34.8517C209.826 34.831 209.754 34.7204 209.733 34.5946L209.734 34.5862C209.735 34.5447 209.736 34.5112 209.745 34.4702C209.745 34.4702 209.745 34.4702 209.745 34.4618L209.748 34.3621C209.734 33.4864 209.833 32.1561 209.833 32.1561C209.511 32.3131 207.873 33.0288 207.904 32.5718C208.17 28.7882 208.467 24.5807 209.532 20.8722C209.56 20.7478 209.751 20.7789 209.739 20.9033C209.626 24.5496 208.874 28.1515 208.702 31.8131C209.225 31.6211 210.078 31.2637 210.536 31.278C210.66 31.3155 210.298 33.8458 210.336 34.2387C210.336 34.2387 210.335 34.2555 210.343 34.2806C211.811 34.4845 212.925 34.0521 214.363 33.0797C214.449 33.0155 214.538 33.093 214.469 33.1828Z" fill="#343826"/>
<path d="M229.686 28.7992C226.669 28.0657 224.763 18.1194 224.763 18.1194C224.763 18.1194 224.955 22.3615 224.156 22.2904C223.357 22.2193 219.872 16.5833 219.343 12.4636C219.343 12.4636 215.664 15.1696 211.93 16.4446C208.196 17.7196 204.004 17.6307 203.978 16.9895C203.901 15.0768 205.45 10.0123 207.979 8.14102C210.89 5.98689 215.086 3.84807 221.352 5.96962C227.616 8.09116 229.388 11.9956 230.422 15.0348C231.457 18.0745 230.795 29.0687 229.686 28.7992Z" fill="#343826"/>
<path d="M226.495 28.2584C226.495 28.2584 229.66 22.5212 232.225 23.5948C234.789 24.6684 232.806 32.7079 230.074 34.0692C227.342 35.4306 226.032 32.9265 226.032 32.9265L226.495 28.2584Z" fill="#F7A9A0"/>
<path d="M231.599 25.8851C231.644 25.8762 231.66 25.9394 231.622 25.9597C229.713 26.9795 228.86 28.9411 228.329 30.9368C228.844 30.1356 229.609 29.6455 230.672 30.2457C230.728 30.2773 230.687 30.3642 230.629 30.3582C229.794 30.2704 229.219 30.4747 228.737 31.1875C228.396 31.6925 228.191 32.307 227.968 32.8712C227.893 33.0593 227.562 32.9981 227.607 32.7858C227.611 32.77 227.615 32.7537 227.619 32.7379C227.298 30.2008 228.896 26.4316 231.599 25.8851Z" fill="#343826"/>
<path d="M213.809 5.62591C215.708 4.78776 217.973 3.91555 220.609 3.57644C223.244 3.23683 228.697 2.72792 232.862 6.3377C236.315 9.33195 236.105 15.007 236.163 16.1532C236.22 17.2998 235.727 24.2267 233.224 25.9055C230.721 27.5843 230.446 15.819 226.474 11.9284C222.502 8.03721 213.809 5.62591 213.809 5.62591Z" fill="#16A34A"/>
<path opacity="0.1" d="M213.808 5.62748C213.808 5.62748 222.504 8.03729 226.473 11.9294C230.448 15.8151 230.72 27.5838 233.227 25.9075C234.33 25.1671 234.863 24.0708 235.313 22.2301C234.777 18.7936 233.371 13.4626 230.494 9.77629C227.799 6.32298 223.175 4.58644 218.231 4.04248C216.583 4.46057 215.111 5.05143 213.808 5.62748Z" fill="#050400"/>
<path d="M232.182 32.9102C231.95 29.7935 228.756 21.4579 225.417 16.6842C222.079 11.9105 212.295 9.14426 210.928 9.22718C207.611 9.42808 206.488 10.4365 205.962 10.1414C205.436 9.84617 208.844 7.34158 209.777 6.78035C210.71 6.21911 213.217 4.89228 214.66 4.92288C216.102 4.95349 224.998 5.81089 228.242 9.59443C231.486 13.378 236.091 23.9931 235.26 26.7169C235.061 27.3699 234.194 27.7934 233.92 28.7204C233.56 29.9372 233.309 31.3435 232.944 32.1945C232.65 32.8806 232.203 33.1822 232.182 32.9102Z" fill="#16A34A"/>
<path d="M224.646 14.5395C225.41 14.0647 226.122 13.5488 226.797 12.9521C227.463 12.3632 228.128 11.7091 228.636 10.9771C228.673 10.9238 228.76 10.9677 228.726 11.027C228.264 11.8488 227.752 12.6006 227.054 13.2428C226.384 13.8603 225.569 14.3722 224.717 14.6985C224.623 14.735 224.563 14.5913 224.646 14.5395Z" fill="#343826"/>
<path d="M232.203 29.7974C232.289 29.5718 232.436 29.3724 232.543 29.1557C232.664 28.9089 232.765 28.6513 232.832 28.3842C232.96 27.8728 232.943 27.3521 233.181 26.8698C233.37 26.4873 233.641 26.159 233.909 25.8303C234.214 25.4561 234.516 25.0642 234.519 24.5617C234.52 24.495 234.623 24.4921 234.623 24.5592C234.63 25.5064 233.996 26.1807 233.585 26.974C233.322 27.4824 233.336 28.0579 233.163 28.595C233.015 29.0496 232.765 29.6335 232.343 29.8991C232.28 29.9386 232.173 29.8764 232.203 29.7974Z" fill="#343826"/>
<path d="M231.118 26.4308C231.412 26.0744 231.729 25.7565 231.99 25.3695C232.24 24.9988 232.459 24.6024 232.656 24.2016C232.852 23.8057 233.015 23.3951 233.202 22.9952C233.423 22.5228 233.704 22.0717 233.902 21.5899C233.927 21.5287 234.018 21.5786 233.993 21.6398C233.787 22.1398 233.668 22.6764 233.479 23.1838C233.315 23.6211 233.108 24.0461 232.889 24.4583C232.678 24.8552 232.438 25.2318 232.155 25.5813C231.887 25.9125 231.539 26.2797 231.154 26.4737C231.125 26.489 231.097 26.4564 231.118 26.4308Z" fill="#343826"/>
<path d="M229.976 23.3867C230.617 22.8363 231.212 22.1793 231.668 21.466C232.118 20.7621 232.529 20.0281 232.93 19.2961C232.957 19.2462 233.046 19.2769 233.026 19.3336C232.732 20.1555 232.446 20.9709 231.959 21.7034C231.728 22.0505 231.473 22.4064 231.166 22.6907C230.832 23.0002 230.441 23.2499 230.045 23.4706C229.993 23.4982 229.927 23.4286 229.976 23.3867Z" fill="#343826"/>
<path d="M228.733 20.4719C229.084 20.2622 229.313 19.9536 229.557 19.6348C229.825 19.2848 230.087 18.9274 230.336 18.5631C230.575 18.2132 230.823 17.8701 231.062 17.5201C231.302 17.1677 231.542 16.8 231.618 16.3735C231.628 16.3167 231.722 16.3261 231.72 16.3843C231.702 16.8197 231.55 17.2146 231.365 17.6041C231.163 18.0305 230.937 18.4402 230.664 18.8257C230.396 19.2043 230.11 19.5696 229.796 19.9112C229.522 20.2088 229.199 20.5149 228.792 20.6027C228.716 20.619 228.658 20.5164 228.733 20.4719Z" fill="#343826"/>
<path d="M227.832 16.7744C228.121 16.4901 228.405 16.2053 228.67 15.8988C228.934 15.5942 229.184 15.2753 229.428 14.954C229.683 14.6184 229.949 14.2837 230.182 13.9332C230.219 13.8774 230.3 13.9219 230.273 13.9831C230.102 14.3745 229.932 14.7556 229.702 15.1184C229.477 15.4733 229.225 15.8055 228.952 16.1253C228.685 16.4393 228.403 16.7488 228.097 17.0257C227.802 17.2927 227.467 17.6037 227.086 17.737C227.029 17.7567 226.966 17.6857 227.002 17.6328C227.22 17.3076 227.553 17.0489 227.832 16.7744Z" fill="#343826"/>
<path d="M222.249 12.7747C222.555 12.3907 222.854 12.0155 223.196 11.6616C223.543 11.3027 223.916 10.9656 224.301 10.6477C225.054 10.0248 225.843 9.45613 226.715 9.01089C226.763 8.98621 226.828 9.0499 226.78 9.09037C225.309 10.3575 223.784 11.5644 222.325 12.8453C222.275 12.8897 222.208 12.827 222.249 12.7747Z" fill="#343826"/>
<path d="M220.357 10.1121C220.671 9.73697 221.021 9.39984 221.412 9.10515C222.23 8.48863 223.149 8.03352 224.079 7.61148C224.138 7.58482 224.19 7.66133 224.133 7.69934C223.327 8.23886 222.51 8.76554 221.735 9.35047C221.353 9.63874 220.972 9.93737 220.624 10.2661C220.274 10.5973 220.006 10.9937 219.672 11.3368C219.646 11.3634 219.594 11.3387 219.606 11.3007C219.739 10.8614 220.066 10.4596 220.357 10.1121Z" fill="#343826"/>
<path d="M217.759 8.89701C218.048 8.52631 218.376 8.1956 218.733 7.89153C219.412 7.3145 220.177 6.87123 221.006 6.54891C221.062 6.52719 221.098 6.61258 221.049 6.64269C220.293 7.10027 219.571 7.62646 218.905 8.20646C218.57 8.49769 218.251 8.80668 217.928 9.11124C217.606 9.41383 217.334 9.79589 216.984 10.0639C216.955 10.0856 216.923 10.0466 216.937 10.019C217.137 9.61621 217.483 9.25093 217.759 8.89701Z" fill="#343826"/>
<path d="M215.879 7.34941C216.206 7.08187 216.545 6.83309 216.887 6.58529C217.225 6.34046 217.569 6.10156 217.968 5.97272C218.029 5.95347 218.054 6.03195 218.01 6.06601C217.373 6.57493 216.747 7.09963 216.121 7.62188C215.531 8.1145 215.138 8.74781 214.668 9.3441C214.647 9.37026 214.601 9.34409 214.611 9.313C214.848 8.54197 215.251 7.86326 215.879 7.34941Z" fill="#343826"/>
<path d="M213.537 6.85327C214.13 6.26093 214.851 5.87937 215.613 5.55112C215.667 5.52792 215.708 5.61875 215.655 5.64442C214.949 5.99439 214.333 6.53094 213.768 7.07293C213.191 7.62627 212.722 8.265 212.28 8.92743C212.259 8.95902 212.199 8.94322 212.213 8.90127C212.471 8.12284 212.96 7.42931 213.537 6.85327Z" fill="#343826"/>
<path d="M210.477 8.25834C210.552 8.09397 210.647 7.93601 210.743 7.78348C210.938 7.47498 211.181 7.19411 211.435 6.93348C211.958 6.39841 212.584 5.98476 213.2 5.56667C213.255 5.52916 213.31 5.61801 213.254 5.65453C212.646 6.04992 212.1 6.53169 211.603 7.05936C211.359 7.319 211.141 7.59838 210.937 7.8906C210.838 8.03326 210.748 8.18183 210.661 8.33238C210.58 8.47454 210.512 8.65175 210.405 8.77466C210.376 8.80773 210.314 8.78503 210.315 8.7406C210.322 8.58067 210.411 8.40297 210.477 8.25834Z" fill="#343826"/>
<path d="M208.602 8.43057C208.78 8.18524 208.966 7.95226 209.171 7.72865C209.375 7.50603 209.587 7.29921 209.818 7.10374C210.052 6.90482 210.296 6.71478 210.522 6.50548C210.576 6.45514 210.646 6.53757 210.586 6.58495C210.345 6.77845 210.133 7.00897 209.929 7.24047C209.736 7.45964 209.54 7.67633 209.346 7.895C209.152 8.11318 208.958 8.33135 208.766 8.55101C208.572 8.77264 208.401 9.02982 208.184 9.22825C208.148 9.26132 208.1 9.22282 208.118 9.17987C208.23 8.91086 208.432 8.66553 208.602 8.43057Z" fill="#343826"/>
<path d="M308.472 153.54H254.9C253.684 150.288 251.785 144.847 249.993 138.183C249.904 137.839 249.808 137.489 249.714 137.138C248.129 131.104 246.658 124.143 245.845 116.939C245.839 116.904 299.653 116.933 299.653 116.933C299.653 116.933 299.653 116.933 299.659 116.939C299.659 116.951 299.683 116.993 299.724 117.07C300.61 118.815 309.611 136.961 308.472 153.54Z" fill="#37474F"/>
<path d="M299.731 116.94C299.731 116.94 299.731 116.988 299.725 117.071C299.677 118.803 298.977 137.187 291.542 153.541H234.434C235.834 145.797 237.43 138.19 239.258 131.057C239.252 131.051 239.258 131.045 239.258 131.045C239.578 129.805 239.904 128.577 240.237 127.366C241.228 123.729 242.284 120.24 243.411 116.94H299.731Z" fill="#37474F"/>
<path d="M253.505 121.611C252.152 127.1 251 132.624 249.992 138.184C249.072 143.282 248.271 148.408 247.547 153.541H246.841C247.677 148.052 248.615 142.581 249.713 137.14C250.769 131.918 251.985 126.726 253.409 121.587C253.428 121.528 253.516 121.551 253.505 121.611Z" fill="#343826"/>
<path d="M240.115 127.421C240.142 127.329 240.292 127.349 240.285 127.448C240.068 130.654 239.529 134.154 240.952 137.174C242.21 139.843 244.602 141.342 246.802 143.143C246.872 143.201 246.791 143.31 246.713 143.287C243.786 142.398 240.869 140.774 239.718 137.781C238.426 134.419 239.124 130.76 240.115 127.421Z" fill="#343826"/>
<path d="M251.134 14.5174C250.017 14.7938 245.012 14.7973 242.242 19.6712C239.621 24.2825 240.034 37.3316 239.696 40.2237C239.359 43.1153 235.715 43.9712 235.227 47.3416C234.807 50.2401 236.974 51.0343 237.425 53.0724C237.775 54.653 236.444 57.2405 238.179 59.4371C239.757 61.4347 242.04 60.7067 243.529 61.2161C245.017 61.7255 246.277 64.8876 248.989 65.4636C251.701 66.0396 253.732 63.3899 255.117 63.2428C256.502 63.0957 258.642 67.1522 263.117 66.2534C267.593 65.3545 268.452 61.378 270.23 60.4065C272.008 59.4351 276.843 60.1889 278.71 57.6092C280.576 55.0296 280.581 51.8725 281.41 50.6143C282.24 49.356 284.274 49.3042 285.163 46.5128C286.052 43.7215 283.389 42.3255 282.773 40.0658C282.344 38.4916 283.596 36.8538 282.309 34.5225C280.54 31.317 276.506 32.5175 274.532 29.2453C272.984 26.679 269.062 15.1902 261.602 13.1195C256.449 11.6885 251.134 14.5174 251.134 14.5174Z" fill="#343826"/>
<path d="M239.754 39.5308C239.611 40.1799 239.141 40.6947 238.723 41.1863L237.401 42.6292C236.524 43.5749 235.64 44.5488 235.12 45.6822C234.578 46.7839 234.54 48.1028 235.084 49.1641C235.352 49.6997 235.764 50.1642 236.213 50.6212C236.653 51.0842 237.171 51.5246 237.529 52.2067C237.879 52.9516 237.716 53.7266 237.593 54.3529C237.456 55.005 237.293 55.6279 237.187 56.2519C236.96 57.4879 237.018 58.7708 237.717 59.7792C238.05 60.2758 238.52 60.6613 239.096 60.8504C239.669 61.0458 240.309 61.0671 240.944 61.03C241.584 61.0014 242.228 60.9052 242.881 60.8395C243.52 60.7813 244.232 60.7191 244.814 61.0483C244.2 60.7976 243.539 60.9313 242.908 61.035C242.271 61.1549 241.636 61.3074 240.977 61.3943C240.321 61.4718 239.632 61.4886 238.956 61.3005C238.279 61.1209 237.667 60.6756 237.248 60.1104C236.347 58.986 236.305 57.4351 236.517 56.1443C236.618 55.4818 236.775 54.8406 236.894 54.2157C237.012 53.5869 237.091 52.9842 236.858 52.5305C236.35 51.5453 235.077 50.7585 234.479 49.4691C233.854 48.1976 233.918 46.62 234.608 45.4304C235.25 44.2186 236.205 43.2793 237.143 42.374L238.581 41.0521C239.032 40.5935 239.534 40.1502 239.754 39.5308Z" fill="#343826"/>
<path d="M268.963 18.9971C270.426 20.8353 271.45 22.9593 272.664 24.9377C273.271 25.9269 273.845 26.9373 274.516 27.8638C274.856 28.3145 275.201 28.7844 275.602 29.1235C275.698 29.2218 275.798 29.2992 275.899 29.3466C275.996 29.4064 276.09 29.4715 276.233 29.5145C276.491 29.6152 276.763 29.6991 277.037 29.781C278.13 30.1241 279.284 30.4099 280.39 30.8872C281.484 31.3537 282.58 32.0635 283.232 33.1391C283.552 33.6667 283.782 34.2778 283.804 34.9096C283.833 35.542 283.668 36.1422 283.477 36.696C283.057 37.7884 282.668 38.8813 282.772 40.0644C282.492 38.9079 282.827 37.6946 283.127 36.5899C283.278 36.0341 283.394 35.4778 283.334 34.9407C283.283 34.4042 283.06 33.9032 282.751 33.4525C282.112 32.564 281.176 31.9263 280.126 31.5121C279.079 31.0822 277.955 30.8275 276.818 30.4923C276.535 30.402 276.251 30.3082 275.968 30.1917C275.706 30.089 275.329 29.8714 275.133 29.6571C274.652 29.2282 274.315 28.738 273.963 28.2543C273.293 27.2715 272.7 26.2581 272.165 25.2161L270.586 22.0881C270.078 21.0387 269.588 19.9828 268.963 18.9971Z" fill="#343826"/>
<path d="M282.423 49.6982C282.006 50.4214 282.043 51.2941 281.948 52.1135C281.868 52.9433 281.789 53.7789 281.668 54.6156C281.554 55.4533 281.371 56.289 281.077 57.1069C280.777 57.9159 280.356 58.7289 279.662 59.3523C278.199 60.5478 276.312 60.6466 274.656 60.5394C273.813 60.4842 272.984 60.383 272.16 60.3445C271.339 60.2887 270.506 60.3065 269.729 60.6382C270.429 60.151 271.326 60.0419 272.16 59.9792C273.007 59.9437 273.845 59.9812 274.671 59.9664C276.293 59.9511 278.008 59.7768 279.173 58.7901C279.737 58.3039 280.122 57.596 280.419 56.8566C280.73 56.1157 280.915 55.3131 281.107 54.511C281.294 53.7059 281.434 52.885 281.589 52.0612C281.676 51.651 281.768 51.2393 281.877 50.8311C282.005 50.4367 282.099 49.991 282.423 49.6982Z" fill="#343826"/>
<path d="M267.661 55.0049C267.645 56.122 264.082 64.1264 259.177 64.9606C257.579 65.2296 255.722 56.5722 255.722 56.5722L255.438 55.9645L251.48 47.4546L260.516 38.4117L261.839 37.1865C261.839 37.1865 262.769 39.5865 263.896 42.5857C263.949 42.7249 264.002 42.8636 264.057 43.0131C264.125 43.181 264.191 43.3389 264.248 43.4983C264.422 43.9446 264.598 44.4007 264.764 44.8582C264.891 45.2062 265.017 45.5444 265.137 45.9146C265.268 46.2833 265.387 46.6431 265.518 47.0119C266.727 50.6725 267.662 54.5321 267.661 55.0049Z" fill="#FFBBB0"/>
<path d="M263.896 42.5861C262.89 50.2682 257.837 54.4156 255.438 55.965L251.48 47.4551L260.516 38.4122L261.839 37.187C261.839 37.187 262.769 39.587 263.896 42.5861Z" fill="#343826"/>
<path d="M235.608 34.1583C233.899 50.5413 243.46 53.5745 247.052 53.7794C250.271 53.963 261.222 54.8298 264.615 38.7109C268.008 22.592 260.931 16.6188 253.636 15.4736C246.34 14.3289 237.317 17.7753 235.608 34.1583Z" fill="#FFBBB0"/>
<path d="M236.852 31.8864C237.239 31.8543 237.592 31.7605 237.972 31.6894C238.401 31.6095 238.752 31.5897 239.077 31.2708C239.251 31.1001 239.251 30.7407 239.1 30.5556C238.751 30.1247 238.2 30.0921 237.68 30.1676C237.115 30.2496 236.701 30.4574 236.316 30.8769C235.942 31.2837 236.34 31.9283 236.852 31.8864Z" fill="#343826"/>
<path d="M247.158 32.7133C246.773 32.6556 246.428 32.5376 246.053 32.4408C245.631 32.3317 245.283 32.2883 244.98 31.9482C244.818 31.7661 244.843 31.4077 245.006 31.2335C245.384 30.8267 245.934 30.8321 246.448 30.9427C247.006 31.0632 247.406 31.2981 247.762 31.7429C248.107 32.1738 247.665 32.7898 247.158 32.7133Z" fill="#343826"/>
<path d="M244.594 36.6831C244.606 36.6407 244.679 36.7409 244.675 36.7868C244.574 37.9043 244.648 39.201 245.64 39.631C245.671 39.6443 245.664 39.7006 245.627 39.6927C244.401 39.4478 244.321 37.7256 244.594 36.6831Z" fill="#343826"/>
<path d="M245.661 35.5705C247.469 35.537 247.403 39.1571 245.727 39.1882C244.078 39.2183 244.144 35.5982 245.661 35.5705Z" fill="#343826"/>
<path d="M246.368 35.775C246.681 35.9853 246.984 36.3531 247.365 36.3975C247.805 36.4493 248.145 36.0761 248.44 35.7168C248.47 35.6798 248.501 35.7118 248.501 35.7597C248.498 36.4537 248.218 37.1606 247.473 37.2504C246.793 37.3324 246.317 36.7089 246.157 36.0085C246.127 35.8787 246.243 35.6901 246.368 35.775Z" fill="#343826"/>
<path d="M238.884 36.0631C238.875 36.0202 238.796 36.115 238.797 36.1614C238.82 37.2829 238.659 38.5722 237.64 38.9335C237.608 38.9448 237.611 39.0011 237.649 38.9962C238.888 38.8353 239.086 37.1224 238.884 36.0631Z" fill="#343826"/>
<path d="M237.894 34.8819C236.092 34.7259 235.912 38.3421 237.582 38.4862C239.225 38.6289 239.405 35.0127 237.894 34.8819Z" fill="#343826"/>
<path d="M237.127 35.0819C236.831 35.2596 236.532 35.5933 236.189 35.5992C235.792 35.6056 235.519 35.1999 235.285 34.8124C235.261 34.7724 235.231 34.801 235.227 34.8489C235.174 35.539 235.367 36.2705 236.024 36.4364C236.624 36.5874 237.098 36.0163 237.297 35.3361C237.334 35.2098 237.246 35.0108 237.127 35.0819Z" fill="#343826"/>
<path d="M244.783 45.3945C244.548 45.6872 244.325 46.0787 243.926 46.1616C243.542 46.2411 243.067 46.1211 242.695 46.0263C242.658 46.017 242.627 46.0584 242.653 46.089C242.995 46.4815 243.635 46.6754 244.14 46.5224C244.633 46.3733 244.83 45.9074 244.896 45.4315C244.906 45.3654 244.817 45.3521 244.783 45.3945Z" fill="#343826"/>
<path d="M239.889 41.1473C239.889 41.1473 239.607 42.8147 239.583 43.6045C239.581 43.6785 239.771 43.719 240.039 43.7427C240.052 43.7471 240.059 43.7526 240.07 43.7447C241.458 44.0043 242.877 43.5655 243.758 42.4524C243.816 42.3769 243.718 42.2924 243.644 42.3393C242.58 43.0724 241.424 43.2352 240.187 43.2185C240.137 42.9983 240.765 40.3792 240.64 40.3659C240.209 40.3155 239.35 40.5841 238.834 40.7183C239.32 37.228 240.362 33.8443 240.794 30.3618C240.807 30.237 240.629 30.1945 240.59 30.3046C239.247 33.7737 238.599 37.7779 238.005 41.3694C237.925 41.8161 239.569 41.2717 239.889 41.1473Z" fill="#343826"/>
<path d="M263.873 41.6057C262.115 41.1901 257.261 34.6453 258.615 26.0426C258.615 26.0426 257.933 33.852 258.316 35.0811C258.698 36.3102 256.21 31.8801 257.204 24.9266C257.204 24.9266 252.891 27.0239 249.465 27.3699C246.038 27.716 244.045 27.3364 243.853 27.0599C243.661 26.783 248.732 26.1063 250.293 24.8342C250.293 24.8342 240.899 27.3591 236.84 26.9662C236.371 26.9207 237.479 17.2958 244.376 14.3321C251.273 11.368 260.322 17.4454 262.515 20.4524C262.515 20.4524 265.535 21.4333 268.103 26.6009C270.671 31.768 265.767 42.0529 263.873 41.6057Z" fill="#343826"/>
<path d="M257.833 36.3794C257.833 36.3794 261.336 31.1753 263.691 32.4157C266.046 33.6562 263.476 41.1556 260.755 42.2233C258.035 43.291 256.997 40.7923 256.997 40.7923L257.833 36.3794Z" fill="#FFBBB0"/>
<path d="M262.902 34.5476C262.946 34.5431 262.955 34.6049 262.918 34.6207C261.011 35.4326 260.032 37.2309 259.357 39.0898C259.915 38.3691 260.686 37.9659 261.649 38.6288C261.7 38.6633 261.653 38.7428 261.599 38.7324C260.81 38.5779 260.245 38.7245 259.724 39.3638C259.356 39.8164 259.109 40.385 258.848 40.9048C258.762 41.0781 258.45 40.9917 258.512 40.7928C258.516 40.778 258.522 40.7627 258.527 40.7484C258.436 38.3 260.278 34.8408 262.902 34.5476Z" fill="#343826"/>
<path d="M242.108 101.956L243.408 116.942C243.408 116.942 285.857 117.907 299.651 116.935C299.651 116.935 293.064 71.2529 277.909 57.5295C269.791 50.1786 264.3 48.5996 258.748 54.2312C257.343 55.6563 240.583 77.8081 238.817 86.2706C237.277 93.737 242.108 101.956 242.108 101.956Z" fill="#16A34A"/>
<path d="M260.827 58.7626C260.827 59.3875 260.321 59.894 259.696 59.894C259.071 59.894 258.564 59.3875 258.564 58.7626C258.564 58.1377 259.071 57.6312 259.696 57.6312C260.321 57.6312 260.827 58.1377 260.827 58.7626ZM272.737 57.6312C272.112 57.6312 271.606 58.1377 271.606 58.7626C271.606 59.3875 272.112 59.894 272.737 59.894C273.362 59.894 273.868 59.3875 273.868 58.7626C273.868 58.1377 273.362 57.6312 272.737 57.6312ZM265.49 50.8431C265.679 51.0089 265.94 51.1161 266.213 51.1161C266.45 51.1161 266.664 51.045 266.853 50.9265C266.391 50.8668 265.94 50.8312 265.49 50.8431ZM246.654 75.8233C246.029 75.8233 245.523 76.3298 245.523 76.9547C245.523 77.5796 246.029 78.086 246.654 78.086C247.279 78.086 247.785 77.5796 247.785 76.9547C247.785 76.3303 247.279 75.8233 246.654 75.8233ZM259.696 75.8233C259.071 75.8233 258.564 76.3298 258.564 76.9547C258.564 77.5796 259.071 78.086 259.696 78.086C260.321 78.086 260.827 77.5796 260.827 76.9547C260.827 76.3303 260.321 75.8233 259.696 75.8233ZM272.737 75.8233C272.112 75.8233 271.606 76.3298 271.606 76.9547C271.606 77.5796 272.112 78.086 272.737 78.086C273.362 78.086 273.868 77.5796 273.868 76.9547C273.868 76.3303 273.362 75.8233 272.737 75.8233ZM285.779 75.8233C285.154 75.8233 284.647 76.3298 284.647 76.9547C284.647 77.5796 285.154 78.086 285.779 78.086C286.404 78.086 286.91 77.5796 286.91 76.9547C286.91 76.3303 286.404 75.8233 285.779 75.8233ZM253.175 67.04C252.55 67.04 252.044 67.5464 252.044 68.1713C252.044 68.7963 252.55 69.3027 253.175 69.3027C253.8 69.3027 254.306 68.7963 254.306 68.1713C254.306 67.5464 253.8 67.04 253.175 67.04ZM266.216 67.04C265.591 67.04 265.085 67.5464 265.085 68.1713C265.085 68.7963 265.591 69.3027 266.216 69.3027C266.841 69.3027 267.348 68.7963 267.348 68.1713C267.348 67.5464 266.841 67.04 266.216 67.04ZM279.258 67.04C278.633 67.04 278.127 67.5464 278.127 68.1713C278.127 68.7963 278.633 69.3027 279.258 69.3027C279.883 69.3027 280.389 68.7963 280.389 68.1713C280.389 67.5464 279.883 67.04 279.258 67.04ZM246.654 94.0159C246.029 94.0159 245.523 94.5223 245.523 95.1472C245.523 95.7722 246.029 96.2786 246.654 96.2786C247.279 96.2786 247.785 95.7722 247.785 95.1472C247.785 94.5223 247.279 94.0159 246.654 94.0159ZM259.696 94.0159C259.071 94.0159 258.564 94.5223 258.564 95.1472C258.564 95.7722 259.071 96.2786 259.696 96.2786C260.321 96.2786 260.827 95.7722 260.827 95.1472C260.827 94.5223 260.321 94.0159 259.696 94.0159ZM272.737 94.0159C272.112 94.0159 271.606 94.5223 271.606 95.1472C271.606 95.7722 272.112 96.2786 272.737 96.2786C273.362 96.2786 273.868 95.7722 273.868 95.1472C273.868 94.5223 273.362 94.0159 272.737 94.0159ZM285.779 94.0159C285.154 94.0159 284.647 94.5223 284.647 95.1472C284.647 95.7722 285.154 96.2786 285.779 96.2786C286.404 96.2786 286.91 95.7722 286.91 95.1472C286.91 94.5223 286.404 94.0159 285.779 94.0159ZM240.133 85.2321C239.508 85.2321 239.002 85.7385 239.002 86.3634C239.002 86.9883 239.508 87.4948 240.133 87.4948C240.758 87.4948 241.265 86.9883 241.265 86.3634C241.265 85.7385 240.758 85.2321 240.133 85.2321ZM253.175 85.2321C252.55 85.2321 252.044 85.7385 252.044 86.3634C252.044 86.9883 252.55 87.4948 253.175 87.4948C253.8 87.4948 254.306 86.9883 254.306 86.3634C254.306 85.7385 253.8 85.2321 253.175 85.2321ZM266.216 85.2321C265.591 85.2321 265.085 85.7385 265.085 86.3634C265.085 86.9883 265.591 87.4948 266.216 87.4948C266.841 87.4948 267.348 86.9883 267.348 86.3634C267.348 85.7385 266.841 85.2321 266.216 85.2321ZM279.258 85.2321C278.633 85.2321 278.127 85.7385 278.127 86.3634C278.127 86.9883 278.633 87.4948 279.258 87.4948C279.883 87.4948 280.389 86.9883 280.389 86.3634C280.389 85.7385 279.883 85.2321 279.258 85.2321ZM292.384 85.2439C292.36 85.2321 292.325 85.2321 292.301 85.2321C291.673 85.2321 291.163 85.742 291.163 86.3585C291.163 86.9869 291.673 87.4968 292.301 87.4968C292.562 87.4968 292.799 87.4138 292.989 87.2598V87.248C292.799 86.5841 292.598 85.9083 292.384 85.2439ZM246.654 112.208C246.029 112.208 245.523 112.714 245.523 113.339C245.523 113.964 246.029 114.471 246.654 114.471C247.279 114.471 247.785 113.964 247.785 113.339C247.785 112.714 247.279 112.208 246.654 112.208ZM259.696 112.208C259.071 112.208 258.564 112.714 258.564 113.339C258.564 113.964 259.071 114.471 259.696 114.471C260.321 114.471 260.827 113.964 260.827 113.339C260.827 112.714 260.321 112.208 259.696 112.208ZM272.737 112.208C272.112 112.208 271.606 112.714 271.606 113.339C271.606 113.964 272.112 114.471 272.737 114.471C273.362 114.471 273.868 113.964 273.868 113.339C273.868 112.714 273.362 112.208 272.737 112.208ZM285.779 112.208C285.154 112.208 284.647 112.714 284.647 113.339C284.647 113.964 285.154 114.471 285.779 114.471C286.404 114.471 286.91 113.964 286.91 113.339C286.91 112.714 286.404 112.208 285.779 112.208ZM298.871 112.21H298.823C298.195 112.21 297.685 112.72 297.685 113.336C297.685 113.965 298.195 114.475 298.823 114.475C298.977 114.475 299.12 114.439 299.25 114.38C299.144 113.751 299.013 113.028 298.871 112.21ZM253.175 103.424C252.55 103.424 252.044 103.931 252.044 104.556C252.044 105.18 252.55 105.687 253.175 105.687C253.8 105.687 254.306 105.18 254.306 104.556C254.306 103.931 253.8 103.424 253.175 103.424ZM266.216 103.424C265.591 103.424 265.085 103.931 265.085 104.556C265.085 105.18 265.591 105.687 266.216 105.687C266.841 105.687 267.348 105.18 267.348 104.556C267.348 103.931 266.841 103.424 266.216 103.424ZM279.258 103.424C278.633 103.424 278.127 103.931 278.127 104.556C278.127 105.18 278.633 105.687 279.258 105.687C279.883 105.687 280.389 105.18 280.389 104.556C280.389 103.931 279.883 103.424 279.258 103.424ZM292.299 103.424C291.674 103.424 291.168 103.931 291.168 104.556C291.168 105.18 291.674 105.687 292.299 105.687C292.924 105.687 293.431 105.18 293.431 104.556C293.431 103.931 292.924 103.424 292.299 103.424Z" fill="white"/>
<path d="M264.735 65.7149C261.297 75.948 244.048 110.375 233.941 112.297C218.098 115.311 194.167 111.988 183.988 111.214C178.457 110.793 181.055 80.5953 187.118 81.9656C197.026 84.2051 223.635 83.3467 226.523 83.6474C229.412 83.948 243.435 68.2511 254.162 57.4716C263.11 48.4809 269.092 52.7502 264.735 65.7149Z" fill="#FFBBB0"/>
<path d="M189.997 84.8525C189.997 84.8525 181.871 77.2761 176.371 74.6165C169.004 71.0556 161.179 71.0146 157.898 71.1948C151.05 71.5719 134.754 77.2173 135.561 82.1944C136.292 86.7001 152.658 80.0877 152.658 80.0877C152.658 80.0877 134.859 84.0761 136.736 89.3395C138.614 94.6029 157.175 85.8457 157.175 85.8457C157.175 85.8457 138.979 90.3538 141.774 95.4751C143.885 99.3455 161.144 92.3614 161.144 92.3614C161.144 92.3614 145.531 96.3443 147.531 100.418C149.742 104.92 166.077 99.4723 166.077 99.4723C172.904 108.971 180.041 110.702 185.264 111.327C186.529 111.479 189.997 84.8525 189.997 84.8525Z" fill="#FFBBB0"/>
<path d="M159.411 77.8041C157.304 78.197 155.168 78.58 153.102 79.159C151.036 79.738 148.989 80.3891 146.987 81.1577C142.076 83.0428 139.295 84.991 139.48 84.8898C143.852 82.486 151.215 80.2993 153.281 79.7203C155.343 79.1427 157.375 78.4615 159.437 77.882C159.488 77.8672 159.461 77.7947 159.411 77.8041Z" fill="#343826"/>
<path d="M161.636 85.2251C158.967 85.8431 156.294 86.3589 153.65 87.0954C151.02 87.8279 148.588 88.7534 146.016 89.6651C145.818 89.7352 145.92 89.8186 146.122 89.7565C148.73 88.9484 151.202 88.402 153.819 87.6245C156.426 86.8501 159.023 85.9675 161.656 85.2883C161.697 85.2769 161.677 85.2157 161.636 85.2251Z" fill="#343826"/>
<path d="M164.693 91.2498C160.564 91.9853 156.577 93.4819 152.7 95.0432C152.507 95.1212 152.652 95.214 152.854 95.1459C156.816 93.8092 159.915 92.7331 164.718 91.3929C164.794 91.3722 164.779 91.234 164.693 91.2498Z" fill="#343826"/>
<path d="M217.739 82.0818L217.506 116.591C217.506 116.591 232.863 116.046 237.296 112.539C241.73 109.032 259.445 84.8263 264.942 67.3697C270.44 49.9136 262.549 49.0068 253.536 57.6579C244.522 66.3089 227.78 82.3059 226.952 82.6031C226.124 82.9007 217.739 82.0818 217.739 82.0818Z" fill="#16A34A"/>
<path d="M260.83 58.7637C260.83 59.3886 260.323 59.895 259.698 59.895C259.074 59.895 258.567 59.3886 258.567 58.7637C258.567 58.1388 259.074 57.6323 259.698 57.6323C260.323 57.6323 260.83 58.1388 260.83 58.7637ZM234.258 76.0194C234.258 76.0194 234.258 76.0194 234.246 76.0194C233.689 76.5411 233.155 77.0392 232.645 77.5254C232.835 77.8576 233.202 78.0827 233.617 78.0827C234.246 78.0827 234.744 77.5846 234.744 76.9563C234.744 76.5648 234.554 76.2331 234.258 76.0194ZM246.657 75.8244C246.032 75.8244 245.525 76.3308 245.525 76.9558C245.525 77.5807 246.032 78.0871 246.657 78.0871C247.282 78.0871 247.788 77.5807 247.788 76.9558C247.788 76.3313 247.282 75.8244 246.657 75.8244ZM259.698 75.8244C259.074 75.8244 258.567 76.3308 258.567 76.9558C258.567 77.5807 259.074 78.0871 259.698 78.0871C260.323 78.0871 260.83 77.5807 260.83 76.9558C260.83 76.3313 260.323 75.8244 259.698 75.8244ZM253.178 67.0411C252.553 67.0411 252.046 67.5475 252.046 68.1724C252.046 68.7973 252.553 69.3038 253.178 69.3038C253.803 69.3038 254.309 68.7973 254.309 68.1724C254.309 67.5475 253.803 67.0411 253.178 67.0411ZM220.574 94.017C219.949 94.017 219.442 94.5234 219.442 95.1483C219.442 95.7732 219.949 96.2797 220.574 96.2797C221.199 96.2797 221.705 95.7732 221.705 95.1483C221.705 94.5234 221.199 94.017 220.574 94.017ZM233.615 94.017C232.991 94.017 232.484 94.5234 232.484 95.1483C232.484 95.7732 232.991 96.2797 233.615 96.2797C234.24 96.2797 234.747 95.7732 234.747 95.1483C234.747 94.5234 234.24 94.017 233.615 94.017ZM246.657 94.017C246.032 94.017 245.525 94.5234 245.525 95.1483C245.525 95.7732 246.032 96.2797 246.657 96.2797C247.282 96.2797 247.788 95.7732 247.788 95.1483C247.788 94.5234 247.282 94.017 246.657 94.017ZM227.094 85.2332C226.469 85.2332 225.963 85.7396 225.963 86.3645C225.963 86.9894 226.469 87.4959 227.094 87.4959C227.719 87.4959 228.226 86.9894 228.226 86.3645C228.226 85.7396 227.719 85.2332 227.094 85.2332ZM240.136 85.2332C239.511 85.2332 239.005 85.7396 239.005 86.3645C239.005 86.9894 239.511 87.4959 240.136 87.4959C240.761 87.4959 241.267 86.9894 241.267 86.3645C241.267 85.7396 240.761 85.2332 240.136 85.2332ZM253.178 85.2332C252.553 85.2332 252.046 85.7396 252.046 86.3645C252.046 86.9894 252.553 87.4959 253.178 87.4959C253.803 87.4959 254.309 86.9894 254.309 86.3645C254.309 85.7396 253.803 85.2332 253.178 85.2332ZM220.574 112.209C219.949 112.209 219.442 112.715 219.442 113.34C219.442 113.965 219.949 114.472 220.574 114.472C221.199 114.472 221.705 113.965 221.705 113.34C221.705 112.715 221.199 112.209 220.574 112.209ZM233.617 112.211C232.989 112.211 232.479 112.721 232.479 113.337C232.479 113.824 232.788 114.239 233.214 114.393C233.214 114.393 233.214 114.405 233.226 114.393C233.689 114.262 234.127 114.12 234.554 113.978C234.554 113.966 234.554 113.966 234.566 113.966C234.673 113.788 234.744 113.563 234.744 113.337C234.744 112.721 234.246 112.211 233.617 112.211ZM227.094 103.425C226.469 103.425 225.963 103.932 225.963 104.557C225.963 105.181 226.469 105.688 227.094 105.688C227.719 105.688 228.226 105.181 228.226 104.557C228.226 103.932 227.719 103.425 227.094 103.425ZM240.136 103.425C239.511 103.425 239.005 103.932 239.005 104.557C239.005 105.181 239.511 105.688 240.136 105.688C240.761 105.688 241.267 105.181 241.267 104.557C241.267 103.932 240.761 103.425 240.136 103.425Z" fill="white"/>
<path d="M223.46 113.578C223.162 104.042 222.901 94.4555 223.533 84.9253C223.538 84.8404 223.674 84.8517 223.679 84.9337C224.28 94.4579 223.977 104.037 223.645 113.565C223.641 113.681 223.464 113.699 223.46 113.578Z" fill="#343826"/>
<path d="M240.724 108.822C243.671 104.258 251.822 94.276 263.171 72.9426C263.198 72.8908 263.277 72.9229 263.256 72.9797C262.412 75.1614 261.44 77.2726 260.378 79.3364C260.916 78.6251 261.446 77.9074 262.023 77.2277C262.069 77.1744 262.171 77.2272 262.134 77.2943C261.73 78.0273 261.262 78.6996 260.729 79.3438C260.443 79.6888 260.143 80.022 259.847 80.3587C248.029 102.461 242.295 107.173 240.881 108.918C240.815 108.998 240.667 108.91 240.724 108.822Z" fill="#343826"/>
<path d="M86.4283 153.539H43.6489C43.5097 152.77 43.3705 152.012 43.2368 151.254C43.0862 150.424 42.9357 149.61 42.7851 148.796C42.6681 148.144 42.5511 147.498 42.4342 146.857C42.3784 146.534 42.3172 146.216 42.2614 145.898C42.0274 144.633 41.8043 143.385 41.5817 142.175C41.5259 141.869 41.4701 141.568 41.4203 141.267C41.4149 141.217 41.4035 141.167 41.3867 141.117C41.2811 140.481 41.1641 139.857 41.0466 139.238C41.0244 139.105 41.0022 138.971 40.9741 138.837C40.7347 137.522 40.5061 136.257 40.283 135.036C40.2554 134.836 40.2164 134.64 40.1774 134.445C40.0268 133.604 39.8817 132.79 39.7316 131.993C39.6536 131.586 39.5865 131.185 39.5144 130.784C39.2973 129.603 39.0909 128.477 38.9014 127.418V127.412C38.8732 127.273 38.857 127.14 38.8234 127.011C38.8288 127.006 38.8234 127 38.8234 126.994C38.7898 126.788 38.7508 126.576 38.7118 126.37C38.6728 126.17 38.6284 125.974 38.5948 125.779C38.5948 125.779 38.5948 125.779 38.5948 125.774C38.4556 125.01 38.3273 124.286 38.2103 123.606C38.2103 123.594 38.2049 123.578 38.1995 123.561C38.1437 123.255 38.0938 122.965 38.038 122.681C37.9877 122.396 37.9378 122.118 37.8875 121.856C37.8594 121.678 37.8263 121.499 37.7927 121.332V121.315C37.7429 121.076 37.7039 120.842 37.6644 120.619C37.6254 120.413 37.5918 120.212 37.5588 120.023C37.5311 119.878 37.5084 119.738 37.4808 119.61C37.3973 119.153 37.3248 118.752 37.2577 118.395C37.2187 118.155 37.1797 117.944 37.1407 117.754C37.1239 117.637 37.1017 117.526 37.0849 117.426C37.0735 117.375 37.0681 117.331 37.0567 117.287C37.0459 117.214 37.04 117.147 37.0232 117.092C37.0178 117.064 37.0123 117.03 37.0064 117.002C36.995 116.946 36.995 116.902 36.9842 116.868C36.9788 116.846 36.9788 116.835 36.9728 116.818C36.9615 116.774 36.9561 116.751 36.9561 116.751H77.378C77.378 116.751 81.4517 132.913 86.4283 153.539Z" fill="#DE3529"/>
<path d="M49.9889 153.539H49.4149C47.4083 142.934 45.4245 132.317 43.4575 121.711C43.4407 121.617 43.5799 121.572 43.6021 121.667C45.7424 132.289 47.8935 142.906 49.9889 153.539Z" fill="#37474F"/>
<path d="M69.6306 116.751L68.2318 131.074L68.2263 131.107L67.9311 134.105C67.9311 134.111 67.9311 134.111 67.9311 134.111L67.591 137.566V137.572L67.5244 138.252L67.4632 138.876L66.0307 153.538H43.6494C43.5102 152.769 43.371 152.011 43.2372 151.253C43.0867 150.423 42.9361 149.609 42.7856 148.796C42.6686 148.144 42.5516 147.497 42.4346 146.856C42.3788 146.533 42.3176 146.216 42.2618 145.898C42.0279 144.633 41.8047 143.384 41.5821 142.175C41.5263 141.868 41.4706 141.567 41.4207 141.267C41.4153 141.216 41.4039 141.167 41.3871 141.116C41.2815 140.481 41.1645 139.856 41.047 139.238C41.0248 139.104 41.0026 138.97 40.9745 138.837C40.7405 137.527 40.512 136.262 40.2834 135.036C40.2558 134.835 40.2168 134.64 40.1778 134.445C40.0272 133.603 39.8821 132.79 39.7321 131.993C39.6541 131.586 39.5869 131.185 39.5149 130.783C39.2977 129.602 39.0914 128.476 38.9018 127.417V127.412C38.8737 127.273 38.8574 127.139 38.8238 127.011C38.8293 127.005 38.8238 126.999 38.8238 126.994C38.7903 126.788 38.7513 126.576 38.7123 126.37C38.6733 126.163 38.6397 125.968 38.6007 125.768V125.762C38.4615 124.999 38.3332 124.285 38.2108 123.606C38.2108 123.594 38.2053 123.578 38.1999 123.561C38.1441 123.255 38.0943 122.965 38.0385 122.681C37.9881 122.396 37.9383 122.118 37.8879 121.856C37.8598 121.678 37.8267 121.499 37.7932 121.332V121.315C37.7433 121.076 37.7043 120.842 37.6648 120.619C37.6258 120.413 37.5923 120.212 37.5592 120.023C37.5315 119.878 37.5088 119.738 37.4812 119.61C37.3978 119.153 37.3252 118.752 37.2581 118.395C37.2191 118.155 37.1801 117.944 37.1411 117.754C37.1243 117.637 37.1021 117.526 37.0853 117.426C37.074 117.375 37.0685 117.331 37.0572 117.287C37.0463 117.214 37.0404 117.147 37.0236 117.092C37.0182 117.064 37.0128 117.03 37.0068 117.002C36.9955 116.946 36.9955 116.902 36.9846 116.868C36.9792 116.846 36.9792 116.835 36.9733 116.818C36.9678 116.774 36.9619 116.751 36.9619 116.751H69.6306V116.751Z" fill="#343826"/>
<path d="M76.507 116.751C72.6336 125.356 70.7613 134.501 68.894 136.881L68.8886 136.886C68.8886 136.892 68.8886 136.892 68.8886 136.898C68.5653 137.304 68.0919 137.767 67.5232 138.252C64.6085 140.766 59.1916 143.97 59.1916 143.97C59.1861 144.065 59.1861 144.16 59.1802 144.255V144.26C59.1022 147.231 59.0297 150.335 58.9684 153.539H12.0985C11.2904 145.67 12.0319 133.242 17.2538 116.751H76.507Z" fill="#DE3529"/>
<path d="M70.2285 136.284C67.4677 137.412 64.9864 139.151 62.5356 140.827C59.99 142.567 57.6562 144.577 55.2069 146.444C55.1126 146.516 55.2015 146.671 55.3061 146.604C57.8872 144.957 60.5907 143.507 63.1432 141.811C65.6226 140.162 68.2003 138.559 70.3529 136.486C70.4373 136.404 70.343 136.237 70.2285 136.284Z" fill="#343826"/>
<path d="M70.5765 120.325C70.2482 122.092 69.8193 123.84 69.4382 125.597C69.0804 127.244 68.8173 128.925 68.3814 130.554C67.9589 132.134 67.2866 133.582 66.0728 134.709C65.4262 135.31 64.7144 135.842 64.0248 136.392C63.6536 136.688 63.2518 136.973 62.8658 137.274C62.9161 137.041 62.9566 136.803 62.9986 136.563C63.116 135.893 63.2296 135.223 63.3421 134.552C63.5919 133.065 63.8298 131.574 64.0579 130.083C64.5061 127.151 64.9187 124.188 65.5303 121.286C65.555 121.168 65.3773 121.123 65.3477 121.241C64.6171 124.117 63.8111 126.962 63.1753 129.863C62.8633 131.285 61.7502 138.308 61.7009 138.805C61.65 139.318 61.6071 139.833 61.5888 140.348C61.5705 140.857 61.4698 141.426 61.5873 141.925C61.6174 142.053 61.7719 142.032 61.8262 141.946C61.8287 141.948 61.8312 141.949 61.8336 141.951C62.0893 141.504 62.153 140.919 62.2804 140.425C62.4092 139.924 62.5227 139.415 62.6126 138.905C62.6451 138.722 62.6708 138.533 62.6965 138.345C63.388 137.925 64.0322 137.369 64.6788 136.901C65.3758 136.396 66.0861 135.905 66.7451 135.35C68.0077 134.287 68.797 132.984 69.2674 131.409C69.7556 129.774 69.9062 128.049 70.0947 126.362C70.3178 124.366 70.4812 122.36 70.7596 120.371C70.7759 120.253 70.5992 120.204 70.5765 120.325Z" fill="#343826"/>
<path d="M23.368 132.628C24.1074 132.241 26.9763 132.927 32.1987 132.034C33.2062 131.861 34.2097 131.55 35.0172 130.89C36.3781 129.778 37.4083 127.994 38.2311 126.465C39.1354 124.785 40.0526 122.869 40.4805 121.002C40.5067 120.888 40.6735 120.943 40.6533 121.055C40.4593 122.136 40.3512 123.215 40.0659 124.284C39.7979 125.289 39.4094 126.267 38.9869 127.216C38.1976 128.989 37.2755 130.891 35.6866 132.088C34.0192 133.345 31.6942 133.579 29.6739 133.72C28.5055 133.801 23.9228 133.678 23.3073 133.024C23.1977 132.907 23.2224 132.704 23.368 132.628Z" fill="#343826"/>
<path d="M80.7659 124.759L12.291 122.125C12.291 122.125 25.2024 66.4089 49.7843 44.8316C52.8225 42.1651 59.7745 42.5664 64.0931 45.035C75.7458 51.6953 80.9456 124.535 80.7659 124.759Z" fill="#16A34A"/>
<path opacity="0.2" d="M49.8706 44.7626C49.8409 44.7824 49.8163 44.807 49.7866 44.8317C49.6978 44.9107 49.6089 44.9897 49.5201 45.0736C49.7274 45.2513 49.8607 45.5178 49.8607 45.8189C49.8607 46.3619 49.4164 46.8062 48.8735 46.8062C48.5378 46.8062 48.2564 46.6482 48.0738 46.4113C47.9603 46.5149 47.8517 46.6235 47.7431 46.7321C48.0146 47.0579 48.4193 47.2652 48.8735 47.2652C49.6682 47.2652 50.3197 46.6137 50.3197 45.8189C50.3197 45.4043 50.147 45.0292 49.8706 44.7626ZM61.9295 44.3628C61.1447 44.3628 60.4931 45.0144 60.4931 45.8189C60.4931 46.6137 61.1447 47.2652 61.9295 47.2652C62.739 47.2652 63.3906 46.6137 63.3906 45.8189C63.3906 45.0144 62.739 44.3628 61.9295 44.3628ZM61.9295 46.8062C61.3915 46.8062 60.9373 46.3619 60.9373 45.8189C60.9373 45.2661 61.3915 44.8268 61.9295 44.8268C62.4873 44.8268 62.9266 45.2661 62.9266 45.8189C62.9266 46.3619 62.4873 46.8062 61.9295 46.8062ZM35.8026 64.206C35.0079 64.206 34.3563 64.8576 34.3563 65.6572C34.3563 66.4519 35.0079 67.1035 35.8026 67.1035C36.6023 67.1035 37.2538 66.4519 37.2538 65.6572C37.2538 64.8576 36.6023 64.206 35.8026 64.206ZM35.8026 66.6593C35.2547 66.6593 34.8105 66.2051 34.8105 65.6572C34.8105 65.1044 35.2547 64.67 35.8026 64.67C36.3456 64.67 36.7898 65.1044 36.7898 65.6572C36.7898 66.2051 36.3456 66.6593 35.8026 66.6593ZM48.8735 64.206C48.0689 64.206 47.4173 64.8576 47.4173 65.6572C47.4173 66.4519 48.0689 67.1035 48.8735 67.1035C49.6682 67.1035 50.3197 66.4519 50.3197 65.6572C50.3197 64.8576 49.6682 64.206 48.8735 64.206ZM48.8735 66.6593C48.3107 66.6593 47.8813 66.2051 47.8813 65.6572C47.8813 65.1044 48.3107 64.67 48.8735 64.67C49.4164 64.67 49.8607 65.1044 49.8607 65.6572C49.8607 66.2051 49.4164 66.6593 48.8735 66.6593ZM61.9295 64.206C61.1447 64.206 60.4931 64.8576 60.4931 65.6572C60.4931 66.4519 61.1447 67.1035 61.9295 67.1035C62.739 67.1035 63.3906 66.4519 63.3906 65.6572C63.3906 64.8576 62.739 64.206 61.9295 64.206ZM61.9295 66.6593C61.3915 66.6593 60.9373 66.2051 60.9373 65.6572C60.9373 65.1044 61.3915 64.67 61.9295 64.67C62.4873 64.67 62.9266 65.1044 62.9266 65.6572C62.9266 66.2051 62.4873 66.6593 61.9295 66.6593ZM42.338 54.3881C41.5335 54.3881 40.8819 55.0396 40.8819 55.8393C40.8819 56.634 41.5335 57.2856 42.338 57.2856C43.1377 57.2856 43.7893 56.634 43.7893 55.8393C43.7893 55.0396 43.1377 54.3881 42.338 54.3881ZM42.338 56.8314C41.7951 56.8314 41.3459 56.3872 41.3459 55.8393C41.3459 55.2815 41.7951 54.8521 42.338 54.8521C42.881 54.8521 43.3253 55.2815 43.3253 55.8393C43.3253 56.3872 42.881 56.8314 42.338 56.8314ZM55.3891 54.3881C54.6043 54.3881 53.9577 55.0396 53.9577 55.8393C53.9577 56.634 54.6043 57.2856 55.3891 57.2856C56.2036 57.2856 56.8552 56.634 56.8552 55.8393C56.8552 55.0396 56.2036 54.3881 55.3891 54.3881ZM55.3891 56.8314C54.856 56.8314 54.4217 56.3872 54.4217 55.8393C54.4217 55.2815 54.856 54.8521 55.3891 54.8521C55.9519 54.8521 56.3912 55.2815 56.3912 55.8393C56.3912 56.3872 55.9519 56.8314 55.3891 56.8314ZM68.4649 54.3881C67.6603 54.3881 67.0285 55.0396 67.0285 55.8393C67.0285 56.634 67.6603 57.2856 68.4649 57.2856C69.2745 57.2856 69.926 56.634 69.926 55.8393C69.926 55.0396 69.2745 54.3881 68.4649 54.3881ZM68.4649 56.8314C67.9269 56.8314 67.4728 56.3872 67.4728 55.8393C67.4728 55.2815 67.9269 54.8521 68.4649 54.8521C69.0079 54.8521 69.462 55.2815 69.462 55.8393C69.462 56.3872 69.0079 56.8314 68.4649 56.8314ZM23.8325 86.4432C24.03 86.2112 24.1632 85.9151 24.178 85.5942C24.0596 85.8756 23.946 86.1619 23.8325 86.4432ZM35.8026 84.0443C35.0079 84.0443 34.3563 84.6958 34.3563 85.5103C34.3563 86.2951 35.0079 86.9418 35.8026 86.9418C36.6023 86.9418 37.2538 86.2951 37.2538 85.5103C37.2538 84.6958 36.6023 84.0443 35.8026 84.0443ZM35.8026 86.4975C35.2547 86.4975 34.8105 86.0533 34.8105 85.5103C34.8105 84.9476 35.2547 84.5182 35.8026 84.5182C36.3456 84.5182 36.7898 84.9476 36.7898 85.5103C36.7898 86.0533 36.3456 86.4975 35.8026 86.4975ZM48.8735 84.0443C48.0689 84.0443 47.4173 84.6958 47.4173 85.5103C47.4173 86.2951 48.0689 86.9418 48.8735 86.9418C49.6682 86.9418 50.3197 86.2951 50.3197 85.5103C50.3197 84.6958 49.6682 84.0443 48.8735 84.0443ZM48.8735 86.4975C48.3107 86.4975 47.8813 86.0533 47.8813 85.5103C47.8813 84.9476 48.3107 84.5182 48.8735 84.5182C49.4164 84.5182 49.8607 84.9476 49.8607 85.5103C49.8607 86.0533 49.4164 86.4975 48.8735 86.4975ZM61.9295 84.0443C61.1447 84.0443 60.4931 84.6958 60.4931 85.5103C60.4931 86.2951 61.1447 86.9418 61.9295 86.9418C62.739 86.9418 63.3906 86.2951 63.3906 85.5103C63.3906 84.6958 62.739 84.0443 61.9295 84.0443ZM61.9295 86.4975C61.3915 86.4975 60.9373 86.0533 60.9373 85.5103C60.9373 84.9476 61.3915 84.5182 61.9295 84.5182C62.4873 84.5182 62.9266 84.9476 62.9266 85.5103C62.9266 86.0533 62.4873 86.4975 61.9295 86.4975ZM75.0102 84.0443C74.1958 84.0443 73.5442 84.6958 73.5442 85.5103C73.5442 86.2951 74.1958 86.9418 75.0102 86.9418C75.7951 86.9418 76.4466 86.2951 76.4466 85.5103C76.4466 84.6958 75.7951 84.0443 75.0102 84.0443ZM75.0102 86.4975C74.4673 86.4975 74.0082 86.0533 74.0082 85.5103C74.0082 84.9476 74.4673 84.5182 75.0102 84.5182C75.5433 84.5182 75.9975 84.9476 75.9975 85.5103C75.9975 86.0533 75.5433 86.4975 75.0102 86.4975ZM29.2623 74.2263C29.2573 74.2263 29.2573 74.2263 29.2524 74.2263C29.1734 74.3942 29.0944 74.5571 29.0154 74.7249C29.0944 74.7002 29.1783 74.6903 29.2623 74.6903C29.8151 74.6903 30.2544 75.1445 30.2544 75.6825C30.2544 76.2255 29.8151 76.6796 29.2623 76.6796C28.8575 76.6796 28.512 76.4278 28.3688 76.0724C28.2898 76.2403 28.2109 76.4081 28.1319 76.5759C28.3984 76.9116 28.8081 77.1238 29.2623 77.1238C30.0668 77.1238 30.7184 76.4772 30.7184 75.6825C30.7184 74.8779 30.0668 74.2263 29.2623 74.2263ZM42.338 74.2263C41.5335 74.2263 40.8819 74.8779 40.8819 75.6825C40.8819 76.4772 41.5335 77.1238 42.338 77.1238C43.1377 77.1238 43.7893 76.4772 43.7893 75.6825C43.7893 74.8779 43.1377 74.2263 42.338 74.2263ZM42.338 76.6796C41.7951 76.6796 41.3459 76.2255 41.3459 75.6825C41.3459 75.1445 41.7951 74.6903 42.338 74.6903C42.881 74.6903 43.3253 75.1445 43.3253 75.6825C43.3253 76.2255 42.881 76.6796 42.338 76.6796ZM55.3891 74.2263C54.6043 74.2263 53.9577 74.8779 53.9577 75.6825C53.9577 76.4772 54.6043 77.1238 55.3891 77.1238C56.2036 77.1238 56.8552 76.4772 56.8552 75.6825C56.8552 74.8779 56.2036 74.2263 55.3891 74.2263ZM55.3891 76.6796C54.856 76.6796 54.4217 76.2255 54.4217 75.6825C54.4217 75.1445 54.856 74.6903 55.3891 74.6903C55.9519 74.6903 56.3912 75.1445 56.3912 75.6825C56.3912 76.2255 55.9519 76.6796 55.3891 76.6796ZM68.4649 74.2263C67.6603 74.2263 67.0285 74.8779 67.0285 75.6825C67.0285 76.4772 67.6603 77.1238 68.4649 77.1238C69.2745 77.1238 69.926 76.4772 69.926 75.6825C69.926 74.8779 69.2745 74.2263 68.4649 74.2263ZM68.4649 76.6796C67.9269 76.6796 67.4728 76.2255 67.4728 75.6825C67.4728 75.1445 67.9269 74.6903 68.4649 74.6903C69.0079 74.6903 69.462 75.1445 69.462 75.6825C69.462 76.2255 69.0079 76.6796 68.4649 76.6796ZM22.7367 103.897C21.9321 103.897 21.2855 104.544 21.2855 105.349C21.2855 106.143 21.9321 106.795 22.7367 106.795C23.5314 106.795 24.183 106.143 24.183 105.349C24.183 104.544 23.5314 103.897 22.7367 103.897ZM22.7367 106.341C22.2036 106.341 21.7495 105.892 21.7495 105.349C21.7495 104.786 22.2036 104.361 22.7367 104.361C23.2797 104.361 23.7338 104.786 23.7338 105.349C23.7338 105.892 23.2797 106.341 22.7367 106.341ZM35.8026 103.897C35.0079 103.897 34.3563 104.544 34.3563 105.349C34.3563 106.143 35.0079 106.795 35.8026 106.795C36.6023 106.795 37.2538 106.143 37.2538 105.349C37.2538 104.544 36.6023 103.897 35.8026 103.897ZM35.8026 106.341C35.2547 106.341 34.8105 105.892 34.8105 105.349C34.8105 104.786 35.2547 104.361 35.8026 104.361C36.3456 104.361 36.7898 104.786 36.7898 105.349C36.7898 105.892 36.3456 106.341 35.8026 106.341ZM48.8735 103.897C48.0689 103.897 47.4173 104.544 47.4173 105.349C47.4173 106.143 48.0689 106.795 48.8735 106.795C49.6682 106.795 50.3197 106.143 50.3197 105.349C50.3197 104.544 49.6682 103.897 48.8735 103.897ZM48.8735 106.341C48.3107 106.341 47.8813 105.892 47.8813 105.349C47.8813 104.786 48.3107 104.361 48.8735 104.361C49.4164 104.361 49.8607 104.786 49.8607 105.349C49.8607 105.892 49.4164 106.341 48.8735 106.341ZM61.9443 103.897C61.1447 103.897 60.4931 104.544 60.4931 105.349C60.4931 106.143 61.1447 106.795 61.9443 106.795C62.739 106.795 63.3906 106.143 63.3906 105.349C63.3906 104.544 62.739 103.897 61.9443 103.897ZM61.9443 106.341C61.3915 106.341 60.9571 105.892 60.9571 105.349C60.9571 104.786 61.3915 104.361 61.9443 104.361C62.4873 104.361 62.9365 104.786 62.9365 105.349C62.9365 105.892 62.4873 106.341 61.9443 106.341ZM75.0201 103.897C74.2155 103.897 73.5639 104.544 73.5639 105.349C73.5639 106.143 74.2155 106.795 75.0201 106.795C75.8099 106.795 76.4614 106.143 76.4614 105.349C76.4614 104.544 75.8099 103.897 75.0201 103.897ZM75.0201 106.341C74.4673 106.341 74.0279 105.892 74.0279 105.349C74.0279 104.786 74.4673 104.361 75.0201 104.361C75.5631 104.361 76.0073 104.786 76.0073 105.349C76.0073 105.892 75.5631 106.341 75.0201 106.341ZM29.2623 94.0695C28.4725 94.0695 27.8209 94.7211 27.8209 95.5306C27.8209 96.3155 28.4725 96.967 29.2623 96.967C30.0668 96.967 30.7184 96.3155 30.7184 95.5306C30.7184 94.7211 30.0668 94.0695 29.2623 94.0695ZM29.2623 96.5228C28.7193 96.5228 28.2849 96.0637 28.2849 95.5306C28.2849 94.9877 28.7193 94.5335 29.2623 94.5335C29.8151 94.5335 30.2544 94.9877 30.2544 95.5306C30.2544 96.0637 29.8151 96.5228 29.2623 96.5228ZM42.338 94.0695C41.5335 94.0695 40.8819 94.7211 40.8819 95.5306C40.8819 96.3155 41.5335 96.967 42.338 96.967C43.1377 96.967 43.7893 96.3155 43.7893 95.5306C43.7893 94.7211 43.1377 94.0695 42.338 94.0695ZM42.338 96.5228C41.7951 96.5228 41.3459 96.0637 41.3459 95.5306C41.3459 94.9877 41.7951 94.5335 42.338 94.5335C42.881 94.5335 43.3253 94.9877 43.3253 95.5306C43.3253 96.0637 42.881 96.5228 42.338 96.5228ZM55.3891 94.0695C54.6043 94.0695 53.9577 94.7211 53.9577 95.5306C53.9577 96.3155 54.6043 96.967 55.3891 96.967C56.2036 96.967 56.8552 96.3155 56.8552 95.5306C56.8552 94.7211 56.2036 94.0695 55.3891 94.0695ZM55.3891 96.5228C54.856 96.5228 54.4217 96.0637 54.4217 95.5306C54.4217 94.9877 54.856 94.5335 55.3891 94.5335C55.9519 94.5335 56.3912 94.9877 56.3912 95.5306C56.3912 96.0637 55.9519 96.5228 55.3891 96.5228ZM68.4649 94.0695C67.6603 94.0695 67.0285 94.7211 67.0285 95.5306C67.0285 96.3155 67.6603 96.967 68.4649 96.967C69.2745 96.967 69.926 96.3155 69.926 95.5306C69.926 94.7211 69.2745 94.0695 68.4649 94.0695ZM68.4649 96.5228C67.9269 96.5228 67.4728 96.0637 67.4728 95.5306C67.4728 94.9877 67.9269 94.5335 68.4649 94.5335C69.0079 94.5335 69.462 94.9877 69.462 95.5306C69.462 96.0637 69.0079 96.5228 68.4649 96.5228ZM61.8999 123.736C61.5939 123.736 61.3026 123.834 61.0706 124.002L62.8279 124.066C62.5761 123.859 62.2553 123.736 61.8999 123.736ZM74.9559 123.736C74.4179 123.736 73.949 124.037 73.6972 124.486L74.2451 124.506C74.4278 124.318 74.6844 124.2 74.9559 124.2C75.2768 124.2 75.5532 124.348 75.7358 124.565L76.2837 124.585C76.0567 124.086 75.5483 123.736 74.9559 123.736ZM16.2013 113.918C15.3967 113.918 14.7451 114.569 14.7451 115.374C14.7451 116.164 15.3967 116.815 16.2013 116.815C17.0108 116.815 17.6624 116.164 17.6624 115.374C17.6624 114.569 17.0108 113.918 16.2013 113.918ZM16.2013 116.361C15.6583 116.361 15.2091 115.917 15.2091 115.374C15.2091 114.826 15.6583 114.382 16.2013 114.382C16.7442 114.382 17.1885 114.826 17.1885 115.374C17.1885 115.917 16.7442 116.361 16.2013 116.361ZM29.2623 113.918C28.4725 113.918 27.8209 114.569 27.8209 115.374C27.8209 116.164 28.4725 116.815 29.2623 116.815C30.0668 116.815 30.7184 116.164 30.7184 115.374C30.7184 114.569 30.0668 113.918 29.2623 113.918ZM29.2623 116.361C28.7193 116.361 28.2849 115.917 28.2849 115.374C28.2849 114.826 28.7193 114.382 29.2623 114.382C29.8151 114.382 30.2544 114.826 30.2544 115.374C30.2544 115.917 29.8151 116.361 29.2623 116.361ZM42.338 113.918C41.5335 113.918 40.8819 114.569 40.8819 115.374C40.8819 116.164 41.5335 116.815 42.338 116.815C43.1377 116.815 43.7893 116.164 43.7893 115.374C43.7893 114.569 43.1377 113.918 42.338 113.918ZM42.338 116.361C41.7951 116.361 41.3459 115.917 41.3459 115.374C41.3459 114.826 41.7951 114.382 42.338 114.382C42.881 114.382 43.3253 114.826 43.3253 115.374C43.3253 115.917 42.881 116.361 42.338 116.361ZM55.399 113.918C54.5994 113.918 53.9478 114.569 53.9478 115.374C53.9478 116.164 54.5994 116.815 55.399 116.815C56.2135 116.815 56.8552 116.164 56.8552 115.374C56.8552 114.569 56.2135 113.918 55.399 113.918ZM55.399 116.361C54.856 116.361 54.4118 115.917 54.4118 115.374C54.4118 114.826 54.856 114.382 55.399 114.382C55.942 114.382 56.3912 114.826 56.3912 115.374C56.3912 115.917 55.942 116.361 55.399 116.361ZM68.4649 113.918C67.6603 113.918 67.0088 114.569 67.0088 115.374C67.0088 116.164 67.6603 116.815 68.4649 116.815C69.2745 116.815 69.926 116.164 69.926 115.374C69.926 114.569 69.2745 113.918 68.4649 113.918ZM68.4649 116.361C67.9269 116.361 67.4728 115.917 67.4728 115.374C67.4728 114.826 67.9269 114.382 68.4649 114.382C69.0079 114.382 69.462 114.826 69.462 115.374C69.462 115.917 69.0079 116.361 68.4649 116.361Z" fill="black"/>
<path d="M63.0798 59.1113C59.1427 59.2061 53.9164 52.1168 52.3551 46.9368C52.2499 46.5809 53.447 43.3285 54.7136 39.3076C55.4732 36.8642 56.261 34.1261 56.7996 31.5751C56.9077 31.0509 71.9767 38.8391 71.9767 38.8391C71.9767 38.8391 69.2751 43.8537 68.3634 48.3066C68.2914 48.6798 68.2553 49.0327 68.2524 49.3768C68.2474 49.4256 68.2494 49.4868 68.239 49.555C68.1428 51.6118 66.8846 59.017 63.0798 59.1113Z" fill="#FFCFCD"/>
<path d="M55.8535 35.4329C59.797 45.2385 67.1706 46.1186 68.9036 46.1882C70.0567 42.3997 71.9769 38.8383 71.9769 38.8383C71.9769 38.8383 56.9059 31.0506 56.8003 31.5768C56.5312 32.8345 56.205 34.1441 55.8535 35.4329Z" fill="#343826"/>
<path d="M52.2631 12.8525C50.5596 18.6697 53.8106 35.3814 57.9757 39.0687C64.0145 44.414 73.8068 44.8208 78.3239 37.5839C82.7032 30.5687 78.0815 8.86409 73.4376 5.52332C66.5976 0.602005 54.7795 4.25967 52.2631 12.8525Z" fill="#FFCFCD"/>
<path d="M68.7144 23.7916C68.6976 23.7507 68.6364 23.8617 68.6467 23.9076C68.896 25.0276 68.9928 26.352 68.044 26.9191C68.0149 26.9364 68.0287 26.9927 68.0653 26.9804C69.2761 26.5697 69.13 24.8124 68.7144 23.7916Z" fill="#343826"/>
<path d="M67.4849 22.8062C65.6467 23.012 66.1936 26.6731 67.8966 26.4826C69.5724 26.295 69.026 22.6339 67.4849 22.8062Z" fill="#343826"/>
<path d="M75.3299 22.5638C75.3324 22.5193 75.4267 22.6042 75.4321 22.6506C75.5659 23.7899 75.9099 25.0728 76.9919 25.2959C77.0255 25.3028 77.0309 25.3606 76.9919 25.3606C75.7139 25.3719 75.2736 23.6645 75.3299 22.5638Z" fill="#343826"/>
<path d="M76.1658 21.2286C77.969 20.8179 78.658 24.4548 76.9872 24.8354C75.3429 25.21 74.6539 21.5726 76.1658 21.2286Z" fill="#343826"/>
<path d="M66.1184 20.8402C66.61 20.6718 67.0355 20.4339 67.5049 20.2172C68.0341 19.9724 68.4813 19.8322 68.7982 19.3124C68.968 19.0335 68.8485 18.5691 68.5933 18.3785C67.999 17.9348 67.2764 18.0735 66.6268 18.342C65.9224 18.6337 65.454 19.0385 65.0921 19.7083C64.7417 20.3579 65.4698 21.0618 66.1184 20.8402Z" fill="#343826"/>
<path d="M77.3054 19.1743C76.7856 19.1674 76.3068 19.0741 75.7939 19.0139C75.2144 18.9463 74.7465 18.9517 74.284 18.5563C74.0357 18.3446 74.0041 17.8658 74.1877 17.6056C74.6142 16.999 75.3442 16.9062 76.0452 16.959C76.8053 17.0167 77.3769 17.2557 77.9288 17.7799C78.4634 18.2878 77.991 19.1832 77.3054 19.1743Z" fill="#343826"/>
<path d="M68.9485 34.0546C69.26 34.2797 69.5853 34.6045 70.0019 34.5778C70.4017 34.5522 70.8376 34.3049 71.1786 34.1104C71.2122 34.0916 71.2542 34.1237 71.2364 34.1612C71.0069 34.6405 70.4284 35.0053 69.8888 34.992C69.3621 34.9792 69.0423 34.5734 68.8473 34.1222C68.8197 34.0586 68.9026 34.022 68.9485 34.0546Z" fill="#343826"/>
<path d="M69.633 30.4807C70.4149 31.3702 71.4282 31.7691 72.4673 31.814C72.9313 31.8372 73.4076 31.7819 73.8662 31.6704C73.957 31.6546 74.0469 31.6309 74.1268 31.6003C74.2083 31.5776 74.2813 31.5573 74.3697 31.5247C74.4995 31.4857 74.5558 31.3653 74.5592 31.237L74.5577 31.2286C74.5508 31.1871 74.5454 31.154 74.5296 31.1141C74.5296 31.1141 74.5296 31.1141 74.5281 31.1057L74.5113 31.0064C74.4047 30.1298 74.1219 28.8143 74.1219 28.8143C74.4649 28.9264 76.201 29.4155 76.1067 28.9629C75.3174 25.2198 74.4398 21.0572 72.8637 17.4992C72.8178 17.3793 72.6312 17.4366 72.6608 17.559C73.2768 21.1865 74.5271 24.6808 75.2044 28.3148C74.656 28.1948 73.7546 27.9564 73.299 28.0334C73.1806 28.0877 73.8914 30.5661 73.9077 30.964C73.9077 30.964 73.9106 30.9803 73.9062 31.0064C72.4673 31.4132 71.295 31.1348 69.7238 30.3623C69.6295 30.3109 69.551 30.4008 69.633 30.4807Z" fill="#343826"/>
<path d="M50.7766 28.369C55.4689 28.4623 57.6299 22.7651 56.3105 18.3344C56.3105 18.3344 68.8255 19.3601 68.9208 9.34967C68.9208 9.34967 71.5809 13.5592 77.2273 13.4244L78.5615 16.7864C79.8183 16.3535 81.234 12.9091 77.9712 10.2229C77.9712 10.2229 77.5067 5.25861 73.6896 2.45637C69.873 -0.345862 66.3269 1.79987 66.3269 1.79987C66.3269 1.79987 63.2892 -0.488025 58.7381 0.32841C54.187 1.14435 52.5112 5.41558 52.5112 5.41558C52.5112 5.41558 46.4116 6.90135 45.5818 11.3286C44.7531 15.7558 47.1604 18.5753 47.1604 18.5753C47.1604 18.5753 45.7013 20.371 46.6732 24.0652C47.2986 26.44 49.3683 28.3409 50.7766 28.369Z" fill="#343826"/>
<path d="M68.6015 8.47705C68.7249 9.28756 68.7979 10.103 68.7515 10.913C68.7456 11.723 68.6168 12.5222 68.4188 13.2932C67.9929 14.8274 67.0644 16.1971 65.7198 17.02C64.4211 17.9475 62.7704 18.1662 61.1943 18.4001C60.3878 18.4164 59.5753 18.49 58.7628 18.4604C57.9498 18.4194 57.1354 18.3587 56.3115 18.334C57.1156 18.488 57.9296 18.6055 58.7445 18.7427C59.5634 18.8301 60.3937 18.8069 61.2235 18.8429C62.8613 18.6933 64.5879 18.4683 66.0322 17.5037C67.4686 16.5738 68.4963 15.0485 68.8473 13.3998C69.1933 11.7527 69.0793 10.0467 68.6015 8.47705Z" fill="#343826"/>
<path d="M75.2992 13.9245C73.8904 13.4896 72.5661 12.9175 71.4263 12.0828C70.8443 11.6825 70.3488 11.1785 69.8946 10.638C69.4222 10.1014 69.1093 9.4553 68.7549 8.80176C68.8798 9.52589 69.1068 10.2648 69.5333 10.8957C69.9326 11.5403 70.4682 12.107 71.0862 12.5488C71.7047 12.9886 72.3829 13.343 73.0997 13.5676C73.8144 13.7942 74.5548 13.9437 75.2992 13.9245Z" fill="#343826"/>
<path d="M57.2426 28.2473C57.2426 28.2473 53.2877 22.9529 50.8735 24.3799C48.4597 25.8069 51.5527 33.564 54.4695 34.5473C57.3867 35.5301 58.3492 32.8473 58.3492 32.8473L57.2426 28.2473Z" fill="#FFCFCD"/>
<path d="M51.8158 26.5816C51.7694 26.5791 51.7625 26.6443 51.8029 26.6596C53.8505 27.4148 54.9739 29.2565 55.7805 31.1771C55.1556 30.4476 54.3238 30.0636 53.344 30.8109C53.2927 30.8499 53.3455 30.9313 53.4022 30.917C54.2251 30.7136 54.8268 30.8385 55.4078 31.4842C55.8185 31.9413 56.1082 32.5267 56.4088 33.0603C56.509 33.238 56.8324 33.1309 56.7573 32.925C56.7519 32.9097 56.745 32.8939 56.7391 32.8786C56.709 30.299 54.5919 26.7544 51.8158 26.5816Z" fill="#343826"/>
<path d="M47.9735 62.9314C52.5759 70.9901 75.0224 103.721 85.1069 105.757C100.915 108.948 118.948 105.896 129.135 105.237C134.671 104.879 131.692 74.8654 125.614 76.1671C115.681 78.2946 95.7393 76.9248 92.8473 77.1923C89.9552 77.4604 69.4234 63.6333 57.4212 55.3752C46.9714 48.1857 41.1908 51.0546 47.9735 62.9314Z" fill="#FFCFCD"/>
<path d="M123.472 78.9809C123.472 78.9809 131.566 71.4331 137.046 68.7839C144.384 65.2368 152.18 65.1953 155.448 65.3755C162.27 65.7511 178.503 71.3753 177.699 76.3332C176.971 80.8216 160.667 74.2343 160.667 74.2343C160.667 74.2343 178.399 78.2074 176.529 83.4511C174.658 88.6942 156.168 79.9706 156.168 79.9706C156.168 79.9706 174.294 84.4615 171.51 89.5635C169.407 93.4191 152.214 86.4616 152.214 86.4616C152.214 86.4616 167.768 90.4293 165.775 94.4877C163.573 98.9722 147.3 93.5454 147.3 93.5454C140.498 103.008 133.389 104.732 128.186 105.356C126.925 105.507 123.472 78.9809 123.472 78.9809Z" fill="#FFCFCD"/>
<path d="M153.941 71.9593C156.041 72.3507 158.169 72.7322 160.227 73.3093C162.285 73.8858 164.324 74.5349 166.318 75.3005C171.211 77.1782 173.981 79.1196 173.797 79.0184C169.442 76.6234 162.107 74.4451 160.049 73.8685C157.996 73.293 155.971 72.6143 153.917 72.0372C153.865 72.0224 153.892 71.9504 153.941 71.9593Z" fill="#343826"/>
<path d="M151.724 79.3515C154.384 79.9675 157.046 80.4814 159.679 81.2144C162.3 81.9439 164.722 82.866 167.285 83.7742C167.482 83.8443 167.38 83.9273 167.179 83.8651C164.582 83.06 162.118 82.516 159.512 81.741C156.915 80.969 154.328 80.0899 151.705 79.4137C151.663 79.4033 151.683 79.3426 151.724 79.3515Z" fill="#343826"/>
<path d="M148.68 85.3542C152.793 86.0867 156.765 87.5774 160.626 89.1333C160.819 89.2108 160.675 89.3036 160.473 89.236C156.526 87.9047 153.438 86.8326 148.654 85.4974C148.579 85.4766 148.593 85.3389 148.68 85.3542Z" fill="#343826"/>
<path d="M72.8246 63.7277L57.2166 80.2504C57.2166 80.2504 47.3128 66.5141 44.513 57.7644C42.5297 51.5656 42.8273 45.0119 56.024 52.4294C69.2207 59.8464 72.8246 63.7277 72.8246 63.7277Z" fill="#16A34A"/>
<path opacity="0.2" d="M55.3923 74.225C54.6667 74.225 54.0596 74.7778 53.9757 75.4985C54.3459 76.0662 54.6964 76.5894 55.0221 77.0731C55.1406 77.1028 55.264 77.1225 55.3923 77.1225C56.2068 77.1225 56.8584 76.4759 56.8584 75.6812C56.8584 74.8766 56.2068 74.225 55.3923 74.225ZM55.3923 76.6782C54.8592 76.6782 54.4249 76.2241 54.4249 75.6812C54.4249 75.1431 54.8592 74.689 55.3923 74.689C55.9551 74.689 56.3944 75.1431 56.3944 75.6812C56.3944 76.2241 55.9551 76.6782 55.3923 76.6782ZM55.3923 54.3867C54.6075 54.3867 53.9609 55.0383 53.9609 55.8379C53.9609 56.6327 54.6075 57.2842 55.3923 57.2842C56.2068 57.2842 56.8584 56.6327 56.8584 55.8379C56.8584 55.0383 56.2068 54.3867 55.3923 54.3867ZM55.3923 56.8301C54.8592 56.8301 54.4249 56.3858 54.4249 55.8379C54.4249 55.2802 54.8592 54.8507 55.3923 54.8507C55.9551 54.8507 56.3944 55.2802 56.3944 55.8379C56.3944 56.3858 55.9551 56.8301 55.3923 56.8301ZM61.9327 64.2047C61.1479 64.2047 60.4963 64.8562 60.4963 65.6559C60.4963 66.4506 61.1479 67.1022 61.9327 67.1022C62.7422 67.1022 63.3938 66.4506 63.3938 65.6559C63.3938 64.8562 62.7422 64.2047 61.9327 64.2047ZM61.9327 66.6579C61.3947 66.6579 60.9405 66.2038 60.9405 65.6559C60.9405 65.103 61.3947 64.6687 61.9327 64.6687C62.4905 64.6687 62.9298 65.103 62.9298 65.6559C62.9298 66.2038 62.4905 66.6579 61.9327 66.6579ZM48.8767 64.2047C48.3534 64.2047 47.8944 64.4811 47.6377 64.8908C47.7315 65.0685 47.8203 65.2413 47.9141 65.414C48.0178 64.9796 48.3979 64.6687 48.8767 64.6687C49.4196 64.6687 49.8639 65.103 49.8639 65.6559C49.8639 66.2038 49.4196 66.6579 48.8767 66.6579C48.7631 66.6579 48.6595 66.6382 48.5608 66.6086C48.6545 66.7715 48.7434 66.9343 48.8322 67.0972H48.8372C48.852 67.1022 48.8619 67.1022 48.8767 67.1022C49.6714 67.1022 50.3229 66.4506 50.3229 65.6559C50.3229 64.8562 49.6714 64.2047 48.8767 64.2047Z" fill="black"/>
<path d="M56.0332 75.3184C56.8841 74.1263 57.9306 73.0611 58.9223 71.988C59.9169 70.9119 60.9308 69.8526 61.9471 68.7973C62.9723 67.7326 64.0001 66.6688 65.051 65.6298C66.1305 64.5626 67.2633 63.562 68.367 62.5255C68.4302 62.4657 68.5388 62.563 68.4801 62.6301C67.5121 63.7358 66.5821 64.8716 65.5836 65.9551C64.5899 67.0326 63.5716 68.087 62.5562 69.1438C61.5325 70.209 60.5003 71.2693 59.4509 72.3098C58.3818 73.3701 57.3254 74.4882 56.1289 75.4073C56.0712 75.4522 55.9887 75.3811 56.0332 75.3184Z" fill="#343826"/>
<path d="M64.6826 57.6235C66.1955 58.4148 67.6344 59.3285 69.0294 60.3058C69.7263 60.796 70.4075 61.3093 71.0705 61.8493C71.7265 62.3968 72.377 62.959 72.924 63.6426L73.0024 63.7409L72.9195 63.8169C72.5153 64.1861 72.1184 64.5622 71.7003 64.9181C72.032 64.4803 72.3844 64.0627 72.7305 63.6382L72.726 63.8119C72.1352 63.2305 71.4579 62.7201 70.7886 62.2077L68.7495 60.6968C67.3817 59.6957 66.0134 58.6922 64.6826 57.6235Z" fill="#343826"/>
<path d="M58.9585 78.4053C58.4175 79.0579 57.8543 79.6887 57.3024 80.3309L57.216 80.4316L57.1252 80.325C56.1434 79.1714 55.1962 77.9922 54.3116 76.7641C53.4201 75.5419 52.5766 74.2846 51.7789 72.9993C50.9728 71.7188 50.223 70.4024 49.5364 69.0543C48.8291 67.7171 48.217 66.3306 47.6582 64.9277C48.3764 66.258 49.0764 67.5903 49.8405 68.888C50.6011 70.1867 51.3791 71.4735 52.1876 72.7421C52.9971 74.0097 53.8229 75.2669 54.6779 76.5054C55.5377 77.7389 56.3917 78.9823 57.3083 80.1739L57.1311 80.168C57.7397 79.5811 58.338 78.9828 58.9585 78.4053Z" fill="#343826"/>
<path d="M47.7783 67.6885C48.2685 68.0108 48.6876 68.3879 49.1012 68.773C49.5084 69.1659 49.9053 69.5588 50.2686 70.0203C49.7261 69.7908 49.2661 69.4319 48.847 69.0415C48.4353 68.6421 48.0542 68.2078 47.7783 67.6885Z" fill="#343826"/>
</svg>
