<svg width="137" height="138" viewBox="0 0 137 138" fill="none" xmlns="http://www.w3.org/2000/svg">
<path d="M136.997 68.625C136.997 54.0134 132.325 39.7845 123.662 28.0173C115 16.25 102.802 7.56105 88.8502 3.21973L81.2183 27.7467C89.9382 30.4601 97.562 35.8907 102.976 43.2452C108.39 50.5997 111.31 59.4927 111.31 68.625H136.997Z" fill="#45B56E"/>
<path d="M88.8416 3.22215C79.685 0.372923 70.0321 -0.521907 60.5077 0.595576C50.9833 1.71306 41.7997 4.81795 33.5513 9.7093L46.6532 31.8036C51.8085 28.7465 57.5483 26.806 63.501 26.1075C69.4537 25.4091 75.4868 25.9684 81.2097 27.7491L88.8416 3.22215Z" fill="#94D5AC"/>
<path d="M33.5605 9.71094C24.1818 15.2726 16.2662 22.9928 10.472 32.2297C4.67788 41.4666 1.17254 51.9532 0.247466 62.8177C-0.677607 73.6822 1.00432 84.6105 5.15341 94.6941C9.3025 104.778 15.7989 113.725 24.1023 120.792L40.7511 101.231C35.5615 96.814 31.5012 91.2219 28.908 84.9197C26.3148 78.6175 25.2636 71.7873 25.8418 64.997C26.42 58.2067 28.6108 51.6525 32.2322 45.8795C35.8535 40.1064 40.8008 35.2813 46.6625 31.8053L33.5605 9.71094Z" fill="#16A34A"/>
<path d="M24.1035 120.793C32.9472 128.32 43.5594 133.475 54.9428 135.774C66.3263 138.072 78.1072 137.439 89.1786 133.933L81.4242 109.444C74.5046 111.635 67.1415 112.031 60.0269 110.595C52.9122 109.158 46.2796 105.936 40.7523 101.232L24.1035 120.793Z" fill="#16A34A"/>
<path d="M89.1792 133.93C103.053 129.537 115.168 120.839 123.766 109.097C132.364 97.3556 136.999 83.1806 136.999 68.6274H111.312C111.312 77.7232 108.415 86.5826 103.042 93.9211C97.6677 101.26 90.0962 106.696 81.4248 109.442L89.1792 133.93Z" fill="#45B56E"/>
</svg>
