<svg width="27" height="26" viewBox="0 0 27 26" fill="none" xmlns="http://www.w3.org/2000/svg">
<path d="M24.6665 10.0215C24.4048 10.0653 24.1711 10.2113 24.017 10.4273C23.8629 10.6434 23.8009 10.9118 23.8447 11.1736C23.9463 11.7805 23.9973 12.3947 23.9973 13.01C23.9997 15.7048 23.0093 18.3061 21.2153 20.3169C20.0992 18.6995 18.5298 17.4482 16.7045 16.7204C17.685 15.9481 18.4005 14.8894 18.7514 13.6917C19.1024 12.4939 19.0714 11.2165 18.6627 10.0372C18.2541 8.85782 17.4881 7.83514 16.4713 7.11134C15.4545 6.38754 14.2374 5.99859 12.9894 5.99859C11.7413 5.99859 10.5242 6.38754 9.50743 7.11134C8.49064 7.83514 7.72466 8.85782 7.31601 10.0372C6.90736 11.2165 6.87635 12.4939 7.2273 13.6917C7.57825 14.8894 8.29371 15.9481 9.27419 16.7204C7.4489 17.4482 5.87953 18.6995 4.76344 20.3169C3.35583 18.7306 2.43636 16.7715 2.11559 14.6751C1.79482 12.5787 2.08642 10.4342 2.95531 8.49963C3.8242 6.56501 5.2334 4.92256 7.01346 3.76979C8.79352 2.61702 10.8687 2.003 12.9894 2.00155C13.6046 2.00145 14.2189 2.0525 14.8257 2.15417C15.0863 2.19529 15.3525 2.13184 15.5666 1.97764C15.7806 1.82344 15.9251 1.59096 15.9687 1.33076C16.0122 1.07057 15.9512 0.803706 15.799 0.58823C15.6468 0.372754 15.4157 0.226094 15.1559 0.180153C12.4383 -0.277055 9.64563 0.141291 7.18122 1.37479C4.71682 2.60828 2.70817 4.5931 1.44528 7.04267C0.182401 9.49224 -0.269363 12.2798 0.15522 15.0029C0.579804 17.7259 1.85876 20.2436 3.80744 22.1924C5.75611 24.1411 8.27366 25.4202 10.9966 25.8448C13.7195 26.2694 16.507 25.8176 18.9564 24.5546C21.4059 23.2917 23.3906 21.283 24.624 18.8184C25.8575 16.3539 26.2758 13.5611 25.8186 10.8433C25.7748 10.5816 25.6288 10.3479 25.4128 10.1938C25.1967 10.0397 24.9283 9.97768 24.6665 10.0215ZM8.98648 12.0092C8.98648 11.2175 9.22125 10.4436 9.66109 9.78525C10.1009 9.12695 10.7261 8.61386 11.4575 8.31088C12.189 8.0079 12.9938 7.92862 13.7703 8.08308C14.5468 8.23754 15.26 8.6188 15.8198 9.17864C16.3796 9.73848 16.7609 10.4518 16.9153 11.2283C17.0698 12.0048 16.9905 12.8097 16.6875 13.5411C16.3846 14.2726 15.8715 14.8978 15.2132 15.3377C14.555 15.7775 13.7811 16.0123 12.9894 16.0123C11.9277 16.0123 10.9096 15.5906 10.1589 14.8398C9.40821 14.0891 8.98648 13.0709 8.98648 12.0092ZM6.24451 21.7042C6.96845 20.5719 7.96575 19.6401 9.1445 18.9947C10.3232 18.3492 11.6455 18.0109 12.9894 18.0109C14.3332 18.0109 15.6555 18.3492 16.8342 18.9947C18.013 19.6401 19.0103 20.5719 19.7342 21.7042C17.8057 23.2041 15.4324 24.0184 12.9894 24.0184C10.5463 24.0184 8.17298 23.2041 6.24451 21.7042ZM26.7067 2.7096L22.7039 6.71267C22.6109 6.80572 22.5005 6.87953 22.3791 6.9299C22.2576 6.98026 22.1274 7.00618 21.9958 7.00618C21.8643 7.00618 21.7341 6.98026 21.6126 6.9299C21.4911 6.87953 21.3808 6.80572 21.2878 6.71267L19.2864 4.71113C19.1934 4.61815 19.1197 4.50777 19.0693 4.38628C19.019 4.26479 18.9931 4.13459 18.9931 4.00309C18.9931 3.87159 19.019 3.74138 19.0693 3.6199C19.1197 3.49841 19.1934 3.38803 19.2864 3.29505C19.4742 3.10726 19.7288 3.00176 19.9944 3.00176C20.1259 3.00176 20.2561 3.02766 20.3776 3.07799C20.4991 3.12831 20.6094 3.20206 20.7024 3.29505L21.9958 4.58979L25.2907 1.29351C25.3837 1.20053 25.4941 1.12677 25.6156 1.07645C25.737 1.02613 25.8672 1.00023 25.9987 1.00023C26.1302 1.00023 26.2604 1.02613 26.3819 1.07645C26.5034 1.12677 26.6138 1.20053 26.7067 1.29351C26.7997 1.38649 26.8735 1.49687 26.9238 1.61836C26.9741 1.73985 27 1.87006 27 2.00155C27 2.13305 26.9741 2.26326 26.9238 2.38474C26.8735 2.50623 26.7997 2.61661 26.7067 2.7096Z" fill="#16A34A"/>
</svg>
