<svg width="26" height="26" viewBox="0 0 26 26" fill="none" xmlns="http://www.w3.org/2000/svg">
<path d="M20.5833 10.8333C20.5833 11.1207 20.4692 11.3962 20.266 11.5994C20.0629 11.8025 19.7873 11.9167 19.5 11.9167H10.8333C10.546 11.9167 10.2705 11.8025 10.0673 11.5994C9.86414 11.3962 9.75 11.1207 9.75 10.8333C9.75 10.546 9.86414 10.2705 10.0673 10.0673C10.2705 9.86414 10.546 9.75 10.8333 9.75H19.5C19.7873 9.75 20.0629 9.86414 20.266 10.0673C20.4692 10.2705 20.5833 10.546 20.5833 10.8333ZM19.5 14.0833H10.8333C10.546 14.0833 10.2705 14.1975 10.0673 14.4006C9.86414 14.6038 9.75 14.8793 9.75 15.1667C9.75 15.454 9.86414 15.7295 10.0673 15.9327C10.2705 16.1359 10.546 16.25 10.8333 16.25H19.5C19.7873 16.25 20.0629 16.1359 20.266 15.9327C20.4692 15.7295 20.5833 15.454 20.5833 15.1667C20.5833 14.8793 20.4692 14.6038 20.266 14.4006C20.0629 14.1975 19.7873 14.0833 19.5 14.0833ZM26 2.16667V23.8333C26 24.408 25.7717 24.9591 25.3654 25.3654C24.9591 25.7717 24.408 26 23.8333 26H2.16667C1.59203 26 1.04093 25.7717 0.634602 25.3654C0.228273 24.9591 0 24.408 0 23.8333V2.16667C0 1.59203 0.228273 1.04093 0.634602 0.634602C1.04093 0.228273 1.59203 0 2.16667 0H23.8333C24.408 0 24.9591 0.228273 25.3654 0.634602C25.7717 1.04093 26 1.59203 26 2.16667ZM2.16667 23.8333H5.41667V2.16667H2.16667V23.8333ZM23.8333 23.8333V2.16667H7.58333V23.8333H23.8333Z" fill="#16A34A"/>
</svg>
