<svg width="21" height="26" viewBox="0 0 21 26" fill="none" xmlns="http://www.w3.org/2000/svg">
<path d="M15.9546 25.0715C15.9546 25.3178 15.8588 25.5539 15.6883 25.7281C15.5178 25.9022 15.2866 26 15.0455 26H5.95464C5.71354 26 5.48231 25.9022 5.31183 25.7281C5.14134 25.5539 5.04556 25.3178 5.04556 25.0715C5.04556 24.8253 5.14134 24.5891 5.31183 24.415C5.48231 24.2409 5.71354 24.1431 5.95464 24.1431H15.0455C15.2866 24.1431 15.5178 24.2409 15.6883 24.415C15.8588 24.5891 15.9546 24.8253 15.9546 25.0715ZM20.5 10.2161C20.5039 11.7639 20.1615 13.2921 19.499 14.6842C18.8365 16.0763 17.8714 17.2954 16.6773 18.2485C16.454 18.4233 16.2728 18.6479 16.1475 18.9052C16.0223 19.1624 15.9563 19.4455 15.9546 19.7329V20.4292C15.9546 20.9217 15.763 21.394 15.422 21.7423C15.0811 22.0905 14.6186 22.2861 14.1364 22.2861H6.86373C6.38152 22.2861 5.91906 22.0905 5.57809 21.7423C5.23712 21.394 5.04556 20.9217 5.04556 20.4292V19.7329C5.04538 19.449 4.98146 19.1689 4.85874 18.9142C4.73601 18.6595 4.55773 18.4369 4.33761 18.2636C3.14664 17.3162 2.18225 16.1047 1.51741 14.7205C0.852572 13.3363 0.504711 11.8158 0.500149 10.2741C0.470604 4.74162 4.84784 0.136431 10.2592 0.00296434C11.5925 -0.0298515 12.9188 0.210074 14.16 0.708619C15.4012 1.20716 16.5322 1.95425 17.4864 2.90592C18.4407 3.85758 19.1989 4.99459 19.7164 6.25002C20.2339 7.50544 20.5004 8.85392 20.5 10.2161ZM18.6818 10.2161C18.6821 9.10153 18.4641 7.99818 18.0406 6.97097C17.6172 5.94376 16.9968 5.01345 16.2159 4.23481C15.4351 3.45617 14.5097 2.84492 13.4941 2.43706C12.4785 2.0292 11.3933 1.83296 10.3023 1.8599C5.87055 1.96667 2.29445 5.73508 2.31831 10.2613C2.32238 11.5224 2.60728 12.7661 3.15143 13.8981C3.69559 15.0301 4.48475 16.0209 5.45919 16.7954C5.89719 17.1432 6.25148 17.5887 6.49493 18.0978C6.73837 18.607 6.86452 19.1662 6.86373 19.7329V20.4292H9.59098V15.2426L6.22055 11.8014C6.04997 11.6272 5.95414 11.3909 5.95414 11.1446C5.95414 10.8982 6.04997 10.6619 6.22055 10.4877C6.39113 10.3134 6.62249 10.2156 6.86373 10.2156C7.10497 10.2156 7.33632 10.3134 7.5069 10.4877L10.5001 13.5458L13.4932 10.4877C13.5777 10.4014 13.6779 10.333 13.7883 10.2863C13.8987 10.2396 14.0169 10.2156 14.1364 10.2156C14.2558 10.2156 14.3741 10.2396 14.4845 10.2863C14.5948 10.333 14.6951 10.4014 14.7796 10.4877C14.864 10.5739 14.931 10.6763 14.9767 10.789C15.0224 10.9018 15.046 11.0226 15.046 11.1446C15.046 11.2665 15.0224 11.3873 14.9767 11.5001C14.931 11.6128 14.864 11.7152 14.7796 11.8014L11.4091 15.2426V20.4292H14.1364V19.7329C14.1374 19.1646 14.2656 18.6041 14.5112 18.0942C14.7568 17.5842 15.1133 17.1384 15.5534 16.7908C16.5308 16.0107 17.3207 15.0128 17.8629 13.8733C18.4051 12.7339 18.6852 11.483 18.6818 10.2161Z" fill="#16A34A"/>
</svg>
