<svg width="23" height="26" viewBox="0 0 23 26" fill="none" xmlns="http://www.w3.org/2000/svg">
<path d="M20.9822 2.69781L6.0592 0.0281125C5.58047 -0.0572357 5.08788 0.053538 4.68976 0.336074C4.29164 0.61861 4.02057 1.04977 3.93618 1.53475L0.527672 21.1512C0.485983 21.3915 0.491445 21.6378 0.543745 21.876C0.596045 22.1142 0.694158 22.3396 0.832479 22.5393C0.970799 22.7391 1.14661 22.9092 1.34988 23.0401C1.55314 23.171 1.77987 23.26 2.0171 23.3021L16.9401 25.9718C17.1774 26.0142 17.4206 26.0088 17.6558 25.9559C17.891 25.903 18.1137 25.8036 18.3109 25.6634C18.5082 25.5233 18.6763 25.3451 18.8056 25.1391C18.9348 24.9331 19.0227 24.7033 19.0642 24.4628L22.4727 4.84634C22.5562 4.36118 22.4461 3.86228 22.1666 3.45937C21.8871 3.05646 21.461 2.78252 20.9822 2.69781ZM17.2563 24.1424L2.33218 21.4727L5.74069 1.85627L20.6637 4.52597L17.2563 24.1424ZM7.06857 4.92294C7.11103 4.68055 7.24676 4.46516 7.44592 4.32411C7.64508 4.18307 7.89137 4.12792 8.13065 4.17079L17.6401 5.87127C17.8661 5.91138 18.069 6.0359 18.2088 6.22024C18.3486 6.40459 18.415 6.63533 18.395 6.8669C18.375 7.09847 18.27 7.31401 18.1008 7.47095C17.9315 7.62788 17.7103 7.7148 17.4809 7.71452C17.4271 7.71445 17.3734 7.70978 17.3205 7.70059L7.811 5.99895C7.57174 5.95594 7.35913 5.81843 7.21991 5.61666C7.0807 5.41489 7.02626 5.16536 7.06857 4.92294ZM6.43385 8.58159C6.45474 8.46146 6.49878 8.34668 6.56347 8.24381C6.62815 8.14093 6.71221 8.05197 6.81084 7.98202C6.90947 7.91206 7.02074 7.86248 7.13829 7.8361C7.25584 7.80972 7.37736 7.80706 7.49593 7.82827L17.0054 9.52991C17.233 9.56848 17.4378 9.69259 17.5791 9.87747C17.7203 10.0624 17.7875 10.2944 17.7672 10.5273C17.747 10.7602 17.6408 10.9767 17.4698 11.1337C17.2988 11.2908 17.0757 11.3767 16.845 11.3743C16.7908 11.3744 16.7367 11.3694 16.6834 11.3592L7.17398 9.65876C6.93491 9.61522 6.72267 9.47731 6.58389 9.27534C6.44512 9.07337 6.39115 8.82385 6.43385 8.58159ZM5.79797 12.2391C5.84123 11.9973 5.97729 11.7828 6.17636 11.6425C6.37542 11.5021 6.62127 11.4475 6.86005 11.4904L11.6125 12.3366C11.8384 12.3767 12.0413 12.5011 12.181 12.6853C12.3208 12.8695 12.3873 13.1002 12.3675 13.3316C12.3476 13.5631 12.2428 13.7786 12.0738 13.9357C11.9047 14.0927 11.6837 14.1798 11.4544 14.1798C11.4006 14.1798 11.347 14.1751 11.294 14.1659L6.53925 13.3151C6.3002 13.2718 6.08788 13.1342 5.9489 12.9324C5.80992 12.7307 5.75563 12.4813 5.79797 12.2391Z" fill="#16A34A"/>
</svg>
