<svg width="27" height="26" viewBox="0 0 27 26" fill="none" xmlns="http://www.w3.org/2000/svg">
<path d="M26.2897 4.21135L13.8283 0.0533513C13.6151 -0.0177838 13.3846 -0.0177838 13.1715 0.0533513L0.710042 4.21135C0.503267 4.28035 0.323422 4.41272 0.195986 4.58973C0.0685504 4.76673 -1.61509e-05 4.97939 2.85361e-09 5.19757V15.5926C2.85361e-09 15.8682 0.109408 16.1326 0.304156 16.3276C0.498903 16.5225 0.763038 16.6321 1.03845 16.6321C1.31387 16.6321 1.578 16.5225 1.77275 16.3276C1.9675 16.1326 2.07691 15.8682 2.07691 15.5926V6.63987L6.43711 8.09387C5.27866 9.96731 4.91028 12.2244 5.41285 14.3695C5.91542 16.5145 7.24787 18.3723 9.11761 19.5349C6.7811 20.4522 4.76131 22.1115 3.28411 24.3802C3.20728 24.4945 3.15392 24.623 3.12712 24.7581C3.10032 24.8932 3.10062 25.0323 3.128 25.1673C3.15538 25.3023 3.2093 25.4305 3.28662 25.5445C3.36394 25.6585 3.46311 25.7559 3.57838 25.8312C3.69365 25.9064 3.82272 25.958 3.95807 25.9829C4.09343 26.0078 4.23238 26.0055 4.36684 25.9762C4.50131 25.9468 4.62861 25.891 4.74134 25.812C4.85407 25.733 4.94999 25.6323 5.02351 25.5159C6.9797 22.5117 10.0691 20.79 13.4999 20.79C16.9307 20.79 20.0201 22.5117 21.9763 25.5159C22.1286 25.7425 22.3638 25.9 22.6312 25.9543C22.8986 26.0086 23.1766 25.9555 23.4052 25.8063C23.6337 25.657 23.7944 25.4238 23.8525 25.157C23.9106 24.8901 23.8614 24.6111 23.7157 24.3802C22.2385 22.1115 20.2109 20.4522 17.8822 19.5349C19.7501 18.3724 21.0813 16.5158 21.5838 14.3723C22.0863 12.2288 21.7191 9.97326 20.5627 8.10037L26.2897 6.19029C26.4965 6.12133 26.6764 5.98897 26.8039 5.81196C26.9314 5.63495 27 5.42228 27 5.20407C27 4.98586 26.9314 4.77318 26.8039 4.59617C26.6764 4.41916 26.4965 4.2868 26.2897 4.21784V4.21135ZM19.7306 12.4741C19.7309 13.4601 19.4976 14.4321 19.0499 15.3105C18.6022 16.1888 17.9529 16.9483 17.1551 17.5268C16.3574 18.1052 15.434 18.4861 14.4608 18.6382C13.4875 18.7903 12.4921 18.7092 11.5562 18.4016C10.6203 18.094 9.77063 17.5687 9.07684 16.8687C8.38305 16.1687 7.86494 15.3141 7.56501 14.3749C7.26508 13.4356 7.19189 12.4386 7.35144 11.4656C7.51099 10.4926 7.89874 9.57131 8.48286 8.77734L13.1715 10.3366C13.3846 10.4077 13.6151 10.4077 13.8283 10.3366L18.5169 8.77734C19.3059 9.84802 19.7312 11.1436 19.7306 12.4741ZM13.4999 8.26019L4.32256 5.19757L13.4999 2.13495L22.6772 5.19757L13.4999 8.26019Z" fill="#16A34A"/>
</svg>
