<svg width="28" height="26" viewBox="0 0 28 26" fill="none" xmlns="http://www.w3.org/2000/svg">
<path d="M23.3492 16.6331C22.4319 16.6326 21.5407 16.938 20.8159 17.5011L17.8182 15.1621C18.0445 14.6423 18.1611 14.0814 18.1606 13.5144C18.1606 13.4182 18.1606 13.322 18.1503 13.2272L19.8664 12.6541C20.4093 13.493 21.2357 14.1078 22.1943 14.3859C23.1528 14.6641 24.1794 14.587 25.0858 14.1687C25.9922 13.7504 26.7179 13.019 27.1298 12.1084C27.5418 11.1978 27.6125 10.169 27.329 9.21047C27.0454 8.25192 26.4267 7.42778 25.586 6.88903C24.7453 6.35028 23.7391 6.13298 22.7515 6.27693C21.7639 6.42089 20.8612 6.91646 20.2086 7.67287C19.5561 8.42929 19.1974 9.3959 19.1983 10.3957C19.1983 10.4918 19.1983 10.588 19.2087 10.6828L17.4926 11.2559C17.1164 10.6733 16.6006 10.1942 15.9923 9.86237C15.384 9.53054 14.7025 9.35649 14.0098 9.35609C13.7808 9.35656 13.5522 9.37568 13.3262 9.41326L12.439 7.4069C13.2051 6.79367 13.7297 5.92853 13.9199 4.9648C14.1101 4.00108 13.9536 3.00101 13.4781 2.14186C13.0026 1.2827 12.2388 0.619952 11.3221 0.271067C10.4054 -0.0778179 9.39497 -0.0903026 8.46995 0.235825C7.54494 0.561953 6.76506 1.20563 6.26853 2.05277C5.772 2.89991 5.59089 3.89581 5.75731 4.86394C5.92373 5.83207 6.42692 6.70992 7.1777 7.34189C7.92847 7.97386 8.87835 8.31913 9.85897 8.31652C10.088 8.31604 10.3166 8.29692 10.5426 8.25934L11.4298 10.2605C10.6774 10.8571 10.1552 11.6969 9.95244 12.6364C9.74968 13.576 9.87895 14.5569 10.3182 15.4116L6.98323 18.3795C6.14396 17.8127 5.12715 17.572 4.1234 17.7025C3.11964 17.833 2.19785 18.3258 1.53081 19.0884C0.863771 19.8511 0.497273 20.8312 0.500015 21.8452C0.502758 22.8592 0.874552 23.8374 1.54571 24.5964C2.21686 25.3554 3.14131 25.8431 4.14575 25.9682C5.1502 26.0932 6.16569 25.847 7.00188 25.2757C7.83807 24.7043 8.43755 23.847 8.68795 22.8646C8.93836 21.8821 8.8225 20.8419 8.36208 19.9389L11.697 16.9709C12.4191 17.458 13.2761 17.7046 14.1461 17.6756C15.0161 17.6467 15.8549 17.3437 16.5431 16.8098L19.5408 19.1488C19.3152 19.6669 19.1986 20.2261 19.1983 20.7913C19.1983 21.6137 19.4418 22.4177 19.8979 23.1015C20.354 23.7854 21.0023 24.3183 21.7607 24.6331C22.5192 24.9478 23.3538 25.0301 24.159 24.8697C24.9641 24.7092 25.7037 24.3132 26.2842 23.7317C26.8648 23.1501 27.2601 22.4092 27.4202 21.6026C27.5804 20.7959 27.4982 19.9598 27.184 19.2C26.8699 18.4402 26.3378 17.7908 25.6552 17.3338C24.9726 16.8769 24.1701 16.6331 23.3492 16.6331ZM23.3492 8.31652C23.7596 8.31652 24.1609 8.43846 24.5022 8.66692C24.8435 8.89537 25.1095 9.22009 25.2666 9.6C25.4237 9.97991 25.4648 10.398 25.3847 10.8013C25.3046 11.2046 25.107 11.575 24.8167 11.8658C24.5265 12.1566 24.1567 12.3546 23.7541 12.4348C23.3515 12.5151 22.9342 12.4739 22.5549 12.3165C22.1757 12.1592 21.8516 11.8927 21.6235 11.5508C21.3955 11.2088 21.2738 10.8069 21.2738 10.3957C21.2738 9.84423 21.4924 9.3154 21.8816 8.92548C22.2708 8.53557 22.7987 8.31652 23.3492 8.31652ZM7.78356 4.15825C7.78356 3.74704 7.90528 3.34506 8.13333 3.00315C8.36138 2.66124 8.68551 2.39475 9.06475 2.23738C9.44398 2.08002 9.86128 2.03884 10.2639 2.11907C10.6665 2.19929 11.0363 2.39731 11.3265 2.68808C11.6168 2.97885 11.8144 3.34932 11.8945 3.75263C11.9746 4.15595 11.9335 4.57399 11.7764 4.9539C11.6193 5.33381 11.3533 5.65853 11.012 5.88699C10.6707 6.11545 10.2695 6.23739 9.85897 6.23739C9.30854 6.23739 8.78065 6.01833 8.39143 5.62842C8.00222 5.23851 7.78356 4.70967 7.78356 4.15825ZM4.67044 23.91C4.25996 23.91 3.8587 23.7881 3.5174 23.5596C3.1761 23.3312 2.91009 23.0065 2.753 22.6265C2.59592 22.2466 2.55482 21.8286 2.6349 21.4253C2.71498 21.022 2.91265 20.6515 3.2029 20.3607C3.49315 20.0699 3.86295 19.8719 4.26554 19.7917C4.66814 19.7115 5.08543 19.7527 5.46466 19.91C5.8439 20.0674 6.16803 20.3339 6.39608 20.6758C6.62413 21.0177 6.74585 21.4197 6.74585 21.8309C6.74585 22.3823 6.52719 22.9111 6.13798 23.3011C5.74876 23.691 5.22087 23.91 4.67044 23.91ZM11.9344 13.5144C11.9344 13.1031 12.0561 12.7012 12.2842 12.3592C12.5122 12.0173 12.8363 11.7508 13.2156 11.5935C13.5948 11.4361 14.0121 11.3949 14.4147 11.4752C14.8173 11.5554 15.1871 11.7534 15.4773 12.0442C15.7676 12.335 15.9653 12.7054 16.0453 13.1087C16.1254 13.512 16.0843 13.9301 15.9272 14.31C15.7702 14.6899 15.5041 15.0146 15.1628 15.2431C14.8215 15.4715 14.4203 15.5935 14.0098 15.5935C13.4594 15.5935 12.9315 15.3744 12.5423 14.9845C12.153 14.5946 11.9344 14.0658 11.9344 13.5144ZM23.3492 22.8705C22.9387 22.8705 22.5374 22.7485 22.1961 22.5201C21.8548 22.2916 21.5888 21.9669 21.4317 21.587C21.2747 21.2071 21.2336 20.789 21.3136 20.3857C21.3937 19.9824 21.5914 19.6119 21.8816 19.3212C22.1719 19.0304 22.5417 18.8324 22.9443 18.7521C23.3469 18.6719 23.7642 18.7131 24.1434 18.8705C24.5226 19.0278 24.8468 19.2943 25.0748 19.6362C25.3029 19.9781 25.4246 20.3801 25.4246 20.7913C25.4246 21.3427 25.2059 21.8716 24.8167 22.2615C24.4275 22.6514 23.8996 22.8705 23.3492 22.8705Z" fill="#16A34A"/>
</svg>
