<svg width="23" height="18" viewBox="0 0 23 18" fill="none" xmlns="http://www.w3.org/2000/svg">
<path d="M21.811 4.96148L9.77352 16.999C9.49225 17.2801 9.11087 17.438 8.71321 17.438C8.31556 17.438 7.93418 17.2801 7.6529 16.999L0.938524 10.249C0.657719 9.96774 0.5 9.58656 0.5 9.18913C0.5 8.79171 0.657719 8.41053 0.938524 8.12929L2.81352 6.25429C3.09465 5.97434 3.47522 5.81717 3.87196 5.81717C4.2687 5.81717 4.64928 5.97434 4.9304 6.25429L8.75071 9.95929L17.822 0.999601C18.1031 0.719367 18.4839 0.562012 18.8809 0.562012C19.2778 0.562012 19.6586 0.719367 19.9398 0.999601L21.8101 2.83148C21.9507 2.97086 22.0624 3.13671 22.1386 3.31947C22.2149 3.50222 22.2542 3.69826 22.2543 3.89628C22.2543 4.0943 22.2152 4.29037 22.1391 4.4732C22.0631 4.65602 21.9516 4.82197 21.811 4.96148Z" fill="#16A34A"/>
</svg>
