<svg width="27" height="27" viewBox="0 0 27 27" fill="none" xmlns="http://www.w3.org/2000/svg">
<rect x="0.5" y="0.418945" width="26" height="26" rx="4" fill="#107435"/>
<path d="M20 11.4633C20.0002 11.225 19.9446 10.9899 19.8377 10.7771C19.7308 10.5643 19.5756 10.3797 19.3845 10.2381C19.1934 10.0965 18.9719 10.0019 18.7377 9.96194C18.5035 9.92197 18.2633 9.93775 18.0363 10.008C17.8093 10.0782 17.602 10.201 17.4309 10.3664C17.2599 10.5318 17.13 10.7351 17.0516 10.9601C16.9733 11.1851 16.9487 11.4254 16.9799 11.6616C17.011 11.8979 17.0971 12.1235 17.2311 12.3202L15.78 14.1135L14.4752 11.1046C14.7131 10.9037 14.8838 10.6342 14.964 10.3327C15.0441 10.0311 15.0299 9.71219 14.9233 9.41903C14.8167 9.12587 14.6229 8.87268 14.368 8.69379C14.1131 8.5149 13.8096 8.41895 13.4986 8.41895C13.1875 8.41895 12.884 8.5149 12.6291 8.69379C12.3743 8.87268 12.1804 9.12587 12.0738 9.41903C11.9672 9.71219 11.953 10.0311 12.0332 10.3327C12.1134 10.6342 12.284 10.9037 12.522 11.1046L11.2204 14.1119L9.76931 12.3186C9.95572 12.0446 10.0477 11.717 10.0314 11.3856C10.015 11.0543 9.89117 10.7374 9.67869 10.4832C9.4662 10.229 9.17673 10.0514 8.85436 9.97754C8.53199 9.90367 8.19438 9.93752 7.89296 10.0739C7.59154 10.2104 7.34282 10.4419 7.18468 10.7332C7.02654 11.0246 6.96764 11.3598 7.01697 11.6879C7.06629 12.0159 7.22113 12.3188 7.4579 12.5504C7.69467 12.7819 8.0004 12.9296 8.32852 12.9707L9.11283 17.6924C9.14655 17.8954 9.25095 18.0798 9.40745 18.2129C9.56396 18.3459 9.76243 18.4189 9.96756 18.4189H17.0328C17.238 18.4189 17.4364 18.3459 17.5929 18.2129C17.7494 18.0798 17.8538 17.8954 17.8876 17.6924L18.6713 12.9729C19.0381 12.9269 19.3756 12.7481 19.6202 12.4702C19.8649 12.1922 19.9999 11.8341 20 11.4633ZM13.5002 9.28962C13.6288 9.28962 13.7544 9.32787 13.8613 9.39952C13.9682 9.47117 14.0515 9.57302 14.1007 9.69217C14.1499 9.81133 14.1628 9.94244 14.1377 10.0689C14.1126 10.1954 14.0507 10.3116 13.9598 10.4028C13.8689 10.494 13.7531 10.5561 13.627 10.5813C13.5009 10.6064 13.3702 10.5935 13.2515 10.5442C13.1327 10.4948 13.0312 10.4112 12.9598 10.304C12.8883 10.1968 12.8502 10.0707 12.8502 9.94172C12.8502 9.76877 12.9187 9.60291 13.0406 9.48062C13.1625 9.35832 13.3278 9.28962 13.5002 9.28962ZM7.86704 11.4633C7.86704 11.3343 7.90516 11.2082 7.97658 11.101C8.048 10.9937 8.14951 10.9102 8.26828 10.8608C8.38705 10.8115 8.51774 10.7985 8.64382 10.8237C8.76991 10.8489 8.88572 10.911 8.97662 11.0022C9.06752 11.0934 9.12943 11.2096 9.15451 11.3361C9.17959 11.4625 9.16672 11.5937 9.11752 11.7128C9.06832 11.832 8.98502 11.9338 8.87813 12.0055C8.77124 12.0771 8.64557 12.1154 8.51702 12.1154C8.34463 12.1154 8.17931 12.0467 8.05741 11.9244C7.93552 11.8021 7.86704 11.6362 7.86704 11.4633ZM18.4834 12.1154C18.3548 12.1154 18.2292 12.0771 18.1223 12.0055C18.0154 11.9338 17.9321 11.832 17.8829 11.7128C17.8337 11.5937 17.8208 11.4625 17.8459 11.3361C17.871 11.2096 17.9329 11.0934 18.0238 11.0022C18.1147 10.911 18.2305 10.8489 18.3566 10.8237C18.4827 10.7985 18.6133 10.8115 18.7321 10.8608C18.8509 10.9102 18.9524 10.9937 19.0238 11.101C19.0952 11.2082 19.1334 11.3343 19.1334 11.4633C19.1334 11.6362 19.0649 11.8021 18.943 11.9244C18.8211 12.0467 18.6558 12.1154 18.4834 12.1154Z" fill="white"/>
</svg>
