<svg width="1280" height="1153" viewBox="0 0 1280 1153" fill="none" xmlns="http://www.w3.org/2000/svg">
<rect width="1280" height="1152.29" rx="40" fill="#F0FFF6"/>
<path d="M819.732 233.627C820.923 238.34 820.337 229.664 822.67 219.049C825.003 208.433 828.998 212.739 828.998 212.739" stroke="#94D5AC" stroke-opacity="0.4" stroke-width="1.00865" stroke-miterlimit="10" stroke-linecap="round" stroke-linejoin="round"/>
<path d="M819 222.783L826.314 219.783" stroke="#94D5AC" stroke-opacity="0.4" stroke-width="1.00865" stroke-miterlimit="10" stroke-linecap="round" stroke-linejoin="round"/>
<path d="M832.362 216.188C832.362 216.188 827.99 225.229 834.581 229.072" stroke="#94D5AC" stroke-opacity="0.4" stroke-width="1.00865" stroke-miterlimit="10" stroke-linecap="round" stroke-linejoin="round"/>
<path d="M838.563 213.646C838.563 213.646 845.78 217.655 841.26 226.333" stroke="#94D5AC" stroke-opacity="0.4" stroke-width="1.00865" stroke-miterlimit="10" stroke-linecap="round" stroke-linejoin="round"/>
<path d="M833.618 219.25L838.789 223.026" stroke="#94D5AC" stroke-opacity="0.4" stroke-width="1.00865" stroke-miterlimit="10" stroke-linecap="round" stroke-linejoin="round"/>
<path d="M837.673 217.588L833.627 224.029" stroke="#94D5AC" stroke-opacity="0.4" stroke-width="1.00865" stroke-miterlimit="10" stroke-linecap="round" stroke-linejoin="round"/>
<path d="M1001.5 276.266C1002.48 270.269 998.418 264.61 992.421 263.626C986.424 262.642 980.765 266.706 979.781 272.703C978.798 278.7 982.861 284.359 988.858 285.342C994.855 286.326 1000.51 282.263 1001.5 276.266Z" stroke="#94D5AC" stroke-opacity="0.4" stroke-width="1.00865" stroke-miterlimit="10" stroke-linecap="round" stroke-linejoin="round"/>
<path d="M1012.71 288.699C1007.23 292.633 999.602 291.381 995.669 285.904C991.735 280.427 992.986 272.799 998.463 268.865C1003.94 264.931 1011.57 266.183 1015.5 271.66C1019.44 277.137 1018.18 284.765 1012.71 288.699Z" stroke="#94D5AC" stroke-opacity="0.4" stroke-width="1.00865" stroke-miterlimit="10" stroke-linecap="round" stroke-linejoin="round"/>
<path d="M1000.67 269.948L995.596 271.759" stroke="#94D5AC" stroke-opacity="0.4" stroke-width="1.00865" stroke-miterlimit="10" stroke-linecap="round" stroke-linejoin="round"/>
<path d="M1001.37 272.039L994.09 274.673" stroke="#94D5AC" stroke-opacity="0.4" stroke-width="1.00865" stroke-miterlimit="10" stroke-linecap="round" stroke-linejoin="round"/>
<path d="M1001.64 274.557L993.514 277.682" stroke="#94D5AC" stroke-opacity="0.4" stroke-width="1.00865" stroke-miterlimit="10" stroke-linecap="round" stroke-linejoin="round"/>
<path d="M1001.06 277.998L993.655 281.384" stroke="#94D5AC" stroke-opacity="0.4" stroke-width="1.00865" stroke-miterlimit="10" stroke-linecap="round" stroke-linejoin="round"/>
<path d="M999.759 280.646L994.122 282.984" stroke="#94D5AC" stroke-opacity="0.4" stroke-width="1.00865" stroke-miterlimit="10" stroke-linecap="round" stroke-linejoin="round"/>
<path d="M995.957 257.723C995.638 256.767 992.072 256.089 991.897 258.729C991.724 261.37 995.661 259.176 996.766 257.77C996.766 257.77 994.741 260.49 995.6 261.027" stroke="#94D5AC" stroke-opacity="0.4" stroke-width="1.00865" stroke-miterlimit="10" stroke-linecap="round" stroke-linejoin="round"/>
<path d="M1015.71 261.014L1012.54 267.598C1012.54 267.598 1014.12 264.306 1015.82 264.608C1017.91 264.979 1016.52 268.394 1014 267.137" stroke="#94D5AC" stroke-opacity="0.4" stroke-width="1.00865" stroke-miterlimit="10" stroke-linecap="round" stroke-linejoin="round"/>
<path d="M370.498 125.266C371.482 119.269 367.418 113.61 361.421 112.626C355.424 111.642 349.765 115.706 348.781 121.703C347.798 127.7 351.861 133.359 357.858 134.342C363.855 135.326 369.514 131.263 370.498 125.266Z" stroke="#94D5AC" stroke-opacity="0.4" stroke-width="1.00865" stroke-miterlimit="10" stroke-linecap="round" stroke-linejoin="round"/>
<path d="M381.708 137.699C376.231 141.633 368.602 140.381 364.669 134.904C360.735 129.427 361.986 121.799 367.463 117.865C372.94 113.931 380.569 115.183 384.503 120.66C388.436 126.137 387.185 133.765 381.708 137.699Z" stroke="#94D5AC" stroke-opacity="0.4" stroke-width="1.00865" stroke-miterlimit="10" stroke-linecap="round" stroke-linejoin="round"/>
<path d="M369.668 118.948L364.596 120.759" stroke="#94D5AC" stroke-opacity="0.4" stroke-width="1.00865" stroke-miterlimit="10" stroke-linecap="round" stroke-linejoin="round"/>
<path d="M370.372 121.039L363.09 123.673" stroke="#94D5AC" stroke-opacity="0.4" stroke-width="1.00865" stroke-miterlimit="10" stroke-linecap="round" stroke-linejoin="round"/>
<path d="M370.642 123.557L362.514 126.682" stroke="#94D5AC" stroke-opacity="0.4" stroke-width="1.00865" stroke-miterlimit="10" stroke-linecap="round" stroke-linejoin="round"/>
<path d="M370.065 126.998L362.655 130.384" stroke="#94D5AC" stroke-opacity="0.4" stroke-width="1.00865" stroke-miterlimit="10" stroke-linecap="round" stroke-linejoin="round"/>
<path d="M368.759 129.646L363.122 131.984" stroke="#94D5AC" stroke-opacity="0.4" stroke-width="1.00865" stroke-miterlimit="10" stroke-linecap="round" stroke-linejoin="round"/>
<path d="M364.957 106.723C364.638 105.767 361.072 105.089 360.897 107.729C360.724 110.37 364.661 108.176 365.766 106.77C365.766 106.77 363.741 109.49 364.6 110.027" stroke="#94D5AC" stroke-opacity="0.4" stroke-width="1.00865" stroke-miterlimit="10" stroke-linecap="round" stroke-linejoin="round"/>
<path d="M384.708 110.014L381.54 116.598C381.54 116.598 383.125 113.306 384.819 113.608C386.907 113.979 385.52 117.394 382.996 116.137" stroke="#94D5AC" stroke-opacity="0.4" stroke-width="1.00865" stroke-miterlimit="10" stroke-linecap="round" stroke-linejoin="round"/>
<path d="M364 287.083L377.384 277.875L395.11 279.118L396.217 301.584L383.207 310.887L367.152 309.717L364 287.083Z" stroke="#94D5AC" stroke-opacity="0.4" stroke-width="1.00865" stroke-miterlimit="10" stroke-linecap="round" stroke-linejoin="round"/>
<path d="M367.152 309.717L380.11 300.387L396.218 301.584" stroke="#94D5AC" stroke-opacity="0.4" stroke-width="1.00865" stroke-miterlimit="10" stroke-linecap="round" stroke-linejoin="round"/>
<path d="M380.109 300.387L377.384 277.875" stroke="#94D5AC" stroke-opacity="0.4" stroke-width="1.00865" stroke-miterlimit="10" stroke-linecap="round" stroke-linejoin="round"/>
<path d="M364 287.083L381.687 289.132L395.11 279.118" stroke="#94D5AC" stroke-opacity="0.4" stroke-width="1.00865" stroke-miterlimit="10" stroke-linecap="round" stroke-linejoin="round"/>
<path d="M381.687 289.131L383.207 310.887" stroke="#94D5AC" stroke-opacity="0.4" stroke-width="1.00865" stroke-miterlimit="10" stroke-linecap="round" stroke-linejoin="round"/>
<path d="M1039 893.083L1052.38 883.875L1070.11 885.118L1071.22 907.584L1058.21 916.887L1042.15 915.717L1039 893.083Z" stroke="#94D5AC" stroke-opacity="0.4" stroke-width="1.00865" stroke-miterlimit="10" stroke-linecap="round" stroke-linejoin="round"/>
<path d="M1042.15 915.717L1055.11 906.387L1071.22 907.584" stroke="#94D5AC" stroke-opacity="0.4" stroke-width="1.00865" stroke-miterlimit="10" stroke-linecap="round" stroke-linejoin="round"/>
<path d="M1055.11 906.387L1052.38 883.875" stroke="#94D5AC" stroke-opacity="0.4" stroke-width="1.00865" stroke-miterlimit="10" stroke-linecap="round" stroke-linejoin="round"/>
<path d="M1039 893.083L1056.69 895.132L1070.11 885.118" stroke="#94D5AC" stroke-opacity="0.4" stroke-width="1.00865" stroke-miterlimit="10" stroke-linecap="round" stroke-linejoin="round"/>
<path d="M1056.69 895.131L1058.21 916.887" stroke="#94D5AC" stroke-opacity="0.4" stroke-width="1.00865" stroke-miterlimit="10" stroke-linecap="round" stroke-linejoin="round"/>
<path d="M227 1000.08L240.384 990.875L258.11 992.118L259.217 1014.58L246.207 1023.89L230.152 1022.72L227 1000.08Z" stroke="#94D5AC" stroke-opacity="0.4" stroke-width="1.00865" stroke-miterlimit="10" stroke-linecap="round" stroke-linejoin="round"/>
<path d="M230.152 1022.72L243.11 1013.39L259.218 1014.58" stroke="#94D5AC" stroke-opacity="0.4" stroke-width="1.00865" stroke-miterlimit="10" stroke-linecap="round" stroke-linejoin="round"/>
<path d="M243.109 1013.39L240.384 990.875" stroke="#94D5AC" stroke-opacity="0.4" stroke-width="1.00865" stroke-miterlimit="10" stroke-linecap="round" stroke-linejoin="round"/>
<path d="M227 1000.08L244.687 1002.13L258.11 992.118" stroke="#94D5AC" stroke-opacity="0.4" stroke-width="1.00865" stroke-miterlimit="10" stroke-linecap="round" stroke-linejoin="round"/>
<path d="M244.687 1002.13L246.207 1023.89" stroke="#94D5AC" stroke-opacity="0.4" stroke-width="1.00865" stroke-miterlimit="10" stroke-linecap="round" stroke-linejoin="round"/>
<path d="M1170.93 312.875L1165 331.303L1183.46 328.813L1170.93 312.875Z" stroke="#94D5AC" stroke-opacity="0.4" stroke-width="1.00865" stroke-miterlimit="10" stroke-linecap="round" stroke-linejoin="round"/>
<path d="M1170.93 312.875L1174.23 329.951" stroke="#94D5AC" stroke-opacity="0.4" stroke-width="1.00865" stroke-miterlimit="10" stroke-linecap="round" stroke-linejoin="round"/>
<path d="M1173.7 327.214L1175.86 326.871L1176.36 329.77" stroke="#94D5AC" stroke-opacity="0.4" stroke-width="1.00865" stroke-miterlimit="10" stroke-linecap="round" stroke-linejoin="round"/>
<path d="M182.93 520.875L177 539.303L195.456 536.813L182.93 520.875Z" stroke="#94D5AC" stroke-opacity="0.4" stroke-width="1.00865" stroke-miterlimit="10" stroke-linecap="round" stroke-linejoin="round"/>
<path d="M182.93 520.875L186.228 537.951" stroke="#94D5AC" stroke-opacity="0.4" stroke-width="1.00865" stroke-miterlimit="10" stroke-linecap="round" stroke-linejoin="round"/>
<path d="M185.699 535.214L187.858 534.871L188.361 537.77" stroke="#94D5AC" stroke-opacity="0.4" stroke-width="1.00865" stroke-miterlimit="10" stroke-linecap="round" stroke-linejoin="round"/>
<path d="M1236 536.475L1245.22 541.004" stroke="#94D5AC" stroke-opacity="0.4" stroke-width="1.00865" stroke-miterlimit="10" stroke-linecap="round" stroke-linejoin="round"/>
<path d="M1242.25 533.018L1239.61 542.65" stroke="#94D5AC" stroke-opacity="0.4" stroke-width="1.00865" stroke-miterlimit="10" stroke-linecap="round" stroke-linejoin="round"/>
<path d="M1243.53 528.321C1243.53 528.321 1244.83 527.148 1245.75 528.606C1246.67 530.062 1244.86 533.105 1244.86 533.105L1248.56 531.698" stroke="#94D5AC" stroke-opacity="0.4" stroke-width="1.00865" stroke-miterlimit="10" stroke-linecap="round" stroke-linejoin="round"/>
<path d="M1215.81 42.875C1224.62 47.8214 1214.53 59.9253 1214.53 66.9859C1214.53 74.0465 1224.62 73.0378 1229.66 75.0551C1231.68 75.0551 1235.71 75.0551 1235.6 80.1851" stroke="#94D5AC" stroke-opacity="0.4" stroke-width="1.00865" stroke-miterlimit="10" stroke-linecap="round" stroke-linejoin="round"/>
<path d="M1206 49.2681C1207.53 57.6147 1217.11 54.6533 1222.97 56.5596C1233.04 59.8357 1227.46 70.2481 1224.44 76.5381C1222.64 80.2993 1220.85 85.5554 1224.07 89.123" stroke="#94D5AC" stroke-opacity="0.4" stroke-width="1.00865" stroke-miterlimit="10" stroke-linecap="round" stroke-linejoin="round"/>
<path d="M1207.29 52.5046L1217.79 43.7817" stroke="#94D5AC" stroke-opacity="0.4" stroke-width="1.00865" stroke-miterlimit="10" stroke-linecap="round" stroke-linejoin="round"/>
<path d="M1211.41 55.1081L1219.32 48.5498" stroke="#94D5AC" stroke-opacity="0.4" stroke-width="1.00865" stroke-miterlimit="10" stroke-linecap="round" stroke-linejoin="round"/>
<path d="M1216.05 61.7417L1222.73 56.4946" stroke="#94D5AC" stroke-opacity="0.4" stroke-width="1.00865" stroke-miterlimit="10" stroke-linecap="round" stroke-linejoin="round"/>
<path d="M1214.67 69.5951L1227.73 60.2075" stroke="#94D5AC" stroke-opacity="0.4" stroke-width="1.00865" stroke-miterlimit="10" stroke-linecap="round" stroke-linejoin="round"/>
<path d="M1219.67 73.2555L1228.77 66.5762" stroke="#94D5AC" stroke-opacity="0.4" stroke-width="1.00865" stroke-miterlimit="10" stroke-linecap="round" stroke-linejoin="round"/>
<path d="M1223.54 87.4464L1234.92 78.188" stroke="#94D5AC" stroke-opacity="0.4" stroke-width="1.00865" stroke-miterlimit="10" stroke-linecap="round" stroke-linejoin="round"/>
<path d="M1223.83 80.162L1231.25 74.9482" stroke="#94D5AC" stroke-opacity="0.4" stroke-width="1.00865" stroke-miterlimit="10" stroke-linecap="round" stroke-linejoin="round"/>
<path d="M66.8133 64.875C75.6158 69.8214 65.5293 81.9253 65.5293 88.9859C65.5293 96.0465 75.6158 95.0378 80.6591 97.0551C82.6764 97.0551 86.711 97.0551 86.6021 102.185" stroke="#94D5AC" stroke-opacity="0.4" stroke-width="1.00865" stroke-miterlimit="10" stroke-linecap="round" stroke-linejoin="round"/>
<path d="M57 71.2681C58.5301 79.6147 68.1093 76.6533 73.9686 78.5596C84.039 81.8357 78.4561 92.2481 75.4443 98.5381C73.6438 102.299 71.8504 107.555 75.069 111.123" stroke="#94D5AC" stroke-opacity="0.4" stroke-width="1.00865" stroke-miterlimit="10" stroke-linecap="round" stroke-linejoin="round"/>
<path d="M58.2881 74.5046L68.7872 65.7817" stroke="#94D5AC" stroke-opacity="0.4" stroke-width="1.00865" stroke-miterlimit="10" stroke-linecap="round" stroke-linejoin="round"/>
<path d="M62.4082 77.1081L70.315 70.5498" stroke="#94D5AC" stroke-opacity="0.4" stroke-width="1.00865" stroke-miterlimit="10" stroke-linecap="round" stroke-linejoin="round"/>
<path d="M67.0537 83.7417L73.733 78.4946" stroke="#94D5AC" stroke-opacity="0.4" stroke-width="1.00865" stroke-miterlimit="10" stroke-linecap="round" stroke-linejoin="round"/>
<path d="M65.6748 91.5951L78.7278 82.2075" stroke="#94D5AC" stroke-opacity="0.4" stroke-width="1.00865" stroke-miterlimit="10" stroke-linecap="round" stroke-linejoin="round"/>
<path d="M70.6738 95.2555L79.7709 88.5762" stroke="#94D5AC" stroke-opacity="0.4" stroke-width="1.00865" stroke-miterlimit="10" stroke-linecap="round" stroke-linejoin="round"/>
<path d="M74.5449 109.446L85.9165 100.188" stroke="#94D5AC" stroke-opacity="0.4" stroke-width="1.00865" stroke-miterlimit="10" stroke-linecap="round" stroke-linejoin="round"/>
<path d="M74.8262 102.162L82.2458 96.9482" stroke="#94D5AC" stroke-opacity="0.4" stroke-width="1.00865" stroke-miterlimit="10" stroke-linecap="round" stroke-linejoin="round"/>
<path d="M1063.81 435.875C1072.62 440.821 1062.53 452.925 1062.53 459.986C1062.53 467.046 1072.62 466.038 1077.66 468.055C1079.68 468.055 1083.71 468.055 1083.6 473.185" stroke="#94D5AC" stroke-opacity="0.4" stroke-width="1.00865" stroke-miterlimit="10" stroke-linecap="round" stroke-linejoin="round"/>
<path d="M1054 442.268C1055.53 450.614 1065.11 447.653 1070.97 449.559C1081.04 452.835 1075.46 463.248 1072.44 469.538C1070.64 473.299 1068.85 478.555 1072.07 482.123" stroke="#94D5AC" stroke-opacity="0.4" stroke-width="1.00865" stroke-miterlimit="10" stroke-linecap="round" stroke-linejoin="round"/>
<path d="M1055.29 445.505L1065.79 436.782" stroke="#94D5AC" stroke-opacity="0.4" stroke-width="1.00865" stroke-miterlimit="10" stroke-linecap="round" stroke-linejoin="round"/>
<path d="M1059.41 448.108L1067.32 441.55" stroke="#94D5AC" stroke-opacity="0.4" stroke-width="1.00865" stroke-miterlimit="10" stroke-linecap="round" stroke-linejoin="round"/>
<path d="M1064.05 454.742L1070.73 449.495" stroke="#94D5AC" stroke-opacity="0.4" stroke-width="1.00865" stroke-miterlimit="10" stroke-linecap="round" stroke-linejoin="round"/>
<path d="M1062.67 462.596L1075.73 453.208" stroke="#94D5AC" stroke-opacity="0.4" stroke-width="1.00865" stroke-miterlimit="10" stroke-linecap="round" stroke-linejoin="round"/>
<path d="M1067.67 466.255L1076.77 459.576" stroke="#94D5AC" stroke-opacity="0.4" stroke-width="1.00865" stroke-miterlimit="10" stroke-linecap="round" stroke-linejoin="round"/>
<path d="M1071.54 480.446L1082.92 471.188" stroke="#94D5AC" stroke-opacity="0.4" stroke-width="1.00865" stroke-miterlimit="10" stroke-linecap="round" stroke-linejoin="round"/>
<path d="M1071.83 473.162L1079.25 467.948" stroke="#94D5AC" stroke-opacity="0.4" stroke-width="1.00865" stroke-miterlimit="10" stroke-linecap="round" stroke-linejoin="round"/>
<path d="M74.8133 1081.88C83.6158 1086.82 73.5293 1098.93 73.5293 1105.99C73.5293 1113.05 83.6158 1112.04 88.6591 1114.06C90.6764 1114.06 94.711 1114.06 94.6021 1119.19" stroke="#94D5AC" stroke-opacity="0.4" stroke-width="1.00865" stroke-miterlimit="10" stroke-linecap="round" stroke-linejoin="round"/>
<path d="M65 1088.27C66.5301 1096.61 76.1093 1093.65 81.9686 1095.56C92.039 1098.84 86.4561 1109.25 83.4443 1115.54C81.6438 1119.3 79.8504 1124.55 83.069 1128.12" stroke="#94D5AC" stroke-opacity="0.4" stroke-width="1.00865" stroke-miterlimit="10" stroke-linecap="round" stroke-linejoin="round"/>
<path d="M66.2881 1091.5L76.7872 1082.78" stroke="#94D5AC" stroke-opacity="0.4" stroke-width="1.00865" stroke-miterlimit="10" stroke-linecap="round" stroke-linejoin="round"/>
<path d="M70.4082 1094.11L78.315 1087.55" stroke="#94D5AC" stroke-opacity="0.4" stroke-width="1.00865" stroke-miterlimit="10" stroke-linecap="round" stroke-linejoin="round"/>
<path d="M75.0537 1100.74L81.733 1095.5" stroke="#94D5AC" stroke-opacity="0.4" stroke-width="1.00865" stroke-miterlimit="10" stroke-linecap="round" stroke-linejoin="round"/>
<path d="M73.6748 1108.6L86.7278 1099.21" stroke="#94D5AC" stroke-opacity="0.4" stroke-width="1.00865" stroke-miterlimit="10" stroke-linecap="round" stroke-linejoin="round"/>
<path d="M78.6738 1112.26L87.7709 1105.58" stroke="#94D5AC" stroke-opacity="0.4" stroke-width="1.00865" stroke-miterlimit="10" stroke-linecap="round" stroke-linejoin="round"/>
<path d="M82.5449 1126.45L93.9165 1117.19" stroke="#94D5AC" stroke-opacity="0.4" stroke-width="1.00865" stroke-miterlimit="10" stroke-linecap="round" stroke-linejoin="round"/>
<path d="M82.8262 1119.16L90.2458 1113.95" stroke="#94D5AC" stroke-opacity="0.4" stroke-width="1.00865" stroke-miterlimit="10" stroke-linecap="round" stroke-linejoin="round"/>
<path d="M127.813 848.875C136.616 853.821 126.529 865.925 126.529 872.986C126.529 880.046 136.616 879.038 141.659 881.055C143.676 881.055 147.711 881.055 147.602 886.185" stroke="#94D5AC" stroke-opacity="0.4" stroke-width="1.00865" stroke-miterlimit="10" stroke-linecap="round" stroke-linejoin="round"/>
<path d="M118 855.268C119.53 863.614 129.109 860.653 134.969 862.559C145.039 865.835 139.456 876.248 136.444 882.538C134.644 886.299 132.85 891.555 136.069 895.123" stroke="#94D5AC" stroke-opacity="0.4" stroke-width="1.00865" stroke-miterlimit="10" stroke-linecap="round" stroke-linejoin="round"/>
<path d="M119.288 858.505L129.787 849.782" stroke="#94D5AC" stroke-opacity="0.4" stroke-width="1.00865" stroke-miterlimit="10" stroke-linecap="round" stroke-linejoin="round"/>
<path d="M123.408 861.108L131.315 854.55" stroke="#94D5AC" stroke-opacity="0.4" stroke-width="1.00865" stroke-miterlimit="10" stroke-linecap="round" stroke-linejoin="round"/>
<path d="M128.054 867.742L134.733 862.495" stroke="#94D5AC" stroke-opacity="0.4" stroke-width="1.00865" stroke-miterlimit="10" stroke-linecap="round" stroke-linejoin="round"/>
<path d="M126.675 875.596L139.728 866.208" stroke="#94D5AC" stroke-opacity="0.4" stroke-width="1.00865" stroke-miterlimit="10" stroke-linecap="round" stroke-linejoin="round"/>
<path d="M131.674 879.255L140.771 872.576" stroke="#94D5AC" stroke-opacity="0.4" stroke-width="1.00865" stroke-miterlimit="10" stroke-linecap="round" stroke-linejoin="round"/>
<path d="M135.545 893.446L146.916 884.188" stroke="#94D5AC" stroke-opacity="0.4" stroke-width="1.00865" stroke-miterlimit="10" stroke-linecap="round" stroke-linejoin="round"/>
<path d="M135.826 886.162L143.246 880.948" stroke="#94D5AC" stroke-opacity="0.4" stroke-width="1.00865" stroke-miterlimit="10" stroke-linecap="round" stroke-linejoin="round"/>
<path d="M1184.81 981.875C1193.62 986.821 1183.53 998.925 1183.53 1005.99C1183.53 1013.05 1193.62 1012.04 1198.66 1014.06C1200.68 1014.06 1204.71 1014.06 1204.6 1019.19" stroke="#94D5AC" stroke-opacity="0.4" stroke-width="1.00865" stroke-miterlimit="10" stroke-linecap="round" stroke-linejoin="round"/>
<path d="M1175 988.268C1176.53 996.614 1186.11 993.653 1191.97 995.559C1202.04 998.835 1196.46 1009.25 1193.44 1015.54C1191.64 1019.3 1189.85 1024.55 1193.07 1028.12" stroke="#94D5AC" stroke-opacity="0.4" stroke-width="1.00865" stroke-miterlimit="10" stroke-linecap="round" stroke-linejoin="round"/>
<path d="M1176.29 991.505L1186.79 982.782" stroke="#94D5AC" stroke-opacity="0.4" stroke-width="1.00865" stroke-miterlimit="10" stroke-linecap="round" stroke-linejoin="round"/>
<path d="M1180.41 994.108L1188.32 987.55" stroke="#94D5AC" stroke-opacity="0.4" stroke-width="1.00865" stroke-miterlimit="10" stroke-linecap="round" stroke-linejoin="round"/>
<path d="M1185.05 1000.74L1191.73 995.495" stroke="#94D5AC" stroke-opacity="0.4" stroke-width="1.00865" stroke-miterlimit="10" stroke-linecap="round" stroke-linejoin="round"/>
<path d="M1183.67 1008.6L1196.73 999.208" stroke="#94D5AC" stroke-opacity="0.4" stroke-width="1.00865" stroke-miterlimit="10" stroke-linecap="round" stroke-linejoin="round"/>
<path d="M1188.67 1012.26L1197.77 1005.58" stroke="#94D5AC" stroke-opacity="0.4" stroke-width="1.00865" stroke-miterlimit="10" stroke-linecap="round" stroke-linejoin="round"/>
<path d="M1192.54 1026.45L1203.92 1017.19" stroke="#94D5AC" stroke-opacity="0.4" stroke-width="1.00865" stroke-miterlimit="10" stroke-linecap="round" stroke-linejoin="round"/>
<path d="M1192.83 1019.16L1200.25 1013.95" stroke="#94D5AC" stroke-opacity="0.4" stroke-width="1.00865" stroke-miterlimit="10" stroke-linecap="round" stroke-linejoin="round"/>
<path d="M208.916 231.812C215.887 229.025 219.279 221.114 216.491 214.143C213.703 207.172 205.792 203.781 198.821 206.568C191.85 209.356 188.459 217.267 191.247 224.238C194.034 231.209 201.945 234.6 208.916 231.812Z" stroke="#94D5AC" stroke-opacity="0.4" stroke-width="0.649068" stroke-miterlimit="10" stroke-linecap="round" stroke-linejoin="round"/>
<path d="M207.297 206.033C212.034 200.473 216.063 197.321 217.617 198.346C219.976 199.901 215.737 210.493 208.149 222.003C200.561 233.513 192.497 241.583 190.138 240.028C188.584 239.004 189.893 234.059 193.136 227.513" stroke="#94D5AC" stroke-opacity="0.4" stroke-width="0.649068" stroke-miterlimit="10" stroke-linecap="round" stroke-linejoin="round"/>
<path d="M190.573 221.973C183.969 220.073 179.749 217.854 180.012 216.08C180.425 213.285 191.816 212.654 205.454 214.672C219.092 216.689 229.813 220.591 229.398 223.386C229.112 225.32 223.576 226.217 215.677 225.919" stroke="#94D5AC" stroke-opacity="0.4" stroke-width="0.649068" stroke-miterlimit="10" stroke-linecap="round" stroke-linejoin="round"/>
<path d="M192.306 212.129C187.322 203.135 184.83 196.116 186.521 195.021C188.739 193.585 197.319 202.892 205.684 215.81C214.05 228.728 219.033 240.364 216.815 241.802C215.348 242.752 211.097 239.001 205.966 232.615" stroke="#94D5AC" stroke-opacity="0.4" stroke-width="0.649068" stroke-miterlimit="10" stroke-linecap="round" stroke-linejoin="round"/>
<path d="M219.529 204.23C218.849 205.261 217.464 205.545 216.433 204.866C215.402 204.187 215.118 202.801 215.797 201.77C216.476 200.74 217.862 200.455 218.893 201.134C219.924 201.814 220.208 203.199 219.529 204.23Z" fill="#94D5AC"/>
<path d="M216.067 201.949C216.612 201.123 217.688 200.858 218.546 201.306L218.714 201.405C219.54 201.949 219.806 203.025 219.357 203.883L219.258 204.051C218.713 204.877 217.639 205.143 216.78 204.695L216.611 204.595C215.786 204.051 215.521 202.976 215.969 202.118L216.067 201.949Z" stroke="#94D5AC" stroke-opacity="0.4" stroke-width="0.649068"/>
<path d="M212.135 238.428C211.456 239.459 210.07 239.743 209.039 239.065C208.008 238.385 207.724 236.999 208.404 235.968C209.083 234.938 210.469 234.653 211.5 235.332C212.53 236.012 212.815 237.398 212.135 238.428Z" fill="#94D5AC"/>
<path d="M208.675 236.147C209.219 235.321 210.294 235.056 211.152 235.504L211.321 235.603C212.147 236.148 212.412 237.224 211.964 238.082L211.864 238.25C211.32 239.076 210.244 239.342 209.386 238.893L209.218 238.793C208.392 238.249 208.127 237.174 208.575 236.316L208.675 236.147Z" stroke="#94D5AC" stroke-opacity="0.4" stroke-width="0.649068"/>
<path d="M200.21 215.237C199.53 216.268 198.144 216.552 197.113 215.873C196.083 215.193 195.798 213.808 196.477 212.777C197.157 211.746 198.543 211.462 199.573 212.141C200.604 212.82 200.889 214.206 200.21 215.237Z" fill="#94D5AC"/>
<path d="M196.748 212.956C197.293 212.13 198.368 211.864 199.227 212.313L199.395 212.413C200.221 212.957 200.487 214.032 200.038 214.89L199.938 215.058C199.394 215.884 198.319 216.149 197.461 215.701L197.292 215.602C196.466 215.057 196.201 213.982 196.649 213.124L196.748 212.956Z" stroke="#94D5AC" stroke-opacity="0.4" stroke-width="0.649068"/>
<path d="M862.542 71.6588H874.426L880.368 61.3665L874.426 51.0742H862.542L856.599 61.3665L862.542 71.6588Z" stroke="#94D5AC" stroke-opacity="0.4" stroke-width="1.00865" stroke-miterlimit="10" stroke-linecap="round" stroke-linejoin="round"/>
<path d="M860.815 94.2362L854.872 83.9438H842.988" stroke="#94D5AC" stroke-opacity="0.4" stroke-width="1.00865" stroke-miterlimit="10" stroke-linecap="round" stroke-linejoin="round"/>
<path d="M844.585 61.3664H856.47L862.412 51.074L856.47 40.7817H844.585L838.643 51.074L844.585 61.3664Z" stroke="#94D5AC" stroke-opacity="0.4" stroke-width="1.00865" stroke-miterlimit="10" stroke-linecap="round" stroke-linejoin="round"/>
<path d="M862.542 51.0739H874.426L880.368 40.7816L874.426 30.4893H862.542L856.599 40.7816L862.542 51.0739Z" stroke="#94D5AC" stroke-opacity="0.4" stroke-width="1.00865" stroke-miterlimit="10" stroke-linecap="round" stroke-linejoin="round"/>
<path d="M862.411 52.6694C863.292 52.6694 864.007 51.955 864.007 51.0737C864.007 50.1924 863.292 49.478 862.411 49.478C861.53 49.478 860.815 50.1924 860.815 51.0737C860.815 51.955 861.53 52.6694 862.411 52.6694Z" fill="#94D5AC"/>
<path d="M862.411 49.9819C863.014 49.9819 863.503 50.471 863.503 51.0737C863.503 51.6765 863.014 52.1655 862.411 52.1655C861.808 52.1655 861.319 51.6765 861.319 51.0737C861.319 50.471 861.808 49.9819 862.411 49.9819Z" stroke="#94D5AC" stroke-opacity="0.4" stroke-width="1.00865"/>
<path d="M837.596 31.0664C838.477 31.0664 839.191 30.352 839.191 29.4707C839.191 28.5894 838.477 27.875 837.596 27.875C836.714 27.875 836 28.5894 836 29.4707C836 30.352 836.714 31.0664 837.596 31.0664Z" fill="#94D5AC"/>
<path d="M837.596 28.3789C838.198 28.3789 838.688 28.868 838.688 29.4707C838.687 30.0734 838.198 30.5625 837.596 30.5625C836.993 30.5625 836.504 30.0734 836.504 29.4707C836.504 28.868 836.993 28.3789 837.596 28.3789Z" stroke="#94D5AC" stroke-opacity="0.4" stroke-width="1.00865"/>
<path d="M859.219 94.2363C859.219 93.3548 859.933 92.6406 860.814 92.6406C861.696 92.6406 862.41 93.3548 862.41 94.2363C862.41 95.1179 861.696 95.832 860.814 95.832C859.934 95.832 859.219 95.1179 859.219 94.2363Z" fill="#94D5AC"/>
<path d="M860.814 93.1445C861.417 93.1445 861.906 93.6333 861.906 94.2363C861.906 94.8394 861.417 95.3281 860.814 95.3281C860.212 95.3281 859.723 94.8391 859.723 94.2363C859.723 93.6333 860.211 93.1445 860.814 93.1445Z" stroke="#94D5AC" stroke-opacity="0.4" stroke-width="1.00865"/>
<path d="M842.989 85.54C843.871 85.54 844.585 84.8256 844.585 83.9443C844.585 83.063 843.871 82.3486 842.989 82.3486C842.108 82.3486 841.394 83.063 841.394 83.9443C841.394 84.8256 842.108 85.54 842.989 85.54Z" fill="#94D5AC"/>
<path d="M842.989 82.8525C843.592 82.8525 844.081 83.3416 844.081 83.9443C844.081 84.5471 843.592 85.0361 842.989 85.0361C842.387 85.0361 841.897 84.5471 841.897 83.9443C841.897 83.3416 842.387 82.8525 842.989 82.8525Z" stroke="#94D5AC" stroke-opacity="0.4" stroke-width="1.00865"/>
<path d="M891.861 41.0532C891.861 40.1716 892.575 39.4575 893.457 39.4575C894.339 39.4575 895.054 40.1716 895.054 41.0532C895.054 41.9348 894.34 42.6489 893.457 42.6489C892.576 42.6489 891.861 41.9348 891.861 41.0532Z" fill="#94D5AC"/>
<path d="M893.457 39.9614C894.06 39.9614 894.55 40.4506 894.55 41.0532C894.55 41.656 894.061 42.145 893.457 42.145C892.855 42.145 892.365 41.656 892.365 41.0532C892.365 40.4502 892.854 39.9614 893.457 39.9614Z" stroke="#94D5AC" stroke-opacity="0.4" stroke-width="1.00865"/>
<path d="M854.752 85.54C855.633 85.54 856.348 84.8256 856.348 83.9443C856.348 83.063 855.633 82.3486 854.752 82.3486C853.871 82.3486 853.156 83.063 853.156 83.9443C853.156 84.8256 853.871 85.54 854.752 85.54Z" fill="#94D5AC"/>
<path d="M854.752 82.8525C855.355 82.8525 855.844 83.3416 855.844 83.9443C855.844 84.5471 855.355 85.0361 854.752 85.0361C854.149 85.0361 853.66 84.5471 853.66 83.9443C853.66 83.3416 854.149 82.8525 854.752 82.8525Z" stroke="#94D5AC" stroke-opacity="0.4" stroke-width="1.00865"/>
<path d="M878.771 41.0532C878.771 40.1716 879.486 39.4575 880.367 39.4575C881.249 39.4575 881.963 40.1716 881.963 41.0532C881.963 41.9348 881.249 42.6489 880.367 42.6489C879.486 42.6489 878.771 41.9348 878.771 41.0532Z" fill="#94D5AC"/>
<path d="M880.367 39.9614C880.97 39.9614 881.459 40.4502 881.459 41.0532C881.459 41.6562 880.97 42.145 880.367 42.145C879.764 42.145 879.275 41.6562 879.275 41.0532C879.275 40.4502 879.764 39.9614 880.367 39.9614Z" stroke="#94D5AC" stroke-opacity="0.4" stroke-width="1.00865"/>
<path d="M860.815 71.6587C860.815 70.7771 861.53 70.063 862.411 70.063C863.293 70.063 864.007 70.7771 864.007 71.6587C864.007 72.5402 863.293 73.2554 862.411 73.2554C861.53 73.2554 860.815 72.5392 860.815 71.6587Z" fill="#94D5AC"/>
<path d="M862.411 70.5669C863.014 70.5669 863.503 71.0557 863.503 71.6587C863.503 72.2621 863.014 72.7515 862.411 72.7515C861.809 72.7515 861.319 72.2613 861.319 71.6587C861.319 71.0557 861.808 70.5669 862.411 70.5669Z" stroke="#94D5AC" stroke-opacity="0.4" stroke-width="1.00865"/>
<path d="M880.368 41.0527H893.457" stroke="#94D5AC" stroke-opacity="0.4" stroke-width="1.00865" stroke-miterlimit="10" stroke-linecap="round" stroke-linejoin="round"/>
<path d="M862.412 71.6587L854.752 83.9441" stroke="#94D5AC" stroke-opacity="0.4" stroke-width="1.00865" stroke-miterlimit="10" stroke-linecap="round" stroke-linejoin="round"/>
<path d="M844.585 40.7818L837.596 29.4707" stroke="#94D5AC" stroke-opacity="0.4" stroke-width="1.00865" stroke-miterlimit="10" stroke-linecap="round" stroke-linejoin="round"/>
<path d="M72.5416 680.659H84.4256L90.3676 670.367L84.4256 660.074H72.5416L66.5986 670.367L72.5416 680.659Z" stroke="#94D5AC" stroke-opacity="0.4" stroke-width="1.00865" stroke-miterlimit="10" stroke-linecap="round" stroke-linejoin="round"/>
<path d="M70.8153 703.236L64.8723 692.944H52.9883" stroke="#94D5AC" stroke-opacity="0.4" stroke-width="1.00865" stroke-miterlimit="10" stroke-linecap="round" stroke-linejoin="round"/>
<path d="M54.5846 670.366H66.4696L72.4115 660.074L66.4696 649.782H54.5846L48.6426 660.074L54.5846 670.366Z" stroke="#94D5AC" stroke-opacity="0.4" stroke-width="1.00865" stroke-miterlimit="10" stroke-linecap="round" stroke-linejoin="round"/>
<path d="M72.5416 660.074H84.4256L90.3676 649.782L84.4256 639.489H72.5416L66.5986 649.782L72.5416 660.074Z" stroke="#94D5AC" stroke-opacity="0.4" stroke-width="1.00865" stroke-miterlimit="10" stroke-linecap="round" stroke-linejoin="round"/>
<path d="M72.4111 661.669C73.2924 661.669 74.0068 660.955 74.0068 660.074C74.0068 659.192 73.2924 658.478 72.4111 658.478C71.5298 658.478 70.8154 659.192 70.8154 660.074C70.8154 660.955 71.5298 661.669 72.4111 661.669Z" fill="#94D5AC"/>
<path d="M72.4111 658.982C73.0139 658.982 73.5029 659.471 73.5029 660.074C73.5029 660.676 73.0139 661.166 72.4111 661.166C71.8084 661.166 71.3193 660.676 71.3193 660.074C71.3193 659.471 71.8084 658.982 72.4111 658.982Z" stroke="#94D5AC" stroke-opacity="0.4" stroke-width="1.00865"/>
<path d="M47.5957 640.066C48.477 640.066 49.1914 639.352 49.1914 638.471C49.1914 637.589 48.477 636.875 47.5957 636.875C46.7144 636.875 46 637.589 46 638.471C46 639.352 46.7144 640.066 47.5957 640.066Z" fill="#94D5AC"/>
<path d="M47.5957 637.379C48.1984 637.379 48.6875 637.868 48.6875 638.471C48.6875 639.073 48.1984 639.562 47.5957 639.562C46.993 639.562 46.5039 639.073 46.5039 638.471C46.5039 637.868 46.993 637.379 47.5957 637.379Z" stroke="#94D5AC" stroke-opacity="0.4" stroke-width="1.00865"/>
<path d="M69.2188 703.236C69.2188 702.355 69.9329 701.641 70.8144 701.641C71.696 701.641 72.4101 702.355 72.4101 703.236C72.4101 704.118 71.696 704.832 70.8144 704.832C69.9339 704.832 69.2188 704.118 69.2188 703.236Z" fill="#94D5AC"/>
<path d="M70.8145 702.145C71.4175 702.145 71.9062 702.633 71.9062 703.236C71.9062 703.839 71.4175 704.328 70.8145 704.328C70.2122 704.328 69.7227 703.839 69.7227 703.236C69.7227 702.633 70.2114 702.145 70.8145 702.145Z" stroke="#94D5AC" stroke-opacity="0.4" stroke-width="1.00865"/>
<path d="M52.9892 694.54C53.8705 694.54 54.5849 693.826 54.5849 692.944C54.5849 692.063 53.8705 691.349 52.9892 691.349C52.108 691.349 51.3936 692.063 51.3936 692.944C51.3936 693.826 52.108 694.54 52.9892 694.54Z" fill="#94D5AC"/>
<path d="M52.9893 691.853C53.592 691.853 54.0811 692.342 54.0811 692.944C54.081 693.547 53.592 694.036 52.9893 694.036C52.3865 694.036 51.8975 693.547 51.8975 692.944C51.8975 692.342 52.3865 691.853 52.9893 691.853Z" stroke="#94D5AC" stroke-opacity="0.4" stroke-width="1.00865"/>
<path d="M101.861 650.053C101.861 649.172 102.575 648.458 103.457 648.458C104.339 648.458 105.054 649.172 105.054 650.053C105.054 650.935 104.34 651.649 103.457 651.649C102.576 651.649 101.861 650.935 101.861 650.053Z" fill="#94D5AC"/>
<path d="M103.457 648.961C104.06 648.961 104.55 649.451 104.55 650.053C104.55 650.656 104.061 651.145 103.457 651.145C102.855 651.145 102.365 650.656 102.365 650.053C102.365 649.45 102.854 648.961 103.457 648.961Z" stroke="#94D5AC" stroke-opacity="0.4" stroke-width="1.00865"/>
<path d="M64.7519 694.54C65.6332 694.54 66.3476 693.826 66.3476 692.944C66.3476 692.063 65.6332 691.349 64.7519 691.349C63.8707 691.349 63.1562 692.063 63.1562 692.944C63.1562 693.826 63.8707 694.54 64.7519 694.54Z" fill="#94D5AC"/>
<path d="M64.752 691.853C65.3547 691.853 65.8438 692.342 65.8438 692.944C65.8437 693.547 65.3547 694.036 64.752 694.036C64.1492 694.036 63.6602 693.547 63.6602 692.944C63.6602 692.342 64.1492 691.853 64.752 691.853Z" stroke="#94D5AC" stroke-opacity="0.4" stroke-width="1.00865"/>
<path d="M88.7715 650.053C88.7715 649.172 89.4856 648.458 90.3672 648.458C91.2487 648.458 91.9629 649.172 91.9629 650.053C91.9629 650.935 91.2487 651.649 90.3672 651.649C89.4856 651.649 88.7715 650.935 88.7715 650.053Z" fill="#94D5AC"/>
<path d="M90.3672 648.961C90.9702 648.961 91.459 649.45 91.459 650.053C91.459 650.656 90.9702 651.145 90.3672 651.145C89.7642 651.145 89.2754 650.656 89.2754 650.053C89.2754 649.45 89.7642 648.961 90.3672 648.961Z" stroke="#94D5AC" stroke-opacity="0.4" stroke-width="1.00865"/>
<path d="M70.8154 680.659C70.8154 679.777 71.5296 679.063 72.4111 679.063C73.2927 679.063 74.0068 679.777 74.0068 680.659C74.0068 681.54 73.2927 682.255 72.4111 682.255C71.5296 682.255 70.8154 681.539 70.8154 680.659Z" fill="#94D5AC"/>
<path d="M72.4111 679.567C73.0142 679.567 73.5029 680.056 73.5029 680.659C73.5029 681.262 73.0137 681.751 72.4111 681.751C71.8087 681.751 71.3193 681.261 71.3193 680.659C71.3193 680.056 71.8081 679.567 72.4111 679.567Z" stroke="#94D5AC" stroke-opacity="0.4" stroke-width="1.00865"/>
<path d="M90.3682 650.053H103.457" stroke="#94D5AC" stroke-opacity="0.4" stroke-width="1.00865" stroke-miterlimit="10" stroke-linecap="round" stroke-linejoin="round"/>
<path d="M72.4117 680.659L64.752 692.944" stroke="#94D5AC" stroke-opacity="0.4" stroke-width="1.00865" stroke-miterlimit="10" stroke-linecap="round" stroke-linejoin="round"/>
<path d="M54.5847 649.782L47.5957 638.471" stroke="#94D5AC" stroke-opacity="0.4" stroke-width="1.00865" stroke-miterlimit="10" stroke-linecap="round" stroke-linejoin="round"/>
<path d="M1008.54 1092.66H1020.43L1026.37 1082.37L1020.43 1072.07H1008.54L1002.6 1082.37L1008.54 1092.66Z" stroke="#94D5AC" stroke-opacity="0.4" stroke-width="1.00865" stroke-miterlimit="10" stroke-linecap="round" stroke-linejoin="round"/>
<path d="M1006.82 1115.24L1000.87 1104.94H988.988" stroke="#94D5AC" stroke-opacity="0.4" stroke-width="1.00865" stroke-miterlimit="10" stroke-linecap="round" stroke-linejoin="round"/>
<path d="M990.585 1082.37H1002.47L1008.41 1072.07L1002.47 1061.78H990.585L984.643 1072.07L990.585 1082.37Z" stroke="#94D5AC" stroke-opacity="0.4" stroke-width="1.00865" stroke-miterlimit="10" stroke-linecap="round" stroke-linejoin="round"/>
<path d="M1008.54 1072.07H1020.43L1026.37 1061.78L1020.43 1051.49H1008.54L1002.6 1061.78L1008.54 1072.07Z" stroke="#94D5AC" stroke-opacity="0.4" stroke-width="1.00865" stroke-miterlimit="10" stroke-linecap="round" stroke-linejoin="round"/>
<path d="M1008.41 1073.67C1009.29 1073.67 1010.01 1072.95 1010.01 1072.07C1010.01 1071.19 1009.29 1070.48 1008.41 1070.48C1007.53 1070.48 1006.82 1071.19 1006.82 1072.07C1006.82 1072.95 1007.53 1073.67 1008.41 1073.67Z" fill="#94D5AC"/>
<path d="M1008.41 1070.98C1009.01 1070.98 1009.5 1071.47 1009.5 1072.07C1009.5 1072.68 1009.01 1073.17 1008.41 1073.17C1007.81 1073.17 1007.32 1072.68 1007.32 1072.07C1007.32 1071.47 1007.81 1070.98 1008.41 1070.98Z" stroke="#94D5AC" stroke-opacity="0.4" stroke-width="1.00865"/>
<path d="M983.596 1052.07C984.477 1052.07 985.191 1051.35 985.191 1050.47C985.191 1049.59 984.477 1048.88 983.596 1048.88C982.714 1048.88 982 1049.59 982 1050.47C982 1051.35 982.714 1052.07 983.596 1052.07Z" fill="#94D5AC"/>
<path d="M983.596 1049.38C984.198 1049.38 984.688 1049.87 984.688 1050.47C984.687 1051.07 984.198 1051.56 983.596 1051.56C982.993 1051.56 982.504 1051.07 982.504 1050.47C982.504 1049.87 982.993 1049.38 983.596 1049.38Z" stroke="#94D5AC" stroke-opacity="0.4" stroke-width="1.00865"/>
<path d="M1005.22 1115.24C1005.22 1114.35 1005.93 1113.64 1006.81 1113.64C1007.7 1113.64 1008.41 1114.35 1008.41 1115.24C1008.41 1116.12 1007.7 1116.83 1006.81 1116.83C1005.93 1116.83 1005.22 1116.12 1005.22 1115.24Z" fill="#94D5AC"/>
<path d="M1006.81 1114.14C1007.42 1114.14 1007.91 1114.63 1007.91 1115.24C1007.91 1115.84 1007.42 1116.33 1006.81 1116.33C1006.21 1116.33 1005.72 1115.84 1005.72 1115.24C1005.72 1114.63 1006.21 1114.14 1006.81 1114.14Z" stroke="#94D5AC" stroke-opacity="0.4" stroke-width="1.00865"/>
<path d="M988.989 1106.54C989.871 1106.54 990.585 1105.83 990.585 1104.94C990.585 1104.06 989.871 1103.35 988.989 1103.35C988.108 1103.35 987.394 1104.06 987.394 1104.94C987.394 1105.83 988.108 1106.54 988.989 1106.54Z" fill="#94D5AC"/>
<path d="M988.989 1103.85C989.592 1103.85 990.081 1104.34 990.081 1104.94C990.081 1105.55 989.592 1106.04 988.989 1106.04C988.387 1106.04 987.897 1105.55 987.897 1104.94C987.897 1104.34 988.387 1103.85 988.989 1103.85Z" stroke="#94D5AC" stroke-opacity="0.4" stroke-width="1.00865"/>
<path d="M1037.86 1062.05C1037.86 1061.17 1038.58 1060.46 1039.46 1060.46C1040.34 1060.46 1041.05 1061.17 1041.05 1062.05C1041.05 1062.93 1040.34 1063.65 1039.46 1063.65C1038.58 1063.65 1037.86 1062.93 1037.86 1062.05Z" fill="#94D5AC"/>
<path d="M1039.46 1060.96C1040.06 1060.96 1040.55 1061.45 1040.55 1062.05C1040.55 1062.66 1040.06 1063.15 1039.46 1063.15C1038.85 1063.15 1038.37 1062.66 1038.37 1062.05C1038.37 1061.45 1038.85 1060.96 1039.46 1060.96Z" stroke="#94D5AC" stroke-opacity="0.4" stroke-width="1.00865"/>
<path d="M1000.75 1106.54C1001.63 1106.54 1002.35 1105.83 1002.35 1104.94C1002.35 1104.06 1001.63 1103.35 1000.75 1103.35C999.871 1103.35 999.156 1104.06 999.156 1104.94C999.156 1105.83 999.871 1106.54 1000.75 1106.54Z" fill="#94D5AC"/>
<path d="M1000.75 1103.85C1001.35 1103.85 1001.84 1104.34 1001.84 1104.94C1001.84 1105.55 1001.35 1106.04 1000.75 1106.04C1000.15 1106.04 999.66 1105.55 999.66 1104.94C999.66 1104.34 1000.15 1103.85 1000.75 1103.85Z" stroke="#94D5AC" stroke-opacity="0.4" stroke-width="1.00865"/>
<path d="M1024.77 1062.05C1024.77 1061.17 1025.49 1060.46 1026.37 1060.46C1027.25 1060.46 1027.96 1061.17 1027.96 1062.05C1027.96 1062.93 1027.25 1063.65 1026.37 1063.65C1025.49 1063.65 1024.77 1062.93 1024.77 1062.05Z" fill="#94D5AC"/>
<path d="M1026.37 1060.96C1026.97 1060.96 1027.46 1061.45 1027.46 1062.05C1027.46 1062.66 1026.97 1063.15 1026.37 1063.15C1025.76 1063.15 1025.28 1062.66 1025.28 1062.05C1025.28 1061.45 1025.76 1060.96 1026.37 1060.96Z" stroke="#94D5AC" stroke-opacity="0.4" stroke-width="1.00865"/>
<path d="M1006.82 1092.66C1006.82 1091.78 1007.53 1091.06 1008.41 1091.06C1009.29 1091.06 1010.01 1091.78 1010.01 1092.66C1010.01 1093.54 1009.29 1094.26 1008.41 1094.26C1007.53 1094.26 1006.82 1093.54 1006.82 1092.66Z" fill="#94D5AC"/>
<path d="M1008.41 1091.57C1009.01 1091.57 1009.5 1092.06 1009.5 1092.66C1009.5 1093.26 1009.01 1093.75 1008.41 1093.75C1007.81 1093.75 1007.32 1093.26 1007.32 1092.66C1007.32 1092.06 1007.81 1091.57 1008.41 1091.57Z" stroke="#94D5AC" stroke-opacity="0.4" stroke-width="1.00865"/>
<path d="M1026.37 1062.05H1039.46" stroke="#94D5AC" stroke-opacity="0.4" stroke-width="1.00865" stroke-miterlimit="10" stroke-linecap="round" stroke-linejoin="round"/>
<path d="M1008.41 1092.66L1000.75 1104.94" stroke="#94D5AC" stroke-opacity="0.4" stroke-width="1.00865" stroke-miterlimit="10" stroke-linecap="round" stroke-linejoin="round"/>
<path d="M990.585 1061.78L983.596 1050.47" stroke="#94D5AC" stroke-opacity="0.4" stroke-width="1.00865" stroke-miterlimit="10" stroke-linecap="round" stroke-linejoin="round"/>
<path d="M67.1494 345.873C68.8506 340.094 74.195 335.875 80.5246 335.875C87.069 335.875 92.5605 340.385 94.0603 346.465" stroke="#94D5AC" stroke-opacity="0.4" stroke-width="0.639289" stroke-miterlimit="10" stroke-linecap="round" stroke-linejoin="round"/>
<path d="M78.9446 363.669C71.9892 362.884 66.584 356.982 66.584 349.817" stroke="#94D5AC" stroke-opacity="0.4" stroke-width="0.639289" stroke-miterlimit="10" stroke-linecap="round" stroke-linejoin="round"/>
<path d="M94.4664 349.816C94.4664 357.515 88.225 363.757 80.5254 363.757" stroke="#94D5AC" stroke-opacity="0.4" stroke-width="0.639289" stroke-miterlimit="10" stroke-linecap="round" stroke-linejoin="round"/>
<path d="M95.256 340.978C99.6166 340.418 102.539 340.722 102.99 342.021C103.892 344.619 94.5643 350.215 82.1576 354.52C69.7503 358.826 58.9616 360.21 58.0602 357.612C57.5782 356.223 60.019 353.977 64.2908 351.53" stroke="#94D5AC" stroke-opacity="0.4" stroke-width="0.639289" stroke-miterlimit="10" stroke-linecap="round" stroke-linejoin="round"/>
<path d="M1035.15 703.873C1036.85 698.094 1042.2 693.875 1048.52 693.875C1055.07 693.875 1060.56 698.385 1062.06 704.465" stroke="#94D5AC" stroke-opacity="0.4" stroke-width="0.639289" stroke-miterlimit="10" stroke-linecap="round" stroke-linejoin="round"/>
<path d="M1046.94 721.669C1039.99 720.884 1034.58 714.982 1034.58 707.817" stroke="#94D5AC" stroke-opacity="0.4" stroke-width="0.639289" stroke-miterlimit="10" stroke-linecap="round" stroke-linejoin="round"/>
<path d="M1062.47 707.816C1062.47 715.515 1056.22 721.757 1048.53 721.757" stroke="#94D5AC" stroke-opacity="0.4" stroke-width="0.639289" stroke-miterlimit="10" stroke-linecap="round" stroke-linejoin="round"/>
<path d="M1063.26 698.978C1067.62 698.418 1070.54 698.722 1070.99 700.021C1071.89 702.619 1062.56 708.215 1050.16 712.52C1037.75 716.826 1026.96 718.21 1026.06 715.612C1025.58 714.223 1028.02 711.977 1032.29 709.53" stroke="#94D5AC" stroke-opacity="0.4" stroke-width="0.639289" stroke-miterlimit="10" stroke-linecap="round" stroke-linejoin="round"/>
<path d="M215.149 758.873C216.851 753.094 222.195 748.875 228.525 748.875C235.069 748.875 240.561 753.385 242.06 759.465" stroke="#94D5AC" stroke-opacity="0.4" stroke-width="0.639289" stroke-miterlimit="10" stroke-linecap="round" stroke-linejoin="round"/>
<path d="M226.945 776.669C219.989 775.884 214.584 769.982 214.584 762.817" stroke="#94D5AC" stroke-opacity="0.4" stroke-width="0.639289" stroke-miterlimit="10" stroke-linecap="round" stroke-linejoin="round"/>
<path d="M242.466 762.816C242.466 770.515 236.225 776.757 228.525 776.757" stroke="#94D5AC" stroke-opacity="0.4" stroke-width="0.639289" stroke-miterlimit="10" stroke-linecap="round" stroke-linejoin="round"/>
<path d="M243.256 753.978C247.617 753.418 250.539 753.722 250.99 755.021C251.892 757.619 242.564 763.215 230.158 767.52C217.75 771.826 206.962 773.21 206.06 770.612C205.578 769.223 208.019 766.977 212.291 764.53" stroke="#94D5AC" stroke-opacity="0.4" stroke-width="0.639289" stroke-miterlimit="10" stroke-linecap="round" stroke-linejoin="round"/>
<path d="M1147.82 195.875L1149.93 200.146L1154.64 200.831L1151.23 204.155L1152.04 208.849L1147.82 206.633L1143.61 208.849L1144.41 204.155L1141 200.831L1145.71 200.146L1147.82 195.875Z" stroke="#94D5AC" stroke-opacity="0.4" stroke-width="1.00865" stroke-miterlimit="10" stroke-linecap="round" stroke-linejoin="round"/>
<path d="M1198.82 695.875L1200.93 700.146L1205.64 700.831L1202.23 704.155L1203.04 708.849L1198.82 706.633L1194.61 708.849L1195.41 704.155L1192 700.831L1196.71 700.146L1198.82 695.875Z" stroke="#94D5AC" stroke-opacity="0.4" stroke-width="1.00865" stroke-miterlimit="10" stroke-linecap="round" stroke-linejoin="round"/>
<path d="M1064.62 101.178C1064.62 105.293 1062.88 109.005 1060.11 111.597C1057.54 114.018 1054.1 115.491 1050.31 115.491C1049.85 115.491 1049.39 115.47 1048.95 115.43C1045.98 115.148 1043.27 113.957 1041.11 112.142C1039.27 110.599 1037.82 108.591 1036.95 106.302C1036.33 104.708 1036 102.983 1036 101.178C1036 93.28 1042.4 86.875 1050.31 86.875C1052.53 86.875 1054.64 87.3793 1056.53 88.2972C1058.68 89.3361 1060.54 90.8995 1061.92 92.8261C1063.62 95.1762 1064.62 98.061 1064.62 101.178Z" stroke="#94D5AC" stroke-opacity="0.4" stroke-width="1.00865" stroke-miterlimit="10" stroke-linecap="round" stroke-linejoin="round"/>
<path d="M1062.32 103.766C1062.32 104.988 1061.33 105.979 1060.11 105.979C1058.88 105.979 1057.89 104.988 1057.89 103.766C1057.89 102.543 1058.88 101.553 1060.11 101.553C1061.33 101.553 1062.32 102.543 1062.32 103.766Z" stroke="#94D5AC" stroke-opacity="0.4" stroke-width="1.00865" stroke-miterlimit="10" stroke-linecap="round" stroke-linejoin="round"/>
<path d="M1042.41 109.388C1042.41 110.498 1041.9 111.486 1041.11 112.142C1039.27 110.598 1037.82 108.591 1036.95 106.302C1037.48 105.969 1038.12 105.787 1038.79 105.787C1040.79 105.787 1042.41 107.401 1042.41 109.388Z" stroke="#94D5AC" stroke-opacity="0.4" stroke-width="1.00865" stroke-miterlimit="10" stroke-linecap="round" stroke-linejoin="round"/>
<path d="M1060.11 111.597C1057.54 114.018 1054.1 115.49 1050.31 115.49C1049.85 115.49 1049.39 115.47 1048.95 115.43C1048.87 115.047 1048.83 114.653 1048.83 114.25C1048.83 110.962 1051.49 108.289 1054.78 108.289C1057.12 108.289 1059.14 109.64 1060.11 111.597Z" stroke="#94D5AC" stroke-opacity="0.4" stroke-width="1.00865" stroke-miterlimit="10" stroke-linecap="round" stroke-linejoin="round"/>
<path d="M1046.84 95.5058C1048.66 95.5058 1050.14 94.0323 1050.14 92.2146C1050.14 90.3969 1048.66 88.9233 1046.84 88.9233C1045.03 88.9233 1043.55 90.3969 1043.55 92.2146C1043.55 94.0323 1045.03 95.5058 1046.84 95.5058Z" stroke="#94D5AC" stroke-opacity="0.4" stroke-width="1.00865" stroke-miterlimit="10" stroke-linecap="round" stroke-linejoin="round"/>
<path d="M1049.89 101.553C1049.89 102.394 1049.21 103.075 1048.37 103.075C1047.52 103.075 1046.84 102.393 1046.84 101.553C1046.84 100.712 1047.52 100.03 1048.37 100.03C1049.21 100.03 1049.89 100.713 1049.89 101.553Z" stroke="#94D5AC" stroke-opacity="0.4" stroke-width="1.00865" stroke-miterlimit="10" stroke-linecap="round" stroke-linejoin="round"/>
<path d="M1061.92 92.8262C1061.54 92.9573 1061.12 93.0179 1060.68 93.0179C1058.36 93.0179 1056.5 91.1418 1056.5 88.8219C1056.5 88.6403 1056.51 88.4688 1056.53 88.2974C1058.68 89.3363 1060.54 90.8997 1061.92 92.8262Z" stroke="#94D5AC" stroke-opacity="0.4" stroke-width="1.00865" stroke-miterlimit="10" stroke-linecap="round" stroke-linejoin="round"/>
<path d="M910.167 488.26L911.711 484.791L909.211 483.411C909.3 482.794 909.318 482.176 909.262 481.568L911.826 480.32L910.464 476.776L907.723 477.567C907.358 477.078 906.932 476.631 906.453 476.231L907.385 473.533L903.916 471.99L902.536 474.489C901.919 474.401 901.301 474.383 900.693 474.439L899.445 471.875L895.901 473.237L896.692 475.977C896.203 476.342 895.756 476.769 895.356 477.249L892.658 476.317L891.115 479.786L893.614 481.166C893.526 481.783 893.508 482.4 893.564 483.009L891 484.256L892.362 487.801L895.101 487.01C895.466 487.499 895.893 487.946 896.373 488.345L895.441 491.043L898.91 492.587L900.29 490.088C900.907 490.177 901.524 490.194 902.133 490.139L903.38 492.703L906.925 491.341L906.134 488.601C906.623 488.235 907.07 487.809 907.469 487.33L910.167 488.26ZM899.619 486.32C897.393 485.329 896.39 482.722 897.381 480.496C898.371 478.27 900.979 477.267 903.205 478.258C905.431 479.248 906.433 481.856 905.443 484.082C904.453 486.308 901.846 487.309 899.619 486.32Z" stroke="#94D5AC" stroke-opacity="0.4" stroke-width="1.00865" stroke-miterlimit="10" stroke-linecap="round" stroke-linejoin="round"/>
<path d="M311.034 444.128L313.13 439.417L309.736 437.542C309.857 436.704 309.88 435.865 309.804 435.039L313.287 433.344L311.437 428.531L307.716 429.605C307.22 428.941 306.641 428.333 305.989 427.792L307.255 424.127L302.544 422.031L300.669 425.425C299.831 425.304 298.992 425.281 298.166 425.358L296.471 421.875L291.658 423.725L292.731 427.446C292.067 427.942 291.459 428.521 290.918 429.173L287.253 427.907L285.157 432.618L288.551 434.492C288.43 435.33 288.407 436.17 288.483 436.996L285 438.69L286.85 443.504L290.571 442.43C291.067 443.095 291.646 443.702 292.298 444.244L291.032 447.908L295.743 450.004L297.617 446.61C298.455 446.731 299.295 446.754 300.121 446.679L301.815 450.162L306.629 448.312L305.554 444.591C306.219 444.095 306.826 443.516 307.368 442.864L311.034 444.128ZM296.709 441.492C293.686 440.148 292.325 436.606 293.669 433.582C295.014 430.559 298.555 429.198 301.579 430.542C304.603 431.887 305.964 435.428 304.619 438.452C303.275 441.476 299.733 442.838 296.709 441.492Z" stroke="#94D5AC" stroke-opacity="0.4" stroke-width="1.00865" stroke-miterlimit="10" stroke-linecap="round" stroke-linejoin="round"/>
</svg>
