<svg width="404" height="627" viewBox="0 0 404 627" fill="none" xmlns="http://www.w3.org/2000/svg">
<path d="M0 29.3921C0 13.3401 13.0127 0.327393 29.0647 0.327393H404V626.673H29.0647C13.0127 626.673 0 613.66 0 597.608V29.3921Z" fill="#F0FFF6"/>
<path d="M172.549 240.75C234.738 224.62 255.225 267.29 280.876 308.742C306.527 350.194 333.256 401.85 288.999 434.283H104.62C104.62 434.283 77.6971 427.451 77.2424 391.185C76.908 364.506 103.567 360.889 112.293 319.972C121.02 279.055 140.902 248.958 172.549 240.75Z" fill="#92E3A9"/>
<path opacity="0.7" d="M172.549 240.75C234.738 224.62 255.225 267.29 280.876 308.742C306.527 350.194 333.256 401.85 288.999 434.283H104.62C104.62 434.283 77.6971 427.451 77.2424 391.185C76.908 364.506 103.567 360.889 112.293 319.972C121.02 279.055 140.902 248.958 172.549 240.75Z" fill="white"/>
<path d="M255.505 198.423C255.505 176.011 231.362 157.842 201.58 157.842C171.797 157.842 147.654 176.011 147.654 198.423C147.654 219.549 169.11 236.897 196.516 238.819L201.58 252.039L206.644 238.819C234.051 236.896 255.505 219.548 255.505 198.423Z" fill="white" stroke="#263238" stroke-width="0.926476" stroke-miterlimit="10" stroke-linecap="round" stroke-linejoin="round"/>
<path d="M205.388 192.15V185.698L201.85 185.418C201.504 184.047 200.965 182.757 200.257 181.574L202.56 178.874L197.998 174.312L195.298 176.616C194.115 175.908 192.825 175.368 191.454 175.024L191.173 171.485H184.721L184.44 175.024C183.069 175.368 181.779 175.908 180.597 176.616L177.897 174.312L173.334 178.874L175.638 181.574C174.93 182.756 174.391 184.047 174.045 185.417L170.507 185.698V192.15L174.045 192.431C174.39 193.801 174.93 195.091 175.638 196.274L173.334 198.974L177.897 203.536L180.597 201.233C181.779 201.941 183.07 202.48 184.44 202.825L184.721 206.363H191.173L191.454 202.825C192.825 202.48 194.114 201.94 195.298 201.233L197.998 203.536L202.56 198.974L200.257 196.274C200.965 195.091 201.504 193.801 201.85 192.43L205.388 192.15ZM187.948 195.133C184.52 195.133 181.739 192.354 181.739 188.925C181.739 185.496 184.52 182.717 187.948 182.717C191.377 182.717 194.156 185.496 194.156 188.925C194.156 192.354 191.377 195.133 187.948 195.133Z" fill="#92E3A9" stroke="#263238" stroke-width="0.926476" stroke-miterlimit="10" stroke-linecap="round" stroke-linejoin="round"/>
<path d="M232.65 200.071V195.081L229.913 194.865C229.647 193.805 229.231 192.808 228.682 191.893L230.465 189.806L226.936 186.277L224.847 188.059C223.932 187.512 222.936 187.094 221.876 186.827L221.658 184.09H216.669L216.454 186.827C215.392 187.094 214.394 187.511 213.481 188.059L211.392 186.277L207.863 189.806L209.646 191.893C209.097 192.808 208.68 193.805 208.414 194.865L205.678 195.081V200.071L208.414 200.288C208.68 201.348 209.097 202.347 209.646 203.26L207.863 205.348L211.392 208.876L213.481 207.095C214.394 207.642 215.392 208.06 216.454 208.326L216.669 211.063H221.658L221.876 208.326C222.937 208.06 223.932 207.643 224.847 207.095L226.936 208.876L230.465 205.348L228.682 203.26C229.231 202.345 229.647 201.348 229.913 200.287L232.65 200.071ZM219.164 202.379C216.511 202.379 214.363 200.23 214.363 197.577C214.363 194.926 216.51 192.776 219.164 192.776C221.814 192.776 223.965 194.925 223.965 197.577C223.965 200.229 221.815 202.379 219.164 202.379Z" fill="#92E3A9"/>
<mask id="mask0_125_2613" style="mask-type:luminance" maskUnits="userSpaceOnUse" x="205" y="184" width="28" height="28">
<path d="M232.65 200.071V195.081L229.913 194.865C229.647 193.805 229.231 192.808 228.682 191.893L230.465 189.806L226.936 186.277L224.847 188.059C223.932 187.512 222.936 187.094 221.876 186.827L221.658 184.09H216.669L216.454 186.827C215.392 187.094 214.394 187.511 213.481 188.059L211.392 186.277L207.863 189.806L209.646 191.893C209.097 192.808 208.68 193.805 208.414 194.865L205.678 195.081V200.071L208.414 200.288C208.68 201.348 209.097 202.347 209.646 203.26L207.863 205.348L211.392 208.876L213.481 207.095C214.394 207.642 215.392 208.06 216.454 208.326L216.669 211.063H221.658L221.876 208.326C222.937 208.06 223.932 207.643 224.847 207.095L226.936 208.876L230.465 205.348L228.682 203.26C229.231 202.345 229.647 201.348 229.913 200.287L232.65 200.071ZM219.164 202.379C216.511 202.379 214.363 200.23 214.363 197.577C214.363 194.926 216.51 192.776 219.164 192.776C221.814 192.776 223.965 194.925 223.965 197.577C223.965 200.229 221.815 202.379 219.164 202.379Z" fill="white"/>
</mask>
<g mask="url(#mask0_125_2613)">
<path opacity="0.5" d="M232.65 200.071V195.081L229.913 194.865C229.647 193.805 229.231 192.808 228.682 191.893L230.465 189.806L226.936 186.277L224.847 188.059C223.932 187.512 222.936 187.094 221.876 186.827L221.658 184.09H216.669L216.454 186.827C215.392 187.094 214.394 187.511 213.481 188.059L211.392 186.277L207.863 189.806L209.646 191.893C209.097 192.808 208.68 193.805 208.414 194.865L205.678 195.081V200.071L208.414 200.288C208.68 201.348 209.097 202.347 209.646 203.26L207.863 205.348L211.392 208.876L213.481 207.095C214.394 207.642 215.392 208.06 216.454 208.326L216.669 211.063H221.658L221.876 208.326C222.937 208.06 223.932 207.643 224.847 207.095L226.936 208.876L230.465 205.348L228.682 203.26C229.231 202.345 229.647 201.348 229.913 200.287L232.65 200.071ZM219.164 202.379C216.511 202.379 214.363 200.23 214.363 197.577C214.363 194.926 216.51 192.776 219.164 192.776C221.814 192.776 223.965 194.925 223.965 197.577C223.965 200.229 221.815 202.379 219.164 202.379Z" fill="white"/>
</g>
<path d="M232.65 200.071V195.081L229.913 194.865C229.647 193.805 229.231 192.808 228.682 191.893L230.465 189.806L226.936 186.277L224.847 188.059C223.932 187.512 222.936 187.094 221.876 186.827L221.658 184.09H216.669L216.454 186.827C215.392 187.094 214.394 187.511 213.481 188.059L211.392 186.277L207.863 189.806L209.646 191.893C209.097 192.808 208.68 193.805 208.414 194.865L205.678 195.081V200.071L208.414 200.288C208.68 201.348 209.097 202.347 209.646 203.26L207.863 205.348L211.392 208.876L213.481 207.095C214.394 207.642 215.392 208.06 216.454 208.326L216.669 211.063H221.658L221.876 208.326C222.937 208.06 223.932 207.643 224.847 207.095L226.936 208.876L230.465 205.348L228.682 203.26C229.231 202.345 229.647 201.348 229.913 200.287L232.65 200.071ZM219.164 202.379C216.511 202.379 214.363 200.23 214.363 197.577C214.363 194.926 216.51 192.776 219.164 192.776C221.814 192.776 223.965 194.925 223.965 197.577C223.965 200.229 221.815 202.379 219.164 202.379Z" stroke="#263238" stroke-width="0.926476" stroke-miterlimit="10" stroke-linecap="round" stroke-linejoin="round"/>
<path d="M209.131 217.457V213.868L207.166 213.714C206.973 212.951 206.674 212.234 206.28 211.576L207.561 210.074L205.024 207.538L203.524 208.818C202.866 208.425 202.15 208.124 201.387 207.932L201.231 205.965H197.643L197.487 207.932C196.726 208.124 196.008 208.424 195.349 208.818L193.849 207.537L191.313 210.073L192.593 211.574C192.2 212.232 191.9 212.949 191.708 213.712L189.741 213.867V217.456L191.708 217.611C191.9 218.373 192.2 219.091 192.593 219.748L191.313 221.25L193.849 223.786L195.349 222.505C196.008 222.899 196.725 223.199 197.487 223.391L197.643 225.358H201.231L201.387 223.391C202.149 223.199 202.866 222.899 203.524 222.505L205.024 223.786L207.561 221.25L206.28 219.748C206.674 219.09 206.975 218.373 207.166 217.61L209.131 217.457ZM199.438 219.115C197.531 219.115 195.985 217.571 195.985 215.663C195.985 213.755 197.531 212.211 199.438 212.211C201.344 212.211 202.89 213.755 202.89 215.663C202.89 217.571 201.343 219.115 199.438 219.115Z" fill="#92E3A9"/>
<mask id="mask1_125_2613" style="mask-type:luminance" maskUnits="userSpaceOnUse" x="189" y="205" width="21" height="21">
<path d="M209.131 217.457V213.868L207.166 213.714C206.973 212.951 206.674 212.234 206.28 211.576L207.561 210.074L205.024 207.538L203.524 208.818C202.866 208.425 202.15 208.124 201.387 207.932L201.231 205.965H197.643L197.487 207.932C196.726 208.124 196.008 208.424 195.349 208.818L193.849 207.537L191.313 210.073L192.593 211.574C192.2 212.232 191.9 212.949 191.708 213.712L189.741 213.867V217.456L191.708 217.611C191.9 218.373 192.2 219.091 192.593 219.748L191.313 221.25L193.849 223.786L195.349 222.505C196.008 222.899 196.725 223.199 197.487 223.391L197.643 225.358H201.231L201.387 223.391C202.149 223.199 202.866 222.899 203.524 222.505L205.024 223.786L207.561 221.25L206.28 219.748C206.674 219.09 206.975 218.373 207.166 217.61L209.131 217.457ZM199.438 219.115C197.531 219.115 195.985 217.571 195.985 215.663C195.985 213.755 197.531 212.211 199.438 212.211C201.344 212.211 202.89 213.755 202.89 215.663C202.89 217.571 201.343 219.115 199.438 219.115Z" fill="white"/>
</mask>
<g mask="url(#mask1_125_2613)">
<path opacity="0.7" d="M209.131 217.457V213.868L207.166 213.714C206.973 212.951 206.674 212.234 206.28 211.576L207.561 210.074L205.024 207.538L203.524 208.818C202.866 208.425 202.15 208.124 201.387 207.932L201.231 205.965H197.643L197.487 207.932C196.726 208.124 196.008 208.424 195.349 208.818L193.849 207.537L191.313 210.073L192.593 211.574C192.2 212.232 191.9 212.949 191.708 213.712L189.741 213.867V217.456L191.708 217.611C191.9 218.373 192.2 219.091 192.593 219.748L191.313 221.25L193.849 223.786L195.349 222.505C196.008 222.899 196.725 223.199 197.487 223.391L197.643 225.358H201.231L201.387 223.391C202.149 223.199 202.866 222.899 203.524 222.505L205.024 223.786L207.561 221.25L206.28 219.748C206.674 219.09 206.975 218.373 207.166 217.61L209.131 217.457ZM199.438 219.115C197.531 219.115 195.985 217.571 195.985 215.663C195.985 213.755 197.531 212.211 199.438 212.211C201.344 212.211 202.89 213.755 202.89 215.663C202.89 217.571 201.343 219.115 199.438 219.115Z" fill="white"/>
</g>
<path d="M209.131 217.457V213.868L207.166 213.714C206.973 212.951 206.674 212.234 206.28 211.576L207.561 210.074L205.024 207.538L203.524 208.818C202.866 208.425 202.15 208.124 201.387 207.932L201.231 205.965H197.643L197.487 207.932C196.726 208.124 196.008 208.424 195.349 208.818L193.849 207.537L191.313 210.073L192.593 211.574C192.2 212.232 191.9 212.949 191.708 213.712L189.741 213.867V217.456L191.708 217.611C191.9 218.373 192.2 219.091 192.593 219.748L191.313 221.25L193.849 223.786L195.349 222.505C196.008 222.899 196.725 223.199 197.487 223.391L197.643 225.358H201.231L201.387 223.391C202.149 223.199 202.866 222.899 203.524 222.505L205.024 223.786L207.561 221.25L206.28 219.748C206.674 219.09 206.975 218.373 207.166 217.61L209.131 217.457ZM199.438 219.115C197.531 219.115 195.985 217.571 195.985 215.663C195.985 213.755 197.531 212.211 199.438 212.211C201.344 212.211 202.89 213.755 202.89 215.663C202.89 217.571 201.343 219.115 199.438 219.115Z" stroke="#263238" stroke-width="0.926476" stroke-miterlimit="10" stroke-linecap="round" stroke-linejoin="round"/>
<path d="M270.649 360.006C264.065 348.775 236.817 338.995 206.552 337.788C206.471 337.786 206.39 337.78 206.309 337.777C205.319 337.738 204.325 337.71 203.329 337.69L203.326 337.661C202.821 337.661 202.318 337.67 201.813 337.675C201.309 337.67 200.805 337.661 200.3 337.661L200.296 337.69C199.3 337.71 198.308 337.738 197.317 337.777C197.231 337.78 197.146 337.787 197.061 337.789C166.8 338.999 139.561 348.776 132.977 360.006C125.942 372.007 115.525 391.313 115.525 391.313C121.365 400.767 143.785 402.03 143.785 402.03L144.978 427.457H194.339H209.286H258.647L259.84 402.03C259.84 402.03 282.26 400.767 288.099 391.313C288.101 391.313 277.685 372.007 270.649 360.006Z" fill="#92E3A9" stroke="#263238" stroke-width="0.926476" stroke-miterlimit="10" stroke-linecap="round" stroke-linejoin="round"/>
<path d="M168.405 418.294C168.405 418.294 116.013 427.087 112.242 419.906C111.862 419.184 111.612 418.322 111.482 417.349C110.25 408.687 117.764 391.603 117.764 391.603C123.591 391.047 129.706 392.557 134.598 394.345C134.607 394.354 134.607 394.354 134.607 394.345C140.296 396.439 144.335 398.931 144.372 399.042L143.983 399.895L143.853 400.163L156.092 400.552L167.043 400.904L167.293 400.914V400.932L168.405 418.294Z" fill="white"/>
<mask id="mask2_125_2613" style="mask-type:luminance" maskUnits="userSpaceOnUse" x="111" y="391" width="58" height="32">
<path d="M168.405 418.294C168.405 418.294 116.013 427.087 112.242 419.906C111.862 419.184 111.612 418.322 111.482 417.349C110.25 408.687 117.764 391.603 117.764 391.603C123.591 391.047 129.706 392.557 134.598 394.345C134.607 394.354 134.607 394.354 134.607 394.345C140.296 396.439 144.335 398.931 144.372 399.042L143.983 399.895L143.853 400.163L156.092 400.552L167.043 400.904L167.293 400.914V400.932L168.405 418.294Z" fill="white"/>
</mask>
<g mask="url(#mask2_125_2613)">
<path opacity="0.2" d="M143.983 399.895C131.995 400.126 127.446 401.775 127.446 401.775C127.446 401.775 130.475 397.004 134.598 394.345C134.607 394.354 134.607 394.354 134.607 394.345C140.296 396.439 144.335 398.931 144.373 399.042L143.983 399.895Z" fill="#92E3A9"/>
<path opacity="0.2" d="M168.405 418.294C168.405 418.294 116.013 427.087 112.242 419.906C111.862 419.184 111.612 418.322 111.482 417.349C112.826 417.859 114.197 418.192 115.531 418.239C122.387 418.48 156.963 414.209 156.963 414.209L156.092 400.552L156.064 400.108C159.381 400.274 163.032 400.525 167.043 400.904C167.127 400.914 167.21 400.923 167.293 400.932L168.405 418.294Z" fill="#92E3A9"/>
</g>
<path d="M168.405 418.294C168.405 418.294 116.013 427.087 112.242 419.906C111.862 419.184 111.612 418.322 111.482 417.349C110.25 408.687 117.764 391.603 117.764 391.603C123.591 391.047 129.706 392.557 134.598 394.345C134.607 394.354 134.607 394.354 134.607 394.345C140.296 396.439 144.335 398.931 144.372 399.042L143.983 399.895L143.853 400.163L156.092 400.552L167.043 400.904L167.293 400.914V400.932L168.405 418.294Z" stroke="#263238" stroke-width="0.926476" stroke-miterlimit="10" stroke-linecap="round" stroke-linejoin="round"/>
<path d="M143.852 400.16C143.852 400.16 131.477 399.833 126.202 402.251" stroke="#263238" stroke-width="0.926476" stroke-miterlimit="10" stroke-linecap="round" stroke-linejoin="round"/>
<path d="M255.222 396.649C255.222 396.649 250.37 374.216 259.776 363.356" stroke="#263238" stroke-width="0.926476" stroke-miterlimit="10" stroke-linecap="round" stroke-linejoin="round"/>
<path d="M263.466 374.53C263.466 374.53 257.095 379.146 255.938 386.651" stroke="#263238" stroke-width="0.926476" stroke-miterlimit="10" stroke-linecap="round" stroke-linejoin="round"/>
<path d="M143.852 360.74C143.852 360.74 152.439 377.503 147.479 397.885" stroke="#263238" stroke-width="0.926476" stroke-miterlimit="10" stroke-linecap="round" stroke-linejoin="round"/>
<path d="M137.621 368.508C137.621 368.508 144.409 372.642 147.479 379.087" stroke="#263238" stroke-width="0.926476" stroke-miterlimit="10" stroke-linecap="round" stroke-linejoin="round"/>
<path d="M222.529 340.444C222.529 340.444 212.489 366.075 182.6 352.178" stroke="#263238" stroke-width="0.926476" stroke-miterlimit="10" stroke-linecap="round" stroke-linejoin="round"/>
<path d="M269.095 357.823C269.095 357.823 262.62 361.597 259.702 369.935" stroke="#263238" stroke-width="0.926476" stroke-miterlimit="10" stroke-linecap="round" stroke-linejoin="round"/>
<path d="M134.533 357.823C134.533 357.823 139.647 360.517 142.55 367.002" stroke="#263238" stroke-width="0.926476" stroke-miterlimit="10" stroke-linecap="round" stroke-linejoin="round"/>
<path d="M178.652 339.605C178.652 339.605 181.981 353.26 201.085 353.568" stroke="#263238" stroke-width="0.926476" stroke-miterlimit="10" stroke-linecap="round" stroke-linejoin="round"/>
<path d="M240.881 353.568C240.881 353.568 205.365 388.26 180.196 389.521" stroke="#263238" stroke-width="0.926476" stroke-miterlimit="10" stroke-linecap="round" stroke-linejoin="round"/>
<path d="M160.276 359.435C160.276 359.435 165.195 370.478 174.162 374.53" stroke="#263238" stroke-width="0.926476" stroke-miterlimit="10" stroke-linecap="round" stroke-linejoin="round"/>
<path d="M235.494 418.294C235.494 418.294 287.886 427.087 291.657 419.906C292.036 419.184 292.287 418.322 292.416 417.349C293.649 408.687 286.135 391.603 286.135 391.603C280.307 391.047 274.193 392.557 269.301 394.345C269.292 394.354 269.292 394.354 269.292 394.345C263.603 396.439 259.564 398.931 259.526 399.042L259.916 399.895L260.045 400.163L247.807 400.552L236.856 400.904L236.605 400.914V400.932L235.494 418.294Z" fill="white"/>
<mask id="mask3_125_2613" style="mask-type:luminance" maskUnits="userSpaceOnUse" x="235" y="391" width="58" height="32">
<path d="M235.494 418.294C235.494 418.294 287.886 427.087 291.657 419.906C292.036 419.184 292.287 418.322 292.416 417.349C293.649 408.687 286.135 391.603 286.135 391.603C280.307 391.047 274.193 392.557 269.301 394.345C269.292 394.354 269.292 394.354 269.292 394.345C263.603 396.439 259.564 398.931 259.526 399.042L259.916 399.895L260.045 400.163L247.807 400.552L236.856 400.904L236.605 400.914V400.932L235.494 418.294Z" fill="white"/>
</mask>
<g mask="url(#mask3_125_2613)">
<path opacity="0.2" d="M259.915 399.895C271.904 400.126 276.453 401.775 276.453 401.775C276.453 401.775 273.424 397.004 269.301 394.345C269.291 394.354 269.291 394.354 269.291 394.345C263.603 396.439 259.563 398.931 259.526 399.042L259.915 399.895Z" fill="#92E3A9"/>
<path opacity="0.2" d="M235.494 418.294C235.494 418.294 287.886 427.087 291.657 419.906C292.036 419.184 292.287 418.322 292.416 417.349C291.073 417.859 289.702 418.192 288.368 418.239C281.512 418.48 246.936 414.209 246.936 414.209L247.807 400.552L247.834 400.108C244.518 400.274 240.867 400.525 236.856 400.904C236.772 400.914 236.689 400.923 236.605 400.932L235.494 418.294Z" fill="#92E3A9"/>
</g>
<path d="M235.494 418.294C235.494 418.294 287.886 427.087 291.657 419.906C292.037 419.184 292.287 418.322 292.416 417.349C293.649 408.687 286.135 391.603 286.135 391.603C280.307 391.047 274.193 392.557 269.301 394.345C269.292 394.354 269.292 394.354 269.292 394.345C263.603 396.439 259.564 398.931 259.526 399.042L259.916 399.895L260.045 400.163L247.807 400.552L236.856 400.904L236.605 400.914V400.932L235.494 418.294Z" stroke="#263238" stroke-width="0.926476" stroke-miterlimit="10" stroke-linecap="round" stroke-linejoin="round"/>
<path d="M260.047 400.16C260.047 400.16 272.422 399.833 277.697 402.251" stroke="#263238" stroke-width="0.926476" stroke-miterlimit="10" stroke-linecap="round" stroke-linejoin="round"/>
<path d="M219.568 340.495C219.568 340.495 213.909 350.707 200.74 350.063C189.96 349.522 182.599 341.351 182.599 341.351C186.472 338.211 187.047 330.615 186.777 325.626C186.767 325.512 186.767 325.408 186.759 325.295C186.741 324.971 186.715 324.65 186.69 324.336C186.393 320.734 185.704 318.022 185.704 318.022L217.954 319.635C216.568 323.489 215.958 326.717 215.836 329.377C215.757 331.043 215.871 332.49 216.088 333.738C216.097 333.791 216.106 333.834 216.113 333.877C217.005 338.672 219.568 340.495 219.568 340.495Z" fill="white" stroke="#263238" stroke-width="0.926476" stroke-miterlimit="10"/>
<path d="M147.479 413.94V417.386C147.479 418.47 148.358 419.347 149.441 419.347H253.261C254.344 419.347 255.222 418.47 255.222 417.386V413.94H147.479Z" fill="#757575" stroke="#263238" stroke-width="0.926476" stroke-miterlimit="10" stroke-linecap="round" stroke-linejoin="round"/>
<path d="M267.971 363.236L254.593 413.19C254.314 414.202 253.477 415.082 252.5 415.467C252.151 415.606 251.793 415.685 251.427 415.685H151.273C150.907 415.685 150.55 415.606 150.2 415.467C149.224 415.082 148.386 414.202 148.107 413.19L134.729 363.236C134.354 361.858 135.174 360.741 136.552 360.741H266.148C267.527 360.74 268.347 361.857 267.971 363.236Z" fill="#BFBFBF" stroke="#263238" stroke-width="0.926476" stroke-miterlimit="10"/>
<path d="M265.792 365.851L252.5 415.467C252.151 415.606 251.793 415.684 251.428 415.684H151.274C150.908 415.684 150.55 415.606 150.201 415.467L136.91 365.851C136.535 364.473 137.354 363.357 138.733 363.357H263.968C265.347 363.356 266.167 364.473 265.792 365.851Z" fill="#999999" stroke="#263238" stroke-width="0.926476" stroke-miterlimit="10" stroke-linecap="round" stroke-linejoin="round"/>
<path d="M208.132 393.772C205.17 393.772 202.767 391.996 202.767 389.806C202.767 389.301 202.901 388.82 203.133 388.376C202.56 388.273 201.965 388.212 201.35 388.212C197.195 388.212 193.828 390.702 193.828 393.772C193.828 396.843 197.195 399.331 201.35 399.331C205.504 399.331 208.872 396.843 208.872 393.772C208.872 393.757 208.869 393.745 208.869 393.73C208.628 393.755 208.384 393.772 208.132 393.772Z" fill="#BFBFBF" stroke="#263238" stroke-width="0.926476" stroke-miterlimit="10"/>
<path d="M217.956 319.634C216.57 323.488 215.959 326.716 215.837 329.376C212.339 332.882 208.048 335.491 203.314 334.749C196.467 333.666 190.772 328.609 186.691 324.336C186.394 320.734 185.705 318.022 185.705 318.022L217.956 319.634Z" fill="#263238"/>
<path d="M224.526 296.154C224.526 296.154 227.126 293.33 228.404 294.259C229.683 295.188 231.193 297.821 230.496 300.221C229.8 302.622 226.778 306.803 226.545 309.243C226.313 311.68 224.748 314.444 223.034 312.831C221.319 311.217 224.526 296.154 224.526 296.154Z" fill="white" stroke="#263238" stroke-width="0.926476" stroke-miterlimit="10"/>
<path d="M178.176 296.154C178.176 296.154 175.574 293.33 174.296 294.259C173.018 295.188 171.509 297.821 172.205 300.221C172.902 302.622 175.922 306.803 176.154 309.243C176.387 311.68 177.951 314.444 179.667 312.831C181.381 311.217 178.176 296.154 178.176 296.154Z" fill="white" stroke="#263238" stroke-width="0.926476" stroke-miterlimit="10"/>
<path d="M200.802 263.492C233.509 263.492 225.732 307.053 219.715 321.037C217.602 325.95 206.648 332.395 201.35 332.395C196.424 332.395 185.153 324.691 183.154 320.079C177.066 306.024 169.625 263.492 200.802 263.492Z" fill="white" stroke="#263238" stroke-width="0.926476" stroke-miterlimit="10"/>
<path d="M206.346 298.237C206.346 298.237 214.686 296.707 217.494 299.997" stroke="#263238" stroke-width="0.926476" stroke-miterlimit="10" stroke-linecap="round" stroke-linejoin="round"/>
<path d="M212.651 304.527C212.651 305.532 212.141 306.346 211.511 306.346C210.881 306.346 210.372 305.532 210.372 304.527C210.372 303.521 210.882 302.707 211.511 302.707C212.141 302.707 212.651 303.521 212.651 304.527Z" fill="#263238"/>
<path d="M196.356 298.237C196.356 298.237 188.668 297.56 185.205 299.996" stroke="#263238" stroke-width="0.926476" stroke-miterlimit="10" stroke-linecap="round" stroke-linejoin="round"/>
<path d="M190.05 304.527C190.05 305.532 190.561 306.346 191.19 306.346C191.818 306.346 192.328 305.532 192.328 304.527C192.328 303.521 191.818 302.707 191.19 302.707C190.561 302.707 190.05 303.521 190.05 304.527Z" fill="#263238"/>
<path d="M214.339 274.629C214.339 274.629 202.608 279.043 189.136 274.629C189.136 274.629 184.721 274.372 182.979 276.591C181.237 278.811 182.979 285.664 183.443 288.451C183.908 291.238 179.61 293.175 180.19 300.22L178.528 302.652C178.528 302.652 173.914 291.314 175.076 281.557C176.237 271.802 182.398 268.009 182.398 268.009C182.398 268.009 185.205 259.583 201.663 259.647C219.403 259.715 221.193 269.316 221.193 269.316C221.193 269.316 233.219 277.336 224.323 303.471L222.392 300.22C222.392 300.22 223.33 294.955 220.147 290.31C218.598 288.048 221.075 281.25 220.494 277.765C219.913 274.281 214.339 274.629 214.339 274.629Z" fill="#263238"/>
<path d="M203.296 302.707C203.296 302.707 203.789 310.148 205.23 312.976C206.669 315.804 201.628 316.282 199.47 314.603" stroke="#263238" stroke-width="0.926476" stroke-miterlimit="10" stroke-linecap="round" stroke-linejoin="round"/>
<path d="M195.062 320.569C195.062 321.705 198.805 323.13 202.476 323.13C206.174 323.13 208.909 321.586 208.363 321.02" stroke="#263238" stroke-width="0.926476" stroke-miterlimit="10" stroke-linecap="round" stroke-linejoin="round"/>
<path d="M224.134 279.397C224.134 279.397 219.336 285.923 208.436 290.429V287.32C208.436 287.32 198.586 293.004 189.713 292.136L191.72 288.098C191.72 288.098 184.243 296.022 177.911 295.711C171.581 295.401 169.744 259.647 201.663 259.647C227.603 259.647 224.134 279.397 224.134 279.397Z" fill="#263238"/>
<path d="M218.756 281.559C218.756 281.559 217.052 291.017 225.972 297.942C225.972 297.942 231.257 292.259 229.222 281.559C227.186 270.856 222.528 270.524 222.528 270.524L218.756 281.559Z" fill="#263238"/>
<path opacity="0.2" d="M214.784 266.788C214.784 266.788 211.46 280.917 199.225 288.097" stroke="white" stroke-width="0.926476" stroke-miterlimit="10"/>
<path opacity="0.2" d="M207.006 266.788C207.006 266.788 201.582 280.685 181.431 283.001" stroke="white" stroke-width="0.926476" stroke-miterlimit="10"/>
<path opacity="0.2" d="M219.569 271.985C219.569 271.985 219.648 279.295 214.784 283.001" stroke="white" stroke-width="0.926476" stroke-miterlimit="10"/>
<path d="M59.5997 433.708H45.2681V421.396C45.2681 420.264 46.1853 419.347 47.3174 419.347H355.384C356.516 419.347 357.433 420.264 357.433 421.396V433.708" fill="white"/>
<path d="M59.5997 433.708H45.2681V421.396C45.2681 420.264 46.1853 419.347 47.3174 419.347H355.384C356.516 419.347 357.433 420.264 357.433 421.396V433.708" stroke="#263238" stroke-width="0.926476" stroke-miterlimit="10"/>
<path d="M340.785 433.708H212.651" stroke="#263238" stroke-width="0.926476" stroke-miterlimit="10"/>
<path d="M203.476 433.708H194.268" stroke="#263238" stroke-width="0.926476" stroke-miterlimit="10"/>
<path d="M134.638 433.708H67.0117" stroke="#263238" stroke-width="0.926476" stroke-miterlimit="10"/>
<path d="M112.849 145.657C114.039 150.37 113.453 141.694 115.786 131.079C118.119 120.463 122.115 124.769 122.115 124.769" stroke="#94D5AC" stroke-opacity="0.6" stroke-width="1.00865" stroke-miterlimit="10" stroke-linecap="round" stroke-linejoin="round"/>
<path d="M112.117 134.813L119.43 131.813" stroke="#94D5AC" stroke-opacity="0.6" stroke-width="1.00865" stroke-miterlimit="10" stroke-linecap="round" stroke-linejoin="round"/>
<path d="M125.479 128.218C125.479 128.218 121.107 137.259 127.698 141.102" stroke="#94D5AC" stroke-opacity="0.6" stroke-width="1.00865" stroke-miterlimit="10" stroke-linecap="round" stroke-linejoin="round"/>
<path d="M131.68 125.675C131.68 125.675 138.897 129.685 134.376 138.363" stroke="#94D5AC" stroke-opacity="0.6" stroke-width="1.00865" stroke-miterlimit="10" stroke-linecap="round" stroke-linejoin="round"/>
<path d="M126.735 131.28L131.905 135.056" stroke="#94D5AC" stroke-opacity="0.6" stroke-width="1.00865" stroke-miterlimit="10" stroke-linecap="round" stroke-linejoin="round"/>
<path d="M130.79 129.618L126.744 136.058" stroke="#94D5AC" stroke-opacity="0.6" stroke-width="1.00865" stroke-miterlimit="10" stroke-linecap="round" stroke-linejoin="round"/>
<path d="M51.3269 191.253C52.3108 185.256 48.247 179.597 42.2502 178.613C36.2534 177.629 30.5944 181.693 29.6106 187.69C28.6267 193.687 32.6905 199.345 38.6873 200.329C44.6841 201.313 50.343 197.249 51.3269 191.253Z" stroke="#94D5AC" stroke-opacity="0.6" stroke-width="1.00865" stroke-miterlimit="10" stroke-linecap="round" stroke-linejoin="round"/>
<path d="M62.5368 203.686C57.0598 207.619 49.4314 206.368 45.4976 200.891C41.5639 195.414 42.8156 187.785 48.2926 183.852C53.7696 179.918 61.398 181.17 65.3318 186.647C69.2655 192.124 68.0138 199.752 62.5368 203.686Z" stroke="#94D5AC" stroke-opacity="0.6" stroke-width="1.00865" stroke-miterlimit="10" stroke-linecap="round" stroke-linejoin="round"/>
<path d="M50.4978 184.935L45.4253 186.745" stroke="#94D5AC" stroke-opacity="0.6" stroke-width="1.00865" stroke-miterlimit="10" stroke-linecap="round" stroke-linejoin="round"/>
<path d="M51.2014 187.026L43.9189 189.66" stroke="#94D5AC" stroke-opacity="0.6" stroke-width="1.00865" stroke-miterlimit="10" stroke-linecap="round" stroke-linejoin="round"/>
<path d="M51.472 189.544L43.3433 192.669" stroke="#94D5AC" stroke-opacity="0.6" stroke-width="1.00865" stroke-miterlimit="10" stroke-linecap="round" stroke-linejoin="round"/>
<path d="M50.894 192.985L43.4844 196.371" stroke="#94D5AC" stroke-opacity="0.6" stroke-width="1.00865" stroke-miterlimit="10" stroke-linecap="round" stroke-linejoin="round"/>
<path d="M49.5885 195.633L43.9512 197.971" stroke="#94D5AC" stroke-opacity="0.6" stroke-width="1.00865" stroke-miterlimit="10" stroke-linecap="round" stroke-linejoin="round"/>
<path d="M45.7861 172.71C45.4674 171.754 41.9008 171.076 41.7263 173.716C41.5528 176.356 45.4906 174.162 46.595 172.756C46.595 172.756 44.5697 175.477 45.429 176.013" stroke="#94D5AC" stroke-opacity="0.6" stroke-width="1.00865" stroke-miterlimit="10" stroke-linecap="round" stroke-linejoin="round"/>
<path d="M65.5378 176L62.3696 182.585C62.3696 182.585 63.9542 179.293 65.6488 179.594C67.7367 179.965 66.3498 183.381 63.8251 182.124" stroke="#94D5AC" stroke-opacity="0.6" stroke-width="1.00865" stroke-miterlimit="10" stroke-linecap="round" stroke-linejoin="round"/>
<path d="M236.528 349.854L249.912 340.646L267.638 341.888L268.745 364.355L255.735 373.658L239.68 372.488L236.528 349.854Z" stroke="#94D5AC" stroke-opacity="0.6" stroke-width="1.00865" stroke-miterlimit="10" stroke-linecap="round" stroke-linejoin="round"/>
<path d="M239.68 372.488L252.637 363.158L268.745 364.355" stroke="#94D5AC" stroke-opacity="0.6" stroke-width="1.00865" stroke-miterlimit="10" stroke-linecap="round" stroke-linejoin="round"/>
<path d="M252.637 363.158L249.912 340.646" stroke="#94D5AC" stroke-opacity="0.6" stroke-width="1.00865" stroke-miterlimit="10" stroke-linecap="round" stroke-linejoin="round"/>
<path d="M236.528 349.854L254.215 351.902L267.638 341.888" stroke="#94D5AC" stroke-opacity="0.6" stroke-width="1.00865" stroke-miterlimit="10" stroke-linecap="round" stroke-linejoin="round"/>
<path d="M254.214 351.902L255.734 373.658" stroke="#94D5AC" stroke-opacity="0.6" stroke-width="1.00865" stroke-miterlimit="10" stroke-linecap="round" stroke-linejoin="round"/>
<path d="M365.097 375.315L359.167 393.743L377.623 391.253L365.097 375.315Z" stroke="#94D5AC" stroke-opacity="0.6" stroke-width="1.00865" stroke-miterlimit="10" stroke-linecap="round" stroke-linejoin="round"/>
<path d="M365.097 375.315L368.395 392.391" stroke="#94D5AC" stroke-opacity="0.6" stroke-width="1.00865" stroke-miterlimit="10" stroke-linecap="round" stroke-linejoin="round"/>
<path d="M367.867 389.654L370.025 389.311L370.529 392.21" stroke="#94D5AC" stroke-opacity="0.6" stroke-width="1.00865" stroke-miterlimit="10" stroke-linecap="round" stroke-linejoin="round"/>
<path d="M209.484 539.411L218.707 543.941" stroke="#94D5AC" stroke-opacity="0.6" stroke-width="1.00865" stroke-miterlimit="10" stroke-linecap="round" stroke-linejoin="round"/>
<path d="M215.729 535.954L213.091 545.586" stroke="#94D5AC" stroke-opacity="0.6" stroke-width="1.00865" stroke-miterlimit="10" stroke-linecap="round" stroke-linejoin="round"/>
<path d="M217.009 531.257C217.009 531.257 218.309 530.084 219.231 531.542C220.153 532.998 218.342 536.041 218.342 536.041L222.04 534.634" stroke="#94D5AC" stroke-opacity="0.6" stroke-width="1.00865" stroke-miterlimit="10" stroke-linecap="round" stroke-linejoin="round"/>
<path d="M341.369 23.6315C350.172 28.5779 340.085 40.6818 340.085 47.7423C340.085 54.8029 350.172 53.7943 355.215 55.8116C357.232 55.8116 361.267 55.8116 361.158 60.9416" stroke="#94D5AC" stroke-opacity="0.6" stroke-width="1.00865" stroke-miterlimit="10" stroke-linecap="round" stroke-linejoin="round"/>
<path d="M331.556 30.0243C333.086 38.3709 342.665 35.4095 348.524 37.3159C358.595 40.592 353.012 51.0043 350 57.2943C348.199 61.0556 346.406 66.3117 349.625 69.8793" stroke="#94D5AC" stroke-opacity="0.6" stroke-width="1.00865" stroke-miterlimit="10" stroke-linecap="round" stroke-linejoin="round"/>
<path d="M332.844 33.2612L343.343 24.5383" stroke="#94D5AC" stroke-opacity="0.6" stroke-width="1.00865" stroke-miterlimit="10" stroke-linecap="round" stroke-linejoin="round"/>
<path d="M336.963 35.8643L344.87 29.306" stroke="#94D5AC" stroke-opacity="0.6" stroke-width="1.00865" stroke-miterlimit="10" stroke-linecap="round" stroke-linejoin="round"/>
<path d="M341.609 42.4983L348.289 37.2513" stroke="#94D5AC" stroke-opacity="0.6" stroke-width="1.00865" stroke-miterlimit="10" stroke-linecap="round" stroke-linejoin="round"/>
<path d="M340.23 50.3516L353.283 40.9641" stroke="#94D5AC" stroke-opacity="0.6" stroke-width="1.00865" stroke-miterlimit="10" stroke-linecap="round" stroke-linejoin="round"/>
<path d="M345.229 54.0121L354.326 47.3328" stroke="#94D5AC" stroke-opacity="0.6" stroke-width="1.00865" stroke-miterlimit="10" stroke-linecap="round" stroke-linejoin="round"/>
<path d="M349.1 68.2029L360.472 58.9445" stroke="#94D5AC" stroke-opacity="0.6" stroke-width="1.00865" stroke-miterlimit="10" stroke-linecap="round" stroke-linejoin="round"/>
<path d="M349.382 60.9182L356.802 55.7045" stroke="#94D5AC" stroke-opacity="0.6" stroke-width="1.00865" stroke-miterlimit="10" stroke-linecap="round" stroke-linejoin="round"/>
<path d="M312.305 497.387C321.107 502.334 311.021 514.437 311.021 521.498C311.021 528.559 321.107 527.55 326.15 529.567C328.168 529.567 332.202 529.567 332.093 534.697" stroke="#94D5AC" stroke-opacity="0.6" stroke-width="1.00865" stroke-miterlimit="10" stroke-linecap="round" stroke-linejoin="round"/>
<path d="M302.491 503.78C304.021 512.126 313.601 509.165 319.46 511.071C329.53 514.347 323.947 524.76 320.935 531.05C319.135 534.811 317.342 540.067 320.56 543.635" stroke="#94D5AC" stroke-opacity="0.6" stroke-width="1.00865" stroke-miterlimit="10" stroke-linecap="round" stroke-linejoin="round"/>
<path d="M303.779 507.017L314.278 498.294" stroke="#94D5AC" stroke-opacity="0.6" stroke-width="1.00865" stroke-miterlimit="10" stroke-linecap="round" stroke-linejoin="round"/>
<path d="M307.899 509.62L315.806 503.062" stroke="#94D5AC" stroke-opacity="0.6" stroke-width="1.00865" stroke-miterlimit="10" stroke-linecap="round" stroke-linejoin="round"/>
<path d="M312.544 516.254L319.224 511.007" stroke="#94D5AC" stroke-opacity="0.6" stroke-width="1.00865" stroke-miterlimit="10" stroke-linecap="round" stroke-linejoin="round"/>
<path d="M311.166 524.107L324.219 514.72" stroke="#94D5AC" stroke-opacity="0.6" stroke-width="1.00865" stroke-miterlimit="10" stroke-linecap="round" stroke-linejoin="round"/>
<path d="M316.165 527.768L325.262 521.088" stroke="#94D5AC" stroke-opacity="0.6" stroke-width="1.00865" stroke-miterlimit="10" stroke-linecap="round" stroke-linejoin="round"/>
<path d="M320.036 541.959L331.407 532.7" stroke="#94D5AC" stroke-opacity="0.6" stroke-width="1.00865" stroke-miterlimit="10" stroke-linecap="round" stroke-linejoin="round"/>
<path d="M320.317 534.674L327.737 529.46" stroke="#94D5AC" stroke-opacity="0.6" stroke-width="1.00865" stroke-miterlimit="10" stroke-linecap="round" stroke-linejoin="round"/>
<path d="M56.7454 316.299C63.7164 313.511 67.1076 305.6 64.32 298.629C61.5323 291.658 53.6214 288.267 46.6504 291.054C39.6794 293.842 36.2882 301.753 39.0758 308.724C41.8634 315.695 49.7744 319.086 56.7454 316.299Z" stroke="#94D5AC" stroke-opacity="0.6" stroke-width="0.649068" stroke-miterlimit="10" stroke-linecap="round" stroke-linejoin="round"/>
<path d="M55.1257 290.519C59.8633 284.959 63.892 281.808 65.4459 282.832C67.8053 284.387 63.5662 294.979 55.978 306.489C48.3897 318 40.3257 326.07 37.967 324.515C36.4131 323.49 37.7216 318.545 40.965 311.999" stroke="#94D5AC" stroke-opacity="0.6" stroke-width="0.649068" stroke-miterlimit="10" stroke-linecap="round" stroke-linejoin="round"/>
<path d="M38.4016 306.459C31.798 304.559 27.5784 302.34 27.8407 300.566C28.2541 297.771 39.6453 297.141 53.2828 299.158C66.921 301.175 77.6417 305.077 77.2276 307.872C76.9413 309.806 71.4048 310.704 63.5063 310.406" stroke="#94D5AC" stroke-opacity="0.6" stroke-width="0.649068" stroke-miterlimit="10" stroke-linecap="round" stroke-linejoin="round"/>
<path d="M40.1349 296.616C35.1513 287.621 32.6589 280.603 34.3497 279.508C36.5682 278.071 45.1476 287.378 53.5134 300.297C61.8793 313.214 66.8622 324.851 64.6437 326.288C63.1768 327.238 58.926 323.488 53.7951 317.101" stroke="#94D5AC" stroke-opacity="0.6" stroke-width="0.649068" stroke-miterlimit="10" stroke-linecap="round" stroke-linejoin="round"/>
<path d="M67.358 288.716C66.6784 289.747 65.2926 290.031 64.2619 289.352C63.2312 288.673 62.9469 287.287 63.6258 286.256C64.3054 285.226 65.6912 284.941 66.7219 285.62C67.7526 286.3 68.0376 287.686 67.358 288.716Z" fill="#94D5AC"/>
<path d="M63.8965 286.435C64.4411 285.609 65.5166 285.344 66.375 285.792L66.543 285.891C67.3691 286.436 67.6352 287.511 67.1865 288.369L67.0869 288.537C66.5424 289.363 65.4676 289.629 64.6094 289.181L64.4404 289.081C63.6146 288.537 63.3497 287.462 63.7979 286.604L63.8965 286.435Z" stroke="#94D5AC" stroke-opacity="0.6" stroke-width="0.649068"/>
<path d="M59.9638 322.915C59.2842 323.945 57.8984 324.23 56.8677 323.551C55.837 322.871 55.5527 321.485 56.2323 320.455C56.9119 319.424 58.2976 319.14 59.3283 319.819C60.3584 320.498 60.6434 321.885 59.9638 322.915Z" fill="#94D5AC"/>
<path d="M56.5034 320.633C57.048 319.807 58.1227 319.542 58.981 319.991L59.1499 320.089C59.9754 320.634 60.2411 321.71 59.7925 322.568L59.6929 322.736C59.1482 323.562 58.0727 323.828 57.2144 323.379L57.0464 323.28C56.2205 322.735 55.9552 321.66 56.4038 320.802L56.5034 320.633Z" stroke="#94D5AC" stroke-opacity="0.6" stroke-width="0.649068"/>
<path d="M48.0382 299.723C47.3586 300.754 45.9728 301.038 44.9421 300.359C43.9114 299.68 43.6271 298.294 44.306 297.263C44.9856 296.233 46.3714 295.948 47.4021 296.628C48.4328 297.307 48.7177 298.693 48.0382 299.723Z" fill="#94D5AC"/>
<path d="M44.5767 297.442C45.1213 296.616 46.1969 296.351 47.0552 296.799L47.2231 296.899C48.0492 297.443 48.3155 298.518 47.8667 299.377L47.7671 299.545C47.2225 300.37 46.1479 300.635 45.2896 300.187L45.1206 300.089C44.2946 299.544 44.0294 298.468 44.478 297.61L44.5767 297.442Z" stroke="#94D5AC" stroke-opacity="0.6" stroke-width="0.649068"/>
<path d="M73.2628 71.7749H85.1468L91.0888 61.4826L85.1468 51.1903H73.2628L67.3198 61.4826L73.2628 71.7749Z" stroke="#94D5AC" stroke-opacity="0.6" stroke-width="1.00865" stroke-miterlimit="10" stroke-linecap="round" stroke-linejoin="round"/>
<path d="M71.5369 94.3525L65.5939 84.0602H53.71" stroke="#94D5AC" stroke-opacity="0.6" stroke-width="1.00865" stroke-miterlimit="10" stroke-linecap="round" stroke-linejoin="round"/>
<path d="M55.3057 61.4825H67.1907L73.1327 51.1902L67.1907 40.8979H55.3057L49.3638 51.1902L55.3057 61.4825Z" stroke="#94D5AC" stroke-opacity="0.6" stroke-width="1.00865" stroke-miterlimit="10" stroke-linecap="round" stroke-linejoin="round"/>
<path d="M73.2628 51.1903H85.1468L91.0888 40.898L85.1468 30.6056H73.2628L67.3198 40.898L73.2628 51.1903Z" stroke="#94D5AC" stroke-opacity="0.6" stroke-width="1.00865" stroke-miterlimit="10" stroke-linecap="round" stroke-linejoin="round"/>
<path d="M73.1328 52.7858C74.0141 52.7858 74.7285 52.0714 74.7285 51.1901C74.7285 50.3088 74.0141 49.5944 73.1328 49.5944C72.2515 49.5944 71.5371 50.3088 71.5371 51.1901C71.5371 52.0714 72.2515 52.7858 73.1328 52.7858Z" fill="#94D5AC"/>
<path d="M73.1328 50.0983C73.7356 50.0983 74.2246 50.5874 74.2246 51.1901C74.2246 51.7928 73.7355 52.2819 73.1328 52.2819C72.5301 52.2819 72.041 51.7928 72.041 51.1901C72.041 50.5874 72.5301 50.0983 73.1328 50.0983Z" stroke="#94D5AC" stroke-opacity="0.6" stroke-width="1.00865"/>
<path d="M48.3169 31.1826C49.1982 31.1826 49.9126 30.4681 49.9126 29.5869C49.9126 28.7056 49.1982 27.9912 48.3169 27.9912C47.4356 27.9912 46.7212 28.7056 46.7212 29.5869C46.7212 30.4681 47.4356 31.1826 48.3169 31.1826Z" fill="#94D5AC"/>
<path d="M48.3169 28.4951C48.9196 28.4951 49.4087 28.9841 49.4087 29.5869C49.4087 30.1896 48.9196 30.6787 48.3169 30.6787C47.7142 30.6787 47.2251 30.1896 47.2251 29.5869C47.2251 28.9841 47.7142 28.4951 48.3169 28.4951Z" stroke="#94D5AC" stroke-opacity="0.6" stroke-width="1.00865"/>
<path d="M69.9404 94.3526C69.9404 93.471 70.6546 92.7569 71.5361 92.7569C72.4177 92.7569 73.1318 93.471 73.1318 94.3526C73.1318 95.2342 72.4177 95.9483 71.5361 95.9483C70.6556 95.9483 69.9404 95.2342 69.9404 94.3526Z" fill="#94D5AC"/>
<path d="M71.5361 93.2608C72.1392 93.2608 72.6279 93.7496 72.6279 94.3526C72.6279 94.9556 72.1392 95.4444 71.5361 95.4444C70.9339 95.4444 70.4443 94.9554 70.4443 94.3526C70.4443 93.7496 70.9331 93.2608 71.5361 93.2608Z" stroke="#94D5AC" stroke-opacity="0.6" stroke-width="1.00865"/>
<path d="M53.71 85.6561C54.5912 85.6561 55.3056 84.9416 55.3056 84.0604C55.3056 83.1791 54.5912 82.4647 53.71 82.4647C52.8287 82.4647 52.1143 83.1791 52.1143 84.0604C52.1143 84.9416 52.8287 85.6561 53.71 85.6561Z" fill="#94D5AC"/>
<path d="M53.71 82.9686C54.3127 82.9686 54.8018 83.4576 54.8018 84.0604C54.8018 84.6631 54.3127 85.1522 53.71 85.1522C53.1072 85.1522 52.6182 84.6631 52.6182 84.0604C52.6182 83.4576 53.1072 82.9686 53.71 82.9686Z" stroke="#94D5AC" stroke-opacity="0.6" stroke-width="1.00865"/>
<path d="M102.583 41.1693C102.583 40.2877 103.297 39.5736 104.178 39.5736C105.06 39.5736 105.775 40.2877 105.775 41.1693C105.775 42.0508 105.061 42.765 104.178 42.765C103.298 42.765 102.583 42.0508 102.583 41.1693Z" fill="#94D5AC"/>
<path d="M104.178 40.0775C104.782 40.0775 105.271 40.5667 105.271 41.1693C105.271 41.7721 104.782 42.2611 104.178 42.2611C103.576 42.2611 103.086 41.7721 103.086 41.1693C103.086 40.5663 103.575 40.0775 104.178 40.0775Z" stroke="#94D5AC" stroke-opacity="0.6" stroke-width="1.00865"/>
<path d="M65.4731 85.6561C66.3544 85.6561 67.0688 84.9416 67.0688 84.0604C67.0688 83.1791 66.3544 82.4647 65.4731 82.4647C64.5919 82.4647 63.8774 83.1791 63.8774 84.0604C63.8774 84.9416 64.5919 85.6561 65.4731 85.6561Z" fill="#94D5AC"/>
<path d="M65.4731 82.9686C66.0759 82.9686 66.5649 83.4576 66.5649 84.0604C66.5649 84.6631 66.0759 85.1522 65.4731 85.1522C64.8704 85.1522 64.3814 84.6631 64.3813 84.0604C64.3813 83.4576 64.8704 82.9686 65.4731 82.9686Z" stroke="#94D5AC" stroke-opacity="0.6" stroke-width="1.00865"/>
<path d="M89.4932 41.1693C89.4932 40.2877 90.2073 39.5736 91.0889 39.5736C91.9704 39.5736 92.6845 40.2877 92.6845 41.1693C92.6845 42.0508 91.9704 42.765 91.0889 42.765C90.2073 42.765 89.4932 42.0508 89.4932 41.1693Z" fill="#94D5AC"/>
<path d="M91.0889 40.0775C91.6919 40.0775 92.1807 40.5663 92.1807 41.1693C92.1807 41.7723 91.6919 42.2611 91.0889 42.2611C90.4858 42.2611 89.9971 41.7723 89.9971 41.1693C89.9971 40.5663 90.4858 40.0775 91.0889 40.0775Z" stroke="#94D5AC" stroke-opacity="0.6" stroke-width="1.00865"/>
<path d="M71.5371 71.7747C71.5371 70.8932 72.2512 70.179 73.1328 70.179C74.0144 70.179 74.7285 70.8932 74.7285 71.7747C74.7285 72.6563 74.0144 73.3714 73.1328 73.3714C72.2512 73.3714 71.5371 72.6553 71.5371 71.7747Z" fill="#94D5AC"/>
<path d="M73.1328 70.6829C73.7358 70.6829 74.2246 71.1717 74.2246 71.7747C74.2246 72.3782 73.7354 72.8675 73.1328 72.8675C72.5304 72.8675 72.041 72.3774 72.041 71.7747C72.041 71.1717 72.5298 70.6829 73.1328 70.6829Z" stroke="#94D5AC" stroke-opacity="0.6" stroke-width="1.00865"/>
<path d="M91.0889 41.1691H104.178" stroke="#94D5AC" stroke-opacity="0.6" stroke-width="1.00865" stroke-miterlimit="10" stroke-linecap="round" stroke-linejoin="round"/>
<path d="M73.1329 71.7747L65.4731 84.0601" stroke="#94D5AC" stroke-opacity="0.6" stroke-width="1.00865" stroke-miterlimit="10" stroke-linecap="round" stroke-linejoin="round"/>
<path d="M55.3058 40.8979L48.3169 29.5868" stroke="#94D5AC" stroke-opacity="0.6" stroke-width="1.00865" stroke-miterlimit="10" stroke-linecap="round" stroke-linejoin="round"/>
<path d="M334.892 257.428C336.593 251.649 341.938 247.43 348.267 247.43C354.812 247.43 360.303 251.94 361.803 258.021" stroke="#94D5AC" stroke-opacity="0.6" stroke-width="0.639289" stroke-miterlimit="10" stroke-linecap="round" stroke-linejoin="round"/>
<path d="M346.687 275.224C339.732 274.439 334.327 268.537 334.327 261.372" stroke="#94D5AC" stroke-opacity="0.6" stroke-width="0.639289" stroke-miterlimit="10" stroke-linecap="round" stroke-linejoin="round"/>
<path d="M362.209 261.372C362.209 269.071 355.967 275.313 348.268 275.313" stroke="#94D5AC" stroke-opacity="0.6" stroke-width="0.639289" stroke-miterlimit="10" stroke-linecap="round" stroke-linejoin="round"/>
<path d="M362.999 252.533C367.359 251.974 370.282 252.277 370.733 253.576C371.634 256.174 362.307 261.771 349.9 266.076C337.493 270.381 326.704 271.765 325.803 269.167C325.321 267.779 327.762 265.533 332.033 263.086" stroke="#94D5AC" stroke-opacity="0.6" stroke-width="0.639289" stroke-miterlimit="10" stroke-linecap="round" stroke-linejoin="round"/>
<path d="M107.347 569.772C109.432 562.688 115.983 557.517 123.742 557.517C131.764 557.517 138.496 563.045 140.334 570.499" stroke="#94D5AC" stroke-opacity="0.6" stroke-width="0.783645" stroke-miterlimit="10" stroke-linecap="round" stroke-linejoin="round"/>
<path d="M121.805 591.587C113.279 590.624 106.653 583.39 106.653 574.607" stroke="#94D5AC" stroke-opacity="0.6" stroke-width="0.783645" stroke-miterlimit="10" stroke-linecap="round" stroke-linejoin="round"/>
<path d="M140.831 574.607C140.831 584.044 133.18 591.696 123.742 591.696" stroke="#94D5AC" stroke-opacity="0.6" stroke-width="0.783645" stroke-miterlimit="10" stroke-linecap="round" stroke-linejoin="round"/>
<path d="M141.8 563.772C147.145 563.086 150.728 563.459 151.281 565.051C152.386 568.236 140.952 575.096 125.744 580.373C110.535 585.651 97.3101 587.347 96.2052 584.163C95.6143 582.46 98.6063 579.708 103.843 576.708" stroke="#94D5AC" stroke-opacity="0.6" stroke-width="0.783645" stroke-miterlimit="10" stroke-linecap="round" stroke-linejoin="round"/>
<path d="M292.148 177.048L294.256 181.318L298.97 182.003L295.558 185.328L296.363 190.022L292.148 187.806L287.932 190.022L288.738 185.328L285.327 182.003L290.04 181.318L292.148 177.048Z" stroke="#94D5AC" stroke-opacity="0.6" stroke-width="1.00865" stroke-miterlimit="10" stroke-linecap="round" stroke-linejoin="round"/>
<path d="M364.535 590.394L366.643 594.665L371.357 595.35L367.946 598.674L368.751 603.369L364.535 601.153L360.319 603.369L361.125 598.674L357.714 595.35L362.427 594.665L364.535 590.394Z" stroke="#94D5AC" stroke-opacity="0.6" stroke-width="1.00865" stroke-miterlimit="10" stroke-linecap="round" stroke-linejoin="round"/>
<path d="M286.056 77.1716C286.056 81.2869 284.321 84.9988 281.547 87.591C278.985 90.0118 275.536 91.4844 271.753 91.4844C271.289 91.4844 270.835 91.4642 270.392 91.4239C267.416 91.1415 264.713 89.9513 262.554 88.1357C260.708 86.5924 259.256 84.5852 258.389 82.2956C257.773 80.7019 257.44 78.9771 257.44 77.1716C257.44 69.2738 263.845 62.8689 271.753 62.8689C273.972 62.8689 276.08 63.3732 277.967 64.2911C280.125 65.33 281.981 66.8934 283.363 68.8199C285.057 71.1701 286.056 74.0549 286.056 77.1716Z" stroke="#94D5AC" stroke-opacity="0.6" stroke-width="1.00865" stroke-miterlimit="10" stroke-linecap="round" stroke-linejoin="round"/>
<path d="M283.759 79.7599C283.759 80.9824 282.769 81.9729 281.546 81.9729C280.324 81.9729 279.333 80.9824 279.333 79.7599C279.333 78.5374 280.324 77.5469 281.546 77.5469C282.769 77.5469 283.759 78.5374 283.759 79.7599Z" stroke="#94D5AC" stroke-opacity="0.6" stroke-width="1.00865" stroke-miterlimit="10" stroke-linecap="round" stroke-linejoin="round"/>
<path d="M263.845 85.3821C263.845 86.4916 263.341 87.4801 262.554 88.1357C260.709 86.5925 259.256 84.5852 258.389 82.2956C258.923 81.9627 259.559 81.7812 260.235 81.7812C262.232 81.7812 263.845 83.395 263.845 85.3821Z" stroke="#94D5AC" stroke-opacity="0.6" stroke-width="1.00865" stroke-miterlimit="10" stroke-linecap="round" stroke-linejoin="round"/>
<path d="M281.547 87.591C278.985 90.0118 275.536 91.4844 271.753 91.4844C271.289 91.4844 270.835 91.4643 270.392 91.4239C270.311 91.0406 270.271 90.6473 270.271 90.2438C270.271 86.9556 272.933 84.2826 276.222 84.2826C278.562 84.2826 280.579 85.6342 281.547 87.591Z" stroke="#94D5AC" stroke-opacity="0.6" stroke-width="1.00865" stroke-miterlimit="10" stroke-linecap="round" stroke-linejoin="round"/>
<path d="M268.284 71.4999C270.102 71.4999 271.576 70.0264 271.576 68.2087C271.576 66.391 270.102 64.9174 268.284 64.9174C266.467 64.9174 264.993 66.391 264.993 68.2087C264.993 70.0264 266.467 71.4999 268.284 71.4999Z" stroke="#94D5AC" stroke-opacity="0.6" stroke-width="1.00865" stroke-miterlimit="10" stroke-linecap="round" stroke-linejoin="round"/>
<path d="M271.33 77.5468C271.33 78.388 270.648 79.0689 269.807 79.0689C268.966 79.0689 268.284 78.387 268.284 77.5468C268.284 76.7056 268.966 76.0237 269.807 76.0237C270.648 76.0237 271.33 76.7066 271.33 77.5468Z" stroke="#94D5AC" stroke-opacity="0.6" stroke-width="1.00865" stroke-miterlimit="10" stroke-linecap="round" stroke-linejoin="round"/>
<path d="M283.363 68.8199C282.98 68.951 282.556 69.0116 282.122 69.0116C279.803 69.0116 277.937 67.1355 277.937 64.8156C277.937 64.634 277.947 64.4625 277.967 64.2911C280.125 65.33 281.981 66.8934 283.363 68.8199Z" stroke="#94D5AC" stroke-opacity="0.6" stroke-width="1.00865" stroke-miterlimit="10" stroke-linecap="round" stroke-linejoin="round"/>
<path d="M73.1548 515.225L74.698 511.756L72.1986 510.376C72.2873 509.759 72.3055 509.142 72.249 508.533L74.813 507.286L73.4513 503.741L70.7108 504.532C70.3457 504.043 69.919 503.596 69.4399 503.197L70.3719 500.498L66.9031 498.955L65.5233 501.455C64.906 501.366 64.2887 501.348 63.6805 501.404L62.4328 498.84L58.8884 500.202L59.6791 502.942C59.19 503.308 58.7431 503.734 58.3437 504.214L55.6455 503.282L54.1023 506.751L56.6017 508.131C56.513 508.748 56.4948 509.366 56.5513 509.974L53.9873 511.222L55.349 514.766L58.0885 513.975C58.4536 514.464 58.8803 514.911 59.3604 515.311L58.4284 518.009L61.8972 519.552L63.277 517.054C63.8943 517.142 64.5116 517.159 65.1198 517.104L66.3675 519.668L69.9119 518.306L69.1212 515.566C69.6104 515.201 70.0572 514.774 70.4566 514.295L73.1548 515.225ZM62.6063 513.285C60.3802 512.295 59.3775 509.687 60.368 507.461C61.3585 505.235 63.9659 504.233 66.192 505.223C68.4181 506.214 69.4207 508.821 68.4302 511.047C67.4407 513.273 64.8334 514.275 62.6063 513.285Z" stroke="#94D5AC" stroke-opacity="0.6" stroke-width="1.00865" stroke-miterlimit="10" stroke-linecap="round" stroke-linejoin="round"/>
<path d="M52.4104 493.482L54.5064 488.77L51.1122 486.896C51.2333 486.058 51.2565 485.219 51.1798 484.393L54.6627 482.698L52.8128 477.885L49.0919 478.959C48.5956 478.294 48.0167 477.687 47.3651 477.146L48.6309 473.481L43.9195 471.385L42.0454 474.779C41.2072 474.658 40.368 474.635 39.542 474.712L37.8474 471.229L33.0341 473.079L34.1073 476.8C33.4426 477.296 32.8354 477.875 32.2938 478.526L28.6293 477.261L26.5333 481.972L29.9274 483.846C29.8064 484.684 29.7832 485.523 29.8589 486.349L26.376 488.044L28.2259 492.857L31.9468 491.784C32.443 492.449 33.022 493.056 33.6736 493.598L32.4077 497.262L37.1192 499.358L38.9932 495.964C39.8314 496.085 40.6706 496.108 41.4967 496.033L43.1913 499.515L48.0046 497.666L46.9304 493.945C47.5951 493.448 48.2023 492.869 48.7439 492.218L52.4104 493.482ZM38.0855 490.846C35.0615 489.502 33.7008 485.96 35.0454 482.936C36.3899 479.912 39.9313 478.552 42.9552 479.896C45.9792 481.241 47.3399 484.782 45.9953 487.806C44.6508 490.83 41.1094 492.192 38.0855 490.846Z" stroke="#94D5AC" stroke-opacity="0.6" stroke-width="1.00865" stroke-miterlimit="10" stroke-linecap="round" stroke-linejoin="round"/>
</svg>
