<svg width="19" height="16" viewBox="0 0 19 16" fill="none" xmlns="http://www.w3.org/2000/svg">
<path d="M1.35742 0.0253906H16.2861C16.5952 0.0254492 16.893 0.130742 17.1299 0.321289L17.2275 0.408203C17.4773 0.653506 17.6182 0.986296 17.6182 1.33301V3.88672L17.626 3.89453C18.0524 4.29561 18.3922 4.77732 18.624 5.31055C18.8558 5.84367 18.9746 6.41743 18.9746 6.99707C18.9746 7.57691 18.8559 8.15127 18.624 8.68457C18.3922 9.21786 18.0525 9.69948 17.626 10.1006L17.6182 10.1074V15.3281C17.6191 15.4409 17.59 15.5522 17.5332 15.6504C17.4763 15.7487 17.3935 15.8307 17.2939 15.8877C17.1944 15.9447 17.0811 15.9744 16.9658 15.9746L16.8799 15.9697C16.8232 15.9625 16.7677 15.9482 16.7148 15.9268L16.6377 15.8887L14.6016 14.7441L14.5898 14.7373L14.5771 14.7441L12.541 15.8887C12.4412 15.9452 12.3282 15.9749 12.2129 15.9746L12.127 15.9697C12.0418 15.9585 11.9594 15.9305 11.8848 15.8877C11.7853 15.8307 11.7034 15.7486 11.6465 15.6504C11.6038 15.5767 11.5759 15.4957 11.5654 15.4121L11.5605 15.3281V13.3037H1.35742C1.00397 13.3037 0.664833 13.1652 0.415039 12.9199C0.165316 12.6746 0.0253906 12.3418 0.0253906 11.9951V1.33301C0.0253906 1.02965 0.132017 0.736636 0.326172 0.503906L0.415039 0.408203C0.664832 0.162895 1.00398 0.0253906 1.35742 0.0253906ZM16.2764 10.9727C15.7421 11.1919 15.1689 11.3046 14.5898 11.3047C14.0107 11.3047 13.4367 11.1919 12.9023 10.9727L12.8682 10.959V14.2227L12.9053 14.2012L14.2627 13.4385C14.3614 13.3831 14.4731 13.3535 14.5869 13.3535C14.6722 13.3535 14.7566 13.3698 14.835 13.4014L14.9111 13.4385L16.2686 14.2012L16.3057 14.2227V14.1797L16.3105 10.9961V10.959L16.2764 10.9727ZM15.7676 4.2041C15.2052 3.97534 14.5862 3.91471 13.9893 4.03125C13.3922 4.14789 12.8437 4.43652 12.4131 4.85938C11.9825 5.2822 11.6892 5.82064 11.5703 6.40723C11.4515 6.99375 11.5122 7.60181 11.7451 8.1543C11.9781 8.7068 12.3728 9.17951 12.8789 9.51172C13.3852 9.84393 13.9811 10.0215 14.5898 10.0215C14.9939 10.0214 15.3942 9.94289 15.7676 9.79102C16.141 9.63909 16.4808 9.41647 16.7666 9.13574C17.0524 8.85502 17.2789 8.52111 17.4336 8.1543C17.5883 7.78749 17.668 7.39411 17.668 6.99707C17.6679 6.39911 17.4876 5.81453 17.1494 5.31738C16.8534 4.88233 16.448 4.53113 15.9746 4.29688L15.7676 4.2041ZM4.07129 7.35547H8.14258C8.31606 7.35547 8.48293 7.4236 8.60547 7.54395C8.72781 7.66424 8.79688 7.82723 8.79688 7.99707C8.79686 8.16691 8.72784 8.32991 8.60547 8.4502C8.48293 8.57054 8.31606 8.63867 8.14258 8.63867H4.07129C3.89788 8.63863 3.73187 8.57049 3.60938 8.4502C3.48687 8.32989 3.41799 8.16701 3.41797 7.99707C3.41797 7.82713 3.48689 7.66427 3.60938 7.54395C3.73187 7.42365 3.89787 7.35552 4.07129 7.35547ZM4.07129 4.68945H8.14258C8.31606 4.68945 8.48293 4.75759 8.60547 4.87793C8.72786 4.99818 8.7968 5.16124 8.79688 5.33105C8.79688 5.50102 8.72799 5.66483 8.60547 5.78516C8.48294 5.90543 8.31601 5.97266 8.14258 5.97266H4.07129C3.89802 5.97261 3.73184 5.90526 3.60938 5.78516C3.48685 5.66483 3.41797 5.50102 3.41797 5.33105C3.41804 5.16119 3.48692 4.99819 3.60938 4.87793C3.73186 4.7577 3.89793 4.6895 4.07129 4.68945ZM11.5605 10.1084L11.5527 10.1006C10.8635 9.44775 10.4122 8.59255 10.2646 7.66699L10.2393 7.48047C10.1326 6.54614 10.3405 5.60505 10.8281 4.7998L10.9287 4.64062C11.4885 3.80159 12.3294 3.18031 13.3057 2.88477C14.2819 2.58926 15.3326 2.63848 16.2764 3.02246L16.3105 3.03613V1.30762H1.33203V12.0205H11.5605V10.1084Z" fill="#16A34A" stroke="white" stroke-width="0.05"/>
</svg>
