<svg width="25" height="26" viewBox="0 0 25 26" fill="none" xmlns="http://www.w3.org/2000/svg">
<circle cx="12.5" cy="13" r="12.5" fill="#C9FFDD"/>
<path d="M16 10.2778V20.3886C16 20.5948 15.9181 20.7927 15.7722 20.9385C15.6263 21.0844 15.4285 21.1663 15.2222 21.1663C15.016 21.1663 14.8181 21.0844 14.6723 20.9385C14.5264 20.7927 14.4445 20.5948 14.4445 20.3886V12.1551L3.32845 23.2721C3.18251 23.418 2.98457 23.5 2.77819 23.5C2.5718 23.5 2.37386 23.418 2.22793 23.2721C2.08199 23.1261 2 22.9282 2 22.7218C2 22.5154 2.08199 22.3175 2.22793 22.1716L13.3449 11.0555H5.11145C4.90517 11.0555 4.70735 10.9736 4.56149 10.8277C4.41564 10.6819 4.33369 10.484 4.33369 10.2778C4.33369 10.0715 4.41564 9.87366 4.56149 9.7278C4.70735 9.58194 4.90517 9.5 5.11145 9.5H15.2222C15.4285 9.5 15.6263 9.58194 15.7722 9.7278C15.9181 9.87366 16 10.0715 16 10.2778Z" fill="#16A34A"/>
</svg>
