<svg width="73" height="72" viewBox="0 0 73 72" fill="none" xmlns="http://www.w3.org/2000/svg">
<rect x="0.5" width="72" height="72" rx="36" fill="#F0FFF6"/>
<path d="M51.1543 20.1505L28.0915 16.0433C27.3516 15.9119 26.5904 16.0824 25.9751 16.517C25.3598 16.9517 24.9409 17.615 24.8105 18.3612L19.5428 48.5403C19.4783 48.9101 19.4868 49.289 19.5676 49.6554C19.6484 50.0218 19.8001 50.3686 20.0138 50.6759C20.2276 50.9832 20.4993 51.245 20.8134 51.4463C21.1276 51.6477 21.478 51.7846 21.8446 51.8493L44.9074 55.9566C45.2741 56.0218 45.65 56.0135 46.0135 55.9321C46.377 55.8507 46.7211 55.6978 47.026 55.4822C47.3309 55.2666 47.5907 54.9925 47.7904 54.6755C47.9902 54.3586 48.126 54.005 48.1902 53.6351L53.4579 23.4559C53.5869 22.7095 53.4167 21.942 52.9847 21.3221C52.5527 20.7022 51.8943 20.2808 51.1543 20.1505ZM37.8248 36.6347C37.767 36.9652 37.5956 37.2646 37.3408 37.4805C37.086 37.6963 36.764 37.8148 36.4313 37.8151C36.3482 37.8151 36.2653 37.8079 36.1834 37.7937L28.8352 36.4847C28.4859 36.3981 28.1825 36.1808 27.9863 35.8768C27.7901 35.5728 27.7159 35.205 27.7788 34.8478C27.8416 34.4907 28.0368 34.1711 28.3247 33.9538C28.6126 33.7364 28.9717 33.6377 29.3292 33.6775L36.6738 34.9794C36.8573 35.0117 37.0325 35.0802 37.1897 35.1809C37.3468 35.2817 37.4827 35.4127 37.5896 35.5664C37.6965 35.7202 37.7723 35.8936 37.8126 36.077C37.853 36.2603 37.8571 36.4498 37.8248 36.6347ZM46.1468 32.3168C46.0891 32.647 45.918 32.9461 45.6636 33.1619C45.4091 33.3777 45.0876 33.4964 44.7551 33.4972C44.6714 33.4973 44.5878 33.4896 44.5054 33.474L29.809 30.8578C29.439 30.7918 29.1101 30.5802 28.8948 30.2695C28.6794 29.9589 28.5952 29.5748 28.6608 29.2016C28.7263 28.8283 28.9361 28.4967 29.2441 28.2795C29.5521 28.0623 29.933 27.9774 30.303 28.0435L44.9995 30.6614C45.183 30.6936 45.3585 30.7619 45.5158 30.8625C45.6732 30.9632 45.8093 31.0941 45.9163 31.2479C46.0234 31.4017 46.0994 31.5753 46.1398 31.7587C46.1803 31.9421 46.1845 32.1317 46.1522 32.3168H46.1468ZM47.1296 26.6881C47.0717 27.0186 46.9004 27.318 46.6456 27.5338C46.3908 27.7497 46.0688 27.8681 45.7361 27.8685C45.653 27.8684 45.57 27.8612 45.4882 27.8471L30.7917 25.2292C30.6043 25.2013 30.4243 25.1359 30.2625 25.0367C30.1006 24.9375 29.9601 24.8066 29.8492 24.6516C29.7384 24.4967 29.6595 24.3209 29.6172 24.1347C29.5749 23.9485 29.5701 23.7556 29.603 23.5675C29.636 23.3793 29.706 23.1998 29.8089 23.0394C29.9119 22.879 30.0456 22.7411 30.2024 22.6338C30.3591 22.5265 30.5356 22.452 30.7214 22.4147C30.9071 22.3774 31.0984 22.378 31.284 22.4166L45.9804 25.0327C46.1641 25.0647 46.3398 25.1329 46.4973 25.2334C46.6549 25.334 46.7912 25.4649 46.8984 25.6187C47.0057 25.7725 47.0818 25.9461 47.1223 26.1296C47.1629 26.3131 47.1672 26.5029 47.1349 26.6881H47.1296Z" fill="#16A34A"/>
</svg>
