<svg width="73" height="72" viewBox="0 0 73 72" fill="none" xmlns="http://www.w3.org/2000/svg">
<rect x="0.5" width="72" height="72" rx="36" fill="#F0FFF6"/>
<path d="M52.5769 20H20.4231C19.6478 20 18.9043 20.3065 18.3561 20.8521C17.808 21.3976 17.5 22.1376 17.5 22.9091V49.0909C17.5 49.8624 17.808 50.6024 18.3561 51.1479C18.9043 51.6935 19.6478 52 20.4231 52H52.5769C53.3522 52 54.0957 51.6935 54.6438 51.1479C55.192 50.6024 55.5 49.8624 55.5 49.0909V22.9091C55.5 22.1376 55.192 21.3976 54.6438 20.8521C54.0957 20.3065 53.3522 20 52.5769 20ZM49.6538 44.7273C50.0415 44.7273 50.4132 44.8805 50.6873 45.1533C50.9614 45.4261 51.1154 45.796 51.1154 46.1818C51.1154 46.5676 50.9614 46.9376 50.6873 47.2103C50.4132 47.4831 50.0415 47.6364 49.6538 47.6364H23.3462C22.9585 47.6364 22.5868 47.4831 22.3127 47.2103C22.0386 46.9376 21.8846 46.5676 21.8846 46.1818V25.8182C21.8846 25.4324 22.0386 25.0624 22.3127 24.7897C22.5868 24.5169 22.9585 24.3636 23.3462 24.3636C23.7338 24.3636 24.1055 24.5169 24.3796 24.7897C24.6537 25.0624 24.8077 25.4324 24.8077 25.8182V37.2582L31.18 31.9727C31.4221 31.7719 31.723 31.6544 32.0378 31.6377C32.3525 31.621 32.6643 31.706 32.9265 31.88L40.7823 37.0964L48.713 30.5182C49.011 30.2713 49.3953 30.1523 49.7814 30.1874C50.1675 30.2226 50.5238 30.4089 50.7719 30.7055C51.02 31.002 51.1395 31.3845 51.1043 31.7688C51.069 32.1531 50.8817 32.5077 50.5837 32.7545L41.8145 40.0273C41.5724 40.2281 41.2715 40.3456 40.9567 40.3623C40.642 40.379 40.3302 40.294 40.068 40.12L32.2122 34.9036L24.8077 41.0455V44.7273H49.6538Z" fill="#16A34A"/>
</svg>
