<svg width="73" height="72" viewBox="0 0 73 72" fill="none" xmlns="http://www.w3.org/2000/svg">
<rect x="0.5" width="72" height="72" rx="36" fill="#F0FFF6"/>
<path d="M51.5 21H21.5C20.3065 21 19.1619 21.4741 18.318 22.318C17.4741 23.1619 17 24.3065 17 25.5V46.5C17 47.6935 17.4741 48.8381 18.318 49.682C19.1619 50.5259 20.3065 51 21.5 51H51.5C52.6935 51 53.8381 50.5259 54.682 49.682C55.5259 48.8381 56 47.6935 56 46.5V25.5C56 24.3065 55.5259 23.1619 54.682 22.318C53.8381 21.4741 52.6935 21 51.5 21ZM41 34.5C41 35.6935 40.5259 36.8381 39.682 37.682C38.8381 38.5259 37.6935 39 36.5 39C35.3065 39 34.1619 38.5259 33.318 37.682C32.4741 36.8381 32 35.6935 32 34.5C32 34.1022 31.842 33.7206 31.5607 33.4393C31.2794 33.158 30.8978 33 30.5 33H20V30H53V33H42.5C42.1022 33 41.7206 33.158 41.4393 33.4393C41.158 33.7206 41 34.1022 41 34.5ZM21.5 24H51.5C51.8978 24 52.2794 24.158 52.5607 24.4393C52.842 24.7206 53 25.1022 53 25.5V27H20V25.5C20 25.1022 20.158 24.7206 20.4393 24.4393C20.7206 24.158 21.1022 24 21.5 24Z" fill="#16A34A"/>
</svg>
