<svg width="443" height="451" viewBox="0 0 443 451" fill="none" xmlns="http://www.w3.org/2000/svg">
<path d="M200.792 40.889L207.589 29.9951L204.247 27.926C203.771 27.621 203.388 27.192 203.138 26.6852C202.889 26.1784 202.782 25.613 202.83 25.05C202.892 24.414 202.913 23.7747 202.892 23.136C202.885 22.5763 203.029 22.025 203.309 21.5405C203.59 21.0561 203.996 20.6565 204.485 20.3841L207.94 18.5219L201.847 7.22458L198.392 9.07644C197.894 9.34186 197.332 9.46312 196.769 9.42657C196.206 9.39001 195.664 9.19709 195.205 8.86952C194.683 8.49527 194.141 8.1499 193.581 7.83497C193.086 7.56448 192.675 7.16445 192.391 6.67781C192.106 6.19116 191.96 5.63628 191.967 5.07271L192.091 1.14141L179.283 0.748276L179.159 4.67958C179.139 5.24431 178.962 5.79222 178.647 6.26184C178.333 6.73147 177.894 7.10425 177.38 7.33838C177.09 7.47288 176.811 7.60737 176.531 7.76255C176.252 7.91773 175.983 8.06257 175.714 8.2281C175.235 8.52276 174.683 8.67876 174.121 8.67876C173.558 8.67876 173.007 8.52276 172.528 8.2281L169.165 6.15899L162.41 17.0528L165.751 19.122C166.225 19.4261 166.608 19.8535 166.857 20.3583C167.107 20.8631 167.215 21.4264 167.169 21.9877C167.107 22.6236 167.086 23.263 167.107 23.9016C167.116 24.4631 166.972 25.0165 166.692 25.503C166.411 25.9894 166.004 26.3906 165.513 26.6639L162.068 28.5674L168.121 39.8648L171.586 38.0129C172.083 37.7496 172.643 37.6294 173.204 37.666C173.765 37.7025 174.304 37.8943 174.762 38.2198C175.29 38.5819 175.797 38.913 176.387 39.2544C176.886 39.5194 177.301 39.9183 177.586 40.4062C177.871 40.8941 178.015 41.4517 178 42.0166L177.876 45.9479L190.694 46.3514L190.819 42.4098C190.839 41.8477 191.017 41.3027 191.331 40.8364C191.646 40.3701 192.085 40.0013 192.598 39.7717C192.877 39.6372 193.167 39.4923 193.446 39.3371C193.726 39.182 193.995 39.0371 194.264 38.8716C194.748 38.5796 195.302 38.4252 195.867 38.4252C196.432 38.4252 196.987 38.5796 197.471 38.8716L200.792 40.889ZM190.001 32.7988C188.171 33.7802 186.091 34.1967 184.023 33.9958C181.956 33.7948 179.995 32.9853 178.388 31.6697C176.781 30.3542 175.6 28.5915 174.995 26.6048C174.389 24.618 174.387 22.4964 174.987 20.5082C175.588 18.52 176.764 16.7545 178.368 15.435C179.972 14.1155 181.931 13.3013 183.998 13.0953C186.065 12.8894 188.146 13.3009 189.979 14.2779C191.812 15.2549 193.314 16.7534 194.295 18.584C194.947 19.799 195.354 21.1307 195.492 22.5031C195.629 23.8754 195.495 25.2614 195.096 26.5817C194.697 27.902 194.042 29.1307 193.168 30.1975C192.293 31.2643 191.217 32.1482 190.001 32.7988Z" fill="#EBEBEB"/>
<path d="M20.6351 181.309L28.415 176.788L27.039 174.409C26.8436 174.063 26.7478 173.671 26.7624 173.274C26.777 172.878 26.9014 172.493 27.1218 172.164C27.3597 171.791 27.5873 171.408 27.7943 171.005C27.9655 170.66 28.2296 170.37 28.5568 170.167C28.8839 169.964 29.2612 169.857 29.6461 169.856H32.4394V160.866H29.6461C29.2508 160.871 28.8625 160.762 28.527 160.553C28.1914 160.344 27.9228 160.044 27.7529 159.687C27.546 159.283 27.3184 158.901 27.0804 158.528C26.8601 158.198 26.7356 157.814 26.721 157.417C26.7064 157.021 26.8022 156.628 26.9976 156.283L28.3736 153.904L20.5938 149.414L19.3006 151.804C19.0989 152.142 18.8075 152.417 18.4587 152.6C18.1099 152.783 17.7174 152.865 17.3246 152.838C17.1073 152.838 16.8797 152.838 16.6625 152.838C16.4452 152.838 16.2176 152.838 16.0003 152.838C15.6077 152.864 15.2156 152.781 14.867 152.598C14.5184 152.416 14.2269 152.141 14.0243 151.804L12.638 149.403L4.81681 153.904L6.20311 156.293C6.39883 156.637 6.49479 157.028 6.48017 157.423C6.46555 157.817 6.34092 158.2 6.12034 158.528C5.87637 158.903 5.65192 159.289 5.44788 159.687C5.27794 160.044 5.00931 160.344 4.6738 160.553C4.33828 160.762 3.94991 160.871 3.55465 160.866H0.802734V169.856H3.55465C3.94991 169.852 4.33828 169.96 4.6738 170.169C5.00931 170.378 5.27794 170.679 5.44788 171.036C5.65192 171.433 5.87637 171.82 6.12034 172.195C6.34092 172.522 6.46555 172.905 6.48017 173.3C6.49479 173.695 6.39883 174.086 6.20311 174.429L4.81681 176.788L12.5967 181.278L13.983 178.888C14.1837 178.549 14.475 178.273 14.824 178.09C15.173 177.907 15.566 177.825 15.959 177.854H16.6211H17.2832C17.6761 177.825 18.0692 177.907 18.4182 178.09C18.7672 178.273 19.0584 178.549 19.2592 178.888L20.6351 181.309ZM16.6211 172.722C15.1616 172.724 13.7344 172.293 12.5206 171.482C11.3068 170.672 10.3611 169.519 9.80355 168.17C9.246 166.821 9.1017 165.337 9.38897 163.906C9.67624 162.475 10.3821 161.162 11.4171 160.133C12.452 159.104 13.7693 158.405 15.2018 158.126C16.6344 157.847 18.1176 158 19.4632 158.565C20.8088 159.13 21.9563 160.082 22.7599 161.3C23.5634 162.519 23.987 163.948 23.9767 165.408C23.9658 167.352 23.186 169.212 21.8077 170.582C20.4295 171.953 18.5648 172.722 16.6211 172.722Z" fill="#EBEBEB"/>
<path d="M255.272 50.5724L250.782 42.7926L248.402 44.1685C248.06 44.3658 247.669 44.4635 247.275 44.4507C246.88 44.4379 246.496 44.3151 246.168 44.0961C245.791 43.8499 245.401 43.6253 244.999 43.4236C244.636 43.2476 244.331 42.9724 244.119 42.63C243.906 42.2876 243.795 41.892 243.798 41.489V38.7371H234.819V41.489C234.822 41.8854 234.712 42.2746 234.501 42.6102C234.291 42.9458 233.988 43.2138 233.629 43.3823C233.231 43.5863 232.844 43.8107 232.47 44.0547C232.141 44.2737 231.758 44.3965 231.363 44.4093C230.968 44.4221 230.578 44.3244 230.235 44.1271L227.856 42.7512L223.387 50.5724L225.777 51.9484C226.115 52.1517 226.392 52.4449 226.574 52.7955C226.757 53.1461 226.839 53.5404 226.811 53.9347C226.811 54.152 226.811 54.3692 226.811 54.5968C226.811 54.8244 226.811 55.0417 226.811 55.2589C226.843 55.651 226.763 56.0442 226.58 56.3924C226.397 56.7405 226.118 57.0292 225.777 57.2246L223.387 58.6109L227.877 66.3907L230.256 65.0148C230.601 64.8193 230.994 64.7235 231.39 64.7382C231.787 64.7528 232.171 64.8772 232.501 65.0975C232.874 65.3355 233.256 65.5631 233.66 65.77C234.012 65.9458 234.309 66.2158 234.517 66.55C234.725 66.8842 234.837 67.2695 234.839 67.6632V70.4152H243.798V67.6632C243.801 67.2695 243.913 66.8842 244.121 66.55C244.329 66.2158 244.626 65.9458 244.978 65.77C245.381 65.5631 245.764 65.3355 246.137 65.0975C246.464 64.877 246.847 64.7523 247.242 64.7377C247.637 64.7231 248.028 64.8191 248.371 65.0148L250.761 66.3907L255.251 58.6109L252.861 57.2349C252.523 57.0333 252.247 56.7419 252.065 56.3931C251.882 56.0443 251.8 55.6517 251.827 55.2589C251.827 55.0417 251.827 54.8141 251.827 54.5968C251.827 54.3796 251.827 54.152 251.827 53.9347C251.799 53.5404 251.881 53.1461 252.064 52.7955C252.246 52.4449 252.522 52.1517 252.861 51.9484L255.272 50.5724ZM246.685 54.5968C246.683 56.0512 246.25 57.4723 245.44 58.6806C244.631 59.8889 243.481 60.8301 242.137 61.3852C240.793 61.9404 239.314 62.0845 237.888 61.7996C236.462 61.5146 235.152 60.8132 234.124 59.7841C233.097 58.7549 232.397 57.4443 232.114 56.0177C231.831 54.5911 231.977 53.1127 232.534 51.7692C233.091 50.4257 234.034 49.2775 235.244 48.4697C236.453 47.6619 237.875 47.2308 239.329 47.2308C241.275 47.2308 243.141 48.0015 244.52 49.3742C245.898 50.747 246.677 52.61 246.685 54.5554V54.5968Z" fill="#EBEBEB"/>
<path d="M426.914 300.428L413.103 300.717L406.296 300.831C404.03 300.883 401.785 300.831 399.519 300.893L399.985 300.428L400.037 312.004L399.519 311.487L413.217 311.549C417.789 311.549 422.352 311.673 426.914 311.725L426.635 312.004C426.635 310.111 426.728 308.207 426.769 306.273L426.914 300.428ZM426.914 300.428L427.069 306.159C427.069 308.083 427.183 310.039 427.204 312.004V312.315H426.914C422.352 312.315 417.789 312.48 413.217 312.491L399.519 312.553H399.002V312.035L399.064 300.459V299.993H399.519C401.837 299.993 404.144 299.993 406.451 300.045L413.341 300.159L426.914 300.428Z" fill="#EBEBEB"/>
<path d="M273.221 192.803L259.41 193.082L252.602 193.206C250.337 193.206 248.081 193.206 245.826 193.206L246.291 192.751V204.317L245.774 203.811L259.472 203.873C264.044 203.873 268.607 203.986 273.169 204.038L272.89 204.317C272.89 202.424 272.983 200.521 273.024 198.596L273.221 192.803ZM273.221 192.803L273.366 198.524C273.417 200.459 273.49 202.414 273.511 204.369V204.649H273.221C268.658 204.7 264.096 204.814 259.523 204.814L245.826 204.876H245.309V204.349L245.371 192.782V192.306H245.867C248.174 192.306 250.492 192.306 252.799 192.358L259.689 192.482L273.221 192.803Z" fill="#EBEBEB"/>
<path d="M38.3773 304.752L24.5557 305.073L17.7483 305.186C15.4826 305.238 13.2377 305.187 10.9823 305.249L11.4375 304.783L11.4893 316.36L10.9823 315.842L24.6798 315.904C29.2422 315.904 33.8046 316.029 38.3773 316.08L38.0877 316.36C38.0877 314.466 38.1808 312.563 38.2221 310.628L38.3773 304.752ZM38.3773 304.752L38.5222 310.483C38.5222 312.408 38.636 314.363 38.6567 316.329V316.608H38.3773C33.8046 316.66 29.2422 316.774 24.6798 316.784L11.0237 316.846H10.4961V316.329V304.752V304.286H11.0237C13.3308 304.286 15.6378 304.286 17.9449 304.349L24.835 304.462L38.3773 304.752Z" fill="#EBEBEB"/>
<path d="M300.762 248.679V404.897H395.206V248.679H300.762ZM386.63 347.262H309.338V306.583H386.63V347.262ZM386.63 296.9H309.338V256.231H386.63V296.9Z" fill="#DBDBDB"/>
<path d="M437.923 248.69H395.217V404.918H437.923V248.69Z" fill="#EBEBEB"/>
<path d="M327.701 256.231H309.338V296.9H327.701V256.231Z" fill="#EBEBEB"/>
<path d="M386.897 395.369H309.564V356.056H386.897V395.369ZM310.082 394.851H386.38V356.573H310.082V394.851Z" fill="#EBEBEB"/>
<path d="M355.861 367.239H340.602V372.815H355.861V367.239Z" fill="#EBEBEB"/>
<path d="M327.701 306.594H309.338V347.262H327.701V306.594Z" fill="#EBEBEB"/>
<path d="M376.057 347.251V309.759H363.135V347.251H376.057Z" fill="#A6A6A6"/>
<path d="M376.066 341.241V333.151H363.145V341.241H376.066Z" fill="#DBDBDB"/>
<path d="M376.057 326.633V321.833H363.135V326.633H376.057Z" fill="#DBDBDB"/>
<path d="M364.542 265.522H331.881V296.9H364.542V265.522Z" fill="#EBEBEB"/>
<path d="M376.946 265.522H364.531V296.9H376.946V265.522Z" fill="#C7C7C7"/>
<path d="M331.881 281.216H364.531L339.03 282.023L331.881 281.216Z" fill="#C7C7C7"/>
<path d="M364.531 293.113H331.881L357.383 293.92L364.531 293.113Z" fill="#C7C7C7"/>
<path d="M331.881 272.443H352.562L334.178 273.105L331.881 272.443Z" fill="#C7C7C7"/>
<path d="M364.532 288.489H343.852L362.236 289.151L364.532 288.489Z" fill="#C7C7C7"/>
<path d="M339.713 268.946H363.042L359.152 269.339L339.713 268.946Z" fill="#C7C7C7"/>
<path d="M335.057 284.578H358.386L354.496 284.971L335.057 284.578Z" fill="#C7C7C7"/>
<path d="M349.396 275.433H364.532L367.243 276.488L349.396 275.433Z" fill="#EBEBEB"/>
<path d="M327.711 275.433H342.846L345.547 276.488L327.711 275.433Z" fill="#EBEBEB"/>
<path d="M347.131 289.534H331.995L329.295 290.589L347.131 289.534Z" fill="#EBEBEB"/>
<path d="M364.531 285.954H376.687L379.387 287.009L364.531 285.954Z" fill="#C7C7C7"/>
<path d="M368.773 281.216H378.198L376.946 280.347L368.773 281.216Z" fill="#C7C7C7"/>
<path d="M386.64 307.256H376.066V347.251H386.64V307.256Z" fill="#EBEBEB"/>
<path d="M381.394 315.149C380.957 315.151 380.53 315.024 380.167 314.783C379.803 314.542 379.519 314.199 379.35 313.796C379.182 313.394 379.137 312.95 379.221 312.522C379.305 312.094 379.514 311.7 379.821 311.391C380.129 311.082 380.522 310.871 380.95 310.785C381.377 310.699 381.821 310.742 382.224 310.909C382.627 311.075 382.972 311.358 383.215 311.72C383.457 312.083 383.587 312.509 383.587 312.946C383.587 313.528 383.356 314.087 382.945 314.5C382.534 314.913 381.976 315.147 381.394 315.149Z" fill="white"/>
<path d="M381.394 314.208C381.144 314.21 380.898 314.138 380.69 314C380.481 313.863 380.317 313.666 380.22 313.436C380.123 313.205 380.097 312.951 380.144 312.706C380.192 312.46 380.311 312.234 380.487 312.057C380.663 311.879 380.888 311.758 381.133 311.709C381.378 311.659 381.633 311.683 381.864 311.779C382.095 311.874 382.293 312.036 382.432 312.243C382.571 312.451 382.645 312.696 382.645 312.946C382.645 313.279 382.514 313.598 382.279 313.835C382.045 314.071 381.727 314.205 381.394 314.208Z" fill="#A6A6A6"/>
<path d="M386.641 340.961V331.226H376.067V340.961H386.641Z" fill="white"/>
<path d="M363.135 338.996H323.139V347.314H363.135V338.996Z" fill="#C7C7C7"/>
<path d="M355.252 343.155C355.252 342.719 355.381 342.293 355.623 341.93C355.865 341.568 356.21 341.286 356.612 341.119C357.015 340.952 357.458 340.908 357.885 340.993C358.313 341.078 358.706 341.288 359.014 341.596C359.322 341.905 359.532 342.297 359.617 342.725C359.702 343.152 359.658 343.595 359.491 343.998C359.325 344.401 359.042 344.745 358.68 344.987C358.317 345.229 357.891 345.358 357.456 345.358C357.166 345.36 356.879 345.304 356.611 345.193C356.343 345.083 356.099 344.921 355.894 344.716C355.689 344.511 355.527 344.268 355.417 344C355.307 343.732 355.251 343.444 355.252 343.155Z" fill="white"/>
<path d="M356.193 343.155C356.193 342.905 356.267 342.661 356.406 342.453C356.545 342.246 356.742 342.084 356.973 341.989C357.203 341.893 357.457 341.868 357.702 341.917C357.947 341.965 358.171 342.086 358.348 342.262C358.525 342.439 358.645 342.664 358.693 342.908C358.742 343.153 358.717 343.407 358.622 343.638C358.526 343.868 358.364 344.065 358.157 344.204C357.949 344.343 357.705 344.417 357.456 344.417C357.289 344.418 357.125 344.386 356.971 344.324C356.817 344.261 356.677 344.168 356.56 344.05C356.443 343.933 356.35 343.793 356.287 343.639C356.224 343.486 356.192 343.321 356.193 343.155Z" fill="#A6A6A6"/>
<path d="M329.439 347.324H339.174V339.006H329.439V347.324Z" fill="white"/>
<path d="M426.991 189.394C435.832 163.976 422.71 136.314 397.68 127.607C372.651 118.901 345.194 132.448 336.353 157.866C327.511 183.284 340.634 210.946 365.663 219.653C390.692 228.359 418.149 214.812 426.991 189.394Z" fill="#EBEBEB"/>
<path d="M417.003 185.896C423.9 166.069 413.663 144.491 394.138 137.699C374.613 130.908 353.195 141.475 346.298 161.302C339.401 181.129 349.638 202.707 369.163 209.499C388.688 216.29 410.106 205.723 417.003 185.896Z" fill="white"/>
<path d="M408.706 173.188C408.776 180.427 405.993 187.402 400.959 192.604C395.925 197.807 389.045 200.818 381.808 200.986C378.249 201.027 374.718 200.362 371.419 199.028C368.119 197.695 365.117 195.72 362.587 193.218C360.056 190.717 358.047 187.737 356.676 184.454C355.305 181.17 354.599 177.646 354.599 174.088C354.529 166.849 357.312 159.874 362.346 154.671C367.38 149.469 374.26 146.458 381.497 146.289C385.056 146.248 388.587 146.914 391.886 148.247C395.186 149.58 398.188 151.555 400.718 154.057C403.249 156.559 405.258 159.538 406.629 162.822C408 166.106 408.706 169.629 408.706 173.188Z" fill="#EBEBEB"/>
<path d="M398.135 173.353C398.168 177.751 396.473 181.985 393.413 185.144C390.353 188.302 386.174 190.131 381.778 190.237C379.612 190.262 377.462 189.856 375.453 189.043C373.444 188.231 371.617 187.027 370.077 185.503C368.538 183.978 367.316 182.163 366.483 180.163C365.65 178.162 365.222 176.017 365.225 173.85C365.183 169.447 366.876 165.205 369.936 162.04C372.997 158.874 377.18 157.041 381.582 156.935C383.751 156.909 385.904 157.315 387.916 158.129C389.927 158.943 391.756 160.149 393.297 161.677C394.837 163.205 396.058 165.025 396.889 167.029C397.72 169.034 398.143 171.183 398.135 173.353Z" fill="white"/>
<path d="M388.998 173.508C389.02 175.463 388.273 177.348 386.919 178.757C385.564 180.166 383.71 180.986 381.756 181.04C380.789 181.058 379.829 180.882 378.931 180.523C378.033 180.164 377.217 179.629 376.529 178.949C375.842 178.269 375.297 177.459 374.928 176.565C374.559 175.672 374.372 174.713 374.379 173.746C374.357 171.792 375.104 169.907 376.458 168.498C377.813 167.089 379.667 166.269 381.621 166.215C382.588 166.197 383.548 166.373 384.446 166.732C385.344 167.091 386.16 167.626 386.848 168.306C387.535 168.986 388.08 169.796 388.449 170.69C388.818 171.583 389.005 172.542 388.998 173.508Z" fill="#EBEBEB"/>
<path d="M311.21 136.222L310.826 136.956L381.284 173.79L381.668 173.057L311.21 136.222Z" fill="#C7C7C7"/>
<path d="M307.859 138.241L308.035 138.168L311.263 137.175L304.9 133.844L301.455 134.889L307.859 138.241Z" fill="#C7C7C7"/>
<path d="M304.135 129.768L305.283 133.119L311.646 136.44C311.141 135.374 310.762 134.253 310.518 133.099L304.135 129.768Z" fill="#C7C7C7"/>
<path d="M383.216 172.805L381.881 175.195L378.354 174.895L380.671 172.991L380.909 170.012L383.216 172.805Z" fill="#C7C7C7"/>
<path d="M145.93 270.26C146.289 272.174 146.155 274.149 145.539 275.997C144.924 277.845 143.848 279.506 142.412 280.823L130.391 283.068C128.527 282.335 126.886 281.129 125.632 279.568C124.377 278.007 123.551 276.146 123.237 274.168C122.922 272.191 123.129 270.165 123.837 268.292C124.546 266.418 125.731 264.763 127.275 263.488C128.82 262.213 130.67 261.364 132.644 261.024C134.617 260.683 136.645 260.864 138.528 261.548C140.41 262.232 142.081 263.396 143.375 264.924C144.67 266.452 145.543 268.291 145.909 270.26H145.93Z" fill="#EBEBEB"/>
<path d="M148.399 279.712L124.406 284.18L125.05 287.639L149.043 283.17L148.399 279.712Z" fill="#EBEBEB"/>
<path d="M169.554 325.056L120.959 334.106L121.603 337.564L170.198 328.514L169.554 325.056Z" fill="#DBDBDB"/>
<path d="M171.361 334.751L122.766 343.801L123.41 347.259L172.005 338.209L171.361 334.751Z" fill="#DBDBDB"/>
<path d="M168.389 328.853L123.414 337.229L124.575 343.464L169.55 335.087L168.389 328.853Z" fill="#EBEBEB"/>
<path d="M146.836 283.591L127.268 287.235L127.912 290.693L147.48 287.049L146.836 283.591Z" fill="#DBDBDB"/>
<path d="M165.172 325.867L125.414 333.275C125.414 333.275 132.79 322.515 132.656 311.301C132.532 301.855 131.145 290.092 131.145 290.092L144.264 287.651C144.264 287.651 147.202 299.124 150.471 307.98C154.392 318.522 165.172 325.867 165.172 325.867Z" fill="#EBEBEB"/>
<path d="M99.6645 450.5C152.242 450.5 194.864 446.123 194.864 440.723C194.864 435.324 152.242 430.947 99.6645 430.947C47.0872 430.947 4.46484 435.324 4.46484 440.723C4.46484 446.123 47.0872 450.5 99.6645 450.5Z" fill="#EBEBEB"/>
<path d="M0.0273438 404.918L54.7656 404.659L109.494 404.576L218.97 404.4L328.447 404.576L383.185 404.659L437.913 404.918L383.185 405.166L328.447 405.259L218.97 405.435L109.494 405.259L54.7656 405.166L0.0273438 404.918Z" fill="#263238"/>
<path d="M31.4266 78.4226C31.3562 70.4658 32.6294 62.5541 35.1924 55.021C39.142 43.6615 45.9518 33.5113 54.9651 25.549C63.9784 17.5867 74.8911 12.081 86.6511 9.56273C90.5613 8.76912 94.5301 8.29854 98.5174 8.15573C99.552 8.15573 100.514 8.09366 101.507 8.09366L104.497 8.20746C106.494 8.20746 108.48 8.51783 110.456 8.73508C118.407 9.72881 126.116 12.1395 133.216 15.8528C140.296 19.4949 146.697 24.3277 152.138 30.14C157.547 35.9828 161.952 42.6807 165.174 49.9621C158.461 35.5 147.072 23.721 132.844 16.5253C129.319 14.7613 125.659 13.2807 121.898 12.0974C120.005 11.5801 118.112 11.0628 116.188 10.618L113.291 10.08L111.832 9.80067L110.342 9.63515C108.39 9.37001 106.425 9.2077 104.456 9.1489L101.507 9.04545C100.473 9.04545 99.5416 9.04545 98.5588 9.10752C94.6253 9.28063 90.7122 9.77192 86.858 10.5766C79.145 12.2156 71.7647 15.1467 65.0289 19.2462C58.3067 23.4069 52.3187 28.6504 47.307 34.7645C37.2312 47.104 31.6334 62.4933 31.4266 78.4226Z" fill="#263238"/>
<path d="M42.2891 27.057C45.5658 22.7872 49.3489 18.9311 53.5554 15.5735C61.9955 8.7907 71.9224 4.1038 82.5229 1.89665C83.8471 1.66905 85.1713 1.38972 86.4956 1.2035C87.8198 1.01728 89.1647 0.841406 90.4993 0.717259L94.5237 0.5H98.5481L94.5444 0.748295L90.5614 1.19315C89.2371 1.36903 87.9232 1.60697 86.6094 1.81388C85.2955 2.02079 84.0023 2.37254 82.6987 2.64153C72.3185 5.13116 62.5631 9.73419 54.0416 16.1632C49.7787 19.4031 45.8425 23.0517 42.2891 27.057Z" fill="#263238"/>
<path d="M349.158 151.193C364.911 148.69 379.348 140.913 390.106 129.136C395.408 123.289 399.708 116.605 402.831 109.356C405.916 102.096 407.742 94.3646 408.231 86.4921C408.473 82.5643 408.393 78.6234 407.993 74.7085C407.869 73.7361 407.766 72.7532 407.631 71.7808L407.093 68.8737C406.746 66.9383 406.301 65.0218 405.759 63.1319C405.624 62.656 405.51 62.1801 405.376 61.7042L404.9 60.3076L403.938 57.5143C403.245 55.6727 402.438 53.8726 401.641 52.0725C399.922 48.5307 397.926 45.1302 395.672 41.9028C386.49 28.8681 373.183 19.3082 357.9 14.7665C365.57 16.8842 372.835 20.2614 379.398 24.7603C385.958 29.3036 391.684 34.9455 396.324 41.4373C401.024 47.9076 404.528 55.1676 406.669 62.8732C407.229 64.7903 407.691 66.7342 408.055 68.6978L408.604 71.6359C408.749 72.6705 408.852 73.6119 408.986 74.6051C409.409 78.577 409.506 82.5768 409.276 86.5645C408.287 102.63 401.755 117.854 390.793 129.64C379.832 141.426 365.12 149.044 349.169 151.193H349.158Z" fill="#263238"/>
<path d="M417.295 79.4261C417.138 74.0832 416.463 68.7682 415.277 63.5561C412.881 53.1542 408.362 43.3593 402.004 34.7851C401.176 33.7505 400.401 32.6539 399.542 31.6814C398.683 30.709 397.814 29.6123 396.914 28.6709L394.152 25.7431L391.234 22.9705L394.338 25.5362L397.276 28.2881C398.228 29.2399 399.118 30.2434 400.038 31.2262C400.959 32.2091 401.766 33.2953 402.635 34.3299C405.961 38.576 408.79 43.1892 411.067 48.0791C413.302 52.9888 414.975 58.1357 416.053 63.4216C417.114 68.6864 417.531 74.0607 417.295 79.4261Z" fill="#263238"/>
<path d="M300.184 166.132C295.43 184.381 284.529 200.431 269.318 211.577C254.107 222.723 235.517 228.282 216.685 227.316C212.011 227.045 207.367 226.387 202.801 225.35C201.663 225.071 200.525 224.812 199.397 224.512L196.045 223.477C193.81 222.794 191.61 221.996 189.455 221.088C188.917 220.87 188.369 220.663 187.831 220.436L186.248 219.67L183.093 218.17C182.058 217.674 181.024 217.022 179.989 216.463C178.955 215.905 177.92 215.304 176.958 214.684C173.016 212.167 169.299 209.315 165.847 206.159L163.281 203.79L160.881 201.235C159.215 199.579 157.777 197.707 156.329 195.907C155.563 195.027 154.932 194.044 154.26 193.093L152.284 190.237L150.473 187.247C149.873 186.213 149.242 185.261 148.746 184.206C144.387 175.952 141.422 167.035 139.973 157.814C143.164 176.259 152.484 193.089 166.426 205.58C169.882 208.659 173.581 211.454 177.486 213.939C178.458 214.549 179.482 215.098 180.475 215.687C181.469 216.277 182.462 216.877 183.517 217.363L186.621 218.853L188.183 219.608C188.711 219.836 189.217 220.032 189.797 220.239C191.925 221.14 194.101 221.924 196.314 222.588L199.635 223.622C200.753 223.912 201.88 224.16 202.998 224.44C207.511 225.442 212.099 226.075 216.716 226.333C225.97 226.828 235.241 225.743 244.132 223.126C257.523 219.159 269.689 211.857 279.489 201.905C289.289 191.953 296.402 179.677 300.163 166.225L300.184 166.132Z" fill="#263238"/>
<path d="M272.26 221.057C267.238 224.874 261.774 228.073 255.987 230.585C244.358 235.674 231.697 237.967 219.022 237.278C217.449 237.144 215.918 237.061 214.304 236.875C212.691 236.689 211.201 236.482 209.628 236.213C208.056 235.944 206.525 235.602 205.004 235.261L200.441 234.03L205.056 234.992C206.597 235.251 208.159 235.468 209.701 235.716C211.242 235.965 212.804 236.058 214.367 236.223C215.929 236.389 217.47 236.389 219.053 236.482C225.292 236.682 231.535 236.214 237.675 235.085C243.83 233.984 249.85 232.232 255.635 229.861C261.454 227.483 267.023 224.534 272.26 221.057Z" fill="#263238"/>
<path d="M278.012 146.848C277.378 152.672 275.871 158.367 273.543 163.742L284.033 171.274L278.602 180.668L266.87 175.36C263.403 180.085 259.254 184.268 254.559 187.775L259.876 199.548L250.483 204.959L242.972 194.52C237.612 196.879 231.927 198.417 226.109 199.083L224.826 211.963H213.984L212.701 199.155C206.882 198.518 201.191 197.015 195.817 194.696L188.285 205.176L178.892 199.755L184.178 188.013C179.458 184.544 175.275 180.4 171.763 175.712L160.001 180.926L154.6 171.615L165.06 164.104C162.696 158.745 161.155 153.06 160.487 147.241L147.586 145.917V135.075L160.404 133.802C161.04 127.976 162.546 122.277 164.873 116.898L154.383 109.366L159.814 99.9827L171.546 105.28C175.01 100.553 179.16 96.3685 183.857 92.865L178.623 81.1228L188.016 75.6914L195.517 86.1404C200.873 83.7979 206.551 82.2705 212.359 81.609L213.632 68.7702H224.474L225.757 81.578C231.577 82.2052 237.27 83.7085 242.641 86.0369L250.183 75.5569L259.566 80.9883L254.28 92.7201C259 96.1923 263.183 100.341 266.694 105.031L278.467 99.7137L283.888 109.118L273.429 116.618C275.769 121.964 277.29 127.631 277.94 133.43L290.81 134.723V145.576L278.012 146.848Z" fill="#16A34A"/>
<path d="M148.094 91.9546C146.912 98.1603 144.506 104.069 141.017 109.335L148.673 118.781L136.713 130.161L128.22 122.495C122.833 126.194 116.751 128.76 110.343 130.037L109.153 141.355L92.7552 140.92L92.1552 130.233C85.511 129.041 79.1977 126.445 73.6367 122.619L65.2464 129.416L53.8663 117.477L60.8289 109.77C57.007 104.135 54.4387 97.7459 53.2973 91.0338L42.6621 89.8855L43.0966 73.4154L53.6905 72.8774C55.059 66.3246 57.7946 60.1342 61.7186 54.7106L54.6216 45.9583L66.5707 34.5782L74.9505 42.1408C80.4044 38.6693 86.5021 36.3329 92.8794 35.2714L94.1312 23.3223L110.591 23.7568L111.201 35.7576C117.332 37.1311 123.13 39.7049 128.261 43.3305L138.048 35.3852L149.376 47.3446L141.1 56.5315C144.507 61.709 146.875 67.4995 148.073 73.5809L160.643 74.8948L160.208 91.3545L148.094 91.9546Z" fill="#455A64"/>
<path d="M107.436 98.7723L95.2281 98.6585V98.4516C94.8583 96.5119 94.3781 94.5949 93.7901 92.7098C93.1967 91.6609 92.3938 90.7453 91.4313 90.02C89.3475 88.3276 87.6306 86.2282 86.3855 83.85C85.1403 81.4718 84.3931 78.8647 84.1894 76.188C84.0234 73.6896 84.3629 71.1833 85.1877 68.8191C86.0125 66.455 87.3056 64.2814 88.9897 62.4284C90.6293 60.679 92.6139 59.2887 94.8181 58.3452C97.0223 57.4017 99.3982 56.9257 101.796 56.9471C104.193 56.9685 106.56 57.4868 108.747 58.4695C110.934 59.4521 112.894 60.8777 114.502 62.656C116.155 64.5392 117.412 66.7368 118.196 69.1171C118.98 71.4974 119.275 74.0115 119.064 76.5087C118.804 79.1856 118 81.7812 116.701 84.1365C115.403 86.4918 113.637 88.5572 111.512 90.2062C110.535 90.9107 109.717 91.8131 109.112 92.8547C108.487 94.7272 107.968 96.6339 107.56 98.5654L107.436 98.7723ZM95.6523 98.1619L107.032 98.2654C107.428 96.3735 107.939 94.5078 108.564 92.6788C109.188 91.5552 110.054 90.5837 111.098 89.8338C113.798 87.4646 117.492 84.2161 118.475 76.4673C118.68 74.0421 118.392 71.6006 117.629 69.2893C116.867 66.9781 115.644 64.8449 114.036 63.0181C112.477 61.294 110.577 59.9121 108.456 58.9596C106.336 58.0071 104.04 57.5048 101.716 57.4844C99.3912 57.464 97.0877 57.9259 94.9506 58.841C92.8136 59.7561 90.8896 61.1044 89.3001 62.8009C87.6618 64.5977 86.4032 66.7069 85.5997 69.0019C84.7961 71.2969 84.4643 73.7306 84.6239 76.157C85.4619 83.9161 89.0932 87.237 91.752 89.6579C92.7787 90.4291 93.6258 91.4139 94.2349 92.5443C94.8232 94.3857 95.2966 96.2618 95.6523 98.1619Z" fill="white"/>
<path d="M95.6859 79.5974L94.9219 79.7326L98.2477 98.5177L99.0117 98.3824L95.6859 79.5974Z" fill="white"/>
<path d="M107.704 79.7094L104.031 98.4297L104.793 98.5791L108.465 79.8588L107.704 79.7094Z" fill="white"/>
<path d="M101.631 86.0059C100.524 86.0059 99.5616 84.9713 98.9098 83.7506C98.7858 83.9072 98.6288 84.0348 98.45 84.1241C98.2713 84.2135 98.0751 84.2626 97.8753 84.2678C96.0752 84.2678 95.3924 80.5745 95.3613 80.4193L95.7441 80.3572C95.92 81.3297 96.6442 83.8747 97.8753 83.885C98.0388 83.8646 98.1962 83.8097 98.337 83.7242C98.4779 83.6386 98.5991 83.5242 98.6926 83.3885C98.1834 82.3489 97.8979 81.214 97.8546 80.0572C97.8546 79.0226 98.2684 78.4226 98.9616 78.4226C99.1706 78.4148 99.3777 78.4647 99.5603 78.5669C99.7428 78.6691 99.8936 78.8196 99.9961 79.002C100.544 79.9744 100.11 81.878 99.3961 83.0781C99.3277 83.2056 99.248 83.3268 99.1581 83.4402C99.7892 84.6506 100.669 85.6128 101.62 85.6231C102.489 85.6231 103.255 84.8472 103.814 83.8023C103.109 82.8969 102.742 81.7732 102.779 80.6262C102.779 79.2916 103.307 78.464 104.124 78.4743C104.786 78.4743 105.159 79.1364 105.159 80.2745C105.106 81.4744 104.807 82.6507 104.279 83.7299C104.58 84.0266 104.985 84.1938 105.407 84.1954C106.441 84.1954 107.414 81.6608 107.704 80.6779L108.076 80.7814C107.962 81.1745 106.928 84.5989 105.396 84.5885C104.915 84.5731 104.454 84.3902 104.093 84.0713C103.891 84.5831 103.556 85.0319 103.124 85.3719C102.691 85.7118 102.176 85.9306 101.631 86.0059ZM104.124 78.8571C103.421 78.8571 103.172 79.8089 103.162 80.6262C103.148 81.626 103.444 82.6056 104.01 83.4298C104.471 82.4389 104.731 81.3665 104.776 80.2745C104.776 79.8503 104.724 78.8571 104.124 78.8571ZM98.9512 78.8571C98.3615 78.8571 98.2374 79.5399 98.227 80.1193C98.267 81.1497 98.5096 82.1621 98.9409 83.0988L99.034 82.9333C99.6858 81.8987 100.069 80.0572 99.6237 79.2502C99.5597 79.1283 99.4628 79.0267 99.3439 78.9572C99.225 78.8877 99.0889 78.853 98.9512 78.8571Z" fill="white"/>
<path d="M108.842 101.121L93.7891 100.986V97.6239L108.852 97.7584L108.842 101.121ZM94.3063 100.469L108.325 100.603V98.2757L94.327 98.1619L94.3063 100.469Z" fill="white"/>
<path d="M108.811 104.421L93.7891 104.286V100.924L108.852 101.059L108.811 104.421ZM94.2753 103.769L108.304 103.904V101.576L94.2753 101.452V103.769Z" fill="white"/>
<path d="M108.78 107.721L93.7168 107.587V104.224L108.78 104.369V107.721ZM94.2444 107.069L108.273 107.204V104.876L94.2444 104.752V107.069Z" fill="white"/>
<path d="M242.766 121.75L232.555 113.039L232.679 112.842C232.782 112.687 235.203 109.139 238.659 108.704C239.541 108.606 240.434 108.702 241.275 108.984C242.116 109.267 242.886 109.729 243.531 110.339C244.243 110.884 244.827 111.577 245.245 112.37C245.663 113.163 245.904 114.037 245.952 114.932C246.087 118.46 243.066 121.491 242.942 121.615L242.766 121.75ZM233.248 112.946L242.735 121.036C243.355 120.353 245.549 117.756 245.435 114.901C245.386 114.08 245.162 113.279 244.776 112.552C244.39 111.826 243.853 111.191 243.2 110.69C242.61 110.128 241.904 109.702 241.133 109.441C240.361 109.18 239.541 109.091 238.731 109.18C235.979 109.542 233.827 112.211 233.279 112.946H233.248Z" fill="white"/>
<path d="M204.155 168.543L203.752 168.212L242.641 121.16L233.175 113.091L194.296 160.132L193.893 159.801L233.113 112.356L243.365 121.098L243.21 121.295L204.155 168.543Z" fill="white"/>
<path d="M242.527 123.829L230.619 113.68L232.502 111.404L244.399 121.564L242.527 123.829ZM231.385 113.608L242.496 123.095L243.727 121.615L232.605 112.128L231.385 113.608Z" fill="white"/>
<path d="M240.81 125.898L228.902 115.749L230.785 113.473L242.693 123.622L240.81 125.898ZM229.627 115.687L240.696 125.164L241.927 123.684L230.806 114.208L229.627 115.687Z" fill="white"/>
<path d="M192.424 172.133L193.934 159.956H194.141L196.014 159.645L196.314 159.594V161.539L198.279 161.27V163.215L200.183 162.894V164.839L202.066 164.508V166.463L203.659 166.184H203.949V168.636L192.424 172.133ZM194.4 160.442L193.034 171.398L195.383 170.674L203.442 168.16V166.691L201.859 166.97L201.559 167.022V165.067L199.666 165.398V163.453L197.762 163.773V161.828L195.859 162.149V160.235L194.4 160.442Z" fill="white"/>
<path d="M192.609 171.781L193.23 166.887L197.286 170.343L192.609 171.781ZM193.644 167.901L193.24 171.057L196.251 170.125L193.644 167.901Z" fill="white"/>
<path d="M199.211 159.376C201.673 155.942 204.26 152.6 206.867 149.279C209.474 145.958 212.164 142.71 214.812 139.41C217.46 136.109 220.223 132.944 222.995 129.757C225.768 126.571 228.572 123.405 231.479 120.332C229.016 123.777 226.43 127.109 223.823 130.44C221.216 133.771 218.526 137.009 215.878 140.299C213.229 143.589 210.467 146.776 207.684 149.952C204.901 153.128 202.118 156.304 199.211 159.376Z" fill="white"/>
<path d="M203.689 163.101C206.162 159.656 208.748 156.325 211.345 152.993C213.942 149.662 216.642 146.424 219.291 143.134C221.939 139.844 224.701 136.658 227.484 133.471C230.267 130.285 233.05 127.119 235.957 124.057C233.495 127.492 230.909 130.833 228.301 134.154C225.694 137.475 223.005 140.734 220.356 144.013C217.708 147.293 214.945 150.49 212.173 153.676C209.4 156.863 206.555 160.028 203.689 163.101Z" fill="white"/>
<path d="M382.74 91.9546C381.558 98.1604 379.153 104.069 375.664 109.335L383.319 118.781L371.36 130.161L362.866 122.495C357.488 126.215 351.409 128.802 344.999 130.099L343.81 141.417L327.35 140.982L326.802 130.233C320.158 129.041 313.844 126.445 308.283 122.619L299.893 129.416L288.513 117.477L295.475 109.77C291.65 104.137 289.082 97.7469 287.944 91.0339L277.309 89.8855L277.743 73.4154L288.337 72.8774C289.706 66.3228 292.445 60.1318 296.375 54.7107L289.32 45.979L301.269 34.5989L309.649 42.1615C315.103 38.69 321.2 36.3536 327.578 35.2921L328.829 23.343L345.289 23.7775L345.9 35.7783C352.01 37.1542 357.789 39.7205 362.908 43.3306L372.684 35.3852L384.064 47.3446L375.788 56.5315C379.195 61.709 381.563 67.4996 382.761 73.5809L395.331 74.8948L394.844 91.3132L382.74 91.9546Z" fill="#455A64"/>
<path d="M322.809 110.359H320.285V61.6525H322.809V110.359ZM320.802 109.842H322.292V62.1698H320.802V109.842Z" fill="white"/>
<path d="M356.855 86.2645H322.291V62.7491H356.855L345.072 74.5016L356.855 86.2645ZM322.808 85.7472H355.604L344.337 74.5016L355.604 63.2664H322.808V85.7472Z" fill="white"/>
<path d="M328.126 253.304H109.814V267.094H328.126V253.304Z" fill="white"/>
<path d="M328.126 267.084L109.835 267.456H109.463V267.084V253.304V252.91H109.856L218.97 253.035L328.126 253.262V267.084ZM328.126 267.084V253.304L218.97 253.573L109.815 253.686L110.197 253.304V267.084L109.825 266.722L328.126 267.084Z" fill="#263238"/>
<path d="M253.731 255.735H112.473V264.653H253.731V255.735Z" fill="#16A34A"/>
<path opacity="0.1" d="M126.677 255.735H119.363L112.473 264.653H119.787L126.677 255.735Z" fill="black"/>
<path opacity="0.1" d="M140.799 255.735H133.484L126.584 264.653H133.898L140.799 255.735Z" fill="black"/>
<path opacity="0.1" d="M154.922 255.735H147.608L140.707 264.653H148.021L154.922 255.735Z" fill="black"/>
<path opacity="0.1" d="M169.033 255.735H161.719L154.818 264.653H162.133L169.033 255.735Z" fill="black"/>
<path opacity="0.1" d="M183.154 255.735H175.84L168.939 264.653H176.254L183.154 255.735Z" fill="black"/>
<path opacity="0.1" d="M197.265 255.735H189.961L183.061 264.653H190.375L197.265 255.735Z" fill="black"/>
<path opacity="0.1" d="M211.387 255.735H204.072L197.172 264.653H204.486L211.387 255.735Z" fill="black"/>
<path opacity="0.1" d="M225.51 255.735H218.195L211.295 264.653H218.609L225.51 255.735Z" fill="black"/>
<path opacity="0.1" d="M239.62 255.735H232.306L225.416 264.653H232.73L239.62 255.735Z" fill="black"/>
<path opacity="0.1" d="M253.721 255.766V255.735H246.428L239.527 264.653H246.842L253.721 255.766Z" fill="black"/>
<path opacity="0.1" d="M253.721 264.653V264.56L253.648 264.653H253.721Z" fill="black"/>
<path d="M200.349 276.178H199.315V277.895C199.315 277.952 199.304 278.009 199.282 278.061C199.26 278.114 199.228 278.162 199.188 278.202C199.147 278.243 199.099 278.275 199.047 278.296C198.994 278.318 198.937 278.329 198.88 278.329C198.764 278.33 198.653 278.284 198.569 278.203C198.486 278.122 198.438 278.011 198.436 277.895V273.219C198.436 273.161 198.447 273.103 198.47 273.05C198.492 272.997 198.525 272.948 198.566 272.908C198.608 272.867 198.657 272.836 198.711 272.814C198.765 272.793 198.822 272.783 198.88 272.784H200.349C200.799 272.784 201.231 272.963 201.549 273.281C201.867 273.599 202.046 274.031 202.046 274.481C202.046 274.931 201.867 275.362 201.549 275.681C201.231 275.999 200.799 276.178 200.349 276.178ZM199.367 275.298H200.349C200.566 275.298 200.774 275.212 200.927 275.059C201.081 274.906 201.167 274.698 201.167 274.481C201.167 274.264 201.081 274.056 200.927 273.903C200.774 273.75 200.566 273.664 200.349 273.664H199.315L199.367 275.298Z" fill="black"/>
<path d="M206.742 277.667C206.762 277.722 206.77 277.781 206.766 277.839C206.763 277.897 206.747 277.954 206.721 278.006C206.695 278.058 206.659 278.104 206.615 278.142C206.57 278.18 206.519 278.209 206.463 278.226H206.298C206.188 278.229 206.08 278.201 205.987 278.143C205.881 278.071 205.793 277.975 205.729 277.864C205.605 277.562 205.549 277.238 205.563 276.912C205.568 276.791 205.536 276.672 205.47 276.571C205.409 276.478 205.328 276.4 205.232 276.343C205.097 276.253 204.946 276.19 204.787 276.157H203.856V277.874C203.856 277.932 203.845 277.99 203.822 278.043C203.8 278.096 203.767 278.145 203.725 278.185C203.684 278.226 203.635 278.258 203.581 278.279C203.527 278.3 203.469 278.31 203.411 278.309C203.354 278.309 203.298 278.298 203.245 278.276C203.192 278.254 203.144 278.222 203.104 278.182C203.064 278.141 203.032 278.093 203.01 278.041C202.988 277.988 202.977 277.931 202.977 277.874V273.198C202.975 273.141 202.986 273.084 203.007 273.03C203.028 272.977 203.06 272.928 203.101 272.888C203.141 272.847 203.19 272.815 203.243 272.794C203.297 272.772 203.354 272.762 203.411 272.764H204.829C205.052 272.764 205.274 272.808 205.48 272.894C205.687 272.98 205.874 273.106 206.032 273.264C206.19 273.423 206.314 273.611 206.399 273.818C206.484 274.025 206.527 274.247 206.525 274.471C206.525 274.719 206.47 274.964 206.362 275.188C206.255 275.412 206.098 275.609 205.904 275.764C206.01 275.847 206.104 275.945 206.184 276.053C206.352 276.308 206.442 276.607 206.442 276.912C206.431 277.067 206.431 277.223 206.442 277.378C206.513 277.396 206.578 277.432 206.631 277.483C206.683 277.534 206.722 277.597 206.742 277.667ZM205.636 274.491C205.637 274.383 205.617 274.276 205.576 274.175C205.536 274.075 205.476 273.984 205.4 273.907C205.324 273.83 205.233 273.769 205.133 273.727C205.034 273.685 204.926 273.664 204.818 273.664H203.846V275.298H204.818C205.033 275.298 205.24 275.214 205.392 275.063C205.545 274.911 205.633 274.706 205.636 274.491Z" fill="black"/>
<path d="M212.266 273.477C212.777 274.019 213.062 274.735 213.062 275.479C213.062 276.224 212.777 276.94 212.266 277.481C212.026 277.746 211.734 277.957 211.409 278.103C211.083 278.249 210.73 278.326 210.373 278.329C210.008 278.329 209.647 278.253 209.313 278.107C208.978 277.961 208.677 277.748 208.428 277.481C207.922 276.937 207.641 276.222 207.641 275.479C207.641 274.736 207.922 274.021 208.428 273.477C208.676 273.209 208.976 272.994 209.311 272.848C209.646 272.702 210.008 272.628 210.373 272.629C210.73 272.63 211.084 272.706 211.41 272.852C211.736 272.999 212.028 273.212 212.266 273.477ZM212.163 275.474C212.162 274.961 211.97 274.467 211.625 274.088C211.464 273.912 211.268 273.771 211.05 273.675C210.832 273.579 210.596 273.529 210.358 273.529C210.119 273.529 209.883 273.579 209.665 273.675C209.447 273.771 209.251 273.912 209.09 274.088C208.747 274.468 208.557 274.962 208.557 275.474C208.557 275.986 208.747 276.48 209.09 276.86C209.249 277.039 209.445 277.182 209.663 277.28C209.881 277.378 210.118 277.429 210.358 277.429C210.597 277.429 210.834 277.378 211.052 277.28C211.271 277.182 211.466 277.039 211.625 276.86C211.97 276.481 212.162 275.987 212.163 275.474Z" fill="black"/>
<path d="M214.139 275.474C214.155 274.714 214.468 273.99 215.012 273.459C215.555 272.927 216.285 272.629 217.046 272.629C217.707 272.625 218.35 272.84 218.877 273.239C218.965 273.319 219.022 273.427 219.037 273.545C219.052 273.663 219.025 273.782 218.96 273.881C218.883 273.973 218.774 274.033 218.655 274.048C218.536 274.063 218.416 274.033 218.318 273.964C217.96 273.671 217.508 273.517 217.046 273.529C216.514 273.529 216.003 273.732 215.618 274.098C215.434 274.278 215.289 274.493 215.189 274.73C215.089 274.967 215.038 275.222 215.038 275.479C215.038 275.736 215.089 275.991 215.189 276.228C215.289 276.465 215.434 276.68 215.618 276.86C216.007 277.221 216.516 277.424 217.046 277.429C217.506 277.43 217.954 277.277 218.318 276.995C218.417 276.93 218.537 276.902 218.654 276.918C218.772 276.933 218.88 276.99 218.96 277.078C219.026 277.175 219.055 277.293 219.039 277.409C219.024 277.526 218.966 277.632 218.877 277.709C218.354 278.116 217.709 278.335 217.046 278.329C216.283 278.332 215.55 278.034 215.005 277.499C214.461 276.965 214.15 276.237 214.139 275.474Z" fill="black"/>
<path d="M220.49 277.895V273.219C220.489 273.161 220.499 273.104 220.521 273.051C220.542 272.997 220.574 272.949 220.614 272.908C220.655 272.868 220.704 272.836 220.757 272.814C220.81 272.793 220.867 272.783 220.925 272.784H223.511C223.626 272.784 223.737 272.83 223.819 272.912C223.9 272.993 223.946 273.104 223.946 273.219C223.947 273.277 223.937 273.334 223.916 273.388C223.894 273.442 223.863 273.491 223.822 273.533C223.782 273.574 223.733 273.607 223.68 273.63C223.627 273.652 223.569 273.664 223.511 273.664H221.37V275.071H223.211C223.326 275.073 223.435 275.12 223.516 275.201C223.596 275.282 223.643 275.391 223.646 275.505C223.647 275.563 223.637 275.621 223.616 275.675C223.594 275.729 223.563 275.778 223.522 275.819C223.482 275.861 223.433 275.894 223.38 275.916C223.327 275.938 223.269 275.95 223.211 275.95H221.37V277.409H223.511C223.616 277.425 223.712 277.478 223.781 277.559C223.85 277.639 223.888 277.742 223.888 277.848C223.888 277.955 223.85 278.057 223.781 278.138C223.712 278.219 223.616 278.272 223.511 278.288H220.925C220.816 278.289 220.712 278.249 220.631 278.176C220.551 278.103 220.501 278.003 220.49 277.895Z" fill="black"/>
<path d="M225.013 276.954C225.083 276.871 225.182 276.819 225.29 276.807C225.398 276.796 225.506 276.826 225.592 276.891C226.013 277.258 226.545 277.473 227.102 277.502C227.469 277.519 227.832 277.418 228.137 277.212C228.236 277.152 228.318 277.069 228.378 276.97C228.437 276.871 228.472 276.759 228.478 276.643C228.477 276.552 228.452 276.463 228.406 276.385C228.34 276.293 228.26 276.212 228.168 276.147C227.829 275.964 227.462 275.838 227.082 275.774C226.726 275.719 226.378 275.618 226.047 275.474C225.748 275.341 225.493 275.126 225.313 274.853C225.197 274.656 225.136 274.431 225.137 274.202C225.144 273.973 225.205 273.749 225.315 273.547C225.425 273.346 225.58 273.173 225.768 273.043C226.168 272.765 226.646 272.62 227.134 272.629C227.76 272.66 228.362 272.88 228.861 273.26C228.95 273.319 229.012 273.411 229.034 273.516C229.055 273.621 229.034 273.73 228.975 273.819C228.948 273.865 228.911 273.905 228.868 273.936C228.824 273.968 228.775 273.99 228.722 274.002C228.67 274.013 228.616 274.014 228.563 274.004C228.511 273.994 228.461 273.973 228.416 273.943C228.05 273.648 227.603 273.471 227.134 273.436C226.819 273.427 226.51 273.522 226.254 273.705C226.166 273.757 226.092 273.829 226.038 273.915C225.984 274.002 225.952 274.1 225.944 274.202C225.941 274.279 225.962 274.355 226.006 274.419C226.058 274.503 226.129 274.573 226.213 274.626C226.531 274.81 226.883 274.929 227.247 274.978C227.621 275.046 227.985 275.157 228.334 275.309C228.656 275.45 228.933 275.679 229.13 275.971C229.256 276.172 229.321 276.406 229.316 276.643C229.31 276.887 229.245 277.126 229.128 277.34C229.011 277.554 228.845 277.737 228.644 277.874C228.212 278.17 227.699 278.326 227.175 278.319C226.416 278.298 225.687 278.021 225.106 277.533C225.019 277.467 224.96 277.37 224.943 277.262C224.926 277.154 224.951 277.043 225.013 276.954Z" fill="black"/>
<path d="M230.206 276.954C230.276 276.871 230.375 276.819 230.483 276.807C230.591 276.796 230.699 276.826 230.785 276.891C231.211 277.256 231.746 277.471 232.306 277.502C232.656 277.51 232.999 277.409 233.289 277.212C233.387 277.152 233.47 277.069 233.53 276.97C233.589 276.871 233.624 276.759 233.63 276.643C233.633 276.552 233.608 276.461 233.558 276.385C233.499 276.29 233.422 276.209 233.33 276.147C232.991 275.964 232.624 275.838 232.244 275.774C231.888 275.719 231.54 275.618 231.209 275.474C230.91 275.341 230.655 275.126 230.475 274.853C230.356 274.657 230.292 274.432 230.289 274.202C230.296 273.971 230.357 273.746 230.469 273.545C230.581 273.343 230.739 273.171 230.93 273.043C231.33 272.765 231.808 272.62 232.296 272.629C232.922 272.66 233.524 272.88 234.023 273.26C234.099 273.326 234.148 273.418 234.161 273.517C234.174 273.617 234.151 273.718 234.095 273.801C234.04 273.885 233.955 273.945 233.858 273.971C233.761 273.997 233.658 273.987 233.568 273.943C233.206 273.648 232.762 273.471 232.296 273.436C231.978 273.429 231.666 273.523 231.406 273.705C231.32 273.758 231.249 273.831 231.196 273.917C231.144 274.004 231.113 274.101 231.106 274.202C231.103 274.279 231.125 274.355 231.168 274.419C231.217 274.505 231.289 274.576 231.375 274.626C231.693 274.81 232.045 274.929 232.409 274.978C232.783 275.046 233.147 275.157 233.496 275.309C233.818 275.45 234.095 275.679 234.292 275.971C234.414 276.174 234.479 276.406 234.478 276.643C234.471 276.888 234.406 277.128 234.287 277.342C234.168 277.556 234 277.739 233.796 277.874C233.368 278.171 232.858 278.327 232.337 278.319C231.578 278.298 230.849 278.021 230.268 277.533C230.185 277.463 230.133 277.363 230.122 277.256C230.11 277.148 230.14 277.04 230.206 276.954Z" fill="black"/>
<path d="M236.082 277.202C236.239 277.205 236.389 277.269 236.5 277.381C236.61 277.493 236.672 277.645 236.672 277.802C236.669 277.956 236.606 278.104 236.495 278.212C236.385 278.321 236.237 278.381 236.082 278.381C236.005 278.383 235.929 278.369 235.857 278.34C235.786 278.312 235.721 278.269 235.666 278.215C235.611 278.161 235.567 278.097 235.537 278.026C235.508 277.955 235.492 277.879 235.492 277.802C235.491 277.724 235.505 277.646 235.534 277.573C235.563 277.5 235.606 277.434 235.661 277.378C235.716 277.322 235.782 277.278 235.854 277.248C235.926 277.217 236.004 277.202 236.082 277.202Z" fill="black"/>
<path d="M237.902 277.202C238.06 277.205 238.21 277.269 238.32 277.381C238.43 277.493 238.492 277.645 238.492 277.802C238.489 277.956 238.426 278.104 238.316 278.212C238.205 278.321 238.057 278.381 237.902 278.381C237.825 278.383 237.749 278.369 237.677 278.34C237.606 278.312 237.541 278.269 237.486 278.215C237.431 278.161 237.387 278.097 237.358 278.026C237.328 277.955 237.313 277.879 237.313 277.802C237.311 277.724 237.325 277.646 237.354 277.573C237.383 277.5 237.427 277.434 237.482 277.378C237.536 277.322 237.602 277.278 237.674 277.248C237.746 277.217 237.824 277.202 237.902 277.202Z" fill="black"/>
<path d="M239.725 277.202C239.882 277.205 240.032 277.269 240.142 277.381C240.252 277.493 240.314 277.645 240.314 277.802C240.312 277.956 240.248 278.104 240.138 278.212C240.028 278.321 239.879 278.381 239.725 278.381C239.648 278.383 239.571 278.369 239.5 278.34C239.428 278.312 239.363 278.269 239.308 278.215C239.253 278.161 239.21 278.097 239.18 278.026C239.15 277.955 239.135 277.879 239.135 277.802C239.133 277.724 239.148 277.646 239.177 277.573C239.206 277.5 239.249 277.434 239.304 277.378C239.359 277.322 239.424 277.278 239.496 277.248C239.569 277.217 239.646 277.202 239.725 277.202Z" fill="black"/>
<path d="M63.2496 128.288C66.4774 152.145 76.9678 176.654 80.9197 180.347C85.2235 184.382 106.649 186.503 117.522 187.04C121.081 187.227 123.864 162.801 120.998 160.287C118.133 157.773 99.6762 160.556 96.5001 158.218C95.4656 157.473 80.6611 137.837 72.9123 126.147C65.6808 115.222 62.2667 121.036 63.2496 128.288Z" fill="#F7A9A0"/>
<path d="M114.48 190.486L117.956 158.228C117.956 158.228 100.203 159.045 97.9788 157.463C95.7545 155.88 78.8602 132.395 72.508 124.357C66.1559 116.318 58.6657 116.598 63.197 135.416C68.0388 155.745 74.9806 176.105 79.2533 180.357C84.7985 185.923 114.48 190.486 114.48 190.486Z" fill="#16A34A"/>
<path d="M107.746 186.989C107.767 185.829 107.86 184.671 108.025 183.523C108.108 182.488 108.181 181.454 108.274 180.419C108.491 178.164 108.698 175.919 108.925 173.674C109.153 171.429 109.36 169.184 109.608 166.939C109.857 164.694 110.032 162.47 110.395 160.256C110.4 160.24 110.411 160.226 110.425 160.217C110.439 160.207 110.455 160.202 110.472 160.202C110.489 160.202 110.506 160.207 110.519 160.217C110.533 160.226 110.544 160.24 110.55 160.256C110.612 162.501 110.457 164.756 110.332 167.001C110.208 169.246 110.012 171.419 109.795 173.612C109.577 175.805 109.288 178.092 108.988 180.326C108.843 181.361 108.656 182.478 108.481 183.544C108.353 184.701 108.145 185.849 107.86 186.978C107.856 186.99 107.849 187 107.84 187.008C107.83 187.015 107.819 187.02 107.806 187.021C107.794 187.022 107.782 187.02 107.771 187.014C107.761 187.008 107.752 186.999 107.746 186.989Z" fill="#263238"/>
<path opacity="0.1" d="M99.9342 187.734C91.5543 185.871 82.1088 183.244 79.181 180.326C74.9083 176.074 67.9251 155.714 63.1247 135.406C60.2797 123.446 62.266 118.967 65.7215 119.35L99.9342 187.734Z" fill="black"/>
<path d="M122.178 117.653C125.588 114.325 129.859 112.015 134.511 110.983C139.162 109.95 144.01 110.236 148.508 111.808L133.507 126.457L138.576 137.444L149.439 142.782L164.46 128.164C165.859 132.507 166.073 137.146 165.078 141.599C164.084 146.053 161.918 150.16 158.804 153.496C155.691 156.832 151.742 159.275 147.368 160.574C142.993 161.873 138.351 161.979 133.922 160.882C129.492 159.785 125.436 157.525 122.173 154.335C118.91 151.146 116.558 147.142 115.36 142.739C114.163 138.335 114.164 133.692 115.362 129.289C116.561 124.886 118.914 120.883 122.178 117.694V117.653Z" fill="#DBDBDB"/>
<path d="M52.6251 257.163C49.2178 260.491 44.9485 262.802 40.2984 263.835C35.6483 264.868 30.8021 264.581 26.3061 263.008L41.3071 248.359L36.2378 237.372L25.3646 232.033L10.3533 246.693C8.9526 242.349 8.73796 237.71 9.73154 233.255C10.7251 228.801 12.8908 224.692 16.0047 221.356C19.1185 218.019 23.0673 215.574 27.4426 214.275C31.8179 212.977 36.4608 212.87 40.891 213.967C45.3212 215.065 49.3778 217.326 52.6411 220.517C55.9044 223.707 58.256 227.712 59.4524 232.117C60.6489 236.521 60.6469 241.165 59.4466 245.568C58.2463 249.972 55.8912 253.975 52.6251 257.163Z" fill="#DBDBDB"/>
<path d="M36.9601 220.715L52.9023 237.046L142.049 150.021L126.107 133.69L36.9601 220.715Z" fill="#DBDBDB"/>
<path d="M67.8717 199.923L74.4336 206.644L111.145 170.807L104.583 164.085L67.8717 199.923Z" fill="#C7C7C7"/>
<path d="M102.468 179.416C102.137 176.012 106.338 177.574 106.338 177.574C106.338 177.574 100.823 173.871 101.837 170.229C102.851 166.587 107.838 168.781 108.2 168.925C107.91 168.729 102.934 165.191 104.331 161.684C105.727 158.176 110.455 160.918 110.755 161.104C110.548 160.835 107.765 157.173 109.441 154.721C112.317 150.49 121.142 160.277 125.27 160.546L130.36 154.752C129.864 156.673 129.939 158.698 130.577 160.577C131.405 163.308 131.974 165.139 131.664 166.898C131.548 167.696 131.179 168.435 130.611 169.007C130.043 169.579 129.305 169.953 128.508 170.074C128.508 170.074 131.126 172.577 130.122 175.412C129.594 176.86 126.801 177.326 126.801 177.326C127.365 177.923 127.753 178.663 127.923 179.467C128.093 180.27 128.037 181.104 127.763 181.878C126.925 183.854 124.256 183.999 124.256 183.999C124.256 183.999 125.291 186.916 123.749 188.644C120.687 192.11 103.182 186.709 102.468 179.416Z" fill="#F7A9A0"/>
<path d="M126.646 159.356L130.267 154.835C130.443 154.7 130.619 154.555 130.785 154.442C136.806 150.117 145.951 152.642 142.713 156.852C140.251 160.059 133.402 159.49 131.333 163.142L126.646 159.356Z" fill="#F7A9A0"/>
<path d="M126.896 177.347C126.968 177.347 126.896 177.471 126.896 177.471C119.79 177.002 113.086 174.008 107.994 169.029C107.829 168.853 107.849 168.512 108.067 168.708C111.636 171.926 121.092 176.085 126.896 177.347Z" fill="#263238"/>
<path d="M110.539 160.587C115.557 165.398 121.62 168.129 128.241 170.032C128.334 170.032 128.241 170.177 128.241 170.177C124.744 170.126 120.647 168.47 117.564 166.918C114.675 165.509 112.203 163.369 110.395 160.711C110.343 160.649 110.426 160.483 110.539 160.587Z" fill="#263238"/>
<path d="M135.172 441.137C132.782 441.882 65.1426 440.434 62.5976 438.747C61.6355 438.116 61.2734 428.247 61.1699 416.318C61.1699 413.742 61.1699 411.084 61.1699 408.373C61.1699 405.176 61.1699 401.938 61.232 398.793C61.4182 384.661 61.8424 369.122 61.8424 369.122L105.873 369.939L105.366 399.61L105.18 409.19L104.797 417.125C104.797 417.125 130.444 429.271 133.04 431.413C135.637 433.554 137.551 440.403 135.172 441.137Z" fill="#F7A9A0"/>
<path d="M135.172 441.137C132.782 441.882 65.1426 440.434 62.5976 438.747C61.6355 438.116 61.2734 428.247 61.1699 416.318C61.1699 413.742 61.1699 411.084 61.1699 408.373C61.1699 405.176 61.1699 401.938 61.232 398.793L105.366 399.61L105.18 409.19L104.797 417.125C104.797 417.125 130.444 429.271 133.04 431.412C135.637 433.554 137.551 440.403 135.172 441.137Z" fill="white"/>
<path d="M135.378 441.241C133.826 441.717 105.014 441.292 84.0433 440.465C79.1912 440.268 74.7323 440.061 71.1734 439.834C66.2489 439.513 62.897 439.182 62.4107 438.799C61.2313 438.013 60.9313 423.54 60.9417 408.27L105.2 409.087L104.817 417.063C104.817 417.063 130.609 429.271 133.216 431.433C135.823 433.595 137.768 440.486 135.378 441.241Z" fill="#16A34A"/>
<path d="M134.458 438.53C123.078 438.003 77.0508 436.968 65.7534 437.32C65.6603 437.32 65.6603 437.382 65.7534 437.392C77.0301 438.158 123.047 438.82 134.458 438.716C134.696 438.685 134.706 438.53 134.458 438.53Z" fill="#263238"/>
<path d="M106.484 414.591C102.015 413.66 96.5111 414.229 93.035 417.353C92.9005 417.477 93.0349 417.663 93.2212 417.622C97.5397 416.337 101.982 415.511 106.474 415.16C106.54 415.148 106.601 415.114 106.645 415.063C106.688 415.012 106.713 414.947 106.714 414.879C106.716 414.812 106.693 414.746 106.651 414.694C106.609 414.641 106.55 414.604 106.484 414.591Z" fill="#263238"/>
<path d="M109.679 416.618C105.21 415.687 99.7064 416.256 96.2303 419.381C96.0958 419.494 96.2303 419.691 96.4165 419.65C100.733 418.355 105.176 417.529 109.669 417.187C109.736 417.176 109.796 417.142 109.84 417.091C109.884 417.039 109.908 416.975 109.91 416.907C109.911 416.84 109.889 416.774 109.847 416.721C109.805 416.669 109.745 416.632 109.679 416.618Z" fill="#263238"/>
<path d="M112.877 418.636C108.407 417.705 102.904 418.274 99.4275 421.398C99.293 421.522 99.4275 421.708 99.6138 421.667C103.93 420.372 108.373 419.546 112.866 419.205C112.933 419.193 112.993 419.159 113.037 419.108C113.081 419.057 113.106 418.992 113.107 418.925C113.108 418.857 113.086 418.791 113.044 418.739C113.002 418.686 112.943 418.65 112.877 418.636Z" fill="#263238"/>
<path d="M116.074 420.653C111.605 419.722 106.101 420.291 102.625 423.415C102.49 423.539 102.625 423.726 102.811 423.684C107.13 422.399 111.572 421.574 116.064 421.222C116.13 421.211 116.19 421.176 116.234 421.125C116.278 421.074 116.303 421.009 116.304 420.942C116.305 420.874 116.283 420.809 116.241 420.756C116.199 420.703 116.14 420.667 116.074 420.653Z" fill="#263238"/>
<path d="M114.999 404.39C113.281 401.917 109.981 402.942 108.067 404.473C104.847 407.168 102.389 410.66 100.939 414.601C100.933 414.619 100.93 414.638 100.932 414.656C100.934 414.675 100.941 414.693 100.951 414.709C100.96 414.725 100.974 414.738 100.99 414.748C101.006 414.758 101.024 414.764 101.042 414.766C101.042 415.108 101.342 415.48 101.736 415.346C105.47 414.053 109.619 413.132 112.847 410.732C114.73 409.345 116.612 406.728 114.999 404.39ZM106.991 412.232C105.17 412.904 103.329 413.494 101.539 414.239C102.936 412.273 104.239 410.245 105.832 408.414C106.584 407.521 107.396 406.681 108.264 405.9C109.619 404.711 114.968 402.238 114.067 407.152C113.571 409.863 109.164 411.425 106.991 412.242V412.232Z" fill="#263238"/>
<path d="M89.559 413.204C93.2317 414.86 97.4837 414.87 101.405 415.336C101.492 415.337 101.579 415.319 101.658 415.281C101.737 415.243 101.806 415.187 101.859 415.117C101.913 415.048 101.949 414.967 101.965 414.881C101.982 414.795 101.977 414.706 101.953 414.622C101.972 414.617 101.989 414.607 102.004 414.594C102.018 414.581 102.029 414.565 102.036 414.547C102.043 414.529 102.046 414.509 102.044 414.49C102.042 414.471 102.036 414.452 102.025 414.435C99.7645 410.895 96.6147 408.009 92.8903 406.066C90.7074 404.98 87.252 404.68 86.114 407.463C85.0277 410.08 87.4278 412.232 89.559 413.204ZM87.583 409.956C85.6587 405.352 91.4109 406.635 92.9937 407.504C94.0076 408.079 94.9791 408.725 95.9008 409.439C97.7931 410.937 99.6093 412.528 101.343 414.208C99.4287 413.866 97.5044 413.691 95.5801 413.411C93.3041 413.08 88.6693 412.491 87.583 409.956Z" fill="#263238"/>
<path opacity="0.1" d="M100.763 440.992C95.0624 440.848 89.3103 440.661 84.0444 440.465C79.1923 440.279 74.7334 440.061 71.1745 439.834C66.25 439.513 62.8981 439.182 62.4118 438.799C61.3773 438.106 61.0152 426.922 60.9531 413.897C71.0297 420.643 90.6862 434.123 100.763 440.992Z" fill="black"/>
<path d="M106.039 412.439L58.8841 412.49C58.8841 412.49 61.6464 300.407 61.098 297.769C59.8049 291.479 31.2305 191.748 31.2305 191.748L70.9056 192.43L78.1475 192.668C78.1475 192.668 103.318 276.54 105.967 291.862C110.56 318.398 106.039 412.439 106.039 412.439Z" fill="#BC4343"/>
<path d="M103.369 404.038C95.5374 403.842 71.9082 403.004 61.4488 403.79C61.3764 403.79 61.3764 403.935 61.4488 403.945C65.0284 404.524 95.5271 404.359 103.369 404.255C103.386 404.261 103.404 404.262 103.422 404.259C103.439 404.256 103.456 404.249 103.47 404.238C103.485 404.228 103.496 404.214 103.504 404.198C103.513 404.182 103.517 404.165 103.517 404.147C103.517 404.129 103.513 404.111 103.504 404.095C103.496 404.079 103.485 404.066 103.47 404.055C103.456 404.045 103.439 404.037 103.422 404.035C103.404 404.032 103.386 404.033 103.369 404.038Z" fill="#37474F"/>
<path d="M65.0399 295.265C63.5398 289.151 52.3459 251.059 48.9216 239.027C45.4972 226.995 42.2901 214.911 39.3416 202.766C38.9588 201.224 38.5864 199.662 38.1726 198.152C38.1726 198.027 37.9553 198.079 37.976 198.214C39.1037 204.328 40.6038 210.39 42.0418 216.442C43.4798 222.495 45.011 228.526 46.6249 234.537C49.8665 246.62 53.4046 258.614 57.2394 270.519C59.1533 276.457 62.319 288.634 63.995 294.634C65.671 300.634 62.9605 398.09 63.1053 399.714C63.1197 399.798 63.1634 399.874 63.2288 399.93C63.2941 399.985 63.3768 400.015 63.4622 400.015C63.5477 400.015 63.6304 399.985 63.6957 399.93C63.761 399.874 63.8048 399.798 63.8192 399.714C64.0364 388.096 66.5297 301.307 65.0399 295.265Z" fill="#37474F"/>
<path d="M70.9146 192.42C70.9146 192.42 61.2105 298.276 61.107 297.758C59.8552 291.675 32.9878 197.893 31.3015 192.027C31.2394 191.841 31.2188 191.748 31.2188 191.748L70.9146 192.42Z" fill="#37474F"/>
<path d="M83.0602 443.827C80.6704 444.572 13.0313 443.124 10.4863 441.437C9.52414 440.806 9.16205 430.937 9.05859 419.008C9.05859 416.432 9.05859 413.784 9.05859 411.073C9.05859 407.866 9.05859 404.628 9.13101 401.483C9.30689 387.361 9.73106 374.915 9.73106 374.915L53.772 375.733L53.2341 402.321L53.0478 411.901L52.6754 419.836C52.6754 419.836 78.322 431.981 80.9084 434.133C83.4948 436.285 85.4294 443.093 83.0602 443.827Z" fill="#F7A9A0"/>
<path d="M83.0602 443.827C80.6704 444.572 13.0313 443.124 10.4863 441.437C9.52414 440.806 9.16205 430.937 9.05859 419.008C9.05859 416.432 9.05859 413.784 9.05859 411.073C9.05859 407.866 9.05859 404.628 9.13101 401.483L53.2341 402.321L53.0478 411.901L52.6754 419.836C52.6754 419.836 78.322 431.981 80.9084 434.133C83.4948 436.285 85.4294 443.093 83.0602 443.827Z" fill="white"/>
<path d="M83.2567 443.931C81.7049 444.417 52.8926 443.931 31.9222 443.165C27.0701 442.968 22.6112 442.751 19.0627 442.524C14.1278 442.213 10.7862 441.882 10.2896 441.489C9.11025 440.703 8.81022 426.219 8.82057 410.949L53.0788 411.766L52.696 419.743C52.696 419.743 78.4874 431.95 81.1049 434.113C83.7223 436.275 85.6466 443.186 83.2567 443.931Z" fill="#16A34A"/>
<path d="M82.3474 441.189C70.9673 440.672 24.94 439.627 13.6323 439.979C13.5392 439.979 13.5392 440.041 13.6323 440.051C24.909 440.817 70.9363 441.479 82.3371 441.375C82.575 441.375 82.5854 441.199 82.3474 441.189Z" fill="#263238"/>
<path d="M54.362 417.291C49.8927 416.36 44.3992 416.929 40.9128 420.053C40.7679 420.167 40.9128 420.363 41.0886 420.322C45.4008 419.022 49.8405 418.189 54.3309 417.839C54.3894 417.823 54.4415 417.789 54.4796 417.742C54.5178 417.695 54.5401 417.637 54.5436 417.576C54.547 417.516 54.5313 417.455 54.4987 417.404C54.4661 417.353 54.4183 417.313 54.362 417.291Z" fill="#263238"/>
<path d="M57.5807 419.308C53.1114 418.377 47.618 418.946 44.1315 422.07C43.9867 422.195 44.1315 422.381 44.3074 422.339C48.6316 421.054 53.0817 420.239 57.5807 419.908C57.6603 419.908 57.7366 419.877 57.7929 419.82C57.8491 419.764 57.8807 419.688 57.8807 419.608C57.8807 419.529 57.8491 419.452 57.7929 419.396C57.7366 419.34 57.6603 419.308 57.5807 419.308Z" fill="#263238"/>
<path d="M60.7565 421.326C56.2872 420.394 50.7937 420.963 47.3073 424.088C47.1624 424.212 47.3073 424.398 47.4832 424.357C51.7852 423.076 56.2097 422.251 60.6841 421.895C60.7538 421.894 60.8209 421.867 60.8729 421.821C60.9249 421.774 60.9584 421.711 60.9672 421.642C60.976 421.572 60.9596 421.502 60.9209 421.444C60.8821 421.386 60.8238 421.344 60.7565 421.326Z" fill="#263238"/>
<path d="M63.9538 423.353C59.4845 422.422 53.991 422.991 50.5046 426.116C50.3597 426.229 50.5045 426.426 50.6804 426.385C54.9968 425.09 59.4399 424.265 63.9331 423.922C63.9999 423.912 64.061 423.879 64.106 423.829C64.151 423.778 64.177 423.714 64.1794 423.646C64.1819 423.579 64.1607 423.513 64.1195 423.459C64.0782 423.406 64.0196 423.368 63.9538 423.353Z" fill="#263238"/>
<path d="M62.876 407.09C61.1586 404.628 57.8584 405.642 55.9548 407.183C52.7266 409.873 50.2645 413.367 48.8164 417.311C48.8164 417.405 48.8164 417.456 48.9199 417.477C48.9199 417.818 49.2302 418.181 49.613 418.046C53.3478 416.753 57.4963 415.832 60.7241 413.432C62.607 412.035 64.4899 409.418 62.876 407.09ZM54.8789 414.932C53.0581 415.615 51.2062 416.194 49.4164 416.949C50.7484 414.937 52.1814 412.993 53.7099 411.125C54.4613 410.229 55.2737 409.385 56.1411 408.601C57.5067 407.421 62.845 404.949 61.9449 409.852C61.4483 412.553 57.0411 414.125 54.8789 414.932Z" fill="#263238"/>
<path d="M37.4471 415.894C41.1094 417.549 45.3614 417.56 49.2824 418.025C49.6859 418.077 49.9031 417.653 49.841 417.311C49.8587 417.307 49.8749 417.298 49.8882 417.285C49.9016 417.273 49.9118 417.257 49.9179 417.24C49.924 417.222 49.9258 417.204 49.9232 417.186C49.9207 417.168 49.9138 417.151 49.9031 417.136C47.6455 413.59 44.4951 410.7 40.768 408.756C38.5851 407.669 35.1297 407.38 33.9917 410.152C32.8537 412.925 35.3055 414.932 37.4471 415.894ZM35.4814 412.666C33.5572 408.063 39.3093 409.335 40.8921 410.204C41.903 410.784 42.8742 411.43 43.7992 412.139C45.6963 413.635 47.5128 415.23 49.241 416.918C47.3271 416.567 45.4028 416.391 43.4785 416.111C41.1818 415.77 36.547 415.191 35.4814 412.666Z" fill="#263238"/>
<path d="M54.6004 416.525L6.88672 415.625C6.88672 415.625 20.5739 241.82 18.8669 232.509C16.0839 217.26 18.4634 199.848 25.7984 191.582L73.3154 192.462C73.3154 192.462 74.0086 212.573 68.96 220.446C68.96 220.446 64.4493 223.188 62.2561 224.388L54.6004 416.525Z" fill="#BC4343"/>
<path d="M53.2554 407.866C45.8583 407.535 49.0241 407.525 41.627 407.276C38.0061 407.163 14.2217 406.387 10.818 406.862C10.7456 406.862 10.7456 406.997 10.818 407.018C14.1906 407.659 37.9854 408.052 41.6063 408.052C49.0034 408.166 45.848 408.052 53.2451 408.052C53.2606 408.043 53.2736 408.029 53.283 408.014C53.2923 407.998 53.2977 407.98 53.2987 407.962C53.2997 407.944 53.2963 407.925 53.2888 407.909C53.2812 407.892 53.2698 407.877 53.2554 407.866Z" fill="#37474F"/>
<path d="M26.5439 232.033C26.2749 228.536 25.768 225.06 25.4473 221.564C24.8631 214.557 25.4221 207.503 27.1026 200.676C27.1042 200.652 27.0974 200.628 27.0834 200.608C27.0694 200.589 27.049 200.575 27.0257 200.569C27.0024 200.563 26.9777 200.565 26.9558 200.575C26.934 200.585 26.9164 200.602 26.906 200.624C25.6335 206.676 24.5058 212.728 24.7024 218.946C24.899 225.164 25.8611 231.206 25.8507 237.382C25.8404 243.558 25.23 249.869 24.7127 256.097C24.1955 262.325 23.6782 268.625 23.1506 274.895C21.0814 300.076 19.1054 325.257 17.0984 350.417C16.5398 357.452 16.0639 364.477 15.4742 371.512C14.8845 378.547 14.0982 394.272 13.7051 401.41C13.7051 402.031 14.5948 402 14.6569 401.41C15.9604 388.779 17.0157 367.663 18.0502 355.011C19.0848 342.358 20.0469 329.954 21.0504 317.425C22.0539 304.897 23.0264 292.368 24.0092 279.84C24.492 273.571 24.9714 267.305 25.4473 261.042C25.9232 254.835 26.4818 248.565 26.7094 242.306C26.8446 238.882 26.7893 235.452 26.5439 232.033Z" fill="#37474F"/>
<path d="M54.4772 207.825C54.4772 207.732 54.3737 207.587 54.2909 207.669C51.8692 211.64 48.5128 214.957 44.5144 217.332C39.8072 220.208 33.3516 221.698 29.7513 222.143C29.5134 222.143 29.5961 222.37 29.8134 222.381C33.6102 222.619 38.8864 221.646 44.6592 218.532C52.9771 214.032 54.3427 208.725 54.4772 207.825Z" fill="#37474F"/>
<path d="M70.3887 219.857C66.0083 221.448 61.7748 223.417 57.7361 225.743C57.5809 225.836 57.6843 226.085 57.8602 226.002C62.1122 224.181 66.4574 222.422 70.6163 220.363C70.676 220.329 70.7209 220.273 70.7421 220.207C70.7633 220.142 70.7593 220.07 70.731 220.007C70.7027 219.944 70.6521 219.894 70.5888 219.866C70.5256 219.838 70.4543 219.835 70.3887 219.857Z" fill="#37474F"/>
<path d="M71.8672 192.834C71.8672 192.699 71.5983 192.668 71.5983 192.834C71.5758 197.217 71.3168 201.597 70.8224 205.952C70.6051 208.021 68.7532 219.153 64.9875 218.367C64.3564 218.232 64.0357 217.663 63.9529 216.774C63.9756 215.614 64.1531 214.462 64.4805 213.349C64.915 211.001 65.2668 208.652 65.5151 206.294C65.9756 201.9 65.9444 197.469 65.422 193.082C65.422 193.049 65.4089 193.018 65.3856 192.994C65.3623 192.971 65.3308 192.958 65.2978 192.958C65.2649 192.958 65.2333 192.971 65.21 192.994C65.1868 193.018 65.1737 193.049 65.1737 193.082C65.2566 199.189 64.8414 205.292 63.9322 211.332C63.4356 214.239 61.8631 218.574 65.122 219.05C68.3808 219.525 70.6879 212.159 71.112 210.152C72.1711 204.443 72.4253 198.614 71.8672 192.834Z" fill="#37474F"/>
<path d="M65.091 218.605C64.7463 219.422 64.4594 220.262 64.2324 221.119C63.9825 221.779 63.863 222.482 63.8806 223.188C63.8806 223.322 64.0668 223.333 64.1392 223.25C64.5359 222.608 64.8357 221.91 65.029 221.181C65.3186 220.405 65.6187 219.639 65.8876 218.853C65.8996 218.755 65.8766 218.655 65.8228 218.572C65.7689 218.488 65.6875 218.427 65.5928 218.397C65.4981 218.367 65.396 218.372 65.3043 218.41C65.2126 218.448 65.1372 218.517 65.091 218.605Z" fill="#37474F"/>
<path d="M16.674 206.014C16.8292 206.2 82.9786 207.732 83.6407 207.049C84.5718 206.066 78.5404 136.451 67.6362 120.881C64.9153 116.991 54.9836 114.177 50.7522 118.005C38.5135 129.054 35.8547 138.51 32.5337 146.217C30.1129 151.917 27.123 161.673 24.4021 171.688C19.9018 188.168 16.1154 205.331 16.674 206.014Z" fill="#16A34A"/>
<path d="M41.0271 127.254C27.3503 143.806 11.7389 173.912 13.7666 180.14C19.2601 197.076 24.7122 211.715 30.2057 220.87C32.7507 225.102 56.142 211.963 53.7832 207.825C48.9415 199.445 39.6098 179.281 38.1614 176.426C37.3234 174.781 45.155 147.655 49.8829 132.675C55.0246 116.401 47.6276 119.246 41.0271 127.254Z" fill="#F7A9A0"/>
<path d="M22.208 215.067L51.0203 200.986C51.0203 200.986 39.6402 175.712 39.6402 172.981C39.6402 170.25 48.9512 139.617 51.7859 129.737C54.6206 119.857 50.4927 113.68 38.1919 128.567C25.891 143.455 13.2694 167.881 12.0487 173.757C10.8279 179.633 22.208 215.067 22.208 215.067Z" fill="#16A34A"/>
<path d="M47.2348 145.255C47.9797 143.248 48.8177 141.282 49.6246 139.285C49.6867 139.151 49.935 139.285 49.8833 139.389C48.9315 142.048 48.0314 144.738 47.1417 147.417C47.8142 146.196 48.497 144.976 49.2108 143.775C49.2232 143.753 49.2437 143.737 49.268 143.731C49.2922 143.724 49.3182 143.727 49.3401 143.739C49.3621 143.752 49.3782 143.772 49.385 143.796C49.3918 143.821 49.3887 143.847 49.3763 143.869C48.5694 145.348 47.721 146.807 46.8624 148.255C46.6451 148.907 40.355 171.326 40.2929 172.184C40.2565 173.158 40.4039 174.131 40.7275 175.05C41.2447 176.736 41.8344 178.412 42.4345 180.078C43.6346 183.42 44.9381 186.73 46.3141 190.01C47.8762 193.734 49.6557 197.427 51.4248 201.059C51.4248 201.059 50.3902 201.348 50.3178 201.369C50.2454 201.39 50.235 201.369 50.2557 201.307C50.2764 201.245 50.9385 200.955 50.9592 200.955C49.1487 197.8 47.4314 194.748 45.9209 191.406C44.4105 188.065 43.0759 184.796 41.8655 181.413C41.2447 179.664 40.6447 177.916 40.086 176.147C39.4678 174.496 39.3 172.711 39.5998 170.974C39.9929 169.194 46.4175 147.324 47.2348 145.255Z" fill="#263238"/>
<path d="M21.7436 206.894C22.747 206.338 23.7835 205.844 24.8472 205.414C25.7783 204.969 26.7094 204.524 27.6612 204.1C29.7303 203.169 31.7994 202.228 33.8685 201.307C35.9376 200.386 38.0068 199.465 40.0759 198.565C42.145 197.665 44.2141 196.714 46.2832 195.938C46.3556 195.938 46.4177 196.031 46.3453 196.072C44.4313 197.241 42.3829 198.224 40.3759 199.228C38.3689 200.231 36.3929 201.141 34.3755 202.042C32.3581 202.942 30.2373 203.831 28.1681 204.68C27.1336 205.083 26.099 205.456 25.0645 205.828C23.996 206.293 22.8967 206.683 21.7746 206.997C21.7609 207.001 21.7461 207 21.7335 206.993C21.7209 206.986 21.7115 206.975 21.7074 206.961C21.7032 206.947 21.7047 206.932 21.7115 206.92C21.7183 206.907 21.7298 206.898 21.7436 206.894Z" fill="#263238"/>
<path d="M63.1042 127.957C60.1764 128.474 53.338 123.819 50.3482 119.463C50.1412 119.163 50.2757 115.801 50.2447 111.704C50.2447 109.221 50.1205 106.459 49.8516 103.935L66.0527 106.107C65.4852 109.351 65.3149 112.651 65.5457 115.936C65.5936 116.285 65.6662 116.631 65.763 116.97C65.763 116.97 65.763 117.074 65.763 117.136C66.332 119.06 67.6769 127.129 63.1042 127.957Z" fill="#F7A9A0"/>
<path d="M65.7629 116.96C65.7598 117.015 65.7598 117.07 65.7629 117.125C65.2291 117.254 64.686 117.34 64.1387 117.384C54.9622 118.15 51.4964 107.121 50.6895 104.069L65.9802 106.138C65.4126 109.382 65.2424 112.682 65.4732 115.967C65.5467 116.304 65.6435 116.636 65.7629 116.96Z" fill="#263238"/>
<path d="M47.3165 82.6436C45.506 88.2406 48.2269 104.555 52.1685 108.249C57.8999 113.597 67.3972 114.249 71.9699 107.338C76.4081 100.645 72.4872 79.4055 68.0696 76.0742C61.5519 71.098 49.9856 74.3672 47.3165 82.6436Z" fill="#F7A9A0"/>
<path d="M63.6002 92.8236C63.6002 92.8236 63.5278 92.8857 63.5381 92.9374C63.7657 93.972 63.8588 95.3065 62.9277 95.8549C62.9277 95.8549 62.9277 95.9273 62.9277 95.9169C64.1278 95.5238 64.0037 93.8168 63.6002 92.8236Z" fill="#263238"/>
<path d="M62.4109 91.8615C60.6315 92.0477 61.1384 95.6066 62.7937 95.4307C64.449 95.2548 63.911 91.696 62.4109 91.8615Z" fill="#263238"/>
<path d="M69.8595 91.8201C69.8595 91.8201 69.9526 91.8201 69.9526 91.9029C70.0767 93.0098 70.4078 94.2617 71.4527 94.4789V94.5513C70.2112 94.5513 69.7974 92.8857 69.8595 91.8201Z" fill="#263238"/>
<path d="M70.6773 90.5269C72.4257 90.1338 73.0775 93.6306 71.4532 94.034C69.829 94.4375 69.2083 90.8476 70.6773 90.5269Z" fill="#263238"/>
<path d="M60.7768 90.4338C61.2229 90.229 61.658 90.0011 62.0804 89.751C62.5767 89.5739 63.0017 89.2398 63.2908 88.7992C63.3516 88.6415 63.3593 88.4682 63.3126 88.3058C63.2659 88.1433 63.1674 88.0005 63.0322 87.8992C62.7362 87.7424 62.4037 87.6674 62.0691 87.682C61.7345 87.6965 61.4098 87.8001 61.1286 87.9819C60.4994 88.261 59.995 88.7618 59.7112 89.3889C59.6563 89.5369 59.6454 89.6976 59.6798 89.8516C59.7143 90.0056 59.7925 90.1464 59.9052 90.2569C60.0179 90.3674 60.1602 90.4429 60.3149 90.4743C60.4695 90.5057 60.63 90.4916 60.7768 90.4338Z" fill="#263238"/>
<path d="M71.7112 88.9647C71.219 88.9346 70.7287 88.8794 70.2422 88.7992C69.7195 88.8089 69.2078 88.6493 68.7834 88.344C68.6696 88.2217 68.5988 88.0655 68.582 87.8993C68.5652 87.733 68.6032 87.5659 68.6903 87.4233C68.9097 87.1683 69.1931 86.9764 69.5114 86.8673C69.8296 86.7582 70.1711 86.7358 70.5008 86.8025C71.1894 86.8381 71.8411 87.1252 72.332 87.6095C72.4356 87.728 72.5028 87.874 72.5255 88.0298C72.5481 88.1856 72.5253 88.3446 72.4598 88.4878C72.3942 88.631 72.2887 88.7521 72.1559 88.8367C72.0231 88.9213 71.8687 88.9658 71.7112 88.9647Z" fill="#263238"/>
<path d="M64.3968 99.7758C64.7402 100.173 65.1619 100.494 65.6355 100.72C66.1091 100.946 66.6243 101.072 67.1487 101.09C67.6047 101.112 68.0613 101.066 68.504 100.955C68.5891 100.946 68.6726 100.925 68.7523 100.893L68.9902 100.821C69.0474 100.801 69.0964 100.763 69.13 100.712C69.1636 100.662 69.1799 100.602 69.1765 100.541C69.1765 100.541 69.1765 100.469 69.1765 100.428V100.324C69.073 99.4758 68.8144 98.193 68.8144 98.193C69.1454 98.3068 70.8214 98.793 70.7386 98.3481C70.0852 94.535 69.0452 90.7982 67.635 87.1957C67.6251 87.1717 67.6066 87.1524 67.5831 87.1415C67.5596 87.1305 67.5329 87.1288 67.5082 87.1366C67.4836 87.1444 67.4627 87.1612 67.4498 87.1836C67.4368 87.206 67.4328 87.2325 67.4384 87.2577C68.0074 90.7856 69.2075 94.1789 69.8386 97.7171C69.2416 97.535 68.6212 97.4409 67.9971 97.4378C67.8833 97.4895 68.5557 99.9 68.5661 100.283C67.881 100.453 67.1687 100.482 66.4719 100.37C65.7751 100.258 65.108 100.007 64.5106 99.631C64.3968 99.6103 64.3141 99.7034 64.3968 99.7758Z" fill="#263238"/>
<path d="M67.9255 100.603C67.5422 101.275 66.9939 101.838 66.3323 102.238C65.9665 102.44 65.5481 102.527 65.1322 102.486C64.2115 102.383 64.0977 101.576 64.0977 100.862C64.1358 100.481 64.2191 100.106 64.3459 99.7448C65.4149 100.41 66.6709 100.712 67.9255 100.603Z" fill="#263238"/>
<path d="M66.3538 102.238C65.988 102.44 65.5696 102.527 65.1537 102.486C64.2329 102.383 64.1191 101.576 64.1191 100.862C64.5933 100.798 65.0751 100.9 65.4825 101.151C65.8899 101.401 66.1978 101.786 66.3538 102.238Z" fill="#FF9BBC"/>
<path d="M71.4643 82.2815C71.2264 81.8263 69.8401 78.6088 69.1987 78.6399C68.3917 78.6399 67.9572 80.0365 66.4778 80.5642C64.4087 81.3194 60.5084 79.2606 57.6427 80.2745C54.777 81.2883 53.2458 84.1954 53.0699 89.4406C52.8941 94.6858 49.0973 99.1861 47.6799 95.8549C47.6799 95.7307 47.5454 95.5135 47.4213 95.2134C46.6143 90.2579 46.2109 84.4437 47.0695 81.7642C49.7283 73.4878 62.7016 71.2946 68.4124 75.5569C69.398 76.3728 70.1849 77.4022 70.7137 78.5673C71.2425 79.7324 71.4992 81.0025 71.4643 82.2815Z" fill="#263238"/>
<path d="M51.9421 96.4135C51.9421 96.4135 48.2384 91.1683 45.8589 92.4925C43.4794 93.8168 46.2727 101.431 49.0764 102.455C49.427 102.614 49.8062 102.7 50.191 102.708C50.5758 102.716 50.9582 102.646 51.3151 102.502C51.6719 102.358 51.9959 102.142 52.2672 101.87C52.5386 101.597 52.7518 101.272 52.8939 100.914L51.9421 96.4135Z" fill="#F7A9A0"/>
<path d="M46.717 94.6548C46.717 94.6548 46.655 94.7169 46.717 94.7272C48.6827 95.5135 49.7276 97.3343 50.4621 99.2172C50.3467 99.0209 50.19 98.852 50.0029 98.7222C49.8157 98.5924 49.6026 98.5047 49.3783 98.4654C49.154 98.426 48.9238 98.4359 48.7037 98.4942C48.4836 98.5526 48.2787 98.658 48.1033 98.8033C48.1033 98.8033 48.1033 98.9172 48.1551 98.9068C48.5001 98.7952 48.8711 98.793 49.2174 98.9004C49.5638 99.0078 49.8684 99.2196 50.0897 99.5068C50.457 99.9915 50.7693 100.515 51.0208 101.069C51.1139 101.245 51.4346 101.152 51.3622 100.945C51.3725 98.3895 49.4069 94.8927 46.717 94.6548Z" fill="#263238"/>
<path d="M66.1777 118.543L64.481 126.509L50.2042 116.163L47.3281 120.405C47.3281 120.405 61.1084 138.075 61.0774 137.206L65.0914 128.34L70.2642 133.585L68.5882 121.553L66.1777 118.543Z" fill="#EBEBEB"/>
<path d="M69.6527 126.509C69.2182 124.171 69.3113 123.984 68.7733 121.667C68.7733 121.584 68.6182 121.564 68.6078 121.667C68.4112 123.995 69.6424 130.74 69.8907 132.892C69.6217 132.675 65.1524 128.288 65.111 128.361C64.4179 129.757 61.1797 136.285 61.0452 136.844C58.8623 134.04 50.5755 123.881 48.0822 121.274C48.0687 121.26 48.0504 121.251 48.0307 121.249C48.0111 121.246 47.9914 121.252 47.9751 121.263C47.9589 121.274 47.9472 121.291 47.9422 121.31C47.9371 121.329 47.9391 121.349 47.9478 121.367C49.9445 124.378 60.9418 138.075 61.0762 138.023C62.6654 135.017 64.048 131.906 65.2145 128.712C66.1766 129.643 70.77 134.64 70.7493 134.289C70.5203 131.678 70.1542 129.081 69.6527 126.509Z" fill="#263238"/>
</svg>
