<svg width="542" height="501" viewBox="0 0 542 501" fill="none" xmlns="http://www.w3.org/2000/svg">
<path d="M271.419 500.5C420.856 500.5 541.999 493.427 541.999 484.702C541.999 475.978 420.856 468.905 271.419 468.905C121.981 468.905 0.837891 475.978 0.837891 484.702C0.837891 493.427 121.981 500.5 271.419 500.5Z" fill="#EEEEEE"/>
<path d="M243.229 465.849L232.441 462.834L236.572 437.045L247.36 440.073L243.229 465.849Z" fill="#CF7A64"/>
<path d="M317.64 473.259H306.434L305.666 447.316H316.872L317.64 473.259Z" fill="#CF7A64"/>
<path d="M305.303 471.961H318.351C318.57 471.961 318.782 472.038 318.951 472.178C319.119 472.318 319.233 472.513 319.272 472.729L321.072 482.693C321.111 482.939 321.095 483.192 321.026 483.431C320.958 483.671 320.837 483.893 320.674 484.082C320.51 484.271 320.308 484.421 320.08 484.524C319.853 484.626 319.605 484.678 319.356 484.675C314.96 484.605 312.378 484.34 306.796 484.34C303.391 484.34 293.106 484.702 288.403 484.702C283.7 484.702 283.281 480.055 285.221 479.623C293.929 477.739 300.572 475.143 303.363 472.645C303.899 472.178 304.593 471.934 305.303 471.961Z" fill="#263238"/>
<path d="M232.094 461.425L243.984 464.328C244.2 464.382 244.391 464.508 244.526 464.686C244.66 464.863 244.73 465.082 244.723 465.305L244.514 475.492C244.511 475.739 244.452 475.983 244.341 476.204C244.231 476.425 244.071 476.618 243.875 476.769C243.679 476.919 243.451 477.023 243.209 477.073C242.966 477.122 242.716 477.116 242.476 477.055C238.206 475.925 232.066 474.166 226.679 472.868C220.385 471.319 220.162 471.04 212.724 469.24C208.258 468.151 208.118 463.323 210.086 463.379C219.059 463.588 220.762 464.383 229.233 461.648C230.147 461.309 231.138 461.232 232.094 461.425Z" fill="#263238"/>
<path d="M289.631 142.461C282.514 146.857 275.411 150.834 268.001 154.491C264.316 156.347 260.562 158.091 256.766 159.78C254.869 160.631 252.929 161.44 250.989 162.222C250.026 162.627 249.021 162.989 248.044 163.366L246.565 163.938C245.701 164.267 244.815 164.532 243.914 164.734C241.972 165.153 239.967 165.191 238.01 164.845C236.23 164.507 234.515 163.885 232.931 163.003C230.439 161.551 228.231 159.66 226.414 157.421C223.524 153.784 221.153 149.764 219.366 145.475C216.047 137.655 213.676 129.465 212.305 121.081L220.413 118.89C221.92 122.421 223.497 126.105 225.227 129.58C226.958 133.055 228.702 136.558 230.642 139.684C232.374 142.68 234.464 145.454 236.866 147.946C237.657 148.787 238.605 149.465 239.657 149.941C239.852 150.035 240.071 150.069 240.285 150.039C240.369 150.039 240.285 149.969 240.397 149.913C240.469 149.863 240.543 149.816 240.62 149.774L241.932 149.146C242.797 148.727 243.676 148.322 244.542 147.876L249.761 145.224C253.24 143.364 256.706 141.503 260.158 139.642C267.038 135.818 274.029 131.855 280.784 127.961L289.631 142.461Z" fill="#CF7A64"/>
<path d="M296.538 139.209C292.239 148.978 272.967 154.016 272.967 154.016L261.803 136.362C261.803 136.362 270.246 127.543 281.48 124.71C295.142 121.235 301.157 128.506 296.538 139.209Z" fill="#16A34A"/>
<path opacity="0.2" d="M285.696 136.879C282.154 138.207 279.067 140.521 276.799 143.548C274.531 146.575 273.177 150.188 272.898 153.96C272.898 153.96 288.012 150.039 294.446 142.335C293.895 140.52 292.705 138.967 291.096 137.963C289.486 136.959 287.567 136.574 285.696 136.879Z" fill="black"/>
<path d="M216.226 126.37L207.225 120.97L212.89 111.508C212.89 111.508 223.524 114.578 221.641 122.519L216.226 126.37Z" fill="#CF7A64"/>
<path d="M202.926 113.88L204 106.875L212.834 111.508L207.168 120.97L202.926 113.88Z" fill="#CF7A64"/>
<path opacity="0.2" d="M236.572 437.059L234.451 450.344L245.239 453.373L247.36 440.073L236.572 437.059Z" fill="black"/>
<path opacity="0.2" d="M316.872 447.33H305.666L306.071 460.699H317.277L316.872 447.33Z" fill="black"/>
<path d="M344.992 138.009C332.432 177.963 332.209 219.271 330.659 227.882C321.951 226.737 289.156 222.3 271.279 219.955C267.721 164.385 280.462 133.097 283.923 125.756C284.163 125.235 284.536 124.786 285.003 124.453C285.471 124.12 286.017 123.915 286.588 123.858C288.221 123.691 290.775 123.454 293.887 123.314C295.534 123.244 297.306 123.203 299.148 123.217C300.167 123.217 301.2 123.217 302.246 123.217C310.72 123.851 319.149 124.978 327.492 126.594C329.069 126.873 330.673 127.208 332.222 127.557C333.772 127.906 335.014 128.24 336.409 128.589C337.805 128.938 339.354 129.385 340.596 129.748C341.436 129.986 342.22 130.392 342.9 130.941C343.58 131.49 344.143 132.171 344.553 132.942C344.964 133.714 345.214 134.56 345.289 135.431C345.365 136.302 345.264 137.179 344.992 138.009Z" fill="#16A34A"/>
<path d="M301.005 173.721L296.037 173.191C295.5 173.163 294.973 173.34 294.563 173.688C294.153 174.036 293.891 174.527 293.832 175.061L293.692 175.968C293.642 176.223 293.644 176.486 293.699 176.74C293.753 176.995 293.859 177.236 294.008 177.448C294.158 177.661 294.35 177.841 294.571 177.977C294.793 178.114 295.04 178.204 295.297 178.243L300.279 178.773C300.816 178.801 301.343 178.623 301.753 178.276C302.163 177.928 302.424 177.437 302.484 176.903L302.61 176.01C302.662 175.753 302.661 175.489 302.608 175.233C302.554 174.977 302.449 174.735 302.299 174.52C302.149 174.306 301.957 174.125 301.734 173.988C301.512 173.85 301.264 173.759 301.005 173.721Z" fill="white"/>
<path d="M305.595 163.492C303.46 158.635 302.804 149.299 302.804 149.299L301.283 149.132C301.283 149.132 297.975 158.049 294.514 162.306C294.337 162.529 294.217 162.793 294.165 163.073L293.677 166.45C293.637 166.67 293.65 166.897 293.716 167.11C293.781 167.324 293.897 167.519 294.054 167.678C295.032 168.597 295.741 169.764 296.105 171.056C296.136 171.34 296.259 171.606 296.455 171.812C296.652 172.019 296.912 172.155 297.194 172.2L298.687 172.367L300.194 172.521C300.49 172.542 300.785 172.468 301.036 172.31C301.287 172.151 301.481 171.918 301.59 171.642C302.318 170.476 303.332 169.516 304.534 168.851C304.724 168.728 304.886 168.566 305.009 168.376C305.132 168.186 305.213 167.972 305.246 167.748L305.734 164.371C305.777 164.071 305.729 163.764 305.595 163.492Z" fill="white"/>
<path d="M320.808 146.41C320.621 146.4 320.435 146.444 320.274 146.538C320.113 146.633 319.983 146.773 319.9 146.941L303.517 145.252L303.615 144.638L301.842 144.457L301.758 145.057L285.375 143.242C285.344 143.064 285.257 142.9 285.126 142.775C284.996 142.649 284.829 142.569 284.649 142.545C284.4 142.532 284.155 142.614 283.963 142.775C283.772 142.935 283.648 143.162 283.617 143.41C283.595 143.529 283.597 143.652 283.623 143.77C283.649 143.889 283.699 144.001 283.769 144.099C283.839 144.198 283.929 144.282 284.032 144.346C284.135 144.41 284.25 144.452 284.37 144.471C284.553 144.482 284.736 144.439 284.894 144.347C285.053 144.255 285.181 144.118 285.263 143.954L298.214 145.35C295.124 146.144 292.325 147.805 290.147 150.136C287.969 152.468 286.502 155.373 285.919 158.51H285.319L285.04 160.422L286.77 160.603L287.05 158.677H286.547C288.082 151.099 294.572 145.601 301.619 145.866L301.535 146.424L303.308 146.606L303.377 146.048C310.355 147.276 315.016 153.974 314.346 161.65H313.9L313.621 163.575L315.379 163.757L315.658 161.831L315.002 161.761C315.374 158.673 314.789 155.545 313.326 152.8C311.864 150.055 309.595 147.825 306.824 146.41L319.845 147.806C319.88 147.981 319.969 148.14 320.099 148.263C320.229 148.385 320.394 148.465 320.57 148.49C320.819 148.505 321.064 148.424 321.254 148.263C321.444 148.101 321.564 147.872 321.589 147.624C321.64 147.493 321.659 147.352 321.645 147.212C321.631 147.072 321.583 146.937 321.507 146.819C321.431 146.7 321.328 146.602 321.206 146.531C321.085 146.46 320.948 146.418 320.808 146.41Z" fill="white"/>
<path opacity="0.2" d="M341.949 148.601C340.246 155.119 338.823 161.594 337.664 167.874C330.184 162.389 332.082 148.155 332.082 148.155L341.949 148.601Z" fill="black"/>
<path d="M328.635 98.0689C325.956 105.982 322.369 120.649 327.337 126.831C322.327 130.627 315.88 134.925 306.195 133.976C296.51 133.027 299.077 126.622 302.092 123.468C311.442 122.505 312.098 115.764 311.372 109.233L328.635 98.0689Z" fill="#CF7A64"/>
<path opacity="0.2" d="M321.659 102.632L311.443 109.233C311.642 110.75 311.703 112.282 311.625 113.811C315.155 113.811 320.417 110.615 321.268 107.042C321.662 105.608 321.794 104.114 321.659 102.632Z" fill="black"/>
<path d="M308.052 68.651C302.47 72.2934 303.963 87.435 308.052 88.5654C312.141 89.6957 317.472 62.4269 308.052 68.651Z" fill="#263238"/>
<path d="M334.622 88.7747C330.644 99.1575 328.83 105.423 321.783 109.177C311.163 114.76 299.621 105.856 300.431 94.4964C301.157 84.2671 307.548 69.0139 319.229 68.0649C321.804 67.8446 324.394 68.2861 326.751 69.3476C329.108 70.4091 331.155 72.0553 332.697 74.1301C334.239 76.2048 335.225 78.6393 335.562 81.2023C335.899 83.7653 335.575 86.3719 334.622 88.7747Z" fill="#CF7A64"/>
<path d="M331.678 96.7293C327.296 98.3899 322.049 96.8549 323.989 94.6081C328.399 89.4585 326.933 83.6112 332.823 82.0482C328.092 82.0482 324.673 80.2201 318.797 74.8612C314.025 70.5071 304.423 76.4242 302.902 68.9302C302.674 67.7886 302.193 66.7124 301.495 65.7805C300.797 64.8485 299.9 64.0842 298.869 63.5434C300.028 62.865 301.406 62.6662 302.71 62.9895C304.013 63.3128 305.139 64.1325 305.847 65.2739C307.117 67.2137 310.843 62.8317 315.085 61.2547C319.942 59.4684 324.547 60.236 327.296 63.7667C330.897 68.358 335.293 71.7771 339.744 71.3165C345.968 70.6746 350.267 75.1543 346.248 79.9968C352.765 84.6579 341.921 97.6782 331.678 96.7293Z" fill="#263238"/>
<path d="M344.293 80.1503C344.293 80.1503 353.517 80.5411 350.726 72.4749C353.448 77.3592 354.145 81.6156 344.293 80.1503Z" fill="#263238"/>
<path d="M335.991 99.5064C334.305 101.433 331.929 102.621 329.376 102.814C326.041 103.023 325.189 99.7855 326.836 96.9526C328.232 94.3848 331.776 91.203 334.777 92.3334C337.777 93.4638 338.084 97.1061 335.991 99.5064Z" fill="#CF7A64"/>
<path d="M231.102 446.688L249.369 451.81C249.369 451.81 264.79 386.08 270.302 351.596C271.963 341.116 277.196 327.565 281.69 312.061C287.37 292.523 294.25 271.45 299.832 254.969C305.749 237.609 310.117 225.119 310.117 225.119L271.279 219.927C271.279 219.927 246.299 306.283 242.601 340.278C238.777 375.613 231.102 446.688 231.102 446.688Z" fill="#BC4343"/>
<path opacity="0.2" d="M281.634 312.088C287.314 292.551 294.194 271.478 299.776 254.997L296.26 245.968C285.863 256.895 280.979 292.523 281.634 312.088Z" fill="black"/>
<path d="M289.783 222.439C289.783 222.439 290.397 318.941 293.063 351.652C295.993 387.475 300.92 458.103 300.92 458.103H321.434C321.434 458.103 323.137 392.946 322.215 357.904C321.155 318.006 330.658 227.882 330.658 227.882L289.783 222.439Z" fill="#BC4343"/>
<path d="M299.733 458.55H323.89L324.727 451.335L297.766 450.875L299.733 458.55Z" fill="#16A34A"/>
<path d="M228.688 446.507L250.458 452.605L252.426 445.572L228.199 438.385L228.688 446.507Z" fill="#16A34A"/>
<path d="M317.638 86.6395C317.359 87.4908 316.689 88.0351 316.131 87.8676C315.573 87.7001 315.322 86.8489 315.601 85.9976C315.88 85.1463 316.55 84.602 317.108 84.7556C317.666 84.9091 317.904 85.8162 317.638 86.6395Z" fill="#263238"/>
<path d="M307.898 83.6112C307.619 84.4764 306.949 85.0067 306.391 84.8532C305.833 84.6997 305.582 83.8205 305.861 82.9692C306.14 82.118 306.81 81.5737 307.368 81.7272C307.926 81.8807 308.163 82.746 307.898 83.6112Z" fill="#263238"/>
<path d="M310.857 85.0067C309.001 87.3197 306.837 89.367 304.424 91.0913C304.879 91.6959 305.461 92.1939 306.129 92.5506C306.796 92.9073 307.534 93.1142 308.289 93.1566L310.857 85.0067Z" fill="#BA4D3C"/>
<path d="M311.206 96.6037C312.201 96.7909 313.224 96.7736 314.213 96.5528C315.201 96.3321 316.134 95.9126 316.955 95.3198C317.011 95.2754 317.047 95.2108 317.054 95.1401C317.062 95.0694 317.042 94.9985 316.997 94.943C316.953 94.8875 316.888 94.8519 316.818 94.844C316.747 94.8362 316.676 94.8567 316.621 94.9012C315.7 95.5469 314.641 95.9667 313.528 96.1268C312.415 96.2868 311.28 96.1825 310.215 95.8222C310.148 95.8001 310.076 95.8053 310.013 95.8367C309.95 95.8681 309.902 95.9231 309.88 95.9897C309.862 96.0581 309.871 96.1307 309.905 96.1929C309.938 96.2551 309.994 96.3021 310.062 96.3246C310.435 96.4488 310.817 96.5421 311.206 96.6037Z" fill="#263238"/>
<path d="M322.329 84.1275C322.415 84.1553 322.508 84.1553 322.594 84.1275C322.66 84.1056 322.72 84.0707 322.772 84.0249C322.824 83.9791 322.867 83.9232 322.896 83.8607C322.926 83.7982 322.943 83.7303 322.947 83.661C322.95 83.5918 322.939 83.5226 322.915 83.4577C322.651 82.657 322.199 81.9312 321.597 81.3412C320.995 80.7512 320.26 80.3141 319.454 80.0665C319.386 80.05 319.316 80.047 319.247 80.0577C319.178 80.0685 319.112 80.0926 319.052 80.1289C318.992 80.1652 318.94 80.2129 318.899 80.2692C318.858 80.3256 318.828 80.3895 318.812 80.4573C318.795 80.5251 318.792 80.5955 318.803 80.6644C318.814 80.7334 318.838 80.7995 318.874 80.8592C318.911 80.9188 318.958 80.9706 319.015 81.0118C319.071 81.053 319.135 81.0827 319.203 81.0992C319.839 81.3007 320.418 81.6516 320.892 82.1226C321.365 82.5936 321.719 83.171 321.924 83.8066C321.957 83.8909 322.012 83.9649 322.083 84.0213C322.154 84.0776 322.239 84.1143 322.329 84.1275Z" fill="#263238"/>
<path d="M304.759 78.9362C304.844 78.9491 304.932 78.942 305.014 78.9154C305.097 78.8887 305.172 78.8433 305.233 78.7827C305.675 78.2822 306.229 77.8945 306.85 77.6517C307.472 77.409 308.142 77.3183 308.806 77.3871C308.875 77.3992 308.945 77.3975 309.013 77.3823C309.081 77.367 309.146 77.3385 309.203 77.2983C309.26 77.2581 309.308 77.207 309.346 77.148C309.383 77.0891 309.408 77.0233 309.42 76.9545C309.432 76.8858 309.43 76.8154 309.415 76.7473C309.4 76.6792 309.371 76.6148 309.331 76.5577C309.291 76.5007 309.24 76.4521 309.181 76.4148C309.122 76.3776 309.056 76.3523 308.987 76.3405C308.153 76.2447 307.307 76.3492 306.521 76.6453C305.734 76.9414 305.03 77.4205 304.466 78.043C304.416 78.0923 304.376 78.151 304.349 78.2157C304.323 78.2804 304.309 78.3498 304.309 78.4198C304.309 78.4899 304.323 78.5593 304.349 78.624C304.376 78.6886 304.416 78.7473 304.466 78.7966C304.548 78.8698 304.65 78.9182 304.759 78.9362Z" fill="#263238"/>
<path d="M301.521 473.929C302.515 473.901 303.502 473.765 304.466 473.524C304.52 473.513 304.569 473.486 304.606 473.446C304.644 473.406 304.668 473.355 304.675 473.301C304.688 473.251 304.685 473.197 304.664 473.149C304.644 473.102 304.609 473.062 304.564 473.036C304.173 472.785 300.642 470.566 299.386 471.194C299.247 471.266 299.128 471.374 299.042 471.506C298.957 471.638 298.907 471.79 298.898 471.947C298.858 472.202 298.881 472.463 298.967 472.706C299.052 472.95 299.196 473.169 299.386 473.343C300.011 473.776 300.764 473.982 301.521 473.929ZM303.713 473.147C301.801 473.524 300.335 473.454 299.749 472.938C299.617 472.822 299.518 472.673 299.462 472.506C299.406 472.34 299.394 472.162 299.428 471.989C299.425 471.924 299.441 471.859 299.473 471.803C299.505 471.746 299.552 471.699 299.61 471.668C300.266 471.333 302.289 472.296 303.713 473.203V473.147Z" fill="#16A34A"/>
<path d="M304.408 473.524C304.454 473.537 304.502 473.537 304.548 473.524C304.589 473.499 304.623 473.464 304.647 473.423C304.672 473.382 304.685 473.335 304.688 473.287C304.688 473.147 304.548 469.91 303.292 468.849C303.141 468.716 302.963 468.617 302.77 468.56C302.578 468.502 302.375 468.486 302.176 468.514C301.976 468.517 301.784 468.586 301.627 468.71C301.471 468.833 301.359 469.005 301.31 469.198C301.017 470.454 303.166 472.91 304.297 473.538L304.408 473.524ZM302.329 469.017C302.44 469.015 302.55 469.034 302.653 469.075C302.756 469.116 302.85 469.177 302.929 469.254C303.677 470.271 304.091 471.495 304.115 472.757C302.999 471.877 301.645 469.966 301.813 469.296C301.813 469.226 301.813 469.059 302.217 469.017H302.329Z" fill="#16A34A"/>
<path d="M230.655 462.667C230.703 462.661 230.749 462.642 230.789 462.613C230.828 462.584 230.859 462.544 230.878 462.499C230.907 462.456 230.922 462.405 230.922 462.353C230.922 462.301 230.907 462.25 230.878 462.206C230.445 461.83 226.608 458.536 225.114 458.955C224.972 458.992 224.842 459.066 224.737 459.169C224.632 459.272 224.555 459.4 224.514 459.541C224.426 459.77 224.397 460.018 224.428 460.262C224.46 460.505 224.552 460.737 224.696 460.936C225.631 462.332 228.882 462.625 230.696 462.695L230.655 462.667ZM225.282 459.443C226.175 459.36 228.324 460.839 229.845 462.095C227.347 461.899 225.589 461.369 225.058 460.602C224.969 460.473 224.911 460.324 224.892 460.169C224.872 460.013 224.891 459.855 224.947 459.708C224.957 459.649 224.986 459.595 225.028 459.552C225.071 459.51 225.125 459.482 225.184 459.471L225.282 459.443Z" fill="#16A34A"/>
<path d="M230.655 462.667H230.725C230.769 462.651 230.809 462.623 230.839 462.586C230.868 462.549 230.887 462.505 230.892 462.458C230.892 462.332 231.339 459.332 230.222 457.852C230.067 457.639 229.872 457.459 229.646 457.322C229.421 457.186 229.171 457.096 228.91 457.057C228.185 456.959 227.892 457.266 227.766 457.545C227.278 458.732 229.301 461.732 230.473 462.625C230.499 462.645 230.528 462.659 230.56 462.666C230.591 462.673 230.623 462.673 230.655 462.667ZM228.562 457.559H228.841C229.033 457.585 229.218 457.65 229.384 457.751C229.55 457.852 229.693 457.986 229.804 458.145C230.384 459.285 230.599 460.577 230.418 461.844C229.273 460.713 227.961 458.438 228.255 457.727C228.285 457.673 228.33 457.629 228.384 457.6C228.439 457.57 228.5 457.556 228.562 457.559Z" fill="#16A34A"/>
<path d="M353.155 151.979C355.011 157.951 356.462 163.841 357.76 169.925C358.374 172.967 358.988 176.024 359.435 179.191C359.97 182.497 360.282 185.836 360.37 189.184C360.37 190.119 360.37 191.109 360.3 192.198C360.3 192.784 360.188 193.37 360.077 194.054C359.948 194.79 359.771 195.518 359.546 196.231C358.664 198.881 357.088 201.247 354.983 203.083C351.862 205.711 348.151 207.545 344.167 208.428C340.884 209.237 337.527 209.704 334.147 209.824C330.886 209.967 327.617 209.832 324.379 209.419L324.197 201.046C329.594 199.92 334.867 198.266 339.939 196.105C341.781 195.354 343.434 194.206 344.781 192.742C345.102 192.254 345.033 192.03 344.963 192.016C344.963 192.016 344.963 191.793 344.963 191.626C344.963 191.207 344.963 190.691 344.837 190.119C344.544 187.788 344.014 184.969 343.442 182.234C342.87 179.498 342.144 176.652 341.418 173.861L336.98 156.835L353.155 151.979Z" fill="#CF7A64"/>
<path d="M342.926 131.045C348.592 134.423 354.984 154.588 354.984 154.588L337.009 163.645C337.009 163.645 333.325 154.588 330.673 147.164C325.566 132.957 331.79 124.389 342.926 131.045Z" fill="#16A34A"/>
<path d="M327.31 201.576L317.053 199.678L318.016 209.14C318.016 209.14 328.259 212.042 328.622 206.781L327.31 201.576Z" fill="#CF7A64"/>
<path d="M308.4 204.2L312.671 211.08L318.016 209.14L317.053 199.678L308.4 204.2Z" fill="#CF7A64"/>
<g opacity="0.3">
<path d="M72.582 195.715H72.4564C72.3659 195.7 72.2794 195.667 72.2019 195.617C72.1245 195.568 72.0577 195.504 72.0057 195.428C71.9536 195.353 71.9172 195.268 71.8988 195.178C71.8803 195.088 71.8801 194.995 71.8982 194.905C72.2052 193.286 72.5262 191.696 72.8751 190.091C72.9139 189.906 73.0247 189.744 73.1831 189.64C73.3414 189.537 73.5343 189.501 73.7194 189.539C73.9044 189.578 74.0665 189.689 74.1698 189.847C74.2732 190.006 74.3095 190.199 74.2706 190.384C73.9357 191.975 73.6147 193.566 73.3077 195.156C73.2743 195.321 73.1825 195.469 73.0492 195.571C72.9159 195.674 72.7499 195.725 72.582 195.715Z" fill="#16A34A"/>
<path d="M75.8465 181.341H75.6791C75.5901 181.318 75.5065 181.278 75.4331 181.223C75.3596 181.168 75.2978 181.098 75.2511 181.019C75.2045 180.94 75.1739 180.853 75.1611 180.762C75.1483 180.671 75.1536 180.578 75.1767 180.489C76.014 177.308 76.949 174.112 77.9677 170.972C78.0233 170.787 78.15 170.631 78.3201 170.54C78.4903 170.448 78.6898 170.428 78.8748 170.483C79.0599 170.539 79.2153 170.666 79.3069 170.836C79.3985 171.006 79.4188 171.206 79.3633 171.391C78.3725 174.503 77.4514 177.684 76.5722 180.852C76.5251 181.004 76.4274 181.136 76.2954 181.224C76.1634 181.313 76.0051 181.354 75.8465 181.341ZM81.8194 162.515C81.7368 162.535 81.6508 162.535 81.5682 162.515C81.4822 162.484 81.4033 162.436 81.3362 162.374C81.269 162.312 81.215 162.237 81.1772 162.154C81.1395 162.071 81.1188 161.981 81.1165 161.889C81.1141 161.798 81.1301 161.707 81.1635 161.622C82.2939 158.538 83.522 155.44 84.8198 152.411C84.8548 152.327 84.9062 152.251 84.971 152.187C85.0358 152.123 85.1127 152.073 85.1971 152.039C85.2816 152.005 85.372 151.989 85.463 151.99C85.5539 151.992 85.6437 152.012 85.7269 152.048C85.8966 152.119 86.0314 152.255 86.102 152.424C86.1725 152.594 86.1732 152.785 86.1037 152.956C84.8198 155.97 83.6057 159.054 82.4614 162.11C82.4063 162.234 82.3159 162.338 82.2017 162.41C82.0875 162.482 81.9544 162.518 81.8194 162.515ZM89.5228 144.373C89.4206 144.376 89.3194 144.352 89.2297 144.303C89.1463 144.266 89.0714 144.212 89.0096 144.145C88.9478 144.077 88.9004 143.998 88.8703 143.912C88.8403 143.826 88.8282 143.734 88.8348 143.643C88.8414 143.552 88.8666 143.463 88.9088 143.382C90.3043 140.424 91.8394 137.451 93.4163 134.562C93.4588 134.482 93.5168 134.411 93.587 134.353C93.6573 134.296 93.7383 134.253 93.8253 134.227C93.9124 134.201 94.0037 134.192 94.094 134.202C94.1843 134.212 94.2718 134.239 94.3514 134.283C94.4335 134.326 94.5063 134.384 94.5651 134.456C94.624 134.527 94.6678 134.609 94.6939 134.698C94.72 134.787 94.7278 134.88 94.7169 134.972C94.706 135.063 94.6766 135.152 94.6305 135.232C93.0814 138.093 91.5742 141.038 90.1647 143.982C90.0993 144.093 90.005 144.184 89.892 144.245C89.7789 144.307 89.6513 144.336 89.5228 144.331V144.373ZM454.232 121.081C454.116 121.08 454.002 121.05 453.899 120.994C453.797 120.938 453.71 120.858 453.646 120.761C451.874 117.969 450.004 115.304 448.064 112.652C448.011 112.579 447.973 112.495 447.953 112.406C447.932 112.317 447.93 112.225 447.945 112.136C447.961 112.046 447.994 111.96 448.044 111.884C448.093 111.807 448.157 111.741 448.232 111.69C448.383 111.584 448.569 111.54 448.751 111.569C448.933 111.598 449.097 111.696 449.208 111.843C451.12 114.508 453.004 117.244 454.791 120.007C454.89 120.162 454.924 120.351 454.885 120.532C454.846 120.712 454.737 120.87 454.581 120.97C454.476 121.036 454.356 121.074 454.232 121.081ZM136.204 81.2808C136.013 81.2751 135.833 81.1949 135.701 81.0575C135.636 80.9926 135.584 80.9154 135.548 80.8304C135.513 80.7454 135.495 80.6542 135.495 80.5621C135.495 80.4699 135.513 80.3788 135.548 80.2937C135.584 80.2087 135.636 80.1315 135.701 80.0667C138.115 77.8477 140.613 75.6428 143.125 73.5216C143.196 73.4629 143.277 73.4188 143.365 73.3916C143.453 73.3644 143.545 73.3548 143.636 73.3632C143.727 73.3716 143.816 73.3979 143.897 73.4407C143.979 73.4834 144.051 73.5417 144.109 73.6123C144.168 73.6829 144.212 73.7643 144.239 73.8519C144.266 73.9395 144.276 74.0316 144.268 74.123C144.259 74.2144 144.233 74.3032 144.19 74.3843C144.147 74.4655 144.089 74.5375 144.019 74.5961C141.521 76.6895 139.05 78.8804 136.65 81.0854C136.531 81.2043 136.372 81.274 136.204 81.2808ZM151.289 68.5953C151.143 68.5953 151 68.5493 150.881 68.4636C150.762 68.378 150.674 68.2572 150.627 68.1182C150.581 67.9793 150.58 67.8293 150.623 67.6895C150.667 67.5497 150.753 67.4272 150.871 67.3394C153.48 65.3298 156.174 63.376 158.867 61.52C158.941 61.4551 159.028 61.4067 159.123 61.378C159.217 61.3493 159.316 61.3409 159.414 61.3534C159.512 61.3659 159.606 61.399 159.69 61.4504C159.774 61.5019 159.847 61.5706 159.902 61.6521C159.958 61.7335 159.995 61.8258 160.013 61.9228C160.03 62.0199 160.027 62.1195 160.003 62.2152C159.979 62.3108 159.935 62.4003 159.874 62.4777C159.813 62.5551 159.736 62.6187 159.649 62.6643C156.983 64.5204 154.318 66.4602 151.708 68.4418C151.59 68.5393 151.442 68.5935 151.289 68.5953ZM167.491 57.431C167.371 57.4317 167.252 57.4013 167.147 57.3426C167.042 57.2839 166.954 57.199 166.891 57.0961C166.797 56.938 166.767 56.7492 166.809 56.5696C166.85 56.39 166.96 56.2335 167.115 56.1332C169.906 54.4027 172.767 52.7002 175.627 51.0953C175.707 51.0443 175.797 51.0101 175.891 50.9949C175.984 50.9797 176.08 50.9837 176.172 51.0067C176.264 51.0297 176.35 51.0712 176.426 51.1287C176.501 51.1863 176.564 51.2585 176.611 51.3412C176.657 51.4238 176.686 51.5151 176.696 51.6094C176.707 51.7037 176.697 51.7991 176.669 51.8897C176.641 51.9803 176.595 52.0643 176.533 52.1365C176.472 52.2086 176.396 52.2675 176.311 52.3094C173.52 53.9143 170.617 55.5889 167.854 57.3194C167.737 57.356 167.612 57.3608 167.491 57.3334V57.431ZM383.325 53.8306C383.202 53.833 383.08 53.799 382.976 53.7329C380.185 52.1001 377.255 50.5092 374.352 49.016C374.189 48.9272 374.067 48.7783 374.012 48.601C373.958 48.4238 373.974 48.2322 374.059 48.067C374.145 47.9051 374.291 47.7836 374.466 47.7287C374.641 47.6739 374.831 47.6901 374.994 47.7739C377.91 49.2811 380.841 50.886 383.674 52.5327C383.805 52.6104 383.907 52.7288 383.964 52.8699C384.022 53.0109 384.031 53.1669 383.992 53.314C383.952 53.461 383.866 53.5911 383.745 53.6844C383.625 53.7777 383.477 53.829 383.325 53.8306ZM365.811 44.7735C365.714 44.7927 365.615 44.7927 365.518 44.7735C362.56 43.378 359.517 42.108 356.489 40.88C356.404 40.8461 356.326 40.7958 356.26 40.7319C356.194 40.668 356.142 40.5917 356.106 40.5075C356.069 40.4232 356.05 40.3326 356.049 40.2409C356.047 40.1492 356.064 40.0581 356.098 39.9729C356.169 39.7997 356.306 39.6615 356.479 39.5884C356.651 39.5152 356.845 39.513 357.019 39.5821C360.062 40.8242 363.118 42.136 366.104 43.5036C366.188 43.5425 366.263 43.5977 366.326 43.6659C366.388 43.7342 366.436 43.8141 366.467 43.9011C366.498 43.9881 366.512 44.0804 366.507 44.1726C366.502 44.2649 366.479 44.3553 366.439 44.4386C366.375 44.5467 366.283 44.6351 366.172 44.6942C366.061 44.7533 365.937 44.7807 365.811 44.7735ZM347.516 37.3911C347.442 37.4045 347.366 37.4045 347.292 37.3911C344.222 36.3166 341.068 35.2978 337.928 34.3628C337.839 34.3388 337.756 34.2971 337.684 34.2402C337.611 34.1832 337.551 34.1122 337.507 34.0314C337.462 33.9505 337.435 33.8616 337.426 33.7699C337.417 33.6781 337.426 33.5855 337.454 33.4976C337.509 33.322 337.63 33.1745 337.791 33.0861C337.952 32.9976 338.142 32.975 338.319 33.0231C341.487 33.9721 344.655 34.9908 347.753 36.0793C347.938 36.1108 348.103 36.2145 348.212 36.3676C348.32 36.5207 348.364 36.7107 348.332 36.8957C348.301 37.0808 348.197 37.2458 348.044 37.3544C347.891 37.463 347.701 37.5063 347.516 37.4749V37.3911ZM328.592 31.809H328.425C325.271 31.0275 322.033 30.3158 318.823 29.6878C318.734 29.6695 318.648 29.6336 318.572 29.5823C318.496 29.5311 318.431 29.4653 318.381 29.3888C318.33 29.3124 318.295 29.2267 318.278 29.1367C318.26 29.0467 318.261 28.9542 318.279 28.8644C318.296 28.7752 318.33 28.6901 318.38 28.6143C318.43 28.5384 318.494 28.4733 318.57 28.4226C318.645 28.3719 318.73 28.3368 318.819 28.3192C318.908 28.3016 319 28.3019 319.089 28.3201C322.326 28.9481 325.578 29.7157 328.76 30.4553C328.849 30.4749 328.934 30.5124 329.009 30.5655C329.084 30.6186 329.147 30.6863 329.196 30.7644C329.244 30.8425 329.276 30.9296 329.29 31.0203C329.303 31.1111 329.299 31.2037 329.276 31.2926C329.219 31.4148 329.129 31.5181 329.015 31.5899C328.901 31.6617 328.769 31.699 328.634 31.6973L328.592 31.809ZM240.534 29.1714C240.349 29.1881 240.165 29.1305 240.022 29.0115C239.879 28.8924 239.79 28.7215 239.773 28.5364C239.757 28.3514 239.814 28.1673 239.933 28.0247C240.052 27.882 240.223 27.7925 240.408 27.7759C243.632 27.1898 246.911 26.6595 250.177 26.2268C250.268 26.211 250.362 26.2143 250.452 26.2365C250.542 26.2586 250.626 26.2992 250.699 26.3556C250.773 26.412 250.834 26.483 250.878 26.5641C250.923 26.6452 250.95 26.7347 250.958 26.8269C250.983 27.008 250.935 27.1912 250.825 27.3374C250.715 27.4835 250.553 27.5808 250.372 27.6084C247.121 28.041 243.855 28.5574 240.604 29.1435L240.534 29.1714ZM309.236 28.0131H309.097C305.887 27.5386 302.607 27.1339 299.328 26.799C299.236 26.7898 299.147 26.7627 299.066 26.7192C298.985 26.6757 298.913 26.6166 298.855 26.5453C298.797 26.474 298.753 26.392 298.726 26.3038C298.7 26.2156 298.691 26.1231 298.7 26.0315C298.709 25.9398 298.736 25.8509 298.78 25.7697C298.823 25.6886 298.882 25.6168 298.954 25.5585C299.025 25.5002 299.107 25.4565 299.195 25.4299C299.283 25.4033 299.376 25.3943 299.467 25.4035C302.747 25.7244 306.054 26.1291 309.236 26.6176C309.417 26.6452 309.579 26.7425 309.689 26.8887C309.798 27.0348 309.846 27.218 309.822 27.3991C309.783 27.5303 309.707 27.6475 309.603 27.7367C309.499 27.8258 309.372 27.883 309.236 27.9015V28.0131ZM260.071 26.6176C259.886 26.6176 259.709 26.5441 259.578 26.4132C259.447 26.2824 259.374 26.1049 259.374 25.9198C259.374 25.7348 259.447 25.5573 259.578 25.4264C259.709 25.2956 259.886 25.222 260.071 25.222C263.323 24.9429 266.644 24.7336 269.938 24.608C270.121 24.6075 270.298 24.6762 270.432 24.8005C270.567 24.9247 270.649 25.0952 270.663 25.2779C270.667 25.462 270.6 25.6405 270.475 25.7758C270.35 25.9111 270.177 25.9928 269.994 26.0036C266.714 26.1292 263.421 26.3385 260.225 26.6176H260.071ZM289.629 26.1292C286.377 25.9477 283.07 25.85 279.86 25.8361C279.675 25.8361 279.498 25.7626 279.367 25.6317C279.236 25.5009 279.162 25.3234 279.162 25.1383C279.162 24.9533 279.236 24.7758 279.367 24.6449C279.498 24.5141 279.675 24.4406 279.86 24.4406C283.14 24.4406 286.461 24.5522 289.74 24.7336C289.832 24.7372 289.922 24.7588 290.005 24.7973C290.089 24.8357 290.164 24.8902 290.226 24.9576C290.288 25.025 290.336 25.104 290.368 25.1901C290.4 25.2762 290.414 25.3676 290.41 25.4593C290.359 25.6202 290.252 25.7576 290.109 25.8471C289.966 25.9365 289.796 25.9722 289.629 25.9477V26.1292Z" fill="#16A34A"/>
<path d="M461.797 133.767C461.673 133.769 461.55 133.737 461.442 133.676C461.334 133.615 461.245 133.526 461.183 133.418C460.401 132.022 459.592 130.627 458.769 129.231C458.674 129.07 458.648 128.879 458.695 128.698C458.742 128.517 458.859 128.363 459.02 128.268C459.181 128.174 459.373 128.148 459.553 128.195C459.734 128.242 459.888 128.359 459.983 128.52C460.806 129.915 461.615 131.311 462.397 132.776C462.444 132.855 462.474 132.943 462.486 133.034C462.498 133.126 462.491 133.218 462.466 133.307C462.441 133.396 462.399 133.478 462.342 133.55C462.284 133.622 462.213 133.681 462.132 133.725C462.025 133.765 461.91 133.779 461.797 133.767Z" fill="#16A34A"/>
</g>
<path d="M196.883 33.9162C197.971 35.0466 199.032 37.3073 199.674 41.6614C196.241 40.2659 192.696 36.3026 192.57 34.0976C192.57 33.5813 192.668 32.8695 194.091 32.7719H194.357C194.834 32.7747 195.306 32.8781 195.741 33.0752C196.176 33.2724 196.565 33.5589 196.883 33.9162Z" fill="#16A34A"/>
<path d="M204.922 40.1962C204.345 39.1301 203.971 37.966 203.819 36.7631C203.303 32.8975 204.503 29.1016 205.061 28.8784C205.061 28.8784 205.717 29.2831 205.899 33.1487C206.153 35.5424 205.817 37.9618 204.922 40.1962Z" fill="#16A34A"/>
<path d="M210.614 69.7257H199.896V69.3768C201.166 58.0869 201.473 49.295 200.818 43.057C201.245 43.1399 201.681 43.168 202.115 43.1407C203.169 43.1161 204.17 42.6803 204.906 41.9266C206.025 43.0975 207.558 43.7837 209.177 43.8385C209.641 43.8839 210.108 43.8839 210.572 43.8385C208.702 52.8676 208.312 64.5343 210.614 69.7257Z" fill="#16A34A"/>
<path d="M216.867 37.2237C216.629 38.5038 216.034 39.6905 215.15 40.6462C214.266 41.602 213.129 42.2879 211.871 42.6244C212.411 39.8605 213.351 37.1901 214.662 34.6978C215.332 33.5395 215.89 33.1487 216.211 33.1487H216.337C216.867 33.386 217.356 35.0885 216.867 37.2237Z" fill="#16A34A"/>
<path d="M233.125 27.5107C232.852 35.725 230.152 43.6743 225.366 50.3556C222.041 55.0864 219.749 60.4642 218.64 66.1392C218.427 67.1558 217.868 68.0673 217.059 68.7186C216.25 69.3699 215.241 69.7209 214.202 69.7117H211.76C209.304 65.0227 209.75 52.8397 211.648 43.6989C213.196 43.4028 214.62 42.6485 215.735 41.5338C216.85 40.419 217.604 38.9953 217.9 37.4469C218.444 34.9489 217.9 32.7021 216.714 32.1997C216.058 31.9485 215.011 32.0741 213.783 34.1535C212.36 36.863 211.349 39.7698 210.783 42.7779C210.282 42.8276 209.777 42.8276 209.276 42.7779C208.579 42.7569 207.893 42.5952 207.26 42.3027C206.627 42.0101 206.059 41.5926 205.591 41.0753C206.54 39.596 207.141 37.112 206.987 33.051C206.82 29.4784 206.247 27.8177 205.159 27.8177C203.61 27.8177 202.8 31.7113 202.745 34.3209C202.571 36.684 203.131 39.043 204.349 41.0753C204.071 41.3784 203.735 41.6233 203.362 41.7958C202.988 41.9683 202.584 42.0649 202.172 42.0801C201.704 42.0947 201.235 42.0526 200.777 41.9545C200.233 37.6981 199.186 34.7535 197.665 33.1626C197.206 32.6691 196.641 32.2868 196.012 32.0449C195.383 31.8031 194.708 31.7081 194.036 31.7671C191.692 31.9206 191.524 33.5115 191.566 34.1674C191.734 36.8748 195.753 41.494 199.842 42.8058C200.442 48.2484 200.386 56.5797 198.963 69.321V69.7815H196.897C195.856 69.7939 194.843 69.4444 194.031 68.7928C193.219 68.1412 192.659 67.2279 192.446 66.2089C191.325 60.504 189.008 55.1011 185.649 50.3556C180.873 43.6711 178.183 35.722 177.918 27.5107C178.08 20.2917 181.062 13.423 186.225 8.37481C191.388 3.32661 198.322 0.5 205.543 0.5C212.763 0.5 219.697 3.32661 224.86 8.37481C230.023 13.423 233.005 20.2917 233.167 27.5107H233.125Z" fill="#16A34A"/>
<path opacity="0.6" d="M214.062 71.3166H196.925C196.308 71.3166 195.809 71.8164 195.809 72.433V75.6288C195.809 76.2454 196.308 76.7452 196.925 76.7452H214.062C214.679 76.7452 215.179 76.2454 215.179 75.6288V72.433C215.179 71.8164 214.679 71.3166 214.062 71.3166Z" fill="#16A34A"/>
<path opacity="0.3" d="M214.062 78.5873H196.925C196.308 78.5873 195.809 79.0872 195.809 79.7038V82.8996C195.809 83.5161 196.308 84.016 196.925 84.016H214.062C214.679 84.016 215.179 83.5161 215.179 82.8996V79.7038C215.179 79.0872 214.679 78.5873 214.062 78.5873Z" fill="#16A34A"/>
<path d="M444.44 59.1348L394.557 52.8242C391.628 52.4537 388.954 54.5275 388.583 57.456L383.374 98.6311C383.004 101.56 385.077 104.234 388.006 104.605L437.89 110.915C440.818 111.286 443.493 109.212 443.863 106.283L449.072 65.1083C449.442 62.1797 447.369 59.5053 444.44 59.1348Z" fill="#16A34A"/>
<path opacity="0.8" d="M445.389 58.4084L395.506 52.0978C392.577 51.7273 389.903 53.8011 389.532 56.7296L384.323 97.9047C383.953 100.833 386.027 103.508 388.955 103.878L438.839 110.189C441.767 110.559 444.442 108.486 444.812 105.557L450.021 64.3819C450.392 61.4533 448.318 58.7789 445.389 58.4084Z" fill="white"/>
<path d="M445.387 58.4358L395.496 52.114C394.8 52.026 394.093 52.076 393.416 52.2613C392.739 52.4465 392.105 52.7632 391.55 53.1935C390.995 53.6237 390.531 54.159 390.183 54.7687C389.835 55.3785 389.611 56.0508 389.523 56.7472L388.798 62.4829C388.758 62.8426 388.859 63.2038 389.08 63.4902C389.302 63.7766 389.626 63.9659 389.984 64.0179L447.759 71.3306C448.119 71.3705 448.48 71.2691 448.766 71.0478C449.053 70.8265 449.242 70.5025 449.294 70.1443L450.02 64.4087C450.108 63.7123 450.058 63.0053 449.873 62.3283C449.687 61.6512 449.371 61.0172 448.94 60.4626C448.51 59.908 447.975 59.4435 447.365 59.0957C446.755 58.748 446.083 58.5237 445.387 58.4358Z" fill="#16A34A"/>
<path opacity="0.6" d="M410.936 71.7449L403.598 70.8167L402.669 78.1545L410.007 79.0828L410.936 71.7449Z" fill="#16A34A"/>
<path opacity="0.6" d="M419.713 74.9436L412.391 73.9821L411.429 81.3045L418.751 82.266L419.713 74.9436Z" fill="#16A34A"/>
<path opacity="0.6" d="M432.051 74.4157L424.713 73.4874L423.785 80.8253L431.122 81.7536L432.051 74.4157Z" fill="#16A34A"/>
<path opacity="0.6" d="M442.615 75.7589L435.277 74.8306L434.349 82.1685L441.687 83.0968L442.615 75.7589Z" fill="#16A34A"/>
<path opacity="0.6" d="M399.104 80.4896L391.766 79.5613L390.837 86.8992L398.175 87.8275L399.104 80.4896Z" fill="#16A34A"/>
<path opacity="0.6" d="M409.668 81.8328L402.33 80.9045L401.402 88.2424L408.74 89.1707L409.668 81.8328Z" fill="#16A34A"/>
<path opacity="0.6" d="M420.217 83.1603L412.879 82.2321L411.951 89.5699L419.288 90.4982L420.217 83.1603Z" fill="#16A34A"/>
<path opacity="0.6" d="M430.783 84.4897L423.445 83.5614L422.517 90.8992L429.855 91.8275L430.783 84.4897Z" fill="#16A34A"/>
<path opacity="0.6" d="M441.346 85.8328L434.008 84.9045L433.08 92.2424L440.417 93.1707L441.346 85.8328Z" fill="#16A34A"/>
<path opacity="0.6" d="M396.02 92.2762L388.697 91.3147L387.736 98.6371L395.058 99.5986L396.02 92.2762Z" fill="#16A34A"/>
<path opacity="0.6" d="M408.385 91.905L401.047 90.9767L400.119 98.3146L407.456 99.2429L408.385 91.905Z" fill="#16A34A"/>
<path opacity="0.6" d="M418.936 93.2482L411.598 92.3199L410.669 99.6578L418.007 100.586L418.936 93.2482Z" fill="#16A34A"/>
<path d="M441.898 64.311C441.486 64.2425 441.115 64.0228 440.857 63.695C440.599 63.3672 440.472 62.9548 440.502 62.5386L440.851 57.8915C440.861 57.6854 440.913 57.4836 441.006 57.2991C441.098 57.1145 441.228 56.9513 441.387 56.8198C441.546 56.6884 441.73 56.5917 441.929 56.5359C442.128 56.4802 442.336 56.4665 442.54 56.496C442.95 56.5673 443.319 56.7878 443.577 57.1149C443.835 57.442 443.962 57.8528 443.935 58.2683L443.587 62.9154C443.575 63.1208 443.521 63.3215 443.428 63.505C443.335 63.6885 443.205 63.8509 443.047 63.9819C442.888 64.1129 442.704 64.2098 442.507 64.2664C442.309 64.323 442.102 64.3382 441.898 64.311Z" fill="white"/>
<path d="M433.497 63.2225C433.087 63.1511 432.717 62.9307 432.46 62.6036C432.202 62.2764 432.074 61.8657 432.101 61.4502L432.45 56.803C432.462 56.5977 432.516 56.397 432.608 56.2135C432.701 56.0299 432.831 55.8676 432.99 55.7366C433.148 55.6055 433.332 55.5087 433.53 55.4521C433.727 55.3954 433.935 55.3803 434.139 55.4075C434.55 55.476 434.921 55.6956 435.18 56.0234C435.438 56.3513 435.564 56.7637 435.534 57.1798L435.185 61.827C435.174 62.0323 435.12 62.233 435.027 62.4166C434.934 62.6001 434.804 62.7624 434.646 62.8934C434.487 63.0245 434.303 63.1213 434.106 63.178C433.908 63.2346 433.701 63.2497 433.497 63.2225Z" fill="white"/>
<path d="M425.109 62.1619C424.685 62.1029 424.298 61.8864 424.027 61.5553C423.755 61.2243 423.618 60.803 423.644 60.3756L423.992 55.7284C424.006 55.5238 424.061 55.3241 424.155 55.1416C424.248 54.9591 424.378 54.7976 424.536 54.6669C424.694 54.5363 424.877 54.4393 425.074 54.3819C425.271 54.3244 425.478 54.3078 425.681 54.3329C426.091 54.4102 426.459 54.6342 426.716 54.9629C426.972 55.2917 427.101 55.7027 427.077 56.1192L426.728 60.7663C426.714 60.9644 426.66 61.1578 426.571 61.3353C426.482 61.5128 426.359 61.671 426.208 61.8007C426.058 61.9304 425.883 62.029 425.695 62.091C425.506 62.153 425.307 62.1771 425.109 62.1619Z" fill="white"/>
<path d="M416.709 61.1013C416.296 61.0297 415.924 60.8072 415.667 60.4771C415.409 60.147 415.283 59.7328 415.313 59.315L415.662 54.6678C415.674 54.4625 415.728 54.2618 415.82 54.0783C415.913 53.8948 416.043 53.7324 416.202 53.6014C416.36 53.4703 416.544 53.3735 416.742 53.3169C416.939 53.2602 417.147 53.2451 417.351 53.2723C417.763 53.3439 418.135 53.5664 418.393 53.8965C418.651 54.2266 418.776 54.6408 418.746 55.0586L418.397 59.7057C418.386 59.9111 418.332 60.1118 418.239 60.2953C418.146 60.4788 418.016 60.6412 417.858 60.7722C417.699 60.9032 417.515 61.0001 417.317 61.0567C417.12 61.1133 416.912 61.1285 416.709 61.1013Z" fill="white"/>
<path d="M408.306 60.0407C407.893 59.9691 407.522 59.7467 407.264 59.4166C407.006 59.0864 406.88 58.6722 406.911 58.2544L407.26 53.6073C407.271 53.402 407.325 53.2012 407.418 53.0177C407.511 52.8342 407.641 52.6718 407.799 52.5408C407.958 52.4098 408.142 52.3129 408.339 52.2563C408.537 52.1997 408.744 52.1845 408.948 52.2118C409.361 52.2834 409.732 52.5058 409.99 52.8359C410.248 53.1661 410.374 53.5802 410.344 53.998L409.995 58.7289C409.973 58.9269 409.911 59.1185 409.813 59.2923C409.716 59.4661 409.584 59.6186 409.427 59.7408C409.27 59.8631 409.089 59.9526 408.897 60.0041C408.704 60.0556 408.504 60.0681 408.306 60.0407Z" fill="white"/>
<path d="M399.919 58.98C399.489 58.9277 399.094 58.7144 398.815 58.383C398.535 58.0517 398.391 57.6268 398.412 57.1938L398.761 52.5466C398.775 52.342 398.83 52.1423 398.923 51.9598C399.017 51.7773 399.147 51.6158 399.305 51.4851C399.463 51.3545 399.646 51.2575 399.843 51.2C400.04 51.1426 400.246 51.1259 400.45 51.1511C400.874 51.21 401.26 51.4266 401.532 51.7576C401.803 52.0887 401.94 52.5099 401.915 52.9374L401.566 57.5705C401.554 57.7724 401.501 57.9698 401.411 58.1509C401.321 58.332 401.195 58.4931 401.042 58.6246C400.888 58.7561 400.709 58.8554 400.517 58.9164C400.324 58.9775 400.121 58.9991 399.919 58.98Z" fill="white"/>
<path d="M494.382 220.918L490.168 220.276L490.419 218.588L492.945 218.978L493.336 216.438L495.024 216.704L494.382 220.918Z" fill="#16A34A"/>
<path d="M483.917 219.313L477.679 218.364L477.944 216.676L484.182 217.639L483.917 219.313ZM471.441 217.415L465.189 216.452L465.454 214.764L471.692 215.727L471.441 217.415ZM458.951 215.503L452.713 214.541L452.964 212.866L459.202 213.815L458.951 215.503ZM446.461 213.633L440.223 212.67L440.474 210.996L446.726 211.945L446.461 213.633Z" fill="#16A34A"/>
<path d="M433.984 211.68L429.756 211.038L430.412 206.823L432.086 207.074L431.71 209.614L434.236 209.991L433.984 211.68Z" fill="#16A34A"/>
<path d="M433.05 200.836L431.361 200.571L432.324 194.333L433.999 194.598L433.05 200.836ZM434.962 188.277L433.301 188.095L434.25 181.843L435.939 182.108L434.962 188.277ZM436.874 175.787L435.185 175.535L436.134 169.297L437.823 169.549L436.874 175.787ZM438.772 163.31L437.097 163.045L438.046 156.807L439.735 157.058L438.772 163.31Z" fill="#16A34A"/>
<path d="M440.682 150.89L439.008 150.625L439.65 146.424L443.864 147.066L443.599 148.755L441.073 148.364L440.682 150.89Z" fill="#16A34A"/>
<path d="M493.546 156.416L487.308 155.467L487.559 153.779L493.811 154.728L493.546 156.416ZM481.056 154.504L474.818 153.556L475.083 151.867L481.321 152.816L481.056 154.504ZM468.58 152.593L462.328 151.644L462.593 149.955L468.831 150.918L468.58 152.593ZM456.09 150.695L449.852 149.732L450.047 148.043L456.285 149.006L456.09 150.695Z" fill="#16A34A"/>
<path d="M503.623 160.519L501.934 160.254L502.325 157.728L499.785 157.338L500.05 155.663L504.265 156.305L503.623 160.519Z" fill="#16A34A"/>
<path d="M495.973 210.466L494.299 210.2L495.248 203.962L496.936 204.214L495.973 210.466ZM497.885 197.975L496.197 197.71L497.16 191.472L498.848 191.737L497.885 197.975ZM499.797 185.485L498.109 185.234L499.072 178.982L500.746 179.247L499.797 185.485ZM501.709 173.009L500.021 172.744L500.983 166.506L502.658 166.757L501.709 173.009Z" fill="#16A34A"/>
<path d="M444.436 144.404L437.318 143.315L436.229 150.433L443.347 151.522L444.436 144.404Z" fill="white"/>
<path d="M444.089 152.467L435.283 151.072L436.679 142.28L445.485 143.675L444.089 152.467ZM437.237 149.676L442.666 150.513L443.489 145.071L438.06 144.247L437.237 149.676Z" fill="#16A34A"/>
<path d="M507.372 154.035L500.254 152.945L499.165 160.064L506.283 161.153L507.372 154.035Z" fill="white"/>
<path d="M507.013 162.096L498.221 160.701L499.616 151.895L508.422 153.29L507.013 162.096ZM500.161 159.305L505.589 160.129L506.426 154.7L500.984 153.876L500.161 159.305Z" fill="#16A34A"/>
<path d="M434.804 207.339L427.686 206.25L426.596 213.368L433.714 214.457L434.804 207.339Z" fill="white"/>
<path d="M434.46 215.392L425.668 213.996L427.064 205.19L435.869 206.586L434.46 215.392ZM427.608 212.601L433.036 213.438L433.874 208.009L428.431 207.172L427.608 212.601Z" fill="#16A34A"/>
<path d="M497.755 216.958L490.637 215.869L489.547 222.987L496.666 224.076L497.755 216.958Z" fill="white"/>
<path d="M497.398 225.021L488.592 223.625L489.987 214.82L498.793 216.215L497.398 225.021ZM490.532 222.23L495.96 223.067L496.798 217.639L491.369 216.801L490.532 222.23Z" fill="#16A34A"/>
<path d="M439.634 175.872L432.516 174.782L431.426 181.9L438.545 182.99L439.634 175.872Z" fill="#16A34A"/>
<path d="M502.54 185.516L495.422 184.427L494.333 191.545L501.451 192.634L502.54 185.516Z" fill="#16A34A"/>
<path d="M474.799 156.288L475.889 149.17L468.771 148.08L467.681 155.199L474.799 156.288Z" fill="#16A34A"/>
<path d="M465.172 219.209L466.262 212.091L459.144 211.002L458.054 218.12L465.172 219.209Z" fill="#16A34A"/>
<path d="M467.325 174.991L450.369 187.453C449.133 188.358 448.241 189.655 447.837 191.133C447.434 192.611 447.545 194.182 448.15 195.589L446.657 196.678C446.491 196.799 446.351 196.953 446.244 197.129C446.138 197.305 446.067 197.5 446.036 197.704C446.004 197.907 446.014 198.115 446.063 198.315C446.112 198.515 446.2 198.703 446.322 198.869C446.444 199.034 446.597 199.175 446.773 199.281C446.949 199.388 447.145 199.459 447.348 199.49C447.551 199.521 447.759 199.512 447.959 199.463C448.159 199.413 448.347 199.325 448.513 199.204L450.006 198.115C451.165 199.099 452.621 199.664 454.139 199.72C455.658 199.776 457.152 199.318 458.379 198.422L475.349 185.96L467.325 174.991Z" fill="#16A34A"/>
<path opacity="0.6" d="M467.325 174.991L450.369 187.453C449.133 188.358 448.241 189.655 447.837 191.133C447.434 192.611 447.545 194.182 448.15 195.589L446.657 196.678C446.491 196.799 446.351 196.953 446.244 197.129C446.138 197.305 446.067 197.5 446.036 197.704C446.004 197.907 446.014 198.115 446.063 198.315C446.112 198.515 446.2 198.703 446.322 198.869C446.444 199.034 446.597 199.175 446.773 199.281C446.949 199.388 447.145 199.459 447.348 199.49C447.551 199.521 447.759 199.512 447.959 199.463C448.159 199.413 448.347 199.325 448.513 199.204L450.006 198.115C451.165 199.099 452.621 199.664 454.139 199.72C455.658 199.776 457.152 199.318 458.379 198.422L475.349 185.96L467.325 174.991Z" fill="white"/>
<path d="M478.503 184.718L478 184.034L484.671 179.15C486.127 178.08 487.099 176.476 487.373 174.69C487.646 172.903 487.199 171.082 486.129 169.625C485.06 168.169 483.455 167.197 481.669 166.923C479.883 166.65 478.061 167.097 476.605 168.167L469.948 173.065L469.446 172.395C469.018 171.889 468.413 171.565 467.755 171.489C467.097 171.412 466.434 171.589 465.901 171.983C465.368 172.377 465.006 172.96 464.886 173.611C464.767 174.263 464.9 174.936 465.259 175.493L474.302 187.816C474.743 188.281 475.339 188.568 475.977 188.624C476.615 188.68 477.251 188.5 477.766 188.119C478.281 187.738 478.639 187.182 478.772 186.556C478.905 185.929 478.804 185.275 478.489 184.718H478.503Z" fill="#16A34A"/>
<path d="M130.05 143.675C128.882 145.212 127.151 146.222 125.239 146.484C123.326 146.746 121.387 146.237 119.849 145.071L65.9395 104.461L74.7174 92.8218L128.613 133.474C129.379 134.048 130.024 134.768 130.51 135.592C130.997 136.416 131.317 137.328 131.45 138.276C131.584 139.224 131.529 140.189 131.289 141.115C131.048 142.042 130.628 142.912 130.05 143.675Z" fill="#16A34A"/>
<path opacity="0.8" d="M130.05 143.675C128.882 145.212 127.151 146.222 125.239 146.484C123.326 146.746 121.387 146.237 119.849 145.071L65.9395 104.461L74.7174 92.8218L128.613 133.474C129.379 134.048 130.024 134.768 130.51 135.592C130.997 136.416 131.317 137.328 131.45 138.276C131.584 139.224 131.529 140.189 131.289 141.115C131.048 142.042 130.628 142.912 130.05 143.675Z" fill="white"/>
<path d="M77.778 95.1355L69.0059 106.768L77.2957 113.019L86.0679 101.387L77.778 95.1355Z" fill="#16A34A"/>
<path opacity="0.3" d="M77.778 95.1355L69.0059 106.768L77.2957 113.019L86.0679 101.387L77.778 95.1355Z" fill="white"/>
<path opacity="0.8" d="M87.2487 102.283L78.4766 113.915L86.7665 120.167L95.5386 108.534L87.2487 102.283Z" fill="#16A34A"/>
<path opacity="0.3" d="M87.2487 102.283L78.4766 113.915L86.7665 120.167L95.5386 108.534L87.2487 102.283Z" fill="white"/>
<path opacity="0.6" d="M96.7194 109.43L87.9473 121.062L96.2372 127.314L105.009 115.681L96.7194 109.43Z" fill="#16A34A"/>
<path opacity="0.3" d="M96.7194 109.43L87.9473 121.062L96.2372 127.314L105.009 115.681L96.7194 109.43Z" fill="white"/>
<path opacity="0.4" d="M106.204 116.563L97.4316 128.195L105.722 134.447L114.494 122.814L106.204 116.563Z" fill="#16A34A"/>
<path opacity="0.3" d="M106.204 116.563L97.4316 128.195L105.722 134.447L114.494 122.814L106.204 116.563Z" fill="white"/>
<path d="M128.641 133.697C127.021 134.75 125.05 135.116 123.161 134.716C121.272 134.315 119.618 133.181 118.565 131.562L81.8066 74.9171L94.0315 66.9905L130.79 123.621C131.31 124.424 131.668 125.321 131.841 126.262C132.015 127.203 132.002 128.169 131.802 129.104C131.603 130.04 131.221 130.927 130.678 131.715C130.136 132.503 129.444 133.177 128.641 133.697Z" fill="#16A34A"/>
<path opacity="0.7" d="M128.641 133.697C127.021 134.75 125.05 135.116 123.161 134.716C121.272 134.315 119.618 133.181 118.565 131.562L81.8066 74.9171L94.0315 66.9905L130.79 123.621C131.31 124.424 131.668 125.321 131.841 126.262C132.015 127.203 132.002 128.169 131.802 129.104C131.603 130.04 131.221 130.927 130.678 131.715C130.136 132.503 129.444 133.177 128.641 133.697Z" fill="white"/>
<path d="M96.1143 70.2143L83.8926 78.1451L89.5444 86.8548L101.766 78.924L96.1143 70.2143Z" fill="#16A34A"/>
<path opacity="0.8" d="M102.569 80.1655L90.3477 88.0963L95.9995 96.806L108.221 88.8752L102.569 80.1655Z" fill="#16A34A"/>
<path opacity="0.6" d="M109.046 90.1284L96.8242 98.0592L102.476 106.769L114.698 98.8381L109.046 90.1284Z" fill="#16A34A"/>
<path opacity="0.4" d="M115.499 100.08L103.277 108.01L108.929 116.72L121.151 108.789L115.499 100.08Z" fill="#16A34A"/>
<path d="M132.772 130.292C130.889 130.722 128.911 130.388 127.274 129.362C125.636 128.337 124.472 126.704 124.036 124.821L108.881 59.0359L123.073 55.7563L138.243 121.528C138.46 122.463 138.491 123.431 138.333 124.378C138.176 125.324 137.833 126.23 137.325 127.044C136.817 127.858 136.153 128.564 135.372 129.122C134.591 129.679 133.708 130.076 132.772 130.292Z" fill="#16A34A"/>
<path opacity="0.6" d="M132.772 130.292C130.889 130.722 128.911 130.388 127.274 129.362C125.636 128.337 124.472 126.704 124.036 124.821L108.881 59.0359L123.073 55.7563L138.243 121.528C138.46 122.463 138.491 123.431 138.333 124.378C138.176 125.324 137.833 126.23 137.325 127.044C136.817 127.858 136.153 128.564 135.372 129.122C134.591 129.679 133.708 130.076 132.772 130.292Z" fill="white"/>
<path d="M123.943 59.4985L109.746 62.7709L112.078 72.8884L126.275 69.616L123.943 59.4985Z" fill="#16A34A"/>
<path opacity="0.4" d="M123.943 59.4985L109.746 62.7709L112.078 72.8884L126.275 69.616L123.943 59.4985Z" fill="#263238"/>
<path opacity="0.8" d="M126.599 71.0663L112.402 74.3387L114.734 84.4562L128.932 81.1838L126.599 71.0663Z" fill="#16A34A"/>
<path opacity="0.4" d="M126.599 71.0663L112.402 74.3387L114.734 84.4562L128.932 81.1838L126.599 71.0663Z" fill="#263238"/>
<path opacity="0.6" d="M129.269 82.6342L115.072 85.9066L117.404 96.0241L131.601 92.7516L129.269 82.6342Z" fill="#16A34A"/>
<path opacity="0.4" d="M129.269 82.6342L115.072 85.9066L117.404 96.0241L131.601 92.7516L129.269 82.6342Z" fill="#263238"/>
<path opacity="0.4" d="M131.935 94.1884L117.738 97.4609L120.07 107.578L134.268 104.306L131.935 94.1884Z" fill="#16A34A"/>
<path opacity="0.4" d="M131.935 94.1884L117.738 97.4609L120.07 107.578L134.268 104.306L131.935 94.1884Z" fill="#263238"/>
<path d="M52.8357 209.907L46.5837 210.591C46.0128 210.654 45.4901 210.941 45.1294 211.388C44.7686 211.835 44.5992 212.406 44.6579 212.977C44.7246 213.546 45.0123 214.065 45.4589 214.423C45.9055 214.781 46.475 214.948 47.0443 214.889L53.3102 214.219C53.8771 214.149 54.3942 213.861 54.7513 213.415C55.1084 212.969 55.2774 212.402 55.2221 211.833C55.1588 211.262 54.8725 210.739 54.4255 210.379C53.9786 210.018 53.4071 209.849 52.8357 209.907Z" fill="#263238"/>
<path d="M80.2299 204.046L64.4604 205.763C64.0553 205.804 63.6753 205.978 63.3799 206.259C63.0845 206.539 62.8903 206.909 62.8276 207.312L61.8926 213.633L84.3607 211.191L82.086 205.19C81.9352 204.83 81.675 204.525 81.342 204.32C81.0091 204.114 80.6201 204.019 80.2299 204.046Z" fill="#16A34A"/>
<path d="M88.5741 208.467L41.7225 213.557C38.0216 213.959 35.3474 217.285 35.7494 220.986L38.5769 247.013C38.9789 250.714 42.305 253.388 46.0059 252.986L92.8575 247.897C96.5584 247.495 99.2326 244.169 98.8306 240.468L96.0031 214.441C95.6011 210.74 92.275 208.065 88.5741 208.467Z" fill="#16A34A"/>
<path opacity="0.1" d="M51.1175 219.327L41.5293 220.393L44.0699 243.258L53.658 242.193L51.1175 219.327Z" fill="black"/>
<g opacity="0.8">
<path d="M88.6024 208.484L41.7124 213.633C39.9355 213.834 38.3095 214.728 37.1883 216.121C36.0671 217.514 35.5414 219.293 35.7255 221.072L95.9848 214.527C95.8015 212.749 94.9223 211.116 93.5392 209.983C92.1562 208.851 90.3815 208.312 88.6024 208.484Z" fill="white"/>
<path d="M45.9957 253.001L92.7881 247.922C94.564 247.722 96.1887 246.827 97.3077 245.434C98.4266 244.04 98.9491 242.261 98.761 240.483L38.5156 247.029C38.6146 247.912 38.8865 248.767 39.316 249.545C39.7454 250.324 40.324 251.01 41.0186 251.564C41.7132 252.119 42.5102 252.531 43.3642 252.778C44.2182 253.024 45.1124 253.1 45.9957 253.001Z" fill="white"/>
</g>
<path d="M89.9987 228.273C90.3103 231.154 89.7605 234.063 88.4189 236.631C87.0773 239.2 85.0042 241.314 82.4616 242.704C79.919 244.095 77.0212 244.7 74.1346 244.444C71.2479 244.187 68.5021 243.081 66.2443 241.264C63.9865 239.447 62.3181 237.002 61.4501 234.237C60.5821 231.472 60.5534 228.512 61.3677 225.731C62.1821 222.949 63.8028 220.472 66.0251 218.612C68.2473 216.752 70.9712 215.592 73.8523 215.28C75.7659 215.071 77.702 215.241 79.5497 215.781C81.3975 216.321 83.1205 217.221 84.6203 218.427C86.1201 219.634 87.3671 221.125 88.29 222.814C89.2129 224.504 89.7935 226.359 89.9987 228.273Z" fill="#263238"/>
<path opacity="0.4" d="M88.715 228.412C89.0006 231.033 88.5025 233.68 87.2837 236.018C86.0648 238.355 84.18 240.279 81.8676 241.545C79.5553 242.812 76.9193 243.364 74.2931 243.132C71.6669 242.9 69.1685 241.894 67.114 240.242C65.0595 238.59 63.5412 236.365 62.7512 233.85C61.9611 231.335 61.9348 228.642 62.6756 226.112C63.4163 223.581 64.8909 221.328 66.9127 219.636C68.9345 217.944 71.4128 216.889 74.0339 216.606C77.546 216.226 81.0652 217.257 83.818 219.471C86.5709 221.684 88.3322 224.9 88.715 228.412Z" fill="white"/>
<path d="M84.9337 228.831C85.1491 230.703 84.8038 232.597 83.9416 234.273C83.0795 235.948 81.7393 237.33 80.0909 238.244C78.4425 239.157 76.5601 239.56 74.6823 239.402C72.8044 239.245 71.0156 238.533 69.5426 237.358C68.0695 236.183 66.9785 234.597 66.4079 232.801C65.8372 231.005 65.8125 229.08 66.3369 227.27C66.8614 225.46 67.9113 223.846 69.3537 222.633C70.7961 221.421 72.5661 220.663 74.4393 220.458C76.9393 220.187 79.4452 220.915 81.4108 222.483C83.3765 224.051 84.6428 226.333 84.9337 228.831Z" fill="#263238"/>
<path d="M80.6204 225.816C80.665 226.231 80.5857 226.649 80.3924 227.019C80.1991 227.388 79.9005 227.692 79.5345 227.892C79.1685 228.092 78.7514 228.178 78.3362 228.141C77.9209 228.103 77.5261 227.944 77.2016 227.682C76.8772 227.42 76.6377 227.068 76.5136 226.669C76.3894 226.271 76.3861 225.846 76.5041 225.446C76.6221 225.046 76.8561 224.69 77.1765 224.423C77.4968 224.156 77.8891 223.99 78.3038 223.946C78.579 223.915 78.8575 223.939 79.1234 224.017C79.3892 224.094 79.637 224.224 79.8525 224.398C80.068 224.572 80.2468 224.787 80.3786 225.03C80.5104 225.274 80.5926 225.541 80.6204 225.816Z" fill="white"/>
<path d="M83.0219 222.007C83.0633 222.284 83.02 222.568 82.8978 222.82C82.7756 223.073 82.5801 223.283 82.3368 223.422C82.0935 223.562 81.8137 223.625 81.534 223.604C81.2542 223.582 80.9875 223.477 80.7686 223.301C80.5497 223.126 80.3888 222.888 80.3069 222.62C80.225 222.351 80.2259 222.065 80.3094 221.797C80.393 221.529 80.5554 221.292 80.7754 221.118C80.9954 220.944 81.2628 220.84 81.5426 220.82C81.8933 220.795 82.2404 220.904 82.5147 221.124C82.7889 221.344 82.9701 221.659 83.0219 222.007Z" fill="white"/>
</svg>
