<svg width="516" height="463" viewBox="0 0 516 463" fill="none" xmlns="http://www.w3.org/2000/svg">
<path d="M173.364 262.177H91.3887V214.069H92.6624V260.903H173.364V262.177Z" fill="#16A34A"/>
<path d="M282.582 190.519H281.308V145.366H41.9805V144.092H282.582V190.519Z" fill="#16A34A"/>
<path d="M440.33 214.706H72.1552C70.0932 214.686 68.1223 213.854 66.6701 212.39C65.218 210.926 64.4017 208.948 64.3984 206.886V144.729H65.6721V206.886C65.6721 208.622 66.3619 210.287 67.5896 211.515C68.8174 212.743 70.4826 213.433 72.2189 213.433H440.33V214.706Z" fill="#16A34A"/>
<path d="M110.174 167.605H72.1799C70.1101 167.588 68.1307 166.754 66.6731 165.285C65.2154 163.815 64.3975 161.829 64.3976 159.759V154.142L51.2148 145.226L51.9281 144.169L65.6713 153.454V159.759C65.6713 161.502 66.3637 163.174 67.5963 164.406C68.8288 165.639 70.5005 166.331 72.2436 166.331H110.238C111.981 166.331 113.653 165.639 114.885 164.406C116.118 163.174 116.81 161.502 116.81 159.759V152.639L128.273 144.22L129.025 145.252L118.071 153.276V159.759C118.071 160.794 117.867 161.818 117.469 162.773C117.072 163.729 116.489 164.596 115.755 165.325C115.021 166.054 114.15 166.631 113.192 167.022C112.235 167.414 111.209 167.612 110.174 167.605Z" fill="#16A34A"/>
<path d="M136.846 214.515L127.93 205.599V174.165C127.927 172.426 127.234 170.759 126.005 169.53C124.776 168.301 123.109 167.608 121.37 167.605H103.373V166.331H121.409C123.485 166.335 125.476 167.161 126.944 168.629C128.412 170.098 129.238 172.088 129.242 174.165V205.115L137.737 213.624L136.846 214.515Z" fill="#16A34A"/>
<path d="M313.304 214.936L305.662 207.293V197.69C305.662 195.952 304.973 194.286 303.745 193.056C302.518 191.826 300.853 191.134 299.115 191.13H241.442C239.705 191.134 238.04 191.826 236.812 193.056C235.585 194.286 234.896 195.952 234.896 197.69V207.293L227.699 214.49L226.795 213.598L233.622 206.771V197.69C233.625 195.615 234.45 193.627 235.915 192.159C237.381 190.691 239.368 189.863 241.442 189.856H299.141C301.216 189.86 303.205 190.687 304.672 192.155C306.138 193.624 306.961 195.614 306.961 197.69V206.771L314.209 214.019L313.304 214.936Z" fill="#16A34A"/>
<path d="M187.284 239.378H139.291C137.218 239.374 135.231 238.549 133.765 237.084C132.299 235.618 131.474 233.63 131.471 231.557V223.164L122.822 214.515L123.727 213.624L132.744 222.641V231.557C132.744 233.294 133.434 234.959 134.662 236.187C135.89 237.414 137.555 238.104 139.291 238.104H187.284C189.022 238.104 190.688 237.415 191.918 236.187C193.148 234.96 193.84 233.295 193.844 231.557V223.087L202.861 214.07L203.753 214.961L195.117 223.609V231.583C195.104 233.653 194.273 235.633 192.806 237.093C191.339 238.553 189.354 239.375 187.284 239.378Z" fill="#16A34A"/>
<path d="M412.398 239.378H364.393C362.32 239.374 360.332 238.549 358.867 237.084C357.401 235.618 356.576 233.63 356.572 231.557V223.164L347.924 214.515L348.828 213.624L357.846 222.641V231.557C357.849 233.293 358.54 234.956 359.767 236.183C360.994 237.41 362.657 238.101 364.393 238.104H412.398C414.134 238.101 415.797 237.41 417.024 236.183C418.251 234.956 418.942 233.293 418.945 231.557V223.087L427.963 214.07L428.867 214.961L420.219 223.609V231.583C420.209 233.652 419.381 235.632 417.916 237.093C416.45 238.553 414.467 239.375 412.398 239.378Z" fill="#16A34A"/>
<path d="M49.1133 144.729C49.1158 146.148 48.6974 147.536 47.911 148.717C47.1246 149.898 46.0055 150.819 44.6954 151.363C43.3853 151.908 41.9431 152.052 40.5512 151.777C39.1594 151.502 37.8805 150.82 36.8763 149.817C35.8722 148.815 35.1879 147.537 34.9102 146.146C34.6325 144.754 34.7737 143.312 35.3161 142.001C35.8585 140.69 36.7776 139.569 37.9571 138.781C39.1366 137.992 40.5236 137.571 41.9424 137.571C43.842 137.571 45.6641 138.325 47.0085 139.667C48.3529 141.009 49.1099 142.83 49.1133 144.729Z" fill="#16A34A"/>
<path d="M154.792 151.9C158.752 151.9 161.963 148.69 161.963 144.729C161.963 140.769 158.752 137.559 154.792 137.559C150.832 137.559 147.621 140.769 147.621 144.729C147.621 148.69 150.832 151.9 154.792 151.9Z" fill="#16A34A"/>
<path d="M154.792 221.801C158.752 221.801 161.963 218.59 161.963 214.63C161.963 210.669 158.752 207.459 154.792 207.459C150.832 207.459 147.621 210.669 147.621 214.63C147.621 218.59 150.832 221.801 154.792 221.801Z" fill="white"/>
<path d="M154.831 222.438C153.287 222.438 151.777 221.98 150.493 221.122C149.209 220.264 148.209 219.044 147.618 217.618C147.027 216.191 146.872 214.621 147.173 213.107C147.475 211.592 148.218 210.201 149.31 209.109C150.402 208.017 151.793 207.273 153.308 206.972C154.823 206.671 156.392 206.826 157.819 207.416C159.246 208.007 160.465 209.008 161.323 210.292C162.181 211.576 162.639 213.086 162.639 214.63C162.636 216.7 161.812 218.684 160.348 220.147C158.885 221.611 156.901 222.434 154.831 222.438ZM154.831 208.096C153.539 208.096 152.276 208.479 151.201 209.197C150.127 209.915 149.289 210.935 148.795 212.129C148.3 213.323 148.171 214.637 148.423 215.905C148.675 217.172 149.297 218.336 150.211 219.25C151.125 220.164 152.289 220.786 153.556 221.038C154.824 221.291 156.138 221.161 157.332 220.667C158.526 220.172 159.546 219.335 160.264 218.26C160.982 217.186 161.365 215.922 161.365 214.63C161.365 212.897 160.677 211.235 159.451 210.01C158.226 208.784 156.564 208.096 154.831 208.096Z" fill="#16A34A"/>
<path d="M223.356 214.63C223.356 216.048 222.935 217.435 222.147 218.614C221.359 219.793 220.239 220.712 218.929 221.255C217.618 221.798 216.177 221.94 214.786 221.663C213.395 221.386 212.117 220.703 211.114 219.7C210.111 218.698 209.428 217.42 209.151 216.029C208.875 214.638 209.017 213.196 209.56 211.886C210.102 210.575 211.021 209.455 212.201 208.667C213.38 207.88 214.766 207.459 216.185 207.459C218.086 207.459 219.91 208.214 221.255 209.559C222.6 210.904 223.356 212.728 223.356 214.63Z" fill="white"/>
<path d="M216.185 222.438C214.64 222.438 213.131 221.98 211.847 221.122C210.563 220.264 209.562 219.044 208.971 217.618C208.38 216.191 208.226 214.621 208.527 213.107C208.828 211.592 209.572 210.201 210.664 209.109C211.756 208.017 213.147 207.273 214.661 206.972C216.176 206.671 217.746 206.826 219.173 207.416C220.599 208.007 221.819 209.008 222.677 210.292C223.535 211.576 223.992 213.086 223.992 214.63C223.989 216.7 223.165 218.684 221.702 220.147C220.238 221.611 218.254 222.434 216.185 222.438ZM216.185 208.096C214.892 208.096 213.629 208.479 212.555 209.197C211.48 209.915 210.643 210.935 210.148 212.129C209.653 213.323 209.524 214.637 209.776 215.905C210.028 217.172 210.651 218.336 211.564 219.25C212.478 220.164 213.642 220.786 214.91 221.038C216.177 221.291 217.491 221.161 218.685 220.667C219.879 220.172 220.9 219.335 221.618 218.26C222.336 217.186 222.719 215.922 222.719 214.63C222.719 212.897 222.03 211.235 220.805 210.01C219.58 208.784 217.918 208.096 216.185 208.096Z" fill="#16A34A"/>
<path d="M161.963 238.741C161.963 240.159 161.542 241.546 160.754 242.725C159.966 243.904 158.847 244.823 157.536 245.366C156.226 245.909 154.784 246.051 153.393 245.774C152.002 245.497 150.724 244.814 149.721 243.812C148.719 242.809 148.036 241.531 147.759 240.14C147.482 238.749 147.624 237.307 148.167 235.997C148.71 234.686 149.629 233.567 150.808 232.779C151.987 231.991 153.374 231.57 154.792 231.57C156.694 231.57 158.518 232.326 159.863 233.67C161.207 235.015 161.963 236.839 161.963 238.741Z" fill="#16A34A"/>
<path opacity="0.2" d="M161.963 238.741C161.963 240.159 161.542 241.546 160.754 242.725C159.966 243.904 158.847 244.823 157.536 245.366C156.226 245.909 154.784 246.051 153.393 245.774C152.002 245.497 150.724 244.814 149.721 243.812C148.719 242.809 148.036 241.531 147.759 240.14C147.482 238.749 147.624 237.307 148.167 235.997C148.71 234.686 149.629 233.567 150.808 232.779C151.987 231.991 153.374 231.57 154.792 231.57C156.694 231.57 158.518 232.326 159.863 233.67C161.207 235.015 161.963 236.839 161.963 238.741Z" fill="black"/>
<path d="M179.412 238.741C179.412 240.159 178.992 241.546 178.204 242.725C177.416 243.904 176.296 244.823 174.985 245.366C173.675 245.909 172.233 246.051 170.842 245.774C169.451 245.497 168.174 244.814 167.171 243.812C166.168 242.809 165.485 241.531 165.208 240.14C164.931 238.749 165.073 237.307 165.616 235.997C166.159 234.686 167.078 233.567 168.257 232.779C169.437 231.991 170.823 231.57 172.241 231.57C174.143 231.57 175.967 232.326 177.312 233.67C178.657 235.015 179.412 236.839 179.412 238.741Z" fill="#16A34A"/>
<path opacity="0.2" d="M179.412 238.741C179.412 240.159 178.992 241.546 178.204 242.725C177.416 243.904 176.296 244.823 174.985 245.366C173.675 245.909 172.233 246.051 170.842 245.774C169.451 245.497 168.174 244.814 167.171 243.812C166.168 242.809 165.485 241.531 165.208 240.14C164.931 238.749 165.073 237.307 165.616 235.997C166.159 234.686 167.078 233.567 168.257 232.779C169.437 231.991 170.823 231.57 172.241 231.57C174.143 231.57 175.967 232.326 177.312 233.67C178.657 235.015 179.412 236.839 179.412 238.741Z" fill="black"/>
<path d="M387.229 238.741C387.229 240.159 386.808 241.546 386.02 242.725C385.232 243.904 384.112 244.823 382.802 245.366C381.492 245.909 380.05 246.051 378.659 245.774C377.268 245.497 375.99 244.814 374.987 243.812C373.984 242.809 373.301 241.531 373.025 240.14C372.748 238.749 372.89 237.307 373.433 235.997C373.975 234.686 374.894 233.567 376.074 232.779C377.253 231.991 378.639 231.57 380.058 231.57C381.959 231.57 383.783 232.326 385.128 233.67C386.473 235.015 387.229 236.839 387.229 238.741Z" fill="#16A34A"/>
<path d="M404.602 238.741C404.602 240.159 404.181 241.546 403.393 242.725C402.605 243.904 401.485 244.823 400.175 245.366C398.865 245.909 397.423 246.051 396.032 245.774C394.641 245.497 393.363 244.814 392.36 243.812C391.357 242.809 390.674 241.531 390.398 240.14C390.121 238.749 390.263 237.307 390.806 235.997C391.348 234.686 392.267 233.567 393.447 232.779C394.626 231.991 396.012 231.57 397.431 231.57C399.333 231.57 401.156 232.326 402.501 233.67C403.846 235.015 404.602 236.839 404.602 238.741Z" fill="#16A34A"/>
<path d="M281.946 151.9C285.907 151.9 289.117 148.69 289.117 144.729C289.117 140.769 285.907 137.559 281.946 137.559C277.986 137.559 274.775 140.769 274.775 144.729C274.775 148.69 277.986 151.9 281.946 151.9Z" fill="#16A34A"/>
<path d="M92.0244 174.801C95.9848 174.801 99.1953 171.591 99.1953 167.63C99.1953 163.67 95.9848 160.46 92.0244 160.46C88.064 160.46 84.8535 163.67 84.8535 167.63C84.8535 171.591 88.064 174.801 92.0244 174.801Z" fill="#16A34A"/>
<path d="M92.0244 221.24C95.9848 221.24 99.1953 218.03 99.1953 214.069C99.1953 210.109 95.9848 206.899 92.0244 206.899C88.064 206.899 84.8535 210.109 84.8535 214.069C84.8535 218.03 88.064 221.24 92.0244 221.24Z" fill="white"/>
<path d="M92.0256 221.877C90.4808 221.88 88.97 221.424 87.6843 220.568C86.3987 219.711 85.396 218.493 84.8031 217.066C84.2102 215.64 84.0537 214.069 84.3536 212.554C84.6534 211.039 85.396 209.646 86.4874 208.553C87.5788 207.46 88.97 206.715 90.4849 206.413C91.9998 206.11 93.5704 206.264 94.9978 206.855C96.4252 207.445 97.6454 208.446 98.5039 209.73C99.3624 211.015 99.8206 212.525 99.8206 214.069C99.8172 216.137 98.9953 218.119 97.5346 219.582C96.0738 221.045 94.0931 221.871 92.0256 221.877ZM92.0256 207.535C90.7327 207.533 89.4682 207.914 88.392 208.63C87.3158 209.347 86.4763 210.366 85.9798 211.56C85.4833 212.754 85.3521 214.068 85.6028 215.336C85.8535 216.605 86.4748 217.77 87.3881 218.685C88.3013 219.6 89.4656 220.224 90.7334 220.477C92.0013 220.73 93.3157 220.602 94.5104 220.107C95.705 219.613 96.7263 218.776 97.4448 217.701C98.1634 216.626 98.5469 215.362 98.5469 214.069C98.5469 212.339 97.8602 210.679 96.6376 209.454C95.415 208.229 93.7563 207.539 92.0256 207.535Z" fill="#16A34A"/>
<path d="M92.0244 268.711C95.9848 268.711 99.1953 265.501 99.1953 261.54C99.1953 257.58 95.9848 254.369 92.0244 254.369C88.064 254.369 84.8535 257.58 84.8535 261.54C84.8535 265.501 88.064 268.711 92.0244 268.711Z" fill="#16A34A"/>
<path opacity="0.2" d="M92.0244 268.711C95.9848 268.711 99.1953 265.501 99.1953 261.54C99.1953 257.58 95.9848 254.369 92.0244 254.369C88.064 254.369 84.8535 257.58 84.8535 261.54C84.8535 265.501 88.064 268.711 92.0244 268.711Z" fill="black"/>
<path d="M122.618 268.711C126.579 268.711 129.789 265.501 129.789 261.54C129.789 257.58 126.579 254.369 122.618 254.369C118.658 254.369 115.447 257.58 115.447 261.54C115.447 265.501 118.658 268.711 122.618 268.711Z" fill="#16A34A"/>
<path opacity="0.2" d="M122.618 268.711C126.579 268.711 129.789 265.501 129.789 261.54C129.789 257.58 126.579 254.369 122.618 254.369C118.658 254.369 115.447 257.58 115.447 261.54C115.447 265.501 118.658 268.711 122.618 268.711Z" fill="black"/>
<path d="M172.241 268.711C176.202 268.711 179.412 265.501 179.412 261.54C179.412 257.58 176.202 254.369 172.241 254.369C168.281 254.369 165.07 257.58 165.07 261.54C165.07 265.501 168.281 268.711 172.241 268.711Z" fill="#16A34A"/>
<path opacity="0.2" d="M172.241 268.711C176.202 268.711 179.412 265.501 179.412 261.54C179.412 257.58 176.202 254.369 172.241 254.369C168.281 254.369 165.07 257.58 165.07 261.54C165.07 265.501 168.281 268.711 172.241 268.711Z" fill="black"/>
<path d="M115.447 214.069C115.447 215.488 115.027 216.874 114.239 218.053C113.451 219.233 112.331 220.152 111.021 220.695C109.71 221.237 108.268 221.379 106.877 221.103C105.486 220.826 104.209 220.143 103.206 219.14C102.203 218.137 101.52 216.859 101.243 215.468C100.967 214.077 101.109 212.636 101.651 211.325C102.194 210.015 103.113 208.895 104.292 208.107C105.472 207.319 106.858 206.899 108.276 206.899C110.178 206.899 112.002 207.654 113.347 208.999C114.692 210.344 115.447 212.168 115.447 214.069Z" fill="white"/>
<path d="M108.277 221.877C106.732 221.877 105.223 221.419 103.939 220.561C102.655 219.703 101.654 218.484 101.063 217.057C100.472 215.631 100.318 214.061 100.619 212.546C100.92 211.032 101.664 209.64 102.756 208.549C103.848 207.457 105.239 206.713 106.753 206.412C108.268 206.11 109.838 206.265 111.264 206.856C112.691 207.447 113.91 208.448 114.768 209.732C115.626 211.016 116.084 212.525 116.084 214.069C116.081 216.139 115.257 218.123 113.794 219.587C112.33 221.05 110.346 221.874 108.277 221.877ZM108.277 207.535C106.984 207.535 105.721 207.919 104.646 208.637C103.572 209.355 102.734 210.375 102.24 211.569C101.745 212.763 101.616 214.077 101.868 215.344C102.12 216.612 102.742 217.776 103.656 218.69C104.57 219.604 105.734 220.226 107.002 220.478C108.269 220.73 109.583 220.601 110.777 220.106C111.971 219.612 112.991 218.774 113.709 217.7C114.427 216.625 114.811 215.362 114.811 214.069C114.811 212.337 114.122 210.675 112.897 209.449C111.671 208.224 110.009 207.535 108.277 207.535Z" fill="#16A34A"/>
<path d="M270.469 190.519C270.469 191.937 270.048 193.324 269.26 194.503C268.472 195.682 267.352 196.601 266.042 197.144C264.732 197.687 263.29 197.829 261.899 197.552C260.508 197.275 259.23 196.592 258.227 195.589C257.224 194.587 256.541 193.309 256.265 191.918C255.988 190.527 256.13 189.085 256.673 187.775C257.216 186.464 258.135 185.344 259.314 184.556C260.493 183.768 261.88 183.348 263.298 183.348C265.2 183.348 267.024 184.103 268.368 185.448C269.713 186.793 270.469 188.617 270.469 190.519Z" fill="#16A34A"/>
<path opacity="0.4" d="M270.469 190.519C270.469 191.937 270.048 193.324 269.26 194.503C268.472 195.682 267.352 196.601 266.042 197.144C264.732 197.687 263.29 197.829 261.899 197.552C260.508 197.275 259.23 196.592 258.227 195.589C257.224 194.587 256.541 193.309 256.265 191.918C255.988 190.527 256.13 189.085 256.673 187.775C257.216 186.464 258.135 185.344 259.314 184.556C260.493 183.768 261.88 183.348 263.298 183.348C265.2 183.348 267.024 184.103 268.368 185.448C269.713 186.793 270.469 188.617 270.469 190.519Z" fill="black"/>
<path d="M335.198 221.24C339.159 221.24 342.369 218.03 342.369 214.069C342.369 210.109 339.159 206.899 335.198 206.899C331.238 206.899 328.027 210.109 328.027 214.069C328.027 218.03 331.238 221.24 335.198 221.24Z" fill="white"/>
<path d="M335.198 221.877C333.654 221.877 332.145 221.419 330.861 220.561C329.577 219.703 328.576 218.484 327.985 217.057C327.394 215.631 327.239 214.061 327.541 212.546C327.842 211.032 328.586 209.64 329.677 208.549C330.769 207.457 332.161 206.713 333.675 206.412C335.19 206.11 336.76 206.265 338.186 206.856C339.613 207.447 340.832 208.448 341.69 209.732C342.548 211.016 343.006 212.525 343.006 214.069C343.003 216.139 342.179 218.123 340.716 219.587C339.252 221.05 337.268 221.874 335.198 221.877ZM335.198 207.535C333.906 207.535 332.643 207.919 331.568 208.637C330.494 209.355 329.656 210.375 329.162 211.569C328.667 212.763 328.538 214.077 328.79 215.344C329.042 216.612 329.664 217.776 330.578 218.69C331.492 219.604 332.656 220.226 333.924 220.478C335.191 220.73 336.505 220.601 337.699 220.106C338.893 219.612 339.913 218.774 340.631 217.7C341.349 216.625 341.732 215.362 341.732 214.069C341.732 212.337 341.044 210.675 339.819 209.449C338.593 208.224 336.931 207.535 335.198 207.535Z" fill="#16A34A"/>
<path d="M380.058 221.24C384.018 221.24 387.229 218.03 387.229 214.069C387.229 210.109 384.018 206.899 380.058 206.899C376.097 206.899 372.887 210.109 372.887 214.069C372.887 218.03 376.097 221.24 380.058 221.24Z" fill="white"/>
<path d="M380.058 221.877C378.514 221.877 377.004 221.419 375.72 220.561C374.436 219.703 373.435 218.484 372.844 217.057C372.253 215.631 372.099 214.061 372.4 212.546C372.701 211.032 373.445 209.64 374.537 208.549C375.629 207.457 377.02 206.713 378.535 206.412C380.049 206.11 381.619 206.265 383.046 206.856C384.472 207.447 385.692 208.448 386.55 209.732C387.408 211.016 387.866 212.525 387.866 214.069C387.862 216.139 387.038 218.123 385.575 219.587C384.111 221.05 382.127 221.874 380.058 221.877ZM380.058 207.535C378.765 207.535 377.502 207.919 376.428 208.637C375.353 209.355 374.516 210.375 374.021 211.569C373.527 212.763 373.397 214.077 373.649 215.344C373.901 216.612 374.524 217.776 375.437 218.69C376.351 219.604 377.516 220.226 378.783 220.478C380.051 220.73 381.364 220.601 382.558 220.106C383.752 219.612 384.773 218.774 385.491 217.7C386.209 216.625 386.592 215.362 386.592 214.069C386.592 212.337 385.903 210.675 384.678 209.449C383.453 208.224 381.791 207.535 380.058 207.535Z" fill="#16A34A"/>
<path d="M397.431 221.24C401.391 221.24 404.602 218.03 404.602 214.069C404.602 210.109 401.391 206.899 397.431 206.899C393.47 206.899 390.26 210.109 390.26 214.069C390.26 218.03 393.47 221.24 397.431 221.24Z" fill="white"/>
<path d="M397.431 221.877C395.887 221.877 394.377 221.419 393.093 220.561C391.809 219.703 390.808 218.484 390.217 217.057C389.626 215.631 389.472 214.061 389.773 212.546C390.074 211.032 390.818 209.64 391.91 208.549C393.002 207.457 394.393 206.713 395.908 206.412C397.422 206.11 398.992 206.265 400.419 206.856C401.845 207.447 403.065 208.448 403.923 209.732C404.781 211.016 405.239 212.525 405.239 214.069C405.235 216.139 404.412 218.123 402.948 219.587C401.484 221.05 399.501 221.874 397.431 221.877ZM397.431 207.535C396.138 207.535 394.875 207.919 393.801 208.637C392.726 209.355 391.889 210.375 391.394 211.569C390.9 212.763 390.77 214.077 391.022 215.344C391.274 216.612 391.897 217.776 392.811 218.69C393.724 219.604 394.889 220.226 396.156 220.478C397.424 220.73 398.737 220.601 399.931 220.106C401.125 219.612 402.146 218.774 402.864 217.7C403.582 216.625 403.965 215.362 403.965 214.069C403.965 212.337 403.276 210.675 402.051 209.449C400.826 208.224 399.164 207.535 397.431 207.535Z" fill="#16A34A"/>
<path d="M440.329 221.24C444.29 221.24 447.5 218.03 447.5 214.069C447.5 210.109 444.29 206.899 440.329 206.899C436.369 206.899 433.158 210.109 433.158 214.069C433.158 218.03 436.369 221.24 440.329 221.24Z" fill="white"/>
<path d="M440.33 221.877C438.786 221.88 437.275 221.424 435.989 220.568C434.703 219.711 433.701 218.493 433.108 217.066C432.515 215.64 432.358 214.069 432.658 212.554C432.958 211.039 433.701 209.646 434.792 208.553C435.884 207.46 437.275 206.715 438.79 206.413C440.305 206.11 441.875 206.264 443.302 206.855C444.73 207.445 445.95 208.446 446.809 209.73C447.667 211.015 448.125 212.525 448.125 214.069C448.122 216.137 447.3 218.119 445.839 219.582C444.378 221.045 442.398 221.871 440.33 221.877ZM440.33 207.535C439.037 207.533 437.773 207.914 436.697 208.63C435.62 209.347 434.781 210.366 434.285 211.56C433.788 212.754 433.657 214.068 433.907 215.336C434.158 216.605 434.779 217.77 435.693 218.685C436.606 219.6 437.77 220.224 439.038 220.477C440.306 220.73 441.62 220.602 442.815 220.107C444.01 219.613 445.031 218.776 445.75 217.701C446.468 216.626 446.852 215.362 446.852 214.069C446.852 212.339 446.165 210.679 444.942 209.454C443.72 208.229 442.061 207.539 440.33 207.535Z" fill="#16A34A"/>
<path d="M289.104 190.519C289.104 191.938 288.683 193.325 287.894 194.504C287.106 195.684 285.985 196.603 284.674 197.145C283.363 197.687 281.92 197.829 280.529 197.551C279.138 197.273 277.86 196.589 276.858 195.585C275.855 194.581 275.173 193.302 274.898 191.91C274.623 190.518 274.767 189.076 275.311 187.766C275.856 186.456 276.777 185.337 277.958 184.55C279.139 183.764 280.527 183.345 281.945 183.348C283.845 183.351 285.666 184.108 287.008 185.453C288.35 186.797 289.104 188.619 289.104 190.519Z" fill="#16A34A"/>
<path opacity="0.4" d="M289.104 190.519C289.104 191.938 288.683 193.325 287.894 194.504C287.106 195.684 285.985 196.603 284.674 197.145C283.363 197.687 281.92 197.829 280.529 197.551C279.138 197.273 277.86 196.589 276.858 195.585C275.855 194.581 275.173 193.302 274.898 191.91C274.623 190.518 274.767 189.076 275.311 187.766C275.856 186.456 276.777 185.337 277.958 184.55C279.139 183.764 280.527 183.345 281.945 183.348C283.845 183.351 285.666 184.108 287.008 185.453C288.35 186.797 289.104 188.619 289.104 190.519Z" fill="black"/>
<path d="M43.5851 115.129V124.146C43.5868 124.259 43.5664 124.37 43.5251 124.474C43.4837 124.578 43.4223 124.673 43.3442 124.754C43.2661 124.834 43.173 124.898 43.0701 124.943C42.9672 124.987 42.8566 125.011 42.7445 125.013C42.6336 125.014 42.5235 124.994 42.4208 124.952C42.318 124.91 42.2246 124.849 42.1462 124.77C42.0678 124.692 42.006 124.598 41.9643 124.496C41.9227 124.393 41.9021 124.283 41.9038 124.172V116.657L41.2925 117.001C41.1669 117.082 41.0214 117.126 40.8721 117.128C40.6867 117.128 40.5065 117.067 40.3588 116.955C40.2111 116.843 40.1039 116.685 40.0536 116.507C40.0032 116.328 40.0123 116.138 40.0796 115.966C40.1469 115.793 40.2686 115.646 40.4264 115.549L42.2987 114.441C42.2987 114.441 42.2987 114.441 42.3751 114.441H42.4643H42.8719C42.8719 114.441 42.8719 114.441 42.961 114.441H43.0247C43.0247 114.441 43.0247 114.441 43.1139 114.441C43.1194 114.466 43.1194 114.492 43.1139 114.517C43.1139 114.517 43.1139 114.581 43.1139 114.594C43.1117 114.619 43.1117 114.645 43.1139 114.67C43.1002 114.707 43.1002 114.748 43.1139 114.785L43.5851 115.129Z" fill="#263238"/>
<path d="M158.18 124.146C158.182 124.257 158.161 124.367 158.119 124.47C158.078 124.573 158.016 124.666 157.938 124.745C157.859 124.823 157.766 124.885 157.663 124.927C157.56 124.968 157.45 124.989 157.339 124.987H151.901C151.732 124.985 151.567 124.933 151.428 124.838C151.288 124.742 151.18 124.608 151.118 124.451C151.055 124.294 151.04 124.122 151.075 123.957C151.11 123.791 151.194 123.64 151.315 123.522L155.836 119.421C156.044 119.238 156.21 119.013 156.322 118.76C156.434 118.507 156.49 118.233 156.486 117.956C156.471 117.485 156.29 117.034 155.976 116.683C155.793 116.475 155.568 116.31 155.315 116.198C155.062 116.086 154.788 116.03 154.512 116.033C154.04 116.044 153.587 116.225 153.238 116.543L152.754 116.963C152.678 117.043 152.586 117.108 152.484 117.151C152.382 117.195 152.273 117.218 152.162 117.218C152.051 117.218 151.941 117.195 151.839 117.151C151.737 117.108 151.646 117.043 151.569 116.963C151.49 116.885 151.427 116.791 151.384 116.689C151.341 116.586 151.319 116.476 151.319 116.364C151.319 116.253 151.341 116.142 151.384 116.04C151.427 115.937 151.49 115.844 151.569 115.766L152.041 115.332C152.397 115.01 152.814 114.761 153.268 114.599C153.721 114.438 154.201 114.368 154.682 114.393C155.162 114.418 155.633 114.537 156.067 114.744C156.501 114.951 156.89 115.242 157.212 115.6C157.832 116.268 158.173 117.147 158.167 118.058C158.165 118.57 158.056 119.075 157.848 119.542C157.64 120.009 157.336 120.428 156.957 120.771L154.066 123.395H157.378C157.579 123.403 157.771 123.483 157.919 123.621C158.066 123.759 158.159 123.946 158.18 124.146Z" fill="#263238"/>
<path d="M284.06 118.491C284.415 118.84 284.698 119.256 284.891 119.715C285.083 120.175 285.182 120.668 285.18 121.166C285.17 121.912 284.941 122.639 284.522 123.257C284.103 123.875 283.513 124.357 282.823 124.643C282.133 124.928 281.375 125.006 280.642 124.866C279.909 124.726 279.233 124.374 278.697 123.854C278.528 123.685 278.434 123.456 278.434 123.217C278.434 122.978 278.528 122.749 278.697 122.58C278.866 122.411 279.095 122.316 279.334 122.316C279.573 122.316 279.802 122.411 279.971 122.58C280.161 122.771 280.388 122.922 280.637 123.025C280.886 123.127 281.154 123.18 281.423 123.179C281.971 123.179 282.497 122.964 282.888 122.58C283.257 122.211 283.467 121.713 283.474 121.192C283.478 120.92 283.425 120.651 283.32 120.401C283.215 120.152 283.059 119.926 282.862 119.74C282.673 119.547 282.447 119.394 282.197 119.289C281.948 119.184 281.681 119.129 281.41 119.128C281.291 119.135 281.173 119.113 281.064 119.065C280.955 119.016 280.86 118.942 280.786 118.848C280.698 118.767 280.628 118.668 280.58 118.559C280.532 118.449 280.507 118.331 280.507 118.211C280.507 118.091 280.532 117.973 280.58 117.863C280.628 117.754 280.698 117.655 280.786 117.574L282.353 115.982H279.882C279.76 115.997 279.637 115.986 279.52 115.949C279.403 115.913 279.295 115.852 279.203 115.771C279.111 115.69 279.038 115.59 278.987 115.478C278.937 115.366 278.911 115.245 278.911 115.122C278.911 115 278.937 114.879 278.987 114.767C279.038 114.655 279.111 114.555 279.203 114.474C279.295 114.393 279.403 114.332 279.52 114.295C279.637 114.259 279.76 114.248 279.882 114.263H284.378C284.492 114.259 284.606 114.279 284.712 114.32C284.819 114.361 284.916 114.424 284.998 114.503C285.08 114.583 285.145 114.678 285.19 114.783C285.234 114.889 285.257 115.002 285.257 115.116C285.254 115.259 285.215 115.4 285.142 115.524C285.103 115.603 285.052 115.676 284.989 115.74L283.066 117.727C283.438 117.923 283.774 118.182 284.06 118.491Z" fill="#263238"/>
<path d="M39.1543 129.229H44.8095L41.9819 132.617L39.1543 129.229Z" fill="#263238"/>
<path d="M151.965 129.229H157.62L154.792 132.617L151.965 129.229Z" fill="#263238"/>
<path d="M279.117 129.229H284.76L281.945 132.617L279.117 129.229Z" fill="#263238"/>
<path d="M228.412 261.54H207.447V273.666H228.412V261.54Z" fill="#16A34A"/>
<path d="M297.586 261.54H276.621V273.666H297.586V261.54Z" fill="white"/>
<path d="M298.21 274.303H275.984V260.903H298.21V274.303ZM277.258 273.029H296.937V262.177H277.258V273.029Z" fill="#16A34A"/>
<path d="M366.748 261.54H345.783V273.666H366.748V261.54Z" fill="#16A34A"/>
<path opacity="0.4" d="M366.748 261.54H345.783V273.666H366.748V261.54Z" fill="black"/>
<path d="M435.922 261.54H414.957V273.666H435.922V261.54Z" fill="#16A34A"/>
<path opacity="0.2" d="M435.922 261.54H414.957V273.666H435.922V261.54Z" fill="black"/>
<path d="M257.759 262.228H234.781V263.502H257.759V262.228Z" fill="#C7C7C7"/>
<path d="M249.531 266.329H234.781V267.603H249.531V266.329Z" fill="#C7C7C7"/>
<path d="M326.575 262.228H303.598V263.502H326.575V262.228Z" fill="#C7C7C7"/>
<path d="M315.086 266.329H303.598V267.603H315.086V266.329Z" fill="#C7C7C7"/>
<path d="M383.893 262.228H372.404V263.502H383.893V262.228Z" fill="#C7C7C7"/>
<path d="M390.593 266.329H372.404V267.603H390.593V266.329Z" fill="#C7C7C7"/>
<path d="M457.716 262.228H441.209V263.502H457.716V262.228Z" fill="#C7C7C7"/>
<path d="M464.186 266.329H441.209V267.603H464.186V266.329Z" fill="#C7C7C7"/>
<path d="M398.629 0.0629387H279.373V97.9975H398.629V0.0629387Z" fill="#37474F"/>
<path d="M399.087 98.456H278.914L279.373 0.0629387H398.629L399.087 98.456Z" fill="#263238"/>
<path d="M398.629 0.0629387H279.373V8.68586H398.629V0.0629387Z" fill="#16A34A"/>
<path d="M287.473 4.44443C287.473 4.8752 287.345 5.2963 287.106 5.65447C286.867 6.01265 286.527 6.29181 286.129 6.45666C285.731 6.62151 285.293 6.66464 284.87 6.5806C284.448 6.49656 284.06 6.28913 283.755 5.98452C283.451 5.67992 283.243 5.29183 283.159 4.86934C283.075 4.44685 283.118 4.00892 283.283 3.61094C283.448 3.21296 283.727 2.8728 284.085 2.63347C284.443 2.39415 284.864 2.26641 285.295 2.26641C285.873 2.26641 286.427 2.49588 286.835 2.90434C287.244 3.3128 287.473 3.86678 287.473 4.44443Z" fill="#A6A6A6"/>
<path d="M296.338 4.44443C296.338 4.8752 296.211 5.2963 295.971 5.65447C295.732 6.01265 295.392 6.29181 294.994 6.45666C294.596 6.62151 294.158 6.66464 293.736 6.5806C293.313 6.49656 292.925 6.28913 292.62 5.98452C292.316 5.67992 292.108 5.29183 292.024 4.86934C291.94 4.44685 291.983 4.00892 292.148 3.61094C292.313 3.21296 292.592 2.8728 292.95 2.63347C293.309 2.39415 293.73 2.26641 294.16 2.26641C294.738 2.26641 295.292 2.49588 295.701 2.90434C296.109 3.3128 296.338 3.86678 296.338 4.44443Z" fill="#EBEBEB"/>
<path d="M305.204 4.44443C305.204 4.8752 305.076 5.2963 304.837 5.65447C304.597 6.01265 304.257 6.29181 303.859 6.45666C303.461 6.62151 303.023 6.66464 302.601 6.5806C302.178 6.49656 301.79 6.28913 301.486 5.98452C301.181 5.67992 300.974 5.29183 300.89 4.86934C300.805 4.44685 300.849 4.00892 301.013 3.61094C301.178 3.21296 301.457 2.8728 301.816 2.63347C302.174 2.39415 302.595 2.26641 303.026 2.26641C303.603 2.26641 304.157 2.49588 304.566 2.90434C304.974 3.3128 305.204 3.86678 305.204 4.44443Z" fill="white"/>
<path d="M293.244 25.8553H288.633V27.5366H293.244V25.8553Z" fill="#EBEBEB"/>
<path d="M349.515 25.8553H296.605V27.5366H349.515V25.8553Z" fill="#EBEBEB"/>
<path d="M361.105 25.8553H352.342V27.5366H361.105V25.8553Z" fill="white"/>
<path d="M381.142 48.3997H372.379V50.0809H381.142V48.3997Z" fill="#EBEBEB"/>
<path d="M378.148 25.8553H363.004V27.5366H378.148V25.8553Z" fill="#A6A6A6"/>
<path d="M297.855 30.3642H293.244V32.0455H297.855V30.3642Z" fill="#EBEBEB"/>
<path d="M335.823 30.3642H301.102V32.0455H335.823V30.3642Z" fill="#A6A6A6"/>
<path d="M370.289 48.3997H349.961V50.0809H370.289V48.3997Z" fill="#A6A6A6"/>
<path d="M329.773 43.8909H296.605V45.5722H329.773V43.8909Z" fill="#A6A6A6"/>
<path d="M324.372 34.873H301.102V36.5543H324.372V34.873Z" fill="white"/>
<path d="M367.079 39.382H358.201V41.0632H367.079V39.382Z" fill="#A6A6A6"/>
<path d="M364.099 34.873H326.945V36.5543H364.099V34.873Z" fill="#A6A6A6"/>
<path d="M340.956 48.3997H296.605V50.0809H340.956V48.3997Z" fill="white"/>
<path d="M386.058 30.3642H362.023V32.0455H386.058V30.3642Z" fill="white"/>
<path d="M360.124 30.3642H338V32.0455H360.124V30.3642Z" fill="#EBEBEB"/>
<path d="M380.771 34.873H365.844V36.5543H380.771V34.873Z" fill="#EBEBEB"/>
<path d="M297.855 34.873H293.244V36.5543H297.855V34.873Z" fill="#EBEBEB"/>
<path d="M293.244 39.382H288.633V41.0632H293.244V39.382Z" fill="#A6A6A6"/>
<path d="M323.863 39.382H296.605V41.0632H323.863V39.382Z" fill="#EBEBEB"/>
<path d="M328.359 52.9086H301.102V54.5899H328.359V52.9086Z" fill="#EBEBEB"/>
<path d="M372.645 57.4175H351.922V59.0988H372.645V57.4175Z" fill="#A6A6A6"/>
<path d="M357.896 52.9086H330.562V54.5899H357.896V52.9086Z" fill="white"/>
<path d="M349.541 57.4175H325.748V59.0988H349.541V57.4175Z" fill="white"/>
<path d="M323.862 59.1116L311.049 59.0988V57.4175L323.862 57.4303V59.1116Z" fill="#EBEBEB"/>
<path d="M308.998 57.4175H301.102V59.0988H308.998V57.4175Z" fill="#A6A6A6"/>
<path d="M361.093 43.8909H331.633V45.5722H361.093V43.8909Z" fill="#EBEBEB"/>
<path d="M381.753 43.8909H363.004V45.5722H381.753V43.8909Z" fill="white"/>
<path d="M356.049 39.382H326.627V41.0632H356.049V39.382Z" fill="white"/>
<path d="M293.244 43.8909H288.633V45.5722H293.244V43.8909Z" fill="#EBEBEB"/>
<path d="M293.244 48.3997H288.633V50.0809H293.244V48.3997Z" fill="#EBEBEB"/>
<path d="M297.855 52.9086H293.244V54.5899H297.855V52.9086Z" fill="#A6A6A6"/>
<path d="M297.855 57.4175H293.244V59.0988H297.855V57.4175Z" fill="#EBEBEB"/>
<path d="M293.244 61.1876H288.633V62.8689H293.244V61.1876Z" fill="#EBEBEB"/>
<path d="M328.881 61.1876H296.605V62.8689H328.881V61.1876Z" fill="#EBEBEB"/>
<path d="M297.855 65.6966H293.244V67.3778H297.855V65.6966Z" fill="#EBEBEB"/>
<path d="M335.823 65.6966H301.102V67.3778H335.823V65.6966Z" fill="#A6A6A6"/>
<path d="M329.773 79.2232H296.605V80.9045H329.773V79.2232Z" fill="#A6A6A6"/>
<path d="M324.372 70.2054H301.102V71.8867H324.372V70.2054Z" fill="white"/>
<path d="M364.099 70.2054H326.945V71.8867H364.099V70.2054Z" fill="#A6A6A6"/>
<path d="M340.956 83.7321H296.605V85.4134H340.956V83.7321Z" fill="white"/>
<path d="M386.058 65.6966H362.023V67.3778H386.058V65.6966Z" fill="white"/>
<path d="M360.124 65.6966H338V67.3778H360.124V65.6966Z" fill="#EBEBEB"/>
<path d="M380.771 70.2054H365.844V71.8867H380.771V70.2054Z" fill="#EBEBEB"/>
<path d="M297.855 70.2054H293.244V71.8867H297.855V70.2054Z" fill="#EBEBEB"/>
<path d="M293.244 74.7143H288.633V76.3956H293.244V74.7143Z" fill="#A6A6A6"/>
<path d="M323.863 74.7143H296.605V76.3956H323.863V74.7143Z" fill="#EBEBEB"/>
<path d="M361.093 79.2232H331.633V80.9045H361.093V79.2232Z" fill="#EBEBEB"/>
<path d="M356.049 74.7143H326.627V76.3956H356.049V74.7143Z" fill="white"/>
<path d="M293.244 79.2232H288.633V80.9045H293.244V79.2232Z" fill="#EBEBEB"/>
<path d="M291.473 21.4228C291.511 21.4586 291.542 21.5019 291.563 21.5502C291.584 21.5984 291.595 21.6504 291.595 21.703C291.595 21.7556 291.584 21.8077 291.563 21.8559C291.542 21.9041 291.511 21.9475 291.473 21.9832C291.436 22.0199 291.392 22.0488 291.344 22.0685C291.296 22.0882 291.244 22.0981 291.192 22.0979C291.084 22.0965 290.98 22.0558 290.899 21.9832L289.129 20.1873V20.1109V20.0472L290.899 18.2386C290.977 18.1661 291.08 18.1257 291.186 18.1257C291.292 18.1257 291.395 18.1661 291.473 18.2386C291.511 18.2755 291.542 18.3199 291.564 18.3692C291.585 18.4185 291.596 18.4715 291.596 18.5252C291.596 18.5788 291.585 18.6319 291.564 18.6811C291.542 18.7304 291.511 18.7748 291.473 18.8117L289.97 20.3274L291.473 21.4228Z" fill="white"/>
<path d="M293.09 21.6139L294.644 17.933C294.661 17.8897 294.686 17.8502 294.718 17.817C294.751 17.7837 294.79 17.7574 294.832 17.7395C294.875 17.7217 294.921 17.7127 294.968 17.7131C295.014 17.7135 295.06 17.7233 295.103 17.7419C295.185 17.7808 295.25 17.8501 295.283 17.9355C295.317 18.0209 295.316 18.1157 295.281 18.2004L293.727 21.8432C293.698 21.9036 293.653 21.9547 293.597 21.9908C293.541 22.0268 293.475 22.0463 293.409 22.047C293.367 22.059 293.323 22.059 293.281 22.047C293.24 22.0315 293.202 22.0079 293.17 21.9776C293.138 21.9473 293.112 21.911 293.095 21.8706C293.077 21.8303 293.067 21.7868 293.066 21.7427C293.066 21.6987 293.074 21.6549 293.09 21.6139Z" fill="white"/>
<path d="M298.339 20.1364L296.569 21.9324C296.489 22.007 296.384 22.0481 296.276 22.047C296.224 22.0473 296.172 22.0373 296.124 22.0176C296.076 21.9979 296.032 21.969 295.995 21.9324C295.957 21.8966 295.926 21.8532 295.905 21.805C295.884 21.7568 295.873 21.7048 295.873 21.6521C295.873 21.5995 295.884 21.5475 295.905 21.4993C295.926 21.4511 295.957 21.4077 295.995 21.3719L297.486 19.9072L295.983 18.3915C295.944 18.3546 295.913 18.3102 295.892 18.2609C295.87 18.2116 295.859 18.1585 295.859 18.1049C295.859 18.0513 295.87 17.9982 295.892 17.9489C295.913 17.8997 295.944 17.8552 295.983 17.8183C296.06 17.7458 296.163 17.7055 296.269 17.7055C296.376 17.7055 296.478 17.7458 296.556 17.8183L298.326 19.627V19.6907V19.869C298.326 19.869 298.326 19.869 298.326 19.9327L298.339 20.1364Z" fill="white"/>
<path d="M507.886 74.9309H363.156V172.865H507.886V74.9309Z" fill="#37474F"/>
<path d="M508.345 173.324H362.711L363.157 74.9309H507.887L508.345 173.324Z" fill="#37474F"/>
<path d="M507.886 74.9309H363.156V83.5538H507.886V74.9309Z" fill="#16A34A"/>
<path d="M371.256 79.3124C371.256 79.7431 371.129 80.1642 370.889 80.5224C370.65 80.8806 370.31 81.1597 369.912 81.3246C369.514 81.4894 369.076 81.5326 368.654 81.4485C368.231 81.3645 367.843 81.1571 367.538 80.8525C367.234 80.5478 367.026 80.1598 366.942 79.7373C366.858 79.3148 366.901 78.8768 367.066 78.4789C367.231 78.0809 367.51 77.7407 367.868 77.5014C368.227 77.2621 368.648 77.1343 369.078 77.1343C369.656 77.1343 370.21 77.3638 370.619 77.7723C371.027 78.1807 371.256 78.7347 371.256 79.3124Z" fill="#A6A6A6"/>
<path d="M377.945 81.4777C379.14 81.4777 380.11 80.5082 380.11 79.3124C380.11 78.1165 379.14 77.1471 377.945 77.1471C376.749 77.1471 375.779 78.1165 375.779 79.3124C375.779 80.5082 376.749 81.4777 377.945 81.4777Z" fill="#EBEBEB"/>
<path d="M388.987 79.3124C388.987 79.7432 388.859 80.1643 388.62 80.5224C388.381 80.8806 388.04 81.1598 387.642 81.3246C387.244 81.4895 386.806 81.5326 386.384 81.4486C385.961 81.3645 385.573 81.1571 385.269 80.8525C384.964 80.5479 384.757 80.1598 384.673 79.7373C384.589 79.3148 384.632 78.8769 384.797 78.4789C384.962 78.0809 385.241 77.7408 385.599 77.5014C385.957 77.2621 386.378 77.1344 386.809 77.1344C387.095 77.1327 387.379 77.1879 387.644 77.2967C387.909 77.4056 388.15 77.5659 388.353 77.7685C388.555 77.9711 388.716 78.2119 388.825 78.4769C388.933 78.7419 388.989 79.0259 388.987 79.3124Z" fill="white"/>
<path d="M377.027 100.723H372.416V102.405H377.027V100.723Z" fill="#EBEBEB"/>
<path d="M407.824 100.723H380.389V102.405H407.824V100.723Z" fill="#EBEBEB"/>
<path d="M486.502 100.723H475.166V102.405H486.502V100.723Z" fill="white"/>
<path d="M419.415 100.723H410.652V102.405H419.415V100.723Z" fill="white"/>
<path d="M472.949 100.723H439.119V102.405H472.949V100.723Z" fill="#EBEBEB"/>
<path d="M482.922 123.268H456.162V124.949H482.922V123.268Z" fill="#EBEBEB"/>
<path d="M436.457 100.723H421.312V102.405H436.457V100.723Z" fill="#A6A6A6"/>
<path d="M381.638 105.232H377.027V106.913H381.638V105.232Z" fill="#EBEBEB"/>
<path d="M419.608 105.232H384.887V106.913H419.608V105.232Z" fill="#A6A6A6"/>
<path d="M454.086 123.268H433.758V124.949H454.086V123.268Z" fill="#A6A6A6"/>
<path d="M413.556 118.759H380.389V120.44H413.556V118.759Z" fill="#A6A6A6"/>
<path d="M408.157 109.741H384.887V111.422H408.157V109.741Z" fill="white"/>
<path d="M489.901 109.741H466.631V111.422H489.901V109.741Z" fill="white"/>
<path d="M450.864 114.25H441.986V115.931H450.864V114.25Z" fill="#A6A6A6"/>
<path d="M447.882 109.741H410.729V111.422H447.882V109.741Z" fill="#A6A6A6"/>
<path d="M424.739 123.268H380.389V124.949H424.739V123.268Z" fill="white"/>
<path d="M456.097 105.232H432.062V106.913H456.097V105.232Z" fill="white"/>
<path d="M430.153 105.232H421.785V106.913H430.153V105.232Z" fill="#EBEBEB"/>
<path d="M493.799 105.232H458.836V106.913H493.799V105.232Z" fill="#EBEBEB"/>
<path d="M464.555 109.741H449.627V111.422H464.555V109.741Z" fill="#EBEBEB"/>
<path d="M381.638 109.741H377.027V111.422H381.638V109.741Z" fill="#EBEBEB"/>
<path d="M377.027 114.25H372.416V115.931H377.027V114.25Z" fill="#A6A6A6"/>
<path d="M407.646 114.25H380.389V115.931H407.646V114.25Z" fill="#EBEBEB"/>
<path d="M479.751 114.25H452.494V115.931H479.751V114.25Z" fill="#EBEBEB"/>
<path d="M412.144 127.777H384.887V129.458H412.144V127.777Z" fill="#EBEBEB"/>
<path d="M444.112 132.285H423.389V133.967H444.112V132.285Z" fill="white"/>
<path d="M441.679 127.777H414.346V129.458H441.679V127.777Z" fill="white"/>
<path d="M420.041 132.285H396.248V133.967H420.041V132.285Z" fill="#EBEBEB"/>
<path d="M392.784 132.285H384.887V133.967H392.784V132.285Z" fill="#A6A6A6"/>
<path d="M465.537 132.285H446.24V133.967H465.537V132.285Z" fill="#A6A6A6"/>
<path d="M444.89 118.759H415.43V120.44H444.89V118.759Z" fill="#EBEBEB"/>
<path d="M465.536 118.759H446.787V120.44H465.536V118.759Z" fill="white"/>
<path d="M439.833 114.25H410.41V115.931H439.833V114.25Z" fill="white"/>
<path d="M377.027 118.759H372.416V120.44H377.027V118.759Z" fill="#EBEBEB"/>
<path d="M377.027 123.268H372.416V124.949H377.027V123.268Z" fill="#EBEBEB"/>
<path d="M381.638 127.777H377.027V129.458H381.638V127.777Z" fill="#A6A6A6"/>
<path d="M471.777 127.777H443.934V129.458H471.777V127.777Z" fill="#A6A6A6"/>
<path d="M381.638 132.285H377.027V133.967H381.638V132.285Z" fill="#EBEBEB"/>
<path d="M377.027 136.056H372.416V137.737H377.027V136.056Z" fill="#EBEBEB"/>
<path d="M433.298 136.056H380.389V137.737H433.298V136.056Z" fill="#EBEBEB"/>
<path d="M381.638 140.564H377.027V142.246H381.638V140.564Z" fill="#EBEBEB"/>
<path d="M419.608 140.564H384.887V142.246H419.608V140.564Z" fill="#A6A6A6"/>
<path d="M413.556 154.091H380.389V155.772H413.556V154.091Z" fill="#A6A6A6"/>
<path d="M408.157 145.073H384.887V146.755H408.157V145.073Z" fill="white"/>
<path d="M447.882 145.073H410.729V146.755H447.882V145.073Z" fill="#A6A6A6"/>
<path d="M424.739 158.6H380.389V160.281H424.739V158.6Z" fill="white"/>
<path d="M469.841 140.564H445.807V142.246H469.841V140.564Z" fill="white"/>
<path d="M443.909 140.564H421.785V142.246H443.909V140.564Z" fill="#EBEBEB"/>
<path d="M464.555 145.073H449.627V146.755H464.555V145.073Z" fill="#EBEBEB"/>
<path d="M381.638 145.073H377.027V146.755H381.638V145.073Z" fill="#EBEBEB"/>
<path d="M377.027 149.582H372.416V151.264H377.027V149.582Z" fill="#A6A6A6"/>
<path d="M459.779 149.582H441.807V151.264H459.779V149.582Z" fill="#A6A6A6"/>
<path d="M407.646 149.582H380.389V151.264H407.646V149.582Z" fill="#EBEBEB"/>
<path d="M477.789 149.582H462.619V151.264H477.789V149.582Z" fill="#EBEBEB"/>
<path d="M444.89 154.091H415.43V155.772H444.89V154.091Z" fill="#EBEBEB"/>
<path d="M439.833 149.582H410.41V151.264H439.833V149.582Z" fill="white"/>
<path d="M377.027 154.091H372.416V155.772H377.027V154.091Z" fill="#EBEBEB"/>
<path d="M375.256 96.278C375.332 96.3523 375.375 96.4538 375.376 96.5601C375.377 96.6664 375.336 96.7688 375.262 96.8448C375.188 96.9208 375.086 96.9642 374.98 96.9654C374.874 96.9665 374.771 96.9255 374.695 96.8512L372.912 95.0425L374.695 93.2339C374.732 93.1969 374.776 93.1675 374.824 93.1475C374.872 93.1275 374.923 93.1172 374.975 93.1172C375.028 93.1172 375.079 93.1275 375.127 93.1475C375.175 93.1675 375.219 93.1969 375.256 93.2339C375.295 93.2708 375.326 93.3152 375.347 93.3645C375.368 93.4137 375.379 93.4668 375.379 93.5204C375.379 93.5741 375.368 93.6271 375.347 93.6764C375.326 93.7257 375.295 93.7701 375.256 93.807L373.753 95.3227L375.256 96.278Z" fill="white"/>
<path d="M376.875 96.4817L378.429 92.788C378.468 92.7051 378.537 92.6403 378.623 92.6071C378.708 92.5739 378.803 92.5749 378.888 92.6097C378.97 92.6461 379.034 92.7131 379.067 92.7963C379.101 92.8796 379.1 92.9726 379.066 93.0555L377.512 96.762C377.485 96.8233 377.44 96.8753 377.383 96.9115C377.327 96.9477 377.261 96.9666 377.194 96.9658C377.152 96.9778 377.108 96.9778 377.066 96.9658C377.018 96.9514 376.974 96.9263 376.937 96.8924C376.9 96.8585 376.872 96.8167 376.853 96.7701C376.835 96.7235 376.827 96.6734 376.831 96.6234C376.835 96.5735 376.85 96.525 376.875 96.4817Z" fill="white"/>
<path d="M382.121 94.9916L380.275 96.8512C380.195 96.9259 380.09 96.967 379.982 96.9658C379.903 96.9628 379.827 96.9373 379.763 96.8924C379.699 96.8474 379.649 96.7849 379.62 96.7123C379.59 96.6397 379.582 96.5601 379.597 96.4831C379.611 96.4061 379.647 96.3349 379.701 96.278L381.204 94.775L379.701 93.2593C379.662 93.2224 379.631 93.178 379.61 93.1287C379.589 93.0795 379.578 93.0264 379.578 92.9728C379.578 92.9191 379.589 92.8661 379.61 92.8168C379.631 92.7675 379.662 92.7231 379.701 92.6862C379.779 92.6137 379.882 92.5733 379.988 92.5733C380.094 92.5733 380.197 92.6137 380.275 92.6862L382.045 94.4948V94.5712L382.121 94.9916Z" fill="white"/>
<path d="M348.152 151.9H319.965V106.913H321.239V150.627H348.152V151.9Z" fill="#263238"/>
<path d="M347.031 155.072L353.629 151.263L347.031 147.455V155.072Z" fill="#263238"/>
<path d="M14.4434 458.415H185.845L151.671 259.604H23.4993L14.4434 458.415Z" fill="#BC4343"/>
<path d="M14.4434 458.415H29.473L37.9049 259.604H23.4993L14.4434 458.415Z" fill="#B53737"/>
<path d="M165.02 285.779C176.216 334.548 199.41 393.011 209.307 402.5C221.827 414.511 304.655 436.508 308.782 436.954C318.972 437.998 339.504 364.353 328.614 362.774C312.056 360.379 251.733 357.106 248.116 353.386C244.499 349.667 218.923 317.417 192.748 281.155C174.687 256.101 158.078 255.516 165.02 285.779Z" fill="#FBE0DA"/>
<path d="M300.566 432.992C301.84 433.604 319.099 442.316 329.798 445.411C337.784 447.729 360.94 453.766 364.366 445.233C366.697 439.412 353.501 434.253 344.242 430.407C339.376 428.369 333.364 423.261 334.803 420.128C337.351 414.651 349.859 420.128 358.112 424.955C374.072 434.228 395.33 450.913 405.086 442.787C408.767 439.718 404.487 434.151 398.221 428.687C408.41 435.056 419.211 440.278 423.44 437.043C425.86 435.196 425.987 432.661 424.625 429.77C427.771 430.789 430.535 430.598 432.471 428.496C435.769 425.045 434.165 419.95 430.547 414.715C431.169 414.648 431.766 414.434 432.289 414.091C432.812 413.748 433.245 413.285 433.553 412.741C440.533 402.08 405.532 371.473 393.444 368.62C357.781 360.15 320.321 361.729 320.321 361.729C306.4 372.989 300.541 432.967 300.566 432.992Z" fill="#FBE0DA"/>
<path d="M352.928 400.207C361.404 401.54 369.501 404.657 376.683 409.353C385.7 415.314 391.687 422.281 399.265 429.311C399.306 429.349 399.33 429.4 399.332 429.455C399.335 429.51 399.315 429.564 399.278 429.604C399.241 429.645 399.189 429.669 399.134 429.671C399.079 429.674 399.026 429.654 398.985 429.617C395.38 426.28 380.427 413.734 376.555 410.881C369.573 405.622 361.484 402.024 352.903 400.36C352.882 400.357 352.864 400.346 352.852 400.329C352.84 400.312 352.836 400.291 352.839 400.271C352.842 400.251 352.854 400.233 352.87 400.221C352.887 400.209 352.908 400.204 352.928 400.207Z" fill="#263238"/>
<path d="M359.564 385.101C368.926 387.649 378.504 390.196 387.19 394.68C396.705 399.52 404.143 407.417 411.454 415.059C415.844 419.619 420.132 424.289 424.319 429.069C424.497 429.273 424.23 429.592 424.038 429.388C416.626 421.525 408.983 413.883 401.112 406.461C393.84 399.562 385.279 394.165 375.918 390.578C370.556 388.54 365.054 386.91 359.564 385.293C359.424 385.242 359.462 385.076 359.564 385.101Z" fill="#263238"/>
<path d="M369.564 371.893C378.658 373.753 386.581 375.358 394.643 380.223C405.291 386.681 415.583 397.545 419.2 401.392C423.187 405.659 427.021 410.04 430.803 414.486C430.956 414.664 430.638 414.931 430.485 414.753C421.843 405.008 412.577 395.835 402.744 387.292C398.131 383.146 392.902 379.743 387.243 377.205C381.507 374.95 375.588 373.195 369.551 371.957C369.551 371.957 369.526 371.88 369.564 371.893Z" fill="#263238"/>
<path d="M314.577 358.8L289.104 439.501C289.104 439.501 220.146 419.81 207.587 406.219C195.028 392.629 171.681 322.436 164.842 288.428C158.002 254.42 175.197 255.248 191.003 276.697C206.81 298.146 246.167 350.126 248.32 351.259C250.472 352.393 314.577 358.8 314.577 358.8Z" fill="#16A34A"/>
<path d="M282.494 403.646C285.576 394.132 288.735 384.643 291.409 375.014C292.963 369.537 294.543 364.073 296.046 358.583C296.046 358.379 295.753 358.252 295.676 358.456C292.212 367.881 288.747 377.345 285.703 386.936C282.659 396.526 279.564 405.977 276.66 415.555C275.004 421.007 273.527 426.471 272.215 432.024C272.222 432.044 272.235 432.061 272.252 432.073C272.269 432.084 272.29 432.091 272.31 432.091C272.331 432.091 272.351 432.084 272.369 432.073C272.386 432.061 272.399 432.044 272.406 432.024C276.252 422.765 279.386 413.225 282.494 403.646Z" fill="#263238"/>
<path opacity="0.1" d="M254.332 428.394L251.276 427.325C243.633 424.586 235.749 421.593 228.769 418.549L227.164 417.848C224.146 416.498 221.305 415.148 218.733 413.798L217.459 413.085C214.433 411.528 211.58 409.653 208.951 407.493C208.709 407.277 208.467 407.06 208.25 406.843C208.034 406.627 207.804 406.41 207.613 406.207C195.004 392.616 171.746 322.436 164.906 288.415C164.817 287.969 164.728 287.485 164.639 286.989C164.18 284.441 163.773 281.181 163.441 277.703C162.805 266.482 166.116 261.489 171.287 261.553C193.233 305.062 240.768 401.749 254.332 428.394Z" fill="black"/>
<path d="M228.413 458.415H54.0441C52.1208 454.9 80.7025 302.158 139.547 259.146C152.59 249.606 175.733 255.745 182.178 265.017C214.492 311.647 228.413 458.415 228.413 458.415Z" fill="#16A34A"/>
<path d="M200.684 305.648C202.289 311.439 203.839 317.247 205.333 323.072C205.142 320.525 204.862 317.978 204.531 315.43C204.531 315.29 204.747 315.226 204.773 315.43C205.401 318.565 205.75 321.749 205.817 324.945C207.6 331.95 209.299 338.994 210.912 346.075C213.892 359.64 216.555 373.294 218.758 386.999C220.032 394.731 220.961 402.513 222.273 410.231C222.273 410.372 222.07 410.435 222.044 410.231C220.834 403.392 219.229 396.59 217.739 389.852C216.249 383.114 214.797 376.326 213.421 369.562C210.594 355.959 207.613 342.394 204.811 328.804C203.232 321.162 201.767 313.456 200.188 305.788C200.194 305.734 200.217 305.682 200.253 305.641C200.289 305.599 200.336 305.569 200.389 305.554C200.442 305.539 200.499 305.54 200.551 305.557C200.604 305.573 200.65 305.605 200.684 305.648Z" fill="#263238"/>
<path d="M119.74 274.239C91.5789 304.387 24.6079 417.543 46.3244 438.406C68.041 459.269 188.533 431.184 222.337 415.059C232.399 410.27 194.137 347.489 182.304 346.024C172.459 344.751 122.084 367.843 120.632 364.952C118.976 361.678 130.427 340.662 142.54 296.898C156.563 246.434 132.172 260.916 119.74 274.239Z" fill="#FBE0DA"/>
<path d="M232.387 325.76C256.854 322.359 263.656 325.238 282.787 311.393C295.333 302.311 306.516 306.425 299.345 320.856C287.64 344.471 256.982 355.501 245.264 356.265L232.387 325.76Z" fill="#FBE0DA"/>
<path d="M167.377 349.323C167.377 349.323 194.876 334.039 220.592 327.836C238.424 323.544 278.112 318.513 316.119 357.717C325.137 367.015 331.404 386.668 311.152 376.822C296.772 369.843 289.766 361.067 280.66 358.519C280.66 358.519 285.652 384.452 275.985 393.126C271.654 396.947 259.618 407.302 249.097 413.976C247.547 412.513 246.092 410.951 244.741 409.302C244.741 409.302 234.947 416.549 216.503 414.791L167.377 349.323Z" fill="#FBE0DA"/>
<path d="M238.219 326.448C246.727 330.893 264.597 340.586 276.43 353.603C289.6 368.059 311.062 399.456 300.286 409.072C292.389 416.116 283.142 404.856 283.142 404.856C283.142 404.856 289.282 419.695 280.748 424.51C272.978 428.878 266.342 419.733 266.342 419.733C266.342 419.733 268.52 429.388 260.229 432.152C250.243 435.502 247.326 414.728 234.296 409.378C231.379 408.168 238.219 326.448 238.219 326.448Z" fill="#FBE0DA"/>
<path d="M258.854 364.964C266.165 370.454 279.577 387.152 283.283 404.449C283.372 404.844 283.118 405.124 282.965 404.78C276.535 390.616 268.409 377.284 258.765 365.079C258.763 365.066 258.764 365.052 258.767 365.039C258.771 365.026 258.777 365.014 258.785 365.003C258.793 364.992 258.804 364.983 258.816 364.977C258.827 364.97 258.84 364.966 258.854 364.964Z" fill="#263238"/>
<path d="M244.64 378.682C250.461 384.057 263.516 401.902 266.675 419.568C266.751 419.963 266.484 420.217 266.344 419.873C260.633 405.402 253.305 391.622 244.5 378.797C244.436 378.707 244.563 378.618 244.64 378.682Z" fill="#263238"/>
<path d="M280.672 358.354C288.646 360.71 293.842 364.62 300.568 369.295C303.868 371.652 307.3 373.821 310.846 375.791C314.094 377.548 318.883 380.21 322.31 377.459C324.246 375.931 324.207 373.141 323.787 370.938C322.813 367.703 321.334 364.643 319.406 361.869C319.329 361.767 319.507 361.627 319.584 361.742C321.458 364.259 323.063 366.966 324.373 369.817C325.238 371.772 325.491 373.944 325.099 376.045C323.927 380.44 318.73 381.013 315.062 379.867C312.878 379.066 310.779 378.051 308.796 376.835C306.86 375.727 304.975 374.517 303.128 373.269C299.307 370.721 295.702 367.932 291.945 365.334C288.269 362.876 284.44 360.655 280.481 358.685C280.405 358.545 280.52 358.316 280.672 358.354Z" fill="#263238"/>
<path d="M297.37 386.413C295.306 381.866 284.136 362.926 280.506 358.545C280.492 358.522 280.486 358.495 280.489 358.469C280.493 358.442 280.506 358.418 280.525 358.4C280.545 358.382 280.57 358.371 280.597 358.369C280.624 358.368 280.65 358.376 280.671 358.392C286.887 364.277 296.886 379.93 299.204 384.949C301.522 389.967 304.158 396.234 304.158 401.761C304.158 410.091 298.63 411.671 296.593 412.078C294.165 412.51 291.662 412.101 289.498 410.919C286.988 409.359 284.821 407.305 283.13 404.882C283.04 404.767 283.193 404.602 283.282 404.716C286.174 408.003 290.925 411.238 295.497 410.652C296.498 410.549 297.469 410.25 298.355 409.772C299.24 409.293 300.022 408.644 300.656 407.862C301.874 405.851 302.327 403.468 301.929 401.15C301.496 395.992 299.497 391.088 297.37 386.413Z" fill="#263238"/>
<path d="M167.377 349.323L205.944 430.458C205.944 430.458 55.0877 464.351 42.0706 438.1C29.0534 411.849 87.6434 309.036 114.073 279.13C140.502 249.224 152.284 257.961 145.265 290.147C138.247 322.334 121.116 365.741 121.116 365.741L167.377 349.323Z" fill="#16A34A"/>
<path d="M75.2627 387.305C82.2746 382.476 89.626 378.16 97.2594 374.39C104.817 370.689 112.637 367.551 120.657 365.003C125.23 363.487 129.841 362.213 134.464 360.888C134.604 360.888 134.655 361.067 134.528 361.118C126.476 363.722 118.583 366.793 110.888 370.314C103.246 373.71 95.6376 377.268 88.0633 380.987C83.7965 383.076 79.6315 385.369 75.4283 387.611C75.2372 387.713 75.0844 387.394 75.2627 387.305Z" fill="#263238"/>
<path d="M166.981 349.081C166.217 349.285 124.949 362.901 123.676 363.538C123.841 362.914 131.241 340.981 132.349 337.771C132.464 337.44 132.553 337.121 132.668 336.803C133.419 335.364 134.171 333.937 134.871 332.485C135.763 330.6 136.642 328.728 137.521 326.843C137.521 326.843 137.457 326.741 137.431 326.843C136.463 328.677 135.504 330.515 134.553 332.358C134.107 333.198 133.7 334.064 133.279 334.905C134.005 332.638 134.693 330.358 135.394 328.078C136.502 324.435 137.495 320.767 138.476 317.086C138.476 316.971 138.336 316.933 138.298 317.086C136.107 323.455 133.712 329.823 131.509 336.191C129.305 342.56 120.81 366.136 120.873 366.111C120.937 366.085 166.319 350.075 167.198 349.718C167.282 349.689 167.352 349.628 167.391 349.548C167.431 349.468 167.437 349.376 167.408 349.291C167.379 349.207 167.318 349.137 167.238 349.098C167.158 349.059 167.066 349.053 166.981 349.081Z" fill="#263238"/>
<path d="M169.758 402.016C165.517 392.96 161.339 383.866 156.754 374.963C154.207 369.868 151.57 364.837 148.921 359.806C148.819 359.615 148.488 359.806 148.564 359.959C152.474 369.218 156.41 378.491 160.728 387.572C165.046 396.654 169.262 405.672 173.681 414.651C176.229 419.746 178.853 424.764 181.68 429.719C181.68 429.821 181.897 429.719 181.859 429.63C178.267 420.243 174.038 411.136 169.758 402.016Z" fill="#263238"/>
<path d="M207.893 431.731C206.39 429.184 204.479 425.63 202.862 423.198C202.442 422.561 201.945 422.688 202.289 423.363C203.435 425.63 204.39 428.178 205.524 430.509C203.41 430.929 201.283 431.311 199.155 431.782L191.832 433.247C187.026 434.224 182.22 435.162 177.413 436.062C167.674 437.862 157.909 439.454 148.118 440.838C128.447 443.718 108.64 445.576 88.7769 446.404C83.2236 446.608 77.6575 446.71 72.1042 446.634C66.6217 446.649 61.142 446.385 55.6862 445.844C55.5461 445.844 55.5079 446.073 55.6862 446.112C60.3897 447.101 65.1639 447.719 69.9644 447.958C74.9997 448.213 80.0351 448.315 85.0704 448.264C95.0944 448.149 105.118 447.5 115.104 446.583C134.897 444.766 154.597 442.112 174.204 438.622C179.698 437.654 185.174 436.622 190.634 435.527C193.386 434.967 196.137 434.419 198.888 433.808C201.639 433.196 208.148 432.152 207.893 431.731Z" fill="#263238"/>
<path d="M172.357 295.815C161.836 295.752 148.45 276.417 144.705 262.457C144.451 261.502 156.169 228.577 157.786 221.814C158.117 220.425 197.717 242.409 197.717 242.409C197.717 242.409 190.074 255.579 187.323 267.399C187.094 268.38 182.521 295.866 172.357 295.815Z" fill="#FBE0DA"/>
<path d="M182.471 269.896C183.847 270.271 185.253 270.527 186.674 270.66C186.839 269.832 186.992 269.131 187.094 268.596C187.09 268.571 187.09 268.545 187.094 268.52C187.088 268.461 187.088 268.401 187.094 268.342C187.094 268.138 187.171 267.909 187.222 267.692C187.212 267.65 187.212 267.607 187.222 267.565V267.386C187.866 264.749 188.661 262.15 189.603 259.604C191.454 254.672 193.619 249.865 196.087 245.211C196.29 244.816 196.469 244.473 196.647 244.167C197.169 243.186 197.5 242.6 197.577 242.447L196.532 241.849L195.144 241.085H195.08L194.151 240.588L193.004 239.938C192.673 239.773 192.304 239.569 191.947 239.365L191.743 239.25C191.31 239.008 190.839 238.766 190.355 238.486L190.036 238.321L188.661 237.556L187.935 237.174L185.693 235.901L183.986 234.971L182.534 234.181L177.567 231.506L175.962 230.64C174.001 229.596 172.077 228.577 170.23 227.622C169.81 227.405 169.403 227.176 168.957 226.985L168.142 226.552L167.174 226.055L165.072 224.985L163.798 224.348C163.174 224.03 162.588 223.75 162.041 223.495C161.76 223.342 161.493 223.227 161.238 223.113C160.487 222.756 159.837 222.463 159.289 222.247L158.946 222.094C158.653 233.557 159.531 263.756 182.471 269.896Z" fill="#263238"/>
<path d="M169.67 170.866C160.296 184.061 153.915 229.074 161.2 242.014C171.772 260.776 196.138 270.354 213.855 256.025C231.024 242.142 238.31 183.322 229.509 170.84C216.542 152.435 183.528 151.353 169.67 170.866Z" fill="#FBE0DA"/>
<path d="M203.232 210.58C203.232 210.452 202.977 210.681 202.964 210.809C202.608 213.853 201.691 217.279 198.812 217.878C198.723 217.878 198.71 218.056 198.812 218.056C202.238 218.082 203.397 213.509 203.232 210.58Z" fill="#263238"/>
<path d="M201.002 207.013C196.188 205.931 194.367 215.649 198.837 216.655C203.308 217.661 205.04 207.918 201.002 207.013Z" fill="#263238"/>
<path d="M219.789 214.171C219.789 214.057 219.993 214.362 219.968 214.477C219.305 217.47 219.063 221.011 221.598 222.514C221.674 222.514 221.598 222.718 221.598 222.68C218.299 221.559 218.681 216.859 219.789 214.171Z" fill="#263238"/>
<path d="M223.062 211.497C227.966 212.032 226.527 221.814 221.979 221.317C217.432 220.82 218.948 211.038 223.062 211.497Z" fill="#263238"/>
<path d="M197.997 201.855C199.344 201.717 200.683 201.509 202.009 201.231C203.452 201.207 204.848 200.71 205.983 199.817C206.282 199.466 206.457 199.026 206.48 198.565C206.503 198.104 206.373 197.648 206.11 197.269C204.9 195.703 202.938 195.55 201.079 195.779C199.195 195.954 197.444 196.82 196.162 198.212C195.888 198.546 195.716 198.952 195.668 199.381C195.62 199.811 195.698 200.245 195.892 200.631C196.087 201.017 196.389 201.338 196.763 201.555C197.136 201.773 197.565 201.877 197.997 201.855Z" fill="#263238"/>
<path d="M227.738 207.306C226.479 206.799 225.25 206.22 224.057 205.574C222.679 205.147 221.479 204.279 220.643 203.103C220.453 202.682 220.407 202.211 220.513 201.761C220.619 201.312 220.871 200.91 221.229 200.619C222.834 199.46 224.757 199.868 226.49 200.619C228.25 201.316 229.688 202.641 230.527 204.338C230.694 204.736 230.742 205.173 230.666 205.597C230.589 206.021 230.391 206.414 230.096 206.728C229.801 207.042 229.421 207.264 229.003 207.366C228.584 207.469 228.145 207.448 227.738 207.306Z" fill="#263238"/>
<path d="M194.442 237.798C195.028 238.639 195.576 239.747 196.646 240.04C197.769 240.225 198.919 240.173 200.021 239.887C200.045 239.874 200.073 239.87 200.099 239.877C200.112 239.881 200.124 239.887 200.135 239.895C200.145 239.904 200.154 239.914 200.161 239.926C200.168 239.937 200.172 239.95 200.174 239.964C200.175 239.977 200.175 239.99 200.171 240.004C200.167 240.017 200.161 240.029 200.153 240.039C200.145 240.05 200.135 240.059 200.123 240.066C199.583 240.579 198.914 240.936 198.188 241.1C197.461 241.263 196.704 241.227 195.996 240.995C195.414 240.717 194.927 240.274 194.594 239.722C194.261 239.17 194.098 238.532 194.124 237.888C194.111 237.697 194.315 237.684 194.442 237.798Z" fill="#263238"/>
<path d="M199.296 229.379C199.836 230.715 200.646 231.924 201.677 232.93C202.707 233.936 203.935 234.718 205.283 235.226C206.454 235.683 207.685 235.97 208.938 236.079C209.175 236.104 209.414 236.104 209.651 236.079H210.339C210.504 236.075 210.663 236.018 210.794 235.917C210.924 235.816 211.019 235.677 211.065 235.518C211.078 235.413 211.078 235.306 211.065 235.2V234.933C211.562 232.627 211.995 229.061 211.995 229.061C212.772 229.634 216.72 232.385 216.886 231.162C218.16 220.973 219.573 209.764 218.707 199.409C218.693 199.343 218.657 199.285 218.605 199.242C218.553 199.2 218.488 199.177 218.421 199.177C218.354 199.177 218.289 199.2 218.236 199.242C218.184 199.285 218.148 199.343 218.134 199.409C216.529 209.102 216.631 219.011 215.166 228.768C213.765 227.769 212.23 226.972 210.607 226.399C210.263 226.399 209.893 233.302 209.588 234.321V234.423C205.601 234.194 202.888 232.474 199.602 229.15C199.411 228.946 199.156 229.112 199.296 229.379Z" fill="#263238"/>
<path d="M207.792 234.652C206.208 236.066 204.286 237.049 202.213 237.505C201.077 237.724 199.901 237.581 198.85 237.098C196.57 236.015 196.927 233.799 197.717 232.003C198.151 231.048 198.694 230.146 199.334 229.316C201.51 231.953 204.474 233.824 207.792 234.652Z" fill="#263238"/>
<path d="M202.213 237.505C201.077 237.724 199.901 237.581 198.85 237.098C196.57 236.015 196.927 233.799 197.717 232.003C200.239 232.742 202.468 234.971 202.213 237.505Z" fill="#FF99BA"/>
<path d="M193.653 223.176C191.318 222.426 189.241 221.036 187.657 219.164C186.073 217.291 185.046 215.012 184.693 212.586C184.34 210.159 184.675 207.682 185.66 205.436C186.644 203.19 188.239 201.266 190.263 199.881C192.287 198.497 194.659 197.708 197.109 197.604C199.559 197.5 201.989 198.086 204.123 199.295C206.257 200.504 208.008 202.287 209.179 204.441C210.35 206.596 210.893 209.036 210.746 211.484C210.526 214.951 208.942 218.189 206.34 220.49C203.738 222.791 200.33 223.968 196.862 223.762C195.773 223.694 194.696 223.497 193.653 223.176ZM201.129 199.88C200.228 199.594 199.296 199.419 198.353 199.358C195.471 199.182 192.63 200.111 190.409 201.956C188.188 203.8 186.753 206.422 186.398 209.288C186.042 212.153 186.792 215.046 188.494 217.378C190.197 219.71 192.725 221.305 195.562 221.839C198.4 222.372 201.334 221.804 203.768 220.251C206.201 218.697 207.951 216.274 208.66 213.475C209.37 210.676 208.986 207.712 207.587 205.186C206.188 202.661 203.878 200.763 201.129 199.88Z" fill="#16A34A"/>
<path d="M223.203 228.806C218.426 227.265 215.662 220.986 216.974 214.273C217.551 211.056 219.118 208.099 221.458 205.816C222.402 204.774 223.6 203.995 224.934 203.552C226.269 203.109 227.695 203.018 229.075 203.289C230.455 203.559 231.741 204.181 232.81 205.095C233.879 206.008 234.694 207.182 235.175 208.503C236.484 211.501 236.818 214.833 236.131 218.031C234.742 225.125 229.316 230.054 224.043 229.01C223.75 228.959 223.483 228.883 223.203 228.806ZM229.38 205.179C229.172 205.11 228.959 205.055 228.743 205.013C227.635 204.846 226.503 204.949 225.443 205.313C224.384 205.676 223.427 206.29 222.655 207.102C220.583 209.133 219.198 211.76 218.694 214.617C217.497 220.756 220.031 226.45 224.375 227.354C228.718 228.258 233.214 223.902 234.411 217.75C235.03 214.919 234.741 211.964 233.583 209.306C233.215 208.36 232.65 207.502 231.925 206.791C231.2 206.08 230.333 205.53 229.38 205.179Z" fill="#16A34A"/>
<path d="M210.019 212.898L209.166 211.356C211.446 210.083 216.388 208.809 218.872 212.758L217.381 213.687C215.165 210.121 210.223 212.783 210.019 212.898Z" fill="#16A34A"/>
<path d="M152.067 204.975L150.691 203.893C151.201 203.243 155.786 197.639 159.722 197.766C163.428 197.893 186.049 204.568 187.017 204.861L186.521 206.542C180.037 204.619 162.524 199.613 159.671 199.524C157.06 199.435 153.29 203.434 152.067 204.975Z" fill="#16A34A"/>
<path d="M231.545 191.563C214.389 197.83 198.302 177.553 198.302 177.553C196.239 180.419 193.307 182.542 189.94 183.607C186.573 184.672 182.952 184.621 179.617 183.463C179.617 183.463 170.408 207.446 163.912 205.727C154.003 203.179 159.569 168.637 164.396 162.816C169.223 156.995 178.076 157.466 178.076 157.466C178.076 157.466 180.012 152.486 187.348 149.366C195.462 145.914 217.064 158.906 217.064 158.906C219.202 156.12 221.963 153.873 225.126 152.346C225.896 151.96 226.736 151.734 227.596 151.682C228.456 151.631 229.317 151.754 230.128 152.044C230.939 152.335 231.682 152.787 232.313 153.373C232.945 153.959 233.45 154.667 233.8 155.454C232.091 156.958 230.745 158.831 229.864 160.931C226.833 167.872 232.743 169.375 234.373 162.803C235.077 160.365 234.873 157.754 233.8 155.454C237.825 151.913 242.932 151.735 245.263 154.779C249.364 160.281 245.824 186.367 231.545 191.563Z" fill="#263238"/>
<path d="M167.212 208.44C167.212 208.44 161.849 191.627 154.475 193.155C147.1 194.684 148.17 216.923 154.678 221.941C155.467 222.643 156.39 223.179 157.391 223.515C158.393 223.852 159.452 223.982 160.505 223.899C161.558 223.816 162.583 223.52 163.519 223.031C164.455 222.541 165.282 221.867 165.951 221.049L167.212 208.44Z" fill="#FBE0DA"/>
<path d="M154.97 199.498C154.947 199.495 154.923 199.498 154.901 199.509C154.88 199.52 154.863 199.537 154.851 199.558C154.84 199.579 154.836 199.603 154.839 199.626C154.842 199.65 154.852 199.672 154.868 199.689C159.377 203.383 160.613 209.013 160.969 214.553C160.027 212.172 158.256 210.478 155.136 211.509C154.97 211.509 155.034 211.815 155.136 211.828C156.134 211.821 157.109 212.123 157.928 212.693C158.747 213.264 159.369 214.074 159.708 215.012C160.265 216.583 160.649 218.21 160.855 219.865C160.957 220.4 161.861 220.412 161.848 219.865V219.725C164.077 213.152 161.823 202.364 154.97 199.498Z" fill="#263238"/>
<path d="M187.844 264.979L180.865 285.205L146.984 253.656L138.068 263.782C138.068 263.782 168.293 314.271 168.484 311.991L181.807 290.186L193.742 305.534L193.232 273.628L187.844 264.979Z" fill="#EBEBEB"/>
<path d="M194.316 286.848C193.934 280.633 194.252 280.162 193.577 273.959C193.577 273.742 193.22 273.64 193.157 273.959C191.883 279.958 192.94 297.93 192.889 303.636L192.825 303.572C192.201 302.91 181.974 290.02 181.833 290.224C179.579 293.637 169.033 309.597 168.511 311.023C163.734 302.999 145.406 273.844 139.751 266.253C139.722 266.202 139.674 266.165 139.618 266.149C139.562 266.134 139.502 266.141 139.451 266.17C139.401 266.199 139.363 266.246 139.348 266.303C139.332 266.359 139.34 266.419 139.368 266.469C143.584 274.939 167.836 314.195 168.205 314.093C168.46 314.284 180.865 294.694 182.012 291.052C184.228 293.803 194.57 308.298 194.621 307.38C194.872 300.536 194.77 293.683 194.316 286.848Z" fill="#263238"/>
<path d="M0 458.415L64.5 458.097L129 457.995L258 457.779L387 457.982L451.5 458.097L516 458.415L451.5 458.721L387 458.836L258 459.052L129 458.836L64.5 458.721L0 458.415Z" fill="#263238"/>
<path d="M395.482 455.078H220.26V462.937H395.482V455.078Z" fill="#455A64"/>
<path d="M395.482 455.078H307.291V462.937H395.482V455.078Z" fill="#263238"/>
<path d="M316.781 462.937H487.546L509.874 346.954H339.109L316.781 462.937Z" fill="#455A64"/>
<path d="M402.933 404.946C402.788 406.268 402.926 407.606 403.339 408.871C403.751 410.136 404.428 411.299 405.324 412.282C406.22 413.265 407.316 414.046 408.537 414.573C409.759 415.1 411.079 415.361 412.409 415.339C415.238 415.286 417.95 414.199 420.033 412.285C422.116 410.37 423.428 407.76 423.719 404.946C423.864 403.622 423.726 402.283 423.313 401.017C422.899 399.751 422.221 398.588 421.324 397.604C420.426 396.621 419.329 395.84 418.106 395.314C416.883 394.788 415.562 394.528 414.23 394.552C411.401 394.6 408.688 395.685 406.605 397.601C404.523 399.517 403.216 402.13 402.933 404.946Z" fill="#EBEBEB"/>
<path d="M495.557 421.287L487.533 462.924H355.119L495.557 421.287Z" fill="#263238"/>
</svg>
