<svg width="19" height="12" viewBox="0 0 19 12" fill="none" xmlns="http://www.w3.org/2000/svg">
<path d="M18.2209 0.902795C18.1345 0.848899 18.0358 0.817867 17.9341 0.81262C17.8324 0.807373 17.7311 0.828083 17.6396 0.872802C14.4193 2.44741 12.1194 1.70959 9.68827 0.931288C7.13785 0.114743 4.49366 -0.728794 0.840557 1.05426C0.738487 1.1032 0.652348 1.18 0.592088 1.27579C0.531827 1.37159 0.499902 1.48246 0.5 1.59562V10.5881C0.499986 10.6899 0.525878 10.79 0.575241 10.879C0.624603 10.968 0.695812 11.043 0.782167 11.0969C0.868521 11.1509 0.967181 11.1819 1.06886 11.1872C1.17054 11.1925 1.2719 11.1719 1.36339 11.1272C4.58368 9.55262 6.88356 10.2904 9.31846 11.0687C10.7617 11.5299 12.2319 12 13.8942 12C15.1762 12 16.5744 11.7211 18.1632 10.9458C18.2641 10.8965 18.3491 10.82 18.4087 10.7248C18.4682 10.6296 18.4999 10.5196 18.5 10.4074V1.41492C18.5009 1.31288 18.4757 1.21229 18.4269 1.12268C18.3781 1.03306 18.3072 0.957384 18.2209 0.902795ZM17.3028 10.0257C14.2573 11.3882 12.0332 10.6773 9.68452 9.92677C8.24128 9.46564 6.77104 8.99551 5.10876 8.99551C3.9409 9.00118 2.78491 9.23024 1.7032 9.67034V1.97727C4.7487 0.614868 6.97282 1.32569 9.32146 2.07625C11.6701 2.82681 14.0877 3.60211 17.3028 2.33418V10.0257ZM9.50149 3.60212C9.02673 3.60212 8.56264 3.74284 8.1679 4.00649C7.77316 4.27014 7.46549 4.64487 7.28381 5.0833C7.10213 5.52173 7.05459 6.00417 7.14721 6.46961C7.23983 6.93505 7.46845 7.36258 7.80415 7.69814C8.13985 8.0337 8.56756 8.26222 9.03319 8.3548C9.49883 8.44738 9.98146 8.39987 10.4201 8.21826C10.8587 8.03666 11.2336 7.72912 11.4973 7.33454C11.7611 6.93996 11.9019 6.47607 11.9019 6.00151C11.9019 5.36515 11.649 4.75486 11.1988 4.30488C10.7487 3.85491 10.1381 3.60212 9.50149 3.60212ZM9.50149 7.20121C9.26411 7.20121 9.03207 7.13085 8.83469 6.99902C8.63732 6.8672 8.48349 6.67983 8.39265 6.46062C8.30181 6.2414 8.27804 6.00018 8.32435 5.76746C8.37066 5.53474 8.48497 5.32098 8.65282 5.1532C8.82067 4.98542 9.03452 4.87116 9.26734 4.82486C9.50016 4.77857 9.74148 4.80233 9.96078 4.89313C10.1801 4.98394 10.3675 5.13771 10.4994 5.33499C10.6313 5.53228 10.7017 5.76423 10.7017 6.00151C10.7017 6.31969 10.5752 6.62484 10.3502 6.84982C10.1251 7.07481 9.8198 7.20121 9.50149 7.20121ZM4.1006 3.60212V7.20121C4.1006 7.3603 4.03737 7.51287 3.92483 7.62537C3.81229 7.73786 3.65965 7.80106 3.5005 7.80106C3.34134 7.80106 3.1887 7.73786 3.07616 7.62537C2.96362 7.51287 2.9004 7.3603 2.9004 7.20121V3.60212C2.9004 3.44303 2.96362 3.29045 3.07616 3.17796C3.1887 3.06546 3.34134 3.00227 3.5005 3.00227C3.65965 3.00227 3.81229 3.06546 3.92483 3.17796C4.03737 3.29045 4.1006 3.44303 4.1006 3.60212ZM14.9024 8.40091V4.80181C14.9024 4.64272 14.9656 4.49015 15.0781 4.37766C15.1907 4.26516 15.3433 4.20196 15.5025 4.20196C15.6616 4.20196 15.8143 4.26516 15.9268 4.37766C16.0394 4.49015 16.1026 4.64272 16.1026 4.80181V8.40091C16.1026 8.56 16.0394 8.71257 15.9268 8.82506C15.8143 8.93756 15.6616 9.00076 15.5025 9.00076C15.3433 9.00076 15.1907 8.93756 15.0781 8.82506C14.9656 8.71257 14.9024 8.56 14.9024 8.40091Z" fill="#16A34A"/>
</svg>
