<svg width="12" height="8" viewBox="0 0 12 8" fill="none" xmlns="http://www.w3.org/2000/svg">
<path d="M11.0684 0.67093C11.1191 0.616739 11.1792 0.573752 11.2454 0.544424C11.3116 0.515096 11.3826 0.5 11.4543 0.5C11.5259 0.5 11.5969 0.515096 11.6631 0.544424C11.7293 0.573752 11.7895 0.616739 11.8402 0.67093C11.8908 0.725122 11.931 0.789457 11.9585 0.860261C11.9859 0.931066 12 1.00695 12 1.08359C12 1.16023 11.9859 1.23612 11.9585 1.30692C11.931 1.37773 11.8908 1.44206 11.8402 1.49625L6.38589 7.32894C6.33523 7.38317 6.27508 7.42619 6.20887 7.45554C6.14265 7.48489 6.07168 7.5 6 7.5C5.92832 7.5 5.85735 7.48489 5.79113 7.45554C5.72492 7.42619 5.66476 7.38317 5.61411 7.32894L0.159841 1.49625C0.0574964 1.38681 -2.8531e-09 1.23837 0 1.08359C2.85311e-09 0.928814 0.0574964 0.780375 0.159841 0.67093C0.262185 0.561485 0.400994 0.5 0.54573 0.5C0.690467 0.5 0.829275 0.561485 0.93162 0.67093L6 6.09168L11.0684 0.67093Z" fill="#2C2C2C"/>
</svg>
