<svg width="40" height="40" viewBox="0 0 40 40" fill="none" xmlns="http://www.w3.org/2000/svg">
<rect width="40" height="40" rx="20" fill="#16A34A"/>
<path d="M27.3271 12.0752L15.7957 10.0216C15.4258 9.95597 15.0452 10.0412 14.7375 10.2585C14.4299 10.4759 14.2204 10.8075 14.1552 11.1806L11.5214 26.2702C11.4892 26.455 11.4934 26.6445 11.5338 26.8277C11.5742 27.0109 11.65 27.1843 11.7569 27.3379C11.8638 27.4916 11.9997 27.6225 12.1567 27.7232C12.3138 27.8238 12.489 27.8923 12.6723 27.9247L24.2037 29.9783C24.3871 30.0109 24.575 30.0067 24.7568 29.966C24.9385 29.9253 25.1105 29.8489 25.263 29.7411C25.4154 29.6333 25.5453 29.4962 25.6452 29.3378C25.7451 29.1793 25.813 29.0025 25.8451 28.8175L28.4789 13.728C28.5435 13.3548 28.4584 12.971 28.2424 12.6611C28.0264 12.3511 27.6972 12.1404 27.3271 12.0752ZM20.6624 20.3174C20.6335 20.4826 20.5478 20.6323 20.4204 20.7402C20.293 20.8481 20.132 20.9074 19.9656 20.9076C19.9241 20.9075 19.8826 20.904 19.8417 20.8968L16.1676 20.2424C15.993 20.1991 15.8412 20.0904 15.7431 19.9384C15.6451 19.7864 15.608 19.6025 15.6394 19.4239C15.6708 19.2454 15.7684 19.0855 15.9123 18.9769C16.0563 18.8682 16.2359 18.8188 16.4146 18.8388L20.0869 19.4897C20.1786 19.5059 20.2663 19.5401 20.3448 19.5905C20.4234 19.6408 20.4914 19.7063 20.5448 19.7832C20.5982 19.8601 20.6361 19.9468 20.6563 20.0385C20.6765 20.1301 20.6786 20.2249 20.6624 20.3174ZM24.8234 18.1584C24.7945 18.3235 24.709 18.4731 24.5818 18.581C24.4546 18.6889 24.2938 18.7482 24.1276 18.7486C24.0857 18.7487 24.0439 18.7448 24.0027 18.737L16.6545 17.4289C16.4695 17.3959 16.305 17.2901 16.1974 17.1348C16.0897 16.9795 16.0476 16.7874 16.0804 16.6008C16.1131 16.4142 16.218 16.2483 16.372 16.1397C16.526 16.0312 16.7165 15.9887 16.9015 16.0217L24.2497 17.3307C24.3415 17.3468 24.4293 17.381 24.5079 17.4313C24.5866 17.4816 24.6546 17.5471 24.7082 17.624C24.7617 17.7008 24.7997 17.7876 24.8199 17.8793C24.8401 17.971 24.8422 18.0659 24.8261 18.1584H24.8234ZM25.3148 15.3441C25.2859 15.5093 25.2002 15.659 25.0728 15.7669C24.9454 15.8748 24.7844 15.9341 24.618 15.9342C24.5765 15.9342 24.535 15.9306 24.4941 15.9235L17.1459 14.6146C17.0522 14.6007 16.9622 14.5679 16.8812 14.5183C16.8003 14.4687 16.73 14.4033 16.6746 14.3258C16.6192 14.2483 16.5797 14.1605 16.5586 14.0673C16.5375 13.9742 16.535 13.8778 16.5515 13.7837C16.568 13.6897 16.603 13.5999 16.6545 13.5197C16.7059 13.4395 16.7728 13.3706 16.8512 13.3169C16.9295 13.2633 17.0178 13.226 17.1107 13.2073C17.2036 13.1887 17.2992 13.189 17.392 13.2083L24.7402 14.5164C24.8321 14.5323 24.9199 14.5664 24.9987 14.6167C25.0774 14.667 25.1456 14.7324 25.1992 14.8093C25.2528 14.8862 25.2909 14.9731 25.3112 15.0648C25.3315 15.1566 25.3336 15.2515 25.3174 15.3441H25.3148Z" fill="white"/>
</svg>
