<svg width="17" height="16" viewBox="0 0 17 16" fill="none" xmlns="http://www.w3.org/2000/svg">
<path d="M9.14183 12C9.14183 12.1826 9.08769 12.361 8.98626 12.5128C8.88483 12.6646 8.74067 12.7829 8.572 12.8528C8.40333 12.9227 8.21773 12.941 8.03867 12.9053C7.85961 12.8697 7.69513 12.7818 7.56604 12.6527C7.43694 12.5236 7.34903 12.3591 7.31341 12.1801C7.27779 12.001 7.29607 11.8154 7.36594 11.6468C7.43581 11.4781 7.55412 11.3339 7.70592 11.2325C7.85772 11.1311 8.03618 11.0769 8.21875 11.0769C8.46357 11.0769 8.69835 11.1742 8.87146 11.3473C9.04458 11.5204 9.14183 11.7552 9.14183 12ZM8.21875 3.69231C6.52183 3.69231 5.14183 4.93461 5.14183 6.46154V6.76923C5.14183 6.93244 5.20666 7.08896 5.32207 7.20437C5.43748 7.31978 5.594 7.38461 5.75721 7.38461C5.92042 7.38461 6.07695 7.31978 6.19236 7.20437C6.30776 7.08896 6.3726 6.93244 6.3726 6.76923V6.46154C6.3726 5.61538 7.20106 4.92308 8.21875 4.92308C9.23644 4.92308 10.0649 5.61538 10.0649 6.46154C10.0649 7.30769 9.23644 8 8.21875 8C8.05554 8 7.89902 8.06483 7.78361 8.18024C7.6682 8.29565 7.60337 8.45217 7.60337 8.61538V9.23077C7.60337 9.39398 7.6682 9.5505 7.78361 9.66591C7.89902 9.78132 8.05554 9.84615 8.21875 9.84615C8.38196 9.84615 8.53849 9.78132 8.65389 9.66591C8.7693 9.5505 8.83414 9.39398 8.83414 9.23077V9.17538C10.2372 8.91769 11.2957 7.79846 11.2957 6.46154C11.2957 4.93461 9.91567 3.69231 8.21875 3.69231ZM16.2187 8C16.2187 9.58225 15.7496 11.129 14.8705 12.4446C13.9915 13.7602 12.742 14.7855 11.2802 15.391C9.81841 15.9965 8.20988 16.155 6.65803 15.8463C5.10618 15.5376 3.68072 14.7757 2.5619 13.6569C1.44308 12.538 0.681153 11.1126 0.372471 9.56072C0.0637896 8.00887 0.222216 6.40034 0.827717 4.93853C1.43322 3.47672 2.4586 2.22729 3.77419 1.34824C5.08978 0.469192 6.6365 0 8.21875 0C10.3398 0.00223986 12.3733 0.845814 13.8731 2.34562C15.3729 3.84542 16.2165 5.87895 16.2187 8ZM14.988 8C14.988 6.66117 14.591 5.35241 13.8472 4.23922C13.1033 3.12602 12.0461 2.25839 10.8092 1.74605C9.57231 1.2337 8.21124 1.09965 6.89814 1.36084C5.58504 1.62203 4.37888 2.26674 3.43218 3.21343C2.48549 4.16012 1.84078 5.36629 1.57959 6.67939C1.3184 7.99249 1.45245 9.35356 1.9648 10.5905C2.47715 11.8274 3.34478 12.8846 4.45797 13.6284C5.57116 14.3722 6.87992 14.7692 8.21875 14.7692C10.0134 14.7672 11.734 14.0534 13.0031 12.7843C14.2721 11.5153 14.9859 9.79468 14.988 8Z" fill="black"/>
</svg>
