<svg width="242" height="124" viewBox="0 0 242 124" fill="none" xmlns="http://www.w3.org/2000/svg">
<path d="M0 122.549L30.1428 122.452L60.2853 122.418L120.571 122.352L180.857 122.417L210.999 122.452L241.142 122.549L210.999 122.645L180.857 122.68L120.571 122.745L60.2853 122.679L30.1428 122.644L0 122.549Z" fill="#343826"/>
<path d="M110.227 48.1055C110.228 48.1998 110.36 48.1887 110.363 48.0968C110.485 43.6158 114.619 40.6332 114.48 36.0713C114.419 34.068 113.664 32.1279 112.612 30.491C111.913 29.404 111.047 28.4661 110.224 27.4903C110.11 27.325 109.997 27.1605 109.886 26.9957C109.176 25.9493 108.474 24.882 107.949 23.7137C107.344 22.3655 107.083 20.9326 106.942 19.4575C106.674 16.6508 106.581 13.7928 104.741 11.569C103.206 9.71329 100.988 8.6306 98.7657 8.05316C93.7339 6.74605 87.7469 7.68911 84.4126 12.2885C83.8215 13.1061 83.3587 13.9979 83.0289 14.9611C83.0289 14.9611 80.1001 17.2341 79.2166 20.8936C78.4389 24.1148 80.4557 26.7563 80.2698 28.3627C80.1064 29.7787 79.2961 30.9896 78.7586 32.2675C78.206 33.3561 77.6574 34.4514 77.2674 35.609C76.7211 37.2309 76.7754 38.9628 77.1525 40.6206C77.4907 42.1075 78.0799 43.5626 79.0407 44.7147C79.9689 45.8277 81.188 46.4734 82.5092 46.8927C82.8253 46.9929 83.1421 47.0844 83.4589 47.1735C83.4674 47.1786 83.4751 47.1838 83.4836 47.1889C84.593 47.8401 85.7936 48.3228 86.8498 49.075C88.0456 49.9305 88.7894 51.1224 89.1882 52.5889C89.5509 53.9153 89.671 55.2994 89.9505 56.6459C90.2111 57.9061 90.6502 59.0949 91.3356 60.1606C92.6808 62.2562 94.7339 63.7416 96.9836 64.517C99.6086 65.421 102.481 65.3946 105.168 64.8274C107.591 64.3198 109.877 63.1965 111.236 60.9053C112.404 58.9387 112.78 56.4156 112.146 54.1772C111.76 52.8149 110.979 51.6407 110.366 50.3928C109.747 49.1279 109.405 47.803 109.58 46.3724C110.14 41.7533 114.311 38.1803 113.211 33.235C112.928 31.9646 112.364 30.8129 111.7 29.7195C112.938 31.3335 113.876 33.2551 114.129 35.3401C114.411 37.666 113.615 39.7142 112.545 41.6906C111.472 43.6738 110.195 45.7252 110.227 48.1055ZM82.7133 46.7199C80.8694 46.0975 79.3534 45.0314 78.3952 43.2001C77.4149 41.3266 76.8822 38.9096 77.2164 36.7805C77.3831 35.7179 77.8138 34.7405 78.2404 33.7738C78.2518 33.7474 78.2633 33.721 78.2747 33.6945C78.0969 34.3686 77.9809 35.0608 77.9261 35.7593C77.752 37.9969 78.1845 40.2735 79.122 42.2799C79.9663 44.0864 81.2202 45.64 82.7946 46.7459C82.7676 46.7373 82.7402 46.729 82.7133 46.7199Z" fill="#343826"/>
<path d="M98.9331 49.1632C108.436 66.8712 123.297 96.3471 125.859 101.742C127.598 105.403 108.736 117.08 107.904 114.406C106.84 110.981 96.2527 71.3534 93.5915 53.0719C92.2678 43.9797 96.0697 43.8279 98.9331 49.1632Z" fill="#D3766A"/>
<path d="M107.344 111.359C107.838 114.69 110.117 121.363 111.724 122.349C113.332 123.333 121.636 122.9 125.825 122.792C130.014 122.684 130.81 121.417 130.706 119.88C130.603 118.344 121.806 118.277 121.806 118.277C121.806 118.277 133.627 121.565 136.593 122.075C139.559 122.585 146.403 124.241 147.328 121.603C147.745 120.414 145.855 119.27 145.855 119.27C145.855 119.27 148.73 120.086 149.15 118.56C149.627 116.823 147.337 115.933 147.337 115.933C147.337 115.933 149.13 116.271 149.139 114.865C149.16 111.724 137.961 110.469 137.961 110.469C137.961 110.469 146.609 114.69 146.826 112.121C147.125 108.566 129.519 105.129 127.66 103.63C125.801 102.132 124.651 99.8574 124.651 99.8574L107.344 111.359Z" fill="#D3766A"/>
<path d="M130.663 120.662C130.704 120.192 130.547 119.758 130.238 119.476C129.943 119.184 129.581 118.971 129.201 118.795C128.438 118.448 127.612 118.222 126.782 118.026C125.122 117.621 123.422 117.349 121.727 116.928C123.466 116.855 125.203 117.016 126.913 117.415C127.763 117.63 128.618 117.889 129.405 118.359C129.797 118.589 130.172 118.887 130.456 119.278C130.739 119.673 130.839 120.228 130.663 120.662Z" fill="#343826"/>
<path d="M145.854 119.27C144.638 118.987 143.44 118.653 142.243 118.317C141.044 117.988 139.856 117.623 138.665 117.273L135.102 116.182C133.914 115.817 132.727 115.458 131.527 115.109C132.77 115.2 133.995 115.445 135.211 115.714C136.429 115.977 137.629 116.316 138.824 116.67C140.016 117.036 141.204 117.418 142.374 117.857C143.546 118.29 144.712 118.74 145.854 119.27Z" fill="#343826"/>
<path d="M134.293 111.908C135.435 111.942 136.568 112.11 137.691 112.32C138.817 112.523 139.927 112.814 141.025 113.145C142.12 113.487 143.207 113.867 144.259 114.34C145.319 114.793 146.349 115.325 147.337 115.933C146.248 115.563 145.187 115.148 144.105 114.794C143.027 114.432 141.95 114.072 140.863 113.748C139.781 113.405 138.687 113.102 137.595 112.789C136.5 112.483 135.4 112.198 134.293 111.908Z" fill="#343826"/>
<path d="M135.957 108.874C137.803 108.943 139.617 109.371 141.375 109.949C143.13 110.541 144.84 111.32 146.392 112.385C144.641 111.769 142.938 111.116 141.199 110.547C139.467 109.958 137.723 109.43 135.957 108.874Z" fill="#343826"/>
<path d="M76.8594 89.3341C76.8594 89.3341 77.4187 96.0586 78.2452 105.789V105.793C78.2704 106.073 78.2951 106.359 78.3203 106.643C78.725 111.422 79.1882 116.864 79.6766 122.563H108.32C106.267 105.436 104.493 90.6783 104.343 89.4229C104.334 89.3649 104.33 89.3337 104.33 89.3337L76.8594 89.3341Z" fill="#0C5A29"/>
<path d="M58.3237 122.564H87.0966C87.1051 122.439 87.1132 122.341 87.1177 122.261C87.1262 122.132 87.1343 122.065 87.1343 122.065C87.2847 121.976 87.4348 121.887 87.5893 121.802C89.1837 120.876 90.5817 120.155 91.7336 119.607C91.9299 119.514 92.1177 119.424 92.301 119.335C92.8226 119.095 93.2903 118.89 93.6784 118.73C94.6757 118.307 95.231 118.12 95.231 118.12C95.2642 118.031 95.2934 117.946 95.3226 117.857C99.2499 107.191 101.616 90.9373 101.838 89.4231C101.846 89.343 101.85 89.3071 101.85 89.3071H63.1356C63.1356 89.3071 54.3846 107.766 58.3237 122.564Z" fill="#0C5A29"/>
<path d="M63.1367 89.308L104.343 89.424L102.131 74.6537C102.131 74.6537 105.255 69.6761 104.735 64.375C104.216 59.0799 93.3165 44.4832 92.4597 43.6987C89.0148 40.5535 85.3101 41.0091 83.006 42.345C69.394 50.2382 63.1367 89.308 63.1367 89.308Z" fill="#0C5A29"/>
<path d="M93.2711 72.8787C91.1308 73.1335 88.9838 73.4676 86.8993 74.058C85.8624 74.3519 84.845 74.695 83.8296 75.0626C83.3232 75.2457 82.8145 75.4105 82.3022 75.5722C81.7765 75.7387 81.2117 75.8945 80.6612 75.9181C80.6117 75.9205 80.6136 75.9994 80.6631 76.0002C81.1991 76.0112 81.7118 76.0195 82.246 75.954C82.7535 75.8917 83.2577 75.7714 83.7527 75.6365C84.807 75.349 85.8483 75.0098 86.9 74.7108C89.0215 74.1077 91.1418 73.5059 93.2996 73.0673C93.3986 73.0475 93.3724 72.8669 93.2711 72.8787Z" fill="#343826"/>
<path d="M98.6046 74.8606C96.8414 74.6855 95.043 74.5976 93.2719 74.637C92.3807 74.6567 91.4979 74.7313 90.6118 74.8315C90.1889 74.8792 89.7668 74.9348 89.3454 74.9963C88.8818 75.0638 88.4257 75.1979 87.9617 75.2578C87.9133 75.2641 87.9137 75.3446 87.9636 75.3399C88.4031 75.2973 88.8511 75.332 89.2925 75.3166C89.7357 75.3012 90.179 75.2819 90.6222 75.2665C91.5097 75.2353 92.3973 75.2144 93.2848 75.1742C95.0614 75.0934 96.8306 75.0322 98.6087 75.0168C98.7048 75.0156 98.6959 74.8697 98.6046 74.8606Z" fill="#343826"/>
<path d="M86.7648 41.3244C84.0485 41.6206 85.0998 46.8487 87.7725 51.1191C90.0115 54.6969 94.9346 59.9159 95.7497 59.568C96.5648 59.2201 96.2233 48.9608 93.8778 46.2058C91.5323 43.4512 88.3125 41.1556 86.7648 41.3244Z" fill="#D3766A"/>
<path d="M86.211 43.6796C86.2017 44.573 88.7213 51.0466 92.3828 51.8126C93.5757 52.0599 95.1309 45.1733 95.1309 45.1733L95.3549 44.6929L98.4818 37.966L91.8793 30.5521L90.9101 29.5459C90.9101 29.5459 90.1682 31.4466 89.2669 33.823C89.2244 33.933 89.1823 34.0431 89.1383 34.1614C89.084 34.2943 89.0311 34.4194 88.986 34.546C88.847 34.899 88.7065 35.2603 88.5735 35.6235C88.4714 35.8992 88.3705 36.1671 88.2733 36.4605C88.1683 36.7528 88.0726 37.0379 87.9676 37.3302C86.9932 40.2331 86.2198 43.3014 86.211 43.6796Z" fill="#D3766A"/>
<path d="M89.2656 33.8235C89.8748 39.9875 93.5851 43.4064 95.3536 44.6934L98.4805 37.9665L91.878 30.5526L90.9088 29.5464C90.9088 29.5464 90.1669 31.4471 89.2656 33.8235Z" fill="#343826"/>
<path d="M110.048 27.3848C109.926 40.5621 102.516 41.9725 99.8521 41.9414C97.4345 41.913 89.2066 41.489 88.0511 28.3689C86.8959 15.2485 92.6766 11.1433 98.209 10.8956C103.742 10.6483 110.17 14.2076 110.048 27.3848Z" fill="#D3766A"/>
<path d="M108.167 25.0387C107.878 24.9993 107.617 24.9113 107.334 24.8403C107.016 24.7607 106.754 24.7319 106.522 24.4652C106.397 24.3225 106.41 24.0353 106.529 23.8929C106.805 23.5612 107.218 23.5553 107.605 23.6346C108.026 23.7206 108.329 23.902 108.604 24.2511C108.869 24.5899 108.548 25.0908 108.167 25.0387Z" fill="#343826"/>
<path d="M99.5816 24.6128C99.8717 24.5805 100.134 24.4992 100.418 24.4353C100.739 24.3636 101 24.3415 101.239 24.0808C101.367 23.9411 101.36 23.6536 101.245 23.5084C100.976 23.1696 100.563 23.1539 100.174 23.2233C99.7516 23.2986 99.4448 23.4722 99.1627 23.8145C98.8892 24.147 99.1986 24.6554 99.5816 24.6128Z" fill="#343826"/>
<path d="M101.369 27.1699C101.362 27.1356 101.304 27.2133 101.305 27.25C101.342 28.1465 101.242 29.1807 100.485 29.4879C100.461 29.4974 100.464 29.5424 100.492 29.538C101.419 29.387 101.538 28.0136 101.369 27.1699Z" fill="#343826"/>
<path d="M100.61 26.2424C99.2563 26.1497 99.182 29.0452 100.436 29.1312C101.67 29.2156 101.745 26.3201 100.61 26.2424Z" fill="#343826"/>
<path d="M100.075 26.3804C99.8342 26.5374 99.5943 26.8198 99.3078 26.8415C98.9762 26.8668 98.7344 26.5563 98.5256 26.2586C98.5041 26.2278 98.4797 26.2523 98.4783 26.2905C98.4565 26.8451 98.6417 27.4201 99.1969 27.5191C99.7037 27.6095 100.081 27.129 100.225 26.5749C100.253 26.4719 100.172 26.3169 100.075 26.3804Z" fill="#343826"/>
<path d="M106.385 26.8804C106.393 26.8464 106.45 26.9253 106.447 26.962C106.391 27.8577 106.468 28.8935 107.218 29.2201C107.242 29.2303 107.238 29.2753 107.21 29.2698C106.287 29.0954 106.197 27.7193 106.385 26.8804Z" fill="#343826"/>
<path d="M107.167 25.9718C108.522 25.9131 108.533 28.8097 107.277 28.8641C106.042 28.9178 106.031 26.0211 107.167 25.9718Z" fill="#343826"/>
<path d="M107.734 26.1597C107.949 26.3123 108.163 26.5904 108.419 26.6073C108.716 26.6267 108.934 26.3127 109.123 26.0114C109.143 25.9802 109.164 26.0043 109.165 26.0425C109.181 26.5963 109.012 27.1733 108.514 27.2818C108.059 27.3808 107.724 26.9071 107.598 26.3561C107.575 26.2539 107.648 26.0981 107.734 26.1597Z" fill="#343826"/>
<path d="M101.483 34.7458C101.669 34.971 101.85 35.2751 102.152 35.326C102.443 35.3749 102.794 35.2609 103.07 35.171C103.097 35.1623 103.122 35.1942 103.103 35.2199C102.862 35.5464 102.389 35.7255 102.005 35.623C101.63 35.5228 101.466 35.1579 101.399 34.7801C101.39 34.7272 101.456 34.713 101.483 34.7458Z" fill="#343826"/>
<path d="M105.04 31.5616C105.04 31.5616 105.194 32.9046 105.185 33.5365C105.183 33.5957 105.04 33.6213 104.839 33.6308C104.829 33.6339 104.824 33.6379 104.816 33.6312C103.767 33.7877 102.719 33.385 102.097 32.4633C102.057 32.401 102.133 32.3367 102.187 32.3773C102.958 33.002 103.819 33.1744 104.746 33.2064C104.791 33.032 104.411 30.916 104.505 30.91C104.829 30.886 105.464 31.1317 105.845 31.2575C105.601 28.4504 104.937 25.708 104.732 22.9088C104.727 22.8086 104.862 22.781 104.888 22.8705C105.774 25.6922 106.122 28.9162 106.445 31.8081C106.488 32.1682 105.275 31.6728 105.04 31.5616Z" fill="#343826"/>
<path d="M88.3615 28.2801C90.3532 28.7392 91.3203 23.8298 91.3203 23.8298C91.3203 23.8298 95.4083 24.4384 97.5601 18.3603C97.5601 18.3603 97.0981 21.268 95.086 23.2851C95.086 23.2851 102.471 23.9943 106.331 17.9975C106.331 17.9975 104.701 21.1008 103.416 22.1018C103.416 22.1018 106.555 21.6419 108.366 19.2367C108.366 19.2367 109.153 23.1368 109.994 24.3051C109.994 24.3051 111.418 10.7993 99.5463 10.5287C99.5463 10.5287 92.1612 9.98124 88.7419 15.7796C85.3233 21.578 88.3615 28.2801 88.3615 28.2801Z" fill="#343826"/>
<path d="M87.7448 27.4469C87.9196 29.2687 85.281 20.5161 85.4751 19.2564C85.6695 17.997 88.7473 12.1394 94.0405 10.2399C98.4742 8.64877 103.383 10.9364 104.238 11.347C105.853 12.1236 106.744 13.301 106.744 13.301C106.744 13.301 100.319 10.2813 94.4094 11.2326C91.5604 11.6913 87.0908 20.6238 87.7448 27.4469Z" fill="#0C5A29"/>
<path d="M91.9844 9.36373C91.9844 9.36373 93.7676 5.80526 97.0062 5.19824C97.0062 5.19824 97.0757 8.65693 95.9944 9.86898C95.457 10.4721 92.9155 10.8759 92.5902 10.4425C92.2649 10.009 91.9844 9.36373 91.9844 9.36373Z" fill="#0C5A29"/>
<path opacity="0.1" d="M91.9844 9.36567C91.9844 9.36567 92.2664 10.007 92.5884 10.4381C92.5991 10.4555 92.6169 10.4744 92.6427 10.4874C92.6605 10.5063 92.6864 10.5194 92.7189 10.534C92.7392 10.5383 92.7584 10.5501 92.7854 10.5556C93.0845 10.6574 93.6323 10.6393 94.2023 10.5422C94.1047 10.0839 93.9473 9.49189 93.7654 9.06789C93.6079 8.70226 93.1691 8.40447 92.7366 8.18359C92.2361 8.85372 91.9844 9.36567 91.9844 9.36567Z" fill="#050400"/>
<path d="M91.214 9.889C91.214 9.889 86.6283 9.43857 84.5039 10.6321C84.5039 10.6321 85.8395 13.0795 88.1495 13.5559C89.1842 13.7693 92.0542 11.5992 91.8601 11.0395C91.6657 10.4794 91.214 9.889 91.214 9.889Z" fill="#0C5A29"/>
<path opacity="0.1" d="M90.1705 9.823C90.1132 10.2786 90.1044 10.9254 90.3435 11.4216C90.4751 11.6989 90.7173 11.9545 90.986 12.1781C91.5479 11.7099 91.9301 11.2563 91.8584 11.037C91.6658 10.4825 91.2119 9.88768 91.2119 9.88768C91.2119 9.88768 90.803 9.84509 90.1705 9.823Z" fill="#050400"/>
<path d="M90.8028 11.018C91.2276 11.7741 92.1462 12.0199 92.8552 11.5667C93.5638 11.1135 93.7941 10.1333 93.3694 9.37724C92.9447 8.62114 92.026 8.37541 91.3174 8.8286C90.6084 9.28139 90.3781 10.2619 90.8028 11.018Z" fill="#0C5A29"/>
<path d="M90.0744 28.7004C90.0744 28.7004 87.7625 24.329 85.9287 25.1703C84.0951 26.0116 85.5745 32.1547 87.5455 33.1774C89.5158 34.2002 90.4389 32.2726 90.4389 32.2726L90.0744 28.7004Z" fill="#D3766A"/>
<path d="M86.391 26.9201C86.3584 26.9134 86.3477 26.9623 86.3747 26.9772C87.7517 27.7448 88.3779 29.2404 88.773 30.7653C88.3978 30.1555 87.8459 29.7855 87.0863 30.2533C87.0464 30.2778 87.0767 30.344 87.1177 30.3389C87.7169 30.2655 88.1306 30.4178 88.4818 30.9605C88.7305 31.3447 88.8817 31.8137 89.0459 32.2448C89.1006 32.3883 89.3386 32.339 89.3039 32.1765C89.3013 32.1647 89.298 32.1521 89.2954 32.1402C89.5079 30.1938 88.335 27.3188 86.391 26.9201Z" fill="#343826"/>
<path d="M76.2206 49.2794C66.7598 62.7233 58.8842 78.325 60.737 88.1639C61.9746 94.7353 71.6334 90.4338 72.4301 89.9419C80.8472 84.7442 82.1939 64.1586 83.9121 52.2668C85.6173 40.4605 79.705 44.3278 76.2206 49.2794Z" fill="#D3766A"/>
<path d="M61.8376 90.2096C65.9993 94.4457 74.2834 93.445 95.0971 91.3073C97.9771 91.0114 100.883 69.601 97.7915 69.7486C93.8983 69.9339 78.828 71.5534 77.7401 71.8205C68.5629 74.0718 59.2489 87.5749 61.8376 90.2096Z" fill="#D3766A"/>
<path d="M95.0591 71.2944C95.0591 71.2944 101.833 67.2275 106.011 66.2663C111.607 64.9793 116.935 66.3258 119.135 67.0342C123.729 68.5125 133.878 75.4756 132.508 78.9442C131.268 82.0842 121.231 74.4075 121.231 74.4075C121.231 74.4075 132.675 80.4327 130.531 83.9206C128.387 87.4085 117.211 77.7901 117.211 77.7901C117.211 77.7901 128.839 84.2622 126.094 87.4858C124.02 89.9217 113.438 81.8187 113.438 81.8187C113.438 81.8187 123.397 87.455 121.365 90.0586C119.119 92.9355 108.911 86.1097 108.911 86.1097C102.703 91.7992 97.5651 91.7988 93.9106 91.3338C93.0256 91.2214 95.0591 71.2944 95.0591 71.2944Z" fill="#D3766A"/>
<path d="M117.396 72.0533C118.764 72.7092 120.153 73.3632 121.462 74.1465C122.771 74.9298 124.055 75.7628 125.29 76.6724C128.318 78.904 129.888 80.8067 129.779 80.7006C127.203 78.1873 122.558 75.3057 121.248 74.522C119.942 73.7402 118.672 72.8883 117.366 72.1054C117.333 72.0856 117.363 72.0379 117.396 72.0533Z" fill="#343826"/>
<path d="M114.664 77.0448C116.377 77.963 118.109 78.8075 119.785 79.8065C121.453 80.8009 122.953 81.8997 124.552 83.014C124.675 83.0996 124.592 83.1422 124.464 83.0613C122.825 82.0161 121.234 81.1851 119.583 80.1603C117.939 79.1396 116.318 78.0423 114.64 77.0866C114.614 77.0716 114.638 77.031 114.664 77.0448Z" fill="#343826"/>
<path d="M111.588 80.8785C114.273 82.1387 116.738 83.9258 119.115 85.7405C119.234 85.8309 119.12 85.8731 118.994 85.7883C116.52 84.1214 114.591 82.7954 111.546 80.9783C111.499 80.9499 111.531 80.8521 111.588 80.8785Z" fill="#343826"/>
<path d="M81.1143 71.2434C79.5651 71.7518 78.0151 72.2291 76.4828 72.7434C75.7195 73.0084 74.9547 73.2652 74.2179 73.5772C73.4709 73.877 72.787 74.2229 72.1349 74.7017C71.4732 75.1553 70.8392 75.6712 70.2212 76.208C69.5968 76.7377 68.9998 77.3053 68.4017 77.8733C67.2243 79.0317 66.0806 80.2331 65.043 81.5607C65.8303 80.0422 66.8802 78.6917 67.9999 77.4331C69.1329 76.1832 70.3531 75.02 71.7312 74.041C72.4177 73.5524 73.2036 73.1579 73.9762 72.8771C74.7551 72.5951 75.5361 72.3494 76.3276 72.1514C77.9064 71.7435 79.5015 71.4312 81.1143 71.2434Z" fill="#343826"/>
<path d="M98.2969 69.4882C99.2628 68.8603 100.271 68.3104 101.297 67.7993C102.321 67.2853 103.377 66.8389 104.461 66.4705C104.734 66.3837 105.005 66.2918 105.283 66.222C105.558 66.1427 105.836 66.0725 106.119 66.0204C106.684 65.9045 107.259 65.8583 107.819 65.8315C108.947 65.7712 110.081 65.7057 111.21 65.8157C110.645 65.8374 110.084 65.8895 109.524 65.9522C108.963 66.0047 108.402 66.0658 107.843 66.134C107.279 66.2058 106.726 66.2524 106.187 66.3868C105.914 66.4448 105.644 66.5127 105.375 66.5943C105.105 66.6653 104.839 66.7592 104.571 66.8464C103.503 67.1994 102.454 67.6316 101.409 68.0762C100.887 68.2994 100.367 68.5305 99.8513 68.7715C99.3293 69.0011 98.8159 69.2492 98.2969 69.4882Z" fill="#343826"/>
<path d="M105.102 89.0118C105.769 88.5779 106.418 88.1153 107.036 87.6096C107.66 87.1134 108.257 86.5798 108.81 86.0031L108.883 85.927L108.977 85.985C110.039 86.637 111.109 87.2862 112.206 87.8727C113.305 88.456 114.409 89.0275 115.546 89.5135C116.113 89.758 116.689 89.9769 117.274 90.1611C117.856 90.352 118.449 90.5118 119.05 90.5867C119.647 90.6577 120.267 90.6494 120.818 90.4033C121.08 90.2613 121.326 90.0645 121.49 89.7947C121.651 89.5312 121.717 89.1774 121.581 88.8753C121.743 89.1609 121.715 89.5446 121.557 89.8369C121.403 90.1335 121.155 90.3646 120.881 90.5382C120.306 90.8541 119.647 90.8813 119.028 90.8368C117.775 90.7299 116.577 90.3228 115.422 89.8487C114.265 89.3739 113.139 88.8228 112.046 88.2052C110.953 87.5875 109.871 86.9537 108.831 86.2343L108.999 86.2165C108.411 86.7778 107.79 87.2956 107.137 87.7607C106.48 88.2194 105.808 88.6521 105.102 89.0118Z" fill="#343826"/>
<path d="M151.93 122.566H182.339C182.926 115.748 183.486 109.205 183.961 103.553V103.548C183.988 103.249 184.014 102.95 184.041 102.647V102.642C184.188 100.893 184.325 99.2428 184.454 97.697C184.485 97.389 184.512 97.0805 184.534 96.7772C184.556 96.5355 184.578 96.2984 184.596 96.0614C185.156 89.428 185.503 85.2175 185.503 85.2175H156.413C156.413 85.2175 156.409 85.2507 156.404 85.3075C156.387 85.4688 156.338 85.8336 156.275 86.3791H156.271C156.24 86.6824 156.196 87.0382 156.146 87.4507C156.138 87.5312 156.124 87.6215 156.115 87.7115C156.106 87.7541 156.106 87.7967 156.098 87.8444C156.093 87.8917 156.089 87.9442 156.08 87.9962C156.08 88.001 156.075 88.0057 156.075 88.0104C155.853 89.8737 155.529 92.5861 155.124 95.9288C155.111 96.0618 155.093 96.1896 155.075 96.3225C155.062 96.4459 155.049 96.569 155.036 96.6972C155.027 96.7587 155.018 96.8254 155.009 96.8916C154.88 98.0011 154.738 99.1722 154.587 100.396C154.538 100.827 154.485 101.259 154.436 101.7C154.396 102.012 154.356 102.33 154.32 102.648C154.315 102.686 154.307 102.728 154.307 102.771C154.293 102.861 154.284 102.952 154.271 103.037C154.174 103.848 154.076 104.672 153.974 105.516C153.96 105.644 153.942 105.782 153.925 105.915C153.88 106.294 153.832 106.678 153.787 107.072C153.351 110.708 152.88 114.63 152.391 118.703C152.365 118.93 152.338 119.163 152.307 119.395C152.183 120.442 152.059 121.499 151.93 122.566Z" fill="#343826"/>
<path d="M177.934 122.566H178.378C179.138 114.904 179.804 107.232 180.44 99.5555C180.453 99.3563 180.471 99.1524 180.489 98.9579C180.489 98.9579 180.489 98.9532 180.489 98.9485C180.489 98.9485 180.489 98.9485 180.489 98.9437C180.498 98.8061 180.511 98.6688 180.52 98.5312C180.569 97.9478 180.618 97.3649 180.666 96.7768V96.772C180.684 96.5492 180.702 96.3263 180.715 96.1035C180.898 93.8371 181.08 91.5661 181.258 89.2946C181.262 89.2189 181.151 89.2189 181.142 89.2946C180.929 91.4994 180.715 93.6948 180.506 95.8996V95.9232C180.502 95.9848 180.498 96.042 180.489 96.1035C180.422 96.8478 180.351 97.583 180.284 98.332C180.275 98.4361 180.262 98.5406 180.258 98.6448C180.222 98.9911 180.191 99.3322 180.156 99.6785C179.436 107.317 178.716 114.941 177.934 122.566Z" fill="#37474F"/>
<path d="M160.605 85.217L160.637 85.4115L160.641 85.4636L160.757 86.2461L160.77 86.379V86.3837L160.979 87.8254L162.161 96.1421L162.41 97.8965L162.53 98.7358L163.09 102.662L163.121 102.899L163.476 105.374L164.032 109.295L164.525 112.747V112.752L164.658 113.681V113.691L165.01 116.166V116.175L165.036 116.346L165.129 117.015V117.019L165.818 121.851L165.92 122.567H186.389C187.366 116.654 188.313 110.945 189.161 105.848C189.192 105.649 189.224 105.464 189.255 105.274V105.269C189.824 101.837 190.344 98.6929 190.801 95.9619C190.885 95.431 190.975 94.9092 191.059 94.4067C191.103 94.1176 191.152 93.8328 191.197 93.5579C192.054 88.385 192.583 85.2174 192.583 85.2174H160.605V85.217Z" fill="#37474F"/>
<path d="M156.383 85.1887C156.383 85.1887 156.387 85.2266 156.401 85.3074C156.423 85.483 156.476 85.8525 156.556 86.3791H156.561C156.587 86.583 156.623 86.8153 156.663 87.076C156.681 87.1802 156.699 87.2989 156.716 87.4125C156.725 87.4456 156.73 87.4787 156.734 87.517C156.734 87.5312 156.738 87.5454 156.743 87.5643C156.761 87.6925 156.783 87.825 156.805 87.9674C157.121 89.9352 157.605 92.7896 158.245 96.0708C158.352 96.6163 158.463 97.1756 158.578 97.74C158.712 98.3991 158.849 99.0724 158.996 99.7504C159.218 100.779 159.449 101.832 159.698 102.894C159.742 103.098 159.791 103.302 159.84 103.506C160.054 104.407 160.271 105.312 160.507 106.218C161.324 109.433 162.262 112.614 163.297 115.426V115.431C163.328 115.525 163.359 115.611 163.395 115.706C163.395 115.706 163.799 115.838 164.537 116.137C164.688 116.199 164.857 116.27 165.039 116.346C165.364 116.479 165.737 116.644 166.15 116.829C166.261 116.881 166.377 116.933 166.497 116.986C166.692 117.086 166.888 117.18 167.097 117.28H167.101C168.323 117.863 169.803 118.626 171.492 119.603C171.652 119.693 171.811 119.788 171.971 119.883C171.971 119.883 171.976 119.954 171.985 120.087V120.091C172.011 120.466 172.073 121.319 172.163 122.566H200.914C199.959 112.287 199.052 102.676 198.395 95.777C198.208 93.7855 198.039 92.0217 197.897 90.528C197.893 90.4996 197.888 90.4665 197.888 90.4381C197.884 90.386 197.879 90.3339 197.871 90.2815C197.853 90.1012 197.839 89.921 197.822 89.7506C197.546 86.8536 197.386 85.1891 197.386 85.1891H156.383V85.1887Z" fill="#343826"/>
<path d="M194.129 89.9775C194.178 90.6176 194.223 91.2578 194.267 91.8979C194.285 92.135 194.303 92.3768 194.32 92.6185C194.396 93.7044 194.471 94.795 194.551 95.8855C195.182 104.781 195.804 113.676 196.471 122.566H196.862C196.16 113.671 195.484 104.771 194.813 95.8761C194.729 94.7476 194.644 93.6144 194.556 92.4813C194.538 92.2442 194.52 92.0024 194.507 91.7607C194.458 91.1678 194.418 90.5754 194.373 89.9826C194.361 89.8166 194.121 89.8166 194.129 89.9775Z" fill="#37474F"/>
<path d="M161.923 114.893C165.4 116.17 168.755 117.982 171.964 119.883C172.09 119.957 172.007 120.165 171.87 120.103C168.488 118.553 165.039 117.07 161.74 115.324C161.482 115.187 161.656 114.795 161.923 114.893Z" fill="#37474F"/>
<path d="M160.854 90.1292C160.863 90.0045 161.068 89.9765 161.067 90.1114C161.04 94.396 161.296 98.1655 161.634 102.17C161.791 104.029 163.193 114.302 166.214 113.553C166.72 113.428 166.978 112.896 167.058 112.083C167.153 111.105 166.808 109.905 166.656 108.932C166.321 106.782 166.052 104.624 165.879 102.451C165.556 98.3962 165.54 94.3408 166.002 90.298C166.017 90.1651 166.197 90.1753 166.197 90.3098C166.192 95.9236 166.33 101.527 167.116 107.087C167.495 109.759 168.756 113.782 166.137 114.193C163.468 114.612 161.743 107.873 161.417 106.03C160.509 100.887 160.473 95.3336 160.854 90.1292Z" fill="#37474F"/>
<path d="M166.132 113.829C166.405 114.519 166.624 115.237 166.811 115.959C166.956 116.519 167.154 117.125 167.094 117.709C167.082 117.822 166.941 117.834 166.885 117.757C166.53 117.277 166.38 116.622 166.183 116.053C165.953 115.395 165.709 114.741 165.498 114.076C165.357 113.634 165.963 113.404 166.132 113.829Z" fill="#37474F"/>
<path d="M179.8 93.4905C179.833 93.0499 179.799 92.5793 179.929 92.1565C179.949 92.0907 180.031 92.0978 180.051 92.1597C180.166 92.5253 180.155 92.9292 180.192 93.3118C180.234 93.7535 180.289 94.1945 180.333 94.6374C180.424 95.5395 180.569 96.4415 180.776 97.3215C181.171 98.9958 181.943 100.515 183.083 101.744C184.194 102.943 185.533 103.829 186.984 104.485C188.607 105.219 190.314 105.492 191.991 106.018C192.061 106.04 192.041 106.147 191.971 106.15C190.166 106.209 188.226 105.699 186.55 105.011C185.047 104.395 183.616 103.466 182.48 102.241C181.303 100.972 180.507 99.4249 180.108 97.6914C179.905 96.8079 179.819 95.9075 179.783 94.9995C179.763 94.4923 179.762 93.9949 179.8 93.4905Z" fill="#37474F"/>
<path d="M170.091 41.4429C168.721 48.942 160.17 75.0839 152.397 81.6372C147.161 86.0508 132.678 84.9586 127.615 85.2399C125.152 85.3767 124.902 64.7126 127.464 64.0456C130.251 63.3203 142.737 63.6039 144.429 62.5243C146.122 61.4448 156.095 48.1654 162.651 39.8474C166.578 34.8647 170.862 37.2226 170.091 41.4429Z" fill="#F7A9A0"/>
<path d="M130.395 63.9879C122.96 62.8378 114.825 62.7155 107.875 66.6005C106.512 67.3626 106.086 68.53 106.086 68.53C102.942 70.2123 102.743 72.3011 102.743 72.3011C100.264 74.8246 100.335 76.9912 100.335 76.9912C100.335 76.9912 96.8895 78.5223 97.6643 81.092C98.5248 83.9764 103.287 81.0652 107.1 80.9855C115.838 80.8033 128.305 83.1513 130.83 83.3658L130.395 63.9879Z" fill="#F7A9A0"/>
<path d="M116.132 73.9286C113.562 74.0371 111.034 74.0718 108.491 74.551C105.7 75.0767 103.098 76.0821 100.425 77.0351C100.341 77.0646 100.294 76.9443 100.372 76.901C104.955 74.3585 110.998 73.2707 116.129 73.8039C116.253 73.8166 116.261 73.9231 116.132 73.9286Z" fill="#343826"/>
<path d="M116.798 68.2853C114.303 68.5385 109.92 69.0142 102.78 72.383C102.757 72.394 102.732 72.3554 102.756 72.3396C107.119 69.4942 111.717 68.2183 116.787 68.1587C116.944 68.1567 116.964 68.2684 116.798 68.2853Z" fill="#343826"/>
<path d="M117.095 65.2461C112.867 65.8495 110.273 66.8009 106.106 68.5411C106.083 68.5509 106.06 68.5099 106.085 68.4961C110.626 65.988 112.54 65.6271 117.096 65.0879C117.252 65.0698 117.26 65.2224 117.095 65.2461Z" fill="#343826"/>
<path d="M117.638 81.4771C118.785 81.9342 118.568 82.5795 116.495 83.2847C114.399 84.0033 105.655 84.9058 106.213 88.1412C106.767 91.3897 119.122 89.896 122.49 88.439C125.861 86.9903 130.827 83.3659 130.827 83.3659C128.369 83.1403 122.456 81.9859 117.638 81.4771Z" fill="#F7A9A0"/>
<path d="M128.734 61.6019L129.568 85.7657C129.568 85.7657 137.214 88.5018 142.488 88.449C149.562 88.3784 153.614 84.558 155.701 81.5166C160.172 75.0023 166.459 56.8167 170.034 43.63C173.359 31.3714 164.638 36.7245 162.07 39.9493C160.635 41.7514 144.591 60.9897 143.83 61.3885C143.431 61.5975 142.53 61.646 137.532 61.6448C132.99 61.644 128.734 61.6019 128.734 61.6019Z" fill="#DE3529"/>
<path d="M134.481 63.7148C134.543 64.4019 134.655 65.0807 134.703 65.7698C134.75 66.4379 134.797 67.1061 134.83 67.775C134.897 69.135 134.954 70.4949 135.011 71.8553C135.126 74.578 135.227 77.305 135.253 80.0305C135.261 80.8051 135.265 81.5798 135.276 82.3544C135.287 83.0833 135.325 83.8528 135.232 84.5754C135.226 84.6278 135.16 84.6192 135.151 84.5734C135.015 83.9108 134.991 83.1925 134.948 82.5161C134.906 81.8476 134.861 81.1798 134.816 80.5117C134.725 79.1537 134.653 77.7961 134.593 76.4365C134.473 73.7556 134.365 71.0735 134.293 68.3907C134.272 67.6164 134.261 66.8434 134.254 66.0687C134.248 65.2886 134.307 64.5139 134.317 63.7345C134.318 63.6245 134.471 63.5985 134.481 63.7148Z" fill="#343826"/>
<path d="M170.04 43.6304C166.465 56.8159 160.179 75.0015 155.706 81.5178C153.715 84.4176 149.941 88.0257 143.461 88.415L166.74 36.4058C169.574 35.2131 172.082 36.091 170.04 43.6304Z" fill="#37474F"/>
<path d="M154.274 95.7515C155.008 96.5884 200.239 95.9649 200.477 95.6501C201.122 94.7934 188.097 45.3759 177.416 36.5172C175.119 34.6122 165.988 34.5648 163.984 38.9496C155.411 57.7067 153.636 95.0167 154.274 95.7515Z" fill="#DE3529"/>
<path d="M174.104 44.5773C177.638 50.7366 189.433 70.8024 190.218 72.3683C190.218 72.3683 209.232 80.5292 209.992 68.9344C210.504 61.1233 190.865 42.987 179.981 37.6808C174.811 35.1609 169.098 35.8519 174.104 44.5773Z" fill="#DE3529"/>
<path d="M187.956 68.3812C187.105 67.0741 186.288 65.7441 185.477 64.4106C184.664 63.0774 183.88 61.7257 183.081 60.3847C182.307 59.0263 181.519 57.677 180.758 56.3103L179.622 54.2562C179.255 53.564 178.877 52.8785 178.52 52.1799C178.948 52.8315 179.357 53.4961 179.776 54.154L180.999 56.1502C181.811 57.4837 182.596 58.8346 183.394 60.1764C184.168 61.5352 184.956 62.8838 185.716 64.2512C186.478 65.6179 187.234 66.9881 187.956 68.3812Z" fill="#343826"/>
<path d="M178.688 53.8645C179.039 54.2167 179.36 54.5902 179.682 54.9634C180.001 55.34 180.318 55.7124 180.633 56.1017C180.427 55.9672 180.239 55.8051 180.058 55.6362C179.876 55.4674 179.709 55.2836 179.545 55.0959C179.226 54.7145 178.927 54.3122 178.688 53.8645Z" fill="#343826"/>
<path d="M174.621 77.2179C172.815 79.3091 177.115 98.4129 180.772 96.8999C197.969 89.7861 207.824 76.3612 209.368 72.8351C211.393 68.214 208.003 62.9666 205.011 61.9908C200.673 60.576 176.41 75.1472 174.621 77.2179Z" fill="#F7A9A0"/>
<path d="M175.75 77.1663C175.75 77.1663 167.981 77.4061 163.936 78.88C158.519 80.8541 154.604 84.9379 153.06 86.7547C149.838 90.5474 144.504 102.095 147.353 104.315C149.932 106.324 154.825 94.2258 154.825 94.2258C154.825 94.2258 147.929 105.682 151.451 107.492C154.973 109.302 159.905 94.9137 159.905 94.9137C159.905 94.9137 153.066 106.854 156.975 108.107C159.929 109.054 165.084 96.2914 165.084 96.2914C165.084 96.2914 159.272 106.598 162.27 107.711C165.584 108.942 171.035 97.4794 171.035 97.4794C179.104 98.9411 183.506 96.1155 186.414 93.7075C187.118 93.1246 175.75 77.1663 175.75 77.1663Z" fill="#F7A9A0"/>
<path d="M156.973 90.1C156.117 91.4142 155.243 92.7387 154.499 94.1298C153.756 95.5209 153.058 96.9409 152.439 98.3994C150.921 101.977 150.496 104.471 150.538 104.32C151.532 100.749 154.12 95.7257 154.864 94.3337C155.606 92.9458 156.282 91.5172 157.024 90.128C157.042 90.0933 156.993 90.0689 156.973 90.1Z" fill="#343826"/>
<path d="M161.729 92.8729C160.705 94.6016 159.628 96.2779 158.675 98.056C157.726 99.825 156.971 101.592 156.139 103.426C156.075 103.567 156.167 103.558 156.237 103.419C157.137 101.622 158.099 100.034 159.018 98.2485C159.935 96.4692 160.794 94.6379 161.77 92.8958C161.785 92.8681 161.745 92.8468 161.729 92.8729Z" fill="#343826"/>
<path d="M166.212 94.4694C164.519 97.0261 163.271 99.9128 162.109 102.776C162.052 102.918 162.169 102.892 162.236 102.75C163.551 99.961 164.564 97.7632 166.296 94.5317C166.323 94.4813 166.248 94.4154 166.212 94.4694Z" fill="#343826"/>
<path d="M178.113 74.089L184.1 97.6857C184.1 97.6857 190.472 98.9612 196.118 94.4502C202.732 89.1658 208.848 77.5879 210.054 71.4503C210.846 67.4249 207.899 61.5543 203.662 61.8205C196.016 62.3005 178.113 74.089 178.113 74.089Z" fill="#DE3529"/>
<path d="M183.661 72.7439C183.887 73.4487 184.162 74.1319 184.376 74.8422C184.582 75.5313 184.789 76.2203 184.981 76.9145C185.373 78.3246 185.754 79.7382 186.136 81.1518C186.899 83.9806 187.651 86.8184 188.324 89.6741C188.516 90.4858 188.705 91.2983 188.901 92.1088C189.084 92.8716 189.306 93.6699 189.384 94.4541C189.389 94.5109 189.321 94.5199 189.3 94.4742C189.005 93.8147 188.809 93.0673 188.605 92.368C188.403 91.6773 188.199 90.9879 187.994 90.298C187.58 88.8963 187.184 87.4894 186.798 86.0777C186.04 83.2939 185.292 80.5057 184.582 77.7069C184.376 76.8991 184.181 76.0902 183.99 75.2781C183.798 74.46 183.674 73.6306 183.499 72.8094C183.474 72.693 183.623 72.6244 183.661 72.7439Z" fill="#343826"/>
<path d="M195.809 64.2727C186.071 67.8339 178.125 74.0094 178.106 74.0189C177.949 74.0989 178.074 74.2737 178.162 74.2295C179.789 73.4146 187.137 68.4398 195.856 64.5417C195.915 64.5165 195.868 64.2514 195.809 64.2727Z" fill="#343826"/>
<path d="M167.621 47.0921C170.524 47.1016 174.266 41.4404 175.337 37.3408C175.409 37.0592 174.476 34.5215 173.48 31.3803C172.883 29.4713 172.26 27.3312 171.823 25.3342C171.736 24.9236 160.75 31.2975 160.75 31.2975C160.75 31.2975 162.819 35.1963 163.56 38.6826C163.619 38.9749 163.651 39.2522 163.658 39.5223C163.663 39.561 163.662 39.6091 163.671 39.6624C163.773 41.2779 164.815 47.0807 167.621 47.0921Z" fill="#F7A9A0"/>
<path d="M171.113 25.5652C171.307 29.0767 171.121 37.7232 164.891 39.4327C164.457 39.5526 164.052 39.6287 163.675 39.6622C163.659 39.607 163.663 39.5628 163.66 39.521C163.649 39.2496 163.621 38.9751 163.564 38.6837C162.821 35.1914 160.75 31.2938 160.75 31.2938C160.75 31.2938 168.674 26.696 171.113 25.5652Z" fill="#343826"/>
<path d="M171.58 10.8353C173.425 15.2158 172.734 28.6841 170.045 32.03C166.148 36.881 158.986 38.263 154.927 33.0736C150.992 28.0435 152.183 10.5079 155.259 7.38175C159.789 2.77727 168.855 4.36482 171.58 10.8353Z" fill="#F7A9A0"/>
<path opacity="0.3" d="M152.469 23.165C152.644 27.3001 153.397 31.126 154.924 33.0725C158.983 38.2643 166.143 36.881 170.04 32.0281C171.155 30.6393 171.93 27.5064 172.318 23.9988L169.747 19.4634C169.747 19.4634 168.04 23.7645 167.083 24.8748C165.863 26.2912 162.975 27.5778 158.54 25.3702L157.139 25.5749C157.139 25.5749 154.589 28.356 152.957 25.2267C152.595 24.5321 152.492 23.3122 152.469 23.165Z" fill="#343826"/>
<path d="M160.452 21.0516C160.46 21.0177 160.516 21.0982 160.514 21.1352C160.444 22.0412 160.508 23.0912 161.263 23.4331C161.286 23.4438 161.282 23.4891 161.254 23.4836C160.321 23.2927 160.25 21.898 160.452 21.0516Z" fill="#343826"/>
<path d="M161.256 20.1447C162.629 20.1064 162.6 23.0393 161.328 23.0748C160.076 23.1091 160.105 20.1766 161.256 20.1447Z" fill="#343826"/>
<path d="M155.622 20.7996C155.615 20.7648 155.555 20.8418 155.555 20.8788C155.573 21.7876 155.45 22.8316 154.677 23.1243C154.653 23.1333 154.655 23.1791 154.683 23.1752C155.625 23.0446 155.775 21.657 155.622 20.7996Z" fill="#343826"/>
<path d="M154.87 19.8416C153.502 19.715 153.365 22.6444 154.633 22.7615C155.88 22.8771 156.017 19.9477 154.87 19.8416Z" fill="#343826"/>
<path d="M162.359 18.8163C161.986 18.7113 161.658 18.5484 161.298 18.4037C160.893 18.2408 160.555 18.1556 160.292 17.7631C160.151 17.5529 160.214 17.1786 160.393 17.0134C160.809 16.6288 161.352 16.6966 161.847 16.8714C162.385 17.0611 162.754 17.3541 163.057 17.8625C163.352 18.356 162.851 18.9543 162.359 18.8163Z" fill="#343826"/>
<path d="M153.819 18.3527C154.201 18.2908 154.543 18.1658 154.915 18.0628C155.334 17.9469 155.679 17.9003 155.979 17.5398C156.14 17.3465 156.114 16.9675 155.953 16.7829C155.578 16.3534 155.031 16.3593 154.521 16.4772C153.968 16.605 153.572 16.8547 153.219 17.326C152.877 17.7828 153.315 18.4344 153.819 18.3527Z" fill="#343826"/>
<path d="M161.482 29.1244C161.276 29.3346 161.07 29.6253 160.76 29.6494C160.464 29.6726 160.118 29.5259 159.847 29.4103C159.821 29.3989 159.793 29.4289 159.81 29.4565C160.028 29.8075 160.49 30.0312 160.886 29.9621C161.272 29.8947 161.466 29.5417 161.564 29.1662C161.577 29.1137 161.512 29.0936 161.482 29.1244Z" fill="#343826"/>
<path d="M160.616 26.3933C160.131 27.1762 159.426 27.5995 158.667 27.7474C158.328 27.816 157.972 27.8243 157.624 27.7864C157.555 27.784 157.486 27.775 157.425 27.7596C157.363 27.7509 157.306 27.7422 157.238 27.7269C157.139 27.7103 157.085 27.6219 157.069 27.5214L157.07 27.5147C157.071 27.4815 157.071 27.4547 157.079 27.422C157.079 27.422 157.079 27.422 157.079 27.4153L157.081 27.3356C157.07 26.6359 157.145 25.5729 157.145 25.5729C156.904 25.6983 155.677 26.2703 155.7 25.905C155.899 22.8818 156.121 19.5197 156.919 16.5564C156.94 16.457 157.083 16.4819 157.074 16.5813C156.99 19.4949 156.426 22.373 156.298 25.2988C156.689 25.1454 157.328 24.8598 157.671 24.8712C157.763 24.9012 157.493 26.923 157.521 27.237C157.521 27.237 157.52 27.2504 157.526 27.2705C158.626 27.4334 159.46 27.0879 160.537 26.3109C160.601 26.2596 160.668 26.3215 160.616 26.3933Z" fill="#343826"/>
<path d="M172.008 22.8904C169.749 22.3043 168.321 14.3567 168.321 14.3567C168.321 14.3567 168.465 17.7464 167.867 17.6896C167.268 17.6328 164.658 13.1293 164.262 9.83741C164.262 9.83741 161.507 11.9996 158.711 13.0184C155.914 14.0372 152.776 13.9662 152.756 13.4539C152.698 11.9255 153.858 7.87871 155.752 6.38346C157.932 4.6622 161.074 2.95317 165.767 4.6484C170.458 6.34362 171.785 9.4635 172.559 11.892C173.334 14.3208 172.839 23.1058 172.008 22.8904Z" fill="#343826"/>
<path d="M169.62 22.4582C169.62 22.4582 171.99 17.8738 173.911 18.7317C175.832 19.5896 174.346 26.0135 172.3 27.1013C170.255 28.1892 169.273 26.1883 169.273 26.1883L169.62 22.4582Z" fill="#F7A9A0"/>
<path d="M173.445 20.5617C173.479 20.5546 173.491 20.6051 173.462 20.6213C172.033 21.4361 171.394 23.0036 170.996 24.5982C171.382 23.9581 171.954 23.5664 172.751 24.046C172.793 24.0713 172.762 24.1407 172.719 24.136C172.093 24.0658 171.663 24.2291 171.301 24.7986C171.046 25.2021 170.893 25.6931 170.725 26.144C170.67 26.2942 170.421 26.2453 170.456 26.0757C170.458 26.0631 170.462 26.0501 170.464 26.0375C170.224 24.0101 171.42 20.9983 173.445 20.5617Z" fill="#343826"/>
<path d="M160.117 4.37386C161.539 3.70413 163.236 3.00719 165.21 2.73622C167.184 2.46486 171.267 2.05821 174.386 4.94261C176.972 7.33518 176.815 11.8698 176.858 12.7857C176.901 13.7019 176.532 19.2369 174.657 20.5783C172.782 21.9197 172.577 12.5187 169.602 9.40984C166.627 6.30061 160.117 4.37386 160.117 4.37386Z" fill="#16A34A"/>
<path opacity="0.1" d="M160.117 4.37514C160.117 4.37514 166.63 6.3007 169.602 9.41072C172.579 12.5156 172.783 21.9194 174.66 20.58C175.486 19.9883 175.885 19.1123 176.222 17.6415C175.821 14.8955 174.768 10.6358 172.613 7.69025C170.595 4.93088 167.133 3.5433 163.43 3.10864C162.195 3.44272 161.093 3.91485 160.117 4.37514Z" fill="#050400"/>
<path d="M173.872 26.1755C173.698 23.6851 171.307 17.0245 168.806 13.2101C166.306 9.39562 158.979 7.18528 157.955 7.25154C155.471 7.41207 154.63 8.21788 154.236 7.98201C153.842 7.74615 156.395 5.74485 157.094 5.29639C157.792 4.84794 159.67 3.78773 160.75 3.81218C161.83 3.83664 168.492 4.52175 170.922 7.54499C173.351 10.5682 176.799 19.0503 176.178 21.2267C176.028 21.7485 175.379 22.0869 175.174 22.8277C174.904 23.7999 174.716 24.9236 174.443 25.6036C174.223 26.1518 173.888 26.3928 173.872 26.1755Z" fill="#16A34A"/>
<path d="M168.225 11.4963C168.797 11.1169 169.33 10.7047 169.836 10.2279C170.334 9.75733 170.832 9.23471 171.213 8.64979C171.24 8.60719 171.306 8.64229 171.28 8.68962C170.934 9.34634 170.551 9.94704 170.028 10.4602C169.527 10.9536 168.916 11.3626 168.278 11.6233C168.208 11.6525 168.163 11.5377 168.225 11.4963Z" fill="#343826"/>
<path d="M173.887 23.6881C173.951 23.5078 174.061 23.3485 174.141 23.1753C174.232 22.9781 174.307 22.7723 174.357 22.5589C174.453 22.1502 174.441 21.7341 174.619 21.3488C174.761 21.0431 174.963 20.7808 175.164 20.5181C175.392 20.2192 175.618 19.906 175.621 19.5045C175.622 19.4512 175.698 19.4489 175.699 19.5025C175.704 20.2594 175.229 20.7982 174.921 21.432C174.724 21.8383 174.735 22.2982 174.605 22.7273C174.495 23.0905 174.307 23.5572 173.991 23.7693C173.944 23.8009 173.864 23.7512 173.887 23.6881Z" fill="#343826"/>
<path d="M173.072 20.9983C173.293 20.7135 173.53 20.4595 173.725 20.1503C173.913 19.8541 174.076 19.5374 174.224 19.2171C174.371 18.9008 174.493 18.5726 174.633 18.2531C174.799 17.8757 175.009 17.5152 175.157 17.1302C175.176 17.0813 175.244 17.1211 175.225 17.17C175.071 17.5696 174.982 17.9983 174.84 18.4038C174.718 18.7533 174.562 19.0929 174.398 19.4222C174.24 19.7393 174.061 20.0403 173.849 20.3195C173.648 20.5842 173.388 20.8776 173.099 21.0326C173.077 21.0448 173.056 21.0188 173.072 20.9983Z" fill="#343826"/>
<path d="M172.22 18.5657C172.7 18.126 173.145 17.601 173.487 17.031C173.824 16.4686 174.131 15.8821 174.432 15.2972C174.452 15.2573 174.519 15.2818 174.504 15.3271C174.284 15.9839 174.07 16.6354 173.705 17.2208C173.532 17.498 173.341 17.7824 173.111 18.0096C172.861 18.2569 172.568 18.4565 172.271 18.6328C172.233 18.6549 172.183 18.5993 172.22 18.5657Z" fill="#343826"/>
<path d="M171.284 16.2369C171.547 16.0693 171.718 15.8228 171.901 15.568C172.102 15.2883 172.298 15.0028 172.484 14.7117C172.663 14.432 172.849 14.1579 173.028 13.8783C173.208 13.5967 173.388 13.3028 173.444 12.962C173.452 12.9167 173.523 12.9242 173.521 12.9707C173.507 13.3186 173.394 13.6341 173.255 13.9453C173.104 14.2861 172.934 14.6135 172.73 14.9215C172.529 15.224 172.315 15.5159 172.08 15.7888C171.875 16.0267 171.633 16.2712 171.328 16.3414C171.271 16.3544 171.228 16.2724 171.284 16.2369Z" fill="#343826"/>
<path d="M170.614 13.2824C170.83 13.0552 171.043 12.8276 171.242 12.5827C171.439 12.3393 171.626 12.0845 171.809 11.8277C172 11.5595 172.199 11.2921 172.374 11.0121C172.402 10.9675 172.462 11.003 172.442 11.0519C172.314 11.3647 172.186 11.6692 172.015 11.9591C171.846 12.2427 171.657 12.5081 171.453 12.7637C171.253 13.0146 171.042 13.2619 170.812 13.4831C170.592 13.6965 170.34 13.945 170.055 14.0515C170.013 14.0673 169.965 14.0105 169.992 13.9683C170.155 13.7083 170.405 13.5017 170.614 13.2824Z" fill="#343826"/>
<path d="M166.432 10.0863C166.661 9.77948 166.884 9.47973 167.141 9.19693C167.4 8.91018 167.68 8.64079 167.968 8.38678C168.532 7.88902 169.123 7.43464 169.776 7.07888C169.812 7.05916 169.86 7.11004 169.824 7.14238C168.723 8.15486 167.581 9.11922 166.488 10.1427C166.45 10.1782 166.401 10.1282 166.432 10.0863Z" fill="#343826"/>
<path d="M165.013 7.95885C165.248 7.65909 165.51 7.3897 165.803 7.15423C166.415 6.6616 167.104 6.29794 167.8 5.96071C167.844 5.93941 167.884 6.00054 167.841 6.03091C167.237 6.46202 166.625 6.88287 166.045 7.35026C165.759 7.5806 165.473 7.81922 165.213 8.08191C164.95 8.34656 164.75 8.66329 164.5 8.93741C164.48 8.95871 164.442 8.93899 164.451 8.90862C164.55 8.55758 164.795 8.23652 165.013 7.95885Z" fill="#343826"/>
<path d="M163.072 6.9877C163.288 6.69148 163.534 6.42723 163.801 6.18426C164.309 5.72318 164.882 5.36899 165.503 5.11144C165.545 5.09408 165.572 5.16232 165.535 5.18638C164.969 5.55201 164.429 5.97246 163.93 6.4359C163.679 6.66861 163.439 6.91552 163.198 7.15888C162.957 7.40066 162.753 7.70594 162.491 7.92011C162.469 7.93747 162.445 7.90631 162.456 7.88422C162.606 7.56237 162.865 7.2705 163.072 6.9877Z" fill="#343826"/>
<path d="M161.666 5.75112C161.91 5.53734 162.165 5.33855 162.421 5.14055C162.674 4.94492 162.931 4.75402 163.23 4.65108C163.275 4.63569 163.294 4.69841 163.262 4.72562C162.785 5.13227 162.315 5.55154 161.847 5.96883C161.405 6.36247 161.111 6.86852 160.758 7.34498C160.743 7.36588 160.708 7.34498 160.716 7.32013C160.893 6.70404 161.196 6.16171 161.666 5.75112Z" fill="#343826"/>
<path d="M159.907 5.35477C160.351 4.88146 160.891 4.57657 161.462 4.31428C161.502 4.29574 161.533 4.36832 161.494 4.38883C160.965 4.66848 160.503 5.09721 160.08 5.53029C159.648 5.97243 159.297 6.48282 158.966 7.01213C158.95 7.03737 158.905 7.02475 158.916 6.99122C159.109 6.36922 159.475 5.81506 159.907 5.35477Z" fill="#343826"/>
<path d="M157.613 6.4776C157.67 6.34626 157.74 6.22004 157.812 6.09816C157.959 5.85165 158.141 5.62722 158.331 5.41897C158.722 4.99142 159.191 4.66089 159.652 4.32682C159.694 4.29684 159.735 4.36783 159.693 4.39702C159.238 4.71295 158.829 5.09791 158.457 5.51955C158.274 5.72701 158.111 5.95026 157.958 6.18376C157.883 6.29774 157.816 6.41646 157.751 6.53676C157.69 6.65035 157.639 6.79196 157.559 6.89017C157.538 6.91659 157.491 6.89845 157.492 6.86295C157.497 6.73516 157.564 6.59316 157.613 6.4776Z" fill="#343826"/>
<path d="M156.213 6.61527C156.346 6.41924 156.486 6.23308 156.639 6.0544C156.792 5.87652 156.951 5.71126 157.123 5.55507C157.299 5.39612 157.482 5.24426 157.651 5.07703C157.691 5.0368 157.743 5.10266 157.699 5.14053C157.518 5.29514 157.359 5.47934 157.207 5.66432C157.062 5.83944 156.915 6.0126 156.77 6.18733C156.625 6.36166 156.48 6.53599 156.336 6.71151C156.191 6.88861 156.062 7.0941 155.9 7.25266C155.873 7.27909 155.837 7.24832 155.851 7.21401C155.935 6.99905 156.085 6.80302 156.213 6.61527Z" fill="#343826"/>
<path d="M231.006 122.565H190.887C189.976 119.966 188.554 115.619 187.212 110.294C187.145 110.019 187.074 109.739 187.003 109.459C185.816 104.637 184.714 99.0751 184.105 93.3189C184.101 93.2905 224.402 93.3142 224.402 93.3142C224.402 93.3142 224.402 93.3142 224.407 93.3189C224.407 93.3284 224.424 93.3615 224.455 93.423C225.118 94.8173 231.859 109.317 231.006 122.565Z" fill="#37474F"/>
<path d="M224.463 93.3198C224.463 93.3198 224.463 93.3577 224.458 93.4239C224.423 94.8084 223.898 109.498 218.33 122.565H175.562C176.611 116.378 177.807 110.299 179.175 104.6C179.171 104.595 179.175 104.59 179.175 104.59C179.415 103.6 179.659 102.618 179.909 101.651C180.651 98.7443 181.442 95.9561 182.286 93.3198H224.463Z" fill="#37474F"/>
<path d="M189.842 97.0511C188.829 101.437 187.967 105.851 187.211 110.294C186.522 114.367 185.922 118.464 185.38 122.565H184.852C185.478 118.18 186.18 113.808 187.002 109.46C187.793 105.287 188.704 101.139 189.771 97.0326C189.784 96.9849 189.851 97.0038 189.842 97.0511Z" fill="#343826"/>
<path d="M179.817 101.694C179.837 101.621 179.95 101.636 179.944 101.716C179.782 104.278 179.378 107.074 180.444 109.487C181.386 111.619 183.177 112.817 184.825 114.257C184.877 114.303 184.816 114.39 184.758 114.372C182.566 113.661 180.382 112.364 179.52 109.972C178.552 107.286 179.075 104.362 179.817 101.694Z" fill="#343826"/>
<path d="M188.074 11.4783C187.238 11.6991 183.49 11.7019 181.415 15.5964C179.452 19.2811 179.761 29.708 179.509 32.019C179.256 34.3295 176.527 35.0134 176.161 37.7065C175.847 40.0226 177.47 40.6572 177.808 42.2858C178.07 43.5487 177.073 45.6163 178.373 47.3714C179.554 48.9677 181.264 48.3859 182.379 48.7929C183.493 49.2 184.437 51.7266 186.468 52.1869C188.499 52.6472 190.02 50.53 191.057 50.4124C192.094 50.2949 193.697 53.5363 197.048 52.818C200.4 52.0998 201.043 48.9223 202.375 48.1461C203.707 47.3699 207.327 47.9721 208.725 45.9109C210.123 43.8496 210.126 41.3269 210.748 40.3215C211.369 39.3162 212.893 39.2747 213.558 37.0443C214.224 34.8138 212.229 33.6984 211.768 31.8928C211.447 30.6349 212.384 29.3262 211.421 27.4634C210.096 24.902 207.075 25.8613 205.597 23.2466C204.438 21.196 201.5 12.0159 195.913 10.3613C192.054 9.21783 188.074 11.4783 188.074 11.4783Z" fill="#343826"/>
<path d="M179.551 31.4653C179.443 31.984 179.092 32.3954 178.779 32.7882L177.788 33.9411C177.132 34.6968 176.47 35.475 176.08 36.3806C175.675 37.261 175.646 38.3149 176.054 39.1629C176.254 39.5908 176.562 39.962 176.899 40.3272C177.228 40.6972 177.617 41.049 177.884 41.5941C178.146 42.1893 178.025 42.8085 177.932 43.309C177.83 43.8301 177.707 44.3278 177.628 44.8264C177.458 45.814 177.502 46.8391 178.025 47.6449C178.275 48.0417 178.626 48.3497 179.057 48.5008C179.487 48.657 179.966 48.674 180.442 48.6444C180.921 48.6215 181.404 48.5446 181.892 48.4921C182.371 48.4456 182.904 48.3959 183.34 48.659C182.881 48.4586 182.385 48.5655 181.913 48.6483C181.436 48.7442 180.96 48.866 180.467 48.9355C179.975 48.9974 179.459 49.0108 178.953 48.8605C178.446 48.7169 177.987 48.3612 177.674 47.9096C176.999 47.0111 176.967 45.7718 177.126 44.7404C177.202 44.2111 177.319 43.6987 177.408 43.1994C177.498 42.6969 177.556 42.2153 177.381 41.8528C177.001 41.0656 176.048 40.4369 175.6 39.4066C175.132 38.3906 175.18 37.13 175.697 36.1795C176.177 35.2112 176.893 34.4606 177.595 33.7372L178.672 32.6809C179.01 32.3145 179.386 31.9603 179.551 31.4653Z" fill="#343826"/>
<path d="M201.422 15.0579C202.518 16.5267 203.285 18.2239 204.193 19.8047C204.648 20.5951 205.078 21.4025 205.581 22.1429C205.835 22.503 206.094 22.8785 206.394 23.1494C206.466 23.2279 206.541 23.2898 206.616 23.3277C206.689 23.3754 206.759 23.4275 206.867 23.4618C207.06 23.5423 207.263 23.6093 207.468 23.6748C208.287 23.9489 209.151 24.1773 209.979 24.5587C210.799 24.9314 211.62 25.4986 212.108 26.358C212.348 26.7797 212.52 27.268 212.536 27.7728C212.558 28.2781 212.434 28.7577 212.291 29.2002C211.976 30.0731 211.685 30.9464 211.763 31.8918C211.554 30.9677 211.805 29.9982 212.029 29.1155C212.142 28.6713 212.229 28.2268 212.185 27.7977C212.146 27.3689 211.979 26.9686 211.748 26.6085C211.269 25.8985 210.568 25.389 209.782 25.058C208.998 24.7145 208.156 24.511 207.304 24.2432C207.092 24.171 206.88 24.096 206.668 24.003C206.471 23.9209 206.189 23.747 206.042 23.5758C205.682 23.233 205.43 22.8414 205.166 22.4548C204.665 21.6696 204.221 20.8598 203.82 20.0272L202.637 17.5277C202.257 16.6892 201.89 15.8455 201.422 15.0579Z" fill="#343826"/>
<path d="M211.51 39.5896C211.198 40.1674 211.225 40.8648 211.154 41.5195C211.095 42.1825 211.035 42.8503 210.945 43.5188C210.86 44.1882 210.722 44.8559 210.502 45.5095C210.277 46.1559 209.962 46.8055 209.442 47.3037C208.347 48.259 206.934 48.3379 205.693 48.2523C205.062 48.2081 204.441 48.1273 203.824 48.0965C203.209 48.0519 202.585 48.0661 202.004 48.3312C202.528 47.9419 203.199 47.8547 203.824 47.8046C204.458 47.7762 205.086 47.8062 205.705 47.7944C206.919 47.7821 208.204 47.6429 209.076 46.8545C209.498 46.466 209.787 45.9003 210.009 45.3095C210.242 44.7175 210.381 44.0761 210.524 43.4352C210.664 42.7919 210.769 42.136 210.885 41.4777C210.951 41.1499 211.019 40.821 211.101 40.4948C211.197 40.1797 211.268 39.8235 211.51 39.5896Z" fill="#343826"/>
<path d="M200.45 43.8299C200.438 44.7225 197.769 51.1184 194.096 51.785C192.899 51.9999 191.508 45.0822 191.508 45.0822L191.296 44.5966L188.332 37.7968L195.099 30.571L196.09 29.592C196.09 29.592 196.786 31.5097 197.63 33.9062C197.669 34.0175 197.709 34.1283 197.75 34.2478C197.801 34.3819 197.851 34.5081 197.893 34.6355C198.024 34.9921 198.155 35.3565 198.28 35.7221C198.375 36.0002 198.469 36.2704 198.559 36.5662C198.657 36.8608 198.746 37.1484 198.844 37.443C199.75 40.368 200.45 43.452 200.45 43.8299Z" fill="#FFBBB0"/>
<path d="M197.63 33.9065C196.877 40.0449 193.092 43.3588 191.296 44.5969L188.332 37.797L195.099 30.5712L196.09 29.5923C196.09 29.5923 196.786 31.51 197.63 33.9065Z" fill="#343826"/>
<path d="M176.449 27.172C175.169 40.2629 182.329 42.6866 185.019 42.8503C187.43 42.997 195.631 43.6896 198.172 30.8098C200.712 17.9299 195.413 13.157 189.949 12.242C184.485 11.3273 177.728 14.0811 176.449 27.172Z" fill="#FFBBB0"/>
<path d="M177.375 25.3569C177.665 25.3312 177.929 25.2563 178.214 25.1995C178.535 25.1356 178.798 25.1198 179.041 24.865C179.172 24.7285 179.171 24.4414 179.058 24.2935C178.797 23.9492 178.385 23.9231 177.995 23.9835C177.572 24.049 177.262 24.215 176.973 24.5503C176.693 24.8753 176.992 25.3904 177.375 25.3569Z" fill="#343826"/>
<path d="M185.096 26.0177C184.808 25.9715 184.549 25.8773 184.269 25.8C183.952 25.7128 183.692 25.6781 183.465 25.4063C183.343 25.2608 183.362 24.9744 183.484 24.8352C183.767 24.5102 184.18 24.5145 184.565 24.6029C184.983 24.6991 185.282 24.8869 185.549 25.2422C185.807 25.5866 185.476 26.0788 185.096 26.0177Z" fill="#343826"/>
<path d="M183.179 29.1896C183.187 29.1557 183.242 29.2357 183.239 29.2724C183.164 30.1654 183.22 31.2015 183.962 31.5451C183.985 31.5557 183.98 31.6007 183.953 31.5944C183.034 31.3987 182.974 30.0226 183.179 29.1896Z" fill="#343826"/>
<path d="M183.977 28.3007C185.332 28.2739 185.282 31.1666 184.027 31.1914C182.792 31.2155 182.842 28.3228 183.977 28.3007Z" fill="#343826"/>
<path d="M184.509 28.4642C184.743 28.6322 184.97 28.9261 185.255 28.9616C185.585 29.003 185.84 28.7048 186.061 28.4177C186.083 28.3881 186.106 28.4137 186.106 28.452C186.105 29.0065 185.895 29.5713 185.337 29.6431C184.827 29.7086 184.471 29.2104 184.351 28.6508C184.329 28.547 184.415 28.3964 184.509 28.4642Z" fill="#343826"/>
<path d="M178.901 28.6945C178.895 28.6602 178.835 28.7359 178.836 28.773C178.853 29.6691 178.732 30.6993 177.969 30.9881C177.946 30.9971 177.948 31.0421 177.976 31.0381C178.904 30.9096 179.053 29.5409 178.901 28.6945Z" fill="#343826"/>
<path d="M178.163 27.7505C176.814 27.6259 176.679 30.5154 177.93 30.6306C179.16 30.7446 179.295 27.855 178.163 27.7505Z" fill="#343826"/>
<path d="M177.585 27.9104C177.364 28.0524 177.14 28.319 176.883 28.3238C176.586 28.3289 176.381 28.0047 176.206 27.6951C176.188 27.6631 176.165 27.686 176.163 27.7243C176.123 28.2757 176.267 28.8602 176.759 28.9927C177.208 29.1134 177.564 28.6571 177.713 28.1135C177.74 28.0126 177.674 27.8536 177.585 27.9104Z" fill="#343826"/>
<path d="M183.321 36.1506C183.145 36.3845 182.978 36.6973 182.679 36.7635C182.392 36.827 182.036 36.7312 181.757 36.6555C181.73 36.648 181.706 36.6811 181.726 36.7056C181.982 37.0191 182.461 37.1741 182.84 37.0519C183.209 36.9327 183.356 36.5604 183.406 36.1802C183.413 36.1273 183.347 36.1167 183.321 36.1506Z" fill="#343826"/>
<path d="M179.647 32.7567C179.647 32.7567 179.436 34.0891 179.419 34.7202C179.417 34.7793 179.559 34.8117 179.76 34.8306C179.769 34.8342 179.775 34.8385 179.783 34.8322C180.822 35.0397 181.885 34.689 182.545 33.7996C182.588 33.7392 182.515 33.6718 182.46 33.7093C181.663 34.295 180.797 34.4251 179.87 34.4117C179.833 34.2358 180.303 32.143 180.21 32.1324C179.887 32.0921 179.244 32.3067 178.858 32.414C179.222 29.625 180.002 26.9213 180.325 24.1386C180.335 24.0388 180.202 24.0049 180.172 24.0929C179.167 26.8649 178.682 30.0644 178.236 32.9342C178.177 33.2912 179.408 32.8561 179.647 32.7567Z" fill="#343826"/>
<path d="M197.612 33.1229C196.296 32.7908 192.66 27.5612 193.674 20.6872C193.674 20.6872 193.164 26.9273 193.45 27.9094C193.736 28.8915 191.873 25.3516 192.618 19.7954C192.618 19.7954 189.388 21.4713 186.822 21.7478C184.256 22.0243 182.763 21.721 182.619 21.5001C182.475 21.2788 186.273 20.7381 187.442 19.7216C187.442 19.7216 180.407 21.7391 177.367 21.4251C177.016 21.3888 177.846 13.698 183.011 11.3299C188.176 8.9614 194.952 13.8175 196.595 16.2203C196.595 16.2203 198.857 17.0041 200.78 21.1333C202.703 25.2621 199.03 33.4802 197.612 33.1229Z" fill="#343826"/>
<path d="M193.091 28.9469C193.091 28.9469 195.714 24.7885 197.478 25.7797C199.242 26.7708 197.317 32.7633 195.279 33.6164C193.242 34.4696 192.465 32.473 192.465 32.473L193.091 28.9469Z" fill="#FFBBB0"/>
<path d="M196.883 27.4831C196.916 27.4795 196.923 27.5288 196.895 27.5415C195.468 28.1903 194.734 29.6272 194.228 31.1126C194.647 30.5367 195.224 30.2145 195.946 30.7442C195.984 30.7718 195.948 30.8353 195.908 30.827C195.317 30.7036 194.893 30.8207 194.504 31.3315C194.228 31.6932 194.043 32.1475 193.848 32.5628C193.783 32.7013 193.549 32.6323 193.596 32.4733C193.599 32.4615 193.604 32.4493 193.607 32.4378C193.539 30.4815 194.918 27.7174 196.883 27.4831Z" fill="#343826"/>
<path d="M181.313 81.3463L182.286 93.3209C182.286 93.3209 214.076 94.092 224.406 93.3154C224.406 93.3154 219.473 56.8129 208.124 45.8472C202.044 39.9734 197.932 38.7117 193.774 43.2116C192.722 44.3503 180.171 62.0508 178.848 68.8128C177.695 74.7788 181.313 81.3463 181.313 81.3463Z" fill="#16A34A"/>
<path d="M195.325 46.8326C195.325 47.3319 194.946 47.7366 194.478 47.7366C194.01 47.7366 193.63 47.3319 193.63 46.8326C193.63 46.3333 194.01 45.9286 194.478 45.9286C194.946 45.9286 195.325 46.3333 195.325 46.8326ZM204.244 45.9286C203.776 45.9286 203.397 46.3333 203.397 46.8326C203.397 47.3319 203.776 47.7366 204.244 47.7366C204.712 47.7366 205.091 47.3319 205.091 46.8326C205.091 46.3333 204.712 45.9286 204.244 45.9286ZM198.817 40.5045C198.959 40.637 199.154 40.7226 199.358 40.7226C199.536 40.7226 199.696 40.6658 199.838 40.5712C199.492 40.5234 199.154 40.495 198.817 40.5045ZM184.711 60.465C184.243 60.465 183.864 60.8697 183.864 61.369C183.864 61.8684 184.243 62.273 184.711 62.273C185.179 62.273 185.558 61.8684 185.558 61.369C185.558 60.8701 185.179 60.465 184.711 60.465ZM194.478 60.465C194.01 60.465 193.63 60.8697 193.63 61.369C193.63 61.8684 194.01 62.273 194.478 62.273C194.946 62.273 195.325 61.8684 195.325 61.369C195.325 60.8701 194.946 60.465 194.478 60.465ZM204.244 60.465C203.776 60.465 203.397 60.8697 203.397 61.369C203.397 61.8684 203.776 62.273 204.244 62.273C204.712 62.273 205.091 61.8684 205.091 61.369C205.091 60.8701 204.712 60.465 204.244 60.465ZM214.011 60.465C213.543 60.465 213.164 60.8697 213.164 61.369C213.164 61.8684 213.543 62.273 214.011 62.273C214.479 62.273 214.858 61.8684 214.858 61.369C214.858 60.8701 214.479 60.465 214.011 60.465ZM189.595 53.4467C189.127 53.4467 188.747 53.8513 188.747 54.3507C188.747 54.85 189.127 55.2547 189.595 55.2547C190.063 55.2547 190.442 54.85 190.442 54.3507C190.442 53.8513 190.063 53.4467 189.595 53.4467ZM199.361 53.4467C198.893 53.4467 198.514 53.8513 198.514 54.3507C198.514 54.85 198.893 55.2547 199.361 55.2547C199.829 55.2547 200.208 54.85 200.208 54.3507C200.208 53.8513 199.829 53.4467 199.361 53.4467ZM209.128 53.4467C208.66 53.4467 208.281 53.8513 208.281 54.3507C208.281 54.85 208.66 55.2547 209.128 55.2547C209.596 55.2547 209.975 54.85 209.975 54.3507C209.975 53.8513 209.596 53.4467 209.128 53.4467ZM184.711 75.0018C184.243 75.0018 183.864 75.4065 183.864 75.9058C183.864 76.4052 184.243 76.8098 184.711 76.8098C185.179 76.8098 185.558 76.4052 185.558 75.9058C185.558 75.4065 185.179 75.0018 184.711 75.0018ZM194.478 75.0018C194.01 75.0018 193.63 75.4065 193.63 75.9058C193.63 76.4052 194.01 76.8098 194.478 76.8098C194.946 76.8098 195.325 76.4052 195.325 75.9058C195.325 75.4065 194.946 75.0018 194.478 75.0018ZM204.244 75.0018C203.776 75.0018 203.397 75.4065 203.397 75.9058C203.397 76.4052 203.776 76.8098 204.244 76.8098C204.712 76.8098 205.091 76.4052 205.091 75.9058C205.091 75.4065 204.712 75.0018 204.244 75.0018ZM214.011 75.0018C213.543 75.0018 213.164 75.4065 213.164 75.9058C213.164 76.4052 213.543 76.8098 214.011 76.8098C214.479 76.8098 214.858 76.4052 214.858 75.9058C214.858 75.4065 214.479 75.0018 214.011 75.0018ZM179.828 67.9831C179.36 67.9831 178.98 68.3878 178.98 68.8871C178.98 69.3864 179.36 69.7911 179.828 69.7911C180.296 69.7911 180.675 69.3864 180.675 68.8871C180.675 68.3878 180.296 67.9831 179.828 67.9831ZM189.595 67.9831C189.127 67.9831 188.747 68.3878 188.747 68.8871C188.747 69.3864 189.127 69.7911 189.595 69.7911C190.063 69.7911 190.442 69.3864 190.442 68.8871C190.442 68.3878 190.063 67.9831 189.595 67.9831ZM199.361 67.9831C198.893 67.9831 198.514 68.3878 198.514 68.8871C198.514 69.3864 198.893 69.7911 199.361 69.7911C199.829 69.7911 200.208 69.3864 200.208 68.8871C200.208 68.3878 199.829 67.9831 199.361 67.9831ZM209.128 67.9831C208.66 67.9831 208.281 68.3878 208.281 68.8871C208.281 69.3864 208.66 69.7911 209.128 69.7911C209.596 69.7911 209.975 69.3864 209.975 68.8871C209.975 68.3878 209.596 67.9831 209.128 67.9831ZM218.958 67.9925C218.94 67.9831 218.913 67.9831 218.896 67.9831C218.425 67.9831 218.043 68.3905 218.043 68.8831C218.043 69.3852 218.425 69.7927 218.896 69.7927C219.091 69.7927 219.269 69.7264 219.411 69.6034V69.5939C219.269 69.0634 219.118 68.5234 218.958 67.9925ZM184.711 89.5382C184.243 89.5382 183.864 89.9429 183.864 90.4422C183.864 90.9416 184.243 91.3463 184.711 91.3463C185.179 91.3463 185.558 90.9416 185.558 90.4422C185.558 89.9429 185.179 89.5382 184.711 89.5382ZM194.478 89.5382C194.01 89.5382 193.63 89.9429 193.63 90.4422C193.63 90.9416 194.01 91.3463 194.478 91.3463C194.946 91.3463 195.325 90.9416 195.325 90.4422C195.325 89.9429 194.946 89.5382 194.478 89.5382ZM204.244 89.5382C203.776 89.5382 203.397 89.9429 203.397 90.4422C203.397 90.9416 203.776 91.3463 204.244 91.3463C204.712 91.3463 205.091 90.9416 205.091 90.4422C205.091 89.9429 204.712 89.5382 204.244 89.5382ZM214.011 89.5382C213.543 89.5382 213.164 89.9429 213.164 90.4422C213.164 90.9416 213.543 91.3463 214.011 91.3463C214.479 91.3463 214.858 90.9416 214.858 90.4422C214.858 89.9429 214.479 89.5382 214.011 89.5382ZM223.815 89.5398H223.78C223.309 89.5398 222.928 89.9472 222.928 90.4399C222.928 90.942 223.309 91.3494 223.78 91.3494C223.895 91.3494 224.002 91.321 224.1 91.2737C224.02 90.7716 223.922 90.1938 223.815 89.5398ZM189.595 82.5195C189.127 82.5195 188.747 82.9242 188.747 83.4235C188.747 83.9229 189.127 84.3275 189.595 84.3275C190.063 84.3275 190.442 83.9229 190.442 83.4235C190.442 82.9246 190.063 82.5195 189.595 82.5195ZM199.361 82.5195C198.893 82.5195 198.514 82.9242 198.514 83.4235C198.514 83.9229 198.893 84.3275 199.361 84.3275C199.829 84.3275 200.208 83.9229 200.208 83.4235C200.208 82.9246 199.829 82.5195 199.361 82.5195ZM209.128 82.5195C208.66 82.5195 208.281 82.9242 208.281 83.4235C208.281 83.9229 208.66 84.3275 209.128 84.3275C209.596 84.3275 209.975 83.9229 209.975 83.4235C209.975 82.9246 209.596 82.5195 209.128 82.5195ZM218.894 82.5195C218.426 82.5195 218.047 82.9242 218.047 83.4235C218.047 83.9229 218.426 84.3275 218.894 84.3275C219.362 84.3275 219.741 83.9229 219.741 83.4235C219.741 82.9246 219.362 82.5195 218.894 82.5195Z" fill="white"/>
<path d="M198.263 52.3878C195.688 60.5645 182.77 88.0735 175.202 89.6094C163.337 92.0173 145.415 89.3621 137.792 88.7436C133.65 88.4076 135.596 64.278 140.136 65.3729C147.556 67.1624 167.483 66.4765 169.646 66.7167C171.81 66.9569 182.311 54.4143 190.345 45.8009C197.046 38.6169 201.525 42.0283 198.263 52.3878Z" fill="#FFBBB0"/>
<path d="M142.292 67.6799C142.292 67.6799 136.207 61.6259 132.087 59.5008C126.571 56.6554 120.71 56.6227 118.253 56.7667C113.125 57.068 100.921 61.579 101.526 65.556C102.073 69.1562 114.329 63.8726 114.329 63.8726C114.329 63.8726 101 67.0595 102.406 71.2652C103.812 75.4709 117.712 68.4735 117.712 68.4735C117.712 68.4735 104.085 72.0757 106.178 76.1679C107.76 79.2605 120.684 73.6799 120.684 73.6799C120.684 73.6799 108.992 76.8624 110.49 80.1176C112.145 83.7147 124.378 79.3619 124.378 79.3619C129.491 86.9522 134.836 88.3346 138.748 88.8347C139.695 88.9562 142.292 67.6799 142.292 67.6799Z" fill="#FFBBB0"/>
<path d="M119.39 62.0478C117.811 62.3617 116.212 62.6678 114.665 63.1305C113.118 63.5931 111.585 64.1134 110.085 64.7275C106.407 66.2338 104.325 67.7906 104.464 67.7097C107.738 65.7889 113.251 64.0416 114.799 63.5789C116.343 63.1175 117.865 62.5732 119.409 62.1101C119.447 62.0983 119.427 62.0403 119.39 62.0478Z" fill="#343826"/>
<path d="M121.055 67.9773C119.056 68.4712 117.054 68.8833 115.074 69.4718C113.105 70.0571 111.284 70.7967 109.357 71.5252C109.209 71.5812 109.286 71.6478 109.437 71.5981C111.389 70.9525 113.241 70.5158 115.201 69.8946C117.153 69.2758 119.098 68.5705 121.07 68.0278C121.101 68.0188 121.085 67.9698 121.055 67.9773Z" fill="#343826"/>
<path d="M123.342 72.7915C120.25 73.3792 117.264 74.5751 114.361 75.8227C114.216 75.885 114.325 75.9591 114.476 75.9047C117.444 74.8366 119.764 73.9768 123.361 72.9059C123.418 72.8893 123.407 72.7789 123.342 72.7915Z" fill="#343826"/>
<path d="M163.065 65.4656L162.891 93.0401C162.891 93.0401 174.391 92.6046 177.711 89.8023C181.032 86.9999 194.298 67.6586 198.415 53.7099C202.533 39.7616 196.623 39.037 189.873 45.9496C183.123 52.8623 170.585 65.6447 169.965 65.8822C169.345 66.12 163.065 65.4656 163.065 65.4656Z" fill="#16A34A"/>
<path d="M195.334 46.8335C195.334 47.3328 194.955 47.7375 194.487 47.7375C194.019 47.7375 193.64 47.3328 193.64 46.8335C193.64 46.3341 194.019 45.9294 194.487 45.9294C194.955 45.9294 195.334 46.3341 195.334 46.8335ZM175.435 60.6217C175.435 60.6217 175.435 60.6217 175.426 60.6217C175.009 61.0386 174.609 61.4365 174.227 61.825C174.369 62.0905 174.644 62.2703 174.955 62.2703C175.426 62.2703 175.799 61.8724 175.799 61.3703C175.799 61.0575 175.657 60.7924 175.435 60.6217ZM184.72 60.4659C184.252 60.4659 183.873 60.8705 183.873 61.3699C183.873 61.8692 184.252 62.2739 184.72 62.2739C185.188 62.2739 185.568 61.8692 185.568 61.3699C185.568 60.8709 185.188 60.4659 184.72 60.4659ZM194.487 60.4659C194.019 60.4659 193.64 60.8705 193.64 61.3699C193.64 61.8692 194.019 62.2739 194.487 62.2739C194.955 62.2739 195.334 61.8692 195.334 61.3699C195.334 60.8709 194.955 60.4659 194.487 60.4659ZM189.604 53.4475C189.136 53.4475 188.757 53.8522 188.757 54.3515C188.757 54.8509 189.136 55.2556 189.604 55.2556C190.072 55.2556 190.451 54.8509 190.451 54.3515C190.451 53.8522 190.072 53.4475 189.604 53.4475ZM165.187 75.0027C164.719 75.0027 164.34 75.4073 164.34 75.9067C164.34 76.406 164.719 76.8107 165.187 76.8107C165.655 76.8107 166.034 76.406 166.034 75.9067C166.034 75.4073 165.655 75.0027 165.187 75.0027ZM174.954 75.0027C174.486 75.0027 174.107 75.4073 174.107 75.9067C174.107 76.406 174.486 76.8107 174.954 76.8107C175.422 76.8107 175.801 76.406 175.801 75.9067C175.801 75.4073 175.422 75.0027 174.954 75.0027ZM184.72 75.0027C184.252 75.0027 183.873 75.4073 183.873 75.9067C183.873 76.406 184.252 76.8107 184.72 76.8107C185.188 76.8107 185.568 76.406 185.568 75.9067C185.568 75.4073 185.188 75.0027 184.72 75.0027ZM170.07 67.9839C169.602 67.9839 169.223 68.3886 169.223 68.8879C169.223 69.3873 169.602 69.792 170.07 69.792C170.538 69.792 170.918 69.3873 170.918 68.8879C170.918 68.3886 170.538 67.9839 170.07 67.9839ZM179.837 67.9839C179.369 67.9839 178.99 68.3886 178.99 68.8879C178.99 69.3873 179.369 69.792 179.837 69.792C180.305 69.792 180.684 69.3873 180.684 68.8879C180.684 68.3886 180.305 67.9839 179.837 67.9839ZM189.604 67.9839C189.136 67.9839 188.757 68.3886 188.757 68.8879C188.757 69.3873 189.136 69.792 189.604 69.792C190.072 69.792 190.451 69.3873 190.451 68.8879C190.451 68.3886 190.072 67.9839 189.604 67.9839ZM165.187 89.5391C164.719 89.5391 164.34 89.9438 164.34 90.4431C164.34 90.9424 164.719 91.3471 165.187 91.3471C165.655 91.3471 166.034 90.9424 166.034 90.4431C166.034 89.9438 165.655 89.5391 165.187 89.5391ZM174.955 89.5407C174.485 89.5407 174.103 89.9481 174.103 90.4407C174.103 90.8292 174.334 91.1609 174.653 91.284C174.653 91.284 174.653 91.2935 174.662 91.284C175.009 91.1799 175.337 91.0659 175.657 90.9523C175.657 90.9428 175.657 90.9428 175.666 90.9428C175.746 90.8008 175.799 90.6206 175.799 90.4407C175.799 89.9481 175.426 89.5407 174.955 89.5407ZM170.07 82.5203C169.602 82.5203 169.223 82.925 169.223 83.4244C169.223 83.9237 169.602 84.3284 170.07 84.3284C170.538 84.3284 170.918 83.9237 170.918 83.4244C170.918 82.9254 170.538 82.5203 170.07 82.5203ZM179.837 82.5203C179.369 82.5203 178.99 82.925 178.99 83.4244C178.99 83.9237 179.369 84.3284 179.837 84.3284C180.305 84.3284 180.684 83.9237 180.684 83.4244C180.684 82.9254 180.305 82.5203 179.837 82.5203Z" fill="white"/>
<path d="M167.346 90.6327C167.123 83.0129 166.927 75.3528 167.4 67.7377C167.404 67.6699 167.506 67.679 167.51 67.7444C167.959 75.3548 167.732 83.009 167.484 90.6221C167.481 90.7152 167.349 90.7298 167.346 90.6327Z" fill="#343826"/>
<path d="M180.275 86.8327C182.483 83.1855 188.587 75.2095 197.085 58.163C197.106 58.1215 197.165 58.1472 197.149 58.1925C196.518 59.9359 195.789 61.6228 194.994 63.2719C195.397 62.7035 195.794 62.1301 196.226 61.5869C196.26 61.5443 196.336 61.5865 196.309 61.6402C196.007 62.2259 195.656 62.7631 195.257 63.2778C195.043 63.5535 194.818 63.8198 194.596 64.0888C185.746 81.7494 181.452 85.5145 180.393 86.9088C180.344 86.9731 180.233 86.9029 180.275 86.8327Z" fill="#343826"/>
<path d="M64.7328 122.564H32.6958C32.5916 121.95 32.4873 121.344 32.3871 120.738C32.2744 120.075 32.1617 119.424 32.0489 118.774C31.9613 118.253 31.8737 117.737 31.7861 117.225C31.7443 116.966 31.6985 116.713 31.6567 116.459C31.4815 115.448 31.3144 114.45 31.1477 113.484C31.1059 113.239 31.0641 112.998 31.0268 112.758C31.0227 112.718 31.0142 112.678 31.0017 112.638C30.9226 112.13 30.8349 111.631 30.747 111.137C30.7303 111.03 30.7137 110.923 30.6926 110.817C30.5133 109.765 30.3422 108.755 30.1751 107.78C30.1544 107.619 30.1252 107.463 30.096 107.307C29.9832 106.635 29.8746 105.985 29.7622 105.348C29.7038 105.023 29.6535 104.702 29.5995 104.382C29.4369 103.438 29.2824 102.538 29.1404 101.692V101.688C29.1194 101.576 29.1072 101.47 29.082 101.367C29.0861 101.363 29.082 101.358 29.082 101.354C29.0569 101.189 29.0277 101.02 28.9985 100.855C28.9693 100.695 28.936 100.538 28.9109 100.383C28.9109 100.383 28.9109 100.383 28.9109 100.378C28.8066 99.768 28.7105 99.1894 28.6229 98.6459C28.6229 98.6368 28.6188 98.6234 28.6148 98.6104C28.573 98.3654 28.5357 98.1339 28.4939 97.9067C28.4562 97.6796 28.4188 97.4571 28.3811 97.2477C28.3601 97.1053 28.3353 96.9625 28.3102 96.8292V96.8158C28.2728 96.6241 28.2436 96.4371 28.2141 96.2592C28.1849 96.0944 28.1597 95.9342 28.1349 95.7828C28.1142 95.6668 28.0972 95.5556 28.0765 95.453C28.0141 95.0878 27.9597 94.7671 27.9095 94.4824C27.8803 94.2907 27.851 94.1219 27.8218 93.9704C27.8093 93.8769 27.7926 93.7878 27.7801 93.7077C27.7716 93.6675 27.7675 93.632 27.759 93.5965C27.7509 93.5385 27.7464 93.4853 27.7339 93.4407C27.7298 93.4186 27.7257 93.3918 27.7213 93.3693C27.7128 93.3247 27.7128 93.2892 27.7047 93.2624C27.7006 93.2447 27.7006 93.2356 27.6962 93.2222C27.6877 93.1867 27.6836 93.1689 27.6836 93.1689H57.9551C57.9551 93.1689 61.0059 106.083 64.7328 122.564Z" fill="#DE3529"/>
<path d="M37.4471 122.565H37.0172C35.5145 114.09 34.0288 105.607 32.5557 97.1322C32.5432 97.0565 32.6474 97.021 32.664 97.0967C34.2669 105.584 35.8779 114.068 37.4471 122.565Z" fill="#37474F"/>
<path d="M52.1527 93.1685L51.1051 104.613L51.101 104.64L50.88 107.036C50.88 107.04 50.88 107.04 50.88 107.04L50.6253 109.801V109.805L50.5754 110.349L50.5296 110.847L49.4568 122.564H32.6957C32.5914 121.949 32.4872 121.343 32.387 120.738C32.2742 120.074 32.1615 119.424 32.0488 118.774C31.9611 118.253 31.8735 117.736 31.7859 117.224C31.7442 116.966 31.6983 116.712 31.6565 116.458C31.4813 115.447 31.3142 114.45 31.1475 113.484C31.1058 113.239 31.064 112.998 31.0266 112.758C31.0226 112.718 31.0141 112.678 31.0015 112.638C30.9224 112.13 30.8348 111.631 30.7468 111.137C30.7302 111.03 30.7135 110.923 30.6925 110.816C30.5172 109.77 30.3461 108.759 30.1749 107.779C30.1542 107.619 30.125 107.463 30.0958 107.307C29.9831 106.634 29.8744 105.984 29.762 105.347C29.7036 105.022 29.6534 104.702 29.5994 104.381C29.4367 103.437 29.2822 102.538 29.1403 101.692V101.687C29.1192 101.576 29.107 101.469 29.0819 101.367C29.0859 101.362 29.0819 101.357 29.0819 101.353C29.0567 101.188 29.0275 101.019 28.9983 100.854C28.9691 100.689 28.944 100.533 28.9148 100.373V100.369C28.8105 99.7589 28.7144 99.1889 28.6227 98.6458C28.6227 98.6367 28.6187 98.6233 28.6146 98.6103C28.5728 98.3654 28.5355 98.1338 28.4937 97.9066C28.456 97.6795 28.4187 97.457 28.381 97.2476C28.3599 97.1052 28.3351 96.9624 28.31 96.8291V96.8157C28.2727 96.624 28.2435 96.437 28.2139 96.2591C28.1847 96.0943 28.1596 95.9341 28.1348 95.7827C28.1141 95.6667 28.0971 95.5555 28.0764 95.4529C28.0139 95.0877 27.9596 94.767 27.9093 94.4823C27.8801 94.2906 27.8509 94.1218 27.8217 93.9703C27.8091 93.8768 27.7925 93.7877 27.7799 93.7076C27.7714 93.6674 27.7673 93.6319 27.7588 93.5964C27.7507 93.5384 27.7463 93.4852 27.7337 93.4406C27.7296 93.4185 27.7256 93.3917 27.7211 93.3692C27.7126 93.3246 27.7126 93.2892 27.7045 93.2623C27.7004 93.2446 27.7004 93.2355 27.696 93.2221C27.6919 93.1866 27.6875 93.1689 27.6875 93.1689H52.1527V93.1685Z" fill="#343826"/>
<path d="M57.3135 93.1685C54.4127 100.044 53.0106 107.352 51.6122 109.253L51.6081 109.258C51.6081 109.262 51.6081 109.262 51.6081 109.267C51.366 109.592 51.0115 109.961 50.5856 110.349C48.4028 112.357 44.3461 114.918 44.3461 114.918C44.3421 114.994 44.3421 115.07 44.3376 115.145V115.15C44.2792 117.523 44.2249 120.004 44.1791 122.564H9.07869C8.47355 116.276 9.02878 106.345 12.9394 93.1685H57.3135Z" fill="#DE3529"/>
<path d="M52.6036 108.776C50.5361 109.678 48.6778 111.067 46.8425 112.406C44.9361 113.797 43.1884 115.403 41.3541 116.895C41.2835 116.952 41.3501 117.076 41.4284 117.023C43.3614 115.706 45.386 114.548 47.2975 113.192C49.1543 111.875 51.0847 110.594 52.6968 108.938C52.76 108.872 52.6894 108.739 52.6036 108.776Z" fill="#343826"/>
<path d="M52.8598 96.0242C52.614 97.4359 52.2928 98.8333 52.0074 100.237C51.7394 101.553 51.5424 102.896 51.2159 104.198C50.8995 105.46 50.396 106.617 49.487 107.518C49.0028 107.998 48.4697 108.423 47.9533 108.863C47.6753 109.099 47.3744 109.327 47.0854 109.567C47.1231 109.381 47.1534 109.191 47.1848 108.999C47.2728 108.464 47.3578 107.928 47.4421 107.393C47.6291 106.204 47.8073 105.013 47.9781 103.821C48.3137 101.479 48.6228 99.1114 49.0808 96.7926C49.0993 96.6979 48.9662 96.662 48.944 96.7563C48.3969 99.0542 47.7933 101.328 47.3171 103.645C47.0835 104.782 46.2499 110.394 46.213 110.791C46.1749 111.201 46.1427 111.612 46.129 112.024C46.1154 112.431 46.04 112.885 46.1279 113.284C46.1505 113.386 46.2662 113.37 46.3069 113.3C46.3087 113.302 46.3105 113.303 46.3124 113.305C46.5039 112.947 46.5516 112.48 46.6469 112.085C46.7434 111.685 46.8284 111.278 46.8957 110.871C46.9201 110.724 46.9393 110.574 46.9586 110.423C47.4765 110.087 47.9589 109.644 48.4431 109.269C48.9651 108.866 49.497 108.473 49.9905 108.03C50.9361 107.18 51.5272 106.14 51.8795 104.881C52.2451 103.575 52.3578 102.197 52.499 100.848C52.6661 99.2534 52.7885 97.6504 52.997 96.0613C53.0092 95.9666 52.8768 95.9276 52.8598 96.0242Z" fill="#343826"/>
<path d="M17.5144 105.855C18.0681 105.545 20.2166 106.094 24.1276 105.38C24.8821 105.242 25.6336 104.993 26.2384 104.466C27.2575 103.577 28.029 102.152 28.6452 100.93C29.3224 99.5881 30.0093 98.057 30.3298 96.5653C30.3494 96.4738 30.4743 96.5176 30.4591 96.6071C30.3139 97.4709 30.2329 98.3331 30.0192 99.1874C29.8185 99.9909 29.5276 100.772 29.2112 101.531C28.6201 102.947 27.9296 104.467 26.7396 105.424C25.4909 106.427 23.7498 106.615 22.2368 106.727C21.3618 106.792 17.9299 106.694 17.4689 106.171C17.3868 106.078 17.4053 105.915 17.5144 105.855Z" fill="#343826"/>
<path d="M60.5066 99.5674L9.22656 97.4628C9.22656 97.4628 18.8958 52.9424 37.3049 35.701C39.5801 33.5704 44.7864 33.891 48.0206 35.8635C56.7472 41.1855 60.6412 99.3879 60.5066 99.5674Z" fill="#16A34A"/>
<path opacity="0.2" d="M37.3636 35.6457C37.3414 35.6614 37.323 35.6812 37.3008 35.7009C37.2342 35.764 37.1677 35.8271 37.1012 35.8941C37.2564 36.0361 37.3562 36.2491 37.3562 36.4897C37.3562 36.9236 37.0235 37.2786 36.6169 37.2786C36.3655 37.2786 36.1548 37.1523 36.0181 36.963C35.933 37.0458 35.8517 37.1326 35.7704 37.2194C35.9737 37.4797 36.2768 37.6454 36.6169 37.6454C37.2121 37.6454 37.7 37.1247 37.7 36.4897C37.7 36.1584 37.5706 35.8586 37.3636 35.6457ZM46.3944 35.3262C45.8067 35.3262 45.3187 35.8468 45.3187 36.4897C45.3187 37.1247 45.8067 37.6454 46.3944 37.6454C47.0007 37.6454 47.4886 37.1247 47.4886 36.4897C47.4886 35.8468 47.0007 35.3262 46.3944 35.3262ZM46.3944 37.2786C45.9915 37.2786 45.6514 36.9236 45.6514 36.4897C45.6514 36.048 45.9915 35.6969 46.3944 35.6969C46.8121 35.6969 47.1411 36.048 47.1411 36.4897C47.1411 36.9236 46.8121 37.2786 46.3944 37.2786ZM26.8283 51.1819C26.2332 51.1819 25.7452 51.7026 25.7452 52.3415C25.7452 52.9766 26.2332 53.4972 26.8283 53.4972C27.4272 53.4972 27.9151 52.9766 27.9151 52.3415C27.9151 51.7026 27.4272 51.1819 26.8283 51.1819ZM26.8283 53.1422C26.418 53.1422 26.0853 52.7793 26.0853 52.3415C26.0853 51.8998 26.418 51.5527 26.8283 51.5527C27.2349 51.5527 27.5676 51.8998 27.5676 52.3415C27.5676 52.7793 27.2349 53.1422 26.8283 53.1422ZM36.6169 51.1819C36.0144 51.1819 35.5264 51.7026 35.5264 52.3415C35.5264 52.9766 36.0144 53.4972 36.6169 53.4972C37.2121 53.4972 37.7 52.9766 37.7 52.3415C37.7 51.7026 37.2121 51.1819 36.6169 51.1819ZM36.6169 53.1422C36.1955 53.1422 35.8739 52.7793 35.8739 52.3415C35.8739 51.8998 36.1955 51.5527 36.6169 51.5527C37.0235 51.5527 37.3562 51.8998 37.3562 52.3415C37.3562 52.7793 37.0235 53.1422 36.6169 53.1422ZM46.3944 51.1819C45.8067 51.1819 45.3187 51.7026 45.3187 52.3415C45.3187 52.9766 45.8067 53.4972 46.3944 53.4972C47.0007 53.4972 47.4886 52.9766 47.4886 52.3415C47.4886 51.7026 47.0007 51.1819 46.3944 51.1819ZM46.3944 53.1422C45.9915 53.1422 45.6514 52.7793 45.6514 52.3415C45.6514 51.8998 45.9915 51.5527 46.3944 51.5527C46.8121 51.5527 47.1411 51.8998 47.1411 52.3415C47.1411 52.7793 46.8121 53.1422 46.3944 53.1422ZM31.7226 43.3369C31.1201 43.3369 30.6321 43.8575 30.6321 44.4965C30.6321 45.1315 31.1201 45.6521 31.7226 45.6521C32.3215 45.6521 32.8094 45.1315 32.8094 44.4965C32.8094 43.8575 32.3215 43.3369 31.7226 43.3369ZM31.7226 45.2893C31.316 45.2893 30.9796 44.9343 30.9796 44.4965C30.9796 44.0508 31.316 43.7076 31.7226 43.7076C32.1292 43.7076 32.4619 44.0508 32.4619 44.4965C32.4619 44.9343 32.1292 45.2893 31.7226 45.2893ZM41.4964 43.3369C40.9087 43.3369 40.4244 43.8575 40.4244 44.4965C40.4244 45.1315 40.9087 45.6521 41.4964 45.6521C42.1064 45.6521 42.5943 45.1315 42.5943 44.4965C42.5943 43.8575 42.1064 43.3369 41.4964 43.3369ZM41.4964 45.2893C41.0972 45.2893 40.7719 44.9343 40.7719 44.4965C40.7719 44.0508 41.0972 43.7076 41.4964 43.7076C41.9178 43.7076 42.2468 44.0508 42.2468 44.4965C42.2468 44.9343 41.9178 45.2893 41.4964 45.2893ZM51.2887 43.3369C50.6862 43.3369 50.213 43.8575 50.213 44.4965C50.213 45.1315 50.6862 45.6521 51.2887 45.6521C51.895 45.6521 52.3829 45.1315 52.3829 44.4965C52.3829 43.8575 51.895 43.3369 51.2887 43.3369ZM51.2887 45.2893C50.8858 45.2893 50.5457 44.9343 50.5457 44.4965C50.5457 44.0508 50.8858 43.7076 51.2887 43.7076C51.6954 43.7076 52.0354 44.0508 52.0354 44.4965C52.0354 44.9343 51.6954 45.2893 51.2887 45.2893ZM17.864 68.9506C18.0119 68.7653 18.1117 68.5286 18.1228 68.2722C18.0341 68.497 17.9491 68.7258 17.864 68.9506ZM26.8283 67.0337C26.2332 67.0337 25.7452 67.5544 25.7452 68.2052C25.7452 68.8323 26.2332 69.349 26.8283 69.349C27.4272 69.349 27.9151 68.8323 27.9151 68.2052C27.9151 67.5544 27.4272 67.0337 26.8283 67.0337ZM26.8283 68.994C26.418 68.994 26.0853 68.639 26.0853 68.2052C26.0853 67.7555 26.418 67.4124 26.8283 67.4124C27.2349 67.4124 27.5676 67.7555 27.5676 68.2052C27.5676 68.639 27.2349 68.994 26.8283 68.994ZM36.6169 67.0337C36.0144 67.0337 35.5264 67.5544 35.5264 68.2052C35.5264 68.8323 36.0144 69.349 36.6169 69.349C37.2121 69.349 37.7 68.8323 37.7 68.2052C37.7 67.5544 37.2121 67.0337 36.6169 67.0337ZM36.6169 68.994C36.1955 68.994 35.8739 68.639 35.8739 68.2052C35.8739 67.7555 36.1955 67.4124 36.6169 67.4124C37.0235 67.4124 37.3562 67.7555 37.3562 68.2052C37.3562 68.639 37.0235 68.994 36.6169 68.994ZM46.3944 67.0337C45.8067 67.0337 45.3187 67.5544 45.3187 68.2052C45.3187 68.8323 45.8067 69.349 46.3944 69.349C47.0007 69.349 47.4886 68.8323 47.4886 68.2052C47.4886 67.5544 47.0007 67.0337 46.3944 67.0337ZM46.3944 68.994C45.9915 68.994 45.6514 68.639 45.6514 68.2052C45.6514 67.7555 45.9915 67.4124 46.3944 67.4124C46.8121 67.4124 47.1411 67.7555 47.1411 68.2052C47.1411 68.639 46.8121 68.994 46.3944 68.994ZM56.1904 67.0337C55.5805 67.0337 55.0925 67.5544 55.0925 68.2052C55.0925 68.8323 55.5805 69.349 56.1904 69.349C56.7782 69.349 57.2661 68.8323 57.2661 68.2052C57.2661 67.5544 56.7782 67.0337 56.1904 67.0337ZM56.1904 68.994C55.7838 68.994 55.44 68.639 55.44 68.2052C55.44 67.7555 55.7838 67.4124 56.1904 67.4124C56.5897 67.4124 56.9298 67.7555 56.9298 68.2052C56.9298 68.639 56.5897 68.994 56.1904 68.994ZM21.9303 59.1887C21.9266 59.1887 21.9266 59.1887 21.9229 59.1887C21.8638 59.3228 21.8046 59.453 21.7455 59.5871C21.8046 59.5673 21.8675 59.5594 21.9303 59.5594C22.3443 59.5594 22.6733 59.9223 22.6733 60.3522C22.6733 60.7861 22.3443 61.149 21.9303 61.149C21.6272 61.149 21.3684 60.9478 21.2612 60.6638C21.2021 60.7979 21.1429 60.932 21.0838 61.0661C21.2834 61.3343 21.5902 61.5039 21.9303 61.5039C22.5329 61.5039 23.0208 60.9873 23.0208 60.3522C23.0208 59.7093 22.5329 59.1887 21.9303 59.1887ZM31.7226 59.1887C31.1201 59.1887 30.6321 59.7093 30.6321 60.3522C30.6321 60.9873 31.1201 61.5039 31.7226 61.5039C32.3215 61.5039 32.8094 60.9873 32.8094 60.3522C32.8094 59.7093 32.3215 59.1887 31.7226 59.1887ZM31.7226 61.149C31.316 61.149 30.9796 60.7861 30.9796 60.3522C30.9796 59.9223 31.316 59.5594 31.7226 59.5594C32.1292 59.5594 32.4619 59.9223 32.4619 60.3522C32.4619 60.7861 32.1292 61.149 31.7226 61.149ZM41.4964 59.1887C40.9087 59.1887 40.4244 59.7093 40.4244 60.3522C40.4244 60.9873 40.9087 61.5039 41.4964 61.5039C42.1064 61.5039 42.5943 60.9873 42.5943 60.3522C42.5943 59.7093 42.1064 59.1887 41.4964 59.1887ZM41.4964 61.149C41.0972 61.149 40.7719 60.7861 40.7719 60.3522C40.7719 59.9223 41.0972 59.5594 41.4964 59.5594C41.9178 59.5594 42.2468 59.9223 42.2468 60.3522C42.2468 60.7861 41.9178 61.149 41.4964 61.149ZM51.2887 59.1887C50.6862 59.1887 50.213 59.7093 50.213 60.3522C50.213 60.9873 50.6862 61.5039 51.2887 61.5039C51.895 61.5039 52.3829 60.9873 52.3829 60.3522C52.3829 59.7093 51.895 59.1887 51.2887 59.1887ZM51.2887 61.149C50.8858 61.149 50.5457 60.7861 50.5457 60.3522C50.5457 59.9223 50.8858 59.5594 51.2887 59.5594C51.6954 59.5594 52.0354 59.9223 52.0354 60.3522C52.0354 60.7861 51.6954 61.149 51.2887 61.149ZM17.0434 82.8974C16.4408 82.8974 15.9566 83.4141 15.9566 84.057C15.9566 84.692 16.4408 85.2126 17.0434 85.2126C17.6385 85.2126 18.1265 84.692 18.1265 84.057C18.1265 83.4141 17.6385 82.8974 17.0434 82.8974ZM17.0434 84.8498C16.6442 84.8498 16.3041 84.4908 16.3041 84.057C16.3041 83.6073 16.6442 83.2681 17.0434 83.2681C17.45 83.2681 17.7901 83.6073 17.7901 84.057C17.7901 84.4908 17.45 84.8498 17.0434 84.8498ZM26.8283 82.8974C26.2332 82.8974 25.7452 83.4141 25.7452 84.057C25.7452 84.692 26.2332 85.2126 26.8283 85.2126C27.4272 85.2126 27.9151 84.692 27.9151 84.057C27.9151 83.4141 27.4272 82.8974 26.8283 82.8974ZM26.8283 84.8498C26.418 84.8498 26.0853 84.4908 26.0853 84.057C26.0853 83.6073 26.418 83.2681 26.8283 83.2681C27.2349 83.2681 27.5676 83.6073 27.5676 84.057C27.5676 84.4908 27.2349 84.8498 26.8283 84.8498ZM36.6169 82.8974C36.0144 82.8974 35.5264 83.4141 35.5264 84.057C35.5264 84.692 36.0144 85.2126 36.6169 85.2126C37.2121 85.2126 37.7 84.692 37.7 84.057C37.7 83.4141 37.2121 82.8974 36.6169 82.8974ZM36.6169 84.8498C36.1955 84.8498 35.8739 84.4908 35.8739 84.057C35.8739 83.6073 36.1955 83.2681 36.6169 83.2681C37.0235 83.2681 37.3562 83.6073 37.3562 84.057C37.3562 84.4908 37.0235 84.8498 36.6169 84.8498ZM46.4055 82.8974C45.8067 82.8974 45.3187 83.4141 45.3187 84.057C45.3187 84.692 45.8067 85.2126 46.4055 85.2126C47.0007 85.2126 47.4886 84.692 47.4886 84.057C47.4886 83.4141 47.0007 82.8974 46.4055 82.8974ZM46.4055 84.8498C45.9915 84.8498 45.6662 84.4908 45.6662 84.057C45.6662 83.6073 45.9915 83.2681 46.4055 83.2681C46.8121 83.2681 47.1485 83.6073 47.1485 84.057C47.1485 84.4908 46.8121 84.8498 46.4055 84.8498ZM56.1978 82.8974C55.5953 82.8974 55.1073 83.4141 55.1073 84.057C55.1073 84.692 55.5953 85.2126 56.1978 85.2126C56.7893 85.2126 57.2772 84.692 57.2772 84.057C57.2772 83.4141 56.7893 82.8974 56.1978 82.8974ZM56.1978 84.8498C55.7838 84.8498 55.4548 84.4908 55.4548 84.057C55.4548 83.6073 55.7838 83.2681 56.1978 83.2681C56.6045 83.2681 56.9371 83.6073 56.9371 84.057C56.9371 84.4908 56.6045 84.8498 56.1978 84.8498ZM21.9303 75.0444C21.3389 75.0444 20.8509 75.5651 20.8509 76.2119C20.8509 76.8391 21.3389 77.3597 21.9303 77.3597C22.5329 77.3597 23.0208 76.8391 23.0208 76.2119C23.0208 75.5651 22.5329 75.0444 21.9303 75.0444ZM21.9303 77.0047C21.5237 77.0047 21.1984 76.6379 21.1984 76.2119C21.1984 75.7781 21.5237 75.4152 21.9303 75.4152C22.3443 75.4152 22.6733 75.7781 22.6733 76.2119C22.6733 76.6379 22.3443 77.0047 21.9303 77.0047ZM31.7226 75.0444C31.1201 75.0444 30.6321 75.5651 30.6321 76.2119C30.6321 76.8391 31.1201 77.3597 31.7226 77.3597C32.3215 77.3597 32.8094 76.8391 32.8094 76.2119C32.8094 75.5651 32.3215 75.0444 31.7226 75.0444ZM31.7226 77.0047C31.316 77.0047 30.9796 76.6379 30.9796 76.2119C30.9796 75.7781 31.316 75.4152 31.7226 75.4152C32.1292 75.4152 32.4619 75.7781 32.4619 76.2119C32.4619 76.6379 32.1292 77.0047 31.7226 77.0047ZM41.4964 75.0444C40.9087 75.0444 40.4244 75.5651 40.4244 76.2119C40.4244 76.8391 40.9087 77.3597 41.4964 77.3597C42.1064 77.3597 42.5943 76.8391 42.5943 76.2119C42.5943 75.5651 42.1064 75.0444 41.4964 75.0444ZM41.4964 77.0047C41.0972 77.0047 40.7719 76.6379 40.7719 76.2119C40.7719 75.7781 41.0972 75.4152 41.4964 75.4152C41.9178 75.4152 42.2468 75.7781 42.2468 76.2119C42.2468 76.6379 41.9178 77.0047 41.4964 77.0047ZM51.2887 75.0444C50.6862 75.0444 50.213 75.5651 50.213 76.2119C50.213 76.8391 50.6862 77.3597 51.2887 77.3597C51.895 77.3597 52.3829 76.8391 52.3829 76.2119C52.3829 75.5651 51.895 75.0444 51.2887 75.0444ZM51.2887 77.0047C50.8858 77.0047 50.5457 76.6379 50.5457 76.2119C50.5457 75.7781 50.8858 75.4152 51.2887 75.4152C51.6954 75.4152 52.0354 75.7781 52.0354 76.2119C52.0354 76.6379 51.6954 77.0047 51.2887 77.0047ZM46.3723 98.7492C46.1431 98.7492 45.925 98.8281 45.7512 98.9622L47.0672 99.0135C46.8787 98.8478 46.6384 98.7492 46.3723 98.7492ZM56.1498 98.7492C55.7468 98.7492 55.3957 98.9898 55.2071 99.3487L55.6175 99.3645C55.7542 99.2146 55.9465 99.1199 56.1498 99.1199C56.39 99.1199 56.5971 99.2383 56.7338 99.4118L57.1442 99.4276C56.9741 99.0292 56.5934 98.7492 56.1498 98.7492ZM12.1491 90.9041C11.5465 90.9041 11.0586 91.4248 11.0586 92.0677C11.0586 92.6988 11.5465 93.2194 12.1491 93.2194C12.7553 93.2194 13.2433 92.6988 13.2433 92.0677C13.2433 91.4248 12.7553 90.9041 12.1491 90.9041ZM12.1491 92.8565C11.7425 92.8565 11.4061 92.5015 11.4061 92.0677C11.4061 91.6299 11.7425 91.2749 12.1491 91.2749C12.5557 91.2749 12.8884 91.6299 12.8884 92.0677C12.8884 92.5015 12.5557 92.8565 12.1491 92.8565ZM21.9303 90.9041C21.3389 90.9041 20.8509 91.4248 20.8509 92.0677C20.8509 92.6988 21.3389 93.2194 21.9303 93.2194C22.5329 93.2194 23.0208 92.6988 23.0208 92.0677C23.0208 91.4248 22.5329 90.9041 21.9303 90.9041ZM21.9303 92.8565C21.5237 92.8565 21.1984 92.5015 21.1984 92.0677C21.1984 91.6299 21.5237 91.2749 21.9303 91.2749C22.3443 91.2749 22.6733 91.6299 22.6733 92.0677C22.6733 92.5015 22.3443 92.8565 21.9303 92.8565ZM31.7226 90.9041C31.1201 90.9041 30.6321 91.4248 30.6321 92.0677C30.6321 92.6988 31.1201 93.2194 31.7226 93.2194C32.3215 93.2194 32.8094 92.6988 32.8094 92.0677C32.8094 91.4248 32.3215 90.9041 31.7226 90.9041ZM31.7226 92.8565C31.316 92.8565 30.9796 92.5015 30.9796 92.0677C30.9796 91.6299 31.316 91.2749 31.7226 91.2749C32.1292 91.2749 32.4619 91.6299 32.4619 92.0677C32.4619 92.5015 32.1292 92.8565 31.7226 92.8565ZM41.5038 90.9041C40.905 90.9041 40.417 91.4248 40.417 92.0677C40.417 92.6988 40.905 93.2194 41.5038 93.2194C42.1138 93.2194 42.5943 92.6988 42.5943 92.0677C42.5943 91.4248 42.1138 90.9041 41.5038 90.9041ZM41.5038 92.8565C41.0972 92.8565 40.7645 92.5015 40.7645 92.0677C40.7645 91.6299 41.0972 91.2749 41.5038 91.2749C41.9105 91.2749 42.2468 91.6299 42.2468 92.0677C42.2468 92.5015 41.9105 92.8565 41.5038 92.8565ZM51.2887 90.9041C50.6862 90.9041 50.1982 91.4248 50.1982 92.0677C50.1982 92.6988 50.6862 93.2194 51.2887 93.2194C51.895 93.2194 52.3829 92.6988 52.3829 92.0677C52.3829 91.4248 51.895 90.9041 51.2887 90.9041ZM51.2887 92.8565C50.8858 92.8565 50.5457 92.5015 50.5457 92.0677C50.5457 91.6299 50.8858 91.2749 51.2887 91.2749C51.6954 91.2749 52.0354 91.6299 52.0354 92.0677C52.0354 92.5015 51.6954 92.8565 51.2887 92.8565Z" fill="black"/>
<path d="M47.2513 47.1112C44.3029 47.1869 40.3889 41.5222 39.2197 37.3832C39.1409 37.0988 40.0374 34.4999 40.9859 31.287C41.5548 29.3346 42.1448 27.1467 42.5481 25.1084C42.6291 24.6895 53.914 30.9127 53.914 30.9127C53.914 30.9127 51.8909 34.9196 51.2081 38.4777C51.1542 38.7759 51.1272 39.0579 51.125 39.3328C51.1213 39.3718 51.1227 39.4208 51.115 39.4752C51.0429 41.1187 50.1006 47.0359 47.2513 47.1112Z" fill="#FFCFCD"/>
<path d="M41.8359 28.191C44.7892 36.0262 50.3111 36.7294 51.609 36.785C52.4725 33.7578 53.9105 30.9121 53.9105 30.9121C53.9105 30.9121 42.6241 24.6893 42.5449 25.1097C42.3435 26.1147 42.0991 27.1611 41.8359 28.191Z" fill="#343826"/>
<path d="M39.1509 10.148C37.8752 14.7963 40.3098 28.1498 43.429 31.0962C47.9514 35.3674 55.2847 35.6924 58.6675 29.9097C61.9471 24.3042 58.486 6.9611 55.0082 4.29166C49.8859 0.35927 41.0354 3.28193 39.1509 10.148Z" fill="#FFCFCD"/>
<path d="M51.463 18.889C51.4504 18.8562 51.4046 18.945 51.4123 18.9816C51.599 19.8766 51.6715 20.9348 50.961 21.388C50.9392 21.4018 50.9495 21.4468 50.9769 21.4369C51.8837 21.1088 51.7742 19.7046 51.463 18.889Z" fill="#343826"/>
<path d="M50.5419 18.1014C49.1653 18.2659 49.5748 21.1913 50.8502 21.039C52.1052 20.8892 51.6959 17.9637 50.5419 18.1014Z" fill="#343826"/>
<path d="M56.4254 17.9074C56.4273 17.8719 56.4979 17.9398 56.5019 17.9769C56.6021 18.8872 56.8598 19.9123 57.6701 20.0906C57.6952 20.0961 57.6993 20.1422 57.6701 20.1422C56.713 20.1513 56.3833 18.787 56.4254 17.9074Z" fill="#343826"/>
<path d="M57.0538 16.8405C58.4042 16.5123 58.9202 19.4184 57.6689 19.7225C56.4376 20.0219 55.9216 17.1154 57.0538 16.8405Z" fill="#343826"/>
<path d="M49.5243 16.5303C49.8925 16.3958 50.2111 16.2057 50.5627 16.0326C50.959 15.8369 51.2939 15.7249 51.5312 15.3096C51.6583 15.0867 51.5689 14.7156 51.3778 14.5633C50.9327 14.2087 50.3915 14.3196 49.905 14.5342C49.3775 14.7673 49.0267 15.0907 48.7558 15.6259C48.4933 16.145 49.0386 16.7074 49.5243 16.5303Z" fill="#343826"/>
<path d="M57.9032 15.1993C57.5139 15.1937 57.1553 15.1192 56.7713 15.0711C56.3373 15.017 55.9868 15.0214 55.6405 14.7054C55.4545 14.5362 55.4309 14.1536 55.5684 13.9458C55.8878 13.461 56.4345 13.3869 56.9594 13.4291C57.5287 13.4752 57.9568 13.6661 58.37 14.085C58.7704 14.4909 58.4166 15.2064 57.9032 15.1993Z" fill="#343826"/>
<path d="M51.6424 27.0893C51.8757 27.2691 52.1193 27.5287 52.4313 27.5074C52.7307 27.4869 53.0571 27.2893 53.3125 27.1339C53.3377 27.1189 53.3691 27.1445 53.3558 27.1745C53.1839 27.5575 52.7507 27.8489 52.3466 27.8383C51.9522 27.828 51.7126 27.5038 51.5666 27.1433C51.5459 27.0924 51.608 27.0633 51.6424 27.0893Z" fill="#343826"/>
<path d="M52.1585 24.2336C52.7441 24.9444 53.503 25.263 54.2811 25.2989C54.6286 25.3175 54.9853 25.2733 55.3287 25.1842C55.3968 25.1715 55.464 25.1526 55.5239 25.1282C55.5849 25.11 55.6396 25.0938 55.7058 25.0678C55.803 25.0366 55.8452 24.9404 55.8477 24.8379L55.8466 24.8312C55.8415 24.798 55.8374 24.7716 55.8256 24.7396C55.8256 24.7396 55.8256 24.7396 55.8245 24.7329L55.8119 24.6537C55.732 23.9532 55.5202 22.902 55.5202 22.902C55.7771 22.9916 57.0772 23.3824 57.0066 23.0208C56.4155 20.0299 55.7583 16.7037 54.578 13.8607C54.5436 13.7649 54.4038 13.8106 54.426 13.9084C54.8874 16.807 55.8237 19.5991 56.3309 22.5029C55.9202 22.407 55.2452 22.2165 54.904 22.2781C54.8153 22.3214 55.3476 24.3018 55.3598 24.6197C55.3598 24.6197 55.362 24.6328 55.3587 24.6537C54.2811 24.9787 53.4032 24.7562 52.2265 24.1389C52.1559 24.0979 52.0972 24.1697 52.1585 24.2336Z" fill="#343826"/>
<path d="M38.036 22.5466C41.5499 22.6212 43.1683 18.0687 42.1802 14.5284C42.1802 14.5284 51.5526 15.348 51.6239 7.34914C51.6239 7.34914 53.616 10.7128 57.8446 10.6051L58.8438 13.2915C59.7849 12.9456 60.8451 10.1933 58.4017 8.04687C58.4017 8.04687 58.0538 4.08017 55.1952 1.84104C52.337 -0.398093 49.6814 1.31646 49.6814 1.31646C49.6814 1.31646 47.4065 -0.511688 43.9982 0.140686C40.5899 0.792665 39.3349 4.2056 39.3349 4.2056C39.3349 4.2056 34.7671 5.39281 34.1457 8.93038C33.525 12.4679 35.3278 14.7209 35.3278 14.7209C35.3278 14.7209 34.2351 16.1558 34.963 19.1076C35.4313 21.0052 36.9813 22.5241 38.036 22.5466Z" fill="#343826"/>
<path d="M51.3835 6.65186C51.4759 7.2995 51.5306 7.95108 51.4959 8.59833C51.4914 9.24557 51.395 9.88414 51.2467 10.5002C50.9277 11.7261 50.2324 12.8206 49.2254 13.4781C48.2528 14.2192 47.0167 14.394 45.8364 14.5809C45.2323 14.5939 44.6239 14.6527 44.0154 14.629C43.4066 14.5963 42.7967 14.5478 42.1797 14.5281C42.7819 14.6511 43.3914 14.745 44.0017 14.8547C44.615 14.9245 45.2368 14.9059 45.8582 14.9347C47.0847 14.8152 48.3778 14.6353 49.4594 13.8646C50.5351 13.1216 51.3048 11.9028 51.5676 10.5854C51.8267 9.26924 51.7413 7.90612 51.3835 6.65186Z" fill="#343826"/>
<path d="M56.401 11.0047C55.3459 10.6572 54.3541 10.2001 53.5006 9.5331C53.0648 9.21322 52.6936 8.81052 52.3535 8.37863C51.9998 7.94989 51.7654 7.43359 51.5 6.91138C51.5935 7.48999 51.7636 8.08044 52.083 8.58452C52.382 9.09963 52.7831 9.55243 53.2459 9.90543C53.7091 10.2569 54.217 10.5401 54.7538 10.7195C55.289 10.9006 55.8435 11.0201 56.401 11.0047Z" fill="#343826"/>
<path d="M42.8797 22.4492C42.8797 22.4492 39.918 18.2186 38.11 19.3589C36.3023 20.4992 38.6186 26.6975 40.8029 27.4832C42.9876 28.2685 43.7085 26.1248 43.7085 26.1248L42.8797 22.4492Z" fill="#FFCFCD"/>
<path d="M38.8147 21.1182C38.7799 21.1162 38.7747 21.1683 38.8051 21.1805C40.3384 21.784 41.1798 23.2556 41.7838 24.7903C41.3158 24.2073 40.6929 23.9005 39.9591 24.4976C39.9207 24.5288 39.9602 24.5939 40.0028 24.5824C40.619 24.4199 41.0696 24.5197 41.5047 25.0356C41.8122 25.4009 42.0292 25.8686 42.2544 26.295C42.3294 26.437 42.5715 26.3514 42.5153 26.1869C42.5113 26.1747 42.5061 26.1621 42.5017 26.1499C42.4791 24.0886 40.8936 21.2563 38.8147 21.1182Z" fill="#343826"/>
<path d="M35.9488 50.1637C39.3955 56.6031 56.2054 82.7568 63.7576 84.3834C75.596 86.9337 89.1011 84.4946 96.7298 83.9681C100.875 83.6817 98.6443 59.6997 94.0927 60.7398C86.654 62.4397 71.7201 61.3452 69.5542 61.559C67.3884 61.7731 52.0124 50.7246 43.0241 44.1259C35.1984 38.3812 30.8693 40.6735 35.9488 50.1637Z" fill="#FFCFCD"/>
<path d="M92.4922 62.988C92.4922 62.988 98.5539 56.9569 102.658 54.84C108.153 52.0057 113.992 51.9726 116.439 52.1165C121.547 52.4167 133.705 56.9107 133.103 60.8723C132.557 64.4588 120.348 59.1952 120.348 59.1952C120.348 59.1952 133.627 62.3699 132.226 66.5599C130.825 70.7494 116.978 63.7788 116.978 63.7788C116.978 63.7788 130.553 67.3673 128.468 71.444C126.892 74.5248 114.017 68.9655 114.017 68.9655C114.017 68.9655 125.665 72.1358 124.173 75.3787C122.524 78.9621 110.337 74.6258 110.337 74.6258C105.243 82.1873 99.919 83.5642 96.0224 84.0627C95.0787 84.1834 92.4922 62.988 92.4922 62.988Z" fill="#FFCFCD"/>
<path d="M115.309 57.3776C116.881 57.6903 118.475 57.9952 120.016 58.4563C121.557 58.917 123.084 59.4356 124.578 60.0474C128.242 61.5478 130.317 63.099 130.179 63.0182C126.917 61.1044 121.424 59.3639 119.883 58.9032C118.345 58.4433 116.829 57.901 115.291 57.4399C115.252 57.428 115.272 57.3705 115.309 57.3776Z" fill="#343826"/>
<path d="M113.649 63.2844C115.641 63.7766 117.635 64.1872 119.607 64.773C121.569 65.3559 123.383 66.0927 125.302 66.8184C125.45 66.8744 125.373 66.9407 125.223 66.891C123.278 66.2477 121.433 65.813 119.481 65.1938C117.536 64.5769 115.599 63.8745 113.634 63.3341C113.603 63.3258 113.619 63.2773 113.649 63.2844Z" fill="#343826"/>
<path d="M111.368 68.0808C114.448 68.6661 117.423 69.8573 120.315 71.1005C120.459 71.1624 120.351 71.2366 120.2 71.1825C117.244 70.1188 114.932 69.2621 111.349 68.1952C111.293 68.1786 111.303 68.0686 111.368 68.0808Z" fill="#343826"/>
<path d="M54.555 50.8001L42.8663 64.0026C42.8663 64.0026 35.4494 53.0266 33.3527 46.0351C31.8674 41.082 32.0903 35.8452 41.9732 41.7722C51.8561 47.6988 54.555 50.8001 54.555 50.8001Z" fill="#16A34A"/>
<path opacity="0.2" d="M41.5027 59.188C40.9593 59.188 40.5046 59.6297 40.4418 60.2056C40.719 60.6592 40.9815 61.0773 41.2254 61.4638C41.3142 61.4875 41.4066 61.5033 41.5027 61.5033C42.1126 61.5033 42.6006 60.9866 42.6006 60.3515C42.6006 59.7086 42.1126 59.188 41.5027 59.188ZM41.5027 61.1483C41.1034 61.1483 40.7781 60.7854 40.7781 60.3515C40.7781 59.9216 41.1034 59.5588 41.5027 59.5588C41.9241 59.5588 42.2531 59.9216 42.2531 60.3515C42.2531 60.7854 41.9241 61.1483 41.5027 61.1483ZM41.5027 43.3362C40.9149 43.3362 40.4307 43.8568 40.4307 44.4958C40.4307 45.1308 40.9149 45.6514 41.5027 45.6514C42.1126 45.6514 42.6006 45.1308 42.6006 44.4958C42.6006 43.8568 42.1126 43.3362 41.5027 43.3362ZM41.5027 45.2886C41.1034 45.2886 40.7781 44.9336 40.7781 44.4958C40.7781 44.0501 41.1034 43.7069 41.5027 43.7069C41.9241 43.7069 42.2531 44.0501 42.2531 44.4958C42.2531 44.9336 41.9241 45.2886 41.5027 45.2886ZM46.4007 51.1812C45.8129 51.1812 45.325 51.7019 45.325 52.3408C45.325 52.9759 45.8129 53.4965 46.4007 53.4965C47.0069 53.4965 47.4949 52.9759 47.4949 52.3408C47.4949 51.7019 47.0069 51.1812 46.4007 51.1812ZM46.4007 53.1415C45.9977 53.1415 45.6577 52.7786 45.6577 52.3408C45.6577 51.8991 45.9977 51.552 46.4007 51.552C46.8184 51.552 47.1474 51.8991 47.1474 52.3408C47.1474 52.7786 46.8184 53.1415 46.4007 53.1415ZM36.6232 51.1812C36.2313 51.1812 35.8875 51.4021 35.6953 51.7295C35.7655 51.8715 35.8321 52.0095 35.9023 52.1476C35.98 51.8005 36.2646 51.552 36.6232 51.552C37.0298 51.552 37.3625 51.8991 37.3625 52.3408C37.3625 52.7786 37.0298 53.1415 36.6232 53.1415C36.5381 53.1415 36.4605 53.1257 36.3866 53.1021C36.4568 53.2322 36.5234 53.3624 36.5899 53.4925H36.5936C36.6047 53.4965 36.6121 53.4965 36.6232 53.4965C37.2183 53.4965 37.7063 52.9759 37.7063 52.3408C37.7063 51.7019 37.2183 51.1812 36.6232 51.1812Z" fill="black"/>
<path d="M41.9821 60.0618C42.6194 59.1093 43.4031 58.2581 44.1457 57.4007C44.8906 56.5408 45.6499 55.6944 46.411 54.8511C47.1788 54.0003 47.9484 53.1504 48.7355 52.3201C49.5439 51.4674 50.3923 50.6679 51.2188 49.8396C51.2661 49.7919 51.3475 49.8696 51.3035 49.9232C50.5786 50.8067 49.8821 51.7143 49.1343 52.58C48.3902 53.4411 47.6276 54.2835 46.8672 55.128C46.1005 55.9792 45.3276 56.8264 44.5417 57.6578C43.741 58.505 42.9499 59.3984 42.0538 60.1328C42.0106 60.1687 41.9489 60.1119 41.9821 60.0618Z" fill="#343826"/>
<path d="M48.4609 45.9226C49.5939 46.5549 50.6715 47.2849 51.7162 48.0659C52.2381 48.4576 52.7483 48.8678 53.2447 49.2992C53.736 49.7367 54.2232 50.1859 54.6328 50.7322L54.6916 50.8107L54.6295 50.8714C54.3267 51.1664 54.0295 51.467 53.7164 51.7514C53.9648 51.4015 54.2287 51.0678 54.4879 50.7286L54.4846 50.8675C54.0421 50.4028 53.5349 49.995 53.0336 49.5856L51.5066 48.3783C50.4822 47.5784 49.4575 46.7765 48.4609 45.9226Z" fill="#343826"/>
<path d="M44.1697 62.5283C43.7645 63.0497 43.3427 63.5538 42.9295 64.067L42.8648 64.1474L42.7967 64.0622C42.0615 63.1405 41.3521 62.1982 40.6897 61.2169C40.0221 60.2403 39.3903 59.2357 38.793 58.2086C38.1893 57.1855 37.6278 56.1336 37.1136 55.0564C36.5839 53.9879 36.1255 52.88 35.707 51.759C36.2449 52.822 36.7691 53.8865 37.3413 54.9235C37.9109 55.9612 38.4935 56.9895 39.099 58.0031C39.7053 59.016 40.3237 60.0206 40.964 61.0102C41.6079 61.9959 42.2474 62.9894 42.9339 63.9415L42.8012 63.9368C43.257 63.4678 43.705 62.9898 44.1697 62.5283Z" fill="#343826"/>
<path d="M35.8008 53.9651C36.1679 54.2226 36.4817 54.524 36.7915 54.8316C37.0964 55.1456 37.3936 55.4596 37.6657 55.8283C37.2595 55.6449 36.9149 55.3582 36.6011 55.0462C36.2928 54.7271 36.0074 54.38 35.8008 53.9651Z" fill="#343826"/>
</svg>
