<svg width="24" height="20" viewBox="0 0 24 20" fill="none" xmlns="http://www.w3.org/2000/svg">
<path d="M12 8C11.6044 8 11.2178 8.1173 10.8889 8.33706C10.56 8.55682 10.3036 8.86918 10.1522 9.23463C10.0009 9.60009 9.96126 10.0022 10.0384 10.3902C10.1156 10.7781 10.3061 11.1345 10.5858 11.4142C10.8655 11.6939 11.2219 11.8844 11.6098 11.9616C11.9978 12.0387 12.3999 11.9991 12.7654 11.8478C13.1308 11.6964 13.4432 11.44 13.6629 11.1111C13.8827 10.7822 14 10.3956 14 10C14 9.46957 13.7893 8.96086 13.4142 8.58579C13.0391 8.21071 12.5304 8 12 8ZM12 11C11.8022 11 11.6089 10.9414 11.4444 10.8315C11.28 10.7216 11.1518 10.5654 11.0761 10.3827C11.0004 10.2 10.9806 9.99889 11.0192 9.80491C11.0578 9.61093 11.153 9.43275 11.2929 9.29289C11.4327 9.15304 11.6109 9.0578 11.8049 9.01921C11.9989 8.98063 12.2 9.00043 12.3827 9.07612C12.5654 9.15181 12.7216 9.27998 12.8315 9.44443C12.9414 9.60888 13 9.80222 13 10C13 10.2652 12.8946 10.5196 12.7071 10.7071C12.5196 10.8946 12.2652 11 12 11Z" fill="#2C2C2C"/>
<path d="M16.6469 10.95L16.4249 10.822C16.5248 10.2782 16.5248 9.72078 16.4249 9.177L16.6469 9.049C16.8176 8.95051 16.9673 8.81936 17.0873 8.66303C17.2073 8.50671 17.2954 8.32827 17.3465 8.13791C17.3975 7.94755 17.4106 7.74899 17.385 7.55358C17.3593 7.35816 17.2954 7.16972 17.1969 6.999C17.0984 6.82828 16.9673 6.67863 16.8109 6.5586C16.6546 6.43857 16.4762 6.3505 16.2858 6.29943C16.0954 6.24836 15.8969 6.23528 15.7015 6.26094C15.5061 6.28661 15.3176 6.35051 15.1469 6.449L14.9244 6.5775C14.5042 6.21846 14.0212 5.94012 13.4999 5.7565V5.5C13.4999 5.10218 13.3419 4.72064 13.0606 4.43934C12.7793 4.15804 12.3977 4 11.9999 4C11.6021 4 11.2205 4.15804 10.9392 4.43934C10.6579 4.72064 10.4999 5.10218 10.4999 5.5V5.7565C9.97859 5.94078 9.49582 6.2198 9.0759 6.5795L8.8524 6.45C8.50762 6.25109 8.09794 6.19729 7.71349 6.30043C7.32904 6.40358 7.00131 6.65522 6.8024 7C6.60349 7.34478 6.54969 7.75446 6.65283 8.13891C6.75598 8.52336 7.00762 8.85109 7.3524 9.05L7.5744 9.178C7.47445 9.72178 7.47445 10.2792 7.5744 10.823L7.3524 10.951C7.00762 11.1499 6.75598 11.4776 6.65283 11.8621C6.54969 12.2465 6.60349 12.6562 6.8024 13.001C7.00131 13.3458 7.32904 13.5974 7.71349 13.7006C8.09794 13.8037 8.50762 13.7499 8.8524 13.551L9.0749 13.4225C9.49528 13.7816 9.97839 14.0599 10.4999 14.2435V14.5C10.4999 14.8978 10.6579 15.2794 10.9392 15.5607C11.2205 15.842 11.6021 16 11.9999 16C12.3977 16 12.7793 15.842 13.0606 15.5607C13.3419 15.2794 13.4999 14.8978 13.4999 14.5V14.2435C14.0212 14.0592 14.504 13.7802 14.9239 13.4205L15.1474 13.5495C15.4922 13.7484 15.9019 13.8022 16.2863 13.6991C16.6708 13.5959 16.9985 13.3443 17.1974 12.9995C17.3963 12.6547 17.4501 12.245 17.347 11.8606C17.2438 11.4761 16.9922 11.1484 16.6474 10.9495L16.6469 10.95ZM15.3729 9.062C15.5422 9.67553 15.5422 10.3235 15.3729 10.937C15.3433 11.0438 15.3501 11.1574 15.3921 11.2599C15.4341 11.3624 15.5089 11.4481 15.6049 11.5035L16.1469 11.8165C16.2618 11.8828 16.3457 11.992 16.38 12.1202C16.4144 12.2483 16.3965 12.3848 16.3301 12.4998C16.2638 12.6147 16.1546 12.6985 16.0265 12.7329C15.8983 12.7672 15.7618 12.7493 15.6469 12.683L15.1039 12.369C15.0078 12.3134 14.896 12.2913 14.786 12.3062C14.676 12.3212 14.5741 12.3723 14.4964 12.4515C14.0514 12.9058 13.4907 13.23 12.8749 13.389C12.7674 13.4166 12.6722 13.4792 12.6042 13.567C12.5362 13.6547 12.4993 13.7625 12.4994 13.8735V14.5C12.4994 14.6326 12.4467 14.7598 12.353 14.8536C12.2592 14.9473 12.132 15 11.9994 15C11.8668 15 11.7396 14.9473 11.6458 14.8536C11.5521 14.7598 11.4994 14.6326 11.4994 14.5V13.874C11.4995 13.763 11.4626 13.6552 11.3946 13.5675C11.3266 13.4797 11.2314 13.4171 11.1239 13.3895C10.5081 13.2298 9.94756 12.905 9.5029 12.45C9.42516 12.3708 9.32327 12.3197 9.21328 12.3047C9.10329 12.2898 8.99145 12.3119 8.8954 12.3675L8.3534 12.681C8.29651 12.7143 8.23359 12.7361 8.16826 12.745C8.10293 12.754 8.03648 12.7499 7.97273 12.733C7.90898 12.7162 7.84919 12.6869 7.79681 12.6468C7.74443 12.6068 7.70049 12.5568 7.66752 12.4997C7.63455 12.4426 7.6132 12.3795 7.6047 12.3141C7.5962 12.2487 7.60072 12.1823 7.61799 12.1187C7.63527 12.055 7.66496 11.9954 7.70537 11.9433C7.74577 11.8912 7.79608 11.8476 7.8534 11.815L8.3954 11.502C8.49137 11.4466 8.56624 11.3609 8.60823 11.2584C8.65022 11.1559 8.65696 11.0423 8.6274 10.9355C8.45808 10.322 8.45808 9.67403 8.6274 9.0605C8.65643 8.95394 8.64937 8.84077 8.60731 8.73865C8.56525 8.63652 8.49056 8.5512 8.3949 8.496L7.8529 8.183C7.73799 8.1167 7.65413 8.00746 7.61977 7.87933C7.5854 7.75119 7.60335 7.61466 7.66965 7.49975C7.73595 7.38484 7.84519 7.30099 7.97332 7.26662C8.10146 7.23225 8.23799 7.2502 8.3529 7.3165L8.8959 7.6305C8.99169 7.68626 9.10329 7.70861 9.21316 7.69403C9.32304 7.67946 9.42495 7.6288 9.5029 7.55C9.94794 7.09567 10.5086 6.77151 11.1244 6.6125C11.2322 6.58478 11.3277 6.52188 11.3957 6.43375C11.4637 6.34563 11.5004 6.23732 11.4999 6.126V5.5C11.4999 5.36739 11.5526 5.24021 11.6463 5.14645C11.7401 5.05268 11.8673 5 11.9999 5C12.1325 5 12.2597 5.05268 12.3535 5.14645C12.4472 5.24021 12.4999 5.36739 12.4999 5.5V6.126C12.4998 6.23698 12.5367 6.34482 12.6047 6.43254C12.6727 6.52026 12.7679 6.58287 12.8754 6.6105C13.4914 6.77008 14.0521 7.09494 14.4969 7.55C14.5746 7.62923 14.6765 7.68035 14.7865 7.69528C14.8965 7.71022 15.0083 7.68813 15.1044 7.6325L15.6464 7.319C15.7033 7.28565 15.7662 7.26388 15.8315 7.25495C15.8969 7.24602 15.9633 7.2501 16.0271 7.26695C16.0908 7.2838 16.1506 7.3131 16.203 7.35316C16.2554 7.39321 16.2993 7.44323 16.3323 7.50034C16.3653 7.55744 16.3866 7.6205 16.3951 7.68589C16.4036 7.75128 16.3991 7.81771 16.3818 7.88135C16.3645 7.94498 16.3348 8.00457 16.2944 8.05669C16.254 8.1088 16.2037 8.15241 16.1464 8.185L15.6044 8.498C15.5089 8.55335 15.4344 8.63874 15.3926 8.74085C15.3507 8.84296 15.3438 8.95605 15.3729 9.0625V9.062Z" fill="#2C2C2C"/>
</svg>
