<svg width="19" height="18" viewBox="0 0 19 18" fill="none" xmlns="http://www.w3.org/2000/svg">
<path d="M9.5 0C7.71997 0 5.97991 0.527841 4.49987 1.51677C3.01983 2.50571 1.86628 3.91131 1.18509 5.55585C0.5039 7.20038 0.32567 9.00998 0.672936 10.7558C1.0202 12.5016 1.87737 14.1053 3.13604 15.364C4.39471 16.6226 5.99836 17.4798 7.74419 17.8271C9.49002 18.1743 11.2996 17.9961 12.9442 17.3149C14.5887 16.6337 15.9943 15.4802 16.9832 14.0001C17.9722 12.5201 18.5 10.78 18.5 9C18.4975 6.61382 17.5485 4.3261 15.8612 2.63882C14.1739 0.95154 11.8862 0.00251984 9.5 0ZM9.5 16.6154C7.99382 16.6154 6.52146 16.1687 5.26912 15.332C4.01678 14.4952 3.0407 13.3058 2.46431 11.9143C1.88792 10.5227 1.73711 8.99155 2.03095 7.51431C2.32479 6.03707 3.05008 4.68014 4.11511 3.61511C5.18014 2.55008 6.53708 1.82478 8.01431 1.53094C9.49155 1.2371 11.0228 1.38791 12.4143 1.9643C13.8058 2.54069 14.9952 3.51677 15.832 4.76912C16.6688 6.02146 17.1154 7.49382 17.1154 9C17.1131 11.019 16.31 12.9547 14.8824 14.3824C13.4547 15.81 11.519 16.6131 9.5 16.6154ZM15.0385 9C15.0385 9.18361 14.9655 9.3597 14.8357 9.48953C14.7059 9.61937 14.5298 9.69231 14.3462 9.69231H9.5C9.31639 9.69231 9.1403 9.61937 9.01047 9.48953C8.88063 9.3597 8.80769 9.18361 8.80769 9V4.15385C8.80769 3.97023 8.88063 3.79414 9.01047 3.66431C9.1403 3.53448 9.31639 3.46154 9.5 3.46154C9.68361 3.46154 9.8597 3.53448 9.98954 3.66431C10.1194 3.79414 10.1923 3.97023 10.1923 4.15385V8.30769H14.3462C14.5298 8.30769 14.7059 8.38063 14.8357 8.51046C14.9655 8.6403 15.0385 8.81639 15.0385 9Z" fill="#16A34A"/>
</svg>
