<svg width="721" height="545" viewBox="0 0 721 545" fill="none" xmlns="http://www.w3.org/2000/svg">
<path fill-rule="evenodd" clip-rule="evenodd" d="M479.439 511.312L651 444.607L601.982 359.797L393.5 278.958L185.176 359.797L136 444.607L393.5 544.505L479.439 511.312Z" fill="#149443"/>
<path fill-rule="evenodd" clip-rule="evenodd" d="M185.622 360.019L393.421 278.958L601.378 360.019L393.421 441.237L185.622 360.019Z" fill="black" fill-opacity="0.2"/>
<path fill-rule="evenodd" clip-rule="evenodd" d="M601.982 360.769L393.5 441.341V544.506L651 445.133L601.982 360.769Z" fill="white" fill-opacity="0.4"/>
<path fill-rule="evenodd" clip-rule="evenodd" d="M535.042 245.218L393.421 190.443L251.958 245.218L203.057 329.754L393.421 403.685L583.943 329.754L535.042 245.218Z" fill="#16A34A" fill-opacity="0.6"/>
<path fill-rule="evenodd" clip-rule="evenodd" d="M251.339 245.351L393.421 190.443L535.661 245.351L393.421 300.417L251.339 245.351Z" fill="black" fill-opacity="0.2"/>
<path fill-rule="evenodd" clip-rule="evenodd" d="M535.062 245.43L393.5 300.289V403.685L583.943 329.853L535.062 245.43Z" fill="white" fill-opacity="0.4"/>
<path fill-rule="evenodd" clip-rule="evenodd" d="M435.022 246.827L518.227 214.594L493.633 172.198L468.879 129.803L393.34 100.586L317.802 129.803L268.773 214.594L393.34 262.865L435.022 246.827Z" fill="#45B56E" fill-opacity="0.6"/>
<path fill-rule="evenodd" clip-rule="evenodd" d="M318.396 130.091L393.5 100.586L468.604 130.091L393.5 159.596L318.396 130.091Z" fill="black" fill-opacity="0.2"/>
<path fill-rule="evenodd" clip-rule="evenodd" d="M468.942 130.091L393.5 159.244V262.865L518.227 214.699L468.942 130.091Z" fill="white" fill-opacity="0.4"/>
<path fill-rule="evenodd" clip-rule="evenodd" d="M393.421 0L335.831 99.6954L393.421 122.044L451.169 99.6954L393.421 0Z" fill="#63C186" fill-opacity="0.6"/>
<path fill-rule="evenodd" clip-rule="evenodd" d="M393.5 0V122.044L451.169 99.6954L393.5 0Z" fill="white" fill-opacity="0.4"/>
<path d="M717.067 98.4883H450V99.7483H717.067V98.4883Z" fill="#63C186"/>
<path d="M713.948 99.118C713.948 97.396 715.344 96 717.066 96C718.788 96 720.184 97.396 720.184 99.118C720.184 100.84 718.788 102.236 717.066 102.236C715.345 102.236 713.948 100.84 713.948 99.118Z" fill="#63C186"/>
<path d="M3.1171 213.488H270.184V214.748H3.1171V213.488Z" fill="#45B56E"/>
<path d="M6.23608 214.118C6.23608 212.396 4.8401 211 3.1181 211C1.3961 211 0.00012207 212.396 0.00012207 214.118C0.00012207 215.84 1.3961 217.236 3.1181 217.236C4.8391 217.236 6.23608 215.84 6.23608 214.118Z" fill="#45B56E"/>
<path d="M717.067 328.488H583V329.748H717.067V328.488Z" fill="#16A34A"/>
<path d="M713.948 329.118C713.948 327.396 715.344 326 717.066 326C718.788 326 720.184 327.396 720.184 329.118C720.184 330.84 718.788 332.236 717.066 332.236C715.345 332.236 713.948 330.84 713.948 329.118Z" fill="#16A34A"/>
<path d="M3.1171 443.488H137.184V444.748H3.1171V443.488Z" fill="#149443"/>
<path d="M6.23608 444.118C6.23608 442.396 4.8401 441 3.1181 441C1.3961 441 0.00012207 442.396 0.00012207 444.118C0.00012207 445.84 1.3961 447.236 3.1181 447.236C4.8391 447.236 6.23608 445.84 6.23608 444.118Z" fill="#149443"/>
</svg>
