<svg width="260" height="269" viewBox="0 0 260 269" fill="none" xmlns="http://www.w3.org/2000/svg">
<path fill-rule="evenodd" clip-rule="evenodd" d="M169.186 251.884L253.701 219.024L229.554 177.244L126.85 137.421L24.2251 177.244L0 219.024L126.85 268.236L169.186 251.884Z" fill="#149443"/>
<path fill-rule="evenodd" clip-rule="evenodd" d="M24.4453 177.354L126.812 137.421L229.256 177.354L126.812 217.364L24.4453 177.354Z" fill="black" fill-opacity="0.2"/>
<path fill-rule="evenodd" clip-rule="evenodd" d="M229.554 177.723L126.851 217.414V268.236L253.701 219.283L229.554 177.723Z" fill="white" fill-opacity="0.4"/>
<path fill-rule="evenodd" clip-rule="evenodd" d="M196.577 120.8L126.812 93.8164L57.1238 120.8L33.0342 162.444L126.812 198.864L220.667 162.444L196.577 120.8Z" fill="#16A34A" fill-opacity="0.6"/>
<path fill-rule="evenodd" clip-rule="evenodd" d="M56.8184 120.865L126.811 93.8164L196.882 120.865L126.811 147.992L56.8184 120.865Z" fill="black" fill-opacity="0.2"/>
<path fill-rule="evenodd" clip-rule="evenodd" d="M196.587 120.904L126.851 147.929V198.864L220.667 162.493L196.587 120.904Z" fill="white" fill-opacity="0.4"/>
<path fill-rule="evenodd" clip-rule="evenodd" d="M147.305 121.593L188.294 105.714L176.178 84.8284L163.984 63.9437L126.772 49.5508L89.5597 63.9437L65.4072 105.714L126.772 129.493L147.305 121.593Z" fill="#45B56E" fill-opacity="0.6"/>
<path fill-rule="evenodd" clip-rule="evenodd" d="M89.8525 64.0857L126.851 49.5508L163.849 64.0857L126.851 78.6207L89.8525 64.0857Z" fill="black" fill-opacity="0.2"/>
<path fill-rule="evenodd" clip-rule="evenodd" d="M164.015 64.0859L126.851 78.4471V129.493L188.294 105.766L164.015 64.0859Z" fill="white" fill-opacity="0.4"/>
<path fill-rule="evenodd" clip-rule="evenodd" d="M126.812 0L98.4414 49.1122L126.812 60.1218L155.26 49.1122L126.812 0Z" fill="#63C186" fill-opacity="0.6"/>
<path fill-rule="evenodd" clip-rule="evenodd" d="M126.851 0V60.1218L155.26 49.1122L126.851 0Z" fill="white" fill-opacity="0.4"/>
<path d="M253.333 14C253.333 15.4728 254.527 16.6667 256 16.6667C257.473 16.6667 258.667 15.4728 258.667 14C258.667 12.5272 257.473 11.3333 256 11.3333C254.527 11.3333 253.333 12.5272 253.333 14ZM224.5 48.5V49H224.721L224.869 48.8371L224.5 48.5ZM154 48.5V49H224.5V48.5V48H154V48.5ZM224.5 48.5L224.869 48.8371L256.369 14.3371L256 14L255.631 13.6629L224.131 48.1629L224.5 48.5Z" fill="#63C186"/>
<path d="M253.833 76C253.833 77.4728 255.027 78.6667 256.5 78.6667C257.973 78.6667 259.167 77.4728 259.167 76C259.167 74.5272 257.973 73.3333 256.5 73.3333C255.027 73.3333 253.833 74.5272 253.833 76ZM232 105V105.5H232.232L232.382 105.323L232 105ZM188 105V105.5H232V105V104.5H188V105ZM232 105L232.382 105.323L256.882 76.3227L256.5 76L256.118 75.6773L231.618 104.677L232 105Z" fill="#63C186"/>
<path d="M253.333 146C253.333 147.473 254.527 148.667 256 148.667C257.473 148.667 258.667 147.473 258.667 146C258.667 144.527 257.473 143.333 256 143.333C254.527 143.333 253.333 144.527 253.333 146ZM232 161.5V162H232.147L232.271 161.92L232 161.5ZM220 161.5V162H232V161.5V161H220V161.5ZM232 161.5L232.271 161.92L256.271 146.42L256 146L255.729 145.58L231.729 161.08L232 161.5Z" fill="#63C186"/>
<path d="M254.333 218C254.333 219.473 255.527 220.667 257 220.667C258.473 220.667 259.667 219.473 259.667 218C259.667 216.527 258.473 215.333 257 215.333C255.527 215.333 254.333 216.527 254.333 218ZM251 218V218.5H257V218V217.5H251V218Z" fill="#63C186"/>
</svg>
