<svg width="27" height="26" viewBox="0 0 27 26" fill="none" xmlns="http://www.w3.org/2000/svg">
<path d="M26.918 1.08333V5.95833C26.918 6.24565 26.8038 6.5212 26.6007 6.72437C26.3975 6.92753 26.122 7.04167 25.8346 7.04167C25.5473 7.04167 25.2718 6.92753 25.0686 6.72437C24.8654 6.5212 24.7513 6.24565 24.7513 5.95833V2.16667H20.9596C20.6723 2.16667 20.3968 2.05253 20.1936 1.84937C19.9904 1.6462 19.8763 1.37065 19.8763 1.08333C19.8763 0.796016 19.9904 0.520466 20.1936 0.317301C20.3968 0.114137 20.6723 0 20.9596 0H25.8346C26.122 0 26.3975 0.114137 26.6007 0.317301C26.8038 0.520466 26.918 0.796016 26.918 1.08333ZM25.8346 18.9583C25.5473 18.9583 25.2718 19.0725 25.0686 19.2756C24.8654 19.4788 24.7513 19.7543 24.7513 20.0417V23.8333H20.9596C20.6723 23.8333 20.3968 23.9475 20.1936 24.1506C19.9904 24.3538 19.8763 24.6293 19.8763 24.9167C19.8763 25.204 19.9904 25.4795 20.1936 25.6827C20.3968 25.8859 20.6723 26 20.9596 26H25.8346C26.122 26 26.3975 25.8859 26.6007 25.6827C26.8038 25.4795 26.918 25.204 26.918 24.9167V20.0417C26.918 19.7543 26.8038 19.4788 26.6007 19.2756C26.3975 19.0725 26.122 18.9583 25.8346 18.9583ZM6.8763 23.8333H3.08464V20.0417C3.08464 19.7543 2.9705 19.4788 2.76733 19.2756C2.56417 19.0725 2.28862 18.9583 2.0013 18.9583C1.71398 18.9583 1.43843 19.0725 1.23527 19.2756C1.03211 19.4788 0.917969 19.7543 0.917969 20.0417V24.9167C0.917969 25.204 1.03211 25.4795 1.23527 25.6827C1.43843 25.8859 1.71398 26 2.0013 26H6.8763C7.16362 26 7.43917 25.8859 7.64233 25.6827C7.8455 25.4795 7.95964 25.204 7.95964 24.9167C7.95964 24.6293 7.8455 24.3538 7.64233 24.1506C7.43917 23.9475 7.16362 23.8333 6.8763 23.8333ZM2.0013 7.04167C2.28862 7.04167 2.56417 6.92753 2.76733 6.72437C2.9705 6.5212 3.08464 6.24565 3.08464 5.95833V2.16667H6.8763C7.16362 2.16667 7.43917 2.05253 7.64233 1.84937C7.8455 1.6462 7.95964 1.37065 7.95964 1.08333C7.95964 0.796016 7.8455 0.520466 7.64233 0.317301C7.43917 0.114137 7.16362 0 6.8763 0H2.0013C1.71398 0 1.43843 0.114137 1.23527 0.317301C1.03211 0.520466 0.917969 0.796016 0.917969 1.08333V5.95833C0.917969 6.24565 1.03211 6.5212 1.23527 6.72437C1.43843 6.92753 1.71398 7.04167 2.0013 7.04167ZM20.418 19.5C20.2497 19.5004 20.0836 19.4615 19.9329 19.3865C19.7823 19.3116 19.6511 19.2025 19.5499 19.068C18.894 18.1935 18.0435 17.4837 17.0657 16.9948C16.088 16.5059 15.0098 16.2514 13.9166 16.2514C12.8234 16.2514 11.7453 16.5059 10.7675 16.9948C9.78971 17.4837 8.93919 18.1935 8.28328 19.068C8.11053 19.2979 7.85355 19.4497 7.56886 19.4901C7.28418 19.5304 6.99511 19.4561 6.76526 19.2833C6.53541 19.1106 6.38359 18.8536 6.34321 18.5689C6.30283 18.2842 6.3772 17.9952 6.54995 17.7653C7.51004 16.4798 8.78963 15.4677 10.2617 14.8295C9.45506 14.093 8.8899 13.1299 8.64042 12.0664C8.39094 11.003 8.46879 9.88902 8.86375 8.87063C9.25871 7.85225 9.95234 6.97707 10.8536 6.35994C11.7548 5.74282 12.8216 5.41259 13.9139 5.41259C15.0062 5.41259 16.073 5.74282 16.9742 6.35994C17.8755 6.97707 18.5691 7.85225 18.9641 8.87063C19.359 9.88902 19.4369 11.003 19.1874 12.0664C18.9379 13.1299 18.3728 14.093 17.5661 14.8295C19.0392 15.4673 20.3197 16.4794 21.2806 17.7653C21.4015 17.926 21.4753 18.1171 21.4937 18.3174C21.5121 18.5176 21.4745 18.719 21.3849 18.899C21.2954 19.0791 21.1575 19.2306 20.9868 19.3368C20.816 19.4429 20.619 19.4994 20.418 19.5ZM13.918 14.0833C14.5608 14.0833 15.1891 13.8927 15.7236 13.5356C16.258 13.1785 16.6746 12.6709 16.9206 12.0771C17.1666 11.4832 17.2309 10.8297 17.1055 10.1993C16.9801 9.56885 16.6706 8.98976 16.2161 8.53524C15.7615 8.08072 15.1825 7.77118 14.552 7.64578C13.9216 7.52038 13.2681 7.58474 12.6742 7.83072C12.0804 8.07671 11.5728 8.49327 11.2157 9.02773C10.8586 9.56219 10.668 10.1905 10.668 10.8333C10.668 11.6953 11.0104 12.5219 11.6199 13.1314C12.2294 13.7409 13.056 14.0833 13.918 14.0833Z" fill="#16A34A"/>
</svg>
