<svg width="258" height="260" viewBox="0 0 258 260" fill="none" xmlns="http://www.w3.org/2000/svg">
<path d="M183.697 128.771C187.908 131.166 191.603 134.372 194.566 138.205C197.53 142.037 199.704 146.419 200.963 151.097C205.456 167.172 219.196 209.033 219.196 209.033C219.196 209.033 227.047 218.27 227.884 225.108C228.721 231.945 227.047 248.494 224.517 251.582C223.784 252.479 222.843 253.182 221.776 253.631C220.709 254.08 219.549 254.261 218.396 254.159L185.344 251.024L172.32 163.879L183.697 128.771Z" fill="#75B687"/>
<path d="M74.4089 127.255C74.4089 127.255 50.7713 134.697 44.8828 141.115L64.232 231.126L63.8878 259.536H175.964C175.964 258.131 176.969 165.227 176.969 165.227L183.695 128.771L143.889 121.766L136.038 115.589L91.7301 117.841L84.9951 124.566L74.4089 127.255Z" fill="#75B687"/>
<g opacity="0.3">
<path d="M83.4239 205.349C83.0798 204.586 82.5774 203.758 81.7588 203.591C80.4099 203.312 79.5076 204.902 79.0518 206.205C75.4783 216.409 70.527 226.077 64.3352 234.94L64.0469 248.764C70.5586 243.266 77.0145 237.377 81.182 229.926C85.3496 222.475 86.9031 213.126 83.4239 205.349Z" fill="black"/>
</g>
<path d="M44.8846 141.115C44.8846 141.115 37.0984 151.729 33.8704 158.66C30.6425 165.59 3.84198 223.777 2.24196 229.796C0.641929 235.815 -3.52559 254.736 8.70718 259.127H33.889L59.1546 208.028L60.4476 148.725L44.8846 141.115Z" fill="#75B687"/>
<path d="M35.4801 222.215C35.4801 222.215 34.9219 221.722 33.7591 221.061C32.0994 220.171 30.3197 219.526 28.4753 219.145C27.2072 218.867 25.9197 218.687 24.6241 218.605C23.1313 218.493 21.6301 218.6 20.1682 218.922C16.859 219.772 13.8968 221.631 11.6936 224.243C9.4534 226.825 7.81397 229.872 6.89351 233.164C6.13373 235.855 5.62917 238.611 5.38651 241.397C5.14465 243.778 5.06092 245.722 4.9772 247.052C4.9772 247.685 4.90279 248.197 4.88418 248.597C4.88469 248.779 4.85964 248.961 4.80976 249.136C4.79779 248.957 4.79779 248.776 4.80976 248.597C4.80976 248.187 4.80976 247.666 4.80976 247.052C4.80976 245.704 4.86557 243.769 5.06092 241.369C5.2576 238.538 5.73436 235.733 6.4842 232.996C7.39817 229.63 9.06136 226.513 11.3494 223.88C13.6214 221.196 16.6808 219.295 20.0938 218.447C21.5858 218.137 23.1161 218.052 24.6334 218.196C25.9467 218.293 27.2502 218.495 28.5311 218.801C30.3962 219.215 32.1852 219.918 33.8335 220.885C34.2775 221.159 34.6976 221.47 35.0894 221.815C35.2334 221.934 35.3643 222.068 35.4801 222.215Z" fill="#263238"/>
<path d="M23.543 212.038C23.8182 211.958 24.1028 211.914 24.3895 211.908C25.1666 211.847 25.9473 211.847 26.7244 211.908C27.8816 211.976 29.0304 212.147 30.157 212.419C32.9291 213.089 35.5305 214.331 37.7944 216.066C38.7167 216.768 39.573 217.552 40.3526 218.41C40.8811 218.992 41.3632 219.614 41.7944 220.271C41.9701 220.498 42.114 220.749 42.2224 221.015C42.1479 221.071 41.4596 220.085 40.1014 218.671C39.299 217.866 38.4376 217.123 37.5246 216.447C36.4003 215.629 35.2048 214.913 33.9525 214.308C32.6931 213.72 31.386 213.241 30.0454 212.875C28.9459 212.592 27.8263 212.393 26.6965 212.28C24.7616 212.029 23.543 212.131 23.543 212.038Z" fill="#263238"/>
<path d="M46.2981 209.238C45.9086 209.253 45.5185 209.225 45.1353 209.154C44.3911 209.061 43.3213 208.949 41.9818 208.847C35.0248 208.328 28.0332 209.165 21.3954 211.312C20.1209 211.721 19.0977 212.084 18.4 212.354C18.0439 212.511 17.6731 212.633 17.293 212.717C17.6132 212.494 17.9601 212.313 18.3255 212.177C19.0046 211.852 20.0186 211.442 21.2837 210.986C27.9265 208.634 35.0092 207.789 42.019 208.512C43.3492 208.651 44.4283 208.81 45.1632 208.968C45.5493 209.021 45.9293 209.112 46.2981 209.238Z" fill="#263238"/>
<path d="M118.009 159.516C117.907 159.428 117.819 159.324 117.749 159.209L117.06 158.279L114.53 154.781C112.363 151.711 109.33 147.432 105.767 142.409L106.158 142.353C104.8 146.334 103.302 150.725 101.73 155.376L101.627 155.665L101.367 155.497L100.846 155.162C98.8192 153.865 96.9762 152.3 95.3669 150.511C93.8795 148.845 92.5672 147.031 91.4505 145.097C89.592 141.824 88.1453 138.334 87.1435 134.706C86.4709 132.256 85.9275 129.772 85.5155 127.264C85.3667 126.427 85.2551 125.748 85.162 125.236C85.1357 125.063 85.0953 124.892 85.0411 124.725C85.0411 124.613 84.976 124.557 84.9853 124.548C84.9946 124.539 85.3667 125.478 85.7016 127.236C86.0365 128.995 86.5667 131.525 87.4783 134.585C88.5086 138.18 89.9737 141.635 91.8412 144.874C92.9548 146.772 94.2542 148.554 95.7204 150.195C97.302 151.941 99.1103 153.468 101.097 154.734L101.609 155.069L101.255 155.2C102.846 150.548 104.353 146.186 105.73 142.176L105.869 141.767L106.121 142.12C109.618 147.19 112.632 151.507 114.744 154.595C115.758 156.102 116.604 157.302 117.172 158.176L117.795 159.107C117.881 159.235 117.952 159.372 118.009 159.516Z" fill="#263238"/>
<g opacity="0.3">
<path d="M147.173 202.483C146.169 212.979 148.444 223.529 153.685 232.679C158.894 241.739 166.541 249.823 176.057 254.158C176.364 244.921 175.918 234.037 176.225 224.8L147.173 202.483Z" fill="black"/>
</g>
<path d="M146.126 190.326C146.126 190.326 142.051 191.451 145.102 199.795C148.154 208.14 149.177 207.628 151.214 215.424C153.251 223.219 155.623 230.308 159.177 234.754C162.731 239.201 175.968 248.15 175.968 248.15L187.838 236.987C187.838 236.987 185.885 228.615 186.35 222.977C186.815 217.34 188.005 203.442 187.838 201.033C187.671 198.623 185.122 192.893 185.122 192.893V188.949L179.019 170.176C179.019 170.176 175.624 168.651 174.442 174.074L172.405 168.316C172.405 168.316 169.187 167.804 168.34 174.418C167.493 181.032 169.019 190.186 169.019 190.186L167.317 201.712L164.777 209.517L162.572 209.851C162.572 209.851 159.251 208.921 157.437 202.698C155.623 196.474 150.702 188.967 146.126 190.326Z" fill="#FFBE9D"/>
<path d="M183.891 219.852C183.891 219.852 183.891 219.712 183.836 219.433C183.78 219.154 183.78 218.698 183.752 218.187C183.687 217.052 183.603 215.48 183.501 213.535C183.315 209.489 183.063 203.851 182.766 197.275L182.812 197.414C182.508 197.099 182.124 196.874 181.701 196.762C181.278 196.65 180.832 196.657 180.412 196.782C179.957 196.892 179.529 197.092 179.152 197.37C178.775 197.648 178.457 197.998 178.217 198.4C177.175 200.065 177.119 202.242 176.794 204.335C176.152 209.089 175.538 213.638 174.98 217.74C174.701 219.805 174.403 221.759 174.003 223.573C173.626 225.255 173.132 226.909 172.524 228.522C172.003 230.001 171.538 231.312 171.249 232.55C170.992 233.568 170.864 234.615 170.868 235.666C170.901 236.57 171.057 237.465 171.333 238.326C171.221 238.118 171.128 237.9 171.054 237.675C170.833 237.03 170.708 236.357 170.682 235.675C170.638 234.597 170.741 233.517 170.989 232.466C171.315 231.085 171.722 229.725 172.207 228.391C172.783 226.784 173.249 225.14 173.603 223.47C173.984 221.675 174.273 219.749 174.533 217.666C175.073 213.535 175.677 209.014 176.31 204.251C176.459 203.2 176.57 202.149 176.756 201.107C176.909 200.054 177.263 199.04 177.798 198.121C178.075 197.67 178.439 197.278 178.868 196.968C179.298 196.658 179.785 196.437 180.301 196.316C180.802 196.166 181.336 196.159 181.841 196.297C182.346 196.435 182.802 196.713 183.156 197.098L183.203 197.163V197.237C183.436 203.814 183.631 209.452 183.77 213.507C183.77 215.47 183.854 217.042 183.891 218.159C183.891 218.67 183.891 219.089 183.891 219.405C183.907 219.554 183.907 219.703 183.891 219.852Z" fill="#EB996E"/>
<path d="M177.381 198.457C177.169 198.126 177 197.769 176.878 197.396C176.49 196.405 176.157 195.392 175.883 194.364C175.484 192.837 175.201 191.282 175.036 189.712C174.922 188.786 174.903 187.851 174.981 186.922C175.067 185.882 175.419 184.883 176.004 184.019C176.526 183.245 177.292 182.668 178.181 182.382L178.357 182.335L178.45 182.494C180.171 185.526 181.669 188.205 182.711 190.131L183.93 192.41C184.096 192.677 184.228 192.965 184.32 193.266C184.112 193.029 183.931 192.77 183.781 192.494L182.441 190.289C181.325 188.429 179.771 185.759 178.041 182.735L178.311 182.847C177.533 183.107 176.862 183.617 176.404 184.298C175.868 185.096 175.548 186.019 175.474 186.977C175.38 187.887 175.38 188.803 175.474 189.712C175.614 191.277 175.859 192.831 176.208 194.364C176.506 195.666 176.832 196.708 177.046 197.424C177.191 197.756 177.303 198.102 177.381 198.457Z" fill="#EB996E"/>
<path d="M174.534 199.982C174.451 199.625 174.413 199.26 174.422 198.893C174.422 198.093 174.347 197.107 174.301 195.945C174.227 193.452 174.143 190.01 174.096 186.205C173.957 182.952 174.007 179.694 174.245 176.447C174.362 175.461 174.573 174.489 174.878 173.544C174.968 173.188 175.116 172.848 175.315 172.54C174.973 173.834 174.728 175.153 174.58 176.484C174.347 178.949 174.58 182.391 174.58 186.196C174.58 190 174.654 193.442 174.645 195.935C174.645 197.107 174.645 198.093 174.645 198.893C174.648 199.259 174.61 199.624 174.534 199.982Z" fill="#EB996E"/>
<path d="M164.5 231.248C164.435 231.192 165.179 230.317 166.091 228.727C166.625 227.799 167.089 226.832 167.477 225.834C167.933 224.606 168.288 223.343 168.537 222.057C168.755 220.766 168.864 219.459 168.863 218.15C168.849 217.081 168.756 216.014 168.584 214.959C168.277 213.145 167.886 212.066 167.97 212.038C168.117 212.266 168.229 212.513 168.305 212.773C168.567 213.462 168.773 214.171 168.919 214.894C169.146 215.962 169.277 217.049 169.309 218.141C169.391 220.832 168.906 223.51 167.886 226.001C167.475 227.012 166.974 227.983 166.388 228.904C166.001 229.528 165.562 230.119 165.077 230.671C164.733 231.062 164.528 231.266 164.5 231.248Z" fill="#EB996E"/>
<path d="M185.332 225.434L195.63 229.006C195.63 229.006 205.472 223.917 212.254 229.006C219.035 234.094 224.924 247.499 223.063 252.922C223.063 252.922 218.412 258.709 214.821 259.555C211.231 260.402 197.416 257.043 191.658 255.834C185.9 254.625 175.965 248.169 175.965 248.169L185.332 225.434Z" fill="#FFBE9D"/>
<path d="M186.596 240.587C186.523 240.283 186.486 239.97 186.484 239.657C186.484 238.959 186.401 238.132 186.345 237.164C186.233 235.062 186.094 232.159 186.047 228.941C186 225.722 186.094 222.81 186.28 220.708C186.373 219.657 186.494 218.847 186.596 218.224C186.619 217.905 186.691 217.591 186.81 217.294C186.884 217.294 186.726 218.596 186.624 220.699C186.521 222.801 186.484 225.694 186.531 228.903C186.577 232.113 186.642 234.885 186.68 237.118C186.68 238.169 186.68 239.025 186.68 239.611C186.704 239.939 186.676 240.268 186.596 240.587Z" fill="#EB996E"/>
<path d="M220.562 228.578C219.495 227.469 218.351 226.437 217.139 225.489C214.16 223.261 210.589 221.963 206.874 221.759C203.16 221.556 199.468 222.455 196.264 224.345C194.964 225.155 193.721 226.054 192.543 227.033C192.789 226.692 193.073 226.38 193.389 226.103C194.227 225.325 195.14 224.633 196.115 224.038C199.351 222.023 203.129 221.055 206.935 221.266C210.74 221.478 214.388 222.858 217.381 225.219C218.285 225.915 219.115 226.704 219.855 227.573C220.129 227.879 220.367 228.216 220.562 228.578Z" fill="#263238"/>
<path d="M219.245 219.992C217.914 219.037 216.475 218.243 214.956 217.629C211.224 216.304 207.17 216.184 203.365 217.285C201.273 217.872 199.258 218.709 197.365 219.778C195.825 220.664 194.37 221.691 193.021 222.848C191.867 223.834 190.984 224.709 190.379 225.295C190.082 225.634 189.755 225.945 189.402 226.225C189.644 225.849 189.925 225.5 190.24 225.183C191.043 224.277 191.897 223.416 192.798 222.606C194.135 221.399 195.59 220.33 197.142 219.415C199.054 218.298 201.102 217.432 203.235 216.839C207.133 215.7 211.297 215.873 215.087 217.332C216.218 217.784 217.285 218.384 218.259 219.118C218.603 219.369 218.835 219.611 219.012 219.76C219.189 219.908 219.245 219.983 219.245 219.992Z" fill="#263238"/>
<path d="M219.325 212.55C219.325 212.643 217.464 212.094 214.506 211.694C212.758 211.459 210.996 211.348 209.232 211.359C207.071 211.383 204.916 211.576 202.785 211.936C200.659 212.327 198.566 212.88 196.525 213.592C194.861 214.183 193.241 214.891 191.678 215.713C189.008 217.108 187.501 218.243 187.445 218.159C187.761 217.853 188.107 217.578 188.478 217.341C188.883 217.022 189.309 216.73 189.752 216.466C190.264 216.141 190.841 215.759 191.51 215.406C193.074 214.541 194.7 213.795 196.376 213.173C198.432 212.423 200.548 211.85 202.701 211.461C204.853 211.097 207.031 210.914 209.213 210.913C210.998 210.922 212.781 211.068 214.543 211.35C215.297 211.443 215.967 211.62 216.553 211.741C217.062 211.843 217.565 211.974 218.06 212.131C218.493 212.234 218.916 212.374 219.325 212.55Z" fill="#263238"/>
<path d="M140.41 121.459C140.795 122.326 141.034 123.25 141.117 124.194C141.394 126.862 141.263 129.557 140.726 132.185C140.4 134.072 139.955 135.936 139.396 137.767C138.662 139.897 137.76 141.966 136.698 143.953C134.475 148.232 131.684 152.893 128.447 157.907L128.075 158.493V157.795C128.075 154.502 128.075 151.051 128.075 147.469L128.437 147.646L119.702 154.614L119.777 154.502C117.705 161.292 116.431 168.301 115.981 175.386C115.126 186.707 115.814 197.535 116.344 207.359C116.874 217.182 117.107 226.047 117.414 233.489C117.721 240.931 117.972 246.941 118.195 251.099C118.326 253.164 118.419 254.764 118.484 255.88C118.484 256.411 118.549 256.811 118.567 257.127C118.586 257.443 118.567 257.555 118.567 257.555C118.567 257.555 118.567 257.415 118.502 257.136C118.437 256.857 118.428 256.42 118.372 255.89C118.27 254.801 118.14 253.192 118 251.108C117.721 246.959 117.395 240.941 117.07 233.499C116.744 226.057 116.344 217.21 115.898 207.377C115.451 197.545 114.642 186.707 115.498 175.349C115.968 168.221 117.276 161.174 119.395 154.353V154.288H119.451L128.158 147.302L128.521 147.004V147.469C128.521 151.051 128.521 154.502 128.521 157.795L128.14 157.674C134.531 147.767 139.731 139.153 140.531 132.185C141.083 129.582 141.252 126.912 141.033 124.26C140.957 123.563 140.829 122.872 140.652 122.194C140.465 121.692 140.41 121.459 140.41 121.459Z" fill="#263238"/>
<path d="M123.721 241.452H123.423C122.746 241.496 122.112 241.801 121.655 242.303C121.199 242.806 120.956 243.466 120.978 244.145C121 244.823 121.284 245.466 121.772 245.939C122.26 246.411 122.912 246.675 123.591 246.675C124.269 246.675 124.922 246.411 125.409 245.939C125.897 245.466 126.181 244.823 126.203 244.145C126.225 243.466 125.982 242.806 125.526 242.303C125.069 241.801 124.435 241.496 123.758 241.452H123.721Z" fill="white"/>
<path d="M123.727 205.601H123.429C122.755 205.644 122.123 205.948 121.668 206.449C121.214 206.95 120.972 207.608 120.994 208.284C121.015 208.96 121.299 209.601 121.785 210.071C122.271 210.542 122.921 210.805 123.597 210.805C124.273 210.805 124.923 210.542 125.409 210.071C125.895 209.601 126.178 208.96 126.2 208.284C126.222 207.608 125.98 206.95 125.525 206.449C125.071 205.948 124.439 205.644 123.764 205.601H123.727Z" fill="white"/>
<path d="M123.424 173.525C124.119 173.571 124.803 173.339 125.326 172.88C125.85 172.421 126.169 171.773 126.215 171.079C126.26 170.384 126.028 169.7 125.57 169.177C125.111 168.653 124.463 168.334 123.768 168.288H123.424C122.728 168.288 122.061 168.564 121.569 169.056C121.077 169.548 120.801 170.216 120.801 170.911C120.801 171.607 121.077 172.274 121.569 172.766C122.061 173.258 122.728 173.535 123.424 173.535V173.525Z" fill="white"/>
<path d="M83.2122 79.4492C79.9563 75.8305 76.7004 72.1839 74.2911 67.942C71.8818 63.7001 70.4957 58.7418 71.2771 53.9883C71.7422 51.1975 72.933 48.4998 73.1376 45.616C73.3981 41.709 71.7608 37.6252 73.1376 33.9693C75.2958 28.239 83.0076 27.3553 87.6774 23.4017C91.3147 20.3226 93.0821 15.3271 97.0822 12.741C100.58 10.4712 105.073 10.527 109.175 11.1038C113.278 11.6806 117.445 12.7317 121.576 12.1736C124.515 11.7829 127.287 10.5922 130.162 9.87587C133.036 9.15958 136.264 8.94563 138.822 10.4712C141.381 11.9968 142.832 15.5969 141.148 18.0435C145.93 15.8388 152.004 19.5691 153.316 24.6668C154.627 29.7646 152.004 35.281 147.948 38.6206C143.892 41.9601 138.646 43.5509 133.483 44.5276C118.841 47.3184 102.943 45.7277 90.3193 37.8019" fill="#263238"/>
<path d="M134.716 128.688C134 123.106 133.414 118.52 133.377 117.943C133.377 117.943 151.907 113.776 150.884 95.0406C150.391 85.9799 147.861 67.4122 145.368 50.6398C144.087 41.945 139.576 34.0524 132.735 28.5353C125.893 23.0182 117.224 20.2819 108.456 20.8718L106.595 20.9835C87.1994 23.43 78.4271 41.2722 81.4039 60.6027L91.8785 125.413C91.8785 125.413 96.3437 139.748 105.897 142.232L117.991 159.46L119.981 152.018L128.968 144.186C130.69 142.161 132.178 139.948 133.405 137.59C134.777 134.837 135.236 131.719 134.716 128.688Z" fill="#FFBE9D"/>
<path d="M133.387 117.683C133.387 117.683 121.619 119.432 108.512 112.371C108.512 112.371 115.191 125.46 133.759 122.529L133.387 117.683Z" fill="#EB996E"/>
<path d="M139.349 66.7517C139.402 67.4489 139.18 68.1389 138.732 68.6755C138.284 69.2122 137.645 69.5531 136.949 69.6262C136.611 69.6758 136.266 69.657 135.935 69.571C135.604 69.4849 135.293 69.3333 135.022 69.1251C134.75 68.917 134.523 68.6565 134.354 68.3591C134.185 68.0616 134.078 67.7333 134.038 67.3936C133.976 66.6909 134.194 65.9922 134.646 65.4501C135.097 64.908 135.745 64.5666 136.447 64.5005C136.786 64.4523 137.132 64.4728 137.463 64.5606C137.794 64.6485 138.104 64.8019 138.375 65.0119C138.645 65.2218 138.871 65.484 139.039 65.7829C139.206 66.0818 139.312 66.4112 139.349 66.7517Z" fill="#263238"/>
<path d="M141.967 60.109C141.66 60.4811 139.53 59.1137 136.655 59.3183C133.781 59.523 131.799 61.0951 131.427 60.7788C131.269 60.6393 131.567 59.9881 132.441 59.2532C133.626 58.3059 135.076 57.7501 136.59 57.6625C138.088 57.5537 139.582 57.9287 140.851 58.7323C141.781 59.3276 142.116 59.9416 141.967 60.109Z" fill="#263238"/>
<path d="M112.171 68.6957C112.225 69.3924 112.005 70.0826 111.556 70.6183C111.107 71.154 110.466 71.4924 109.771 71.5609C109.433 71.6119 109.088 71.5943 108.757 71.5094C108.426 71.4244 108.115 71.2738 107.844 71.0664C107.572 70.8589 107.345 70.599 107.176 70.302C107.007 70.005 106.899 69.677 106.859 69.3376C106.807 68.6419 107.027 67.9531 107.473 67.4167C107.919 66.8804 108.556 66.5384 109.25 66.4631C109.589 66.4135 109.934 66.4322 110.266 66.5182C110.598 66.6041 110.909 66.7556 111.181 66.9637C111.453 67.1717 111.681 67.4321 111.851 67.7296C112.021 68.0271 112.13 68.3556 112.171 68.6957Z" fill="#263238"/>
<path d="M113.721 62.5374C113.405 62.9095 111.284 61.542 108.409 61.7467C105.535 61.9513 103.516 63.5234 103.181 63.1885C103.014 63.049 103.312 62.3978 104.186 61.6629C105.375 60.7171 106.827 60.1616 108.344 60.0722C109.839 59.9648 111.329 60.3397 112.595 61.142C113.526 61.756 113.87 62.3699 113.721 62.5374Z" fill="#263238"/>
<path d="M125.585 83.1797C125.585 83.0122 127.334 82.5843 130.237 82.0169C130.962 81.8959 131.651 81.7006 131.744 81.1983C131.753 80.4334 131.529 79.6839 131.102 79.0494L128.553 73.5981C125.009 65.8398 122.385 59.4304 122.702 59.2909C123.018 59.1514 126.144 65.3282 129.697 73.0958L132.153 78.5843C132.673 79.4394 132.877 80.45 132.73 81.4401C132.64 81.7055 132.491 81.947 132.294 82.1467C132.098 82.3465 131.859 82.4992 131.595 82.5936C131.195 82.7324 130.779 82.8199 130.358 82.8541C127.418 83.2076 125.613 83.3378 125.585 83.1797Z" fill="#263238"/>
<path d="M113.702 51.2067C113.47 52.016 110.576 51.8299 107.19 52.4625C103.804 53.0951 101.172 54.2021 100.679 53.5323C100.455 53.2067 100.883 52.4439 101.934 51.6067C103.342 50.5849 104.964 49.8951 106.676 49.589C108.389 49.2829 110.148 49.3684 111.823 49.8392C113.135 50.2578 113.804 50.8346 113.702 51.2067Z" fill="#263238"/>
<path d="M140.347 51.8486C139.892 52.537 137.864 51.9974 135.473 52.1184C133.082 52.2393 131.101 52.8533 130.589 52.2021C130.366 51.8858 130.645 51.2067 131.519 50.5276C132.656 49.7102 134.008 49.2475 135.407 49.1978C136.806 49.1482 138.188 49.5138 139.38 50.2486C140.236 50.8625 140.552 51.4765 140.347 51.8486Z" fill="#263238"/>
<path d="M83.912 74.4168C83.5864 74.3051 70.7955 71.4772 72.0606 84.2495C73.3258 97.0218 87.1493 92.8543 87.1493 92.4915C87.1493 92.1287 83.912 74.4168 83.912 74.4168Z" fill="#FFBE9D"/>
<path d="M81.4925 88.2962C81.4274 88.2962 81.2879 88.473 80.9251 88.6776C80.4209 88.9592 79.8267 89.0326 79.2692 88.8823C77.8645 88.5195 76.4785 86.4916 76.2273 84.2311C76.0884 83.1395 76.1932 82.0307 76.5343 80.9845C76.6177 80.5762 76.7981 80.1939 77.0604 79.8701C77.3228 79.5462 77.6592 79.2903 78.0413 79.124C78.2912 79.0317 78.5655 79.0296 78.8168 79.1179C79.0681 79.2062 79.2808 79.3794 79.4181 79.6077C79.6227 79.9519 79.5669 80.2124 79.632 80.2217C79.6971 80.231 79.8832 79.9891 79.7343 79.4682C79.6296 79.1581 79.423 78.8926 79.1483 78.7147C78.9591 78.5876 78.7466 78.4992 78.5231 78.4545C78.2996 78.4098 78.0695 78.4097 77.8459 78.4542C77.3328 78.6116 76.8686 78.8976 76.4973 79.2852C76.1261 79.6727 75.8602 80.1488 75.725 80.6682C75.2889 81.8279 75.1451 83.0771 75.3063 84.3055C75.6412 86.8729 77.1669 89.1521 79.0925 89.4962C79.4464 89.5635 79.811 89.5499 80.1589 89.4565C80.5068 89.3631 80.8292 89.1922 81.1018 88.9567C81.5018 88.6032 81.5669 88.3148 81.4925 88.2962Z" fill="#EB996E"/>
<path d="M144.433 33.1974C143.558 38.2859 133.27 42.9464 124.693 42.6952C116.814 42.4627 112.916 38.5556 107.195 35.7742C103.567 34.016 103.567 34.016 98.6459 34.8439C94.6737 35.4858 92.6086 40.1836 90.376 43.5325C94.6272 52.8349 92.9063 63.5886 91.1016 73.6353C91.0238 74.7683 90.5685 75.8426 89.8085 76.6865C88.3759 77.9517 86.0875 77.1982 84.6363 75.9051C82.3758 73.8307 81.3433 70.7608 80.6084 67.784C78.8059 61.0135 78.3757 53.9508 79.3432 47.0116C80.3212 40.0385 83.3226 33.5052 87.976 28.2206C94.0616 21.8078 102.4 18.0089 111.232 17.625C120.02 17.31 128.685 19.7706 135.995 24.6577C139.381 26.881 142.507 29.6252 144.461 33.1881" fill="#263238"/>
<path d="M127.473 89.6172L120.961 86.5846C120.604 86.3735 120.194 86.2701 119.78 86.2869C119.322 86.3901 118.92 86.6626 118.654 87.0497C117.891 87.9634 117.415 89.0822 117.286 90.2657C117.157 91.4491 117.38 92.6443 117.928 93.701C118.525 94.7303 119.462 95.5188 120.578 95.9299C121.694 96.3411 122.919 96.3489 124.04 95.9522C126.347 95.022 127.464 92.3149 127.65 89.8219L127.473 89.6172Z" fill="#EB996E"/>
<path d="M124.244 96.4358C124.244 96.4916 123.937 96.6777 123.314 96.8172C122.381 96.9846 121.421 96.9142 120.523 96.6126C119.15 96.15 117.998 95.1913 117.295 93.9241C116.85 93.1521 116.583 92.2903 116.514 91.4019C116.445 90.5135 116.575 89.6208 116.895 88.7892C117.222 87.9272 117.737 87.1487 118.402 86.51C118.725 86.2048 119.081 85.9365 119.463 85.71C119.692 85.5736 119.95 85.4939 120.216 85.4775C120.475 85.4671 120.732 85.5148 120.97 85.617C121.317 85.7921 121.656 85.9846 121.984 86.1938L122.867 86.7426L124.458 87.7287C126.384 88.9566 127.546 89.7752 127.481 89.8868C127.416 89.9985 126.133 89.4031 124.114 88.324L122.467 87.3938L121.537 86.8821C121.221 86.724 120.886 86.51 120.607 86.3984C120.492 86.3435 120.365 86.3214 120.238 86.3345C120.112 86.3476 119.991 86.3955 119.891 86.4728C119.582 86.6677 119.295 86.8954 119.035 87.1519C118.483 87.7015 118.052 88.3606 117.77 89.0868C117.5 89.7914 117.385 90.5458 117.433 91.2987C117.481 92.0516 117.691 92.7853 118.049 93.4497C118.628 94.5631 119.58 95.4385 120.737 95.9242C121.538 96.2467 122.395 96.4079 123.258 96.3986C123.872 96.4265 124.216 96.3707 124.244 96.4358Z" fill="#263238"/>
<path d="M122.191 67.0766C122.098 65.9866 121.927 64.9047 121.679 63.8393C121.219 62.0581 120.39 60.3929 119.248 58.9508C118.105 57.5087 116.674 56.3216 115.045 55.4656C113.417 54.6097 111.627 54.104 109.791 53.9809C107.955 53.8577 106.114 54.12 104.386 54.7508C103.195 55.1783 102.075 55.7836 101.065 56.5462C99.9881 57.3173 99.0453 58.2601 98.2742 59.3369C96.6162 61.5786 95.7214 64.2931 95.7214 67.0813C95.7214 69.8694 96.6162 72.584 98.2742 74.8256C99.0453 75.9024 99.9881 76.8452 101.065 77.6163C102.075 78.379 103.195 78.9843 104.386 79.4117C106.115 80.0366 107.955 80.2943 109.788 80.1685C111.622 80.0427 113.41 79.536 115.037 78.6809C116.664 77.8258 118.095 76.6409 119.239 75.2019C120.382 73.7629 121.213 72.1013 121.679 70.3232C121.926 69.2607 122.097 68.182 122.191 67.0952C122.202 67.1661 122.202 67.2383 122.191 67.3092C122.191 67.4766 122.191 67.6906 122.191 67.9417C122.199 68.2875 122.174 68.6333 122.116 68.9743C122.065 69.4446 121.981 69.9108 121.865 70.3697C121.571 71.6361 121.084 72.8501 120.423 73.9697C118.834 76.6855 116.344 78.7587 113.386 79.8294C110.427 80.9 107.187 80.9003 104.228 79.8303C102.995 79.3895 101.837 78.762 100.795 77.9698C99.6846 77.1742 98.7106 76.2034 97.9114 75.0954C96.1931 72.7732 95.2656 69.9607 95.2656 67.072C95.2656 64.1832 96.1931 61.3707 97.9114 59.0486C98.7049 57.9388 99.6761 56.9676 100.786 56.1741C101.828 55.3819 102.986 54.7545 104.218 54.3136C106.498 53.495 108.955 53.3023 111.335 53.7554C113.219 54.1157 115.003 54.8749 116.569 55.982C118.135 57.0891 119.446 58.5185 120.414 60.1742C121.075 61.2938 121.561 62.5078 121.856 63.7742C121.971 64.2331 122.055 64.6993 122.107 65.1696C122.165 65.5106 122.19 65.8564 122.182 66.2022C122.182 66.4533 122.182 66.6673 122.182 66.8347C122.197 66.9144 122.2 66.996 122.191 67.0766Z" fill="#263238"/>
<path d="M154.041 65.8214C153.949 64.7601 153.785 63.7064 153.547 62.6679C152.802 59.8543 151.131 57.3738 148.803 55.6259C147.217 54.4199 145.368 53.607 143.408 53.2538C141.158 52.8408 138.84 53.0368 136.691 53.8212C135.536 54.2393 134.448 54.8254 133.463 55.5608C132.427 56.3193 131.517 57.2359 130.766 58.2771C129.158 60.4638 128.291 63.1071 128.291 65.8214C128.291 68.5357 129.158 71.179 130.766 73.3657C131.515 74.4062 132.426 75.3201 133.463 76.0728C134.446 76.8144 135.534 77.404 136.691 77.8216C138.841 78.6017 141.158 78.7975 143.408 78.3891C145.368 78.0359 147.217 77.2229 148.803 76.0169C151.131 74.2691 152.802 71.7885 153.547 68.975C153.785 67.9365 153.949 66.8827 154.041 65.8214C154.063 66.0969 154.063 66.3738 154.041 66.6493C154.044 66.9888 154.019 67.328 153.966 67.6633C153.917 68.121 153.836 68.5748 153.724 69.0215C153.132 71.4578 151.852 73.673 150.039 75.4043C148.225 77.1355 145.953 78.3103 143.492 78.7891C141.171 79.2272 138.775 79.0377 136.552 78.2402C134.093 77.3446 131.952 75.7467 130.394 73.6448C128.72 71.3799 127.816 68.6378 127.816 65.8214C127.816 63.0051 128.72 60.263 130.394 57.998C131.952 55.8961 134.093 54.2982 136.552 53.4026C138.775 52.6051 141.171 52.4156 143.492 52.8537C145.953 53.3326 148.225 54.5073 150.039 56.2386C151.852 57.9699 153.132 60.185 153.724 62.6214C153.836 63.068 153.917 63.5218 153.966 63.9795C154.019 64.3149 154.044 64.654 154.041 64.9935C154.063 65.269 154.063 65.5459 154.041 65.8214Z" fill="#263238"/>
<path d="M128.077 62.8812C128.021 62.9277 127.714 62.6765 127.147 62.4067C126.415 62.0584 125.613 61.8833 124.803 61.8951C123.994 61.9067 123.2 62.1108 122.486 62.4905C121.928 62.7788 121.631 63.0486 121.556 62.9928C121.482 62.937 121.724 62.5835 122.282 62.1928C123.017 61.6921 123.882 61.4174 124.772 61.4025C125.661 61.3876 126.535 61.6332 127.286 62.1091C127.854 62.4812 128.077 62.8439 128.077 62.8812Z" fill="#263238"/>
<path d="M96.3077 65.1797C94.4668 66.8517 92.5218 68.4052 90.4843 69.8309C88.5353 71.3808 86.4909 72.8069 84.3633 74.1008C86.2021 72.4226 88.1506 70.8688 90.1959 69.4495C92.1392 67.8963 94.1807 66.47 96.3077 65.1797Z" fill="#263238"/>
<g opacity="0.3">
<path d="M85.2809 125.72C83.9879 138.344 88.788 151.674 98.9184 159.321C99.7091 159.925 100.704 160.521 101.644 160.177C102.271 159.873 102.771 159.36 103.058 158.725C105.895 153.824 106.959 148.095 106.072 142.502C104.472 146.725 103.095 150.874 101.477 155.284C92.6671 149.925 87.1414 138.539 85.2809 125.72Z" fill="black"/>
</g>
<path opacity="0.3" d="M119.582 154.427L127.024 151.711L128.252 164.279C128.252 164.279 136.271 149.665 139.592 143.004C142.913 136.343 141.201 124.566 141.201 124.566C141.201 124.566 142.382 134.799 134.354 147.888L128.289 157.748V147.423L119.582 154.427Z" fill="black"/>
<g opacity="0.3">
<path d="M33.1847 218.299C29.7921 216.858 26.065 216.391 22.4217 216.95C18.5393 217.267 14.825 218.673 11.7052 221.006C8.69122 223.434 6.65398 227.266 7.05398 231.118L7.42608 231.164C10.0215 224.15 15.1751 219.071 21.8263 218.429C28.4776 217.787 34.9614 220.764 39.5011 225.648C39.008 222.001 36.4591 219.852 33.1847 218.299Z" fill="black"/>
</g>
<g opacity="0.3">
<path d="M221.049 225.433C218.471 222.787 215.101 221.053 211.449 220.493C208.268 219.961 205.008 220.15 201.91 221.047C198.812 221.944 195.955 223.526 193.551 225.675L194.965 224.521C198.562 222.355 202.692 221.234 206.891 221.284C211.105 221.356 215.146 222.971 218.249 225.824C221.04 228.466 222.705 232.047 224.295 235.536C224.553 233.716 224.395 231.861 223.833 230.111C223.27 228.362 222.318 226.762 221.049 225.433Z" fill="black"/>
</g>
<path d="M173.148 167.107C173.224 166.758 173.336 166.418 173.483 166.093C173.772 165.358 174.125 164.455 174.534 163.386C175.465 161.107 176.674 157.962 177.976 154.455C179.279 150.948 180.404 147.758 181.214 145.45L182.144 142.706C182.244 142.364 182.381 142.033 182.553 141.72C182.524 142.077 182.446 142.427 182.321 142.762C182.144 143.432 181.865 144.381 181.502 145.553C180.776 147.897 179.697 151.134 178.395 154.623C177.093 158.111 175.8 161.274 174.814 163.516C174.33 164.642 173.883 165.544 173.614 166.167C173.498 166.498 173.341 166.814 173.148 167.107Z" fill="#263238"/>
<path d="M55.8724 168.018C55.7421 168.018 54.7282 163.618 53.6119 158.13C52.4956 152.641 51.6955 148.223 51.7979 148.148C51.9002 148.074 52.9328 152.548 54.0491 158.037C55.1654 163.525 56.0026 167.991 55.8724 168.018Z" fill="#263238"/>
<path d="M54.1157 223.359C54.4133 223.508 50.7109 194.373 50.7109 194.373C50.7109 194.373 53.0459 172.261 54.3575 171.237V163.433C54.3575 163.433 57.9762 161.246 58.9436 164.781C58.9436 164.781 62.153 161.991 62.6646 168.623C63.1763 175.256 63.3437 182.028 63.3437 182.028L70.4787 199.87L71.6508 200.466C71.6508 200.466 73.1858 186.512 74.0788 184.428C74.9718 182.345 75.5858 177.368 78.9626 178.121C82.3394 178.875 82.6278 181.665 82.0231 186.224C81.4185 190.782 80.6556 195.526 80.944 198.447C81.2324 201.368 82.5627 207.871 82.1534 213.024C81.7441 218.178 78.9161 223.61 75.9579 227.424C72.9997 231.238 67.3345 239.136 64.2647 241.508C63.2693 242.346 54.1157 223.359 54.1157 223.359Z" fill="#FFBE9D"/>
<path d="M57.7194 199.647C57.6729 199.233 57.6729 198.815 57.7194 198.4C57.7752 197.47 57.859 196.372 57.952 195.014C58.166 192.158 58.5008 188.214 58.8822 183.851C59.0869 181.684 59.2822 179.619 59.459 177.721C59.5651 176.847 59.5651 175.963 59.459 175.088C59.36 174.34 59.0355 173.639 58.5287 173.079C58.157 172.678 57.7065 172.358 57.2056 172.139C56.7046 171.919 56.1639 171.806 55.6171 171.805C55.2077 171.824 54.8004 171.874 54.3984 171.953C54.4898 171.889 54.5901 171.839 54.6961 171.805C54.9945 171.693 55.3082 171.627 55.6264 171.609C56.2129 171.576 56.7998 171.669 57.3472 171.882C57.8946 172.096 58.3896 172.425 58.7985 172.846C59.361 173.45 59.7218 174.214 59.8311 175.033C59.9477 175.937 59.9477 176.853 59.8311 177.758C59.6637 179.619 59.4776 181.73 59.2916 183.898C58.8915 188.251 58.5009 192.186 58.1939 195.061L57.8125 198.438C57.8162 198.843 57.785 199.247 57.7194 199.647Z" fill="#EB996E"/>
<path d="M61.5525 187.731C61.0329 188.438 60.6077 189.211 60.2874 190.028C59.72 192.088 59.3248 194.192 59.106 196.317C58.7153 198.81 58.3432 201.061 58.0455 202.689C57.9375 203.577 57.7443 204.452 57.4688 205.303C57.4723 204.408 57.5532 203.515 57.7106 202.633C57.9153 200.996 58.2408 198.735 58.6408 196.242C59.0409 193.749 59.3013 191.47 59.9897 189.907C60.2344 189.295 60.5768 188.726 61.0037 188.224C61.3107 187.852 61.5339 187.712 61.5525 187.731Z" fill="#EB996E"/>
<path d="M58.9375 164.399C59.067 164.695 59.1517 165.009 59.1887 165.33C59.3189 165.925 59.477 166.79 59.6538 167.869C60.0073 170.018 60.398 173.004 60.6492 176.325C60.9003 179.646 60.9468 182.66 60.9096 184.837C60.9096 185.925 60.8631 186.809 60.8166 187.414C60.8244 187.728 60.7868 188.041 60.705 188.344C60.5922 187.175 60.5456 186.001 60.5654 184.828C60.5189 182.651 60.4073 179.655 60.1654 176.353C59.9235 173.051 59.5886 170.065 59.3189 167.906C59.1224 166.746 58.995 165.575 58.9375 164.399Z" fill="#EB996E"/>
<path d="M79.5138 191.712C79.161 191.94 78.7578 192.078 78.3393 192.113C77.9209 192.149 77.5001 192.081 77.1138 191.917C75.7463 191.507 75.1138 190.456 75.2533 190.41C75.8938 190.816 76.5694 191.165 77.272 191.452C78.0108 191.6 78.7606 191.687 79.5138 191.712Z" fill="#EB996E"/>
<path d="M54.5104 219.731L35.6635 227.657H24.4261C24.4261 227.657 13.319 231.127 11.6073 241.545C9.89566 251.964 9.6538 257.313 14.5376 258.606C19.4214 259.899 33.217 260.039 40.0543 257.769C46.8917 255.499 64.8082 241.024 64.8082 241.024L66.5292 230.568L54.5104 219.731Z" fill="#FFBE9D"/>
<path d="M58.9287 231.247C58.9287 231.247 58.7147 231.089 58.3891 230.754C57.9405 230.268 57.5329 229.745 57.1705 229.192C55.9906 227.352 55.1026 225.34 54.5379 223.229C53.9544 221.136 53.5652 218.993 53.3751 216.829C53.2497 215.935 53.2248 215.03 53.3007 214.131C53.5023 215.003 53.6391 215.889 53.71 216.782C53.9971 218.914 54.4291 221.025 55.0031 223.098C55.5647 225.168 56.3901 227.156 57.4589 229.015C58.3054 230.42 58.9938 231.182 58.9287 231.247Z" fill="#EB996E"/>
<path d="M67.1448 234.55C67.6438 233.246 68.0024 231.893 68.2145 230.513C68.6365 227.147 67.7288 223.75 65.6843 221.043C64.5401 219.443 63.247 218.048 62.1586 216.689C61.1674 215.505 60.3124 214.213 59.6097 212.838C59.1484 211.9 58.8346 210.896 58.6795 209.861C58.6225 209.485 58.6225 209.103 58.6795 208.727C58.8976 210.104 59.3308 211.438 59.9632 212.68C60.6959 214.008 61.5658 215.255 62.5586 216.401C63.647 217.722 64.9494 219.117 66.1215 220.755C67.2617 222.29 68.0638 224.05 68.475 225.918C68.792 227.448 68.8329 229.024 68.5959 230.569C68.4396 231.6 68.152 232.606 67.7401 233.564C67.5913 233.899 67.4517 234.15 67.3587 234.318C67.2657 234.485 67.1541 234.56 67.1448 234.55Z" fill="#EB996E"/>
<path d="M38.0724 189.154C36.4005 186.442 34.8667 183.648 33.477 180.782C31.0583 176.13 29.1978 172.26 29.3095 172.195C30.9814 174.907 32.5152 177.701 33.9049 180.568C35.4396 183.357 36.8306 186.222 38.0724 189.154Z" fill="white"/>
<path d="M68.5391 155.209C69.3322 152.824 70.2799 150.494 71.3763 148.232C72.3279 145.908 73.4247 143.646 74.6601 141.46C73.8621 143.843 72.9144 146.173 71.8228 148.437C70.8736 150.762 69.7767 153.024 68.5391 155.209Z" fill="white"/>
<path d="M98.4269 177.237C96.8834 175.752 95.453 174.153 94.1477 172.455C92.725 170.857 91.4222 169.156 90.25 167.367C91.7947 168.848 93.2222 170.446 94.5198 172.148C95.9471 173.745 97.2531 175.446 98.4269 177.237Z" fill="white"/>
<path d="M91.5547 207.535C92.4986 205.835 93.5748 204.211 94.7734 202.679C95.8525 201.06 97.0628 199.533 98.392 198.112C97.4506 199.814 96.3743 201.438 95.1734 202.968C94.1002 204.591 92.8895 206.119 91.5547 207.535Z" fill="white"/>
<path d="M82.3075 250.336C81.8734 249.76 81.5081 249.136 81.2192 248.475C80.6052 247.285 79.8145 245.62 79.0145 243.75C78.2145 241.88 77.5726 240.14 77.154 238.885C76.8758 238.215 76.676 237.516 76.5586 236.801C76.9417 237.418 77.2538 238.076 77.4888 238.764L79.4889 243.554C80.261 245.331 80.9494 246.94 81.554 248.327C81.8791 248.966 82.1319 249.64 82.3075 250.336Z" fill="white"/>
<path d="M108.541 232.141C106.638 232.015 104.75 231.732 102.894 231.294C100.999 231.014 99.132 230.572 97.3125 229.973C101.088 230.38 104.822 231.105 108.475 232.141H108.541Z" fill="white"/>
<path d="M129.004 192.149C130.671 189.99 132.466 187.934 134.381 185.991C136.181 183.933 138.101 181.982 140.13 180.149C138.456 182.308 136.658 184.367 134.744 186.316C132.944 188.369 131.027 190.316 129.004 192.149Z" fill="white"/>
<path d="M149.474 245.48C149.371 245.573 146.367 242.084 142.757 237.712C139.148 233.34 136.311 229.712 136.413 229.628C136.515 229.545 139.52 233.024 143.129 237.396C146.739 241.768 149.557 245.396 149.474 245.48Z" fill="white"/>
<path d="M22.213 222.754C22.2781 222.884 19.5338 224.28 16.5384 226.577C13.543 228.875 11.4593 231.145 11.3477 231.042C11.6858 230.454 12.1125 229.92 12.6128 229.461C13.7269 228.271 14.9406 227.179 16.2408 226.196C17.5353 225.208 18.9108 224.33 20.3525 223.573C20.9295 223.211 21.5563 222.935 22.213 222.754Z" fill="white"/>
<path d="M29.8791 202.177C29.288 203.493 28.555 204.741 27.6931 205.898C26.9587 207.144 26.0882 208.305 25.0977 209.359C25.6903 208.043 26.4233 206.796 27.2837 205.638C28.0162 204.39 28.8868 203.23 29.8791 202.177Z" fill="white"/>
<path d="M47.1439 222.382C45.6544 220.014 45.0178 217.208 45.3392 214.429C45.4787 214.429 45.5252 216.289 46.0369 218.457C46.5485 220.624 47.2741 222.317 47.1439 222.382Z" fill="white"/>
<path d="M49.7061 158.269C48.5495 158.673 47.3458 158.926 46.1246 159.023C44.9235 159.275 43.694 159.366 42.4688 159.293C43.6287 158.89 44.8354 158.636 46.0595 158.539C47.2583 158.292 48.484 158.202 49.7061 158.269Z" fill="white"/>
<path d="M62.6719 135.264C60.6684 136.747 58.4792 137.96 56.1602 138.874C57.1122 138.066 58.1662 137.387 59.2951 136.855C60.3488 136.184 61.4835 135.649 62.6719 135.264Z" fill="white"/>
<path d="M99.1463 144.986C97.8318 143.649 96.6308 142.205 95.5555 140.669C94.362 139.226 93.2915 137.686 92.3555 136.064C94.8724 138.836 97.1445 141.821 99.1463 144.986Z" fill="white"/>
<path d="M145.448 168.111C142.884 165.584 140.956 162.486 139.82 159.069C139.96 159.014 140.955 161.181 142.518 163.665C144.081 166.149 145.56 168.018 145.448 168.111Z" fill="white"/>
<path d="M163.115 173.935C161.992 177.205 160.56 180.36 158.836 183.358C159.332 181.7 159.976 180.091 160.762 178.549C161.398 176.94 162.186 175.395 163.115 173.935Z" fill="white"/>
<path d="M165.595 149.814C163.904 148.172 162.331 146.412 160.888 144.548C159.32 142.789 157.875 140.924 156.562 138.967C159.818 142.372 162.836 145.996 165.595 149.814Z" fill="white"/>
<path d="M138.596 130.223C138.301 128.74 138.161 127.231 138.177 125.72C138.037 124.212 138.059 122.693 138.242 121.19C138.537 122.672 138.677 124.181 138.661 125.692C138.807 127.2 138.785 128.72 138.596 130.223Z" fill="white"/>
<path d="M160.636 129.003C158.75 129.498 156.828 129.837 154.887 130.017C152.97 130.354 151.028 130.532 149.082 130.548C150.967 130.053 152.89 129.714 154.831 129.534C156.748 129.196 158.689 129.019 160.636 129.003Z" fill="white"/>
<path d="M195.264 154.465C193.972 152.345 192.816 150.145 191.803 147.879C190.653 145.679 189.646 143.408 188.789 141.079C190.086 143.197 191.245 145.397 192.259 147.665C193.405 149.865 194.409 152.136 195.264 154.465Z" fill="white"/>
<path d="M189.473 176.465C189.862 172.912 190.565 169.4 191.575 165.972C191.463 167.757 191.192 169.528 190.766 171.265C190.494 173.034 190.061 174.775 189.473 176.465Z" fill="white"/>
<path d="M205.51 193.805C204.426 191.487 203.493 189.101 202.72 186.661C201.797 184.276 201.03 181.833 200.422 179.349C201.5 181.673 202.432 184.062 203.213 186.503C204.131 188.886 204.898 191.325 205.51 193.805Z" fill="white"/>
<path d="M203.268 203.954C201.607 203.704 200.011 203.132 198.57 202.27C197.056 201.543 195.705 200.518 194.598 199.256C194.691 199.145 196.402 200.559 198.802 201.842C201.202 203.126 203.314 203.814 203.268 203.954Z" fill="white"/>
<path d="M223.889 227.08C222.637 225.049 221.664 222.859 220.996 220.568C222.249 222.599 223.222 224.789 223.889 227.08Z" fill="white"/>
<path d="M102.225 259.341C101.828 257.999 101.585 256.616 101.499 255.22C101.264 253.841 101.183 252.44 101.257 251.043C101.682 252.393 101.942 253.789 102.03 255.201C102.252 256.569 102.318 257.958 102.225 259.341Z" fill="white"/>
<path d="M165.414 257.741C165.457 256.379 165.66 255.028 166.019 253.713C166.228 252.367 166.593 251.05 167.107 249.788C167.064 251.15 166.858 252.502 166.493 253.816C166.289 255.162 165.927 256.48 165.414 257.741Z" fill="white"/>
<path d="M177.531 73.2817L185.755 58.9187C180.683 50.7324 178.858 40.9451 180.637 31.481C182.416 22.0169 187.672 13.5609 195.37 7.77543C203.068 1.98997 212.652 -0.706305 222.238 0.216729C231.823 1.13976 240.717 5.61532 247.17 12.7634C253.622 19.9116 257.168 29.2151 257.108 38.8448C257.049 48.4745 253.39 57.7336 246.849 64.8017C240.309 71.8698 231.361 76.2355 221.765 77.0404C212.169 77.8453 202.618 75.0312 194.992 69.1514L177.531 73.2817Z" fill="#FAFAFA"/>
<path d="M177.528 73.2816L194.989 69.3002H195.165L195.054 69.1513L194.886 69.3095C197.333 71.2066 199.993 72.8113 202.812 74.0909C206.173 75.5949 209.731 76.6098 213.38 77.105C215.401 77.3872 217.443 77.4899 219.482 77.4119C220.533 77.3561 221.594 77.3282 222.673 77.2445L225.929 76.7515C235.631 74.8489 244.244 69.3201 250.013 61.2907C253.218 56.8492 255.438 51.7748 256.525 46.4067C257.631 40.7276 257.476 34.8746 256.069 29.2623C254.607 23.411 251.775 17.9908 247.808 13.448L246.217 11.634C245.697 11.048 245.083 10.5736 244.524 10.034C243.966 9.49446 243.408 8.95492 242.776 8.5084L240.915 7.13164C240.308 6.66315 239.668 6.24027 238.999 5.8665L237.045 4.67578L234.999 3.68042C234.329 3.33043 233.639 3.01981 232.934 2.75017C227.445 0.5876 221.543 -0.318315 215.659 0.0989515C210.11 0.472095 204.712 2.05995 199.845 4.7502C191.07 9.63072 184.51 17.7023 181.528 27.2901C180.333 31.3569 179.768 35.5828 179.854 39.8206C179.949 43.4977 180.575 47.1417 181.714 50.6394C182.674 53.5461 183.969 56.3309 185.575 58.9372V58.8163C180.421 68.0536 177.9 72.5653 177.5 73.2723C177.909 72.5746 180.495 68.0908 185.77 58.9279V58.8721V58.8163C184.204 56.2157 182.948 53.44 182.03 50.5464C180.898 47.0727 180.271 43.4541 180.17 39.802C180.108 35.6033 180.682 31.4195 181.872 27.3925C184.858 17.9342 191.352 9.97843 200.021 5.15951C204.84 2.47501 210.193 0.886843 215.696 0.508263C221.508 0.0986471 227.338 0.998276 232.757 3.14087C233.454 3.41046 234.134 3.72108 234.794 4.07112L236.822 5.05718L238.775 6.26651C239.424 6.63849 240.045 7.055 240.636 7.51304L242.496 8.8805C243.12 9.32702 243.641 9.88517 244.217 10.3875C244.794 10.8898 245.38 11.3922 245.892 11.9689L247.445 13.6713C251.368 18.1707 254.167 23.5362 255.613 29.3274C257.011 34.8683 257.166 40.6498 256.069 46.2579C255.006 51.5687 252.817 56.59 249.65 60.9837C243.954 68.9335 235.447 74.4179 225.854 76.3235L222.636 76.8259C221.566 76.9096 220.515 76.9468 219.473 77.0026C217.453 77.085 215.43 76.9916 213.426 76.7235C209.801 76.2546 206.262 75.2711 202.914 73.8026C200.107 72.5472 197.456 70.9675 195.017 69.0955L194.3 68.5467L194.849 69.2629L194.914 69.0769L177.528 73.2816Z" fill="#263238"/>
<path d="M228.918 37.1037C228.927 37.8356 229.152 38.5486 229.565 39.1533C229.977 39.758 230.559 40.2277 231.237 40.5036C231.915 40.7794 232.659 40.8492 233.376 40.7041C234.094 40.5591 234.753 40.2056 235.27 39.6881C235.788 39.1705 236.141 38.5118 236.286 37.7943C236.431 37.0769 236.361 36.3326 236.086 35.6546C235.81 34.9766 235.34 34.3951 234.735 33.9827C234.131 33.5703 233.418 33.3454 232.686 33.3362C232.189 33.33 231.697 33.4232 231.237 33.6103C230.777 33.7974 230.359 34.0747 230.008 34.4258C229.657 34.7769 229.379 35.1947 229.192 35.6546C229.005 36.1145 228.912 36.6073 228.918 37.1037Z" fill="#263238"/>
<path d="M213.852 37.1039C213.861 37.8378 214.087 38.5526 214.501 39.1584C214.916 39.7642 215.5 40.2338 216.181 40.5083C216.862 40.7829 217.608 40.8499 218.327 40.7012C219.046 40.5524 219.704 40.1944 220.22 39.6722C220.736 39.15 221.086 38.4869 221.225 37.7664C221.365 37.0459 221.289 36.3001 221.006 35.6229C220.723 34.9457 220.246 34.3673 219.635 33.9604C219.024 33.5536 218.307 33.3365 217.573 33.3364C217.08 33.3364 216.593 33.4341 216.138 33.624C215.684 33.8139 215.271 34.0922 214.925 34.4427C214.579 34.7931 214.306 35.2088 214.122 35.6657C213.937 36.1225 213.846 36.6114 213.852 37.1039Z" fill="#263238"/>
<path d="M198.831 35.2254C198.471 35.8637 198.308 36.594 198.362 37.3247C198.415 38.0554 198.683 38.754 199.133 39.3329C199.582 39.9118 200.192 40.3452 200.886 40.5788C201.581 40.8124 202.329 40.8358 203.036 40.6461C203.744 40.4564 204.38 40.0619 204.864 39.5123C205.349 38.9626 205.66 38.2821 205.759 37.5562C205.859 36.8303 205.741 36.0912 205.422 35.4317C205.103 34.7721 204.596 34.2214 203.966 33.8487C203.539 33.5968 203.067 33.4325 202.577 33.3654C202.086 33.2983 201.587 33.3298 201.109 33.458C200.631 33.5862 200.183 33.8086 199.792 34.1121C199.4 34.4156 199.074 34.7941 198.831 35.2254Z" fill="#263238"/>
</svg>
