<svg width="28" height="26" viewBox="0 0 28 26" fill="none" xmlns="http://www.w3.org/2000/svg">
<path d="M26.8718 4.21135L14.4103 0.0533513C14.1972 -0.0177838 13.9667 -0.0177838 13.7535 0.0533513L1.29207 4.21135C1.0853 4.28035 0.905454 4.41272 0.778018 4.58973C0.650582 4.76673 0.582015 4.97939 0.582031 5.19757V15.5926C0.582031 15.8682 0.691439 16.1326 0.886187 16.3276C1.08093 16.5225 1.34507 16.6321 1.62048 16.6321C1.8959 16.6321 2.16003 16.5225 2.35478 16.3276C2.54953 16.1326 2.65894 15.8682 2.65894 15.5926V6.63987L7.01914 8.09387C5.86069 9.96731 5.49231 12.2244 5.99488 14.3695C6.49745 16.5145 7.8299 18.3723 9.69965 19.5349C7.36313 20.4522 5.34334 22.1115 3.86614 24.3802C3.78931 24.4945 3.73595 24.623 3.70915 24.7581C3.68235 24.8932 3.68265 25.0323 3.71003 25.1673C3.73742 25.3023 3.79133 25.4305 3.86865 25.5445C3.94597 25.6585 4.04514 25.7559 4.16041 25.8312C4.27568 25.9064 4.40475 25.958 4.5401 25.9829C4.67546 26.0078 4.81441 26.0055 4.94887 25.9762C5.08334 25.9468 5.21064 25.891 5.32337 25.812C5.4361 25.733 5.53202 25.6323 5.60555 25.5159C7.56173 22.5117 10.6511 20.79 14.0819 20.79C17.5127 20.79 20.6021 22.5117 22.5583 25.5159C22.7106 25.7425 22.9459 25.9 23.2133 25.9543C23.4806 26.0086 23.7587 25.9555 23.9872 25.8063C24.2157 25.657 24.3764 25.4238 24.4345 25.157C24.4926 24.8901 24.4435 24.6111 24.2977 24.3802C22.8205 22.1115 20.7929 20.4522 18.4642 19.5349C20.3321 18.3724 21.6633 16.5158 22.1658 14.3723C22.6683 12.2288 22.3011 9.97326 21.1447 8.10037L26.8718 6.19029C27.0786 6.12133 27.2585 5.98897 27.386 5.81196C27.5134 5.63495 27.582 5.42228 27.582 5.20407C27.582 4.98586 27.5134 4.77318 27.386 4.59617C27.2585 4.41916 27.0786 4.2868 26.8718 4.21784V4.21135ZM20.3126 12.4741C20.3129 13.4601 20.0796 14.4321 19.6319 15.3105C19.1843 16.1888 18.5349 16.9483 17.7372 17.5268C16.9395 18.1052 16.0161 18.4861 15.0428 18.6382C14.0696 18.7903 13.0741 18.7092 12.1383 18.4016C11.2024 18.094 10.3527 17.5687 9.65887 16.8687C8.96508 16.1687 8.44697 15.3141 8.14704 14.3749C7.84712 13.4356 7.77392 12.4386 7.93347 11.4656C8.09302 10.4926 8.48077 9.57131 9.06489 8.77734L13.7535 10.3366C13.9667 10.4077 14.1972 10.4077 14.4103 10.3366L19.0989 8.77734C19.8879 9.84802 20.3133 11.1436 20.3126 12.4741ZM14.0819 8.26019L4.90459 5.19757L14.0819 2.13495L23.2592 5.19757L14.0819 8.26019Z" fill="#16A34A"/>
</svg>
