<svg width="84" height="51" viewBox="0 0 84 51" fill="none" xmlns="http://www.w3.org/2000/svg">
<path d="M70.7929 6.21711H83.3869V0.102051H65.358C67.5057 1.8083 69.3611 3.9441 70.7929 6.21711ZM22.7256 0.102051H16.7119V40.9268H22.7256V0.102051ZM83.3869 34.9489H70.7929C69.3611 37.2279 67.5057 39.2205 65.358 40.9268H83.2438V34.9489H83.3869ZM7.27386 0.102051H1.26023V40.9268H7.27386V0.102051ZM83.3869 23.5719V17.5941H74.9452C75.0883 18.5904 75.0883 19.5867 75.0883 20.583C75.0883 21.5793 75.0883 22.5756 74.9452 23.5719H83.3869ZM22.4392 45.9023C22.0097 45.7592 21.5801 45.6219 21.1506 45.6219H18.8597V50.3111H21.0074C21.4369 50.3111 22.0097 50.1739 22.296 50.0307C22.7256 49.8876 23.0119 49.6012 23.1491 49.1776C23.2923 48.8913 23.4355 48.4617 23.4355 47.8949C23.4355 47.4714 23.2923 47.0418 23.1491 46.6123C23.0119 46.3319 22.7256 46.1887 22.4392 45.9023ZM22.0097 48.8913C21.7233 49.1776 21.4369 49.1776 21.0074 49.1776H20.1483V46.6123H21.0074C21.4369 46.6123 21.7233 46.7555 22.0097 46.8986C22.296 47.185 22.4392 47.4714 22.4392 47.8949C22.296 48.3245 22.296 48.6049 22.0097 48.8913ZM24.8673 50.3111H26.0128V45.7592H24.7241V50.3111H24.8673ZM8.8429 47.3282H6.9875V45.6219H5.84205V50.3111H7.13068V48.4617H8.8429V50.3111H10.1315V45.7592H8.8429V47.3282ZM12.852 48.4617H14.8565V47.4714H12.852V46.7555H15.1429V45.7592H11.5634V50.3111H15.1429V49.3148H12.852V48.4617ZM0.6875 46.6123H2.11932V50.3111H3.40795V46.7555H4.83977V45.7592H0.6875V46.6123ZM58.7776 46.7555C58.9207 46.6123 59.2071 46.6123 59.4935 46.6123C59.923 46.6123 60.2094 46.7555 60.4957 47.0418V47.185L61.3548 46.4751C61.0685 46.1887 60.9253 46.0455 60.4957 45.9023C60.2094 45.7592 59.7798 45.7592 59.3503 45.7592C58.9207 45.7592 58.4912 45.9023 58.0616 46.0455C57.6321 46.1887 57.3457 46.4751 57.2026 46.8986C56.9162 47.3282 56.9162 47.6086 56.9162 48.1813C56.9162 48.6049 57.0594 49.0344 57.2026 49.458C57.4889 49.8876 57.7753 50.1739 58.0616 50.3111C58.4912 50.4543 58.9207 50.5975 59.3503 50.5975C59.7798 50.5975 60.0662 50.5975 60.4957 50.4543C60.7821 50.3111 61.0685 50.1739 61.3548 49.8876L60.4957 49.1776V49.3148C60.2094 49.6012 59.923 49.7444 59.4935 49.7444C59.2071 49.7444 59.0639 49.7444 58.7776 49.6012C58.6344 49.458 58.4912 49.3148 58.348 49.1776C58.2048 49.0344 58.2048 48.7481 58.2048 48.4617C58.2048 48.1813 58.2048 48.0381 58.348 47.7518C58.4912 47.0418 58.6344 46.8986 58.7776 46.7555ZM55.198 47.7518C54.9116 47.6086 54.6253 47.6086 54.3389 47.4714C54.0526 47.4714 53.7722 47.3282 53.629 47.3282C53.4858 47.3282 53.4858 47.185 53.4858 47.0418C53.4858 46.8986 53.4858 46.8986 53.629 46.7555C53.7722 46.6123 53.9094 46.6123 54.1957 46.6123C54.6253 46.6123 55.0548 46.7555 55.3412 46.8986H55.4844L55.9139 45.9023C55.7707 45.7592 55.4844 45.6219 55.198 45.6219C54.9116 45.6219 54.6253 45.4788 54.3389 45.4788C53.9094 45.4788 53.629 45.4788 53.3426 45.6219C53.0562 45.7592 52.7699 45.9023 52.6267 46.1887C52.4835 46.4751 52.3403 46.6123 52.3403 46.8986C52.3403 47.185 52.4835 47.4714 52.6267 47.6086C52.7699 47.7518 53.0562 47.8949 53.1994 48.0381C53.4858 48.1813 53.7722 48.1813 54.0526 48.3245C54.3389 48.3245 54.4821 48.4617 54.6253 48.4617C54.7685 48.4617 54.7685 48.6049 54.9116 48.6049L55.0548 48.7481C55.0548 48.8913 55.0548 48.8913 54.9116 49.0344C54.7685 49.1776 54.6253 49.1776 54.3389 49.1776C54.0526 49.1776 53.7722 49.1776 53.629 49.0344C53.3426 48.8913 53.1994 48.8913 52.9131 48.7481H52.7699L52.3403 49.7444C52.4835 49.8876 52.7699 50.0307 53.1994 50.1739C53.4858 50.3111 53.9094 50.3111 54.1957 50.3111C54.6253 50.3111 54.9116 50.3111 55.3412 50.1739C55.6276 50.0307 55.9139 49.8876 56.0571 49.6012C56.0571 49.458 56.0571 49.1776 56.0571 48.8913C56.0571 48.6049 55.9139 48.3245 55.7707 48.1813C55.6276 47.8949 55.4844 47.7518 55.198 47.7518ZM71.7952 45.9023C71.3656 45.7592 70.9361 45.6219 70.5065 45.6219C70.077 45.6219 69.6474 45.7592 69.2179 45.9023C68.7943 46.0455 68.5079 46.3319 68.3648 46.7555C68.0784 47.185 68.0784 47.4714 68.0784 48.0381C68.0784 48.6049 68.2216 48.8913 68.3648 49.3148C68.6511 49.7444 68.9375 50.0307 69.2179 50.1739C69.6474 50.3111 70.077 50.4543 70.5065 50.4543C70.9361 50.4543 71.3656 50.3111 71.7952 50.1739C72.2247 50.0307 72.5111 49.7444 72.6543 49.3148C72.9406 48.8913 72.9406 48.6049 72.9406 48.0381C72.9406 47.6086 72.7974 47.185 72.6543 46.7555C72.5111 46.3319 72.2247 46.0455 71.7952 45.9023ZM71.652 48.6049C71.5088 48.7481 71.3656 48.8913 71.2224 49.0344C71.0793 49.1776 70.7929 49.1776 70.5065 49.1776C70.2202 49.1776 70.077 49.1776 69.7906 49.0344C69.6474 48.8913 69.5043 48.7481 69.3611 48.6049C69.2179 48.4617 69.2179 48.1813 69.2179 47.8949C69.2179 47.6086 69.2179 47.4714 69.3611 47.185C69.5043 47.0418 69.6474 46.8986 69.7906 46.7555C69.9338 46.6123 70.2202 46.6123 70.5065 46.6123C70.7929 46.6123 70.9361 46.6123 71.2224 46.7555C71.3656 46.8986 71.5088 47.0418 71.652 47.185C71.7952 47.4714 71.7952 47.7518 71.7952 47.8949C71.7952 48.0381 71.7952 48.4617 71.652 48.6049ZM29.1628 46.7555C29.306 46.6123 29.5923 46.6123 29.8787 46.6123C30.3082 46.6123 30.5946 46.7555 31.0182 47.0418L31.8773 46.3319C31.5909 46.0455 31.3045 45.9023 31.0182 45.7592C30.7318 45.6219 30.3082 45.6219 29.8787 45.6219C29.4491 45.6219 29.0196 45.7592 28.5901 45.9023C28.1605 46.0455 27.8741 46.3319 27.731 46.7555C27.4446 47.185 27.4446 47.4714 27.4446 48.0381C27.4446 48.4617 27.5878 48.8913 27.731 49.3148C28.0173 49.7444 28.3037 50.0307 28.5901 50.1739C29.0196 50.3111 29.4491 50.4543 29.8787 50.4543C30.1651 50.4543 30.5946 50.4543 30.875 50.3111C31.1614 50.1739 31.4477 50.0307 31.7341 49.8876V47.8949H30.5946V49.1776C30.4514 49.3148 30.1651 49.3148 29.8787 49.3148C29.5923 49.3148 29.4491 49.3148 29.1628 49.1776C29.0196 49.0344 28.7332 48.8913 28.7332 48.7481C28.5901 48.6049 28.5901 48.3245 28.5901 48.0381C28.5901 47.7518 28.5901 47.6086 28.7332 47.3282C28.7332 47.0418 28.8764 46.8986 29.1628 46.7555ZM77.8028 45.9023C77.3733 45.7592 76.9437 45.6219 76.5202 45.6219C76.0906 45.6219 75.6611 45.7592 75.2315 45.9023C74.802 46.0455 74.5156 46.3319 74.3724 46.7555C74.0861 47.185 74.0861 47.4714 74.0861 48.0381C74.0861 48.6049 74.2293 48.8913 74.3724 49.3148C74.6588 49.7444 74.9452 50.0307 75.2315 50.1739C75.6611 50.3111 76.0906 50.4543 76.5202 50.4543C76.9437 50.4543 77.3733 50.3111 77.8028 50.1739C78.2324 50.0307 78.5187 49.7444 78.6619 49.3148C78.9483 48.8913 78.9483 48.6049 78.9483 48.0381C78.9483 47.4714 78.8051 47.185 78.6619 46.7555C78.5187 46.3319 78.2324 46.0455 77.8028 45.9023ZM77.6597 48.6049C77.5165 48.7481 77.3733 48.8913 77.2301 49.0344C77.0869 49.1776 76.8065 49.1776 76.5202 49.1776C76.2338 49.1776 76.0906 49.1776 75.8043 49.0344C75.6611 48.8913 75.5179 48.7481 75.3747 48.6049C75.2315 48.4617 75.2315 48.1813 75.2315 47.8949C75.2315 47.6086 75.2315 47.4714 75.3747 47.185C75.5179 47.0418 75.6611 46.8986 75.8043 46.7555C75.9474 46.6123 76.2338 46.6123 76.5202 46.6123C76.8065 46.6123 76.9437 46.6123 77.2301 46.7555C77.3733 46.8986 77.5165 47.0418 77.6597 47.185C77.8028 47.3282 77.8028 47.6086 77.8028 47.8949C77.8028 48.1813 77.8028 48.4617 77.6597 48.6049ZM81.5256 49.1776V45.6219H80.2369V50.3111H83.6733V49.3148H81.5256V49.1776ZM65.5011 47.3282H63.6398V45.6219H62.3511V50.3111H63.6398V48.4617H65.5011V50.3111H66.7898V45.7592H65.5011V47.3282ZM35.3136 46.6123H36.7455V50.3111H38.0341V46.7555H39.4599V45.7592H35.4568V46.6123H35.3136ZM46.8994 45.6219H45.6168V50.3111H49.0472V49.3148H46.7562V45.6219H46.8994ZM33.0227 50.3111H34.3114V45.7592H33.0227V50.3111ZM41.6077 45.6219L39.4599 50.3111H40.7486L41.1781 49.3148H43.1827L43.6122 50.3111H44.9009L42.7531 45.7592H41.6077V45.6219ZM41.6077 48.3245L42.1804 47.0418L42.7531 48.3245H41.6077Z" fill="#010101"/>
</svg>
