<svg width="27" height="26" viewBox="0 0 27 26" fill="none" xmlns="http://www.w3.org/2000/svg">
<path d="M25.7498 5.28616L25.1676 4.956C25.2359 4.60076 25.2359 4.23609 25.1676 3.88085L25.7498 3.5507C25.9795 3.42049 26.1471 3.20601 26.2157 2.95443C26.2844 2.70286 26.2485 2.43479 26.1159 2.20921C25.9834 1.98363 25.765 1.81902 25.5089 1.75158C25.2528 1.68414 24.9799 1.7194 24.7503 1.8496L24.1668 2.18098C23.8876 1.94565 23.5665 1.76299 23.2197 1.64218V0.981873C23.2197 0.721464 23.1144 0.471721 22.927 0.287584C22.7395 0.103447 22.4853 0 22.2202 0C21.9551 0 21.7008 0.103447 21.5134 0.287584C21.3259 0.471721 21.2206 0.721464 21.2206 0.981873V1.64218C20.8738 1.76299 20.5528 1.94565 20.2735 2.18098L19.69 1.8496C19.5763 1.78513 19.4508 1.74329 19.3207 1.72647C19.1905 1.70965 19.0582 1.71818 18.9314 1.75158C18.8046 1.78497 18.6857 1.84257 18.5816 1.92109C18.4774 1.99961 18.39 2.09752 18.3244 2.20921C18.2588 2.32091 18.2162 2.44421 18.1991 2.57207C18.1819 2.69994 18.1906 2.82986 18.2246 2.95443C18.2586 3.079 18.3173 3.19577 18.3972 3.29808C18.4771 3.40039 18.5768 3.48623 18.6905 3.5507L19.2727 3.88085C19.2044 4.23609 19.2044 4.60076 19.2727 4.956L18.6905 5.28616C18.4998 5.39418 18.3508 5.561 18.2665 5.76074C18.1822 5.96048 18.1674 6.18195 18.2244 6.3908C18.2813 6.59965 18.4069 6.78419 18.5815 6.91578C18.7562 7.04737 18.9702 7.11866 19.1903 7.11858C19.3658 7.11911 19.5383 7.07379 19.69 6.98725L20.2735 6.65587C20.5528 6.8912 20.8738 7.07387 21.2206 7.19467V7.85498C21.2206 8.11539 21.3259 8.36513 21.5134 8.54927C21.7008 8.73341 21.9551 8.83685 22.2202 8.83685C22.4853 8.83685 22.7395 8.73341 22.927 8.54927C23.1144 8.36513 23.2197 8.11539 23.2197 7.85498V7.19467C23.5665 7.07387 23.8876 6.8912 24.1668 6.65587L24.7503 6.98725C24.9021 7.07379 25.0746 7.11911 25.2501 7.11858C25.4702 7.11866 25.6841 7.04737 25.8588 6.91578C26.0334 6.78419 26.159 6.59965 26.2159 6.3908C26.2729 6.18195 26.2581 5.96048 26.1738 5.76074C26.0895 5.561 25.9405 5.39418 25.7498 5.28616ZM21.2206 4.41843C21.2206 4.22423 21.2792 4.0344 21.3891 3.87293C21.4989 3.71146 21.655 3.58561 21.8377 3.51129C22.0203 3.43698 22.2213 3.41753 22.4152 3.45542C22.6091 3.49331 22.7872 3.58682 22.927 3.72414C23.0667 3.86146 23.1619 4.03641 23.2005 4.22687C23.2391 4.41734 23.2193 4.61476 23.1436 4.79417C23.068 4.97359 22.9399 5.12693 22.7755 5.23482C22.6111 5.34271 22.4179 5.4003 22.2202 5.4003C21.9551 5.4003 21.7008 5.29685 21.5134 5.11272C21.3259 4.92858 21.2206 4.67884 21.2206 4.41843ZM24.8877 10.3232C24.6263 10.3661 24.3929 10.5094 24.239 10.7214C24.085 10.9333 24.0231 11.1967 24.0668 11.4535C24.1683 12.0489 24.2193 12.6516 24.2193 13.2553C24.2216 15.8992 23.2324 18.4513 21.4405 20.4242C20.3257 18.8373 18.7582 17.6097 16.935 16.8956C17.9144 16.1379 18.629 15.0992 18.9795 13.9241C19.3301 12.7489 19.2991 11.4956 18.8909 10.3386C18.4827 9.18149 17.7177 8.17812 16.7021 7.46799C15.6865 6.75785 14.4708 6.37625 13.2242 6.37625C11.9776 6.37625 10.7619 6.75785 9.74634 7.46799C8.73073 8.17812 7.96564 9.18149 7.55747 10.3386C7.1493 11.4956 7.11833 12.7489 7.46887 13.9241C7.81941 15.0992 8.53403 16.1379 9.51336 16.8956C7.6902 17.6097 6.12267 18.8373 5.00788 20.4242C3.60191 18.8679 2.68351 16.9457 2.36312 14.8889C2.04273 12.8321 2.33398 10.7282 3.20186 8.83006C4.06974 6.93197 5.47729 5.32054 7.25527 4.18953C9.03326 3.05853 11.106 2.4561 13.2242 2.45468C13.8388 2.45458 14.4523 2.50467 15.0584 2.60442C15.3186 2.64476 15.5846 2.58251 15.7984 2.43123C16.0122 2.27994 16.1565 2.05184 16.2 1.79656C16.2435 1.54128 16.1826 1.27945 16.0306 1.06805C15.8785 0.856638 15.6477 0.712747 15.3882 0.667673C12.6737 0.219099 9.88437 0.629546 7.42284 1.83975C4.96131 3.04996 2.955 4.9973 1.6936 7.40061C0.432188 9.80393 -0.0190483 12.5389 0.405039 15.2105C0.829127 17.8822 2.10659 20.3523 4.05299 22.2643C5.99939 24.1762 8.51401 25.4311 11.2338 25.8477C13.9535 26.2643 16.7377 25.821 19.1843 24.5819C21.6309 23.3428 23.6133 21.372 24.8453 18.954C26.0773 16.536 26.4951 13.796 26.0385 11.1295C25.9947 10.8727 25.8489 10.6435 25.6331 10.4922C25.4173 10.341 25.1492 10.2802 24.8877 10.3232ZM9.22599 12.2734C9.22599 11.4966 9.46048 10.7373 9.89981 10.0914C10.3391 9.44554 10.9636 8.94214 11.6941 8.64488C12.4247 8.34762 13.2286 8.26984 14.0042 8.42138C14.7798 8.57293 15.4922 8.94698 16.0514 9.49625C16.6105 10.0455 16.9913 10.7453 17.1456 11.5072C17.2999 12.2691 17.2207 13.0587 16.9181 13.7764C16.6154 14.494 16.103 15.1074 15.4455 15.539C14.788 15.9706 14.015 16.2009 13.2242 16.2009C12.1638 16.2009 11.1468 15.7871 10.397 15.0506C9.64723 14.314 9.22599 13.315 9.22599 12.2734ZM6.48722 21.7853C7.21031 20.6744 8.20645 19.7602 9.38382 19.1269C10.5612 18.4937 11.8819 18.1618 13.2242 18.1618C14.5665 18.1618 15.8872 18.4937 17.0646 19.1269C18.2419 19.7602 19.2381 20.6744 19.9612 21.7853C18.035 23.2569 15.6644 24.0558 13.2242 24.0558C10.784 24.0558 8.41343 23.2569 6.48722 21.7853Z" fill="#16A34A"/>
</svg>
