<svg width="36" height="26" viewBox="0 0 36 26" fill="none" xmlns="http://www.w3.org/2000/svg">
<path d="M20.0769 23.2632V8.21053C20.0792 6.03366 20.9552 3.94659 22.5127 2.40731C24.0702 0.868025 26.182 0.00226402 28.3846 0C28.7518 0 29.104 0.144173 29.3637 0.400801C29.6234 0.657429 29.7692 1.00549 29.7692 1.36842C29.7692 1.73135 29.6234 2.07941 29.3637 2.33604C29.104 2.59267 28.7518 2.73684 28.3846 2.73684C26.9157 2.73684 25.507 3.31353 24.4683 4.34005C23.4297 5.36656 22.8462 6.75882 22.8462 8.21053V9.57895H33.2308C33.9652 9.57895 34.6696 9.86729 35.1889 10.3806C35.7082 10.8938 36 11.5899 36 12.3158V23.2632C36 23.989 35.7082 24.6851 35.1889 25.1984C34.6696 25.7117 33.9652 26 33.2308 26H22.8462C22.1117 26 21.4073 25.7117 20.888 25.1984C20.3687 24.6851 20.0769 23.989 20.0769 23.2632ZM2.76923 26H13.1538C13.8883 26 14.5927 25.7117 15.112 25.1984C15.6313 24.6851 15.9231 23.989 15.9231 23.2632V12.3158C15.9231 11.5899 15.6313 10.8938 15.112 10.3806C14.5927 9.86729 13.8883 9.57895 13.1538 9.57895H2.76923V8.21053C2.76923 6.75882 3.35275 5.36656 4.39141 4.34005C5.43007 3.31353 6.8388 2.73684 8.30769 2.73684C8.67492 2.73684 9.0271 2.59267 9.28676 2.33604C9.54643 2.07941 9.69231 1.73135 9.69231 1.36842C9.69231 1.00549 9.54643 0.657429 9.28676 0.400801C9.0271 0.144173 8.67492 0 8.30769 0C6.10506 0.00226402 3.99329 0.868025 2.43579 2.40731C0.878296 3.94659 0.00228882 6.03366 0 8.21053V23.2632C0 23.989 0.291759 24.6851 0.811089 25.1984C1.33042 25.7117 2.03479 26 2.76923 26Z" fill="#149443"/>
</svg>
