<svg width="33" height="32" viewBox="0 0 33 32" fill="none" xmlns="http://www.w3.org/2000/svg">
<path d="M13.3693 25.4652C12.6476 27.0429 10.2395 30.7231 3.47264 30.7231C3.13315 30.7231 2.80755 30.5883 2.56749 30.3482C2.32743 30.1081 2.19256 29.7825 2.19256 29.443C2.19256 22.6762 5.87279 20.2681 7.45049 19.5464C7.60347 19.4767 7.76868 19.4377 7.93671 19.4318C8.10473 19.4259 8.27228 19.4531 8.42978 19.512C8.58727 19.5708 8.73164 19.6601 8.85463 19.7747C8.97762 19.8893 9.07683 20.0271 9.1466 20.1801C9.21636 20.333 9.25531 20.4982 9.26122 20.6663C9.26713 20.8343 9.23989 21.0018 9.18105 21.1593C9.12221 21.3168 9.03293 21.4612 8.9183 21.5842C8.80367 21.7072 8.66593 21.8064 8.51296 21.8762C7.48409 22.345 5.21355 23.8539 4.81353 28.1022C9.06179 27.7021 10.5739 25.4316 11.0395 24.4027C11.1093 24.2497 11.2085 24.112 11.3315 23.9974C11.4545 23.8827 11.5988 23.7935 11.7563 23.7346C11.9138 23.6758 12.0814 23.6485 12.2494 23.6545C12.4174 23.6604 12.5826 23.6993 12.7356 23.7691C12.8886 23.8388 13.0263 23.9381 13.141 24.061C13.2556 24.184 13.3449 24.3284 13.4037 24.4859C13.4626 24.6434 13.4898 24.8109 13.4839 24.979C13.478 25.147 13.439 25.3122 13.3693 25.4652ZM32.8905 2.42374C32.8525 1.79959 32.5875 1.21089 32.1453 0.768732C31.7032 0.326572 31.1145 0.0615229 30.4903 0.0235926C28.4774 -0.0964149 23.3331 0.0875964 19.0656 4.35506L11.1531 12.274C11.0343 12.393 10.8932 12.4875 10.7378 12.552C10.5825 12.6165 10.416 12.6497 10.2478 12.6499C9.90811 12.6502 9.58222 12.5155 9.34181 12.2756C9.1014 12.0356 8.96617 11.7099 8.96587 11.3702C8.96557 11.0305 9.10023 10.7047 9.34021 10.4642L13.5901 6.21278C13.679 6.12328 13.7396 6.00948 13.764 5.88568C13.7885 5.76187 13.7759 5.6336 13.7276 5.51698C13.6794 5.40036 13.5978 5.3006 13.493 5.23023C13.3883 5.15987 13.265 5.12204 13.1388 5.12151H8.96899C8.63175 5.11973 8.29752 5.18502 7.98574 5.31358C7.67396 5.44214 7.39085 5.6314 7.15287 5.87036L1.66453 11.3619C1.32795 11.6983 1.09176 12.1218 0.982487 12.5849C0.873211 13.048 0.895166 13.5324 1.04589 13.9838C1.19661 14.4351 1.47014 14.8355 1.83577 15.14C2.2014 15.4446 2.64467 15.6412 3.11582 15.7078L9.2714 16.567L16.3454 23.6411L17.2047 29.7999C17.2708 30.271 17.4673 30.7143 17.7721 31.0797C18.077 31.445 18.4779 31.7178 18.9296 31.8672C19.1927 31.9551 19.4683 31.9999 19.7457 32C20.0815 32.0006 20.4142 31.9348 20.7245 31.8063C21.0349 31.6777 21.3167 31.4891 21.5538 31.2512L27.0453 25.7628C27.2836 25.5243 27.4723 25.2411 27.6009 24.9294C27.7294 24.6178 27.7951 24.2838 27.7942 23.9467V19.7768C27.7939 19.6503 27.7562 19.5267 27.6858 19.4216C27.6153 19.3165 27.5153 19.2346 27.3984 19.1863C27.2814 19.138 27.1528 19.1255 27.0287 19.1503C26.9046 19.1751 26.7907 19.2361 26.7013 19.3256L22.4498 23.5755C22.3255 23.6999 22.1768 23.7974 22.0131 23.8619C21.8494 23.9263 21.6742 23.9563 21.4983 23.95C21.3225 23.9437 21.1499 23.9012 20.9912 23.8252C20.8325 23.7492 20.6912 23.6413 20.5761 23.5083C20.3661 23.2543 20.2594 22.9305 20.2772 22.6015C20.295 22.2724 20.436 21.962 20.6721 21.7322L28.5558 13.8485C32.8265 9.57939 33.0105 4.43507 32.8905 2.42054V2.42374Z" fill="#16A34A"/>
</svg>
