<svg width="187" height="55" viewBox="0 0 187 55" fill="none" xmlns="http://www.w3.org/2000/svg">
<path d="M26.4687 3.4517C26.4301 3.46698 26.3906 3.48004 26.3506 3.49081C25.818 3.55475 25.818 3.55475 25.5916 3.07107C25.4607 2.79199 25.4607 2.79274 25.1402 2.81832C24.8799 2.83863 24.6197 2.8612 24.3609 2.87098C24.3233 2.86672 24.2852 2.87 24.2489 2.88065C24.2126 2.89129 24.1787 2.90908 24.1494 2.93297C24.12 2.95687 24.0957 2.98637 24.0779 3.01977C24.0601 3.05317 24.0492 3.08979 24.0457 3.12748C24.0036 3.3056 23.9522 3.48138 23.8915 3.65406L23.2461 3.70294C23.2777 3.58409 23.2972 3.49909 23.3213 3.41634C23.6132 2.47254 23.9058 1.52874 24.1992 0.584942C24.2699 0.352501 24.2744 0.345723 24.5121 0.338953C25.0424 0.323908 24.9048 0.223861 25.1477 0.71507C25.5404 1.51244 25.9218 2.31658 26.3084 3.11696C26.3581 3.22077 26.4055 3.32608 26.4634 3.45095M24.6911 1.13783L24.6159 1.14459C24.5061 1.53199 24.3947 1.9179 24.2699 2.35344L25.2124 2.29025C25.0266 1.87276 24.8687 1.50041 24.6859 1.13783" fill="black"/>
<path d="M28.0756 2.43616C28.0718 2.19604 28.1392 1.96018 28.2695 1.7584C28.3997 1.55663 28.5868 1.398 28.8072 1.30258C29.0276 1.20717 29.2713 1.17925 29.5075 1.22236C29.7438 1.26547 29.9619 1.37768 30.1344 1.54478C30.3069 1.71189 30.4259 1.92639 30.4765 2.16115C30.527 2.39591 30.5068 2.6404 30.4184 2.86368C30.33 3.08697 30.1774 3.27901 29.9798 3.41554C29.7823 3.55207 29.5486 3.62695 29.3085 3.6307C29.1466 3.64385 28.9837 3.62228 28.8307 3.56743C28.6777 3.51259 28.5382 3.42572 28.4215 3.31265C28.3048 3.19958 28.2136 3.06289 28.154 2.91174C28.0943 2.76059 28.0676 2.59845 28.0756 2.43616ZM29.9028 2.3677L29.8772 2.36319C29.8802 2.30957 29.8802 2.25582 29.8772 2.20221C29.8689 2.0649 29.8122 1.935 29.717 1.83564C29.6219 1.73628 29.4946 1.6739 29.3578 1.65963C29.221 1.64537 29.0835 1.68013 28.97 1.75773C28.8564 1.83532 28.774 1.95071 28.7376 2.08335C28.6653 2.28782 28.6585 2.50971 28.718 2.71824C28.7482 2.83627 28.815 2.94164 28.909 3.01913C29.003 3.09662 29.1192 3.1422 29.2408 3.14927C29.3624 3.15854 29.4837 3.12774 29.5861 3.06159C29.6885 2.99544 29.7665 2.89757 29.808 2.78293C29.8503 2.64713 29.8822 2.50832 29.9035 2.3677" fill="black"/>
<path d="M31.5125 3.91424C31.3184 3.86986 31.1477 3.83225 30.9453 3.78711C31.1228 3.01758 31.2966 2.27212 31.4719 1.50183L31.9841 1.60564C31.9773 1.70968 31.9708 1.81373 31.9646 1.91781C32.0571 1.87493 32.1301 1.83657 32.2068 1.80498C32.3587 1.73584 32.5263 1.70819 32.6924 1.72484C32.8585 1.74149 33.0172 1.80185 33.1524 1.89977C33.2366 1.95249 33.3053 2.02667 33.3515 2.11471C33.3976 2.20274 33.4195 2.30147 33.4149 2.40076C33.4129 2.52711 33.3993 2.65301 33.3743 2.77687C33.2788 3.21526 33.1785 3.65258 33.0734 4.08876C33.0621 4.13991 33.038 4.18805 33.0109 4.26704C32.8282 4.22341 32.6514 4.1828 32.4528 4.13691C32.5355 3.77208 32.6153 3.43282 32.6897 3.09281C32.7285 2.93607 32.7589 2.77737 32.7808 2.61739C32.8078 2.35261 32.7258 2.21721 32.5227 2.14875C32.4208 2.11137 32.3093 2.10953 32.2062 2.14353C32.1031 2.17753 32.0145 2.24537 31.9548 2.33605C31.8982 2.42757 31.8568 2.52767 31.8322 2.63244C31.7389 2.99728 31.6547 3.36437 31.5659 3.72995C31.5539 3.7811 31.5343 3.8315 31.5072 3.91725" fill="black"/>
<path d="M26.9036 0.239624H27.4738C27.5136 0.778976 27.4738 1.31306 27.4738 1.84564C27.4738 2.37822 27.458 2.91983 27.4497 3.47648H26.8569C26.8449 2.40003 26.9111 1.33788 26.9043 0.241874" fill="black"/>
<path d="M46.285 28.4627C45.8942 33.344 43.6823 37.8998 40.0883 41.2259C36.4943 44.5519 31.781 46.4049 26.8841 46.4171C21.9872 46.4292 17.2648 44.5995 13.6544 41.2913C10.0439 37.9831 7.80946 33.4382 7.39453 28.559C7.79269 30.8426 8.98635 32.9115 10.764 34.3992C12.5417 35.8869 14.7886 36.6973 17.1066 36.6869C19.1173 36.6839 21.0775 36.0572 22.717 34.8931C24.3564 33.729 25.5942 32.0849 26.2598 30.1876C26.1394 30.1123 26.0138 30.0318 25.8837 29.9536C24.8096 29.3164 23.9263 28.4025 23.3261 27.3072C22.9447 26.6202 22.7315 25.8525 22.704 25.0671C22.6725 24.18 22.903 23.3033 23.3667 22.5464C23.6221 22.1342 23.9093 21.7426 24.2258 21.3751C24.8655 20.667 25.4171 19.884 25.8686 19.0432C26.2386 18.3309 26.4527 17.5481 26.4967 16.7466C26.5066 16.18 26.4492 15.6141 26.326 15.0609C26.2508 14.6848 26.1928 14.3011 26.1304 13.9197C26.125 13.8401 26.125 13.7602 26.1304 13.6805C26.204 13.7122 26.2754 13.7489 26.344 13.7904C28.1353 14.999 29.5858 16.6478 30.5566 18.5783C31.1989 19.9023 31.5029 21.365 31.4413 22.8353C31.3797 24.3056 30.9545 25.7377 30.2038 27.0034C29.7078 27.7667 29.0877 28.4417 28.3691 29.0005C28.1314 29.1924 27.8959 29.3879 27.662 29.5843C27.5867 29.6475 27.522 29.7234 27.4498 29.7904C27.3956 29.8375 27.3588 29.9014 27.3451 29.9718C27.3315 30.0423 27.3419 30.1154 27.3746 30.1793C27.5903 30.7813 27.8645 31.3608 28.193 31.9094C28.9013 33.1224 29.8673 34.1651 31.0226 34.964C32.178 35.7628 33.4947 36.2983 34.8797 36.5326C37.04 36.9258 39.2698 36.5786 41.2083 35.5471C43.1468 34.5156 44.6805 32.8602 45.5614 30.8488C45.892 30.0844 46.1335 29.2845 46.2812 28.4649" fill="black"/>
<path d="M5.08942 34.1556C5.02623 33.9367 4.96756 33.7313 4.90362 33.5139C4.93701 33.4855 4.97302 33.4603 5.01118 33.4387C5.27294 33.3441 5.49217 33.1588 5.62918 32.9165C5.76619 32.6742 5.81194 32.3909 5.75815 32.1178C5.73233 31.7852 5.64296 31.4606 5.49487 31.1617C5.38773 30.9307 5.19642 30.7494 4.96004 30.6547C4.86299 30.6113 4.7575 30.5902 4.65124 30.5927C4.54498 30.5953 4.44063 30.6215 4.34579 30.6695C4.25096 30.7175 4.16802 30.7861 4.10303 30.8702C4.03804 30.9543 3.99262 31.0518 3.97009 31.1557C3.91013 31.4821 3.87393 31.8125 3.86177 32.1441C3.83469 32.5375 3.83168 32.934 3.80159 33.3274C3.78481 33.497 3.7513 33.6646 3.70155 33.8276C3.63375 34.0641 3.5107 34.2811 3.34255 34.4606C3.17441 34.6402 2.96598 34.7772 2.73446 34.8604C2.50295 34.9436 2.25498 34.9705 2.01101 34.939C1.76703 34.9075 1.53404 34.8184 1.33126 34.6791C0.973598 34.4475 0.698431 34.1086 0.545174 33.711C0.267248 33.0814 0.188501 32.3819 0.319502 31.7063C0.385443 31.3639 0.545631 31.0466 0.782049 30.7903C1.01847 30.5339 1.32174 30.3486 1.65773 30.2553C1.70034 30.2464 1.74362 30.2411 1.78711 30.2395L1.9857 30.8804C1.94307 30.908 1.89886 30.9331 1.85331 30.9556C1.60642 31.0459 1.39152 31.2068 1.23531 31.4182C1.0791 31.6297 0.988481 31.8824 0.974699 32.1449C0.933166 32.4483 0.952906 32.7569 1.03276 33.0525C1.11261 33.3481 1.25094 33.6248 1.43958 33.866C1.52841 33.9861 1.64637 34.0815 1.78233 34.1434C1.91828 34.2052 2.06775 34.2314 2.21664 34.2195C2.36677 34.2193 2.51333 34.1737 2.63709 34.0888C2.76086 34.0038 2.85606 33.8834 2.91019 33.7434C2.98989 33.5344 3.04051 33.3154 3.06064 33.0927C3.09675 32.6993 3.09148 32.3021 3.12232 31.9079C3.13601 31.5945 3.17729 31.2828 3.24569 30.9766C3.30357 30.6768 3.46169 30.4056 3.69407 30.2076C3.92646 30.0095 4.21929 29.8963 4.52449 29.8867C4.79981 29.8618 5.07663 29.9139 5.32408 30.0372C5.57152 30.1604 5.77988 30.35 5.9259 30.5847C6.16609 30.9448 6.3238 31.3535 6.38777 31.7815C6.45247 32.1268 6.45247 32.4811 6.38777 32.8264C6.33085 33.1523 6.17667 33.4534 5.94548 33.6901C5.7143 33.9268 5.41692 34.088 5.09243 34.1526" fill="black"/>
<path d="M7.15182 38.8239L6.75088 39.1609L6.7599 39.2166C7.00771 39.208 7.25405 39.258 7.47888 39.3626C7.70371 39.4671 7.90066 39.6233 8.05374 39.8184C8.22751 40.0067 8.33799 40.2447 8.36969 40.499C8.40139 40.7533 8.35273 41.0111 8.23052 41.2363C8.34711 41.2506 8.43889 41.2649 8.53142 41.2709C8.78889 41.2837 9.03883 41.3621 9.2575 41.4986C9.47618 41.6351 9.65633 41.8253 9.78087 42.051C9.9298 42.269 9.9976 42.5323 9.97244 42.7951C9.94729 43.0578 9.83079 43.3035 9.64322 43.4893C9.55949 43.5827 9.46815 43.669 9.37015 43.7473C8.61792 44.3365 7.8672 44.9235 7.11797 45.5083C7.08262 45.5353 7.04274 45.5572 6.9773 45.6038L6.55755 45.0772C6.64105 45.008 6.708 44.9479 6.7757 44.8937C7.38426 44.4168 7.99432 43.9429 8.60138 43.4645C8.75899 43.3449 8.90804 43.2144 9.04744 43.074C9.1582 42.9723 9.23044 42.8354 9.25196 42.6866C9.27348 42.5378 9.24296 42.3861 9.16555 42.2571C9.05389 42.0182 8.85299 41.8326 8.60601 41.7402C8.35903 41.6478 8.08567 41.656 7.84462 41.7629C7.68164 41.8376 7.52749 41.9302 7.38501 42.039C6.79977 42.4903 6.2213 42.9417 5.63982 43.393C5.5646 43.4524 5.48486 43.5081 5.39159 43.578L4.9741 43.0417C5.05835 42.9665 5.12455 42.9093 5.1915 42.8559C5.82112 42.3617 6.45374 41.8727 7.0796 41.3747C7.24292 41.2486 7.39155 41.1046 7.52267 40.9452C7.61649 40.8338 7.66936 40.6937 7.6725 40.5481C7.67565 40.4025 7.62888 40.2602 7.53997 40.1448C7.41251 39.9294 7.20923 39.7693 6.96993 39.6958C6.73062 39.6223 6.47251 39.6408 6.24612 39.7477C6.01191 39.8608 5.7905 39.9988 5.58567 40.1591C5.06889 40.548 4.56338 40.9528 4.05261 41.3507C3.97739 41.4109 3.89766 41.4665 3.80212 41.5365L3.37109 40.9949L6.76592 38.3395L7.15257 38.8179" fill="black"/>
<path d="M15.8777 10.8853L16.2809 11.4043L15.8295 11.7932C16.5736 12.7488 17.3181 13.7041 18.0629 14.6592C17.9992 14.6823 17.9338 14.7004 17.8673 14.7134C17.7605 14.7254 17.6507 14.7134 17.5446 14.7344C17.4359 14.7569 17.3228 14.7443 17.2217 14.6987C17.1205 14.653 17.0363 14.5765 16.9812 14.4802C16.4802 13.8107 15.9581 13.1578 15.4429 12.4988C15.3834 12.4236 15.3195 12.3483 15.245 12.2551C14.9244 12.4441 14.638 12.686 14.398 12.9704L16.9436 15.6108C16.6427 15.6619 16.3892 15.7153 16.1364 15.7417C16.0748 15.7484 15.9935 15.6792 15.9401 15.6258C15.649 15.3325 15.3639 15.0323 15.0765 14.7367C15.0148 14.6735 14.9494 14.6148 14.8584 14.5283L14.1001 15.3656L14.7019 15.926C14.673 15.9765 14.6298 16.0172 14.5777 16.0431C14.5256 16.0689 14.467 16.0787 14.4093 16.0712C14.0858 16.0712 13.7624 16.0636 13.4389 16.0576C13.3622 16.0678 13.2843 16.0521 13.2175 16.0132C13.1506 15.9743 13.0986 15.9142 13.0696 15.8425C13.0386 15.7673 13.0313 15.6845 13.0486 15.605C13.0659 15.5256 13.1071 15.4533 13.1666 15.3979C13.5134 15.0218 13.8527 14.6374 14.1942 14.256C14.2543 14.1891 14.31 14.1206 14.3897 14.0303L13.8549 13.4782C13.2117 14.0303 12.7266 14.6916 12.1315 15.2903L11.6328 14.8488L12.9312 13.4052C13.0064 13.4594 13.0696 13.5023 13.1313 13.5444L13.1478 13.5241L13.0282 13.3488C13.8947 12.4362 14.8497 11.612 15.8792 10.8883" fill="black"/>
<path d="M32.5507 9.22583L32.6101 9.79829C32.3964 9.81935 32.2107 9.83589 32.0264 9.85845C31.9464 9.86827 31.8677 9.8867 31.7916 9.91338C31.719 9.92676 31.6546 9.96822 31.6124 10.0288C31.5701 10.0893 31.5535 10.1641 31.566 10.2368C31.5637 10.3107 31.5893 10.3828 31.6379 10.4386C31.6864 10.4944 31.7542 10.5298 31.8278 10.5377C32.0142 10.5506 32.2015 10.5443 32.3867 10.5189C32.4923 10.4986 32.596 10.4691 32.6966 10.4309L32.671 10.7318C32.9351 10.2124 33.1371 9.6638 33.2728 9.0972L31.2493 8.53152L31.4253 7.9019C31.5058 7.91393 31.566 7.91619 31.6231 7.93123C32.0469 8.05159 32.4702 8.1727 32.8929 8.29456L33.934 8.5902C33.8596 8.48301 33.7792 8.38004 33.6933 8.28178C33.307 7.8654 32.8396 7.53258 32.3197 7.30387C32.2424 7.28319 32.1749 7.23566 32.1294 7.16977C32.084 7.10389 32.0634 7.02396 32.0715 6.94431C32.0715 6.76678 32.0452 6.59 32.0264 6.3538C32.5864 6.52458 33.0836 6.85692 33.4556 7.30914C33.4542 7.25282 33.4482 7.19671 33.4375 7.14139C33.3623 6.91572 33.2811 6.68253 33.1961 6.45536C33.1777 6.37161 33.1399 6.29336 33.0857 6.22697C33.0314 6.16057 32.9623 6.10789 32.8839 6.07322C32.8578 6.05865 32.8353 6.03836 32.8181 6.01387C32.8009 5.98939 32.7894 5.96133 32.7846 5.9318C32.756 5.70162 32.7425 5.46993 32.7184 5.18408C32.9771 5.28567 33.2284 5.40505 33.4706 5.54139C33.5883 5.63858 33.6727 5.77006 33.7121 5.9175C33.8422 6.3192 33.9618 6.72391 34.0574 7.13463C34.1619 7.57995 34.2454 8.03128 34.3131 8.48413C34.3455 8.69626 34.4079 8.84219 34.6351 8.87754C34.6879 8.89697 34.7383 8.9222 34.7855 8.95277L34.5711 9.56734L34.0062 9.38756C33.7678 9.95023 33.5842 10.5294 33.3721 11.0974C33.16 11.6653 32.9599 12.2257 32.7349 12.8403C32.5574 12.5943 32.4047 12.3988 32.2723 12.1874C32.2474 12.1138 32.2498 12.0337 32.2791 11.9617C32.3498 11.736 32.4333 11.5066 32.5251 11.2411H32.1881C32.0483 11.2465 31.9088 11.2242 31.7777 11.1756C31.6465 11.1269 31.5263 11.0528 31.4239 10.9575C31.3215 10.8623 31.2389 10.7477 31.1809 10.6204C31.123 10.4931 31.0907 10.3556 31.0861 10.2158C31.0714 10.0716 31.097 9.92625 31.1601 9.79582C31.2232 9.66539 31.3212 9.55505 31.4434 9.47708C31.7689 9.26955 32.1576 9.18425 32.5401 9.23636" fill="black"/>
<path d="M25.0286 8.08761C25.0089 8.01332 24.9933 7.93798 24.982 7.86193C24.9707 7.72879 24.9685 7.59489 24.9609 7.43842C25.2551 7.41285 25.5304 7.38878 25.8049 7.36321C26.0306 7.34591 26.2563 7.32784 26.482 7.31506C26.5511 7.29804 26.6231 7.29596 26.6932 7.30893C26.7632 7.3219 26.8297 7.34963 26.8882 7.39028C26.931 7.4279 27.0273 7.40909 27.0973 7.40909H28.6416C28.7003 7.62579 28.708 7.85313 28.6642 8.07332L28.1015 8.09964C28.0947 8.20796 28.0842 8.30275 28.0842 8.40054C28.0842 9.40702 28.0842 10.4143 28.0797 11.4215C28.0732 11.4953 28.0872 11.5694 28.1202 11.6358C28.1531 11.7021 28.2036 11.7581 28.2662 11.7976C28.4266 11.9237 28.5424 12.0979 28.5965 12.2946C28.6507 12.4913 28.6404 12.7002 28.5671 12.8906C28.513 13.0736 28.3993 13.2332 28.244 13.3441C28.0888 13.4551 27.901 13.5109 27.7104 13.5029C27.3743 13.5216 27.0432 13.4161 26.7798 13.2066C26.6389 13.0956 26.508 12.9725 26.3887 12.8387C26.0873 12.4761 25.8154 12.09 25.5755 11.684C25.6663 11.646 25.7681 11.644 25.8603 11.6784C25.9525 11.7128 26.0282 11.7809 26.072 11.8691C26.2658 12.1947 26.5153 12.4837 26.8092 12.7229C26.9403 12.8473 27.1017 12.9353 27.2773 12.9781C27.453 13.0208 27.6368 13.0169 27.8104 12.9666C27.9079 12.945 27.9954 12.8918 28.0594 12.8151C28.1234 12.7385 28.1601 12.6428 28.1639 12.5431C28.1741 12.4803 28.167 12.416 28.1433 12.357C28.1196 12.298 28.0802 12.2466 28.0294 12.2083C27.9786 12.1701 27.9183 12.1464 27.8551 12.1399C27.7918 12.1334 27.728 12.1444 27.6705 12.1715C27.5576 12.2259 27.4528 12.2958 27.3591 12.3791C27.2945 12.4389 27.2349 12.5038 27.1808 12.5732L26.8347 12.0714C26.9171 11.9144 27.0454 11.7863 27.2026 11.7043C27.3598 11.6223 27.5382 11.5903 27.7141 11.6126C27.6923 11.4787 27.5907 11.4433 27.5148 11.3997C27.4558 11.3675 27.4079 11.3182 27.3775 11.2584C27.347 11.1985 27.3353 11.1308 27.344 11.0642C27.3523 10.6332 27.344 10.2014 27.344 9.7696C27.344 9.67406 27.3365 9.57702 27.3297 9.44538C26.907 9.48074 26.5023 9.5018 26.1088 9.5507C26.0616 9.55828 26.0164 9.57555 25.9761 9.60143C25.9358 9.6273 25.9013 9.66123 25.8748 9.70106C25.8482 9.74089 25.8302 9.78579 25.8218 9.83292C25.8134 9.88005 25.8148 9.92841 25.826 9.97496C25.8496 10.1073 25.8916 10.2357 25.9509 10.3563C26.115 10.6874 26.3363 10.9868 26.6046 11.241C26.6625 11.2966 26.7272 11.3448 26.8159 11.42L26.5527 11.6156C26.4989 11.581 26.4485 11.5415 26.4022 11.4975C26.1465 11.1966 25.8757 10.9055 25.6432 10.588C25.4022 10.2693 25.2758 9.87868 25.2844 9.47923C25.2801 9.38443 25.2952 9.28974 25.3288 9.201C25.3625 9.11226 25.4139 9.03134 25.48 8.96321C25.5543 8.88738 25.6492 8.83505 25.753 8.81275C26.2345 8.7616 26.7174 8.73076 27.2282 8.69014C27.25 8.84962 27.271 8.98652 27.2898 9.12568C27.3583 8.78896 27.3621 8.4423 27.3011 8.10415L27.0446 8.08911C26.992 8.08535 26.9213 8.10115 26.8867 8.07332C26.7257 7.94243 26.5466 7.99809 26.3714 8.00787C25.9953 8.03269 25.6191 8.06278 25.243 8.08835C25.1731 8.09362 25.1039 8.08835 25.0271 8.08835" fill="black"/>
<path d="M35.1118 48.9197C34.8725 48.2156 34.6551 47.5739 34.4272 46.906C34.6529 46.8307 34.8545 46.7555 35.0802 46.6803C35.7301 48.5609 36.3717 50.4287 37.0239 52.3221L36.4282 52.5274L36.2386 52.0761C36.1927 52.1558 36.1634 52.2032 36.1378 52.2536C36.0018 52.5387 35.7818 52.7753 35.5073 52.9317C35.2329 53.0881 34.9171 53.1568 34.6025 53.1284C34.3059 53.1019 34.0195 53.0065 33.7663 52.8498C33.5131 52.6931 33.2999 52.4794 33.1439 52.2258C32.7529 51.6476 32.5675 50.9548 32.6173 50.2587C32.633 49.9937 32.7126 49.7365 32.8493 49.509C32.9859 49.2814 33.1756 49.0903 33.4021 48.952C33.6286 48.8136 33.8852 48.7322 34.15 48.7145C34.4149 48.6968 34.6801 48.7435 34.9229 48.8505C34.9613 48.8715 35.0049 48.8813 35.1102 48.9257M33.2996 50.5054C33.3402 51.0474 33.5289 51.5678 33.845 52.0099C33.9439 52.1556 34.0739 52.2776 34.2255 52.3672C34.3772 52.4568 34.5467 52.5118 34.7221 52.5282C34.8798 52.5405 35.0383 52.5184 35.1866 52.4634C35.3349 52.4084 35.4695 52.3219 35.5811 52.2098C35.6927 52.0977 35.7786 51.9627 35.8329 51.8142C35.8872 51.6656 35.9086 51.507 35.8956 51.3494C35.8746 50.7422 35.6574 50.1581 35.2765 49.6847C35.1331 49.4979 34.9344 49.361 34.7088 49.2935C34.4831 49.226 34.242 49.2313 34.0195 49.3086C33.7851 49.4018 33.5877 49.5693 33.4576 49.7855C33.3276 50.0017 33.2721 50.2546 33.2996 50.5054Z" fill="black"/>
<path d="M31.2234 47.7936L31.3739 48.5797C31.1445 48.6278 30.9436 48.6677 30.7315 48.7113C30.6976 48.6624 30.6638 48.6165 30.6089 48.5391C30.5923 48.5662 30.5774 48.5943 30.5645 48.6233L29.7024 51.062L28.6824 53.9604C28.5944 54.2109 28.5929 54.2109 28.3213 54.2192C28.1859 54.2237 28.0528 54.2267 27.9174 54.229C27.891 54.229 27.864 54.2229 27.8008 54.2162C26.9733 52.2859 26.1421 50.3391 25.2891 48.3487L26.1075 48.3111L28.1731 53.5203C28.2048 53.4705 28.2325 53.4181 28.2559 53.3639L29.8829 48.3954C29.9522 48.1817 29.9582 48.1787 30.1838 48.1697C30.2982 48.1629 30.4095 48.1599 30.5359 48.1539L30.584 47.9155L31.2234 47.7981" fill="black"/>
<path d="M45.083 47.343C44.998 47.4183 44.9393 47.4724 44.8791 47.5228C44.7685 47.6146 44.658 47.7019 44.5354 47.8011L44.1134 47.5273C44.0035 47.6026 44.0208 47.7357 43.99 47.8388C43.9077 48.1342 43.7659 48.4097 43.5733 48.6484C43.3807 48.887 43.1413 49.0838 42.8699 49.2266C42.6437 49.3622 42.3802 49.422 42.1177 49.3974C41.9364 49.3771 41.762 49.3161 41.6077 49.2188C41.4534 49.1215 41.3231 48.9905 41.2266 48.8357C41.1301 48.6809 41.0699 48.5062 41.0506 48.3249C41.0313 48.1435 41.0533 47.96 41.1149 47.7884C41.2135 47.5268 41.3643 47.288 41.558 47.0865C41.8589 46.7541 42.1598 46.4198 42.4607 46.0838C42.5338 45.9911 42.6021 45.8947 42.6653 45.7949C42.5457 45.6663 42.4396 45.5377 42.3163 45.4241C42.2401 45.3528 42.1462 45.3031 42.0443 45.2802C41.9425 45.2574 41.8364 45.2621 41.7371 45.2939C41.3001 45.42 40.9299 45.7122 40.7057 46.1079C40.6184 46.2786 40.6009 46.4766 40.6568 46.66C40.6772 46.7548 40.7117 46.8481 40.7524 46.9812C40.5711 47.0895 40.3853 47.2069 40.1844 47.3242C40.069 47.152 39.9966 46.9546 39.9732 46.7486C39.9497 46.5426 39.976 46.334 40.0498 46.1402C40.2078 45.7718 40.4445 45.4425 40.7434 45.1754C41.0423 44.9084 41.3961 44.71 41.7799 44.5944C41.9528 44.5385 42.1381 44.5337 42.3136 44.5803C42.4892 44.627 42.6476 44.7233 42.7699 44.8577C42.9224 45.0099 43.0656 45.1711 43.1986 45.3406C43.4394 45.6317 43.6673 45.9326 43.9125 46.2192C44.2186 46.6717 44.6167 47.0547 45.0807 47.343M43.0143 46.247C42.8315 46.4847 42.6781 46.6984 42.5133 46.894C42.3486 47.0895 42.1583 47.2994 41.9868 47.5018C41.9406 47.5568 41.8988 47.6154 41.8619 47.677C41.7806 47.7916 41.7387 47.9294 41.7425 48.0698C41.7463 48.2102 41.7956 48.3456 41.883 48.4556C41.9719 48.5699 42.0951 48.6528 42.2346 48.6919C42.374 48.731 42.5224 48.7244 42.6578 48.673C42.9167 48.5676 43.1412 48.3921 43.3059 48.1662C43.4707 47.9403 43.5692 47.673 43.5905 47.3942C43.5533 46.9519 43.3485 46.5404 43.0181 46.244" fill="black"/>
<path d="M18.9571 49.875L18.359 49.6057C18.459 49.3585 18.6298 49.1462 18.8499 48.9957C19.0701 48.8451 19.3298 48.763 19.5965 48.7594C20.2116 48.7298 20.8208 48.8908 21.3409 49.2205C21.5554 49.3335 21.7228 49.5188 21.8135 49.7436C21.9041 49.9684 21.912 50.2181 21.8359 50.4482C21.6892 51.0395 21.5086 51.6247 21.3507 52.2144C21.2755 52.4995 21.2002 52.7876 21.1536 53.0795C21.1373 53.2651 21.1356 53.4518 21.1483 53.6377C20.9918 53.5955 20.864 53.5624 20.7368 53.5263C20.4397 53.4413 20.4292 53.4255 20.4465 53.1149C20.4465 53.063 20.4548 53.0111 20.4608 52.9471C20.3359 52.899 20.2426 52.978 20.1501 53.0118C19.8453 53.1244 19.5197 53.1693 19.1959 53.1433C18.872 53.1173 18.5577 53.0211 18.2748 52.8614C18.1363 52.7947 18.0124 52.7012 17.9103 52.5862C17.8082 52.4713 17.7299 52.3372 17.6801 52.1918C17.6302 52.0464 17.6096 51.8926 17.6197 51.7392C17.6297 51.5858 17.6701 51.4359 17.7384 51.2982C17.8296 51.0856 17.9815 50.9046 18.1752 50.778C18.3688 50.6514 18.5956 50.5848 18.8269 50.5866C19.1315 50.5882 19.4356 50.6108 19.7371 50.6543C20.0854 50.6874 20.4322 50.7333 20.7812 50.7634C21.0114 50.7822 21.0302 50.7634 21.0934 50.5287C21.1323 50.4367 21.1521 50.3377 21.1515 50.2378C21.1509 50.1379 21.1299 50.0392 21.0898 49.9476C21.0498 49.8561 20.9915 49.7737 20.9185 49.7055C20.8455 49.6372 20.7594 49.5846 20.6654 49.5508C20.4279 49.4462 20.1782 49.3719 19.9222 49.3296C19.7792 49.3037 19.6318 49.3181 19.4965 49.3713C19.3613 49.4244 19.2435 49.5142 19.1564 49.6305C19.0932 49.7057 19.033 49.781 18.9571 49.8743M20.8549 51.3336C20.8141 51.3207 20.7723 51.3106 20.7301 51.3035C20.3284 51.2711 19.9259 51.2365 19.5265 51.2087C19.3478 51.1908 19.1681 51.1853 18.9887 51.1922C18.8525 51.1956 18.7213 51.2441 18.6156 51.33C18.5099 51.4158 18.4355 51.5343 18.4042 51.6668C18.3623 51.7966 18.364 51.9365 18.409 52.0652C18.4539 52.1939 18.5397 52.3044 18.6532 52.3799C18.8167 52.4892 18.9999 52.5658 19.1925 52.6056C19.4318 52.6764 19.6869 52.6738 19.9247 52.598C20.1624 52.5222 20.372 52.3768 20.5262 52.1806C20.694 51.923 20.8072 51.6337 20.8587 51.3306" fill="black"/>
<path d="M10.7788 48.9723L10.2424 48.5022L10.4463 48.002L10.1123 47.9689C9.77486 47.9412 9.44851 47.8354 9.15906 47.6598C8.8696 47.4842 8.62499 47.2436 8.44459 46.9571C8.33928 46.7993 8.27357 46.6185 8.25303 46.43C8.23249 46.2414 8.25773 46.0507 8.3266 45.8739C8.39548 45.6972 8.50597 45.5397 8.64868 45.4148C8.7914 45.2898 8.96214 45.2012 9.14642 45.1563C9.46369 45.0752 9.7998 45.1154 10.089 45.2691C10.3049 45.3774 10.5065 45.5121 10.7141 45.6377C11.0293 45.8272 11.3392 46.0266 11.6596 46.2071C11.8688 46.3245 11.8921 46.3102 12.0418 46.1319C12.1177 46.0632 12.1786 45.9796 12.2206 45.8863C12.2626 45.7929 12.2849 45.6919 12.2861 45.5895C12.2872 45.4872 12.2671 45.3857 12.2272 45.2915C12.1872 45.1972 12.1282 45.1123 12.0538 45.0419C11.899 44.8682 11.7246 44.7129 11.534 44.5793C11.4017 44.4757 11.2408 44.4152 11.073 44.4061C10.9053 44.3969 10.7387 44.4395 10.596 44.5282C10.5343 44.562 10.4711 44.5936 10.3891 44.6357C10.2454 44.4695 10.1055 44.3108 9.95206 44.1347C10.1116 43.9841 10.3061 43.8756 10.5181 43.8191C10.7301 43.7626 10.9529 43.7599 11.1662 43.8113C11.5227 43.9082 11.8565 44.0747 12.1484 44.3011C12.4402 44.5275 12.6845 44.8095 12.867 45.1307C12.9886 45.3182 13.044 45.541 13.0242 45.7637C13.0044 45.9863 12.9107 46.1959 12.7579 46.3591C12.4028 46.7984 12.0267 47.2226 11.6596 47.6529C11.6303 47.6868 11.5995 47.7191 11.5709 47.7537C11.2264 48.1027 10.9568 48.5184 10.7788 48.9753M11.5069 46.751C11.44 46.7059 11.4129 46.6855 11.3836 46.6698C11.0247 46.4674 10.6659 46.2651 10.3064 46.068C10.1691 45.9829 10.0261 45.9074 9.87835 45.8423C9.79799 45.8068 9.71128 45.788 9.62345 45.787C9.53563 45.7859 9.4485 45.8027 9.36732 45.8362C9.28614 45.8697 9.21259 45.9193 9.15109 45.982C9.0896 46.0448 9.04143 46.1193 9.00951 46.2011C8.963 46.319 8.94949 46.4473 8.97043 46.5723C8.99137 46.6973 9.04597 46.8142 9.12837 46.9105C9.31222 47.155 9.56543 47.3384 9.85503 47.437C10.0644 47.5224 10.2945 47.5436 10.516 47.4981C10.7375 47.4526 10.9405 47.3423 11.0992 47.1813C11.2331 47.0504 11.3557 46.909 11.5069 46.7472" fill="black"/>
<path d="M49.7003 35.6157C49.604 35.8128 49.5122 36.0046 49.4129 36.207C49.1613 36.0936 48.9499 35.9069 48.8061 35.6714C48.6624 35.4358 48.5931 35.1624 48.6073 34.8868C48.6139 34.3262 48.7736 33.7782 49.0691 33.3018C49.1867 33.0594 49.3916 32.8703 49.6428 32.7726C49.8939 32.675 50.1727 32.6759 50.4232 32.7753C50.9407 32.9257 51.4492 33.1017 51.9645 33.2589C52.4624 33.4657 52.9968 33.5701 53.5359 33.5659C53.4705 33.7712 53.4141 33.9487 53.3591 34.1278C53.3487 34.1674 53.3239 34.2018 53.2896 34.2243C53.2553 34.2468 53.2139 34.2558 53.1734 34.2496C53.0583 34.2451 52.9432 34.2376 52.7889 34.2293C52.822 34.3542 52.8469 34.4625 52.8807 34.5686C52.9743 34.8604 53.0066 35.1684 52.9755 35.4732C52.9445 35.7781 52.8507 36.0732 52.7002 36.3401C52.5884 36.5838 52.3964 36.7818 52.1564 36.9012C51.9163 37.0205 51.6425 37.054 51.3808 36.9961C51.1083 36.9442 50.8626 36.7986 50.6864 36.5845C50.5101 36.3704 50.4143 36.1014 50.4157 35.8241C50.4212 35.5286 50.4481 35.234 50.4961 34.9424C50.5428 34.5663 50.6067 34.1955 50.6511 33.8224C50.6782 33.5967 50.6571 33.5786 50.4518 33.5117C50.3573 33.4668 50.2545 33.4421 50.15 33.4391C50.0455 33.4361 49.9414 33.455 49.8446 33.4945C49.7478 33.534 49.6602 33.5933 49.5876 33.6685C49.5149 33.7437 49.4588 33.8333 49.4227 33.9315C49.3098 34.1847 49.2299 34.4514 49.185 34.7251C49.1663 34.8461 49.1791 34.9699 49.2222 35.0845C49.2653 35.1992 49.3372 35.3008 49.431 35.3795L49.6988 35.6187M51.2032 33.7991C51.1679 34.1451 51.137 34.4761 51.0994 34.8033C51.0708 35.0433 51.0242 35.2817 51.0046 35.5224C50.9841 35.6848 51.0242 35.849 51.1174 35.9836C51.2106 36.1181 51.3502 36.2135 51.5094 36.2513C51.6589 36.2889 51.8167 36.2743 51.9567 36.21C52.0968 36.1457 52.2107 36.0356 52.2797 35.8978C52.3829 35.7236 52.4505 35.5306 52.4788 35.3301C52.5071 35.1296 52.4954 34.9255 52.4444 34.7296C52.3608 34.4642 52.1961 34.2317 51.9734 34.0647C51.7508 33.8978 51.4814 33.8049 51.2032 33.7991Z" fill="black"/>
<path d="M50.4522 40.8768C50.3408 41.0814 50.2408 41.2604 50.1227 41.4748C48.3723 40.5135 46.6459 39.5491 44.8984 38.581C45.0188 38.3673 45.1241 38.183 45.2407 37.9709L47.101 38.9977C47.0799 38.86 47.0716 38.7826 47.0566 38.7051C46.998 38.3669 47.0385 38.0191 47.1732 37.7034C47.3079 37.3878 47.531 37.1178 47.8156 36.9261C47.9505 36.8355 48.104 36.7763 48.2648 36.753C48.4256 36.7297 48.5896 36.7429 48.7446 36.7914C48.9512 36.852 49.1508 36.9339 49.3404 37.0359C50.1219 37.4601 50.8983 37.8949 51.6723 38.326C51.7107 38.3478 51.7475 38.3741 51.8077 38.4155L51.4827 39.009C51.3819 38.9594 51.3029 38.9225 51.2255 38.8804C50.5266 38.4937 49.8293 38.1033 49.1267 37.7197C48.9865 37.6395 48.8379 37.575 48.6837 37.5271C48.5285 37.4758 48.3612 37.4746 48.2054 37.5238C48.0496 37.5729 47.9132 37.6699 47.8156 37.8009C47.7106 37.9161 47.6311 38.0521 47.5823 38.2002C47.5336 38.3482 47.5166 38.5048 47.5326 38.6599C47.5486 38.8149 47.5971 38.9648 47.6751 39.0998C47.753 39.2347 47.8586 39.3517 47.9848 39.443C48.3956 39.7296 48.8462 39.9606 49.2817 40.2111C49.6157 40.4029 49.9587 40.5872 50.2942 40.773C50.3401 40.7986 50.3822 40.8317 50.4492 40.8768" fill="black"/>
<path d="M42.2609 19.4509C42.142 19.5088 42.0555 19.5562 41.966 19.5946C41.7704 19.6803 41.629 19.5908 41.6215 19.3757C41.6163 19.3218 41.6212 19.2675 41.6358 19.2154C41.7185 18.9401 41.8027 18.6648 41.8975 18.394C41.9274 18.3195 41.9746 18.2533 42.0352 18.2007C42.2233 18.0299 42.3444 18.0502 42.4798 18.2654C42.5076 18.309 42.5414 18.3496 42.5911 18.4158L43.5005 17.9133C43.3392 17.5811 43.1518 17.2622 42.9401 16.9595C41.896 17.6117 40.879 18.2451 39.8334 18.8988C39.8199 18.8313 39.8116 18.7629 39.8086 18.6941C39.8131 18.5512 39.8387 18.4075 39.8319 18.2654C39.8241 18.1901 39.8399 18.1143 39.8771 18.0483C39.9143 17.9824 39.971 17.9297 40.0395 17.8975C40.7827 17.4462 41.5184 16.9791 42.2571 16.5164C42.3391 16.4645 42.4203 16.4096 42.5272 16.3389C42.4482 16.1885 42.3767 16.0553 42.2834 15.8876L42.8431 15.5355C43.5523 16.5927 44.201 17.6892 44.7861 18.8198L44.2174 19.1365L43.8669 18.5467L42.9311 19.0657L43.4163 19.9617L42.7626 20.3303C42.5926 20.0346 42.4346 19.7556 42.2609 19.4509Z" fill="black"/>
<path d="M16.1579 10.6047L17.1606 10.0465C17.4893 9.86374 17.8173 9.67944 18.1656 9.48612C18.1246 9.44207 18.0787 9.40294 18.0287 9.36952C17.7496 9.24766 17.4728 9.11828 17.1854 9.01673C17.0465 8.96206 16.8969 8.94039 16.7482 8.95344C16.5995 8.96649 16.4559 9.01391 16.3286 9.09195C16.2572 9.1472 16.1671 9.17272 16.0773 9.16319C15.9874 9.15366 15.9047 9.10982 15.8465 9.0408C15.707 8.9219 15.5613 8.81041 15.4102 8.70681C15.6012 8.56049 15.8214 8.45695 16.0559 8.40322C16.2904 8.34949 16.5338 8.34682 16.7694 8.39538C17.3356 8.57235 17.8783 8.81683 18.386 9.12355C18.4455 9.1802 18.525 9.21104 18.6071 9.20935C18.6893 9.20765 18.7674 9.17356 18.8245 9.11451L19.1585 9.70352L18.562 10.0578L19.1916 11.214L18.6613 11.5074C18.5447 11.5736 18.4251 11.636 18.31 11.706C18.2457 11.7382 18.1891 11.7839 18.1441 11.84C18.099 11.8961 18.0666 11.9613 18.0491 12.031C18.0315 12.1008 18.0292 12.1735 18.0423 12.2442C18.0554 12.315 18.0836 12.3821 18.125 12.4409C18.181 12.5226 18.2537 12.5915 18.3384 12.6429C18.4231 12.6943 18.5177 12.7271 18.6161 12.7392C18.7144 12.7512 18.8142 12.7422 18.9087 12.7126C19.0033 12.6831 19.0905 12.6338 19.1646 12.568C19.1465 12.5424 19.1322 12.5124 19.1104 12.4868C19.0354 12.4214 18.9861 12.3315 18.9712 12.2331C18.9563 12.1348 18.9768 12.0343 19.0292 11.9497C19.0781 11.8527 19.1559 11.7733 19.2518 11.7222C19.3476 11.6712 19.457 11.6511 19.5647 11.6646C19.6357 11.6733 19.7022 11.7038 19.7551 11.7519C19.9574 11.9835 20.1583 12.2227 20.0447 12.5695C20.0407 12.6018 20.0407 12.6343 20.0447 12.6666C20.295 12.7548 20.5198 12.9034 20.6991 13.0991C20.5532 13.1826 20.4178 13.2601 20.2989 13.33C20.1169 13.2247 19.9567 13.1307 19.7949 13.0397C19.7566 13.0167 19.7128 13.0045 19.6682 13.0045C19.6235 13.0045 19.5797 13.0167 19.5414 13.0397C19.2083 13.2115 18.8218 13.2489 18.4619 13.1441C18.102 13.0392 17.7961 12.8002 17.6074 12.4763C17.5076 12.3066 17.4384 12.1207 17.4028 11.9271C17.3684 11.7896 17.3852 11.6443 17.4501 11.5183C17.515 11.3923 17.6236 11.2943 17.7556 11.2426C17.9121 11.1538 18.0678 11.0658 18.2235 10.9755C18.2385 10.9673 18.2483 10.95 18.2867 10.9063L17.9926 10.3632L16.4881 11.1907C16.376 10.9921 16.2745 10.8078 16.1601 10.6032" fill="black"/>
<path d="M3.67386 39.2979C3.27636 39.2943 2.89345 39.1477 2.59515 38.8849C2.15135 38.5211 1.87021 37.9959 1.81358 37.4248C1.77068 37.1153 1.81076 36.8 1.92972 36.5111C2.04867 36.2222 2.24223 35.97 2.4906 35.7804C2.97827 35.376 3.57425 35.124 4.20418 35.0561C4.6014 35.0118 5.00169 35.1064 5.33705 35.3238C5.67926 35.5509 5.95 35.8704 6.11778 36.2453C6.28556 36.6201 6.3435 37.0349 6.28486 37.4414C6.22576 37.7984 6.06155 38.1297 5.81321 38.393C5.23391 38.944 4.47355 39.265 3.6746 39.2956M4.37794 35.7549C3.76498 35.8027 3.18977 36.0698 2.75764 36.5071C2.58825 36.6817 2.47471 36.9029 2.43149 37.1423C2.38828 37.3817 2.41735 37.6285 2.515 37.8514C2.61265 38.0742 2.77445 38.2629 2.97977 38.3934C3.18509 38.5239 3.42463 38.5902 3.66783 38.584C3.98366 38.5779 4.29512 38.5091 4.58421 38.3818C4.87331 38.2545 5.13431 38.0711 5.35209 37.8423C5.53004 37.6729 5.64937 37.4512 5.69279 37.2093C5.73621 36.9675 5.70145 36.7181 5.59356 36.4973C5.49449 36.2619 5.32367 36.0636 5.10542 35.9309C4.88716 35.7981 4.63259 35.7376 4.37794 35.7579" fill="black"/>
<path d="M10.3979 18.0254L10.1083 18.4504C9.92417 18.3372 9.73962 18.2246 9.55469 18.1126C10.1372 17.0279 10.817 15.9984 11.5857 15.0367L12.1123 15.4129L11.7768 15.9123L14.7361 18.0713C14.4938 18.1903 14.2386 18.2812 13.9756 18.3421C13.9003 18.3586 13.7928 18.2879 13.7175 18.233C13.0172 17.7297 12.3214 17.222 11.6233 16.7157C11.5376 16.6541 11.4488 16.5931 11.3442 16.5209C11.1235 16.7856 10.9332 17.0742 10.7771 17.3815L13.9056 19.262C13.6785 19.4138 13.4318 19.5338 13.1722 19.6186C13.1112 19.6419 13.0052 19.5765 12.9322 19.5321C12.1995 19.0958 11.4684 18.6542 10.7379 18.2164C10.6319 18.1517 10.5228 18.0931 10.401 18.0224" fill="black"/>
<path d="M35.9805 48.1569L36.6379 47.8049L39.3354 50.2692C39.3448 50.2341 39.3498 50.198 39.3505 50.1616C39.2136 49.265 39.0762 48.3688 38.9383 47.4731C38.9044 47.2475 38.8826 47.0271 38.8442 46.8067C38.8294 46.7594 38.8332 46.7083 38.8547 46.6638C38.8762 46.6192 38.9139 46.5845 38.9601 46.5667C39.1105 46.4915 39.261 46.4163 39.437 46.3237C39.4972 46.7563 39.5536 47.155 39.6055 47.5529C39.7642 48.7459 39.9259 49.9382 40.0741 51.1335C40.1218 51.4802 40.1444 51.8299 40.1418 52.1799C40.1466 52.4214 40.069 52.6573 39.9218 52.8488C39.7745 53.0402 39.5663 53.1757 39.3317 53.233C39.1353 53.2872 39.115 53.2819 38.9962 53.1149C38.921 53.0051 38.8457 52.8937 38.7585 52.7628L39.0361 52.6447C39.2011 52.5925 39.342 52.483 39.4334 52.3359C39.5247 52.1889 39.5604 52.014 39.534 51.8429V51.8158C39.5398 51.6383 39.5031 51.4619 39.4271 51.3014C39.3511 51.1409 39.238 51.0008 39.097 50.8928C38.1063 50.0653 37.1412 49.195 36.173 48.3397C36.1144 48.2886 36.0587 48.2329 35.982 48.1584" fill="black"/>
<path d="M15.222 46.7276C15.4672 46.8578 15.6733 46.9646 15.8854 47.0797L15.3514 50.6987L18.0669 48.2404L18.6529 48.5488C18.6187 48.6046 18.5789 48.6568 18.5341 48.7045C17.2563 49.8354 15.9757 50.9637 14.6924 52.0896C14.4882 52.2665 14.2604 52.4141 14.0154 52.5281C13.8259 52.6153 13.6143 52.6429 13.4088 52.6072C13.2032 52.5715 13.0134 52.4741 12.8645 52.328C12.8184 52.2994 12.7847 52.2546 12.7699 52.2024C12.7552 52.1502 12.7605 52.0944 12.7847 52.0459C12.8427 51.9075 12.8976 51.7668 12.963 51.6051C13.0691 51.6803 13.1548 51.7382 13.2444 51.7916C13.3841 51.8934 13.5553 51.9424 13.7276 51.93C13.9 51.9176 14.0624 51.8446 14.1862 51.724C14.3325 51.6237 14.4545 51.4921 14.5434 51.3387C14.6323 51.1852 14.6858 51.0138 14.6999 50.8371C14.821 49.6335 14.9933 48.4299 15.146 47.2263C15.1656 47.0759 15.1896 46.9255 15.2212 46.7246" fill="black"/>
<path d="M37.6787 11.153C37.8066 11.0424 37.9352 10.9333 38.0864 10.8047C38.1353 10.8431 38.2293 10.9115 38.3204 10.9822C38.6671 11.253 39.0117 11.5253 39.36 11.7954C39.4427 11.8593 39.5187 11.9195 39.448 12.0429C39.4916 12.018 39.536 11.9917 39.6059 11.9533L41.2548 13.4894L40.8103 13.9814C40.1142 13.3002 39.3739 12.6657 38.5942 12.082L36.3337 14.9728C36.2397 14.684 36.1524 14.4462 36.0915 14.2115C36.0892 14.1337 36.116 14.0578 36.1667 13.9987C36.2999 13.8106 36.4451 13.6301 36.606 13.421L36.4187 13.3766C36.2523 13.3304 36.0992 13.2451 35.9725 13.1278C35.8457 13.0104 35.7488 12.8645 35.6899 12.7021C35.631 12.5397 35.6118 12.3655 35.6339 12.1942C35.656 12.0228 35.7188 11.8593 35.8169 11.7171C35.9159 11.5705 36.059 11.4591 36.2255 11.3993C36.3921 11.3396 36.5733 11.3344 36.7429 11.3847C37.2259 11.4975 37.2778 11.569 37.2402 12.0549C37.2357 12.1068 37.2229 12.1565 37.2093 12.2279C37.1164 12.1857 37.0206 12.15 36.9227 12.1211C36.7327 12.0729 36.5389 12.0409 36.3435 12.0256C36.2372 12.0311 36.1353 12.0701 36.0524 12.1369C36.0194 12.157 35.9921 12.1853 35.9732 12.2191C35.9543 12.2528 35.9444 12.2908 35.9444 12.3295C35.9444 12.3681 35.9543 12.4061 35.9732 12.4399C35.9921 12.4736 36.0194 12.5019 36.0524 12.522C36.2092 12.6452 36.4037 12.7106 36.603 12.7071H37.1695L38.021 11.6156C37.9119 11.5253 37.8216 11.4539 37.7336 11.3809C37.6584 11.3215 37.5937 11.2598 37.6742 11.159L37.6787 11.153Z" fill="black"/>
<path d="M20.6296 8.45326L20.8063 8.79854L20.8402 8.78651L20.7597 8.40663C21.3346 8.1803 21.9309 8.01245 22.5395 7.90564L22.7035 8.49915C22.5056 8.56385 22.3386 8.62101 22.1385 8.68872L23.1353 12.1874C22.8681 12.1456 22.6075 12.0698 22.3597 11.9617C22.3116 11.9444 22.2845 11.8504 22.2589 11.7849C22.1942 11.5908 22.1393 11.3937 22.0731 11.1703C21.9821 11.2373 21.9151 11.2907 21.8474 11.3403C21.7032 11.4316 21.5396 11.4875 21.3697 11.5037C21.1999 11.5198 21.0286 11.4957 20.8699 11.4333C20.7111 11.3708 20.5692 11.2719 20.4559 11.1444C20.3425 11.0169 20.2608 10.8644 20.2173 10.6994C20.1788 10.4575 20.2308 10.2098 20.3635 10.0038C20.4962 9.79782 20.7002 9.64803 20.9365 9.58312C20.9878 9.57543 21.0401 9.58725 21.0832 9.61622C21.2163 9.71928 21.3427 9.83061 21.4841 9.95021C21.3337 10.0488 21.2058 10.1262 21.0877 10.2188C20.9206 10.3279 20.7945 10.4892 20.7289 10.6776C20.7053 10.7366 20.6999 10.8012 20.7133 10.8632C20.7267 10.9253 20.7583 10.9819 20.8041 11.0259C20.9056 11.1184 21.0215 11.0823 21.1321 11.0327C21.3435 10.9296 21.5187 10.7649 21.6345 10.5603C21.6895 10.4715 21.7496 10.3865 21.8279 10.2661C21.7045 9.83963 21.5706 9.37701 21.4269 8.87527C20.7424 9.12125 20.1113 9.41612 19.4245 9.67037L19.168 9.04904L20.6371 8.45627" fill="black"/>
<path d="M38.0446 16.2238C37.8603 16.202 37.761 16.1283 37.7527 15.9508C37.7099 15.4393 37.7421 14.9244 37.8483 14.4222C37.8884 14.2557 37.9617 14.099 38.064 13.9616C38.1663 13.8241 38.2953 13.7088 38.4433 13.6226C38.5496 13.5403 38.6771 13.4901 38.811 13.4778C38.9448 13.4655 39.0794 13.4917 39.1989 13.5532C39.3184 13.6147 39.4179 13.7091 39.4857 13.8252C39.5534 13.9413 39.5866 14.0743 39.5814 14.2086L39.5942 14.3914C40.1772 14.3726 40.3254 14.5193 40.2847 15.088L40.5398 14.9977C40.615 15.0812 40.6902 15.1579 40.7512 15.2422C40.9392 15.4942 41.4033 15.3437 41.5086 15.0676C41.5266 15.016 41.5295 14.9603 41.5171 14.9071C41.5048 14.8539 41.4775 14.8052 41.4387 14.7668C41.3078 14.608 41.1814 14.4456 41.0377 14.2658L41.5455 13.8445C41.96 14.3049 42.3188 14.7916 42.7318 15.2858L42.218 15.7078L41.8862 15.343C41.8351 15.4046 41.7892 15.4543 41.7486 15.5085C41.5619 15.7534 41.2937 15.9236 40.9926 15.9884C40.7812 16.0247 40.5638 15.9858 40.378 15.8786C40.3218 15.9392 40.2913 16.0194 40.2931 16.1021C40.2949 16.1848 40.3289 16.2635 40.3878 16.3216C40.5385 16.514 40.7442 16.6559 40.9776 16.7286C41.0866 16.7669 41.2032 16.7865 41.3589 16.8256C41.1602 17.0083 40.9497 17.1777 40.7286 17.3326C40.6925 17.3582 40.6052 17.3386 40.5533 17.3146C40.4096 17.2724 40.2762 17.2009 40.1615 17.1045C40.0469 17.0081 39.9535 16.889 39.8873 16.7546C39.8211 16.6202 39.7836 16.4736 39.777 16.324C39.7705 16.1743 39.795 16.025 39.8492 15.8853C39.9192 15.6657 40.0335 15.4596 40.1275 15.2429C39.9365 14.9292 39.7228 14.8992 39.4671 15.1609C39.3166 15.3151 39.1722 15.4738 38.9992 15.6574L38.7547 15.1075C38.8758 14.9759 38.9947 14.8435 39.1158 14.7133C39.2083 14.6133 39.3144 14.5208 39.2271 14.3636C39.1815 14.2855 39.1128 14.2235 39.0305 14.1861C38.9482 14.1486 38.8563 14.1376 38.7675 14.1544C38.6721 14.1813 38.5838 14.2289 38.509 14.294C38.4343 14.359 38.3748 14.4398 38.335 14.5306C38.1988 14.854 38.1197 15.1986 38.101 15.5491C38.0785 15.7695 38.0634 15.9914 38.0446 16.2186" fill="black"/>
<path d="M42.5288 43.8797L43.0185 43.3464L46.3457 44.7854C46.2633 44.5586 46.159 44.3404 46.0342 44.1339C45.9304 43.915 45.8161 43.7007 45.7055 43.4855C45.595 43.2704 45.4859 43.053 45.376 42.8371L45.0451 42.1902C44.9352 41.9743 44.8284 41.7592 44.7133 41.532L45.1948 41.0129C45.2828 41.1814 45.3542 41.3138 45.4204 41.4492L47.1212 44.9042C47.2401 45.1465 47.2416 45.148 47.0588 45.3405C46.7398 45.6768 46.8421 45.6519 46.4329 45.485C45.2108 44.9895 43.9897 44.4913 42.7696 43.9903C42.6981 43.9609 42.6274 43.9263 42.5273 43.8797" fill="black"/>
<path d="M3.79787 17.7915C3.90168 18.0284 3.98067 18.2383 4.08523 18.4339C4.13817 18.5037 4.21071 18.556 4.29359 18.5843C4.51926 18.6866 4.75546 18.7769 5.0195 18.8852C4.94427 19.0838 4.86906 19.2614 4.78857 19.4682L1.75781 18.2421C1.83905 18.042 1.90827 17.8705 1.99402 17.6644C2.43483 17.8381 2.86209 18.0066 3.28711 18.1759L3.333 18.1292C3.29388 18.0435 3.25777 17.957 3.21791 17.872C3.00954 17.4334 2.80417 16.9941 2.58978 16.5593C2.55867 16.505 2.54131 16.444 2.53921 16.3814C2.53711 16.3189 2.55035 16.2568 2.57776 16.2005C2.65975 16.0245 2.7282 15.8409 2.82223 15.6183C2.88692 15.7522 2.93431 15.844 2.97718 15.9402C3.13139 16.284 3.28334 16.6293 3.43755 16.9731C3.54286 17.2055 3.55038 17.2085 3.8069 17.1573C4.38837 17.0445 4.96986 16.9279 5.55058 16.8143C5.64461 16.797 5.73939 16.7873 5.87705 16.7677C5.77776 17.0167 5.70329 17.2273 5.60625 17.4266C5.55671 17.4863 5.48558 17.5239 5.40841 17.5312C4.93977 17.6064 4.46887 17.6749 3.99797 17.7448C3.94532 17.7524 3.89491 17.7689 3.79787 17.7915Z" fill="black"/>
<path d="M17.3526 5.73095C17.5414 5.68055 17.7287 5.62789 17.916 5.5805C17.9597 5.57687 18.0032 5.58975 18.0379 5.61661C18.0926 5.65667 18.1572 5.68117 18.2247 5.68752C18.2923 5.69388 18.3603 5.68186 18.4215 5.65272C18.8059 5.52484 18.8969 5.33678 18.7585 4.95314C18.7262 4.86137 18.6833 4.77261 18.6352 4.64774C18.584 4.72296 18.5487 4.76809 18.5216 4.81774C18.4642 4.93312 18.3815 5.03405 18.2796 5.11301C18.1778 5.19196 18.0594 5.24689 17.9334 5.27372C17.8073 5.30055 17.6768 5.29858 17.5517 5.26795C17.4265 5.23732 17.3098 5.17882 17.2104 5.09682C16.9968 4.93624 16.8315 4.72001 16.7325 4.47178C16.6335 4.22355 16.6047 3.95289 16.6493 3.68939C16.6658 3.55512 16.7128 3.42639 16.7865 3.31299C16.8603 3.19958 16.9589 3.10449 17.075 3.03494C17.191 2.96539 17.3214 2.92321 17.4562 2.91161C17.591 2.90001 17.7266 2.9193 17.8528 2.968C17.9017 2.98455 17.9514 2.99883 18.0274 3.02366L17.977 2.73556L18.4486 2.55652C18.4794 2.60198 18.5065 2.64977 18.5299 2.69944C18.7698 3.31853 19.015 3.93687 19.2415 4.56123C19.3133 4.77274 19.362 4.99141 19.3866 5.21342C19.3983 5.31325 19.3836 5.41439 19.344 5.50678C19.3044 5.59916 19.2413 5.67956 19.161 5.73998C18.8187 6.03796 18.3796 6.20108 17.9258 6.19884C17.7896 6.20272 17.6565 6.15776 17.5506 6.07209C17.4446 5.98642 17.3728 5.86569 17.3481 5.7317M17.2225 3.83532C17.2349 4.0852 17.3227 4.32544 17.4745 4.52437C17.5335 4.61514 17.6205 4.68416 17.7224 4.72096C17.8242 4.75775 17.9352 4.7603 18.0386 4.72822C18.1507 4.69296 18.2479 4.62158 18.3152 4.52523C18.3824 4.42888 18.4158 4.31299 18.4102 4.19564C18.4054 3.92414 18.3003 3.66401 18.1154 3.46522C18.0445 3.38623 17.9509 3.33118 17.8475 3.30767C17.744 3.28416 17.6358 3.29336 17.5378 3.33398C17.4398 3.3746 17.3568 3.44465 17.3003 3.53446C17.2439 3.62426 17.2166 3.72939 17.2225 3.83532Z" fill="black"/>
<path d="M7.25 10.2684L7.6705 9.86819L9.01851 10.5753L9.05988 10.5362C8.82894 10.0848 8.53332 9.67487 8.28358 9.2145L8.67925 8.80077L10.0498 9.57407C9.96187 9.31809 9.8402 9.07499 9.688 8.85117C9.56689 8.62174 9.43525 8.39983 9.3006 8.16213C9.42773 8.02748 9.54356 7.90637 9.65941 7.78601C10.1194 8.46929 10.5198 9.19082 10.8562 9.94266L10.4402 10.3233C10.028 10.0976 9.59396 9.85766 9.16143 9.6192L9.11555 9.66734C9.34874 10.0961 9.6233 10.5023 9.8753 10.9461L9.47436 11.3719C8.74544 11.0086 8.02406 10.6513 7.25302 10.2684" fill="black"/>
<path d="M15.133 2.96426L16.7127 5.81522C16.5563 5.90624 16.4118 5.99124 16.2614 6.08151C16.1967 5.99952 16.1433 5.93107 16.0756 5.84908C16.0503 5.88944 16.0277 5.93139 16.0079 5.9747C15.965 6.12531 15.8838 6.2622 15.772 6.37191C15.6603 6.48162 15.5219 6.56037 15.3706 6.60043C15.2192 6.64049 15.06 6.64049 14.9086 6.60042C14.7572 6.56035 14.6189 6.48159 14.5072 6.37188C14.1873 6.10146 13.9786 5.72239 13.9212 5.30747C13.8986 5.16267 13.9109 5.01455 13.957 4.87545C14.0032 4.73636 14.0819 4.61029 14.1866 4.50773C14.2913 4.40517 14.4189 4.32908 14.5589 4.2858C14.699 4.24251 14.8473 4.23327 14.9916 4.25885C15.0337 4.26411 15.0766 4.25885 15.1654 4.25885L14.6177 3.25086L15.1353 2.9635M15.0917 4.59209C15.0164 4.58476 14.9404 4.59373 14.8689 4.61839C14.7974 4.64305 14.7321 4.68283 14.6773 4.73501C14.6226 4.78718 14.5797 4.85053 14.5516 4.92076C14.5236 4.99099 14.511 5.06644 14.5147 5.14198C14.5439 5.43905 14.6825 5.71466 14.9036 5.91527C14.9806 5.99804 15.083 6.05275 15.1946 6.07073C15.3062 6.08872 15.4206 6.06895 15.5197 6.01456C15.6173 5.95806 15.6938 5.87141 15.7379 5.76763C15.782 5.66385 15.7912 5.54856 15.7641 5.4391C15.7143 5.18178 15.5842 4.94687 15.3925 4.76811C15.3004 4.69648 15.1992 4.6373 15.0917 4.59209Z" fill="black"/>
<path d="M41.4267 8.09517L41.1942 8.30505L40.7812 7.98234C41.4425 7.11802 42.1082 6.27777 42.783 5.41345C42.8717 5.47664 42.9514 5.5293 43.0267 5.58798C43.1019 5.64665 43.1613 5.70156 43.2471 5.77377C43.0214 6.07467 42.8025 6.36126 42.5595 6.68096C42.6649 6.69375 42.7228 6.70279 42.7814 6.70655C42.9186 6.71175 43.0529 6.74769 43.1743 6.81171C43.2957 6.87574 43.4013 6.96622 43.4831 7.07647C43.5649 7.18672 43.6209 7.31392 43.647 7.4487C43.673 7.58349 43.6685 7.7224 43.6337 7.8552C43.578 8.08331 43.4731 8.29647 43.3262 8.4797C43.1794 8.66293 42.9942 8.8118 42.7837 8.91586C42.6561 8.98886 42.5124 9.02909 42.3655 9.03297C42.2186 9.03684 42.073 9.00423 41.9417 8.93806C41.8105 8.87188 41.6977 8.77419 41.6135 8.65374C41.5292 8.5333 41.4762 8.39385 41.459 8.24787C41.4553 8.21327 41.444 8.17942 41.4267 8.09743M41.7569 7.95826C41.7499 8.0488 41.7687 8.13947 41.8111 8.2198C41.8534 8.30012 41.9176 8.36683 41.9963 8.41222C42.075 8.4576 42.1649 8.47981 42.2556 8.47629C42.3463 8.47276 42.4342 8.44365 42.5091 8.3923C42.7813 8.22816 42.9798 7.96551 43.0635 7.65887C43.0913 7.57259 43.0924 7.47994 43.0668 7.393C43.0412 7.30606 42.99 7.22885 42.9198 7.17143C42.8565 7.10734 42.7764 7.06246 42.6887 7.04196C42.601 7.02147 42.5093 7.02618 42.4241 7.05558C42.2444 7.13514 42.0885 7.26029 41.972 7.41862C41.8555 7.57695 41.7824 7.76297 41.7599 7.95826" fill="black"/>
<path d="M53.8177 31.7642C53.7794 31.9899 53.7425 32.1983 53.7057 32.4412L49.457 31.689C49.4969 31.4761 49.5323 31.2956 49.5676 31.091L50.1521 31.1587C49.9889 30.9601 49.8399 30.8074 49.7248 30.6321C49.6678 30.54 49.632 30.4362 49.6203 30.3284C49.6086 30.2206 49.6212 30.1116 49.6571 30.0093C49.716 29.7897 49.8323 29.5897 49.9941 29.4301L50.5666 29.7618C50.5199 29.8475 50.4838 29.9085 50.4515 29.9717C50.3891 30.0663 50.3487 30.1737 50.3333 30.2859C50.318 30.3982 50.328 30.5125 50.3628 30.6204C50.3975 30.7283 50.456 30.827 50.534 30.9092C50.612 30.9914 50.7074 31.0551 50.8133 31.0955C51.0745 31.2134 51.3483 31.3007 51.6295 31.3558C52.2711 31.4844 52.9188 31.586 53.5627 31.6988C53.6334 31.7116 53.7019 31.7334 53.8177 31.7612" fill="black"/>
<path d="M13.0676 20.5191V20.9388C12.9232 20.99 12.7667 21.0531 12.6065 21.099C12.5235 21.1153 12.4464 21.1537 12.3834 21.2101C12.3204 21.2665 12.2738 21.3388 12.2484 21.4195C12.2004 21.5356 12.1301 21.6411 12.0415 21.7302C11.9951 21.7864 11.9317 21.8262 11.8609 21.8437C11.79 21.8612 11.7154 21.8554 11.6481 21.8272C11.5746 21.8051 11.5086 21.7629 11.4577 21.7053C11.4068 21.6478 11.373 21.5772 11.36 21.5015C11.3372 21.3621 11.3618 21.219 11.43 21.0953C11.4983 20.9716 11.606 20.8743 11.7361 20.8192C11.8064 20.7884 11.8634 20.7338 11.8972 20.6649C11.9309 20.596 11.9391 20.5174 11.9204 20.4431C11.8979 20.2498 11.7632 20.1648 11.5977 20.2625C11.4174 20.3803 11.2441 20.5084 11.0787 20.6462C10.9282 20.7605 10.7913 20.8914 10.6334 20.9922C10.5199 21.0643 10.3934 21.1134 10.261 21.1366C10.1945 21.1517 10.1253 21.15 10.0597 21.1318C9.99401 21.1135 9.93388 21.0793 9.88469 21.0321C9.8355 20.9849 9.79878 20.9263 9.77781 20.8614C9.75684 20.7966 9.75228 20.7275 9.76453 20.6605C9.76518 20.6334 9.76973 20.6065 9.77806 20.5807C10.0037 19.985 10.2294 19.3907 10.4551 18.7852C10.6714 18.8244 10.8816 18.8922 11.0802 18.9868L10.5461 20.4213L10.595 20.4468C10.6508 20.3801 10.7109 20.3171 10.7748 20.258C10.9605 20.0914 11.1598 19.9404 11.3705 19.8067C11.4405 19.7596 11.5199 19.7285 11.6032 19.7153C11.6864 19.7022 11.7716 19.7074 11.8526 19.7306C11.9337 19.7539 12.0087 19.7945 12.0724 19.8497C12.136 19.905 12.1869 19.9735 12.2213 20.0504C12.3115 20.2373 12.3869 20.431 12.447 20.6296C12.5222 20.6183 12.6223 20.6041 12.7238 20.5868C12.8254 20.5695 12.9322 20.5469 13.0713 20.5206" fill="black"/>
<path d="M41.2852 21.9363C41.3536 21.6354 41.4078 21.3969 41.4559 21.1622C41.4815 21.0389 41.5861 21.0238 41.6748 20.9885C42.3398 20.7171 43.005 20.4476 43.6705 20.1798C43.912 20.082 44.1504 19.9812 44.4114 19.8744C44.359 19.7114 44.3088 19.5476 44.261 19.3832L44.868 19.1372L45.5661 20.8538C45.3608 20.9403 45.1682 21.0216 44.95 21.1118L44.7048 20.5597L43.0221 21.2367C42.4669 21.4624 41.9095 21.688 41.2919 21.9355" fill="black"/>
<path d="M46.676 14.3109C46.7189 14.2236 46.7512 14.1529 46.7933 14.0732C46.7253 14.0404 46.6566 14.0091 46.5872 13.9792C46.4638 13.9247 46.3528 13.8455 46.2611 13.7465C46.1694 13.6476 46.0989 13.5309 46.0539 13.4037C45.996 13.2707 45.9844 13.1222 46.0209 12.9818C46.0575 12.8415 46.1401 12.7175 46.2555 12.6297C46.3683 12.5311 46.5126 12.476 46.6624 12.474C46.8122 12.4721 46.9578 12.5235 47.0732 12.6191C47.2117 12.7325 47.344 12.8533 47.4696 12.9809C47.5749 13.078 47.6787 13.1773 47.7863 13.2736C47.8134 13.2924 47.8427 13.3078 47.8735 13.3195C48.0992 13.1841 48.1376 13.1103 48.0992 12.9433C48.0665 12.8136 47.99 12.699 47.8828 12.619C47.7755 12.539 47.6439 12.4984 47.5102 12.504C47.4779 12.4333 47.435 12.3536 47.4049 12.2731C47.3748 12.1926 47.3522 12.1272 47.3221 12.0384C47.4503 11.9877 47.5899 11.9731 47.7257 11.9963C47.8616 12.0196 47.9884 12.0796 48.0924 12.17C48.3352 12.386 48.5167 12.662 48.619 12.9704C48.6748 13.0952 48.6841 13.2359 48.645 13.3669C48.606 13.4978 48.5212 13.6105 48.4061 13.6843C48.1805 13.846 47.9458 13.995 47.7126 14.1469C47.4281 14.3039 47.178 14.5161 46.9769 14.7713C46.8731 14.611 46.7828 14.4704 46.6797 14.3132M47.5253 13.5248C47.3623 13.3624 47.19 13.2097 47.0092 13.0675C46.9676 13.0348 46.9176 13.0146 46.865 13.0093C46.8124 13.004 46.7594 13.0137 46.7121 13.0374C46.6648 13.061 46.6252 13.0976 46.5979 13.1429C46.5706 13.1882 46.5567 13.2403 46.5579 13.2931C46.5565 13.4078 46.5942 13.5194 46.6647 13.6098C46.8776 13.8738 47.1988 13.843 47.5215 13.5233" fill="black"/>
<path d="M7.16245 11.1771C7.48196 11.1864 7.78558 11.3185 8.01022 11.5459C8.23485 11.7733 8.36322 12.0785 8.36865 12.3981C8.37407 12.7177 8.25613 13.0271 8.03934 13.262C7.82255 13.4969 7.52359 13.6393 7.20458 13.6594C6.87476 13.6474 6.56121 13.5131 6.32487 13.2828C6.08852 13.0524 5.94628 12.7424 5.92578 12.413C5.93268 12.087 6.06514 11.7763 6.29554 11.5456C6.52594 11.3149 6.8365 11.1821 7.16245 11.1748M7.04435 11.7412C6.95236 11.7375 6.86086 11.7565 6.77794 11.7965C6.69503 11.8366 6.62326 11.8964 6.56897 11.9708C6.51469 12.0451 6.47955 12.1317 6.46669 12.2229C6.45383 12.3141 6.46362 12.407 6.49521 12.4935C6.56649 12.6577 6.6812 12.7994 6.827 12.9033C6.9728 13.0072 7.14417 13.0694 7.32267 13.0832C7.41478 13.0844 7.50577 13.0629 7.58767 13.0208C7.66957 12.9786 7.73987 12.917 7.79243 12.8413C7.84499 12.7657 7.8782 12.6783 7.88916 12.5868C7.90011 12.4954 7.88846 12.4026 7.85525 12.3167C7.78218 12.158 7.66865 12.0214 7.52605 11.9205C7.38344 11.8196 7.21679 11.7581 7.04285 11.742" fill="black"/>
<path d="M13.4432 6.92091L13.9479 6.69525C13.999 6.83486 14.0136 6.98523 13.9901 7.13204C13.9667 7.27886 13.9061 7.41723 13.814 7.53398C13.6374 7.77576 13.3821 7.9484 13.0919 8.02219C12.9395 8.06497 12.7788 8.06929 12.6243 8.03477C12.4698 8.00024 12.3262 7.92795 12.2065 7.82435C11.9059 7.59001 11.6989 7.25601 11.6228 6.88255C11.5789 6.6928 11.5927 6.49426 11.6624 6.3124C11.7321 6.13053 11.8545 5.97363 12.0139 5.86178C12.1645 5.7309 12.3503 5.64743 12.5481 5.62187C12.7459 5.59631 12.9469 5.62978 13.1257 5.71809C13.3916 5.85738 13.6116 6.07055 13.7591 6.33192C13.3492 6.65613 12.9046 6.92167 12.5021 7.2346C12.5563 7.35227 12.6519 7.44587 12.7706 7.4975C12.8894 7.54912 13.0231 7.55514 13.146 7.51443C13.3762 7.4392 13.4575 7.28349 13.4469 6.92242M13.0708 6.39585C12.8226 6.07089 12.5443 6.01297 12.3118 6.20629C12.2609 6.2513 12.2203 6.30676 12.1927 6.36887C12.1652 6.43098 12.1513 6.4983 12.1521 6.56625C12.1529 6.6342 12.1683 6.70119 12.1973 6.76265C12.2263 6.82411 12.2682 6.8786 12.3201 6.92242L13.0723 6.39585" fill="black"/>
<path d="M20.1289 3.45464C20.2342 3.78863 20.4072 3.94285 20.6426 3.9451C20.8781 3.94736 21.0127 3.83528 21.1316 3.48774L21.6905 3.44111C21.6867 3.5861 21.6483 3.72809 21.5786 3.85526C21.5089 3.98244 21.4098 4.09112 21.2895 4.17228C21.0571 4.32853 20.782 4.40917 20.502 4.40321C20.371 4.40713 20.2407 4.38168 20.1208 4.3287C20.0009 4.27572 19.8945 4.19657 19.8092 4.09705C19.6421 3.91392 19.5225 3.69252 19.4612 3.45233C19.3998 3.21215 19.3984 2.96056 19.4571 2.71972C19.5 2.52506 19.6019 2.34838 19.7489 2.21376C19.8959 2.07914 20.0809 1.99314 20.2785 1.96748C20.4802 1.91348 20.6938 1.92495 20.8885 2.00026C21.0832 2.07558 21.2489 2.21082 21.3618 2.38647C21.5037 2.58025 21.591 2.80861 21.6145 3.04768L20.1289 3.45766M20.9563 2.85962C20.8224 2.45567 20.5651 2.309 20.2793 2.43612C20.219 2.46267 20.1652 2.50188 20.1215 2.55108C20.0777 2.60028 20.045 2.65832 20.0257 2.72125C20.0064 2.78419 20.0008 2.85056 20.0094 2.91584C20.018 2.98112 20.0405 3.04378 20.0754 3.09959C20.362 3.02436 20.6524 2.94312 20.9578 2.85962" fill="black"/>
<path d="M49.7598 17.9924C49.5341 17.5177 49.3227 17.0649 49.1106 16.6165C48.9926 16.6342 48.8855 16.6954 48.8104 16.7882C48.7354 16.8809 48.6978 16.9984 48.7051 17.1175C48.7134 17.3883 48.8368 17.5034 49.2385 17.599L49.3806 18.1067C49.2456 18.1393 49.1045 18.1359 48.9712 18.097C48.8379 18.0581 48.7171 17.9849 48.6209 17.8848C48.3808 17.6617 48.2378 17.3532 48.2229 17.0257C48.2189 16.8477 48.2568 16.6712 48.3335 16.5105C48.497 16.2583 48.7301 16.0591 49.0047 15.937C49.2793 15.815 49.5834 15.7753 49.8801 15.8229C50.057 15.8739 50.218 15.9689 50.3482 16.099C50.4783 16.2291 50.5733 16.3901 50.6242 16.567C50.6752 16.7438 50.6805 16.9307 50.6395 17.1102C50.5986 17.2896 50.5128 17.4557 50.3901 17.5929C50.2169 17.7769 50.0001 17.9143 49.7598 17.9924ZM49.8192 17.2875C50.1584 17.1581 50.2871 16.8934 50.1645 16.6263C50.0419 16.3593 49.7613 16.2886 49.4295 16.4525L49.8192 17.2875Z" fill="black"/>
<path d="M45.1109 10.528C44.7386 10.1466 44.3896 9.78702 44.0428 9.4297C43.9386 9.48901 43.859 9.58364 43.8184 9.69648C43.7779 9.80933 43.779 9.93294 43.8216 10.045C43.9141 10.2842 44.0699 10.3512 44.4904 10.3241C44.5505 10.4099 44.6182 10.5031 44.6822 10.5994C44.7168 10.6506 44.7438 10.7062 44.78 10.7717C44.6466 10.8504 44.4936 10.8896 44.3388 10.8845C44.184 10.8794 44.0338 10.8304 43.9059 10.7431C43.7351 10.6281 43.5842 10.4861 43.459 10.3226C43.338 10.1752 43.2658 9.99377 43.2523 9.8035C43.2388 9.61323 43.2848 9.42347 43.3838 9.26045C43.5556 8.92979 43.8366 8.66879 44.1789 8.52176C44.3827 8.43992 44.6067 8.42247 44.8207 8.47175C45.0347 8.52103 45.2285 8.63467 45.376 8.7974C45.5235 8.96012 45.6176 9.1641 45.6456 9.38191C45.6737 9.59972 45.6344 9.8209 45.5329 10.0157C45.4266 10.2122 45.283 10.3862 45.1102 10.528M44.9387 9.85095C45.2275 9.56962 45.2463 9.28603 45.0177 9.07916C44.9659 9.0336 44.9049 8.99988 44.8388 8.98033C44.7727 8.96079 44.7032 8.95589 44.635 8.96599C44.5668 8.97608 44.5016 9.00094 44.4441 9.0388C44.3865 9.07667 44.3378 9.12664 44.3015 9.18523L44.9387 9.85095Z" fill="black"/>
<path d="M35.9351 4.11516L34.4878 3.65329C34.4228 3.75321 34.396 3.87316 34.4122 3.99124C34.4283 4.10933 34.4864 4.21766 34.5758 4.29645C34.7842 4.47623 34.9662 4.46119 35.2889 4.22123L35.7711 4.47398C35.6892 4.61134 35.569 4.72185 35.4253 4.79198C35.2815 4.86212 35.1204 4.88885 34.9617 4.8689C34.7489 4.84429 34.5418 4.78349 34.3494 4.68912C34.1809 4.61075 34.0402 4.4829 33.9461 4.32257C33.852 4.16225 33.809 3.97708 33.8228 3.79171C33.8245 3.42913 33.9468 3.0774 34.1704 2.79198C34.3019 2.61883 34.4853 2.49224 34.6938 2.43067C34.9024 2.3691 35.1251 2.37577 35.3296 2.44971C35.5454 2.50515 35.7361 2.63194 35.8708 2.80947C36.0054 2.98701 36.0761 3.20485 36.0713 3.42762C36.083 3.6645 36.037 3.9007 35.9374 4.11592M35.4755 3.59762C35.5317 3.5026 35.5539 3.39132 35.5386 3.282C35.5233 3.17267 35.4714 3.07179 35.3913 2.99584C35.3301 2.92866 35.2489 2.88298 35.1597 2.86564C35.0705 2.84829 34.9782 2.86019 34.8963 2.89955C34.8089 2.92717 34.7332 2.98314 34.6811 3.05862C34.6291 3.13409 34.6037 3.22477 34.6089 3.31629L35.4755 3.59612" fill="black"/>
<path d="M6.81288 15.0587C6.52403 14.8924 6.25322 14.736 5.98091 14.5825C5.81768 14.4892 5.65595 14.3914 5.48595 14.3102C5.23621 14.1906 5.06469 14.2244 4.9338 14.4012C4.86121 14.4946 4.8252 14.6112 4.83254 14.7292C4.83988 14.8472 4.89008 14.9585 4.97368 15.0421C5.07096 15.1351 5.17935 15.2157 5.29639 15.2821C5.56569 15.4461 5.83875 15.5988 6.1103 15.7575C6.17801 15.7989 6.24345 15.8433 6.32544 15.8967L6.03884 16.4037C5.36183 16.0118 4.69385 15.6289 4.00781 15.2302L4.26131 14.7683C4.36136 14.8059 4.44184 14.8368 4.5464 14.8751C4.53361 14.7623 4.52384 14.6765 4.51632 14.59C4.49431 14.4014 4.53053 14.2106 4.62013 14.0432C4.65704 13.9477 4.71466 13.8616 4.78883 13.7911C4.86301 13.7206 4.95189 13.6675 5.04909 13.6354C5.14629 13.6034 5.24939 13.5934 5.35094 13.606C5.4525 13.6186 5.54999 13.6536 5.63639 13.7084C6.12911 13.9649 6.60527 14.2523 7.11529 14.5411C7.01148 14.7224 6.91895 14.8812 6.81439 15.0587" fill="black"/>
<path d="M51.2841 20.1633C51.1968 20.0128 51.111 19.8624 51.02 19.7074C51.1109 19.6 51.1613 19.4641 51.1624 19.3234C51.1635 19.1826 51.1153 19.0459 51.026 18.9371C50.9756 18.8521 50.9049 18.7694 50.7868 18.8092C50.7443 18.826 50.709 18.8572 50.6871 18.8973C50.6653 18.9375 50.6582 18.9841 50.6672 19.0289C50.6717 19.1718 50.6838 19.3155 50.6905 19.4577C50.7085 19.6544 50.7153 19.8521 50.7108 20.0497C50.7081 20.1515 50.6806 20.2511 50.6308 20.3399C50.581 20.4287 50.5103 20.5041 50.4249 20.5596C50.3395 20.615 50.2419 20.6489 50.1404 20.6582C50.039 20.6675 49.9369 20.652 49.8428 20.6131C49.6706 20.5561 49.5226 20.443 49.4223 20.2919C49.2005 19.9824 49.0941 19.605 49.1214 19.2252C49.129 19.0946 49.1677 18.9676 49.2345 18.8551C49.3012 18.7425 49.394 18.6476 49.505 18.5783L49.7766 19.0785C49.6628 19.174 49.589 19.3087 49.57 19.456C49.5509 19.6033 49.5878 19.7523 49.6735 19.8736C49.7039 19.9287 49.7439 19.9779 49.7916 20.0188C49.8187 20.0498 49.8547 20.0716 49.8946 20.0814C49.9346 20.0911 49.9766 20.0883 50.0149 20.0734C50.0532 20.0584 50.086 20.032 50.1088 19.9977C50.1316 19.9635 50.1432 19.923 50.1422 19.8819C50.1446 19.7922 50.1403 19.7024 50.1294 19.6134C50.1173 19.3809 50.097 19.1477 50.0978 18.9153C50.09 18.784 50.1258 18.6538 50.1997 18.545C50.2736 18.4361 50.3813 18.3548 50.5063 18.3135C50.6323 18.2614 50.7718 18.2514 50.9039 18.285C51.0361 18.3186 51.1538 18.3941 51.2397 18.5001C51.4974 18.8054 51.6349 19.1943 51.6263 19.5938C51.6262 19.7107 51.5946 19.8253 51.5349 19.9258C51.4752 20.0262 51.3896 20.1088 51.2871 20.1648" fill="black"/>
<path d="M12.357 49.9735L11.7695 49.5906L14.1157 45.9746L14.7055 46.3552L12.357 49.9735Z" fill="black"/>
<path d="M49.3179 42.6099L48.9162 43.1839L45.3867 40.7128L45.7832 40.1328L49.3187 42.6099" fill="black"/>
<path d="M32.3581 53.6542L31.6691 53.7776L30.8477 49.553C31.0808 49.5094 31.2945 49.468 31.5367 49.4207L32.3581 53.6542Z" fill="black"/>
<path d="M38.9105 2.99953L39.4619 3.30043L38.1477 5.67748L39.5823 6.48614C39.501 6.63659 39.4318 6.77424 39.3408 6.93747L37.3398 5.83019C37.8664 4.88463 38.3794 3.95486 38.9105 2.99426" fill="black"/>
<path d="M48.1983 15.9411L47.8455 16.2073C47.7409 16.095 47.6442 15.9756 47.5559 15.85C47.5027 15.7878 47.4648 15.7139 47.4451 15.6344C47.4254 15.5549 47.4246 15.4719 47.4426 15.392C47.4607 15.3121 47.4971 15.2375 47.549 15.1742C47.6009 15.1108 47.6669 15.0605 47.7417 15.0271C48.0223 14.848 48.3134 14.6886 48.5993 14.5193C48.6918 14.4652 48.7828 14.4088 48.8874 14.3456L48.8024 14.0725C48.9144 14.0048 49.028 13.9386 49.1537 13.8641L49.338 14.0672C49.3752 14.0608 49.4111 14.0481 49.444 14.0296C49.4858 13.9889 49.5352 13.9569 49.5893 13.9354C49.6435 13.914 49.7014 13.9035 49.7597 13.9045C49.818 13.9056 49.8755 13.9182 49.9288 13.9416C49.9822 13.965 50.0304 13.9987 50.0706 14.0409C50.1391 14.0936 50.2166 14.1349 50.3264 14.2064L49.6449 14.6149C49.7036 14.739 49.757 14.8503 49.8224 14.991C49.7036 15.0662 49.5877 15.1377 49.4568 15.2166L49.1988 14.8639C48.8362 15.0767 48.4804 15.2813 48.1291 15.4942C48.1046 15.5066 48.0832 15.5246 48.0668 15.5467C48.0505 15.5688 48.0395 15.5944 48.0347 15.6215C48.03 15.6486 48.0316 15.6764 48.0395 15.7028C48.0474 15.7291 48.0614 15.7533 48.0802 15.7733C48.1148 15.8237 48.1555 15.8726 48.1983 15.9395" fill="black"/>
<path d="M9.6217 6.66823L10.0828 6.29211L12.1748 8.78502L11.7234 9.17844L9.61719 6.66973" fill="black"/>
<path d="M33.4763 11.2064C33.6124 10.9409 33.7268 10.7107 33.8479 10.4828C33.899 10.3865 33.9908 10.3842 34.0841 10.4076C34.221 10.4368 34.3495 10.4965 34.4601 10.5824C34.5707 10.6682 34.6605 10.7779 34.7227 10.9033C34.8817 11.2248 34.9179 11.5933 34.8244 11.9396C34.7309 12.2858 34.5142 12.5861 34.215 12.7839C34.1345 12.8437 34.0356 12.8733 33.9356 12.8677C33.8355 12.862 33.7406 12.8215 33.6673 12.753C33.6217 12.7212 33.5857 12.6773 33.5635 12.6263C33.5412 12.5753 33.5336 12.5191 33.5414 12.464C33.5492 12.4088 33.5721 12.357 33.6076 12.3141C33.6431 12.2712 33.6899 12.2391 33.7426 12.2212C33.8751 12.1689 34.0013 12.1018 34.1187 12.0211C34.2183 11.9457 34.2996 11.8488 34.3564 11.7375C34.3824 11.6924 34.3975 11.6419 34.4007 11.5899C34.4038 11.538 34.3948 11.486 34.3743 11.4382C34.3539 11.3903 34.3226 11.3478 34.2829 11.3141C34.2433 11.2804 34.1963 11.2564 34.1458 11.244C33.9978 11.2084 33.8465 11.1887 33.6944 11.1854C33.6186 11.187 33.5431 11.1953 33.4688 11.2102" fill="black"/>
<path d="M45.1028 12.0993L44.7305 11.6404L46.5584 10.16L46.8894 10.561L46.7119 10.7867C46.9323 10.819 47.1489 10.8009 47.2933 10.98C47.3421 11.0315 47.38 11.0923 47.4049 11.1586C47.4299 11.225 47.4413 11.2958 47.4385 11.3666L46.9872 11.5374C46.9518 11.4697 46.9262 11.4133 46.8969 11.3606C46.8781 11.3091 46.848 11.2625 46.8087 11.2243C46.7695 11.1861 46.7221 11.1572 46.6701 11.1397C46.6182 11.1223 46.5629 11.1168 46.5086 11.1237C46.4542 11.1305 46.4021 11.1496 46.3561 11.1793C46.1889 11.2662 46.0304 11.369 45.8829 11.4862C45.6249 11.6788 45.3774 11.8842 45.1043 12.1008" fill="black"/>
<path d="M8.42188 20.8711L9.30124 18.5806L9.93161 18.8213L9.05375 21.1111L8.42188 20.8711Z" fill="black"/>
<path d="M41.0121 5.27588L41.5176 5.59031L40.2734 7.58448L39.7656 7.27155C40.1861 6.59454 40.5931 5.94687 41.0121 5.27588Z" fill="black"/>
<path d="M40.5064 20.7418C40.632 20.7953 40.7457 20.8735 40.8404 20.9719C40.9351 21.0702 41.0091 21.1867 41.0578 21.3143C41.0955 21.3863 41.116 21.4661 41.1177 21.5475C41.1194 21.6288 41.1022 21.7093 41.0675 21.7829C40.9967 21.9376 40.9097 22.0843 40.808 22.2207C40.5966 22.4885 40.368 22.742 40.143 22.9985C40.031 23.1249 40.0265 23.1211 39.8008 23.0414C39.8361 22.9805 39.8655 22.9195 39.9038 22.8646C40.1062 22.578 40.3146 22.2967 40.5116 22.0071C40.6463 21.8085 40.6373 21.7558 40.4695 21.5881C40.3492 21.4685 40.2205 21.3564 40.0738 21.2202C40.1446 21.139 40.2108 21.0593 40.2815 20.9825C40.3522 20.9058 40.4281 20.8253 40.5071 20.7418" fill="black"/>
<path d="M36.0865 10.4286C35.6013 10.1819 35.141 9.94569 34.6641 9.70347C34.7679 9.49962 34.8589 9.31607 34.965 9.10168L36.3889 9.82383C36.2844 10.033 36.1896 10.2203 36.088 10.4256" fill="black"/>
<path d="M37.6769 11.153L37.6701 11.159C37.6046 11.247 37.5324 11.2169 37.4595 11.171C37.057 10.9198 36.6538 10.6693 36.2266 10.4015C36.3447 10.2096 36.4522 10.0314 36.5801 9.82751C37.0315 10.1089 37.47 10.3812 37.9206 10.6633L37.6769 11.153Z" fill="black"/>
<path d="M44.6899 40.223L44.0234 39.7574L44.4274 39.188L45.0863 39.6468C44.9532 39.8402 44.8321 40.0147 44.6899 40.223Z" fill="black"/>
<path d="M15.0197 44.5823L15.5854 44.9501C15.4683 45.1942 15.3255 45.4252 15.1596 45.6392C14.9685 45.5151 14.7835 45.397 14.5781 45.2631C14.7286 45.0291 14.8685 44.8162 15.0197 44.5815" fill="black"/>
<path d="M41.207 4.96659L41.4929 4.50623L41.9954 4.81389L41.711 5.27726L41.207 4.96659Z" fill="black"/>
<path d="M63.7295 43.9813L61.4299 37.7859L60.8281 37.7107V36.9637H63.3782V37.7107L62.7433 37.8122L64.2034 42.0887L64.3335 42.5453H64.3636L64.4983 42.0939L65.9787 37.8062L65.249 37.7084V36.9614H67.7231V37.7084L67.1153 37.7836L64.9022 43.979L63.7295 43.9813Z" fill="black"/>
<path d="M68.2695 43.9813V43.2388L69.0368 43.0937V37.8514L68.2695 37.7077V36.9607H71.0129V37.7077L70.2509 37.8514V43.0922L71.0129 43.2373V43.9798L68.2695 43.9813Z" fill="black"/>
<path d="M71.6562 43.9806V43.2389L72.428 43.0885V37.8612L71.6562 37.7107V36.963H74.5975C75.1671 36.9466 75.7295 37.0948 76.2171 37.3898C76.7047 37.6847 77.097 38.114 77.3469 38.6262C77.6182 39.1793 77.7536 39.7892 77.7418 40.4052V40.5444C77.7524 41.1556 77.6203 41.7609 77.3559 42.3121C77.1135 42.8252 76.7267 43.2564 76.2429 43.553C75.7591 43.8497 75.1993 43.9988 74.6321 43.9821L71.6562 43.9806ZM73.6437 43.0463H74.5697C74.9478 43.0567 75.3186 42.9402 75.6228 42.7153C75.9226 42.4829 76.1535 42.1732 76.2908 41.8194C76.45 41.4122 76.5285 40.9778 76.5217 40.5406V40.397C76.5295 39.956 76.4511 39.5178 76.2908 39.1069C76.154 38.756 75.9228 38.4499 75.6228 38.2222C75.3163 38.0028 74.9465 37.8895 74.5697 37.8995H73.6437V43.0463Z" fill="black"/>
<path d="M80.0289 43.9812V43.2388L80.7909 43.0936V41.5139L78.6801 37.8069L78.043 37.7099V36.9629H80.6856V37.7099L80.0153 37.7971L81.3174 40.2562L81.4235 40.4676L81.4423 40.4578L81.5439 40.2607L82.9513 37.7964L82.1562 37.7091V36.9622H84.7454V37.7091L84.0849 37.8062L82.002 41.4169V43.0951L82.7692 43.2403V43.9828L80.0289 43.9812Z" fill="black"/>
<path d="M84.0117 43.9813V43.2389L84.5217 43.1636L86.8469 36.9592H88.0279L90.323 43.1636L90.8345 43.2389V43.9813H88.6019V43.2389L89.1028 43.1471L88.732 42.0436H86.1195L85.7381 43.1471L86.2436 43.2389V43.9813H84.0117ZM86.4362 41.1123H88.4213L87.5104 38.5134L87.4472 38.3253H87.4178L87.3509 38.5231L86.4362 41.1123Z" fill="black"/>
<path d="M93.1006 43.9812L90.801 37.7859L90.1992 37.7106V36.9637H92.7493V37.7106L92.1129 37.8122L93.5737 42.0886L93.7039 42.5452H93.7332L93.8686 42.0939L95.349 37.8062L94.6201 37.7091V36.9622H97.0942V37.7091L96.4864 37.7843L94.2741 43.9798L93.1006 43.9812Z" fill="black"/>
<path d="M97.6367 43.9813V43.2388L98.4025 43.0937V37.8514L97.6367 37.7077V36.9607H100.376V37.7077L99.6143 37.8514V43.0922L100.376 43.2373V43.9798L97.6367 43.9813Z" fill="black"/>
<path d="M101.023 43.9813V43.2388L101.789 43.0937V37.8514L101.023 37.7077V36.9607H103.771V37.7077L103.004 37.8514V40.0411H106.075V37.8514L105.31 37.7077V36.9607H108.052V37.7077L107.284 37.8514V43.0922L108.052 43.2373V43.9798H105.308V43.2373L106.074 43.0922V40.9859H103.003V43.0922L103.77 43.2373V43.9798L101.023 43.9813Z" fill="black"/>
<path d="M108.363 43.9813V43.2389L108.874 43.1636L111.198 36.9592H112.38L114.675 43.1636L115.185 43.2389V43.9813H112.953V43.2389L113.455 43.1471L113.084 42.0436H110.47L110.089 43.1471L110.595 43.2389V43.9813H108.363ZM110.788 41.1123H112.771L111.86 38.5134L111.796 38.3253H111.767L111.699 38.5231L110.788 41.1123Z" fill="black"/>
<path d="M115.754 43.9813V43.2389L116.521 43.0937V37.8514L115.754 37.7069V36.96H118.998C119.461 36.9474 119.922 37.0301 120.352 37.203C120.7 37.3447 120.997 37.5873 121.206 37.8995C121.398 38.2289 121.499 38.6033 121.499 38.9846C121.499 39.3659 121.398 39.7404 121.206 40.0697C121.007 40.3788 120.724 40.625 120.391 40.7798C120.006 40.9569 119.588 41.047 119.165 41.0438L117.735 41.0589V43.0899L118.503 43.2351V43.9776L115.754 43.9813ZM117.736 40.1148H118.946C119.306 40.143 119.664 40.0448 119.959 39.8373C120.071 39.7362 120.159 39.6111 120.215 39.4713C120.272 39.3315 120.296 39.1806 120.286 39.0301C120.293 38.8784 120.269 38.7269 120.214 38.5852C120.16 38.4434 120.076 38.3147 119.969 38.2072C119.697 37.9828 119.349 37.873 118.998 37.901H117.736V40.1148ZM120.32 43.9813L118.98 40.7505L120.118 40.5632L121.255 43.114L121.804 43.2298V43.9821L120.32 43.9813Z" fill="black"/>
<path d="M128.312 44.0821C127.832 44.0916 127.356 43.994 126.918 43.7962C126.529 43.6186 126.199 43.3311 125.971 42.9688C125.734 42.5751 125.616 42.1218 125.631 41.6629V37.8514L124.863 37.7077V36.9607H127.608V37.7077L126.842 37.8514V41.6607C126.833 41.9443 126.896 42.2256 127.025 42.4783C127.142 42.6926 127.323 42.865 127.542 42.9718C127.784 43.0859 128.05 43.1422 128.318 43.1365C128.591 43.143 128.862 43.0866 129.11 42.9718C129.331 42.8653 129.513 42.6935 129.632 42.4798C129.764 42.2275 129.827 41.9452 129.817 41.6607V37.8514L129.051 37.7077V36.9607H131.794V37.7077L131.032 37.8514V41.6607C131.047 42.1227 130.929 42.5794 130.692 42.9763C130.463 43.3387 130.132 43.6249 129.74 43.7985C129.29 43.9957 128.802 44.092 128.311 44.0806" fill="black"/>
<path d="M132.367 43.9813V43.2388L133.134 43.0937V37.8514L132.367 37.7077V36.9607H134.363L137.583 42.0857L137.613 42.0751V37.8514L136.726 37.7077V36.9607H139.474V37.7077L138.708 37.8514V43.9798H137.555L134.257 38.8736L134.229 38.8781V43.0907L135.117 43.2358V43.9783L132.367 43.9813Z" fill="black"/>
<path d="M140.07 43.9813V43.2388L140.838 43.0937V37.8514L140.07 37.7077V36.9607H142.814V37.7077L142.052 37.8514V43.0922L142.814 43.2373V43.9798L140.07 43.9813Z" fill="black"/>
<path d="M146.265 43.9812L143.965 37.7859L143.363 37.7106V36.9637H145.913V37.7106L145.278 37.8122L146.739 42.0886L146.869 42.5452H146.899L147.033 42.0939L148.514 37.8062L147.786 37.7091V36.9622H150.26V37.7091L149.652 37.7843L147.439 43.9798L146.265 43.9812Z" fill="black"/>
<path d="M150.805 43.9813V43.2388L151.572 43.0937V37.8514L150.805 37.7077V36.9607H156.152V38.7661H155.207L155.125 37.8935H152.787V39.8824H155.251V40.8227H152.787V43.0545H155.254L155.337 42.1639H156.27V43.9805L150.805 43.9813Z" fill="black"/>
<path d="M157.105 43.9813V43.2389L157.872 43.0937V37.8514L157.105 37.7069V36.96H160.35C160.813 36.9474 161.274 37.0301 161.704 37.203C162.051 37.3448 162.348 37.5874 162.557 37.8995C162.713 38.1367 162.815 38.4046 162.859 38.685C162.902 38.9654 162.884 39.2518 162.807 39.5249C162.73 39.7979 162.596 40.0513 162.412 40.2678C162.229 40.4843 162.001 40.6589 161.744 40.7798C161.36 40.9571 160.941 41.0472 160.518 41.0438L159.088 41.0589V43.0899L159.855 43.2351V43.9776L157.105 43.9813ZM159.087 40.1148H160.297C160.656 40.1431 161.014 40.0449 161.309 39.8373C161.421 39.7363 161.509 39.6112 161.566 39.4714C161.623 39.3316 161.647 39.1807 161.637 39.0301C161.644 38.8784 161.62 38.7268 161.565 38.5851C161.511 38.4434 161.427 38.3146 161.319 38.2072C161.048 37.983 160.701 37.8732 160.35 37.901H159.087V40.1148ZM161.672 43.9813L160.33 40.7505L161.469 40.5632L162.606 43.114L163.156 43.2298V43.9821L161.672 43.9813Z" fill="black"/>
<path d="M166.571 44.0821C166.119 44.0862 165.669 44.0262 165.235 43.9038C164.803 43.776 164.396 43.5756 164.031 43.3111V41.6952H164.972L165.123 42.7424C165.315 42.874 165.527 42.9735 165.752 43.0372C166.016 43.113 166.29 43.1503 166.565 43.1478C166.811 43.1548 167.056 43.1129 167.285 43.0244C167.464 42.954 167.619 42.8343 167.732 42.6792C167.836 42.5235 167.888 42.3395 167.883 42.1526C167.886 41.9775 167.839 41.8051 167.748 41.6554C167.633 41.4898 167.478 41.3565 167.297 41.268C167.027 41.1304 166.742 41.0241 166.447 40.9513C165.992 40.8362 165.551 40.668 165.134 40.4503C164.816 40.2878 164.542 40.0493 164.338 39.756C164.156 39.4607 164.063 39.1192 164.07 38.7723C164.077 38.4255 164.184 38.088 164.377 37.8002C164.595 37.5005 164.888 37.2642 165.227 37.1157C165.624 36.942 166.053 36.8548 166.487 36.8599C166.955 36.846 167.423 36.9148 167.868 37.063C168.236 37.1867 168.58 37.3744 168.883 37.6174V39.1301H167.974L167.801 38.1462C167.643 38.0408 167.469 37.9606 167.286 37.9085C167.045 37.8376 166.794 37.8041 166.542 37.8092C166.321 37.8049 166.101 37.8459 165.896 37.9296C165.722 38.001 165.57 38.1186 165.457 38.2696C165.349 38.4223 165.294 38.6056 165.298 38.7924C165.294 38.9578 165.343 39.1202 165.438 39.2558C165.562 39.4117 165.722 39.5349 165.905 39.6146C166.192 39.7472 166.488 39.8562 166.793 39.9403C167.427 40.0803 168.02 40.3677 168.523 40.779C168.714 40.95 168.866 41.1607 168.967 41.3964C169.069 41.6321 169.118 41.8871 169.11 42.1436C169.117 42.5087 169.006 42.8663 168.794 43.1636C168.567 43.4675 168.26 43.702 167.907 43.8406C167.482 44.0096 167.027 44.0915 166.569 44.0813" fill="black"/>
<path d="M169.777 43.9813V43.2388L170.543 43.0937V37.8514L169.777 37.7077V36.9607H172.518V37.7077L171.756 37.8514V43.0922L172.518 43.2373V43.9798L169.777 43.9813Z" fill="black"/>
<path d="M174.832 43.9812V43.2388L175.598 43.0936V37.8912H174.186L174.08 38.7893H173.168V36.9622H179.248V38.7893H178.332L178.226 37.8912H176.814V43.0936L177.58 43.2388V43.9812H174.832Z" fill="black"/>
<path d="M181.873 43.9812V43.2388L182.635 43.0936V41.5139L180.522 37.8069L179.887 37.7099V36.9629H182.526V37.7099L181.855 37.7971L183.157 40.2562L183.264 40.4676L183.283 40.4578L183.385 40.2607L184.792 37.7964L183.996 37.7091V36.9622H186.588V37.7091L185.927 37.8062L183.845 41.4169V43.0951L184.611 43.2403V43.9828L181.873 43.9812Z" fill="black"/>
<path d="M67.8517 32.4156C66.6017 32.4262 65.3565 32.2601 64.153 31.9221C62.9597 31.5662 61.8355 31.0104 60.8281 30.2785V25.8064H63.4324L63.8589 28.7033C64.3904 29.0699 64.9795 29.345 65.6018 29.5172C66.3329 29.7285 67.0908 29.8324 67.8517 29.8256C68.5329 29.845 69.2112 29.7292 69.8474 29.4849C70.3422 29.2915 70.771 28.9599 71.0826 28.5295C71.3735 28.1011 71.5232 27.5924 71.5106 27.0747C71.5181 26.59 71.3876 26.1131 71.1345 25.6996C70.8197 25.2406 70.392 24.8704 69.8925 24.6247C69.1448 24.2446 68.3561 23.9511 67.5418 23.7498C66.2791 23.4309 65.0581 22.9648 63.904 22.3612C63.0233 21.91 62.2667 21.2495 61.7007 20.4378C61.1981 19.621 60.941 18.677 60.9599 17.7182C60.9789 16.7594 61.2731 15.8262 61.8075 15.0299C62.4098 14.199 63.2236 13.5445 64.1643 13.1343C65.2621 12.6522 66.4505 12.4109 67.6494 12.4265C68.9477 12.3876 70.2427 12.5776 71.4752 12.9876C72.4949 13.3304 73.4462 13.8501 74.2856 14.5229V18.7031H71.7348L71.2541 15.9785C70.8169 15.6865 70.3374 15.4635 69.8324 15.3173C69.1624 15.1233 68.4671 15.0312 67.7697 15.0442C67.1567 15.0322 66.5478 15.1456 65.9802 15.3775C65.4966 15.5746 65.0763 15.9003 64.7646 16.3193C64.4651 16.7417 64.3104 17.2497 64.3238 17.7673C64.3145 18.2239 64.4504 18.6717 64.7119 19.0461C65.055 19.4793 65.4997 19.8211 66.0065 20.0413C66.7989 20.41 67.6207 20.712 68.4633 20.944C70.2222 21.3297 71.8649 22.1259 73.2573 23.2677C73.7875 23.7409 74.2079 24.3242 74.4892 24.9769C74.7705 25.6295 74.9059 26.3357 74.8859 27.0461C74.9064 28.0571 74.6001 29.0478 74.0125 29.8708C73.3829 30.7113 72.532 31.3603 71.555 31.7453C70.3769 32.2138 69.1169 32.4412 67.8495 32.4141" fill="black"/>
<path d="M85.2356 32.4156C84.0302 32.434 82.8356 32.1853 81.7377 31.6874C80.705 31.21 79.7905 30.5103 79.0597 29.6383C78.2942 28.7155 77.7121 27.6549 77.3446 26.5136C76.9323 25.2372 76.7291 23.9026 76.7428 22.5613V22.2672C76.7298 20.9304 76.9331 19.6004 77.3446 18.3285C77.7129 17.1857 78.2949 16.1233 79.0597 15.1977C79.7887 14.3221 80.7035 13.6198 81.7377 13.1419C82.8311 12.6449 84.0211 12.3963 85.222 12.4137C86.4493 12.3928 87.6661 12.6414 88.7869 13.1419C89.8251 13.6164 90.7428 14.3192 91.4716 15.1977C92.2316 16.1234 92.8072 17.1862 93.1671 18.3285C93.5698 19.6021 93.7681 20.9315 93.7546 22.2672V22.5613C93.7688 23.9015 93.5705 25.2355 93.1671 26.5136C92.808 27.6544 92.2323 28.7154 91.4716 29.6383C90.7408 30.5132 89.8235 31.2133 88.7869 31.6874C87.6706 32.187 86.4583 32.4356 85.2356 32.4156ZM85.2356 29.7444C86.2786 29.786 87.3042 29.4672 88.1399 28.8417C88.9389 28.1864 89.5283 27.3114 89.8355 26.3247C90.2262 25.1088 90.4135 23.8368 90.3899 22.5598V22.2394C90.4131 20.975 90.2234 19.7157 89.8287 18.5143C89.5135 17.5315 88.9227 16.66 88.1264 16.0034C87.2921 15.3745 86.2659 15.0537 85.222 15.0954C84.2057 15.0612 83.2093 15.3823 82.4042 16.0034C81.6102 16.6635 81.018 17.5336 80.6951 18.5143C80.292 19.714 80.0981 20.974 80.1219 22.2394V22.5598C80.0984 23.837 80.2923 25.1088 80.6951 26.321C81.0139 27.309 81.6097 28.1847 82.4117 28.844C83.2208 29.4614 84.2184 29.7803 85.2356 29.7467" fill="black"/>
<path d="M95.582 32.1343V30.0777L97.6883 29.6775V15.1639L95.582 14.7637V12.6936H102.512L108.214 26.7544H108.294L113.822 12.6936H120.835V14.7637L118.712 15.1639V29.6775L120.835 30.0777V32.1343H113.237V30.0777L115.467 29.6775V25.1513L115.493 16.6451L115.426 16.6331L109.401 31.6943H106.957L100.762 16.7135L100.696 16.7278L100.87 24.9272V29.6805L103.18 30.0807V32.1343H95.582Z" fill="black"/>
<path d="M121.715 32.1342V30.0776L123.131 29.8775L129.566 12.692H132.837L139.191 29.8775L140.606 30.0769V32.1342H134.423V30.0776L135.812 29.8249L134.783 26.7663H127.546L126.493 29.8249L127.895 30.0776V32.1342H121.715ZM128.434 24.1899H133.921L131.398 16.9933L131.225 16.4727H131.142L130.955 17.0196L128.434 24.1899Z" fill="black"/>
<path d="M142.199 32.1343V30.0777L144.322 29.6775V15.1639L142.199 14.7637V12.6936H149.797V14.7637L147.691 15.1639V29.6775L149.797 30.0777V32.1343H142.199Z" fill="black"/>
<path d="M156.673 32.1342V30.0776L158.779 29.6774V25.2979L152.93 15.0292L151.168 14.7629V12.6928H158.485V14.7629L156.629 15.0029L160.235 21.8128L160.529 22.4003L160.581 22.374L160.861 21.8256L164.761 15.0021L162.558 14.7622V12.692H169.732V14.7622L167.903 15.0284L162.136 25.0332V29.6789L164.258 30.0791V32.1342H156.673Z" fill="black"/>
<path d="M167.691 32.1342V30.0776L169.107 29.8783L175.542 12.6927H178.814L185.17 29.8775L186.585 30.0769V32.1342H180.403V30.0776L181.791 29.8249L180.763 26.7663H173.526L172.473 29.8249L173.874 30.0776V32.1342H167.691ZM174.407 24.1891H179.899L177.376 16.9925L177.203 16.472H177.122L176.935 17.0188L174.407 24.1891Z" fill="black"/>
</svg>
