<svg width="30" height="30" viewBox="0 0 30 30" fill="none" xmlns="http://www.w3.org/2000/svg">
<path d="M22.5 15C22.5 15.1547 22.4368 15.3031 22.3243 15.4125C22.2117 15.5219 22.0591 15.5833 21.9 15.5833H11.9482L16.3245 19.8373C16.3802 19.8915 16.4245 19.9558 16.4546 20.0266C16.4848 20.0975 16.5003 20.1734 16.5003 20.25C16.5003 20.3266 16.4848 20.4025 16.4546 20.4734C16.4245 20.5442 16.3802 20.6085 16.3245 20.6627C16.2688 20.7169 16.2026 20.7599 16.1297 20.7892C16.0569 20.8186 15.9788 20.8337 15.9 20.8337C15.8212 20.8337 15.7431 20.8186 15.6703 20.7892C15.5974 20.7599 15.5312 20.7169 15.4755 20.6627L10.0755 15.4127C10.0197 15.3585 9.97546 15.2942 9.94526 15.2234C9.91507 15.1526 9.89953 15.0767 9.89953 15C9.89953 14.9233 9.91507 14.8474 9.94526 14.7766C9.97546 14.7058 10.0197 14.6415 10.0755 14.5873L15.4755 9.33729C15.5312 9.28309 15.5974 9.2401 15.6703 9.21077C15.7431 9.18144 15.8212 9.16634 15.9 9.16634C15.9788 9.16634 16.0569 9.18144 16.1297 9.21077C16.2026 9.2401 16.2688 9.28309 16.3245 9.33729C16.3802 9.39149 16.4245 9.45583 16.4546 9.52664C16.4848 9.59746 16.5003 9.67335 16.5003 9.75C16.5003 9.82665 16.4848 9.90254 16.4546 9.97336C16.4245 10.0442 16.3802 10.1085 16.3245 10.1627L11.9482 14.4167H21.9C22.0591 14.4167 22.2117 14.4781 22.3243 14.5875C22.4368 14.6969 22.5 14.8453 22.5 15ZM8.1 8C7.94087 8 7.78826 8.06146 7.67574 8.17085C7.56321 8.28025 7.5 8.42862 7.5 8.58333V21.4167C7.5 21.5714 7.56321 21.7197 7.67574 21.8291C7.78826 21.9385 7.94087 22 8.1 22C8.25913 22 8.41174 21.9385 8.52426 21.8291C8.63679 21.7197 8.7 21.5714 8.7 21.4167V8.58333C8.7 8.42862 8.63679 8.28025 8.52426 8.17085C8.41174 8.06146 8.25913 8 8.1 8Z" fill="black"/>
</svg>
