<svg width="32" height="32" viewBox="0 0 32 32" fill="none" xmlns="http://www.w3.org/2000/svg">
<path d="M20.8 8H13.6C13.2817 8 12.9765 8.12967 12.7515 8.36048C12.5264 8.5913 12.4 8.90435 12.4 9.23077V10.4615H11.2C10.8817 10.4615 10.5765 10.5912 10.3515 10.822C10.1264 11.0528 10 11.3659 10 11.6923V23.3846C10 23.4977 10.0304 23.6086 10.0878 23.7051C10.1452 23.8016 10.2274 23.8801 10.3254 23.9318C10.4235 23.9835 10.5335 24.0066 10.6435 23.9984C10.7534 23.9902 10.859 23.9511 10.9488 23.8854L14.8 21.0638L18.652 23.8854C18.7417 23.9509 18.8473 23.9898 18.9571 23.9979C19.0669 24.006 19.1768 23.9829 19.2747 23.9312C19.3726 23.8794 19.4548 23.8011 19.5121 23.7047C19.5695 23.6083 19.5999 23.4975 19.6 23.3846V20.3608L21.0513 21.4238C21.141 21.4896 21.2466 21.5287 21.3565 21.5368C21.4665 21.545 21.5765 21.522 21.6746 21.4703C21.7726 21.4185 21.8548 21.3401 21.9122 21.2436C21.9696 21.147 22 21.0361 22 20.9231V9.23077C22 8.90435 21.8736 8.5913 21.6485 8.36048C21.4235 8.12967 21.1183 8 20.8 8ZM18.4 22.1892L15.148 19.8046C15.0462 19.7301 14.9243 19.69 14.7993 19.69C14.6742 19.69 14.5523 19.7301 14.4505 19.8046L11.2 22.1884V11.6923H18.4V22.1892ZM20.8 19.7277L19.6 18.8461V11.6923C19.6 11.3659 19.4736 11.0528 19.2485 10.822C19.0235 10.5912 18.7183 10.4615 18.4 10.4615H13.6V9.23077H20.8V19.7277Z" fill="#16A34A"/>
</svg>
