<svg width="40" height="40" viewBox="0 0 40 40" fill="none" xmlns="http://www.w3.org/2000/svg">
<rect width="40" height="40" rx="20" fill="#F0FFF6"/>
<path d="M21.4419 10.0483C21.3494 9.97142 21.2398 9.9179 21.1224 9.89226C21.0049 9.86661 20.883 9.86959 20.7669 9.90093C20.6508 9.93227 20.544 9.99106 20.4554 10.0723C20.3668 10.1536 20.299 10.255 20.2578 10.368L18.1953 16.0314L15.9303 13.8367C15.8542 13.7629 15.7634 13.7061 15.6638 13.67C15.5642 13.6339 15.458 13.6193 15.3523 13.6272C15.2467 13.6351 15.1439 13.6652 15.0507 13.7157C14.9576 13.7662 14.8762 13.8359 14.8119 13.9202C12.7813 16.5808 11.75 19.2573 11.75 21.8748C11.75 24.0629 12.6192 26.1613 14.1664 27.7085C15.7135 29.2557 17.812 30.1248 20 30.1248C22.188 30.1248 24.2865 29.2557 25.8336 27.7085C27.3808 26.1613 28.25 24.0629 28.25 21.8748C28.25 16.3014 23.4884 11.7498 21.4419 10.0483ZM25.2397 22.7505C25.0452 23.8368 24.5226 24.8374 23.7422 25.6176C22.9618 26.3979 21.961 26.9203 20.8747 27.1145C20.8335 27.1216 20.7918 27.125 20.75 27.1248C20.5619 27.1248 20.3806 27.054 20.2422 26.9266C20.1038 26.7992 20.0183 26.6244 20.0028 26.4369C19.9872 26.2495 20.0426 26.063 20.1581 25.9144C20.2736 25.7659 20.4407 25.6663 20.6262 25.6352C22.1797 25.3736 23.4978 24.0555 23.7612 22.4992C23.7946 22.303 23.9045 22.1281 24.0667 22.013C24.229 21.8978 24.4304 21.8518 24.6266 21.8852C24.8227 21.9185 24.9976 22.0284 25.1128 22.1906C25.228 22.3529 25.273 22.5543 25.2397 22.7505Z" fill="url(#paint0_linear_622_5438)"/>
<defs>
<linearGradient id="paint0_linear_622_5438" x1="20" y1="9.875" x2="20" y2="30.1248" gradientUnits="userSpaceOnUse">
<stop stop-color="#FF0000"/>
<stop offset="1" stop-color="#FFF200"/>
</linearGradient>
</defs>
</svg>
