<svg width="32" height="32" viewBox="0 0 32 32" fill="none" xmlns="http://www.w3.org/2000/svg">
<path d="M16.9231 20C16.9231 20.1826 16.8689 20.361 16.7675 20.5128C16.6661 20.6646 16.5219 20.7829 16.3532 20.8528C16.1846 20.9227 15.999 20.941 15.8199 20.9053C15.6409 20.8697 15.4764 20.7818 15.3473 20.6527C15.2182 20.5236 15.1303 20.3591 15.0947 20.1801C15.059 20.001 15.0773 19.8154 15.1472 19.6468C15.2171 19.4781 15.3354 19.3339 15.4872 19.2325C15.639 19.1311 15.8174 19.0769 16 19.0769C16.2448 19.0769 16.4796 19.1742 16.6527 19.3473C16.8258 19.5204 16.9231 19.7552 16.9231 20ZM16 11.6923C14.3031 11.6923 12.9231 12.9346 12.9231 14.4615V14.7692C12.9231 14.9324 12.9879 15.089 13.1033 15.2044C13.2187 15.3198 13.3753 15.3846 13.5385 15.3846C13.7017 15.3846 13.8582 15.3198 13.9736 15.2044C14.089 15.089 14.1538 14.9324 14.1538 14.7692V14.4615C14.1538 13.6154 14.9823 12.9231 16 12.9231C17.0177 12.9231 17.8462 13.6154 17.8462 14.4615C17.8462 15.3077 17.0177 16 16 16C15.8368 16 15.6803 16.0648 15.5649 16.1802C15.4495 16.2956 15.3846 16.4522 15.3846 16.6154V17.2308C15.3846 17.394 15.4495 17.5505 15.5649 17.6659C15.6803 17.7813 15.8368 17.8462 16 17.8462C16.1632 17.8462 16.3197 17.7813 16.4351 17.6659C16.5506 17.5505 16.6154 17.394 16.6154 17.2308V17.1754C18.0185 16.9177 19.0769 15.7985 19.0769 14.4615C19.0769 12.9346 17.6969 11.6923 16 11.6923ZM24 16C24 17.5822 23.5308 19.129 22.6518 20.4446C21.7727 21.7602 20.5233 22.7855 19.0615 23.391C17.5997 23.9965 15.9911 24.155 14.4393 23.8463C12.8874 23.5376 11.462 22.7757 10.3431 21.6569C9.22433 20.538 8.4624 19.1126 8.15372 17.5607C7.84504 16.0089 8.00347 14.4003 8.60897 12.9385C9.21447 11.4767 10.2398 10.2273 11.5554 9.34824C12.871 8.46919 14.4178 8 16 8C18.121 8.00224 20.1546 8.84581 21.6544 10.3456C23.1542 11.8454 23.9978 13.879 24 16ZM22.7692 16C22.7692 14.6612 22.3722 13.3524 21.6284 12.2392C20.8846 11.126 19.8274 10.2584 18.5905 9.74605C17.3536 9.2337 15.9925 9.09965 14.6794 9.36084C13.3663 9.62203 12.1601 10.2667 11.2134 11.2134C10.2667 12.1601 9.62203 13.3663 9.36084 14.6794C9.09965 15.9925 9.2337 17.3536 9.74605 18.5905C10.2584 19.8274 11.126 20.8846 12.2392 21.6284C13.3524 22.3722 14.6612 22.7692 16 22.7692C17.7947 22.7672 19.5153 22.0534 20.7843 20.7843C22.0534 19.5153 22.7672 17.7947 22.7692 16Z" fill="#16A34A"/>
</svg>
