<svg width="48" height="48" viewBox="0 0 48 48" fill="none" xmlns="http://www.w3.org/2000/svg">
<rect width="48" height="48" rx="24" fill="#F0FFF6"/>
<path d="M32.0385 16H15.9615C15.5739 16 15.2022 16.1532 14.9281 16.426C14.654 16.6988 14.5 17.0688 14.5 17.4545V30.5455C14.5 30.9312 14.654 31.3012 14.9281 31.574C15.2022 31.8468 15.5739 32 15.9615 32H32.0385C32.4261 32 32.7978 31.8468 33.0719 31.574C33.346 31.3012 33.5 30.9312 33.5 30.5455V17.4545C33.5 17.0688 33.346 16.6988 33.0719 16.426C32.7978 16.1532 32.4261 16 32.0385 16ZM30.5769 28.3636C30.7707 28.3636 30.9566 28.4403 31.0937 28.5766C31.2307 28.713 31.3077 28.898 31.3077 29.0909C31.3077 29.2838 31.2307 29.4688 31.0937 29.6052C30.9566 29.7416 30.7707 29.8182 30.5769 29.8182H17.4231C17.2293 29.8182 17.0434 29.7416 16.9063 29.6052C16.7693 29.4688 16.6923 29.2838 16.6923 29.0909V18.9091C16.6923 18.7162 16.7693 18.5312 16.9063 18.3948C17.0434 18.2584 17.2293 18.1818 17.4231 18.1818C17.6169 18.1818 17.8028 18.2584 17.9398 18.3948C18.0769 18.5312 18.1538 18.7162 18.1538 18.9091V24.6291L21.34 21.9864C21.4611 21.886 21.6115 21.8272 21.7689 21.8188C21.9263 21.8105 22.0821 21.853 22.2133 21.94L26.1412 24.5482L30.1065 21.2591C30.2555 21.1356 30.4476 21.0762 30.6407 21.0937C30.8338 21.1113 31.0119 21.2044 31.136 21.3527C31.26 21.501 31.3198 21.6923 31.3021 21.8844C31.2845 22.0765 31.1909 22.2538 31.0419 22.3773L26.6573 26.0136C26.5362 26.114 26.3857 26.1728 26.2284 26.1812C26.071 26.1895 25.9151 26.147 25.784 26.06L21.8561 23.4518L18.1538 26.5227V28.3636H30.5769Z" fill="#16A34A"/>
</svg>
