<svg width="10" height="10" viewBox="0 0 10 10" fill="none" xmlns="http://www.w3.org/2000/svg">
<path d="M9.76562 2.46878L7.53159 0.23437C7.4573 0.160067 7.3691 0.101125 7.27203 0.0609115C7.17495 0.0206979 7.07091 0 6.96584 0C6.86076 0 6.75672 0.0206979 6.65964 0.0609115C6.56257 0.101125 6.47437 0.160067 6.40008 0.23437L0.234507 6.40013C0.159896 6.47415 0.100742 6.56226 0.0604843 6.65933C0.0202267 6.75641 -0.000331723 6.86052 4.04752e-06 6.96561V9.20003C4.04752e-06 9.41219 0.0842905 9.61567 0.234321 9.76569C0.384352 9.91571 0.587838 10 0.800013 10H3.03454C3.13964 10.0003 3.24375 9.97977 3.34083 9.93952C3.43792 9.89926 3.52603 9.84011 3.60005 9.7655L9.76562 3.60024C9.83992 3.52595 9.89887 3.43776 9.93909 3.34069C9.9793 3.24362 10 3.13958 10 3.03451C10 2.92944 9.9793 2.8254 9.93909 2.72834C9.89887 2.63127 9.83992 2.54307 9.76562 2.46878ZM3.03454 9.20003H0.800013V6.96561L5.20006 2.56578L7.43459 4.8002L3.03454 9.20003ZM8.0001 4.23422L5.76557 2.0003L6.96558 0.800349L9.20011 3.03426L8.0001 4.23422Z" fill="white"/>
</svg>
