<svg width="16" height="16" viewBox="0 0 16 16" fill="none" xmlns="http://www.w3.org/2000/svg">
<path d="M14.9392 11.6882C14.5055 10.9528 13.8608 8.87192 13.8608 6.15411C13.8608 4.52194 13.2023 2.95662 12.0299 1.8025C10.8576 0.648378 9.26766 0 7.60977 0C5.95188 0 4.36189 0.648378 3.18958 1.8025C2.01728 2.95662 1.35869 4.52194 1.35869 6.15411C1.35869 8.87269 0.713261 10.9528 0.279593 11.6882C0.168847 11.8752 0.110137 12.0876 0.109382 12.304C0.108628 12.5204 0.165855 12.7332 0.275294 12.9209C0.384733 13.1086 0.542513 13.2646 0.732722 13.3731C0.922931 13.4817 1.13884 13.5389 1.35869 13.539H4.54752C4.69174 14.2338 5.07528 14.8582 5.63328 15.3066C6.19127 15.7551 6.88947 16 7.60977 16C8.33007 16 9.02826 15.7551 9.58625 15.3066C10.1442 14.8582 10.5278 14.2338 10.672 13.539H13.8608C14.0806 13.5388 14.2964 13.4814 14.4865 13.3729C14.6766 13.2643 14.8343 13.1083 14.9437 12.9206C15.053 12.7329 15.1102 12.5202 15.1094 12.3038C15.1086 12.0874 15.0499 11.8751 14.9392 11.6882ZM7.60977 14.7699C7.22206 14.7698 6.84392 14.6513 6.52739 14.4309C6.21086 14.2105 5.97151 13.8989 5.84227 13.539H9.37726C9.24802 13.8989 9.00867 14.2105 8.69214 14.4309C8.37561 14.6513 7.99747 14.7698 7.60977 14.7699ZM1.35869 12.3082C1.96035 11.2897 2.6089 8.92962 2.6089 6.15411C2.6089 4.84837 3.13578 3.59612 4.07362 2.67282C5.01146 1.74952 6.28345 1.23082 7.60977 1.23082C8.93608 1.23082 10.2081 1.74952 11.1459 2.67282C12.0838 3.59612 12.6106 4.84837 12.6106 6.15411C12.6106 8.92731 13.2576 11.2874 13.8608 12.3082H1.35869Z" fill="black"/>
</svg>
