<svg width="10" height="10" viewBox="0 0 10 10" fill="none" xmlns="http://www.w3.org/2000/svg">
<path d="M9.99263 0.757344C9.98077 0.562314 9.89795 0.378366 9.75977 0.240205C9.6216 0.102044 9.43763 0.019224 9.24258 0.00737195C8.61354 -0.0301266 7.00594 0.0273711 5.67186 1.36082L5.43434 1.60131H2.51766C2.4122 1.60072 2.30766 1.6211 2.21015 1.66127C2.11263 1.70144 2.02407 1.7606 1.94963 1.8353L0.234522 3.55124C0.129339 3.65634 0.0555317 3.78867 0.0213827 3.93338C-0.0127662 4.07809 -0.0059052 4.22946 0.0411958 4.37049C0.0882968 4.51152 0.173774 4.63663 0.288033 4.73179C0.402293 4.82694 0.540814 4.88837 0.68805 4.90919L2.61167 5.17768L4.82231 7.3881L5.09082 9.31252C5.11147 9.45975 5.17289 9.59827 5.26815 9.71243C5.3634 9.82658 5.48869 9.91181 5.62986 9.9585C5.71208 9.98596 5.79819 9.99998 5.88487 10C5.98984 10.0002 6.0938 9.97962 6.19078 9.93946C6.28775 9.8993 6.37582 9.84035 6.44991 9.76601L8.16601 8.05107C8.24073 7.97664 8.29989 7.88809 8.34007 7.79058C8.38024 7.69307 8.40062 7.58855 8.40003 7.48309V4.5667L8.63854 4.32821C9.97263 2.99426 10.0301 1.38682 9.99263 0.757344ZM2.51766 2.40128H4.63429L2.65767 4.37721L0.799557 4.11822L2.51766 2.40128ZM6.23839 1.9288C6.62278 1.54208 7.08527 1.24183 7.59497 1.04809C8.10467 0.854356 8.64984 0.771596 9.19408 0.805342C9.22913 1.34981 9.14722 1.89548 8.95386 2.40566C8.76049 2.91585 8.46015 3.37874 8.07301 3.76323L5.19983 6.63512L3.36572 4.80119L6.23839 1.9288ZM7.59998 7.48309L5.88337 9.20103L5.62386 7.3426L7.59998 5.36667V7.48309ZM3.89175 7.95808C3.66673 8.45106 2.91419 9.60101 0.799557 9.60101C0.693464 9.60101 0.591716 9.55887 0.516697 9.48386C0.441677 9.40885 0.399532 9.30711 0.399532 9.20103C0.399532 7.08661 1.5496 6.33414 2.04263 6.10864C2.09044 6.08684 2.14207 6.07468 2.19458 6.07283C2.24708 6.07098 2.29944 6.07949 2.34866 6.09788C2.39788 6.11626 2.44299 6.14416 2.48143 6.17998C2.51986 6.2158 2.55087 6.25884 2.57267 6.30664C2.59447 6.35444 2.60664 6.40606 2.60849 6.45856C2.61033 6.51107 2.60182 6.56342 2.58343 6.61263C2.56505 6.66185 2.53715 6.70696 2.50132 6.74539C2.4655 6.78382 2.42246 6.81482 2.37465 6.83662C2.05313 6.98311 1.34359 7.45459 1.21858 8.78204C2.54617 8.65705 3.01869 7.94758 3.1642 7.62609C3.186 7.57829 3.21701 7.53525 3.25544 7.49943C3.29388 7.46361 3.33899 7.43571 3.38821 7.41733C3.43743 7.39894 3.48979 7.39043 3.54229 7.39228C3.5948 7.39413 3.64643 7.4063 3.69424 7.42809C3.74204 7.44989 3.78508 7.48089 3.82091 7.51932C3.85673 7.55776 3.88463 7.60287 3.90302 7.65208C3.9214 7.70129 3.92992 7.75365 3.92807 7.80615C3.92622 7.85865 3.91405 7.91028 3.89225 7.95808H3.89175Z" fill="#747474"/>
</svg>
