<svg width="12" height="12" viewBox="0 0 12 12" fill="none" xmlns="http://www.w3.org/2000/svg">
<path d="M11.9912 0.908813C11.9769 0.674777 11.8775 0.454039 11.7117 0.288246C11.5459 0.122452 11.3252 0.0230688 11.0911 0.00884634C10.3363 -0.036152 8.40713 0.0328454 6.80623 1.63299L6.52121 1.92157H3.0212C2.89464 1.92086 2.7692 1.94532 2.65217 1.99352C2.53515 2.04173 2.42889 2.11272 2.33955 2.20236L0.281426 4.26149C0.155207 4.38761 0.066638 4.54641 0.0256593 4.72006C-0.0153194 4.89371 -0.00708624 5.07535 0.0494349 5.24459C0.105956 5.41382 0.208528 5.56396 0.34564 5.67814C0.482752 5.79233 0.648977 5.86605 0.82566 5.89103L3.134 6.21321L5.78677 8.86572L6.10899 11.175C6.13377 11.3517 6.20747 11.5179 6.32178 11.6549C6.43609 11.7919 6.58643 11.8942 6.75583 11.9502C6.85449 11.9832 6.95783 12 7.06185 12C7.1878 12.0002 7.31256 11.9755 7.42893 11.9274C7.5453 11.8792 7.65098 11.8084 7.73989 11.7192L9.79922 9.66129C9.88887 9.57196 9.95987 9.46571 10.0081 9.3487C10.0563 9.23169 10.0807 9.10626 10.08 8.97971V5.48004L10.3663 5.19385C11.9672 3.59311 12.0362 1.66418 11.9912 0.908813ZM3.0212 2.88154H5.56115L3.18921 5.25265L0.959468 4.94186L3.0212 2.88154ZM7.48607 2.31456C7.94734 1.8505 8.50232 1.49019 9.11396 1.25771C9.7256 1.02523 10.3798 0.925916 11.0329 0.966411C11.075 1.61977 10.9767 2.27457 10.7446 2.8868C10.5126 3.49902 10.1522 4.05449 9.68761 4.51588L6.2398 7.96215L4.03886 5.76143L7.48607 2.31456ZM9.11998 8.97971L7.06005 11.0412L6.74863 8.81112L9.11998 6.44001V8.97971ZM4.6701 9.54969C4.40008 10.1413 3.49703 11.5212 0.959468 11.5212C0.832156 11.5212 0.710059 11.4706 0.620036 11.3806C0.530013 11.2906 0.479438 11.1685 0.479438 11.0412C0.479438 8.50393 1.85952 7.60096 2.45116 7.33037C2.50853 7.30421 2.57048 7.28961 2.63349 7.28739C2.6965 7.28518 2.75933 7.29539 2.81839 7.31745C2.87745 7.33952 2.93159 7.37299 2.97771 7.41598C3.02384 7.45896 3.06104 7.5106 3.0872 7.56796C3.11336 7.62532 3.12797 7.68727 3.13018 7.75028C3.1324 7.81328 3.12219 7.8761 3.10012 7.93516C3.07806 7.99422 3.04457 8.04835 3.00159 8.09446C2.9586 8.14058 2.90695 8.17778 2.84959 8.20394C2.46376 8.37973 1.61231 8.94551 1.4623 10.5385C3.0554 10.3885 3.62243 9.53709 3.79704 9.15131C3.82321 9.09395 3.86041 9.0423 3.90653 8.99932C3.95265 8.95634 4.00679 8.92286 4.06585 8.90079C4.12491 8.87873 4.18774 8.86852 4.25075 8.87073C4.31376 8.87295 4.37572 8.88756 4.43308 8.91371C4.49045 8.93987 4.5421 8.97707 4.58509 9.02319C4.62807 9.06931 4.66155 9.12344 4.68362 9.1825C4.70568 9.24155 4.7159 9.30437 4.71368 9.36738C4.71147 9.43038 4.69686 9.49233 4.6707 9.54969H4.6701Z" fill="#16A34A"/>
</svg>
