<svg width="73" height="72" viewBox="0 0 73 72" fill="none" xmlns="http://www.w3.org/2000/svg">
<rect x="0.5" width="72" height="72" rx="36" fill="#F0FFF6"/>
<path d="M58.949 40.9422V40.9217C58.9454 40.9063 58.9406 40.8913 58.9346 40.8766C58.7981 40.5054 58.6395 40.1427 58.4596 39.7904L49.9122 20.4257C49.8299 20.2392 49.7135 20.0696 49.5689 19.9256C48.9579 19.3164 48.2325 18.8332 47.4341 18.5035C46.6357 18.1738 45.78 18.0041 44.9158 18.0041C44.0516 18.0041 43.1959 18.1738 42.3975 18.5035C41.5991 18.8332 40.8737 19.3164 40.2627 19.9256C39.9553 20.2324 39.7824 20.648 39.7816 21.0816V26.2056H33.2019V21.0816C33.2021 20.8662 33.1597 20.6529 33.0772 20.4539C32.9946 20.2548 32.8735 20.0739 32.7208 19.9215C32.1098 19.3123 31.3844 18.8291 30.586 18.4994C29.7876 18.1697 28.9319 18 28.0678 18C27.2036 18 26.3479 18.1697 25.5495 18.4994C24.7511 18.8291 24.0257 19.3123 23.4147 19.9215C23.2701 20.0655 23.1536 20.2351 23.0713 20.4216L14.5322 39.7904C14.3523 40.1427 14.1937 40.5054 14.0572 40.8766C14.0515 40.8907 14.0467 40.905 14.0428 40.9197C14.0428 40.9197 14.0428 40.9361 14.0428 40.9422C13.1936 43.3881 13.3455 46.0691 14.4657 48.4041C15.5858 50.7391 17.5839 52.54 20.027 53.4166C22.47 54.2931 25.1612 54.1747 27.5173 53.087C29.8734 51.9992 31.7045 50.0298 32.6139 47.6055C33.0143 46.5165 33.2162 45.365 33.2102 44.2052V29.485H39.7898V44.2072C39.7838 45.367 39.9857 46.5186 40.3861 47.6075C41.2955 50.0318 43.1266 52.0013 45.4827 53.089C47.8388 54.1768 50.53 54.2952 52.973 53.4186C55.4161 52.542 57.4142 50.7411 58.5343 48.4061C59.6545 46.0711 59.8064 43.3902 58.9572 40.9443L58.949 40.9422ZM29.5153 46.4762C28.9079 48.0917 27.6863 49.4037 26.1152 50.1277C24.5442 50.8517 22.7502 50.9295 21.122 50.3442C19.4938 49.7589 18.1625 48.5576 17.4167 47.0007C16.6708 45.4438 16.5704 43.6566 17.1373 42.0265L17.5094 41.18C18.1935 39.8839 19.293 38.8533 20.6328 38.2524C21.9726 37.6515 23.4756 37.5149 24.9023 37.8643C26.3291 38.2137 27.5975 39.0291 28.5054 40.1805C29.4133 41.3319 29.9085 42.753 29.9121 44.2175V44.2421C29.912 45.0069 29.7777 45.7657 29.5153 46.4844V46.4762ZM51.9129 50.4052C50.9183 50.7682 49.8505 50.8864 48.8003 50.7498C47.75 50.6133 46.7484 50.2261 45.8804 49.6211C45.0125 49.016 44.3039 48.2111 43.8148 47.2746C43.3258 46.3382 43.0708 45.2978 43.0714 44.2421V44.2195C43.0769 42.7558 43.5734 41.3358 44.482 40.1859C45.3905 39.0359 46.6589 38.2219 48.0852 37.8736C49.5115 37.5252 51.0137 37.6624 52.3526 38.2635C53.6916 38.8645 54.7904 39.8948 55.4741 41.1902L55.8463 42.0367C56.4313 43.6667 56.3461 45.4612 55.6093 47.0288C54.8725 48.5965 53.5437 49.8102 51.9129 50.4052Z" fill="#16A34A"/>
</svg>
