<svg width="73" height="72" viewBox="0 0 73 72" fill="none" xmlns="http://www.w3.org/2000/svg">
<rect x="0.5" width="72" height="72" rx="36" fill="#F0FFF6"/>
<path d="M44.4091 52.7144C44.4091 53.0554 44.2702 53.3824 44.023 53.6235C43.7758 53.8646 43.4405 54 43.0909 54H29.9092C29.5596 54 29.2244 53.8646 28.9771 53.6235C28.7299 53.3824 28.5911 53.0554 28.5911 52.7144C28.5911 52.3735 28.7299 52.0465 28.9771 51.8054C29.2244 51.5643 29.5596 51.4289 29.9092 51.4289H43.0909C43.4405 51.4289 43.7758 51.5643 44.023 51.8054C44.2702 52.0465 44.4091 52.3735 44.4091 52.7144ZM51 32.1453C51.0056 34.2885 50.5092 36.4045 49.5486 38.332C48.588 40.2595 47.1885 41.9475 45.457 43.2671C45.1333 43.5091 44.8706 43.8201 44.6889 44.1764C44.5073 44.5326 44.4116 44.9246 44.4091 45.3224V46.2866C44.4091 46.9685 44.1313 47.6225 43.6369 48.1047C43.1425 48.5868 42.472 48.8577 41.7728 48.8577H31.2274C30.5282 48.8577 29.8576 48.5868 29.3632 48.1047C28.8688 47.6225 28.5911 46.9685 28.5911 46.2866V45.3224C28.5908 44.9293 28.4981 44.5416 28.3202 44.1889C28.1422 43.8362 27.8837 43.528 27.5645 43.288C25.8374 41.9762 24.4389 40.2983 23.4749 38.3815C22.5109 36.4647 22.0066 34.3591 22.0002 32.2241C21.9574 24.5653 28.3044 18.1873 36.1508 18.0041C38.0841 17.9587 40.0072 18.2909 41.807 18.9812C43.6067 19.6715 45.2466 20.7059 46.6303 22.0236C48.0139 23.3413 49.1133 24.9156 49.8638 26.6539C50.6142 28.3922 51.0005 30.2593 51 32.1453ZM42.7054 32.5214C42.5829 32.4018 42.4376 32.307 42.2775 32.2423C42.1175 32.1776 41.946 32.1443 41.7728 32.1443C41.5995 32.1443 41.428 32.1776 41.268 32.2423C41.108 32.307 40.9626 32.4018 40.8402 32.5214L36.5001 36.7557L32.16 32.5214C31.9127 32.2802 31.5772 32.1446 31.2274 32.1446C30.8776 32.1446 30.5421 32.2802 30.2948 32.5214C30.0475 32.7626 29.9085 33.0898 29.9085 33.4309C29.9085 33.7721 30.0475 34.0992 30.2948 34.3405L35.1819 39.1051V45.001C35.1819 45.342 35.3208 45.669 35.568 45.9101C35.8152 46.1511 36.1505 46.2866 36.5001 46.2866C36.8497 46.2866 37.185 46.1511 37.4322 45.9101C37.6794 45.669 37.8183 45.342 37.8183 45.001V39.1051L42.7054 34.3405C42.8279 34.2211 42.9252 34.0793 42.9915 33.9232C43.0578 33.7671 43.092 33.5999 43.092 33.4309C43.092 33.262 43.0578 33.0947 42.9915 32.9386C42.9252 32.7826 42.8279 32.6408 42.7054 32.5214Z" fill="#16A34A"/>
</svg>
