<svg width="73" height="72" viewBox="0 0 73 72" fill="none" xmlns="http://www.w3.org/2000/svg">
<rect x="0.5" width="72" height="72" rx="36" fill="#F0FFF6"/>
<path d="M50.5909 18H26.6364C25.1415 18 23.7079 18.5835 22.6509 19.6222C21.5938 20.6608 21 22.0696 21 23.5385V52.6154C21 52.9826 21.1485 53.3348 21.4127 53.5945C21.677 53.8541 22.0354 54 22.4091 54H47.7727C48.1464 54 48.5049 53.8541 48.7691 53.5945C49.0334 53.3348 49.1818 52.9826 49.1818 52.6154C49.1818 52.2482 49.0334 51.896 48.7691 51.6363C48.5049 51.3766 48.1464 51.2308 47.7727 51.2308H23.8182C23.8182 50.4963 24.1151 49.792 24.6436 49.2726C25.1721 48.7533 25.8889 48.4615 26.6364 48.4615H50.5909C50.9646 48.4615 51.323 48.3157 51.5873 48.056C51.8515 47.7963 52 47.4441 52 47.0769V19.3846C52 19.0174 51.8515 18.6652 51.5873 18.4055C51.323 18.1459 50.9646 18 50.5909 18ZM46.3636 34.6154L41.8528 31.2923C41.7308 31.2024 41.5825 31.1538 41.4301 31.1538C41.2776 31.1538 41.1293 31.2024 41.0073 31.2923L36.5 34.6154V20.7692H46.3636V34.6154Z" fill="#16A34A"/>
</svg>
